%TF.GenerationSoftware,KiCad,Pcbnew,9.0.7*%
%TF.CreationDate,2026-02-20T22:23:55+09:00*%
%TF.ProjectId,MOTOR,4d4f544f-522e-46b6-9963-61645f706362,rev?*%
%TF.SameCoordinates,Original*%
%TF.FileFunction,Soldermask,Top*%
%TF.FilePolarity,Negative*%
%FSLAX46Y46*%
G04 Gerber Fmt 4.6, Leading zero omitted, Abs format (unit mm)*
G04 Created by KiCad (PCBNEW 9.0.7) date 2026-02-20 22:23:55*
%MOMM*%
%LPD*%
G01*
G04 APERTURE LIST*
G04 Aperture macros list*
%AMRoundRect*
0 Rectangle with rounded corners*
0 $1 Rounding radius*
0 $2 $3 $4 $5 $6 $7 $8 $9 X,Y pos of 4 corners*
0 Add a 4 corners polygon primitive as box body*
4,1,4,$2,$3,$4,$5,$6,$7,$8,$9,$2,$3,0*
0 Add four circle primitives for the rounded corners*
1,1,$1+$1,$2,$3*
1,1,$1+$1,$4,$5*
1,1,$1+$1,$6,$7*
1,1,$1+$1,$8,$9*
0 Add four rect primitives between the rounded corners*
20,1,$1+$1,$2,$3,$4,$5,0*
20,1,$1+$1,$4,$5,$6,$7,0*
20,1,$1+$1,$6,$7,$8,$9,0*
20,1,$1+$1,$8,$9,$2,$3,0*%
G04 Aperture macros list end*
%ADD10C,1.524000*%
%ADD11RoundRect,0.250000X0.750000X-0.600000X0.750000X0.600000X-0.750000X0.600000X-0.750000X-0.600000X0*%
%ADD12O,2.000000X1.700000*%
%ADD13RoundRect,0.250000X-0.550000X-0.550000X0.550000X-0.550000X0.550000X0.550000X-0.550000X0.550000X0*%
%ADD14C,1.600000*%
%ADD15C,1.701800*%
%ADD16RoundRect,0.760000X1.140000X-1.140000X1.140000X1.140000X-1.140000X1.140000X-1.140000X-1.140000X0*%
%ADD17C,3.800000*%
G04 APERTURE END LIST*
D10*
%TO.C,U3*%
X215990000Y-99250000D03*
X213450000Y-99250000D03*
X210910000Y-99250000D03*
X208370000Y-99250000D03*
X205830000Y-99250000D03*
X203290000Y-99250000D03*
X200750000Y-99250000D03*
X215990000Y-111950000D03*
X213450000Y-111950000D03*
X210910000Y-111950000D03*
X208370000Y-111950000D03*
X205830000Y-111950000D03*
X203290000Y-111950000D03*
X200750000Y-111950000D03*
%TD*%
D11*
%TO.C,J7*%
X221900000Y-114700000D03*
D12*
X221900000Y-112200000D03*
%TD*%
D13*
%TO.C,C2*%
X192447300Y-100150000D03*
D14*
X195947300Y-100150000D03*
%TD*%
D11*
%TO.C,J8*%
X221400000Y-124350000D03*
D12*
X221400000Y-121850000D03*
%TD*%
D10*
%TO.C,U4*%
X216020000Y-115350000D03*
X213480000Y-115350000D03*
X210940000Y-115350000D03*
X208400000Y-115350000D03*
X205860000Y-115350000D03*
X203320000Y-115350000D03*
X200780000Y-115350000D03*
X216020000Y-128050000D03*
X213480000Y-128050000D03*
X210940000Y-128050000D03*
X208400000Y-128050000D03*
X205860000Y-128050000D03*
X203320000Y-128050000D03*
X200780000Y-128050000D03*
%TD*%
D13*
%TO.C,C3*%
X192797300Y-109500000D03*
D14*
X196297300Y-109500000D03*
%TD*%
D13*
%TO.C,C1*%
X192997300Y-72250000D03*
D14*
X196497300Y-72250000D03*
%TD*%
D15*
%TO.C,J11*%
X225100000Y-101530000D03*
X222560000Y-101530000D03*
X225100000Y-98990000D03*
X222560000Y-98990000D03*
X225100000Y-96450000D03*
X222560000Y-96450000D03*
X225100000Y-93910000D03*
X222560000Y-93910000D03*
X225100000Y-91370000D03*
X222560000Y-91370000D03*
%TD*%
D10*
%TO.C,U1*%
X215890000Y-66250000D03*
X213350000Y-66250000D03*
X210810000Y-66250000D03*
X208270000Y-66250000D03*
X205730000Y-66250000D03*
X203190000Y-66250000D03*
X200650000Y-66250000D03*
X215890000Y-78950000D03*
X213350000Y-78950000D03*
X210810000Y-78950000D03*
X208270000Y-78950000D03*
X205730000Y-78950000D03*
X203190000Y-78950000D03*
X200650000Y-78950000D03*
%TD*%
D13*
%TO.C,C4*%
X192747300Y-119800000D03*
D14*
X196247300Y-119800000D03*
%TD*%
D10*
%TO.C,U2*%
X215920000Y-83050000D03*
X213380000Y-83050000D03*
X210840000Y-83050000D03*
X208300000Y-83050000D03*
X205760000Y-83050000D03*
X203220000Y-83050000D03*
X200680000Y-83050000D03*
X215920000Y-95750000D03*
X213380000Y-95750000D03*
X210840000Y-95750000D03*
X208300000Y-95750000D03*
X205760000Y-95750000D03*
X203220000Y-95750000D03*
X200680000Y-95750000D03*
%TD*%
D11*
%TO.C,J6*%
X222150000Y-80700000D03*
D12*
X222150000Y-78200000D03*
%TD*%
D16*
%TO.C,J9*%
X193500000Y-91200000D03*
D17*
X193500000Y-86200000D03*
%TD*%
D11*
%TO.C,J5*%
X221450000Y-71100000D03*
D12*
X221450000Y-68600000D03*
%TD*%
M02*
