M48
; DRILL file {KiCad 9.0.7} date 2026-02-20T22:23:55+0900
; FORMAT={-:-/ absolute / inch / decimal}
; #@! TF.CreationDate,2026-02-20T22:23:55+09:00
; #@! TF.GenerationSoftware,Kicad,Pcbnew,9.0.7
; #@! TF.FileFunction,Plated,1,2,PTH
FMAT,2
INCH
; #@! TA.AperFunction,Plated,PTH,ViaDrill
T1C0.0118
; #@! TA.AperFunction,Plated,PTH,ComponentDrill
T2C0.0300
; #@! TA.AperFunction,Plated,PTH,ComponentDrill
T3C0.0315
; #@! TA.AperFunction,Plated,PTH,ComponentDrill
T4C0.0394
; #@! TA.AperFunction,Plated,PTH,ComponentDrill
T5C0.0470
; #@! TA.AperFunction,Plated,PTH,ComponentDrill
T6C0.1063
%
G90
G05
T1
X7.4193Y-4.2283
X7.7224Y-4.8819
X7.7815Y-3.0846
X7.8051Y-3.7972
X7.8091Y-4.1713
X7.815Y-2.622
X7.8386Y-4.0591
X7.9213Y-3.5276
X7.9429Y-3.3445
X7.9528Y-3.9705
X7.9646Y-4.1594
X7.9685Y-4.9173
X7.9843Y-3.5335
X8.0039Y-2.6949
X8.0097Y-3.7124
X8.0118Y-3.0039
X8.0728Y-3.3386
X8.0984Y-3.5531
X8.12Y-4.0231
X8.1454Y-3.8243
X8.1634Y-4.6398
X8.1791Y-3.3406
X8.252Y-2.7067
X8.2657Y-3.3878
X8.3051Y-2.4705
X8.3524Y-3.5
X8.3874Y-3.9755
X8.4862Y-2.4055
X8.5827Y-3.6122
X8.6634Y-3.8012
X8.6809Y-3.8926
X8.6817Y-2.6233
X8.6892Y-3.9634
X8.7205Y-4.6713
X8.748Y-4.126
X8.8119Y-2.7398
X8.8194Y-4.5267
X8.8196Y-3.6546
X8.8423Y-4.4774
X8.8583Y-4.3504
X8.8622Y-4.1398
X8.9429Y-3.6457
X8.9764Y-4.315
X9.0315Y-3.8701
T2
X7.8996Y-2.6083
X7.8996Y-3.1083
X7.9008Y-3.2697
X7.9008Y-3.7697
X7.9035Y-3.9075
X7.9035Y-4.4075
X7.9047Y-4.5413
X7.9047Y-5.0413
X7.9996Y-2.6083
X7.9996Y-3.1083
X8.0008Y-3.2697
X8.0008Y-3.7697
X8.0035Y-3.9075
X8.0035Y-4.4075
X8.0047Y-4.5413
X8.0047Y-5.0413
X8.0996Y-2.6083
X8.0996Y-3.1083
X8.1008Y-3.2697
X8.1008Y-3.7697
X8.1035Y-3.9075
X8.1035Y-4.4075
X8.1047Y-4.5413
X8.1047Y-5.0413
X8.1996Y-2.6083
X8.1996Y-3.1083
X8.2008Y-3.2697
X8.2008Y-3.7697
X8.2035Y-3.9075
X8.2035Y-4.4075
X8.2047Y-4.5413
X8.2047Y-5.0413
X8.2996Y-2.6083
X8.2996Y-3.1083
X8.3008Y-3.2697
X8.3008Y-3.7697
X8.3035Y-3.9075
X8.3035Y-4.4075
X8.3047Y-4.5413
X8.3047Y-5.0413
X8.3996Y-2.6083
X8.3996Y-3.1083
X8.4008Y-3.2697
X8.4008Y-3.7697
X8.4035Y-3.9075
X8.4035Y-4.4075
X8.4047Y-4.5413
X8.4047Y-5.0413
X8.4996Y-2.6083
X8.4996Y-3.1083
X8.5008Y-3.2697
X8.5008Y-3.7697
X8.5035Y-3.9075
X8.5035Y-4.4075
X8.5047Y-4.5413
X8.5047Y-5.0413
T3
X7.5767Y-3.9429
X7.5885Y-4.7165
X7.5904Y-4.311
X7.5983Y-2.8445
X7.7145Y-3.9429
X7.7263Y-4.7165
X7.7282Y-4.311
X7.7361Y-2.8445
T4
X8.7165Y-4.7972
X8.7165Y-4.8957
X8.7185Y-2.7008
X8.7185Y-2.7992
X8.7362Y-4.4173
X8.7362Y-4.5157
X8.7461Y-3.0787
X8.7461Y-3.1772
T5
X8.7622Y-3.5972
X8.7622Y-3.6972
X8.7622Y-3.7972
X8.7622Y-3.8972
X8.7622Y-3.9972
X8.8622Y-3.5972
X8.8622Y-3.6972
X8.8622Y-3.7972
X8.8622Y-3.8972
X8.8622Y-3.9972
T6
X7.6181Y-3.3937
X7.6181Y-3.5906
M30
