%TF.GenerationSoftware,KiCad,Pcbnew,9.0.7*%
%TF.CreationDate,2026-02-20T22:23:55+09:00*%
%TF.ProjectId,MOTOR,4d4f544f-522e-46b6-9963-61645f706362,rev?*%
%TF.SameCoordinates,Original*%
%TF.FileFunction,Copper,L2,Bot*%
%TF.FilePolarity,Positive*%
%FSLAX46Y46*%
G04 Gerber Fmt 4.6, Leading zero omitted, Abs format (unit mm)*
G04 Created by KiCad (PCBNEW 9.0.7) date 2026-02-20 22:23:55*
%MOMM*%
%LPD*%
G01*
G04 APERTURE LIST*
G04 Aperture macros list*
%AMRoundRect*
0 Rectangle with rounded corners*
0 $1 Rounding radius*
0 $2 $3 $4 $5 $6 $7 $8 $9 X,Y pos of 4 corners*
0 Add a 4 corners polygon primitive as box body*
4,1,4,$2,$3,$4,$5,$6,$7,$8,$9,$2,$3,0*
0 Add four circle primitives for the rounded corners*
1,1,$1+$1,$2,$3*
1,1,$1+$1,$4,$5*
1,1,$1+$1,$6,$7*
1,1,$1+$1,$8,$9*
0 Add four rect primitives between the rounded corners*
20,1,$1+$1,$2,$3,$4,$5,0*
20,1,$1+$1,$4,$5,$6,$7,0*
20,1,$1+$1,$6,$7,$8,$9,0*
20,1,$1+$1,$8,$9,$2,$3,0*%
G04 Aperture macros list end*
%TA.AperFunction,ComponentPad*%
%ADD10C,1.524000*%
%TD*%
%TA.AperFunction,ComponentPad*%
%ADD11RoundRect,0.250000X0.750000X-0.600000X0.750000X0.600000X-0.750000X0.600000X-0.750000X-0.600000X0*%
%TD*%
%TA.AperFunction,ComponentPad*%
%ADD12O,2.000000X1.700000*%
%TD*%
%TA.AperFunction,ComponentPad*%
%ADD13RoundRect,0.250000X-0.550000X-0.550000X0.550000X-0.550000X0.550000X0.550000X-0.550000X0.550000X0*%
%TD*%
%TA.AperFunction,ComponentPad*%
%ADD14C,1.600000*%
%TD*%
%TA.AperFunction,ComponentPad*%
%ADD15C,1.701800*%
%TD*%
%TA.AperFunction,ComponentPad*%
%ADD16RoundRect,0.760000X1.140000X-1.140000X1.140000X1.140000X-1.140000X1.140000X-1.140000X-1.140000X0*%
%TD*%
%TA.AperFunction,ComponentPad*%
%ADD17C,3.800000*%
%TD*%
%TA.AperFunction,ViaPad*%
%ADD18C,0.600000*%
%TD*%
%TA.AperFunction,Conductor*%
%ADD19C,2.000000*%
%TD*%
%TA.AperFunction,Conductor*%
%ADD20C,0.200000*%
%TD*%
G04 APERTURE END LIST*
D10*
%TO.P,U3,1,VM*%
%TO.N,unconnected-(U3-VM-Pad1)*%
X215990000Y-99250000D03*
%TO.P,U3,2,GND*%
%TO.N,GND*%
X213450000Y-99250000D03*
%TO.P,U3,3,EN/IN1*%
%TO.N,PWM_M3*%
X210910000Y-99250000D03*
%TO.P,U3,4,PH/IN2*%
%TO.N,PWM_M3_2*%
X208370000Y-99250000D03*
%TO.P,U3,5,PMODE*%
%TO.N,GND*%
X205830000Y-99250000D03*
%TO.P,U3,6,SLEEP*%
%TO.N,3.3V*%
X203290000Y-99250000D03*
%TO.P,U3,7,VREF*%
%TO.N,unconnected-(U3-VREF-Pad7)*%
X200750000Y-99250000D03*
%TO.P,U3,8,VIN*%
%TO.N,Vin*%
X215990000Y-111950000D03*
%TO.P,U3,9,GND*%
%TO.N,GND_2*%
X213450000Y-111950000D03*
%TO.P,U3,10,OUT1*%
%TO.N,M3+*%
X210910000Y-111950000D03*
%TO.P,U3,11,OUT2*%
%TO.N,M3-*%
X208370000Y-111950000D03*
%TO.P,U3,12,IMODE*%
%TO.N,unconnected-(U3-IMODE-Pad12)*%
X205830000Y-111950000D03*
%TO.P,U3,13,FAULT*%
%TO.N,unconnected-(U3-FAULT-Pad13)*%
X203290000Y-111950000D03*
%TO.P,U3,14,CS*%
%TO.N,unconnected-(U3-CS-Pad14)*%
X200750000Y-111950000D03*
%TD*%
D11*
%TO.P,J7,1,Pin_1*%
%TO.N,M3+*%
X221900000Y-114700000D03*
D12*
%TO.P,J7,2,Pin_2*%
%TO.N,M3-*%
X221900000Y-112200000D03*
%TD*%
D13*
%TO.P,C2,1*%
%TO.N,Vin*%
X192447300Y-100150000D03*
D14*
%TO.P,C2,2*%
%TO.N,GND_2*%
X195947300Y-100150000D03*
%TD*%
D11*
%TO.P,J8,1,Pin_1*%
%TO.N,M4+*%
X221400000Y-124350000D03*
D12*
%TO.P,J8,2,Pin_2*%
%TO.N,M4-*%
X221400000Y-121850000D03*
%TD*%
D10*
%TO.P,U4,1,VM*%
%TO.N,unconnected-(U4-VM-Pad1)*%
X216020000Y-115350000D03*
%TO.P,U4,2,GND*%
%TO.N,GND*%
X213480000Y-115350000D03*
%TO.P,U4,3,EN/IN1*%
%TO.N,PWM_M4*%
X210940000Y-115350000D03*
%TO.P,U4,4,PH/IN2*%
%TO.N,PWM_M4_2*%
X208400000Y-115350000D03*
%TO.P,U4,5,PMODE*%
%TO.N,GND*%
X205860000Y-115350000D03*
%TO.P,U4,6,SLEEP*%
%TO.N,3.3V*%
X203320000Y-115350000D03*
%TO.P,U4,7,VREF*%
%TO.N,unconnected-(U4-VREF-Pad7)*%
X200780000Y-115350000D03*
%TO.P,U4,8,VIN*%
%TO.N,Vin*%
X216020000Y-128050000D03*
%TO.P,U4,9,GND*%
%TO.N,GND_2*%
X213480000Y-128050000D03*
%TO.P,U4,10,OUT1*%
%TO.N,M4+*%
X210940000Y-128050000D03*
%TO.P,U4,11,OUT2*%
%TO.N,M4-*%
X208400000Y-128050000D03*
%TO.P,U4,12,IMODE*%
%TO.N,unconnected-(U4-IMODE-Pad12)*%
X205860000Y-128050000D03*
%TO.P,U4,13,FAULT*%
%TO.N,unconnected-(U4-FAULT-Pad13)*%
X203320000Y-128050000D03*
%TO.P,U4,14,CS*%
%TO.N,unconnected-(U4-CS-Pad14)*%
X200780000Y-128050000D03*
%TD*%
D13*
%TO.P,C3,1*%
%TO.N,Vin*%
X192797300Y-109500000D03*
D14*
%TO.P,C3,2*%
%TO.N,GND_2*%
X196297300Y-109500000D03*
%TD*%
D13*
%TO.P,C1,1*%
%TO.N,Vin*%
X192997300Y-72250000D03*
D14*
%TO.P,C1,2*%
%TO.N,GND_2*%
X196497300Y-72250000D03*
%TD*%
D15*
%TO.P,J11,1,Pin_1*%
%TO.N,PWM_M2_2*%
X225100000Y-101530000D03*
%TO.P,J11,2,Pin_2*%
%TO.N,GND*%
X222560000Y-101530000D03*
%TO.P,J11,3,Pin_3*%
%TO.N,PWM_M3*%
X225100000Y-98990000D03*
%TO.P,J11,4,Pin_4*%
%TO.N,3.3V*%
X222560000Y-98990000D03*
%TO.P,J11,5,Pin_5*%
%TO.N,PWM_M3_2*%
X225100000Y-96450000D03*
%TO.P,J11,6,Pin_6*%
%TO.N,PWM_M1*%
X222560000Y-96450000D03*
%TO.P,J11,7,Pin_7*%
%TO.N,PWM_M4*%
X225100000Y-93910000D03*
%TO.P,J11,8,Pin_8*%
%TO.N,PWM_M1_2*%
X222560000Y-93910000D03*
%TO.P,J11,9,Pin_9*%
%TO.N,PWM_M4_2*%
X225100000Y-91370000D03*
%TO.P,J11,10,Pin_10*%
%TO.N,PWM_M2*%
X222560000Y-91370000D03*
%TD*%
D10*
%TO.P,U1,1,VM*%
%TO.N,unconnected-(U1-VM-Pad1)*%
X215890000Y-66250000D03*
%TO.P,U1,2,GND*%
%TO.N,GND*%
X213350000Y-66250000D03*
%TO.P,U1,3,EN/IN1*%
%TO.N,PWM_M1*%
X210810000Y-66250000D03*
%TO.P,U1,4,PH/IN2*%
%TO.N,PWM_M1_2*%
X208270000Y-66250000D03*
%TO.P,U1,5,PMODE*%
%TO.N,GND*%
X205730000Y-66250000D03*
%TO.P,U1,6,SLEEP*%
%TO.N,3.3V*%
X203190000Y-66250000D03*
%TO.P,U1,7,VREF*%
%TO.N,unconnected-(U1-VREF-Pad7)*%
X200650000Y-66250000D03*
%TO.P,U1,8,VIN*%
%TO.N,Vin*%
X215890000Y-78950000D03*
%TO.P,U1,9,GND*%
%TO.N,GND_2*%
X213350000Y-78950000D03*
%TO.P,U1,10,OUT1*%
%TO.N,M1+*%
X210810000Y-78950000D03*
%TO.P,U1,11,OUT2*%
%TO.N,M1-*%
X208270000Y-78950000D03*
%TO.P,U1,12,IMODE*%
%TO.N,unconnected-(U1-IMODE-Pad12)*%
X205730000Y-78950000D03*
%TO.P,U1,13,FAULT*%
%TO.N,unconnected-(U1-FAULT-Pad13)*%
X203190000Y-78950000D03*
%TO.P,U1,14,CS*%
%TO.N,unconnected-(U1-CS-Pad14)*%
X200650000Y-78950000D03*
%TD*%
D13*
%TO.P,C4,1*%
%TO.N,Vin*%
X192747300Y-119800000D03*
D14*
%TO.P,C4,2*%
%TO.N,GND_2*%
X196247300Y-119800000D03*
%TD*%
D10*
%TO.P,U2,1,VM*%
%TO.N,unconnected-(U2-VM-Pad1)*%
X215920000Y-83050000D03*
%TO.P,U2,2,GND*%
%TO.N,GND*%
X213380000Y-83050000D03*
%TO.P,U2,3,EN/IN1*%
%TO.N,PWM_M2*%
X210840000Y-83050000D03*
%TO.P,U2,4,PH/IN2*%
%TO.N,PWM_M2_2*%
X208300000Y-83050000D03*
%TO.P,U2,5,PMODE*%
%TO.N,GND*%
X205760000Y-83050000D03*
%TO.P,U2,6,SLEEP*%
%TO.N,3.3V*%
X203220000Y-83050000D03*
%TO.P,U2,7,VREF*%
%TO.N,unconnected-(U2-VREF-Pad7)*%
X200680000Y-83050000D03*
%TO.P,U2,8,VIN*%
%TO.N,Vin*%
X215920000Y-95750000D03*
%TO.P,U2,9,GND*%
%TO.N,GND_2*%
X213380000Y-95750000D03*
%TO.P,U2,10,OUT1*%
%TO.N,M2+*%
X210840000Y-95750000D03*
%TO.P,U2,11,OUT2*%
%TO.N,M2-*%
X208300000Y-95750000D03*
%TO.P,U2,12,IMODE*%
%TO.N,unconnected-(U2-IMODE-Pad12)*%
X205760000Y-95750000D03*
%TO.P,U2,13,FAULT*%
%TO.N,unconnected-(U2-FAULT-Pad13)*%
X203220000Y-95750000D03*
%TO.P,U2,14,CS*%
%TO.N,unconnected-(U2-CS-Pad14)*%
X200680000Y-95750000D03*
%TD*%
D11*
%TO.P,J6,1,Pin_1*%
%TO.N,M2+*%
X222150000Y-80700000D03*
D12*
%TO.P,J6,2,Pin_2*%
%TO.N,M2-*%
X222150000Y-78200000D03*
%TD*%
D16*
%TO.P,J9,1,Pin_1*%
%TO.N,GND_2*%
X193500000Y-91200000D03*
D17*
%TO.P,J9,2,Pin_2*%
%TO.N,Vin*%
X193500000Y-86200000D03*
%TD*%
D11*
%TO.P,J5,1,Pin_1*%
%TO.N,M1+*%
X221450000Y-71100000D03*
D12*
%TO.P,J5,2,Pin_2*%
%TO.N,M1-*%
X221450000Y-68600000D03*
%TD*%
D18*
%TO.N,*%
X205700000Y-90250000D03*
X201200000Y-89600000D03*
%TO.N,GND_2*%
X197650000Y-78350000D03*
%TO.N,Vin*%
X199100000Y-103100000D03*
%TO.N,M2-*%
X212150000Y-88900000D03*
%TO.N,PWM_M1_2*%
X220514300Y-66630600D03*
%TO.N,PWM_M2_2*%
X206248200Y-102187200D03*
%TO.N,PWM_M2*%
X206893700Y-97138400D03*
%TO.N,PWM_M4_2*%
X224013900Y-114977800D03*
X224016900Y-92826900D03*
%TO.N,PWM_M1*%
X223822500Y-69591300D03*
%TO.N,3.3V*%
X220706800Y-100670200D03*
%TO.N,GND*%
X213039100Y-100978400D03*
X227150000Y-92600000D03*
X202800000Y-89750000D03*
X202400000Y-124900000D03*
X198500000Y-66600000D03*
X201750000Y-84950000D03*
X210950000Y-62750000D03*
X207750000Y-84850000D03*
X205050000Y-84800000D03*
X203500000Y-76300000D03*
X221500000Y-118650000D03*
X198350000Y-105950000D03*
X220493800Y-98871000D03*
X207350000Y-117850000D03*
X203447000Y-94295900D03*
X209950000Y-86050000D03*
X202300000Y-105650000D03*
X225000000Y-110500000D03*
X203300000Y-68450000D03*
X222200000Y-104800000D03*
X218000000Y-91750000D03*
X188450000Y-107400000D03*
X220050000Y-96550000D03*
X198250000Y-96450000D03*
X228000000Y-109600000D03*
X215550000Y-61100000D03*
X209600000Y-68750000D03*
X202000000Y-100850000D03*
X196150000Y-124000000D03*
X225100000Y-105150000D03*
X229400000Y-98300000D03*
%TO.N,PWM_M4*%
X224594200Y-113726500D03*
%TD*%
D19*
%TO.N,GND_2*%
X199725000Y-92100000D02*
X193500000Y-91200000D01*
X208950000Y-93650000D02*
X199725000Y-92100000D01*
X213480000Y-128050000D02*
X211800000Y-123850000D01*
X196497300Y-72250000D02*
X197650000Y-78350000D01*
X211800000Y-93700000D02*
X208950000Y-93650000D01*
X196247300Y-119800100D02*
X196247000Y-119800000D01*
X212650000Y-94700000D02*
X211800000Y-93700000D01*
X211800000Y-123850000D02*
X196247300Y-119800100D01*
D20*
X196247300Y-119800000D02*
X196247300Y-119800100D01*
D19*
X213380000Y-95750000D02*
X212650000Y-94700000D01*
%TO.N,Vin*%
X197463006Y-84186994D02*
X196632516Y-83117484D01*
X194600000Y-80500000D02*
X192997000Y-72250100D01*
X210750000Y-91250000D02*
X213550000Y-91250000D01*
X213550000Y-91250000D02*
X215900000Y-93600000D01*
X196632516Y-83117484D02*
X193500000Y-86200000D01*
X216020000Y-128050000D02*
X213400000Y-121550000D01*
X192997000Y-72250100D02*
X192997000Y-72250000D01*
X196632516Y-83117484D02*
X194600000Y-80500000D01*
X199150000Y-117700000D02*
X193350000Y-116950000D01*
D20*
X192747300Y-119800000D02*
X192747100Y-119800000D01*
X192997300Y-72250000D02*
X192997100Y-72250000D01*
X192997100Y-72250000D02*
X192997000Y-72250100D01*
X192447300Y-100150000D02*
X192447200Y-100150100D01*
D19*
X192447200Y-100150100D02*
X195600000Y-102950000D01*
X199725000Y-87100000D02*
X206600000Y-87100000D01*
D20*
X192747100Y-119800000D02*
X192747000Y-119799900D01*
D19*
X193350000Y-116950000D02*
X192747000Y-119799900D01*
X206600000Y-87100000D02*
X210750000Y-91250000D01*
X192447000Y-100150000D02*
X192447200Y-100150100D01*
X195600000Y-102950000D02*
X199100000Y-103100000D01*
X213400000Y-121550000D02*
X199150000Y-117700000D01*
X199725000Y-87100000D02*
X197463006Y-84186994D01*
X215900000Y-93600000D02*
X215920000Y-95750000D01*
X192747000Y-119799900D02*
X192747000Y-119800000D01*
%TO.N,M1-*%
X208270000Y-78950000D02*
X210300000Y-71800000D01*
X210300000Y-71800000D02*
X221450000Y-68600000D01*
%TO.N,M1+*%
X212150000Y-74700000D02*
X221450000Y-71100000D01*
X210810000Y-78950000D02*
X212150000Y-74700000D01*
%TO.N,M2-*%
X218500000Y-84900000D02*
X219950000Y-80500000D01*
X219950000Y-80500000D02*
X219950000Y-79050000D01*
X219950000Y-79050000D02*
X222150000Y-78200000D01*
X212150000Y-88900000D02*
X218500000Y-84900000D01*
%TO.N,M3-*%
X209400000Y-105500000D02*
X216150000Y-104600000D01*
X208370000Y-111950000D02*
X209400000Y-105500000D01*
X216150000Y-104600000D02*
X219750000Y-106450000D01*
X219750000Y-106450000D02*
X221900000Y-112200000D01*
%TO.N,M3+*%
X210910000Y-111950000D02*
X212000000Y-108300000D01*
X212000000Y-108300000D02*
X217000000Y-108050000D01*
X220050000Y-114350000D02*
X221900000Y-114700000D01*
X217000000Y-108050000D02*
X220050000Y-114350000D01*
D20*
%TO.N,PWM_M1_2*%
X219831200Y-67313700D02*
X209333700Y-67313700D01*
X209333700Y-67313700D02*
X208270000Y-66250000D01*
X220514300Y-66630600D02*
X219831200Y-67313700D01*
%TO.N,PWM_M2_2*%
X206765300Y-102704300D02*
X206248200Y-102187200D01*
X225100000Y-101530000D02*
X223925700Y-102704300D01*
X223925700Y-102704300D02*
X206765300Y-102704300D01*
%TO.N,PWM_M2*%
X222560000Y-91370000D02*
X216791600Y-97138400D01*
X216791600Y-97138400D02*
X206893700Y-97138400D01*
%TO.N,PWM_M4_2*%
X217489000Y-116583200D02*
X217655300Y-116416900D01*
X209868600Y-116818600D02*
X217253600Y-116818600D01*
X217253600Y-116818600D02*
X217489000Y-116583200D01*
X217655300Y-116416900D02*
X222977500Y-116416900D01*
X224013900Y-114977800D02*
X223894300Y-114858200D01*
X217489000Y-116583200D02*
X217655300Y-116416900D01*
X224016900Y-92453100D02*
X224016900Y-92826900D01*
X208400000Y-115350000D02*
X209868600Y-116818600D01*
X223894300Y-114858200D02*
X224013900Y-114977800D01*
X224013900Y-115380500D02*
X224013900Y-114977800D01*
X223894300Y-92949500D02*
X224016900Y-92826900D01*
X225100000Y-91370000D02*
X224016900Y-92453100D01*
X224016900Y-92826900D02*
X223894300Y-92949500D01*
X222977500Y-116416900D02*
X224013900Y-115380500D01*
%TO.N,PWM_M3_2*%
X223828400Y-97721600D02*
X209898400Y-97721600D01*
X225100000Y-96450000D02*
X223828400Y-97721600D01*
X209898400Y-97721600D02*
X208370000Y-99250000D01*
%TO.N,PWM_M1*%
X219927900Y-65165600D02*
X223822500Y-69060200D01*
X211894400Y-65165600D02*
X219927900Y-65165600D01*
X210810000Y-66250000D02*
X211894400Y-65165600D01*
X223822500Y-69060200D02*
X223822500Y-69591300D01*
%TO.N,3.3V*%
X203190000Y-66250000D02*
X207217100Y-70277100D01*
X207217100Y-76159500D02*
X206610400Y-76766200D01*
X219796000Y-101581000D02*
X220706800Y-100670200D01*
X204297000Y-81973000D02*
X203220000Y-83050000D01*
X204353700Y-100313700D02*
X203290000Y-99250000D01*
X204353700Y-101581000D02*
X204353700Y-100313700D01*
X206328500Y-76766200D02*
X204297000Y-78797700D01*
X204353700Y-114316300D02*
X204353700Y-101581000D01*
X204297000Y-78797700D02*
X204297000Y-81973000D01*
X206610400Y-76766200D02*
X206328500Y-76766200D01*
X204353700Y-101581000D02*
X219796000Y-101581000D01*
X203320000Y-115350000D02*
X204353700Y-114316300D01*
X207217100Y-70277100D02*
X207217100Y-76159500D01*
%TO.N,PWM_M3*%
X221033200Y-100145500D02*
X220955900Y-100068200D01*
X218005000Y-100068200D02*
X217344000Y-100729200D01*
X217344000Y-100729200D02*
X213640800Y-100729200D01*
X223944500Y-100145500D02*
X221033200Y-100145500D01*
X212036700Y-100376700D02*
X210910000Y-99250000D01*
X213288300Y-100376700D02*
X212036700Y-100376700D01*
X225100000Y-98990000D02*
X223944500Y-100145500D01*
X220955900Y-100068200D02*
X218005000Y-100068200D01*
X213640800Y-100729200D02*
X213288300Y-100376700D01*
%TO.N,GND*%
X212395100Y-114265100D02*
X213480000Y-115350000D01*
X217170500Y-100325900D02*
X214525900Y-100325900D01*
X206858600Y-81951400D02*
X212281400Y-81951400D01*
X207558400Y-100978400D02*
X205830000Y-99250000D01*
X212281400Y-81951400D02*
X213380000Y-83050000D01*
X206944900Y-114265100D02*
X212395100Y-114265100D01*
X220493800Y-98871000D02*
X218625400Y-98871000D01*
X214525900Y-100325900D02*
X213450000Y-99250000D01*
X213039100Y-100978400D02*
X207558400Y-100978400D01*
X204331900Y-97751900D02*
X204331900Y-95180800D01*
X205760000Y-83050000D02*
X206858600Y-81951400D01*
X205830000Y-99250000D02*
X204331900Y-97751900D01*
X204331900Y-95180800D02*
X203447000Y-94295900D01*
X205860000Y-115350000D02*
X206944900Y-114265100D01*
X218625400Y-98871000D02*
X217170500Y-100325900D01*
%TO.N,PWM_M4*%
X217300200Y-116003800D02*
X222805800Y-116003800D01*
X223307400Y-115502200D02*
X223307400Y-114745200D01*
X212006900Y-116416900D02*
X216887100Y-116416900D01*
X223307400Y-114745200D02*
X224326100Y-113726500D01*
X222805800Y-116003800D02*
X223307400Y-115502200D01*
X210940000Y-115350000D02*
X212006900Y-116416900D01*
X224326100Y-113726500D02*
X224594200Y-113726500D01*
X216887100Y-116416900D02*
X217300200Y-116003800D01*
%TD*%
%TA.AperFunction,Conductor*%
%TO.N,GND*%
G36*
X217356128Y-112289400D02*
G01*
X217407605Y-112336644D01*
X217413027Y-112346645D01*
X218647033Y-114895576D01*
X218696338Y-114997418D01*
X218743721Y-115097716D01*
X218747765Y-115103647D01*
X218750903Y-115110128D01*
X218750905Y-115110130D01*
X218813997Y-115200798D01*
X218814665Y-115201767D01*
X218819899Y-115209443D01*
X218841403Y-115275921D01*
X218823552Y-115343472D01*
X218772015Y-115390649D01*
X218717449Y-115403300D01*
X217406500Y-115403300D01*
X217339461Y-115383615D01*
X217293706Y-115330811D01*
X217282500Y-115279300D01*
X217282500Y-115250639D01*
X217276269Y-115211297D01*
X217251413Y-115054364D01*
X217200918Y-114898955D01*
X217190006Y-114865370D01*
X217190005Y-114865367D01*
X217144035Y-114775149D01*
X217099787Y-114688306D01*
X216982981Y-114527536D01*
X216842464Y-114387019D01*
X216681694Y-114270213D01*
X216670986Y-114264757D01*
X216504632Y-114179994D01*
X216504629Y-114179993D01*
X216315637Y-114118587D01*
X216217498Y-114103043D01*
X216119361Y-114087500D01*
X215920639Y-114087500D01*
X215855214Y-114097862D01*
X215724362Y-114118587D01*
X215535370Y-114179993D01*
X215535367Y-114179994D01*
X215358305Y-114270213D01*
X215197533Y-114387021D01*
X215057021Y-114527533D01*
X214940213Y-114688305D01*
X214860204Y-114845331D01*
X214812229Y-114896127D01*
X214744408Y-114912922D01*
X214678273Y-114890384D01*
X214639234Y-114845331D01*
X214559358Y-114688567D01*
X214532268Y-114651283D01*
X213861000Y-115322551D01*
X213861000Y-115299840D01*
X213835036Y-115202939D01*
X213784876Y-115116060D01*
X213713940Y-115045124D01*
X213627061Y-114994964D01*
X213530160Y-114969000D01*
X213507447Y-114969000D01*
X214178716Y-114297731D01*
X214178715Y-114297730D01*
X214141432Y-114270641D01*
X213964437Y-114180457D01*
X213775522Y-114119075D01*
X213579321Y-114088000D01*
X213380679Y-114088000D01*
X213184479Y-114119075D01*
X213184476Y-114119075D01*
X212995562Y-114180457D01*
X212818564Y-114270643D01*
X212781283Y-114297729D01*
X212781282Y-114297730D01*
X213452554Y-114969000D01*
X213429840Y-114969000D01*
X213332939Y-114994964D01*
X213246060Y-115045124D01*
X213175124Y-115116060D01*
X213124964Y-115202939D01*
X213099000Y-115299840D01*
X213099000Y-115322552D01*
X212427730Y-114651282D01*
X212427729Y-114651283D01*
X212400641Y-114688566D01*
X212320764Y-114845332D01*
X212272790Y-114896127D01*
X212204969Y-114912922D01*
X212138834Y-114890384D01*
X212099796Y-114845332D01*
X212019787Y-114688306D01*
X211902981Y-114527536D01*
X211762464Y-114387019D01*
X211601694Y-114270213D01*
X211590986Y-114264757D01*
X211424632Y-114179994D01*
X211424629Y-114179993D01*
X211235637Y-114118587D01*
X211137498Y-114103043D01*
X211039361Y-114087500D01*
X210840639Y-114087500D01*
X210775214Y-114097862D01*
X210644362Y-114118587D01*
X210455370Y-114179993D01*
X210455367Y-114179994D01*
X210278305Y-114270213D01*
X210117533Y-114387021D01*
X209977021Y-114527533D01*
X209860213Y-114688305D01*
X209780485Y-114844780D01*
X209732510Y-114895576D01*
X209664689Y-114912371D01*
X209598554Y-114889833D01*
X209559515Y-114844780D01*
X209528240Y-114783400D01*
X209479787Y-114688306D01*
X209362981Y-114527536D01*
X209222464Y-114387019D01*
X209061694Y-114270213D01*
X209050986Y-114264757D01*
X208884632Y-114179994D01*
X208884629Y-114179993D01*
X208695637Y-114118587D01*
X208597498Y-114103043D01*
X208499361Y-114087500D01*
X208300639Y-114087500D01*
X208235214Y-114097862D01*
X208104362Y-114118587D01*
X207915370Y-114179993D01*
X207915367Y-114179994D01*
X207738305Y-114270213D01*
X207577533Y-114387021D01*
X207437021Y-114527533D01*
X207320213Y-114688305D01*
X207240204Y-114845331D01*
X207192229Y-114896127D01*
X207124408Y-114912922D01*
X207058273Y-114890384D01*
X207019234Y-114845331D01*
X206939358Y-114688567D01*
X206912268Y-114651283D01*
X206241000Y-115322551D01*
X206241000Y-115299840D01*
X206215036Y-115202939D01*
X206164876Y-115116060D01*
X206093940Y-115045124D01*
X206007061Y-114994964D01*
X205910160Y-114969000D01*
X205887446Y-114969000D01*
X206558715Y-114297730D01*
X206521432Y-114270641D01*
X206344437Y-114180457D01*
X206155522Y-114119075D01*
X205959321Y-114088000D01*
X205760679Y-114088000D01*
X205564479Y-114119075D01*
X205564476Y-114119075D01*
X205375562Y-114180457D01*
X205198567Y-114270641D01*
X205151086Y-114305139D01*
X205085279Y-114328619D01*
X205017225Y-114312794D01*
X204968531Y-114262688D01*
X204954200Y-114204821D01*
X204954200Y-113117593D01*
X204973885Y-113050554D01*
X205026689Y-113004799D01*
X205095847Y-112994855D01*
X205151086Y-113017276D01*
X205168306Y-113029787D01*
X205248739Y-113070770D01*
X205345367Y-113120005D01*
X205345370Y-113120006D01*
X205439866Y-113150709D01*
X205534364Y-113181413D01*
X205730639Y-113212500D01*
X205730640Y-113212500D01*
X205929360Y-113212500D01*
X205929361Y-113212500D01*
X206125636Y-113181413D01*
X206314632Y-113120005D01*
X206491694Y-113029787D01*
X206652464Y-112912981D01*
X206792981Y-112772464D01*
X206857386Y-112683818D01*
X206912716Y-112641152D01*
X206982329Y-112635173D01*
X207044124Y-112667779D01*
X207068260Y-112700548D01*
X207085657Y-112734799D01*
X207112949Y-112772464D01*
X207224235Y-112926047D01*
X207224239Y-112926052D01*
X207391033Y-113093271D01*
X207391038Y-113093276D01*
X207581935Y-113232342D01*
X207654182Y-113269269D01*
X207792238Y-113339834D01*
X207792245Y-113339836D01*
X207792249Y-113339838D01*
X208016761Y-113413102D01*
X208016764Y-113413102D01*
X208016769Y-113413104D01*
X208249998Y-113450348D01*
X208486181Y-113450649D01*
X208719504Y-113413999D01*
X208944221Y-113341300D01*
X209154799Y-113234343D01*
X209346052Y-113095761D01*
X209513272Y-112928966D01*
X209540535Y-112891540D01*
X209595918Y-112848946D01*
X209665539Y-112843054D01*
X209727293Y-112875737D01*
X209739304Y-112889285D01*
X209789230Y-112954650D01*
X209960190Y-113117608D01*
X210154538Y-113251815D01*
X210367488Y-113353968D01*
X210593793Y-113421550D01*
X210593796Y-113421551D01*
X210827890Y-113452899D01*
X210827894Y-113452898D01*
X210827895Y-113452899D01*
X210975462Y-113449362D01*
X211064006Y-113447240D01*
X211064007Y-113447240D01*
X211141447Y-113433065D01*
X211296330Y-113404715D01*
X211519141Y-113326369D01*
X211726953Y-113214133D01*
X211727399Y-113213793D01*
X211772022Y-113179709D01*
X211914650Y-113070770D01*
X212077608Y-112899810D01*
X212211815Y-112705462D01*
X212211977Y-112705123D01*
X212212072Y-112705017D01*
X212214261Y-112701247D01*
X212215052Y-112701706D01*
X212258717Y-112653190D01*
X212326115Y-112634771D01*
X212392773Y-112655714D01*
X212424099Y-112685862D01*
X212487019Y-112772464D01*
X212627536Y-112912981D01*
X212788306Y-113029787D01*
X212868739Y-113070770D01*
X212965367Y-113120005D01*
X212965370Y-113120006D01*
X213059866Y-113150709D01*
X213154364Y-113181413D01*
X213350639Y-113212500D01*
X213350640Y-113212500D01*
X213549360Y-113212500D01*
X213549361Y-113212500D01*
X213745636Y-113181413D01*
X213934632Y-113120005D01*
X214111694Y-113029787D01*
X214272464Y-112912981D01*
X214412981Y-112772464D01*
X214529787Y-112611694D01*
X214609515Y-112455218D01*
X214657490Y-112404423D01*
X214725311Y-112387628D01*
X214791446Y-112410165D01*
X214830484Y-112455218D01*
X214910213Y-112611694D01*
X215027019Y-112772464D01*
X215167536Y-112912981D01*
X215328306Y-113029787D01*
X215408739Y-113070770D01*
X215505367Y-113120005D01*
X215505370Y-113120006D01*
X215599866Y-113150709D01*
X215694364Y-113181413D01*
X215890639Y-113212500D01*
X215890640Y-113212500D01*
X216089360Y-113212500D01*
X216089361Y-113212500D01*
X216285636Y-113181413D01*
X216474632Y-113120005D01*
X216651694Y-113029787D01*
X216812464Y-112912981D01*
X216952981Y-112772464D01*
X217069787Y-112611694D01*
X217160005Y-112434632D01*
X217183487Y-112362360D01*
X217222923Y-112304685D01*
X217287282Y-112277486D01*
X217356128Y-112289400D01*
G37*
%TD.AperFunction*%
%TA.AperFunction,Conductor*%
G36*
X206882268Y-99948715D02*
G01*
X206909364Y-99911422D01*
X206989234Y-99754669D01*
X207037208Y-99703872D01*
X207105029Y-99687077D01*
X207171164Y-99709614D01*
X207210203Y-99754667D01*
X207290213Y-99911694D01*
X207407019Y-100072464D01*
X207547536Y-100212981D01*
X207708306Y-100329787D01*
X207788182Y-100370486D01*
X207885367Y-100420005D01*
X207885370Y-100420006D01*
X207979866Y-100450709D01*
X208074364Y-100481413D01*
X208270639Y-100512500D01*
X208270640Y-100512500D01*
X208469360Y-100512500D01*
X208469361Y-100512500D01*
X208665636Y-100481413D01*
X208854632Y-100420005D01*
X209031694Y-100329787D01*
X209192464Y-100212981D01*
X209332981Y-100072464D01*
X209449787Y-99911694D01*
X209529515Y-99755218D01*
X209577490Y-99704423D01*
X209645311Y-99687628D01*
X209711446Y-99710165D01*
X209750484Y-99755218D01*
X209830213Y-99911694D01*
X209947019Y-100072464D01*
X210087536Y-100212981D01*
X210248306Y-100329787D01*
X210328182Y-100370486D01*
X210425367Y-100420005D01*
X210425370Y-100420006D01*
X210519866Y-100450709D01*
X210614364Y-100481413D01*
X210810639Y-100512500D01*
X210810640Y-100512500D01*
X211009360Y-100512500D01*
X211009361Y-100512500D01*
X211205636Y-100481413D01*
X211205646Y-100481409D01*
X211207891Y-100480871D01*
X211208778Y-100480915D01*
X211210448Y-100480651D01*
X211210503Y-100481001D01*
X211277674Y-100484357D01*
X211324527Y-100513762D01*
X211556178Y-100745413D01*
X211556180Y-100745416D01*
X211559806Y-100749042D01*
X211579585Y-100768822D01*
X211591952Y-100791472D01*
X211613067Y-100830142D01*
X211613066Y-100830143D01*
X211613068Y-100830146D01*
X211611182Y-100856500D01*
X211608083Y-100899834D01*
X211608081Y-100899836D01*
X211608081Y-100899838D01*
X211601962Y-100908011D01*
X211566211Y-100955767D01*
X211566209Y-100955767D01*
X211566208Y-100955770D01*
X211529699Y-100969385D01*
X211500747Y-100980184D01*
X211491901Y-100980500D01*
X205078200Y-100980500D01*
X205011161Y-100960815D01*
X204965406Y-100908011D01*
X204954200Y-100856500D01*
X204954200Y-100416975D01*
X204973885Y-100349936D01*
X205026689Y-100304181D01*
X205095847Y-100294237D01*
X205151087Y-100316658D01*
X205168566Y-100329358D01*
X205345562Y-100419542D01*
X205534477Y-100480924D01*
X205730679Y-100512000D01*
X205929321Y-100512000D01*
X206125520Y-100480924D01*
X206125523Y-100480924D01*
X206314437Y-100419542D01*
X206491425Y-100329362D01*
X206528715Y-100302268D01*
X205857446Y-99631000D01*
X205880160Y-99631000D01*
X205977061Y-99605036D01*
X206063940Y-99554876D01*
X206134876Y-99483940D01*
X206185036Y-99397061D01*
X206211000Y-99300160D01*
X206211000Y-99277447D01*
X206882268Y-99948715D01*
G37*
%TD.AperFunction*%
%TA.AperFunction,Conductor*%
G36*
X221212387Y-98330025D02*
G01*
X221240107Y-98334823D01*
X221245461Y-98339737D01*
X221252435Y-98341785D01*
X221270856Y-98363044D01*
X221291583Y-98382067D01*
X221293430Y-98389096D01*
X221298190Y-98394589D01*
X221302193Y-98422435D01*
X221309345Y-98449641D01*
X221307575Y-98459864D01*
X221308134Y-98463747D01*
X221303327Y-98484418D01*
X221241876Y-98673544D01*
X221218289Y-98822467D01*
X221208600Y-98883642D01*
X221208600Y-99096358D01*
X221217197Y-99150639D01*
X221241876Y-99306455D01*
X221248423Y-99326605D01*
X221250418Y-99396447D01*
X221214337Y-99456279D01*
X221151636Y-99487107D01*
X221098399Y-99484698D01*
X221056947Y-99473591D01*
X221034957Y-99467699D01*
X220876843Y-99467699D01*
X220869247Y-99467699D01*
X220869231Y-99467700D01*
X218084057Y-99467700D01*
X217925943Y-99467700D01*
X217773215Y-99508623D01*
X217773214Y-99508623D01*
X217773212Y-99508624D01*
X217773209Y-99508625D01*
X217723096Y-99537559D01*
X217723095Y-99537560D01*
X217693103Y-99554876D01*
X217636285Y-99587679D01*
X217636282Y-99587681D01*
X217524480Y-99699483D01*
X217524480Y-99699484D01*
X217524478Y-99699486D01*
X217445552Y-99778412D01*
X217366716Y-99857248D01*
X217305393Y-99890732D01*
X217235701Y-99885748D01*
X217179768Y-99843876D01*
X217155351Y-99778412D01*
X217161103Y-99731250D01*
X217221413Y-99545636D01*
X217252500Y-99349361D01*
X217252500Y-99150639D01*
X217221413Y-98954364D01*
X217182446Y-98834434D01*
X217160006Y-98765370D01*
X217160005Y-98765367D01*
X217121172Y-98689155D01*
X217069787Y-98588306D01*
X217062445Y-98578201D01*
X217019423Y-98518985D01*
X216995943Y-98453179D01*
X217011768Y-98385125D01*
X217061874Y-98336430D01*
X217119741Y-98322100D01*
X221185396Y-98322100D01*
X221212387Y-98330025D01*
G37*
%TD.AperFunction*%
%TA.AperFunction,Conductor*%
G36*
X221114498Y-93752854D02*
G01*
X221127934Y-93753815D01*
X221145660Y-93767085D01*
X221165803Y-93776284D01*
X221173085Y-93787615D01*
X221183867Y-93795687D01*
X221191604Y-93816432D01*
X221203577Y-93835062D01*
X221206728Y-93856980D01*
X221208284Y-93861151D01*
X221208600Y-93869997D01*
X221208600Y-94016357D01*
X221241876Y-94226455D01*
X221307606Y-94428755D01*
X221307607Y-94428758D01*
X221391285Y-94592982D01*
X221404179Y-94618288D01*
X221529210Y-94790378D01*
X221679622Y-94940790D01*
X221808689Y-95034563D01*
X221851713Y-95065822D01*
X221858963Y-95069516D01*
X221909758Y-95117490D01*
X221926553Y-95185311D01*
X221904015Y-95251446D01*
X221858963Y-95290484D01*
X221851713Y-95294177D01*
X221742861Y-95373264D01*
X221679622Y-95419210D01*
X221679620Y-95419212D01*
X221679619Y-95419212D01*
X221529212Y-95569619D01*
X221529212Y-95569620D01*
X221529210Y-95569622D01*
X221475514Y-95643527D01*
X221404179Y-95741711D01*
X221307607Y-95931241D01*
X221307606Y-95931244D01*
X221241876Y-96133544D01*
X221208600Y-96343642D01*
X221208600Y-96556357D01*
X221241876Y-96766455D01*
X221304366Y-96958782D01*
X221306361Y-97028624D01*
X221270280Y-97088456D01*
X221207579Y-97119284D01*
X221186435Y-97121100D01*
X217957497Y-97121100D01*
X217890458Y-97101415D01*
X217844703Y-97048611D01*
X217834759Y-96979453D01*
X217863784Y-96915897D01*
X217869816Y-96909419D01*
X220996919Y-93782316D01*
X221016355Y-93771703D01*
X221033089Y-93757203D01*
X221046420Y-93755286D01*
X221058242Y-93748831D01*
X221080328Y-93750410D01*
X221102247Y-93747259D01*
X221114498Y-93752854D01*
G37*
%TD.AperFunction*%
%TA.AperFunction,Conductor*%
G36*
X196514105Y-85440863D02*
G01*
X196567778Y-85480640D01*
X198523959Y-87999820D01*
X198523988Y-87999859D01*
X198525197Y-88001416D01*
X198580483Y-88077510D01*
X198597503Y-88094530D01*
X198602264Y-88100661D01*
X198612280Y-88113559D01*
X198680949Y-88177976D01*
X198747490Y-88244517D01*
X198766967Y-88258668D01*
X198784535Y-88275148D01*
X198862429Y-88328025D01*
X198938567Y-88383343D01*
X198960020Y-88394273D01*
X198979947Y-88407801D01*
X198979952Y-88407803D01*
X198979953Y-88407804D01*
X199063339Y-88446989D01*
X199066896Y-88448730D01*
X199097370Y-88464257D01*
X199149008Y-88490568D01*
X199171912Y-88498010D01*
X199193705Y-88508251D01*
X199284094Y-88534460D01*
X199373632Y-88563553D01*
X199397421Y-88567320D01*
X199420546Y-88574026D01*
X199513930Y-88585773D01*
X199606908Y-88600500D01*
X199606909Y-88600500D01*
X199630988Y-88600500D01*
X199654883Y-88603506D01*
X199748970Y-88600500D01*
X200897810Y-88600500D01*
X200964849Y-88620185D01*
X201010604Y-88672989D01*
X201020548Y-88742147D01*
X200991523Y-88805703D01*
X200945262Y-88839061D01*
X200820827Y-88890602D01*
X200820814Y-88890609D01*
X200689711Y-88978210D01*
X200689707Y-88978213D01*
X200578213Y-89089707D01*
X200578210Y-89089711D01*
X200490609Y-89220814D01*
X200490602Y-89220827D01*
X200430264Y-89366498D01*
X200430261Y-89366510D01*
X200399500Y-89521153D01*
X200399500Y-89678846D01*
X200430261Y-89833489D01*
X200430264Y-89833501D01*
X200490602Y-89979172D01*
X200490609Y-89979185D01*
X200578210Y-90110288D01*
X200578213Y-90110292D01*
X200689707Y-90221786D01*
X200689711Y-90221789D01*
X200820814Y-90309390D01*
X200820827Y-90309397D01*
X200966498Y-90369735D01*
X200966503Y-90369737D01*
X201121153Y-90400499D01*
X201121156Y-90400500D01*
X201121158Y-90400500D01*
X201278844Y-90400500D01*
X201278845Y-90400499D01*
X201433497Y-90369737D01*
X201579179Y-90309394D01*
X201710289Y-90221789D01*
X201760925Y-90171153D01*
X204899500Y-90171153D01*
X204899500Y-90328846D01*
X204930261Y-90483489D01*
X204930264Y-90483501D01*
X204990602Y-90629172D01*
X204990609Y-90629185D01*
X205078210Y-90760288D01*
X205078213Y-90760292D01*
X205189707Y-90871786D01*
X205189711Y-90871789D01*
X205320814Y-90959390D01*
X205320827Y-90959397D01*
X205466498Y-91019735D01*
X205466503Y-91019737D01*
X205621153Y-91050499D01*
X205621156Y-91050500D01*
X205621158Y-91050500D01*
X205778844Y-91050500D01*
X205778845Y-91050499D01*
X205933497Y-91019737D01*
X206079179Y-90959394D01*
X206210289Y-90871789D01*
X206321789Y-90760289D01*
X206409394Y-90629179D01*
X206469737Y-90483497D01*
X206500500Y-90328842D01*
X206500500Y-90171158D01*
X206500500Y-90171155D01*
X206500499Y-90171153D01*
X206488392Y-90110288D01*
X206469737Y-90016503D01*
X206460938Y-89995260D01*
X206409397Y-89870827D01*
X206409390Y-89870814D01*
X206321789Y-89739711D01*
X206321786Y-89739707D01*
X206210292Y-89628213D01*
X206210288Y-89628210D01*
X206079185Y-89540609D01*
X206079172Y-89540602D01*
X205933501Y-89480264D01*
X205933489Y-89480261D01*
X205778845Y-89449500D01*
X205778842Y-89449500D01*
X205621158Y-89449500D01*
X205621155Y-89449500D01*
X205466510Y-89480261D01*
X205466498Y-89480264D01*
X205320827Y-89540602D01*
X205320814Y-89540609D01*
X205189711Y-89628210D01*
X205189707Y-89628213D01*
X205078213Y-89739707D01*
X205078210Y-89739711D01*
X204990609Y-89870814D01*
X204990602Y-89870827D01*
X204930264Y-90016498D01*
X204930261Y-90016510D01*
X204899500Y-90171153D01*
X201760925Y-90171153D01*
X201821789Y-90110289D01*
X201860820Y-90051876D01*
X201909390Y-89979185D01*
X201909390Y-89979184D01*
X201909394Y-89979179D01*
X201969737Y-89833497D01*
X202000500Y-89678842D01*
X202000500Y-89521158D01*
X202000500Y-89521155D01*
X202000499Y-89521153D01*
X201986246Y-89449500D01*
X201969737Y-89366503D01*
X201969735Y-89366498D01*
X201909397Y-89220827D01*
X201909390Y-89220814D01*
X201821789Y-89089711D01*
X201821786Y-89089707D01*
X201710292Y-88978213D01*
X201710288Y-88978210D01*
X201579185Y-88890609D01*
X201579172Y-88890602D01*
X201454738Y-88839061D01*
X201400334Y-88795221D01*
X201378269Y-88728926D01*
X201395548Y-88661227D01*
X201446685Y-88613616D01*
X201502190Y-88600500D01*
X205927111Y-88600500D01*
X205994150Y-88620185D01*
X206014792Y-88636819D01*
X209320502Y-91942529D01*
X209331618Y-91962886D01*
X209346502Y-91980685D01*
X209348049Y-91992979D01*
X209353987Y-92003852D01*
X209352332Y-92026991D01*
X209355230Y-92050007D01*
X209349886Y-92061183D01*
X209349003Y-92073544D01*
X209335099Y-92092116D01*
X209325095Y-92113044D01*
X209314555Y-92119558D01*
X209307131Y-92129477D01*
X209285398Y-92137582D01*
X209265664Y-92149782D01*
X209246081Y-92152247D01*
X209241667Y-92153894D01*
X209230646Y-92154191D01*
X209097487Y-92151855D01*
X209079115Y-92150160D01*
X200081284Y-90638330D01*
X200065111Y-90634482D01*
X200056588Y-90631839D01*
X199958101Y-90617600D01*
X199956697Y-90617397D01*
X199857172Y-90600675D01*
X199839914Y-90600512D01*
X199831670Y-90599320D01*
X199831669Y-90599319D01*
X196001439Y-90045552D01*
X195937906Y-90016477D01*
X195900178Y-89957670D01*
X195895565Y-89932564D01*
X195890013Y-89862017D01*
X195834574Y-89642000D01*
X195828310Y-89628210D01*
X195740741Y-89435420D01*
X195740736Y-89435410D01*
X195611526Y-89248909D01*
X195451090Y-89088473D01*
X195264589Y-88959263D01*
X195264579Y-88959258D01*
X195058002Y-88865426D01*
X194891968Y-88823590D01*
X194837983Y-88809987D01*
X194783551Y-88805703D01*
X194704739Y-88799500D01*
X194704736Y-88799500D01*
X193999123Y-88799500D01*
X193932084Y-88779815D01*
X193886329Y-88727011D01*
X193876385Y-88657853D01*
X193905410Y-88594297D01*
X193964188Y-88556523D01*
X193971521Y-88554611D01*
X194165591Y-88510316D01*
X194420079Y-88421267D01*
X194662997Y-88304284D01*
X194891289Y-88160838D01*
X195102085Y-87992734D01*
X195292734Y-87802085D01*
X195460838Y-87591289D01*
X195604284Y-87362997D01*
X195721267Y-87120079D01*
X195810316Y-86865591D01*
X195870312Y-86602732D01*
X195900500Y-86334809D01*
X195900500Y-86065191D01*
X195900499Y-86065186D01*
X195898629Y-86048591D01*
X195894858Y-86015124D01*
X195906911Y-85946304D01*
X195931101Y-85912860D01*
X196382866Y-85468307D01*
X196444456Y-85435318D01*
X196514105Y-85440863D01*
G37*
%TD.AperFunction*%
%TA.AperFunction,Conductor*%
G36*
X206782268Y-66948715D02*
G01*
X206809364Y-66911422D01*
X206889234Y-66754669D01*
X206937208Y-66703872D01*
X207005029Y-66687077D01*
X207071164Y-66709614D01*
X207110203Y-66754667D01*
X207190213Y-66911694D01*
X207307019Y-67072464D01*
X207447536Y-67212981D01*
X207608306Y-67329787D01*
X207695149Y-67374035D01*
X207785367Y-67420005D01*
X207785370Y-67420006D01*
X207839951Y-67437740D01*
X207974364Y-67481413D01*
X208170639Y-67512500D01*
X208170640Y-67512500D01*
X208369360Y-67512500D01*
X208369361Y-67512500D01*
X208565636Y-67481413D01*
X208565646Y-67481409D01*
X208567891Y-67480871D01*
X208568778Y-67480915D01*
X208570448Y-67480651D01*
X208570503Y-67481001D01*
X208578266Y-67481389D01*
X208588000Y-67477759D01*
X208612564Y-67483102D01*
X208637674Y-67484357D01*
X208647935Y-67490797D01*
X208656273Y-67492611D01*
X208684527Y-67513762D01*
X208848839Y-67678074D01*
X208848849Y-67678085D01*
X208853179Y-67682415D01*
X208853180Y-67682416D01*
X208964984Y-67794220D01*
X209051795Y-67844339D01*
X209051797Y-67844341D01*
X209089851Y-67866311D01*
X209101915Y-67873277D01*
X209254643Y-67914201D01*
X209254646Y-67914201D01*
X209420353Y-67914201D01*
X209420369Y-67914200D01*
X217518653Y-67914200D01*
X217585692Y-67933885D01*
X217631447Y-67986689D01*
X217641391Y-68055847D01*
X217612366Y-68119403D01*
X217553588Y-68157177D01*
X217552860Y-68157389D01*
X209952365Y-70338695D01*
X209952364Y-70338694D01*
X209947287Y-70340151D01*
X209893976Y-70350659D01*
X209834003Y-70372664D01*
X209829679Y-70373906D01*
X209772566Y-70390297D01*
X209772563Y-70390298D01*
X209728057Y-70411062D01*
X209728058Y-70411063D01*
X209723282Y-70413291D01*
X209672247Y-70432019D01*
X209616445Y-70463141D01*
X209575645Y-70482178D01*
X209558526Y-70490166D01*
X209517814Y-70517639D01*
X209513440Y-70520590D01*
X209465977Y-70547064D01*
X209415755Y-70586512D01*
X209412047Y-70589015D01*
X209412029Y-70589029D01*
X209362753Y-70622284D01*
X209326848Y-70655779D01*
X209326849Y-70655780D01*
X209322997Y-70659374D01*
X209280242Y-70692959D01*
X209236786Y-70739805D01*
X209233511Y-70742860D01*
X209233509Y-70742861D01*
X209190060Y-70783397D01*
X209159829Y-70822107D01*
X209159830Y-70822108D01*
X209156592Y-70826255D01*
X209119618Y-70866114D01*
X209084031Y-70919170D01*
X209081270Y-70922707D01*
X209044692Y-70969548D01*
X209020891Y-71012507D01*
X209018334Y-71017122D01*
X208988058Y-71062264D01*
X208961212Y-71120229D01*
X208959045Y-71124141D01*
X208959035Y-71124163D01*
X208930236Y-71176146D01*
X208913448Y-71222297D01*
X208913449Y-71222298D01*
X208911644Y-71227258D01*
X208888803Y-71276580D01*
X208871350Y-71338048D01*
X208869817Y-71342264D01*
X208869815Y-71342265D01*
X208849508Y-71398102D01*
X208849507Y-71398107D01*
X208840147Y-71446318D01*
X208837705Y-71456552D01*
X208060885Y-74192644D01*
X208023639Y-74251758D01*
X207960346Y-74281352D01*
X207891102Y-74272029D01*
X207837890Y-74226749D01*
X207817605Y-74159888D01*
X207817600Y-74158777D01*
X207817600Y-70198045D01*
X207817600Y-70198043D01*
X207776677Y-70045316D01*
X207733474Y-69970485D01*
X207697624Y-69908390D01*
X207697621Y-69908386D01*
X207697620Y-69908384D01*
X207585816Y-69796580D01*
X207585815Y-69796579D01*
X207581485Y-69792249D01*
X207581474Y-69792239D01*
X205509090Y-67719855D01*
X205475605Y-67658532D01*
X205480589Y-67588840D01*
X205522461Y-67532907D01*
X205587925Y-67508490D01*
X205616174Y-67509701D01*
X205630685Y-67512000D01*
X205829321Y-67512000D01*
X206025520Y-67480924D01*
X206025523Y-67480924D01*
X206214437Y-67419542D01*
X206391425Y-67329362D01*
X206428715Y-67302268D01*
X205757446Y-66631000D01*
X205780160Y-66631000D01*
X205877061Y-66605036D01*
X205963940Y-66554876D01*
X206034876Y-66483940D01*
X206085036Y-66397061D01*
X206111000Y-66300160D01*
X206111000Y-66277447D01*
X206782268Y-66948715D01*
G37*
%TD.AperFunction*%
%TA.AperFunction,Conductor*%
G36*
X220652778Y-53815996D02*
G01*
X220736016Y-53826630D01*
X220762990Y-53833210D01*
X220841779Y-53862100D01*
X220866613Y-53874517D01*
X220936993Y-53920210D01*
X220958444Y-53937843D01*
X221016892Y-53998052D01*
X221033880Y-54020015D01*
X221080675Y-54097001D01*
X221087719Y-54110360D01*
X221882880Y-55870619D01*
X221883844Y-55872810D01*
X222647287Y-57653710D01*
X222648209Y-57655919D01*
X223363156Y-59416801D01*
X223370137Y-59486321D01*
X223338425Y-59548580D01*
X223278087Y-59583809D01*
X223208281Y-59580826D01*
X223172779Y-59561825D01*
X223125177Y-59525299D01*
X223125175Y-59525297D01*
X223125169Y-59525293D01*
X223125164Y-59525290D01*
X223125161Y-59525288D01*
X222875365Y-59381067D01*
X222875349Y-59381059D01*
X222608873Y-59270682D01*
X222608861Y-59270678D01*
X222608858Y-59270677D01*
X222330230Y-59196019D01*
X222330224Y-59196018D01*
X222330219Y-59196017D01*
X222044251Y-59158369D01*
X222044246Y-59158368D01*
X222044241Y-59158368D01*
X221755785Y-59158368D01*
X221755779Y-59158368D01*
X221755774Y-59158369D01*
X221469806Y-59196017D01*
X221469799Y-59196018D01*
X221469796Y-59196019D01*
X221191168Y-59270677D01*
X221191152Y-59270682D01*
X220924676Y-59381059D01*
X220924660Y-59381067D01*
X220674864Y-59525288D01*
X220674848Y-59525299D01*
X220446010Y-59700892D01*
X220446003Y-59700898D01*
X220242043Y-59904858D01*
X220242037Y-59904865D01*
X220066444Y-60133703D01*
X220066433Y-60133719D01*
X219922212Y-60383515D01*
X219922204Y-60383531D01*
X219811827Y-60650007D01*
X219811822Y-60650023D01*
X219737165Y-60928648D01*
X219737162Y-60928661D01*
X219699514Y-61214629D01*
X219699513Y-61214646D01*
X219699513Y-61503089D01*
X219699514Y-61503106D01*
X219737162Y-61789074D01*
X219737163Y-61789079D01*
X219737164Y-61789085D01*
X219751587Y-61842911D01*
X219811822Y-62067712D01*
X219811827Y-62067728D01*
X219922204Y-62334204D01*
X219922212Y-62334220D01*
X220066433Y-62584016D01*
X220066444Y-62584032D01*
X220242037Y-62812870D01*
X220242043Y-62812877D01*
X220446003Y-63016837D01*
X220446009Y-63016842D01*
X220674857Y-63192443D01*
X220674864Y-63192447D01*
X220924660Y-63336668D01*
X220924676Y-63336676D01*
X221191152Y-63447053D01*
X221191158Y-63447054D01*
X221191168Y-63447059D01*
X221469796Y-63521717D01*
X221755785Y-63559368D01*
X221755792Y-63559368D01*
X222044234Y-63559368D01*
X222044241Y-63559368D01*
X222330230Y-63521717D01*
X222608858Y-63447059D01*
X222608870Y-63447053D01*
X222608873Y-63447053D01*
X222875349Y-63336676D01*
X222875352Y-63336674D01*
X222875358Y-63336672D01*
X223125169Y-63192443D01*
X223354017Y-63016842D01*
X223557987Y-62812872D01*
X223733588Y-62584024D01*
X223877817Y-62334213D01*
X223988204Y-62067713D01*
X224045738Y-61852992D01*
X224082101Y-61793335D01*
X224144948Y-61762806D01*
X224214323Y-61771101D01*
X224268201Y-61815586D01*
X224282117Y-61842911D01*
X224732086Y-63086896D01*
X224732879Y-63089155D01*
X225356689Y-64923710D01*
X225357437Y-64925983D01*
X225945694Y-66772159D01*
X225946399Y-66774447D01*
X226498927Y-68631699D01*
X226499587Y-68634000D01*
X227016146Y-70501511D01*
X227016762Y-70503824D01*
X227497184Y-72380994D01*
X227497755Y-72383318D01*
X227941852Y-74269413D01*
X227942378Y-74271749D01*
X228349982Y-76166053D01*
X228350463Y-76168397D01*
X228721423Y-78070205D01*
X228721859Y-78072559D01*
X229056045Y-79981213D01*
X229056435Y-79983575D01*
X229353714Y-81898317D01*
X229354058Y-81900686D01*
X229614314Y-83820751D01*
X229614613Y-83823126D01*
X229837762Y-85747904D01*
X229838015Y-85750284D01*
X230023972Y-87679061D01*
X230024178Y-87681446D01*
X230172861Y-89613341D01*
X230173022Y-89615729D01*
X230284388Y-91550186D01*
X230284503Y-91552577D01*
X230358509Y-93488873D01*
X230358577Y-93491266D01*
X230395191Y-95428575D01*
X230395213Y-95430968D01*
X230394424Y-97368622D01*
X230394400Y-97371016D01*
X230356208Y-99308295D01*
X230356138Y-99310688D01*
X230280555Y-101246921D01*
X230280438Y-101249312D01*
X230167500Y-103183627D01*
X230167338Y-103186015D01*
X230017074Y-105117896D01*
X230016865Y-105120280D01*
X229829342Y-107048843D01*
X229829087Y-107051224D01*
X229604375Y-108975779D01*
X229604075Y-108978153D01*
X229342243Y-110898102D01*
X229341896Y-110900471D01*
X229043063Y-112814928D01*
X229042671Y-112817289D01*
X228706940Y-114725612D01*
X228706503Y-114727966D01*
X228333984Y-116629531D01*
X228333501Y-116631875D01*
X227924356Y-118525835D01*
X227923828Y-118528170D01*
X227478195Y-120413902D01*
X227477622Y-120416226D01*
X226995672Y-122293003D01*
X226995054Y-122295316D01*
X226476971Y-124162419D01*
X226476309Y-124164719D01*
X225922282Y-126021474D01*
X225921576Y-126023761D01*
X225331790Y-127869536D01*
X225331039Y-127871809D01*
X224705761Y-129705779D01*
X224704967Y-129708037D01*
X224281968Y-130874491D01*
X224240608Y-130930804D01*
X224175369Y-130955816D01*
X224106963Y-130941587D01*
X224057110Y-130892634D01*
X224045622Y-130864315D01*
X223988204Y-130650025D01*
X223988199Y-130650015D01*
X223988198Y-130650009D01*
X223877821Y-130383533D01*
X223877813Y-130383517D01*
X223733592Y-130133721D01*
X223733588Y-130133714D01*
X223557987Y-129904866D01*
X223557982Y-129904860D01*
X223354022Y-129700900D01*
X223354015Y-129700894D01*
X223125177Y-129525301D01*
X223125175Y-129525299D01*
X223125169Y-129525295D01*
X223125164Y-129525292D01*
X223125161Y-129525290D01*
X222875365Y-129381069D01*
X222875349Y-129381061D01*
X222608873Y-129270684D01*
X222608861Y-129270680D01*
X222608858Y-129270679D01*
X222330230Y-129196021D01*
X222330224Y-129196020D01*
X222330219Y-129196019D01*
X222044251Y-129158371D01*
X222044246Y-129158370D01*
X222044241Y-129158370D01*
X221755785Y-129158370D01*
X221755779Y-129158370D01*
X221755774Y-129158371D01*
X221469806Y-129196019D01*
X221469799Y-129196020D01*
X221469796Y-129196021D01*
X221380283Y-129220006D01*
X221191168Y-129270679D01*
X221191152Y-129270684D01*
X220924676Y-129381061D01*
X220924660Y-129381069D01*
X220674864Y-129525290D01*
X220674848Y-129525301D01*
X220446010Y-129700894D01*
X220446003Y-129700900D01*
X220242043Y-129904860D01*
X220242037Y-129904867D01*
X220066444Y-130133705D01*
X220066433Y-130133721D01*
X219922212Y-130383517D01*
X219922204Y-130383533D01*
X219811827Y-130650009D01*
X219811822Y-130650025D01*
X219754405Y-130864311D01*
X219737165Y-130928650D01*
X219737162Y-130928663D01*
X219699514Y-131214631D01*
X219699513Y-131214648D01*
X219699513Y-131503091D01*
X219699514Y-131503108D01*
X219737162Y-131789076D01*
X219737163Y-131789081D01*
X219737164Y-131789087D01*
X219737165Y-131789089D01*
X219811822Y-132067714D01*
X219811827Y-132067730D01*
X219922204Y-132334206D01*
X219922212Y-132334222D01*
X220066433Y-132584018D01*
X220066444Y-132584034D01*
X220242037Y-132812872D01*
X220242043Y-132812879D01*
X220446003Y-133016839D01*
X220446009Y-133016844D01*
X220674857Y-133192445D01*
X220674864Y-133192449D01*
X220924660Y-133336670D01*
X220924676Y-133336678D01*
X221191152Y-133447055D01*
X221191158Y-133447056D01*
X221191168Y-133447061D01*
X221469796Y-133521719D01*
X221755785Y-133559370D01*
X221755792Y-133559370D01*
X222044234Y-133559370D01*
X222044241Y-133559370D01*
X222330230Y-133521719D01*
X222608858Y-133447061D01*
X222608870Y-133447055D01*
X222608873Y-133447055D01*
X222875349Y-133336678D01*
X222875352Y-133336676D01*
X222875358Y-133336674D01*
X223125169Y-133192445D01*
X223172678Y-133155989D01*
X223174004Y-133155477D01*
X223174869Y-133154346D01*
X223206475Y-133142923D01*
X223237844Y-133130796D01*
X223239239Y-133131082D01*
X223240580Y-133130598D01*
X223273365Y-133138081D01*
X223306289Y-133144834D01*
X223307307Y-133145828D01*
X223308697Y-133146146D01*
X223332221Y-133170155D01*
X223356280Y-133193647D01*
X223356599Y-133195035D01*
X223357596Y-133196053D01*
X223364401Y-133228949D01*
X223371944Y-133261738D01*
X223371555Y-133263532D01*
X223371750Y-133264474D01*
X223363896Y-133298883D01*
X223347933Y-133340383D01*
X223347053Y-133342607D01*
X222616676Y-135137298D01*
X222615753Y-135139507D01*
X221850815Y-136919889D01*
X221849848Y-136922079D01*
X221053345Y-138681488D01*
X221046331Y-138694775D01*
X220999628Y-138771577D01*
X220982731Y-138793438D01*
X220924633Y-138853397D01*
X220903316Y-138870974D01*
X220833376Y-138916585D01*
X220808693Y-138929006D01*
X220730395Y-138957994D01*
X220703578Y-138964641D01*
X220620800Y-138975573D01*
X220593175Y-138976116D01*
X220510030Y-138968446D01*
X220482971Y-138962858D01*
X220397323Y-138934924D01*
X220384430Y-138929908D01*
X220371835Y-138924179D01*
X220347748Y-138913222D01*
X220347747Y-138913221D01*
X220347746Y-138913221D01*
X220340556Y-138909950D01*
X220340549Y-138909946D01*
X191166482Y-125639125D01*
X191166480Y-125639124D01*
X191159477Y-125635938D01*
X191159473Y-125635935D01*
X191121248Y-125618548D01*
X191105619Y-125611438D01*
X191105618Y-125611437D01*
X191093707Y-125605220D01*
X191018110Y-125560382D01*
X190996641Y-125544270D01*
X190937411Y-125488844D01*
X190919914Y-125468492D01*
X190870189Y-125396072D01*
X190863198Y-125384605D01*
X190835162Y-125332449D01*
X190835160Y-125332447D01*
X185224357Y-114894657D01*
X185218995Y-114883345D01*
X185187610Y-114807413D01*
X185180427Y-114783400D01*
X185172934Y-114744310D01*
X185166152Y-114708933D01*
X185163947Y-114683970D01*
X185164944Y-114608160D01*
X185167806Y-114583257D01*
X185175512Y-114548084D01*
X185185358Y-114503142D01*
X185188662Y-114491036D01*
X185196379Y-114467511D01*
X185279333Y-114214647D01*
X185699509Y-114214647D01*
X185699509Y-114503090D01*
X185699510Y-114503107D01*
X185737158Y-114789075D01*
X185737159Y-114789080D01*
X185737160Y-114789086D01*
X185811818Y-115067713D01*
X185811823Y-115067729D01*
X185922200Y-115334205D01*
X185922208Y-115334221D01*
X186066429Y-115584017D01*
X186066440Y-115584033D01*
X186242033Y-115812871D01*
X186242039Y-115812878D01*
X186445999Y-116016838D01*
X186446006Y-116016844D01*
X186552593Y-116098631D01*
X186674853Y-116192444D01*
X186674860Y-116192448D01*
X186924656Y-116336669D01*
X186924672Y-116336677D01*
X187191148Y-116447054D01*
X187191154Y-116447055D01*
X187191164Y-116447060D01*
X187469792Y-116521718D01*
X187755781Y-116559369D01*
X187755788Y-116559369D01*
X188044230Y-116559369D01*
X188044237Y-116559369D01*
X188330226Y-116521718D01*
X188608854Y-116447060D01*
X188608866Y-116447054D01*
X188608869Y-116447054D01*
X188875345Y-116336677D01*
X188875348Y-116336675D01*
X188875354Y-116336673D01*
X189125165Y-116192444D01*
X189354013Y-116016843D01*
X189557983Y-115812873D01*
X189733584Y-115584025D01*
X189877813Y-115334214D01*
X189894944Y-115292857D01*
X189988194Y-115067729D01*
X189988194Y-115067726D01*
X189988200Y-115067714D01*
X190062858Y-114789086D01*
X190100509Y-114503097D01*
X190100509Y-114214641D01*
X190062858Y-113928652D01*
X189988200Y-113650024D01*
X189988195Y-113650014D01*
X189988194Y-113650008D01*
X189877817Y-113383532D01*
X189877809Y-113383516D01*
X189733588Y-113133720D01*
X189733584Y-113133713D01*
X189627035Y-112994855D01*
X189557984Y-112904866D01*
X189557978Y-112904859D01*
X189354018Y-112700899D01*
X189354011Y-112700893D01*
X189125173Y-112525300D01*
X189125171Y-112525298D01*
X189125165Y-112525294D01*
X189125160Y-112525291D01*
X189125157Y-112525289D01*
X188875361Y-112381068D01*
X188875345Y-112381060D01*
X188608869Y-112270683D01*
X188608857Y-112270679D01*
X188608854Y-112270678D01*
X188330226Y-112196020D01*
X188330220Y-112196019D01*
X188330215Y-112196018D01*
X188044247Y-112158370D01*
X188044242Y-112158369D01*
X188044237Y-112158369D01*
X187755781Y-112158369D01*
X187755775Y-112158369D01*
X187755770Y-112158370D01*
X187469802Y-112196018D01*
X187469795Y-112196019D01*
X187469792Y-112196020D01*
X187259039Y-112252491D01*
X187191164Y-112270678D01*
X187191148Y-112270683D01*
X186924672Y-112381060D01*
X186924656Y-112381068D01*
X186674860Y-112525289D01*
X186674844Y-112525300D01*
X186446006Y-112700893D01*
X186445999Y-112700899D01*
X186242039Y-112904859D01*
X186242033Y-112904866D01*
X186066440Y-113133704D01*
X186066429Y-113133720D01*
X185922208Y-113383516D01*
X185922200Y-113383532D01*
X185811823Y-113650008D01*
X185811818Y-113650024D01*
X185737161Y-113928649D01*
X185737158Y-113928662D01*
X185699510Y-114214630D01*
X185699509Y-114214647D01*
X185279333Y-114214647D01*
X185415818Y-113798607D01*
X185838585Y-112390876D01*
X186225662Y-110972917D01*
X186576801Y-109545633D01*
X186718451Y-108899983D01*
X191496800Y-108899983D01*
X191496800Y-110100001D01*
X191496801Y-110100018D01*
X191507300Y-110202796D01*
X191507301Y-110202799D01*
X191555156Y-110347213D01*
X191562486Y-110369334D01*
X191654588Y-110518656D01*
X191778644Y-110642712D01*
X191927966Y-110734814D01*
X192094503Y-110789999D01*
X192197291Y-110800500D01*
X193397308Y-110800499D01*
X193500097Y-110789999D01*
X193666634Y-110734814D01*
X193815956Y-110642712D01*
X193940012Y-110518656D01*
X194032114Y-110369334D01*
X194087299Y-110202797D01*
X194097800Y-110100009D01*
X194097799Y-109397648D01*
X194996800Y-109397648D01*
X194996800Y-109602352D01*
X195001178Y-109629995D01*
X195028822Y-109804534D01*
X195092081Y-109999223D01*
X195185015Y-110181613D01*
X195305328Y-110347213D01*
X195450086Y-110491971D01*
X195581576Y-110587502D01*
X195615690Y-110612287D01*
X195731907Y-110671503D01*
X195798076Y-110705218D01*
X195798078Y-110705218D01*
X195798081Y-110705220D01*
X195889156Y-110734812D01*
X195992765Y-110768477D01*
X196080709Y-110782406D01*
X196194948Y-110800500D01*
X196194949Y-110800500D01*
X196399651Y-110800500D01*
X196399652Y-110800500D01*
X196601834Y-110768477D01*
X196796519Y-110705220D01*
X196978910Y-110612287D01*
X197107782Y-110518657D01*
X197144513Y-110491971D01*
X197144515Y-110491968D01*
X197144519Y-110491966D01*
X197289266Y-110347219D01*
X197289268Y-110347215D01*
X197289271Y-110347213D01*
X197394192Y-110202799D01*
X197409587Y-110181610D01*
X197502520Y-109999219D01*
X197565777Y-109804534D01*
X197597800Y-109602352D01*
X197597800Y-109397648D01*
X197565777Y-109195466D01*
X197502520Y-109000781D01*
X197502518Y-109000778D01*
X197502518Y-109000776D01*
X197451165Y-108899991D01*
X197409587Y-108818390D01*
X197373437Y-108768633D01*
X197289271Y-108652786D01*
X197144513Y-108508028D01*
X196978913Y-108387715D01*
X196978912Y-108387714D01*
X196978910Y-108387713D01*
X196919198Y-108357288D01*
X196796523Y-108294781D01*
X196601834Y-108231522D01*
X196427295Y-108203878D01*
X196399652Y-108199500D01*
X196194948Y-108199500D01*
X196170629Y-108203351D01*
X195992765Y-108231522D01*
X195798076Y-108294781D01*
X195615686Y-108387715D01*
X195450086Y-108508028D01*
X195305328Y-108652786D01*
X195185015Y-108818386D01*
X195092081Y-109000776D01*
X195028822Y-109195465D01*
X194996800Y-109397648D01*
X194097799Y-109397648D01*
X194097799Y-108899992D01*
X194087299Y-108797203D01*
X194032114Y-108630666D01*
X193940012Y-108481344D01*
X193815956Y-108357288D01*
X193666634Y-108265186D01*
X193500097Y-108210001D01*
X193500095Y-108210000D01*
X193397310Y-108199500D01*
X192197298Y-108199500D01*
X192197281Y-108199501D01*
X192094503Y-108210000D01*
X192094500Y-108210001D01*
X191927968Y-108265185D01*
X191927963Y-108265187D01*
X191778642Y-108357289D01*
X191654589Y-108481342D01*
X191562487Y-108630663D01*
X191562486Y-108630666D01*
X191507301Y-108797203D01*
X191507301Y-108797204D01*
X191507300Y-108797204D01*
X191496800Y-108899983D01*
X186718451Y-108899983D01*
X186724972Y-108870261D01*
X186724972Y-108870260D01*
X186891775Y-108109959D01*
X186891775Y-108109957D01*
X186891780Y-108109936D01*
X187170397Y-106666741D01*
X187412474Y-105216970D01*
X187617856Y-103761546D01*
X187786414Y-102301400D01*
X187918038Y-100837463D01*
X187964249Y-100121015D01*
X190942342Y-100121015D01*
X190942568Y-100124832D01*
X190942568Y-100124836D01*
X190946620Y-100193185D01*
X190946833Y-100199580D01*
X190947439Y-100279477D01*
X190951598Y-100304505D01*
X190954118Y-100319669D01*
X190956319Y-100356785D01*
X190972594Y-100430856D01*
X190973120Y-100434017D01*
X190973119Y-100434019D01*
X190986155Y-100512460D01*
X190986157Y-100512470D01*
X190996910Y-100544729D01*
X190996911Y-100544729D01*
X190998981Y-100550940D01*
X191007007Y-100587466D01*
X191034834Y-100658500D01*
X191060845Y-100736531D01*
X191079421Y-100772315D01*
X191093157Y-100807377D01*
X191132016Y-100873630D01*
X191133482Y-100876453D01*
X191133490Y-100876468D01*
X191169664Y-100946153D01*
X191189560Y-100973104D01*
X191196745Y-100983993D01*
X191199368Y-100988463D01*
X191210127Y-101012217D01*
X191212482Y-101019327D01*
X191212485Y-101019331D01*
X191212486Y-101019334D01*
X191304588Y-101168656D01*
X191428644Y-101292712D01*
X191568312Y-101378860D01*
X191585544Y-101391674D01*
X194546349Y-104021069D01*
X194574381Y-104051612D01*
X194634507Y-104099360D01*
X194641822Y-104105856D01*
X194691931Y-104150357D01*
X194691936Y-104150361D01*
X194721532Y-104169295D01*
X194721533Y-104169295D01*
X194726868Y-104172708D01*
X194759338Y-104198493D01*
X194826203Y-104236252D01*
X194890893Y-104277635D01*
X194890896Y-104277636D01*
X194890899Y-104277638D01*
X194923086Y-104291705D01*
X194923087Y-104291705D01*
X194928890Y-104294241D01*
X194964995Y-104314630D01*
X195036944Y-104341465D01*
X195107311Y-104372218D01*
X195147435Y-104382675D01*
X195186288Y-104397166D01*
X195261546Y-104412414D01*
X195335857Y-104431781D01*
X195335859Y-104431781D01*
X195335861Y-104431782D01*
X195377134Y-104435834D01*
X195417768Y-104444067D01*
X195494477Y-104447354D01*
X195570915Y-104454859D01*
X195606007Y-104452777D01*
X195618638Y-104452675D01*
X197755438Y-104544252D01*
X199153729Y-104604180D01*
X199153731Y-104604180D01*
X199153732Y-104604179D01*
X199153736Y-104604180D01*
X199388380Y-104577256D01*
X199527056Y-104538676D01*
X199615914Y-104513958D01*
X199615917Y-104513956D01*
X199615923Y-104513955D01*
X199830762Y-104415839D01*
X200027608Y-104285322D01*
X200154026Y-104169295D01*
X200201607Y-104125625D01*
X200201608Y-104125623D01*
X200201613Y-104125619D01*
X200348493Y-103940662D01*
X200464630Y-103735005D01*
X200547166Y-103513712D01*
X200594068Y-103282232D01*
X200598192Y-103186015D01*
X200604181Y-103046269D01*
X200604181Y-103046268D01*
X200604181Y-103046264D01*
X200577256Y-102811620D01*
X200513956Y-102584077D01*
X200415840Y-102369238D01*
X200285322Y-102172392D01*
X200125619Y-101998388D01*
X199940662Y-101851507D01*
X199779320Y-101760395D01*
X199735006Y-101735370D01*
X199513717Y-101652835D01*
X199506703Y-101651414D01*
X199282232Y-101605933D01*
X199282229Y-101605932D01*
X199282225Y-101605932D01*
X196683976Y-101494578D01*
X196617840Y-101472041D01*
X196574388Y-101417327D01*
X196567415Y-101347806D01*
X196599135Y-101285551D01*
X196625429Y-101265928D01*
X196624758Y-101264832D01*
X196628910Y-101262287D01*
X196794513Y-101141971D01*
X196794515Y-101141968D01*
X196794519Y-101141966D01*
X196939266Y-100997219D01*
X196939268Y-100997215D01*
X196939271Y-100997213D01*
X197026996Y-100876468D01*
X197059587Y-100831610D01*
X197152520Y-100649219D01*
X197215777Y-100454534D01*
X197247800Y-100252352D01*
X197247800Y-100047648D01*
X197231539Y-99944984D01*
X197215777Y-99845465D01*
X197169770Y-99703872D01*
X197152520Y-99650781D01*
X197152518Y-99650778D01*
X197152518Y-99650776D01*
X197098946Y-99545636D01*
X197059587Y-99468390D01*
X197020488Y-99414574D01*
X196939271Y-99302786D01*
X196794513Y-99158028D01*
X196628913Y-99037715D01*
X196628912Y-99037714D01*
X196628910Y-99037713D01*
X196569198Y-99007288D01*
X196446523Y-98944781D01*
X196251834Y-98881522D01*
X196077295Y-98853878D01*
X196049652Y-98849500D01*
X195844948Y-98849500D01*
X195820629Y-98853351D01*
X195642765Y-98881522D01*
X195448076Y-98944781D01*
X195265686Y-99037715D01*
X195100086Y-99158028D01*
X194955328Y-99302786D01*
X194835015Y-99468386D01*
X194742081Y-99650776D01*
X194678823Y-99845464D01*
X194675424Y-99866925D01*
X194645494Y-99930059D01*
X194586182Y-99966990D01*
X194516320Y-99965992D01*
X194470612Y-99940243D01*
X193640284Y-99202856D01*
X193617084Y-99175235D01*
X193590013Y-99131345D01*
X193465957Y-99007289D01*
X193465956Y-99007288D01*
X193316634Y-98915186D01*
X193303273Y-98910758D01*
X193276420Y-98898117D01*
X193273217Y-98896109D01*
X193223869Y-98860825D01*
X193189590Y-98843685D01*
X193184527Y-98840511D01*
X193184414Y-98840383D01*
X193183571Y-98839905D01*
X193156310Y-98822467D01*
X193156300Y-98822461D01*
X193111471Y-98802869D01*
X193086502Y-98791957D01*
X193080722Y-98789251D01*
X193012419Y-98755099D01*
X192981472Y-98745303D01*
X192975232Y-98743327D01*
X192939889Y-98727882D01*
X192863774Y-98708044D01*
X192860717Y-98707077D01*
X192860705Y-98707074D01*
X192787252Y-98683823D01*
X192787250Y-98683822D01*
X192787248Y-98683822D01*
X192754815Y-98678937D01*
X192754815Y-98678936D01*
X192748339Y-98677960D01*
X192711339Y-98668318D01*
X192633705Y-98660695D01*
X192630519Y-98660216D01*
X192630518Y-98660215D01*
X192553710Y-98648648D01*
X192553691Y-98648646D01*
X192520584Y-98648897D01*
X192520585Y-98648898D01*
X192514031Y-98648947D01*
X192476285Y-98645242D01*
X192399068Y-98649819D01*
X192395827Y-98649844D01*
X192395827Y-98649845D01*
X192317525Y-98650439D01*
X192285367Y-98655782D01*
X192278099Y-98656990D01*
X192240515Y-98659219D01*
X192165501Y-98675701D01*
X192162337Y-98676226D01*
X192162335Y-98676226D01*
X192084539Y-98689155D01*
X192084533Y-98689156D01*
X192084532Y-98689157D01*
X192046359Y-98701881D01*
X192009834Y-98709907D01*
X191938799Y-98737734D01*
X191935760Y-98738747D01*
X191935758Y-98738747D01*
X191860478Y-98763841D01*
X191860473Y-98763843D01*
X191860469Y-98763844D01*
X191860469Y-98763845D01*
X191830346Y-98779482D01*
X191830345Y-98779481D01*
X191824533Y-98782497D01*
X191789923Y-98796057D01*
X191724506Y-98834424D01*
X191721660Y-98835902D01*
X191721657Y-98835902D01*
X191650856Y-98872659D01*
X191650842Y-98872668D01*
X191623390Y-98892933D01*
X191612474Y-98900134D01*
X191609587Y-98901827D01*
X191585870Y-98912566D01*
X191577969Y-98915184D01*
X191428642Y-99007289D01*
X191304589Y-99131342D01*
X191212486Y-99280665D01*
X191212485Y-99280666D01*
X191208464Y-99292800D01*
X191195894Y-99319537D01*
X191193852Y-99322800D01*
X191157724Y-99373331D01*
X191139669Y-99409438D01*
X191136535Y-99414451D01*
X191136395Y-99414574D01*
X191135859Y-99415520D01*
X191119566Y-99440990D01*
X191090806Y-99506797D01*
X191088093Y-99512592D01*
X191052101Y-99584577D01*
X191052100Y-99584581D01*
X191041692Y-99617454D01*
X191039716Y-99623693D01*
X191024982Y-99657411D01*
X191006054Y-99730031D01*
X191005083Y-99733101D01*
X191005083Y-99733103D01*
X190980824Y-99809744D01*
X190980821Y-99809757D01*
X190975691Y-99843801D01*
X190975692Y-99843802D01*
X190974716Y-99850280D01*
X190965418Y-99885961D01*
X190958069Y-99960812D01*
X190957588Y-99964007D01*
X190945648Y-100043288D01*
X190945646Y-100043307D01*
X190945907Y-100077640D01*
X190945451Y-100087724D01*
X190945506Y-100088596D01*
X190945419Y-100089666D01*
X190942342Y-100121015D01*
X187964249Y-100121015D01*
X187965817Y-100096710D01*
X187980415Y-99870378D01*
X188012646Y-99370668D01*
X188070177Y-97901951D01*
X188090594Y-96432250D01*
X188073884Y-94962502D01*
X188020057Y-93493645D01*
X187929149Y-92026616D01*
X187835907Y-90959397D01*
X187801217Y-90562348D01*
X187636346Y-89101810D01*
X187634670Y-89089711D01*
X187434631Y-87645849D01*
X187196212Y-86195471D01*
X187186563Y-86144802D01*
X187175157Y-86084909D01*
X187171401Y-86065186D01*
X191099500Y-86065186D01*
X191099500Y-86334813D01*
X191129686Y-86602719D01*
X191129688Y-86602731D01*
X191189684Y-86865594D01*
X191189687Y-86865602D01*
X191278734Y-87120082D01*
X191395714Y-87362994D01*
X191395716Y-87362997D01*
X191539162Y-87591289D01*
X191707266Y-87802085D01*
X191897915Y-87992734D01*
X192108711Y-88160838D01*
X192337003Y-88304284D01*
X192579921Y-88421267D01*
X192771049Y-88488145D01*
X192834397Y-88510312D01*
X192834405Y-88510315D01*
X192834408Y-88510315D01*
X192834409Y-88510316D01*
X193028470Y-88554609D01*
X193089448Y-88588718D01*
X193122306Y-88650379D01*
X193116611Y-88720016D01*
X193074171Y-88775520D01*
X193008461Y-88799268D01*
X193000877Y-88799500D01*
X192295260Y-88799500D01*
X192162017Y-88809987D01*
X191941997Y-88865426D01*
X191735420Y-88959258D01*
X191735410Y-88959263D01*
X191548909Y-89088473D01*
X191388473Y-89248909D01*
X191259263Y-89435410D01*
X191259258Y-89435420D01*
X191165426Y-89641997D01*
X191129029Y-89786447D01*
X191109987Y-89862017D01*
X191099500Y-89995264D01*
X191099500Y-92404736D01*
X191109320Y-92529514D01*
X191109987Y-92537982D01*
X191165426Y-92758002D01*
X191259258Y-92964579D01*
X191259263Y-92964589D01*
X191388473Y-93151090D01*
X191548909Y-93311526D01*
X191735410Y-93440736D01*
X191735420Y-93440741D01*
X191941997Y-93534573D01*
X191941998Y-93534573D01*
X191942000Y-93534574D01*
X192162017Y-93590013D01*
X192295264Y-93600500D01*
X192295270Y-93600500D01*
X194704730Y-93600500D01*
X194704736Y-93600500D01*
X194837983Y-93590013D01*
X195058000Y-93534574D01*
X195264582Y-93440740D01*
X195264584Y-93440738D01*
X195264589Y-93440736D01*
X195451086Y-93311529D01*
X195451085Y-93311529D01*
X195451089Y-93311527D01*
X195611527Y-93151089D01*
X195649497Y-93096281D01*
X195703855Y-93052385D01*
X195769167Y-93044173D01*
X199491922Y-93582402D01*
X199494631Y-93582825D01*
X204969996Y-94502805D01*
X205032846Y-94533326D01*
X205069219Y-94592982D01*
X205067565Y-94662832D01*
X205028410Y-94720699D01*
X205022334Y-94725408D01*
X204937542Y-94787014D01*
X204937533Y-94787021D01*
X204797021Y-94927533D01*
X204680213Y-95088305D01*
X204600485Y-95244780D01*
X204552510Y-95295576D01*
X204484689Y-95312371D01*
X204418554Y-95289833D01*
X204379515Y-95244780D01*
X204346508Y-95180000D01*
X204299787Y-95088306D01*
X204182981Y-94927536D01*
X204042464Y-94787019D01*
X203881694Y-94670213D01*
X203867208Y-94662832D01*
X203704632Y-94579994D01*
X203704629Y-94579993D01*
X203515637Y-94518587D01*
X203415993Y-94502805D01*
X203319361Y-94487500D01*
X203120639Y-94487500D01*
X203055214Y-94497862D01*
X202924362Y-94518587D01*
X202735370Y-94579993D01*
X202735367Y-94579994D01*
X202558305Y-94670213D01*
X202397533Y-94787021D01*
X202257021Y-94927533D01*
X202140213Y-95088305D01*
X202060485Y-95244780D01*
X202012510Y-95295576D01*
X201944689Y-95312371D01*
X201878554Y-95289833D01*
X201839515Y-95244780D01*
X201806508Y-95180000D01*
X201759787Y-95088306D01*
X201642981Y-94927536D01*
X201502464Y-94787019D01*
X201341694Y-94670213D01*
X201327208Y-94662832D01*
X201164632Y-94579994D01*
X201164629Y-94579993D01*
X200975637Y-94518587D01*
X200875993Y-94502805D01*
X200779361Y-94487500D01*
X200580639Y-94487500D01*
X200515214Y-94497862D01*
X200384362Y-94518587D01*
X200195370Y-94579993D01*
X200195367Y-94579994D01*
X200018305Y-94670213D01*
X199857533Y-94787021D01*
X199717021Y-94927533D01*
X199600213Y-95088305D01*
X199509994Y-95265367D01*
X199509993Y-95265370D01*
X199448587Y-95454362D01*
X199417500Y-95650639D01*
X199417500Y-95849360D01*
X199448587Y-96045637D01*
X199509993Y-96234629D01*
X199509994Y-96234632D01*
X199597305Y-96405986D01*
X199600213Y-96411694D01*
X199717019Y-96572464D01*
X199857536Y-96712981D01*
X200018306Y-96829787D01*
X200105149Y-96874035D01*
X200195367Y-96920005D01*
X200195370Y-96920006D01*
X200289866Y-96950709D01*
X200384364Y-96981413D01*
X200580639Y-97012500D01*
X200580640Y-97012500D01*
X200779360Y-97012500D01*
X200779361Y-97012500D01*
X200975636Y-96981413D01*
X201164632Y-96920005D01*
X201341694Y-96829787D01*
X201502464Y-96712981D01*
X201642981Y-96572464D01*
X201759787Y-96411694D01*
X201839515Y-96255218D01*
X201887490Y-96204423D01*
X201955311Y-96187628D01*
X202021446Y-96210165D01*
X202060484Y-96255218D01*
X202140213Y-96411694D01*
X202257019Y-96572464D01*
X202397536Y-96712981D01*
X202558306Y-96829787D01*
X202645149Y-96874035D01*
X202735367Y-96920005D01*
X202735370Y-96920006D01*
X202829866Y-96950709D01*
X202924364Y-96981413D01*
X203120639Y-97012500D01*
X203120640Y-97012500D01*
X203319360Y-97012500D01*
X203319361Y-97012500D01*
X203515636Y-96981413D01*
X203704632Y-96920005D01*
X203881694Y-96829787D01*
X204042464Y-96712981D01*
X204182981Y-96572464D01*
X204299787Y-96411694D01*
X204379515Y-96255218D01*
X204427490Y-96204423D01*
X204495311Y-96187628D01*
X204561446Y-96210165D01*
X204600484Y-96255218D01*
X204680213Y-96411694D01*
X204797019Y-96572464D01*
X204937536Y-96712981D01*
X205098306Y-96829787D01*
X205185149Y-96874035D01*
X205275367Y-96920005D01*
X205275370Y-96920006D01*
X205369866Y-96950709D01*
X205464364Y-96981413D01*
X205660639Y-97012500D01*
X205660640Y-97012500D01*
X205859360Y-97012500D01*
X205859361Y-97012500D01*
X205949803Y-96998175D01*
X206019095Y-97007129D01*
X206072547Y-97052125D01*
X206093187Y-97118877D01*
X206093200Y-97120648D01*
X206093200Y-97217246D01*
X206123961Y-97371889D01*
X206123964Y-97371901D01*
X206184302Y-97517572D01*
X206184309Y-97517585D01*
X206271910Y-97648688D01*
X206271913Y-97648692D01*
X206383407Y-97760186D01*
X206383411Y-97760189D01*
X206514514Y-97847790D01*
X206514527Y-97847797D01*
X206660198Y-97908135D01*
X206660203Y-97908137D01*
X206814853Y-97938899D01*
X206814856Y-97938900D01*
X206814858Y-97938900D01*
X206972544Y-97938900D01*
X206972545Y-97938899D01*
X207127197Y-97908137D01*
X207272879Y-97847794D01*
X207327363Y-97811389D01*
X207404575Y-97759798D01*
X207471253Y-97738920D01*
X207473466Y-97738900D01*
X208732502Y-97738900D01*
X208799541Y-97758585D01*
X208845296Y-97811389D01*
X208855240Y-97880547D01*
X208826215Y-97944103D01*
X208820183Y-97950581D01*
X208784527Y-97986237D01*
X208723204Y-98019722D01*
X208670478Y-98019159D01*
X208670448Y-98019349D01*
X208669162Y-98019145D01*
X208667908Y-98019132D01*
X208665637Y-98018587D01*
X208567498Y-98003043D01*
X208469361Y-97987500D01*
X208270639Y-97987500D01*
X208205214Y-97997862D01*
X208074362Y-98018587D01*
X207885370Y-98079993D01*
X207885367Y-98079994D01*
X207708305Y-98170213D01*
X207547533Y-98287021D01*
X207407021Y-98427533D01*
X207290213Y-98588305D01*
X207210204Y-98745331D01*
X207162229Y-98796127D01*
X207094408Y-98812922D01*
X207028273Y-98790384D01*
X206989234Y-98745331D01*
X206909358Y-98588567D01*
X206882268Y-98551283D01*
X206211000Y-99222551D01*
X206211000Y-99199840D01*
X206185036Y-99102939D01*
X206134876Y-99016060D01*
X206063940Y-98945124D01*
X205977061Y-98894964D01*
X205880160Y-98869000D01*
X205857447Y-98869000D01*
X206528716Y-98197731D01*
X206528715Y-98197730D01*
X206491432Y-98170641D01*
X206314437Y-98080457D01*
X206125522Y-98019075D01*
X205929321Y-97988000D01*
X205730679Y-97988000D01*
X205534479Y-98019075D01*
X205534476Y-98019075D01*
X205345562Y-98080457D01*
X205168564Y-98170643D01*
X205131283Y-98197729D01*
X205131282Y-98197730D01*
X205802554Y-98869000D01*
X205779840Y-98869000D01*
X205682939Y-98894964D01*
X205596060Y-98945124D01*
X205525124Y-99016060D01*
X205474964Y-99102939D01*
X205449000Y-99199840D01*
X205449000Y-99222553D01*
X204777730Y-98551282D01*
X204777729Y-98551283D01*
X204750641Y-98588566D01*
X204670764Y-98745332D01*
X204622790Y-98796127D01*
X204554969Y-98812922D01*
X204488834Y-98790384D01*
X204449796Y-98745332D01*
X204369787Y-98588306D01*
X204252981Y-98427536D01*
X204112464Y-98287019D01*
X203951694Y-98170213D01*
X203774632Y-98079994D01*
X203774629Y-98079993D01*
X203585637Y-98018587D01*
X203487498Y-98003043D01*
X203389361Y-97987500D01*
X203190639Y-97987500D01*
X203125214Y-97997862D01*
X202994362Y-98018587D01*
X202805370Y-98079993D01*
X202805367Y-98079994D01*
X202628305Y-98170213D01*
X202467533Y-98287021D01*
X202327021Y-98427533D01*
X202210213Y-98588305D01*
X202130485Y-98744780D01*
X202082510Y-98795576D01*
X202014689Y-98812371D01*
X201948554Y-98789833D01*
X201909515Y-98744780D01*
X201881172Y-98689155D01*
X201829787Y-98588306D01*
X201712981Y-98427536D01*
X201572464Y-98287019D01*
X201411694Y-98170213D01*
X201234632Y-98079994D01*
X201234629Y-98079993D01*
X201045637Y-98018587D01*
X200947498Y-98003043D01*
X200849361Y-97987500D01*
X200650639Y-97987500D01*
X200585214Y-97997862D01*
X200454362Y-98018587D01*
X200265370Y-98079993D01*
X200265367Y-98079994D01*
X200088305Y-98170213D01*
X199927533Y-98287021D01*
X199787021Y-98427533D01*
X199670213Y-98588305D01*
X199579994Y-98765367D01*
X199579993Y-98765370D01*
X199518587Y-98954362D01*
X199510204Y-99007289D01*
X199487500Y-99150639D01*
X199487500Y-99349361D01*
X199494958Y-99396447D01*
X199518587Y-99545637D01*
X199579993Y-99734629D01*
X199579994Y-99734632D01*
X199642471Y-99857248D01*
X199670213Y-99911694D01*
X199787019Y-100072464D01*
X199927536Y-100212981D01*
X200088306Y-100329787D01*
X200168182Y-100370486D01*
X200265367Y-100420005D01*
X200265370Y-100420006D01*
X200359866Y-100450709D01*
X200454364Y-100481413D01*
X200650639Y-100512500D01*
X200650640Y-100512500D01*
X200849360Y-100512500D01*
X200849361Y-100512500D01*
X201045636Y-100481413D01*
X201234632Y-100420005D01*
X201411694Y-100329787D01*
X201572464Y-100212981D01*
X201712981Y-100072464D01*
X201829787Y-99911694D01*
X201909515Y-99755218D01*
X201957490Y-99704423D01*
X202025311Y-99687628D01*
X202091446Y-99710165D01*
X202130484Y-99755218D01*
X202210213Y-99911694D01*
X202327019Y-100072464D01*
X202467536Y-100212981D01*
X202628306Y-100329787D01*
X202708182Y-100370486D01*
X202805367Y-100420005D01*
X202805370Y-100420006D01*
X202899866Y-100450709D01*
X202994364Y-100481413D01*
X203190639Y-100512500D01*
X203190640Y-100512500D01*
X203389360Y-100512500D01*
X203389361Y-100512500D01*
X203585636Y-100481413D01*
X203585646Y-100481409D01*
X203587891Y-100480871D01*
X203588778Y-100480915D01*
X203590448Y-100480651D01*
X203590503Y-100481001D01*
X203598266Y-100481389D01*
X203608000Y-100477759D01*
X203632564Y-100483102D01*
X203657674Y-100484357D01*
X203667935Y-100490797D01*
X203676273Y-100492611D01*
X203704527Y-100513762D01*
X203716881Y-100526116D01*
X203750366Y-100587439D01*
X203753200Y-100613797D01*
X203753200Y-110602360D01*
X203733515Y-110669399D01*
X203680711Y-110715154D01*
X203611553Y-110725098D01*
X203590884Y-110720292D01*
X203585635Y-110718586D01*
X203420447Y-110692423D01*
X203389361Y-110687500D01*
X203190639Y-110687500D01*
X203125214Y-110697862D01*
X202994362Y-110718587D01*
X202805370Y-110779993D01*
X202805367Y-110779994D01*
X202628305Y-110870213D01*
X202467533Y-110987021D01*
X202327021Y-111127533D01*
X202210213Y-111288305D01*
X202130485Y-111444780D01*
X202082510Y-111495576D01*
X202014689Y-111512371D01*
X201948554Y-111489833D01*
X201909515Y-111444780D01*
X201829786Y-111288305D01*
X201712981Y-111127536D01*
X201572464Y-110987019D01*
X201411694Y-110870213D01*
X201352932Y-110840272D01*
X201234632Y-110779994D01*
X201234629Y-110779993D01*
X201045637Y-110718587D01*
X200947498Y-110703043D01*
X200849361Y-110687500D01*
X200650639Y-110687500D01*
X200585214Y-110697862D01*
X200454362Y-110718587D01*
X200265370Y-110779993D01*
X200265367Y-110779994D01*
X200088305Y-110870213D01*
X199927533Y-110987021D01*
X199787021Y-111127533D01*
X199670213Y-111288305D01*
X199579994Y-111465367D01*
X199579993Y-111465370D01*
X199518587Y-111654362D01*
X199518587Y-111654364D01*
X199487500Y-111850639D01*
X199487500Y-112049361D01*
X199490090Y-112065713D01*
X199518587Y-112245637D01*
X199579993Y-112434629D01*
X199579994Y-112434632D01*
X199670213Y-112611694D01*
X199787019Y-112772464D01*
X199927536Y-112912981D01*
X200088306Y-113029787D01*
X200168739Y-113070770D01*
X200265367Y-113120005D01*
X200265370Y-113120006D01*
X200359866Y-113150709D01*
X200454364Y-113181413D01*
X200650639Y-113212500D01*
X200650640Y-113212500D01*
X200849360Y-113212500D01*
X200849361Y-113212500D01*
X201045636Y-113181413D01*
X201234632Y-113120005D01*
X201411694Y-113029787D01*
X201572464Y-112912981D01*
X201712981Y-112772464D01*
X201829787Y-112611694D01*
X201909515Y-112455218D01*
X201957490Y-112404423D01*
X202025311Y-112387628D01*
X202091446Y-112410165D01*
X202130484Y-112455218D01*
X202210213Y-112611694D01*
X202327019Y-112772464D01*
X202467536Y-112912981D01*
X202628306Y-113029787D01*
X202708739Y-113070770D01*
X202805367Y-113120005D01*
X202805370Y-113120006D01*
X202899866Y-113150709D01*
X202994364Y-113181413D01*
X203190639Y-113212500D01*
X203190640Y-113212500D01*
X203389360Y-113212500D01*
X203389361Y-113212500D01*
X203585636Y-113181413D01*
X203585639Y-113181412D01*
X203590881Y-113179709D01*
X203660722Y-113177713D01*
X203720555Y-113213793D01*
X203751384Y-113276494D01*
X203753200Y-113297640D01*
X203753200Y-113995189D01*
X203733515Y-114062228D01*
X203680711Y-114107983D01*
X203611553Y-114117927D01*
X203609803Y-114117662D01*
X203419361Y-114087500D01*
X203220639Y-114087500D01*
X203155214Y-114097862D01*
X203024362Y-114118587D01*
X202835370Y-114179993D01*
X202835367Y-114179994D01*
X202658305Y-114270213D01*
X202497533Y-114387021D01*
X202357021Y-114527533D01*
X202240213Y-114688305D01*
X202160485Y-114844780D01*
X202112510Y-114895576D01*
X202044689Y-114912371D01*
X201978554Y-114889833D01*
X201939515Y-114844780D01*
X201908240Y-114783400D01*
X201859787Y-114688306D01*
X201742981Y-114527536D01*
X201602464Y-114387019D01*
X201441694Y-114270213D01*
X201430986Y-114264757D01*
X201264632Y-114179994D01*
X201264629Y-114179993D01*
X201075637Y-114118587D01*
X200977498Y-114103043D01*
X200879361Y-114087500D01*
X200680639Y-114087500D01*
X200615214Y-114097862D01*
X200484362Y-114118587D01*
X200295370Y-114179993D01*
X200295367Y-114179994D01*
X200118305Y-114270213D01*
X199957533Y-114387021D01*
X199817021Y-114527533D01*
X199700213Y-114688305D01*
X199609994Y-114865367D01*
X199609993Y-114865370D01*
X199548587Y-115054362D01*
X199517500Y-115250639D01*
X199517500Y-115449361D01*
X199523634Y-115488089D01*
X199548587Y-115645637D01*
X199609993Y-115834629D01*
X199609994Y-115834632D01*
X199650916Y-115914944D01*
X199700074Y-116011422D01*
X199700215Y-116011697D01*
X199749230Y-116079161D01*
X199758819Y-116106038D01*
X199771238Y-116131737D01*
X199770411Y-116138526D01*
X199772710Y-116144967D01*
X199766246Y-116172764D01*
X199762799Y-116201095D01*
X199758434Y-116206359D01*
X199756885Y-116213021D01*
X199736415Y-116232914D01*
X199718201Y-116254881D01*
X199711683Y-116256949D01*
X199706779Y-116261716D01*
X199678807Y-116267383D01*
X199651605Y-116276017D01*
X199641979Y-116274845D01*
X199638301Y-116275591D01*
X199616570Y-116271754D01*
X199558460Y-116256054D01*
X199555860Y-116255321D01*
X199459542Y-116227033D01*
X199451554Y-116226000D01*
X199435130Y-116222734D01*
X199427365Y-116220636D01*
X199427359Y-116220635D01*
X199327524Y-116209932D01*
X199324840Y-116209615D01*
X199253840Y-116200434D01*
X198775086Y-116138526D01*
X193606839Y-115470217D01*
X193601908Y-115469579D01*
X193545075Y-115457555D01*
X193484994Y-115454461D01*
X193480236Y-115453846D01*
X193480235Y-115453845D01*
X193425317Y-115446745D01*
X193425312Y-115446745D01*
X193425311Y-115446745D01*
X193418041Y-115446951D01*
X193372174Y-115448257D01*
X193372175Y-115448258D01*
X193367225Y-115448399D01*
X193309203Y-115445413D01*
X193249390Y-115451755D01*
X193244594Y-115451892D01*
X193244593Y-115451893D01*
X193194681Y-115453315D01*
X193189223Y-115453471D01*
X193136978Y-115463278D01*
X193136977Y-115463277D01*
X193132095Y-115464193D01*
X193074336Y-115470319D01*
X193016237Y-115485944D01*
X193011529Y-115486828D01*
X192975788Y-115493537D01*
X192957094Y-115497047D01*
X192957092Y-115497047D01*
X192957090Y-115497048D01*
X192923624Y-115508985D01*
X192907039Y-115514901D01*
X192897594Y-115517851D01*
X192846255Y-115531659D01*
X192795671Y-115554237D01*
X192791302Y-115556187D01*
X192734640Y-115576400D01*
X192683646Y-115604238D01*
X192679113Y-115606262D01*
X192630581Y-115627925D01*
X192584155Y-115658134D01*
X192575951Y-115663032D01*
X192527340Y-115689573D01*
X192527338Y-115689574D01*
X192527337Y-115689575D01*
X192485243Y-115722029D01*
X192485242Y-115722028D01*
X192481304Y-115725064D01*
X192432621Y-115756744D01*
X192387962Y-115797028D01*
X192384159Y-115799961D01*
X192384158Y-115799963D01*
X192340296Y-115833782D01*
X192340289Y-115833788D01*
X192303797Y-115872418D01*
X192296718Y-115879337D01*
X192257250Y-115914941D01*
X192222430Y-115958020D01*
X192219415Y-115961750D01*
X192178108Y-116005481D01*
X192145308Y-116053441D01*
X192108784Y-116098631D01*
X192108777Y-116098640D01*
X192081133Y-116146625D01*
X192078741Y-116150776D01*
X192044781Y-116200434D01*
X192019894Y-116252917D01*
X192017420Y-116257213D01*
X192017418Y-116257219D01*
X191990883Y-116303280D01*
X191990880Y-116303285D01*
X191971084Y-116354997D01*
X191967324Y-116363787D01*
X191943597Y-116413830D01*
X191943592Y-116413841D01*
X191928613Y-116464841D01*
X191927216Y-116469598D01*
X191906446Y-116523857D01*
X191893994Y-116582701D01*
X191892642Y-116587306D01*
X191892642Y-116587309D01*
X191877035Y-116640447D01*
X191877034Y-116640451D01*
X191870216Y-116693173D01*
X191868554Y-116702936D01*
X191296781Y-119405250D01*
X191296781Y-119405251D01*
X191295421Y-119411677D01*
X191283447Y-119448532D01*
X191271013Y-119527029D01*
X191270351Y-119530160D01*
X191270349Y-119530174D01*
X191254555Y-119604822D01*
X191252899Y-119636983D01*
X191251537Y-119649998D01*
X191246500Y-119681806D01*
X191246500Y-119758112D01*
X191246336Y-119764487D01*
X191242412Y-119840690D01*
X191245809Y-119872721D01*
X191246500Y-119885795D01*
X191246500Y-119918092D01*
X191258471Y-119993681D01*
X191258470Y-119993681D01*
X191258969Y-119996835D01*
X191267319Y-120075564D01*
X191277341Y-120112832D01*
X191278366Y-120119300D01*
X191278369Y-120119312D01*
X191283447Y-120151372D01*
X191304282Y-120215493D01*
X191308170Y-120227459D01*
X191328660Y-120303643D01*
X191344335Y-120338762D01*
X191346360Y-120344994D01*
X191346360Y-120344996D01*
X191356432Y-120375994D01*
X191356433Y-120375995D01*
X191391439Y-120444700D01*
X191391440Y-120444700D01*
X191392886Y-120447538D01*
X191424925Y-120519318D01*
X191445819Y-120551428D01*
X191448800Y-120557277D01*
X191448801Y-120557278D01*
X191463658Y-120586436D01*
X191491597Y-120624890D01*
X191508984Y-120658768D01*
X191509841Y-120661354D01*
X191512486Y-120669334D01*
X191604588Y-120818656D01*
X191728644Y-120942712D01*
X191877966Y-121034814D01*
X191881830Y-121036094D01*
X191904725Y-121046355D01*
X191921706Y-121056138D01*
X191922872Y-121056810D01*
X191933850Y-121063932D01*
X191960567Y-121083343D01*
X192032901Y-121120199D01*
X192100282Y-121159018D01*
X192135686Y-121172570D01*
X192171008Y-121190568D01*
X192248344Y-121215696D01*
X192320857Y-121243454D01*
X192357888Y-121251289D01*
X192373718Y-121256432D01*
X192395624Y-121263551D01*
X192395628Y-121263551D01*
X192395632Y-121263553D01*
X192423637Y-121267988D01*
X192472883Y-121275788D01*
X192472884Y-121275788D01*
X192476039Y-121276287D01*
X192551925Y-121292345D01*
X192589694Y-121294289D01*
X192628908Y-121300500D01*
X192710345Y-121300500D01*
X192787797Y-121304487D01*
X192825395Y-121300500D01*
X192865092Y-121300500D01*
X192945519Y-121287761D01*
X193022664Y-121279581D01*
X193059183Y-121269759D01*
X193098368Y-121263553D01*
X193175765Y-121238404D01*
X193250743Y-121218240D01*
X193285306Y-121202812D01*
X193322992Y-121190568D01*
X193395414Y-121153666D01*
X193466418Y-121121975D01*
X193498188Y-121101300D01*
X193533433Y-121083343D01*
X193570879Y-121056135D01*
X193604761Y-121038747D01*
X193616634Y-121034814D01*
X193765956Y-120942712D01*
X193890012Y-120818656D01*
X193982114Y-120669334D01*
X193983974Y-120663719D01*
X193994235Y-120640819D01*
X194004015Y-120623843D01*
X194011130Y-120612876D01*
X194030343Y-120586433D01*
X194066874Y-120514735D01*
X194106118Y-120446618D01*
X194119819Y-120410826D01*
X194137568Y-120375992D01*
X194162349Y-120299722D01*
X194190554Y-120226043D01*
X194198515Y-120188415D01*
X194210553Y-120151368D01*
X194216654Y-120112845D01*
X194222556Y-120075584D01*
X194223715Y-120069313D01*
X194507576Y-118727726D01*
X194540710Y-118666217D01*
X194601842Y-118632384D01*
X194644789Y-118630422D01*
X194981484Y-118673960D01*
X194984786Y-118675411D01*
X194988375Y-118675049D01*
X195016525Y-118689365D01*
X195045446Y-118702079D01*
X195047439Y-118705086D01*
X195050654Y-118706721D01*
X195066595Y-118733983D01*
X195084051Y-118760315D01*
X195084102Y-118763922D01*
X195085923Y-118767036D01*
X195084594Y-118798598D01*
X195085043Y-118830178D01*
X195083092Y-118834296D01*
X195082985Y-118836843D01*
X195077068Y-118847014D01*
X195066986Y-118868303D01*
X195062957Y-118874027D01*
X195046755Y-118892280D01*
X195013407Y-118944431D01*
X195011825Y-118946680D01*
X195011658Y-118946812D01*
X195010183Y-118948958D01*
X194969665Y-119003844D01*
X194969662Y-119003849D01*
X194947412Y-119046709D01*
X194944839Y-119051666D01*
X194919521Y-119091263D01*
X194894254Y-119149105D01*
X194892331Y-119152811D01*
X194892332Y-119152811D01*
X194860847Y-119213463D01*
X194860841Y-119213477D01*
X194845543Y-119259367D01*
X194845544Y-119259368D01*
X194843778Y-119264667D01*
X194824982Y-119307700D01*
X194809087Y-119368739D01*
X194807773Y-119372682D01*
X194807771Y-119372683D01*
X194786157Y-119437529D01*
X194786155Y-119437538D01*
X194778223Y-119485270D01*
X194777305Y-119490790D01*
X194765465Y-119536262D01*
X194759312Y-119599058D01*
X194758628Y-119603174D01*
X194758628Y-119603179D01*
X194747440Y-119670512D01*
X194747438Y-119670530D01*
X194747353Y-119681806D01*
X194747030Y-119724421D01*
X194742435Y-119771321D01*
X194746193Y-119834511D01*
X194746162Y-119838675D01*
X194745646Y-119906690D01*
X194745648Y-119906710D01*
X194752816Y-119954305D01*
X194753649Y-119959833D01*
X194756461Y-120007088D01*
X194770116Y-120069175D01*
X194770736Y-120073291D01*
X194770739Y-120073305D01*
X194774603Y-120098958D01*
X194780822Y-120140247D01*
X194780823Y-120140250D01*
X194795277Y-120185915D01*
X194796964Y-120191245D01*
X194807195Y-120237758D01*
X194830543Y-120297322D01*
X194831800Y-120301292D01*
X194852098Y-120365417D01*
X194852101Y-120365422D01*
X194871884Y-120404987D01*
X194875878Y-120412975D01*
X194893391Y-120457652D01*
X194926015Y-120513249D01*
X194927878Y-120516974D01*
X194957727Y-120576672D01*
X194983602Y-120612860D01*
X194988423Y-120619603D01*
X195012923Y-120661354D01*
X195054193Y-120711590D01*
X195056614Y-120714975D01*
X195095093Y-120768791D01*
X195095099Y-120768799D01*
X195117220Y-120791258D01*
X195131827Y-120806088D01*
X195162850Y-120843850D01*
X195211935Y-120887423D01*
X195214843Y-120890376D01*
X195214858Y-120890390D01*
X195260830Y-120937064D01*
X195298055Y-120964544D01*
X195302552Y-120967863D01*
X195339480Y-121000645D01*
X195395368Y-121036381D01*
X195398710Y-121038848D01*
X195398711Y-121038849D01*
X195401782Y-121041116D01*
X195450847Y-121077336D01*
X195496404Y-121100986D01*
X195538463Y-121127879D01*
X195599920Y-121154723D01*
X195660468Y-121186155D01*
X195708645Y-121202214D01*
X195754900Y-121222418D01*
X195820515Y-121239504D01*
X195884832Y-121260943D01*
X195929113Y-121268301D01*
X195940033Y-121270626D01*
X199379427Y-122166239D01*
X210627717Y-125095277D01*
X210687632Y-125131219D01*
X210711600Y-125169222D01*
X211299456Y-126638862D01*
X211306077Y-126708417D01*
X211274043Y-126770510D01*
X211213524Y-126805427D01*
X211164928Y-126807387D01*
X211039361Y-126787500D01*
X210840639Y-126787500D01*
X210775214Y-126797862D01*
X210644362Y-126818587D01*
X210455370Y-126879993D01*
X210455367Y-126879994D01*
X210278305Y-126970213D01*
X210117533Y-127087021D01*
X209977021Y-127227533D01*
X209860213Y-127388305D01*
X209780485Y-127544780D01*
X209732510Y-127595576D01*
X209664689Y-127612371D01*
X209598554Y-127589833D01*
X209559515Y-127544780D01*
X209479786Y-127388305D01*
X209362981Y-127227536D01*
X209222464Y-127087019D01*
X209061694Y-126970213D01*
X208884632Y-126879994D01*
X208884629Y-126879993D01*
X208695637Y-126818587D01*
X208597498Y-126803043D01*
X208499361Y-126787500D01*
X208300639Y-126787500D01*
X208235214Y-126797862D01*
X208104362Y-126818587D01*
X207915370Y-126879993D01*
X207915367Y-126879994D01*
X207738305Y-126970213D01*
X207577533Y-127087021D01*
X207437021Y-127227533D01*
X207320213Y-127388305D01*
X207240485Y-127544780D01*
X207192510Y-127595576D01*
X207124689Y-127612371D01*
X207058554Y-127589833D01*
X207019515Y-127544780D01*
X206939786Y-127388305D01*
X206822981Y-127227536D01*
X206682464Y-127087019D01*
X206521694Y-126970213D01*
X206344632Y-126879994D01*
X206344629Y-126879993D01*
X206155637Y-126818587D01*
X206057498Y-126803043D01*
X205959361Y-126787500D01*
X205760639Y-126787500D01*
X205695214Y-126797862D01*
X205564362Y-126818587D01*
X205375370Y-126879993D01*
X205375367Y-126879994D01*
X205198305Y-126970213D01*
X205037533Y-127087021D01*
X204897021Y-127227533D01*
X204780213Y-127388305D01*
X204700485Y-127544780D01*
X204652510Y-127595576D01*
X204584689Y-127612371D01*
X204518554Y-127589833D01*
X204479515Y-127544780D01*
X204399786Y-127388305D01*
X204282981Y-127227536D01*
X204142464Y-127087019D01*
X203981694Y-126970213D01*
X203804632Y-126879994D01*
X203804629Y-126879993D01*
X203615637Y-126818587D01*
X203517498Y-126803043D01*
X203419361Y-126787500D01*
X203220639Y-126787500D01*
X203155214Y-126797862D01*
X203024362Y-126818587D01*
X202835370Y-126879993D01*
X202835367Y-126879994D01*
X202658305Y-126970213D01*
X202497533Y-127087021D01*
X202357021Y-127227533D01*
X202240213Y-127388305D01*
X202160485Y-127544780D01*
X202112510Y-127595576D01*
X202044689Y-127612371D01*
X201978554Y-127589833D01*
X201939515Y-127544780D01*
X201859786Y-127388305D01*
X201742981Y-127227536D01*
X201602464Y-127087019D01*
X201441694Y-126970213D01*
X201264632Y-126879994D01*
X201264629Y-126879993D01*
X201075637Y-126818587D01*
X200977498Y-126803043D01*
X200879361Y-126787500D01*
X200680639Y-126787500D01*
X200615214Y-126797862D01*
X200484362Y-126818587D01*
X200295370Y-126879993D01*
X200295367Y-126879994D01*
X200118305Y-126970213D01*
X199957533Y-127087021D01*
X199817021Y-127227533D01*
X199700213Y-127388305D01*
X199609994Y-127565367D01*
X199609993Y-127565370D01*
X199548587Y-127754362D01*
X199517500Y-127950639D01*
X199517500Y-128149360D01*
X199548587Y-128345637D01*
X199609993Y-128534629D01*
X199609994Y-128534632D01*
X199639260Y-128592068D01*
X199700213Y-128711694D01*
X199817019Y-128872464D01*
X199957536Y-129012981D01*
X200118306Y-129129787D01*
X200174403Y-129158370D01*
X200295367Y-129220005D01*
X200295370Y-129220006D01*
X200389866Y-129250709D01*
X200484364Y-129281413D01*
X200680639Y-129312500D01*
X200680640Y-129312500D01*
X200879360Y-129312500D01*
X200879361Y-129312500D01*
X201075636Y-129281413D01*
X201264632Y-129220005D01*
X201441694Y-129129787D01*
X201602464Y-129012981D01*
X201742981Y-128872464D01*
X201859787Y-128711694D01*
X201939515Y-128555218D01*
X201987490Y-128504423D01*
X202055311Y-128487628D01*
X202121446Y-128510165D01*
X202160484Y-128555218D01*
X202240213Y-128711694D01*
X202357019Y-128872464D01*
X202497536Y-129012981D01*
X202658306Y-129129787D01*
X202714403Y-129158370D01*
X202835367Y-129220005D01*
X202835370Y-129220006D01*
X202929866Y-129250709D01*
X203024364Y-129281413D01*
X203220639Y-129312500D01*
X203220640Y-129312500D01*
X203419360Y-129312500D01*
X203419361Y-129312500D01*
X203615636Y-129281413D01*
X203804632Y-129220005D01*
X203981694Y-129129787D01*
X204142464Y-129012981D01*
X204282981Y-128872464D01*
X204399787Y-128711694D01*
X204479515Y-128555218D01*
X204527490Y-128504423D01*
X204595311Y-128487628D01*
X204661446Y-128510165D01*
X204700484Y-128555218D01*
X204780213Y-128711694D01*
X204897019Y-128872464D01*
X205037536Y-129012981D01*
X205198306Y-129129787D01*
X205254403Y-129158370D01*
X205375367Y-129220005D01*
X205375370Y-129220006D01*
X205469866Y-129250709D01*
X205564364Y-129281413D01*
X205760639Y-129312500D01*
X205760640Y-129312500D01*
X205959360Y-129312500D01*
X205959361Y-129312500D01*
X206155636Y-129281413D01*
X206344632Y-129220005D01*
X206521694Y-129129787D01*
X206682464Y-129012981D01*
X206822981Y-128872464D01*
X206939787Y-128711694D01*
X207019515Y-128555218D01*
X207067490Y-128504423D01*
X207135311Y-128487628D01*
X207201446Y-128510165D01*
X207240484Y-128555218D01*
X207320213Y-128711694D01*
X207437019Y-128872464D01*
X207577536Y-129012981D01*
X207738306Y-129129787D01*
X207794403Y-129158370D01*
X207915367Y-129220005D01*
X207915370Y-129220006D01*
X208009866Y-129250709D01*
X208104364Y-129281413D01*
X208300639Y-129312500D01*
X208300640Y-129312500D01*
X208499360Y-129312500D01*
X208499361Y-129312500D01*
X208695636Y-129281413D01*
X208884632Y-129220005D01*
X209061694Y-129129787D01*
X209222464Y-129012981D01*
X209362981Y-128872464D01*
X209479787Y-128711694D01*
X209559515Y-128555218D01*
X209607490Y-128504423D01*
X209675311Y-128487628D01*
X209741446Y-128510165D01*
X209780484Y-128555218D01*
X209860213Y-128711694D01*
X209977019Y-128872464D01*
X210117536Y-129012981D01*
X210278306Y-129129787D01*
X210334403Y-129158370D01*
X210455367Y-129220005D01*
X210455370Y-129220006D01*
X210549866Y-129250709D01*
X210644364Y-129281413D01*
X210840639Y-129312500D01*
X210840640Y-129312500D01*
X211039360Y-129312500D01*
X211039361Y-129312500D01*
X211235636Y-129281413D01*
X211424632Y-129220005D01*
X211601694Y-129129787D01*
X211762464Y-129012981D01*
X211902981Y-128872464D01*
X211952057Y-128804915D01*
X211968455Y-128782347D01*
X212023785Y-128739681D01*
X212093398Y-128733702D01*
X212155193Y-128766308D01*
X212175283Y-128791737D01*
X212251619Y-128919786D01*
X212402809Y-129101240D01*
X212580521Y-129256807D01*
X212614781Y-129278380D01*
X212780381Y-129382658D01*
X212997468Y-129475695D01*
X213226437Y-129533628D01*
X213461649Y-129555028D01*
X213697313Y-129539369D01*
X213927626Y-129487037D01*
X214000725Y-129457797D01*
X214146908Y-129399325D01*
X214146912Y-129399322D01*
X214146917Y-129399321D01*
X214349787Y-129278380D01*
X214531239Y-129127192D01*
X214657492Y-128982966D01*
X214716458Y-128945491D01*
X214786327Y-128945844D01*
X214844914Y-128983914D01*
X214845832Y-128984998D01*
X214945597Y-129104090D01*
X215123721Y-129259186D01*
X215323914Y-129384508D01*
X215323916Y-129384509D01*
X215323918Y-129384510D01*
X215323919Y-129384511D01*
X215535907Y-129474697D01*
X215541247Y-129476969D01*
X215770369Y-129534295D01*
X216005637Y-129555072D01*
X216241259Y-129538789D01*
X216471432Y-129485847D01*
X216690490Y-129397549D01*
X216893039Y-129276071D01*
X217074090Y-129124403D01*
X217229186Y-128946280D01*
X217354507Y-128746086D01*
X217446969Y-128528753D01*
X217504295Y-128299631D01*
X217525072Y-128064364D01*
X217508789Y-127828742D01*
X217455847Y-127598568D01*
X215095889Y-121743713D01*
X219899500Y-121743713D01*
X219899500Y-121956287D01*
X219932754Y-122166243D01*
X219974315Y-122294155D01*
X219998444Y-122368414D01*
X220094951Y-122557820D01*
X220219890Y-122729786D01*
X220358705Y-122868601D01*
X220392190Y-122929924D01*
X220387206Y-122999616D01*
X220345334Y-123055549D01*
X220336121Y-123061821D01*
X220181342Y-123157289D01*
X220057289Y-123281342D01*
X219965187Y-123430663D01*
X219965186Y-123430666D01*
X219910001Y-123597203D01*
X219910001Y-123597204D01*
X219910000Y-123597204D01*
X219899500Y-123699983D01*
X219899500Y-125000001D01*
X219899501Y-125000018D01*
X219910000Y-125102796D01*
X219910001Y-125102799D01*
X219919419Y-125131219D01*
X219965186Y-125269334D01*
X220057288Y-125418656D01*
X220181344Y-125542712D01*
X220330666Y-125634814D01*
X220497203Y-125689999D01*
X220599991Y-125700500D01*
X222200008Y-125700499D01*
X222302797Y-125689999D01*
X222469334Y-125634814D01*
X222618656Y-125542712D01*
X222742712Y-125418656D01*
X222834814Y-125269334D01*
X222889999Y-125102797D01*
X222900500Y-125000009D01*
X222900499Y-123699992D01*
X222889999Y-123597203D01*
X222834814Y-123430666D01*
X222742712Y-123281344D01*
X222618656Y-123157288D01*
X222469334Y-123065186D01*
X222469333Y-123065185D01*
X222463878Y-123061821D01*
X222417154Y-123009873D01*
X222405931Y-122940910D01*
X222433775Y-122876828D01*
X222441272Y-122868623D01*
X222580104Y-122729792D01*
X222705051Y-122557816D01*
X222801557Y-122368412D01*
X222867246Y-122166243D01*
X222900500Y-121956287D01*
X222900500Y-121743713D01*
X222867246Y-121533757D01*
X222801557Y-121331588D01*
X222705051Y-121142184D01*
X222705049Y-121142181D01*
X222705048Y-121142179D01*
X222580109Y-120970213D01*
X222429786Y-120819890D01*
X222257820Y-120694951D01*
X222068414Y-120598444D01*
X222068413Y-120598443D01*
X222068412Y-120598443D01*
X221866243Y-120532754D01*
X221866241Y-120532753D01*
X221866240Y-120532753D01*
X221701941Y-120506731D01*
X221656287Y-120499500D01*
X221143713Y-120499500D01*
X221098059Y-120506731D01*
X220933760Y-120532753D01*
X220731585Y-120598444D01*
X220542179Y-120694951D01*
X220370213Y-120819890D01*
X220219890Y-120970213D01*
X220094951Y-121142179D01*
X219998444Y-121331585D01*
X219932753Y-121533760D01*
X219921323Y-121605929D01*
X219899500Y-121743713D01*
X215095889Y-121743713D01*
X214796947Y-121002064D01*
X214759859Y-120904842D01*
X214752826Y-120892602D01*
X214749617Y-120884640D01*
X214749614Y-120884633D01*
X214747549Y-120879511D01*
X214747546Y-120879504D01*
X214694621Y-120791260D01*
X214694620Y-120791258D01*
X214694017Y-120790253D01*
X214642192Y-120700057D01*
X214633335Y-120689073D01*
X214626071Y-120676961D01*
X214559958Y-120598039D01*
X214559212Y-120597149D01*
X214493938Y-120516198D01*
X214483468Y-120506731D01*
X214474403Y-120495910D01*
X214474399Y-120495906D01*
X214474397Y-120495904D01*
X214396817Y-120428354D01*
X214395082Y-120426814D01*
X214318756Y-120357804D01*
X214318754Y-120357802D01*
X214318748Y-120357797D01*
X214306922Y-120350082D01*
X214296279Y-120340815D01*
X214208105Y-120285618D01*
X214120935Y-120228751D01*
X214115889Y-120226491D01*
X214108041Y-120222977D01*
X214096086Y-120215493D01*
X214000385Y-120174777D01*
X213999294Y-120174289D01*
X213905370Y-120132238D01*
X213900036Y-120130797D01*
X213891736Y-120128554D01*
X213878753Y-120123031D01*
X213777823Y-120097778D01*
X213776683Y-120097470D01*
X201322835Y-116732746D01*
X201263250Y-116696257D01*
X201232851Y-116633347D01*
X201241290Y-116563989D01*
X201285887Y-116510203D01*
X201298873Y-116502558D01*
X201441694Y-116429787D01*
X201602464Y-116312981D01*
X201742981Y-116172464D01*
X201859787Y-116011694D01*
X201939515Y-115855218D01*
X201987490Y-115804423D01*
X202055311Y-115787628D01*
X202121446Y-115810165D01*
X202160484Y-115855218D01*
X202240213Y-116011694D01*
X202357019Y-116172464D01*
X202497536Y-116312981D01*
X202658306Y-116429787D01*
X202727103Y-116464841D01*
X202835367Y-116520005D01*
X202835370Y-116520006D01*
X202929866Y-116550709D01*
X203024364Y-116581413D01*
X203220639Y-116612500D01*
X203220640Y-116612500D01*
X203419360Y-116612500D01*
X203419361Y-116612500D01*
X203615636Y-116581413D01*
X203804632Y-116520005D01*
X203981694Y-116429787D01*
X204142464Y-116312981D01*
X204282981Y-116172464D01*
X204399787Y-116011694D01*
X204479796Y-115854667D01*
X204527769Y-115803872D01*
X204595590Y-115787077D01*
X204661725Y-115809614D01*
X204700765Y-115854668D01*
X204780641Y-116011432D01*
X204807730Y-116048715D01*
X205479000Y-115377445D01*
X205479000Y-115400160D01*
X205504964Y-115497061D01*
X205555124Y-115583940D01*
X205626060Y-115654876D01*
X205712939Y-115705036D01*
X205809840Y-115731000D01*
X205832553Y-115731000D01*
X205161283Y-116402268D01*
X205161283Y-116402269D01*
X205198567Y-116429358D01*
X205375562Y-116519542D01*
X205564477Y-116580924D01*
X205760679Y-116612000D01*
X205959321Y-116612000D01*
X206155520Y-116580924D01*
X206155523Y-116580924D01*
X206344437Y-116519542D01*
X206521425Y-116429362D01*
X206558716Y-116402268D01*
X205887448Y-115731000D01*
X205910160Y-115731000D01*
X206007061Y-115705036D01*
X206093940Y-115654876D01*
X206164876Y-115583940D01*
X206215036Y-115497061D01*
X206241000Y-115400160D01*
X206241000Y-115377447D01*
X206912268Y-116048715D01*
X206939364Y-116011422D01*
X207019234Y-115854669D01*
X207067208Y-115803872D01*
X207135029Y-115787077D01*
X207201164Y-115809614D01*
X207240203Y-115854667D01*
X207320213Y-116011694D01*
X207437019Y-116172464D01*
X207577536Y-116312981D01*
X207738306Y-116429787D01*
X207807103Y-116464841D01*
X207915367Y-116520005D01*
X207915370Y-116520006D01*
X208009866Y-116550709D01*
X208104364Y-116581413D01*
X208300639Y-116612500D01*
X208300640Y-116612500D01*
X208499360Y-116612500D01*
X208499361Y-116612500D01*
X208695636Y-116581413D01*
X208695646Y-116581409D01*
X208697891Y-116580871D01*
X208698778Y-116580915D01*
X208700448Y-116580651D01*
X208700503Y-116581001D01*
X208767674Y-116584357D01*
X208814527Y-116613762D01*
X209383739Y-117182974D01*
X209383749Y-117182985D01*
X209388079Y-117187315D01*
X209388080Y-117187316D01*
X209499884Y-117299120D01*
X209575724Y-117342906D01*
X209636815Y-117378177D01*
X209789543Y-117419101D01*
X209789546Y-117419101D01*
X209955253Y-117419101D01*
X209955269Y-117419100D01*
X217166931Y-117419100D01*
X217166947Y-117419101D01*
X217174543Y-117419101D01*
X217332654Y-117419101D01*
X217332657Y-117419101D01*
X217485385Y-117378177D01*
X217546476Y-117342906D01*
X217622316Y-117299120D01*
X217734120Y-117187316D01*
X217734120Y-117187314D01*
X217744320Y-117177115D01*
X217744323Y-117177110D01*
X217867717Y-117053717D01*
X217929040Y-117020234D01*
X217955397Y-117017400D01*
X222890831Y-117017400D01*
X222890847Y-117017401D01*
X222898443Y-117017401D01*
X223056554Y-117017401D01*
X223056557Y-117017401D01*
X223209285Y-116976477D01*
X223259404Y-116947539D01*
X223346216Y-116897420D01*
X223458020Y-116785616D01*
X223458020Y-116785614D01*
X223468228Y-116775407D01*
X223468230Y-116775404D01*
X224372406Y-115871228D01*
X224372411Y-115871224D01*
X224382614Y-115861020D01*
X224382616Y-115861020D01*
X224494420Y-115749216D01*
X224544744Y-115662051D01*
X224573477Y-115612285D01*
X224589715Y-115551682D01*
X224592910Y-115544030D01*
X224605797Y-115528127D01*
X224619660Y-115504116D01*
X224635689Y-115488089D01*
X224723294Y-115356979D01*
X224732724Y-115334214D01*
X224744881Y-115304862D01*
X224783637Y-115211297D01*
X224814400Y-115056642D01*
X224814400Y-114898958D01*
X224814400Y-114898955D01*
X224814399Y-114898953D01*
X224813546Y-114894666D01*
X224783637Y-114744303D01*
X224749627Y-114662196D01*
X224742159Y-114592730D01*
X224773434Y-114530250D01*
X224822510Y-114499634D01*
X224822069Y-114498568D01*
X224973372Y-114435897D01*
X224973372Y-114435896D01*
X224973379Y-114435894D01*
X225104489Y-114348289D01*
X225215989Y-114236789D01*
X225303594Y-114105679D01*
X225363937Y-113959997D01*
X225394700Y-113805342D01*
X225394700Y-113647658D01*
X225394700Y-113647655D01*
X225394699Y-113647653D01*
X225391455Y-113631344D01*
X225363937Y-113493003D01*
X225346269Y-113450348D01*
X225303597Y-113347327D01*
X225303590Y-113347314D01*
X225215989Y-113216211D01*
X225215986Y-113216207D01*
X225104492Y-113104713D01*
X225104488Y-113104710D01*
X224973385Y-113017109D01*
X224973372Y-113017102D01*
X224827701Y-112956764D01*
X224827689Y-112956761D01*
X224673045Y-112926000D01*
X224673042Y-112926000D01*
X224515358Y-112926000D01*
X224515355Y-112926000D01*
X224360710Y-112956761D01*
X224360698Y-112956764D01*
X224215027Y-113017102D01*
X224215014Y-113017109D01*
X224083912Y-113104709D01*
X223972409Y-113216213D01*
X223949511Y-113250482D01*
X223934093Y-113269269D01*
X223905723Y-113297640D01*
X223845580Y-113357784D01*
X223845578Y-113357785D01*
X223845577Y-113357786D01*
X223845578Y-113357786D01*
X223479232Y-113724131D01*
X223417909Y-113757616D01*
X223348217Y-113752632D01*
X223292284Y-113710760D01*
X223286019Y-113701556D01*
X223242712Y-113631344D01*
X223118656Y-113507288D01*
X223002648Y-113435734D01*
X222955924Y-113383786D01*
X222944701Y-113314823D01*
X222972545Y-113250741D01*
X222976321Y-113246424D01*
X222987391Y-113234343D01*
X223086089Y-113126628D01*
X223216443Y-112929673D01*
X223314381Y-112714753D01*
X223377493Y-112487157D01*
X223391938Y-112360338D01*
X223400500Y-112306287D01*
X223400500Y-112285183D01*
X223404224Y-112252491D01*
X223400500Y-112167237D01*
X223400500Y-112093713D01*
X223396065Y-112065713D01*
X223393917Y-112016532D01*
X223368462Y-111891435D01*
X223367246Y-111883757D01*
X223366319Y-111880905D01*
X223346823Y-111785091D01*
X221167844Y-105957589D01*
X221142551Y-105878820D01*
X221126541Y-105847129D01*
X221114104Y-105813866D01*
X221093243Y-105776996D01*
X221074794Y-105744388D01*
X221074794Y-105744389D01*
X221073353Y-105741843D01*
X221036054Y-105668009D01*
X221015286Y-105639215D01*
X220997797Y-105608305D01*
X220948103Y-105545835D01*
X220946283Y-105543547D01*
X220897891Y-105476453D01*
X220872868Y-105451257D01*
X220868621Y-105445918D01*
X220868612Y-105445908D01*
X220850764Y-105423470D01*
X220791907Y-105369539D01*
X220787730Y-105365527D01*
X220731462Y-105308869D01*
X220708305Y-105291922D01*
X220697783Y-105283295D01*
X220676628Y-105263911D01*
X220610062Y-105219854D01*
X220610062Y-105219853D01*
X220607619Y-105218236D01*
X220540866Y-105169384D01*
X220509280Y-105153152D01*
X220479673Y-105133557D01*
X220479670Y-105133555D01*
X220407043Y-105100460D01*
X220401793Y-105097916D01*
X217749642Y-103735005D01*
X217368400Y-103539089D01*
X217317771Y-103490940D01*
X217301210Y-103423061D01*
X217323976Y-103357004D01*
X217378841Y-103313742D01*
X217425077Y-103304800D01*
X223839031Y-103304800D01*
X223839047Y-103304801D01*
X223846643Y-103304801D01*
X224004754Y-103304801D01*
X224004757Y-103304801D01*
X224157485Y-103263877D01*
X224226593Y-103223977D01*
X224294416Y-103184820D01*
X224406220Y-103073016D01*
X224406220Y-103073014D01*
X224416424Y-103062811D01*
X224416428Y-103062806D01*
X224614763Y-102864470D01*
X224676084Y-102830987D01*
X224740759Y-102834221D01*
X224783546Y-102848124D01*
X224993642Y-102881400D01*
X224993643Y-102881400D01*
X225206357Y-102881400D01*
X225206358Y-102881400D01*
X225416454Y-102848124D01*
X225618758Y-102782392D01*
X225808288Y-102685821D01*
X225980378Y-102560790D01*
X226130790Y-102410378D01*
X226255821Y-102238288D01*
X226352392Y-102048758D01*
X226418124Y-101846454D01*
X226451400Y-101636358D01*
X226451400Y-101423642D01*
X226418124Y-101213546D01*
X226365752Y-101052361D01*
X226352393Y-101011244D01*
X226352392Y-101011241D01*
X226295626Y-100899834D01*
X226255821Y-100821712D01*
X226130790Y-100649622D01*
X225980378Y-100499210D01*
X225808288Y-100374179D01*
X225801039Y-100370485D01*
X225750243Y-100322514D01*
X225733446Y-100254693D01*
X225755981Y-100188557D01*
X225801040Y-100149514D01*
X225808288Y-100145821D01*
X225980378Y-100020790D01*
X226130790Y-99870378D01*
X226255821Y-99698288D01*
X226352392Y-99508758D01*
X226418124Y-99306454D01*
X226451400Y-99096358D01*
X226451400Y-98883642D01*
X226418124Y-98673546D01*
X226352392Y-98471242D01*
X226352392Y-98471241D01*
X226283701Y-98336430D01*
X226255821Y-98281712D01*
X226130790Y-98109622D01*
X225980378Y-97959210D01*
X225808288Y-97834179D01*
X225801039Y-97830485D01*
X225750243Y-97782514D01*
X225733446Y-97714693D01*
X225755981Y-97648557D01*
X225801040Y-97609514D01*
X225808288Y-97605821D01*
X225980378Y-97480790D01*
X226130790Y-97330378D01*
X226255821Y-97158288D01*
X226352392Y-96968758D01*
X226418124Y-96766454D01*
X226451400Y-96556358D01*
X226451400Y-96343642D01*
X226418124Y-96133546D01*
X226352392Y-95931242D01*
X226352392Y-95931241D01*
X226282471Y-95794015D01*
X226255821Y-95741712D01*
X226130790Y-95569622D01*
X225980378Y-95419210D01*
X225808288Y-95294179D01*
X225801039Y-95290485D01*
X225750243Y-95242514D01*
X225733446Y-95174693D01*
X225755981Y-95108557D01*
X225801040Y-95069514D01*
X225808288Y-95065821D01*
X225980378Y-94940790D01*
X226130790Y-94790378D01*
X226255821Y-94618288D01*
X226352392Y-94428758D01*
X226418124Y-94226454D01*
X226451400Y-94016358D01*
X226451400Y-93803642D01*
X226418124Y-93593546D01*
X226368475Y-93440740D01*
X226352393Y-93391244D01*
X226352392Y-93391241D01*
X226303185Y-93294670D01*
X226255821Y-93201712D01*
X226130790Y-93029622D01*
X225980378Y-92879210D01*
X225808288Y-92754179D01*
X225801039Y-92750485D01*
X225750243Y-92702514D01*
X225733446Y-92634693D01*
X225755981Y-92568557D01*
X225801040Y-92529514D01*
X225808288Y-92525821D01*
X225980378Y-92400790D01*
X226130790Y-92250378D01*
X226255821Y-92078288D01*
X226352392Y-91888758D01*
X226418124Y-91686454D01*
X226451400Y-91476358D01*
X226451400Y-91263642D01*
X226418124Y-91053546D01*
X226352392Y-90851242D01*
X226352392Y-90851241D01*
X226282471Y-90714015D01*
X226255821Y-90661712D01*
X226130790Y-90489622D01*
X225980378Y-90339210D01*
X225808288Y-90214179D01*
X225618758Y-90117607D01*
X225618755Y-90117606D01*
X225416455Y-90051876D01*
X225311406Y-90035238D01*
X225206358Y-90018600D01*
X224993642Y-90018600D01*
X224923610Y-90029692D01*
X224783544Y-90051876D01*
X224581244Y-90117606D01*
X224581241Y-90117607D01*
X224391711Y-90214179D01*
X224293527Y-90285514D01*
X224219622Y-90339210D01*
X224219620Y-90339212D01*
X224219619Y-90339212D01*
X224069212Y-90489619D01*
X224069212Y-90489620D01*
X224069210Y-90489622D01*
X224043574Y-90524907D01*
X223944177Y-90661713D01*
X223940484Y-90668963D01*
X223892510Y-90719758D01*
X223824689Y-90736553D01*
X223758554Y-90714015D01*
X223719516Y-90668963D01*
X223715822Y-90661713D01*
X223692179Y-90629172D01*
X223590790Y-90489622D01*
X223440378Y-90339210D01*
X223268288Y-90214179D01*
X223078758Y-90117607D01*
X223078755Y-90117606D01*
X222876455Y-90051876D01*
X222771406Y-90035238D01*
X222666358Y-90018600D01*
X222453642Y-90018600D01*
X222383610Y-90029692D01*
X222243544Y-90051876D01*
X222041244Y-90117606D01*
X222041241Y-90117607D01*
X221851711Y-90214179D01*
X221753527Y-90285514D01*
X221679622Y-90339210D01*
X221679620Y-90339212D01*
X221679619Y-90339212D01*
X221529212Y-90489619D01*
X221529212Y-90489620D01*
X221529210Y-90489622D01*
X221503574Y-90524907D01*
X221404179Y-90661711D01*
X221307607Y-90851241D01*
X221307606Y-90851244D01*
X221241876Y-91053544D01*
X221208600Y-91263642D01*
X221208600Y-91476357D01*
X221241875Y-91686453D01*
X221255777Y-91729239D01*
X221257771Y-91799080D01*
X221225526Y-91855236D01*
X217628664Y-95452099D01*
X217567341Y-95485584D01*
X217497649Y-95480600D01*
X217441716Y-95438728D01*
X217417299Y-95373264D01*
X217416988Y-95365592D01*
X217400500Y-93592978D01*
X217400500Y-93481908D01*
X217399402Y-93474977D01*
X217399337Y-93467956D01*
X217399337Y-93467952D01*
X217381046Y-93359045D01*
X217380860Y-93357905D01*
X217363554Y-93248641D01*
X217363553Y-93248632D01*
X217361383Y-93241954D01*
X217360221Y-93235033D01*
X217324906Y-93129690D01*
X217290568Y-93024008D01*
X217287381Y-93017753D01*
X217285150Y-93011098D01*
X217233785Y-92912566D01*
X217183343Y-92813567D01*
X217183341Y-92813564D01*
X217180797Y-92809412D01*
X217180914Y-92809340D01*
X217178672Y-92805718D01*
X217178555Y-92805792D01*
X217175976Y-92801671D01*
X217175972Y-92801663D01*
X217143624Y-92758000D01*
X217110102Y-92712751D01*
X217110102Y-92712752D01*
X217109809Y-92712357D01*
X217044517Y-92622490D01*
X217039554Y-92617527D01*
X217035375Y-92611886D01*
X216956441Y-92534407D01*
X216955622Y-92533595D01*
X214527511Y-90105484D01*
X214514698Y-90096175D01*
X214336434Y-89966657D01*
X214269509Y-89932557D01*
X214125996Y-89859433D01*
X213926564Y-89794633D01*
X213868889Y-89755195D01*
X213841691Y-89690836D01*
X213853606Y-89621990D01*
X213898789Y-89571785D01*
X219239357Y-86207648D01*
X219281064Y-86186617D01*
X219339125Y-86144802D01*
X219377708Y-86120497D01*
X219399665Y-86106668D01*
X219399666Y-86106666D01*
X219399672Y-86106663D01*
X219434815Y-86075888D01*
X219472720Y-86048591D01*
X219523526Y-85998207D01*
X219577359Y-85951068D01*
X219603484Y-85919701D01*
X219611433Y-85911031D01*
X219640423Y-85882284D01*
X219682727Y-85824565D01*
X219728518Y-85769591D01*
X219752427Y-85729470D01*
X219780046Y-85691789D01*
X219812799Y-85628164D01*
X219849427Y-85566703D01*
X219866768Y-85523328D01*
X219888149Y-85481797D01*
X219909341Y-85417488D01*
X219911961Y-85410294D01*
X219937109Y-85347397D01*
X219946148Y-85307582D01*
X219949292Y-85296257D01*
X221005638Y-82090794D01*
X221045315Y-82033286D01*
X221109787Y-82006357D01*
X221162408Y-82011900D01*
X221247203Y-82039999D01*
X221349991Y-82050500D01*
X222950008Y-82050499D01*
X223052797Y-82039999D01*
X223219334Y-81984814D01*
X223368656Y-81892712D01*
X223492712Y-81768656D01*
X223584814Y-81619334D01*
X223639999Y-81452797D01*
X223650500Y-81350009D01*
X223650499Y-80049992D01*
X223639999Y-79947203D01*
X223584814Y-79780666D01*
X223492712Y-79631344D01*
X223368656Y-79507288D01*
X223253147Y-79436041D01*
X223206424Y-79384095D01*
X223195201Y-79315133D01*
X223223045Y-79251050D01*
X223225875Y-79247777D01*
X223346099Y-79113670D01*
X223474302Y-78915310D01*
X223569897Y-78699337D01*
X223569899Y-78699329D01*
X223569901Y-78699324D01*
X223620973Y-78507046D01*
X223630530Y-78471067D01*
X223641896Y-78360605D01*
X223650500Y-78306287D01*
X223650500Y-78276998D01*
X223654706Y-78236125D01*
X223650500Y-78159077D01*
X223650500Y-78093713D01*
X223645055Y-78059336D01*
X223641832Y-78000292D01*
X223618507Y-77891719D01*
X223617246Y-77883757D01*
X223615919Y-77879674D01*
X223592224Y-77769377D01*
X223507103Y-77549065D01*
X223416322Y-77392615D01*
X223388570Y-77344787D01*
X223388565Y-77344779D01*
X223239534Y-77161558D01*
X223239530Y-77161554D01*
X223063682Y-77003912D01*
X223063670Y-77003901D01*
X222910429Y-76904859D01*
X222865308Y-76875696D01*
X222649335Y-76780102D01*
X222649328Y-76780100D01*
X222421070Y-76719470D01*
X222280101Y-76704964D01*
X222186124Y-76695294D01*
X222186122Y-76695294D01*
X221950290Y-76708168D01*
X221719376Y-76757775D01*
X219450555Y-77634364D01*
X219450556Y-77634365D01*
X219447404Y-77635583D01*
X219374008Y-77659432D01*
X219337390Y-77678089D01*
X219331459Y-77680381D01*
X219331456Y-77680381D01*
X219299062Y-77692898D01*
X219235242Y-77729927D01*
X219235243Y-77729928D01*
X219232313Y-77731627D01*
X219163567Y-77766657D01*
X219130332Y-77790802D01*
X219124832Y-77793994D01*
X219124822Y-77794001D01*
X219094785Y-77811430D01*
X219094767Y-77811443D01*
X219037527Y-77857999D01*
X219037528Y-77858000D01*
X219034889Y-77860146D01*
X218972490Y-77905483D01*
X218943444Y-77934527D01*
X218938509Y-77938542D01*
X218938502Y-77938549D01*
X218911557Y-77960466D01*
X218862293Y-78015416D01*
X218862294Y-78015417D01*
X218860033Y-78017938D01*
X218805483Y-78072490D01*
X218781340Y-78105718D01*
X218777093Y-78110456D01*
X218777089Y-78110462D01*
X218753901Y-78136330D01*
X218713848Y-78198299D01*
X218710027Y-78203871D01*
X218666658Y-78263565D01*
X218666653Y-78263572D01*
X218650887Y-78294513D01*
X218650888Y-78294514D01*
X218648000Y-78300182D01*
X218625697Y-78334691D01*
X218594467Y-78405246D01*
X218592927Y-78408269D01*
X218592925Y-78408270D01*
X218559435Y-78474000D01*
X218559429Y-78474014D01*
X218548695Y-78507046D01*
X218546726Y-78513103D01*
X218530103Y-78550664D01*
X218510299Y-78625217D01*
X218509249Y-78628451D01*
X218486449Y-78698622D01*
X218486446Y-78698633D01*
X218481013Y-78732935D01*
X218478386Y-78745362D01*
X218469469Y-78778936D01*
X218469468Y-78778942D01*
X218461914Y-78852341D01*
X218461915Y-78852342D01*
X218461569Y-78855701D01*
X218449500Y-78931908D01*
X218449500Y-78972999D01*
X218448849Y-78979326D01*
X218445294Y-79013874D01*
X218449316Y-79087551D01*
X218449500Y-79094309D01*
X218449500Y-80239222D01*
X218443270Y-80278033D01*
X217257705Y-83875607D01*
X217218027Y-83933117D01*
X217206026Y-83941715D01*
X217062631Y-84032043D01*
X216995416Y-84051119D01*
X216928558Y-84030827D01*
X216883283Y-83977611D01*
X216873967Y-83908365D01*
X216896220Y-83854240D01*
X216999787Y-83711694D01*
X217090005Y-83534632D01*
X217151413Y-83345636D01*
X217182500Y-83149361D01*
X217182500Y-82950639D01*
X217151413Y-82754364D01*
X217090005Y-82565368D01*
X217090005Y-82565367D01*
X217033015Y-82453520D01*
X216999787Y-82388306D01*
X216882981Y-82227536D01*
X216742464Y-82087019D01*
X216581694Y-81970213D01*
X216570005Y-81964257D01*
X216404632Y-81879994D01*
X216404629Y-81879993D01*
X216215637Y-81818587D01*
X216117498Y-81803043D01*
X216019361Y-81787500D01*
X215820639Y-81787500D01*
X215755214Y-81797862D01*
X215624362Y-81818587D01*
X215435370Y-81879993D01*
X215435367Y-81879994D01*
X215258305Y-81970213D01*
X215097533Y-82087021D01*
X214957021Y-82227533D01*
X214840213Y-82388305D01*
X214760204Y-82545331D01*
X214712229Y-82596127D01*
X214644408Y-82612922D01*
X214578273Y-82590384D01*
X214539234Y-82545331D01*
X214459358Y-82388567D01*
X214432268Y-82351283D01*
X213761000Y-83022551D01*
X213761000Y-82999840D01*
X213735036Y-82902939D01*
X213684876Y-82816060D01*
X213613940Y-82745124D01*
X213527061Y-82694964D01*
X213430160Y-82669000D01*
X213407447Y-82669000D01*
X214078716Y-81997731D01*
X214078715Y-81997730D01*
X214041432Y-81970641D01*
X213864437Y-81880457D01*
X213675522Y-81819075D01*
X213479321Y-81788000D01*
X213280679Y-81788000D01*
X213084479Y-81819075D01*
X213084476Y-81819075D01*
X212895562Y-81880457D01*
X212718564Y-81970643D01*
X212681283Y-81997729D01*
X212681282Y-81997730D01*
X213352554Y-82669000D01*
X213329840Y-82669000D01*
X213232939Y-82694964D01*
X213146060Y-82745124D01*
X213075124Y-82816060D01*
X213024964Y-82902939D01*
X212999000Y-82999840D01*
X212999000Y-83022552D01*
X212327730Y-82351282D01*
X212327729Y-82351283D01*
X212300641Y-82388566D01*
X212220764Y-82545332D01*
X212172790Y-82596127D01*
X212104969Y-82612922D01*
X212038834Y-82590384D01*
X211999796Y-82545332D01*
X211919787Y-82388306D01*
X211802981Y-82227536D01*
X211662464Y-82087019D01*
X211501694Y-81970213D01*
X211490005Y-81964257D01*
X211324632Y-81879994D01*
X211324629Y-81879993D01*
X211135637Y-81818587D01*
X211037498Y-81803043D01*
X210939361Y-81787500D01*
X210740639Y-81787500D01*
X210675214Y-81797862D01*
X210544362Y-81818587D01*
X210355370Y-81879993D01*
X210355367Y-81879994D01*
X210178305Y-81970213D01*
X210017533Y-82087021D01*
X209877021Y-82227533D01*
X209760213Y-82388305D01*
X209680485Y-82544780D01*
X209632510Y-82595576D01*
X209564689Y-82612371D01*
X209498554Y-82589833D01*
X209459515Y-82544780D01*
X209413015Y-82453520D01*
X209379787Y-82388306D01*
X209262981Y-82227536D01*
X209122464Y-82087019D01*
X208961694Y-81970213D01*
X208950005Y-81964257D01*
X208784632Y-81879994D01*
X208784629Y-81879993D01*
X208595637Y-81818587D01*
X208497498Y-81803043D01*
X208399361Y-81787500D01*
X208200639Y-81787500D01*
X208135214Y-81797862D01*
X208004362Y-81818587D01*
X207815370Y-81879993D01*
X207815367Y-81879994D01*
X207638305Y-81970213D01*
X207477533Y-82087021D01*
X207337021Y-82227533D01*
X207220213Y-82388305D01*
X207140204Y-82545331D01*
X207092229Y-82596127D01*
X207024408Y-82612922D01*
X206958273Y-82590384D01*
X206919234Y-82545331D01*
X206839358Y-82388567D01*
X206812268Y-82351283D01*
X206141000Y-83022551D01*
X206141000Y-82999840D01*
X206115036Y-82902939D01*
X206064876Y-82816060D01*
X205993940Y-82745124D01*
X205907061Y-82694964D01*
X205810160Y-82669000D01*
X205787446Y-82669000D01*
X206458715Y-81997730D01*
X206421432Y-81970641D01*
X206244437Y-81880457D01*
X206055522Y-81819075D01*
X205859321Y-81788000D01*
X205660679Y-81788000D01*
X205464479Y-81819075D01*
X205464476Y-81819075D01*
X205275562Y-81880457D01*
X205098566Y-81970641D01*
X205094382Y-81973682D01*
X205028575Y-81997159D01*
X204960521Y-81981331D01*
X204911828Y-81931224D01*
X204897500Y-81873361D01*
X204897500Y-80145106D01*
X204917185Y-80078067D01*
X204969989Y-80032312D01*
X205039147Y-80022368D01*
X205077793Y-80034621D01*
X205107972Y-80049998D01*
X205245362Y-80120003D01*
X205245370Y-80120006D01*
X205339866Y-80150709D01*
X205434364Y-80181413D01*
X205630639Y-80212500D01*
X205630640Y-80212500D01*
X205829360Y-80212500D01*
X205829361Y-80212500D01*
X206025636Y-80181413D01*
X206214632Y-80120005D01*
X206391694Y-80029787D01*
X206552464Y-79912981D01*
X206692981Y-79772464D01*
X206758596Y-79682151D01*
X206813925Y-79639486D01*
X206883539Y-79633507D01*
X206945334Y-79666112D01*
X206967209Y-79694637D01*
X207017064Y-79784025D01*
X207162949Y-79969746D01*
X207162953Y-79969751D01*
X207162954Y-79969752D01*
X207162959Y-79969758D01*
X207336113Y-80130382D01*
X207532263Y-80261942D01*
X207532264Y-80261942D01*
X207532268Y-80261945D01*
X207619344Y-80302271D01*
X207746579Y-80361197D01*
X207973783Y-80425704D01*
X208208281Y-80453874D01*
X208444299Y-80445014D01*
X208444303Y-80445013D01*
X208444305Y-80445013D01*
X208619773Y-80410428D01*
X208676024Y-80399341D01*
X208676027Y-80399339D01*
X208676030Y-80399339D01*
X208707886Y-80387649D01*
X208897752Y-80317981D01*
X209104023Y-80202937D01*
X209289758Y-80057041D01*
X209450382Y-79883887D01*
X209450384Y-79883883D01*
X209451087Y-79883126D01*
X209511111Y-79847364D01*
X209580941Y-79849730D01*
X209638405Y-79889474D01*
X209641674Y-79893698D01*
X209674058Y-79937463D01*
X209674060Y-79937465D01*
X209674061Y-79937466D01*
X209842520Y-80103008D01*
X210034801Y-80240160D01*
X210177046Y-80311080D01*
X210246164Y-80345541D01*
X210246168Y-80345542D01*
X210246171Y-80345544D01*
X210471424Y-80416565D01*
X210705013Y-80451474D01*
X210705021Y-80451473D01*
X210705023Y-80451474D01*
X210862463Y-80450099D01*
X210941188Y-80449412D01*
X211174132Y-80410429D01*
X211398111Y-80335486D01*
X211607608Y-80226427D01*
X211797466Y-80085939D01*
X211963008Y-79917480D01*
X212058200Y-79784025D01*
X212100160Y-79725200D01*
X212111747Y-79701959D01*
X212159275Y-79650745D01*
X212226947Y-79633358D01*
X212293276Y-79655317D01*
X212323036Y-79684399D01*
X212387019Y-79772464D01*
X212527536Y-79912981D01*
X212688306Y-80029787D01*
X212775149Y-80074035D01*
X212865367Y-80120005D01*
X212865370Y-80120006D01*
X212959866Y-80150709D01*
X213054364Y-80181413D01*
X213250639Y-80212500D01*
X213250640Y-80212500D01*
X213449360Y-80212500D01*
X213449361Y-80212500D01*
X213645636Y-80181413D01*
X213834632Y-80120005D01*
X214011694Y-80029787D01*
X214172464Y-79912981D01*
X214312981Y-79772464D01*
X214429787Y-79611694D01*
X214509515Y-79455218D01*
X214557490Y-79404423D01*
X214625311Y-79387628D01*
X214691446Y-79410165D01*
X214730484Y-79455218D01*
X214810213Y-79611694D01*
X214927019Y-79772464D01*
X215067536Y-79912981D01*
X215228306Y-80029787D01*
X215315149Y-80074035D01*
X215405367Y-80120005D01*
X215405370Y-80120006D01*
X215499866Y-80150709D01*
X215594364Y-80181413D01*
X215790639Y-80212500D01*
X215790640Y-80212500D01*
X215989360Y-80212500D01*
X215989361Y-80212500D01*
X216185636Y-80181413D01*
X216374632Y-80120005D01*
X216551694Y-80029787D01*
X216712464Y-79912981D01*
X216852981Y-79772464D01*
X216969787Y-79611694D01*
X217060005Y-79434632D01*
X217121413Y-79245636D01*
X217152500Y-79049361D01*
X217152500Y-78850639D01*
X217121413Y-78654364D01*
X217067954Y-78489833D01*
X217060006Y-78465370D01*
X217060005Y-78465367D01*
X217006625Y-78360605D01*
X216969787Y-78288306D01*
X216852981Y-78127536D01*
X216712464Y-77987019D01*
X216551694Y-77870213D01*
X216527723Y-77857999D01*
X216374632Y-77779994D01*
X216374629Y-77779993D01*
X216185637Y-77718587D01*
X216087498Y-77703043D01*
X215989361Y-77687500D01*
X215790639Y-77687500D01*
X215725214Y-77697862D01*
X215594362Y-77718587D01*
X215405370Y-77779993D01*
X215405367Y-77779994D01*
X215228305Y-77870213D01*
X215067533Y-77987021D01*
X214927021Y-78127533D01*
X214810213Y-78288305D01*
X214730485Y-78444780D01*
X214682510Y-78495576D01*
X214614689Y-78512371D01*
X214548554Y-78489833D01*
X214509515Y-78444780D01*
X214469531Y-78366307D01*
X214429787Y-78288306D01*
X214312981Y-78127536D01*
X214172464Y-77987019D01*
X214011694Y-77870213D01*
X213987723Y-77857999D01*
X213834632Y-77779994D01*
X213834629Y-77779993D01*
X213645637Y-77718587D01*
X213547498Y-77703043D01*
X213449361Y-77687500D01*
X213250639Y-77687500D01*
X213211384Y-77693717D01*
X213054360Y-77718587D01*
X212968270Y-77746559D01*
X212898429Y-77748554D01*
X212838596Y-77712473D01*
X212807769Y-77649772D01*
X212811692Y-77591341D01*
X212815651Y-77578784D01*
X213346280Y-75895819D01*
X213385211Y-75837803D01*
X213419775Y-75817470D01*
X217388084Y-74281352D01*
X222096189Y-72458861D01*
X222140952Y-72450499D01*
X222250002Y-72450499D01*
X222250008Y-72450499D01*
X222352797Y-72439999D01*
X222519334Y-72384814D01*
X222668656Y-72292712D01*
X222792712Y-72168656D01*
X222884814Y-72019334D01*
X222939999Y-71852797D01*
X222950500Y-71750009D01*
X222950499Y-71176524D01*
X222954729Y-71135165D01*
X222950499Y-71058581D01*
X222950499Y-70449992D01*
X222939999Y-70347203D01*
X222884814Y-70180666D01*
X222792712Y-70031344D01*
X222668656Y-69907288D01*
X222553979Y-69836555D01*
X222507254Y-69784607D01*
X222496031Y-69715645D01*
X222523875Y-69651562D01*
X222534489Y-69640346D01*
X222559940Y-69616602D01*
X222705307Y-69430452D01*
X222819763Y-69223855D01*
X222837805Y-69174247D01*
X222838116Y-69173825D01*
X222838154Y-69173299D01*
X222858788Y-69145735D01*
X222879217Y-69117976D01*
X222879710Y-69117787D01*
X222880026Y-69117366D01*
X222912252Y-69105345D01*
X222944480Y-69093025D01*
X222944996Y-69093132D01*
X222945490Y-69092949D01*
X222979117Y-69100264D01*
X223012872Y-69107319D01*
X223013421Y-69107726D01*
X223013763Y-69107801D01*
X223042017Y-69128952D01*
X223058057Y-69144992D01*
X223091542Y-69206315D01*
X223086558Y-69276007D01*
X223084938Y-69280125D01*
X223052763Y-69357803D01*
X223052762Y-69357806D01*
X223052762Y-69357807D01*
X223052761Y-69357810D01*
X223022000Y-69512453D01*
X223022000Y-69670146D01*
X223052761Y-69824789D01*
X223052764Y-69824801D01*
X223113102Y-69970472D01*
X223113109Y-69970485D01*
X223200710Y-70101588D01*
X223200713Y-70101592D01*
X223312207Y-70213086D01*
X223312211Y-70213089D01*
X223443314Y-70300690D01*
X223443327Y-70300697D01*
X223563948Y-70350659D01*
X223589003Y-70361037D01*
X223736102Y-70390297D01*
X223743653Y-70391799D01*
X223743656Y-70391800D01*
X223743658Y-70391800D01*
X223901344Y-70391800D01*
X223901345Y-70391799D01*
X224055997Y-70361037D01*
X224201679Y-70300694D01*
X224332789Y-70213089D01*
X224444289Y-70101589D01*
X224531894Y-69970479D01*
X224592237Y-69824797D01*
X224623000Y-69670142D01*
X224623000Y-69512458D01*
X224623000Y-69512455D01*
X224622999Y-69512453D01*
X224592238Y-69357810D01*
X224592237Y-69357803D01*
X224560062Y-69280125D01*
X224531897Y-69212127D01*
X224531890Y-69212114D01*
X224443898Y-69080425D01*
X224425642Y-69036993D01*
X224423000Y-69024399D01*
X224423000Y-68981143D01*
X224382077Y-68828416D01*
X224382077Y-68828415D01*
X224311566Y-68706287D01*
X224303020Y-68691484D01*
X224303019Y-68691483D01*
X224303018Y-68691481D01*
X224186897Y-68575360D01*
X224186874Y-68575339D01*
X220415490Y-64803955D01*
X220415488Y-64803952D01*
X220296617Y-64685081D01*
X220296616Y-64685080D01*
X220209804Y-64634960D01*
X220209804Y-64634959D01*
X220209800Y-64634958D01*
X220159685Y-64606023D01*
X220006957Y-64565099D01*
X219848843Y-64565099D01*
X219841247Y-64565099D01*
X219841231Y-64565100D01*
X211973457Y-64565100D01*
X211815343Y-64565100D01*
X211662615Y-64606023D01*
X211662614Y-64606023D01*
X211662612Y-64606024D01*
X211662609Y-64606025D01*
X211612496Y-64634959D01*
X211612495Y-64634960D01*
X211569089Y-64660020D01*
X211525685Y-64685079D01*
X211525682Y-64685081D01*
X211413878Y-64796886D01*
X211224526Y-64986237D01*
X211163203Y-65019722D01*
X211110478Y-65019158D01*
X211110448Y-65019349D01*
X211109156Y-65019144D01*
X211107903Y-65019131D01*
X211105636Y-65018586D01*
X210936196Y-64991750D01*
X210909361Y-64987500D01*
X210710639Y-64987500D01*
X210645214Y-64997862D01*
X210514362Y-65018587D01*
X210325370Y-65079993D01*
X210325367Y-65079994D01*
X210148305Y-65170213D01*
X209987533Y-65287021D01*
X209847021Y-65427533D01*
X209730213Y-65588305D01*
X209650485Y-65744780D01*
X209602510Y-65795576D01*
X209534689Y-65812371D01*
X209468554Y-65789833D01*
X209429515Y-65744780D01*
X209410179Y-65706832D01*
X209349787Y-65588306D01*
X209232981Y-65427536D01*
X209092464Y-65287019D01*
X208931694Y-65170213D01*
X208754632Y-65079994D01*
X208754629Y-65079993D01*
X208565637Y-65018587D01*
X208467498Y-65003043D01*
X208369361Y-64987500D01*
X208170639Y-64987500D01*
X208105214Y-64997862D01*
X207974362Y-65018587D01*
X207785370Y-65079993D01*
X207785367Y-65079994D01*
X207608305Y-65170213D01*
X207447533Y-65287021D01*
X207307021Y-65427533D01*
X207190213Y-65588305D01*
X207110204Y-65745331D01*
X207062229Y-65796127D01*
X206994408Y-65812922D01*
X206928273Y-65790384D01*
X206889234Y-65745331D01*
X206809358Y-65588567D01*
X206782268Y-65551283D01*
X206111000Y-66222551D01*
X206111000Y-66199840D01*
X206085036Y-66102939D01*
X206034876Y-66016060D01*
X205963940Y-65945124D01*
X205877061Y-65894964D01*
X205780160Y-65869000D01*
X205757447Y-65869000D01*
X206428716Y-65197731D01*
X206428715Y-65197730D01*
X206391432Y-65170641D01*
X206214437Y-65080457D01*
X206025522Y-65019075D01*
X205829321Y-64988000D01*
X205630679Y-64988000D01*
X205434479Y-65019075D01*
X205434476Y-65019075D01*
X205245562Y-65080457D01*
X205068564Y-65170643D01*
X205031283Y-65197729D01*
X205031282Y-65197730D01*
X205702554Y-65869000D01*
X205679840Y-65869000D01*
X205582939Y-65894964D01*
X205496060Y-65945124D01*
X205425124Y-66016060D01*
X205374964Y-66102939D01*
X205349000Y-66199840D01*
X205349000Y-66222553D01*
X204677730Y-65551282D01*
X204677729Y-65551283D01*
X204650641Y-65588566D01*
X204570764Y-65745332D01*
X204522790Y-65796127D01*
X204454969Y-65812922D01*
X204388834Y-65790384D01*
X204349796Y-65745332D01*
X204269787Y-65588306D01*
X204152981Y-65427536D01*
X204012464Y-65287019D01*
X203851694Y-65170213D01*
X203674632Y-65079994D01*
X203674629Y-65079993D01*
X203485637Y-65018587D01*
X203387498Y-65003043D01*
X203289361Y-64987500D01*
X203090639Y-64987500D01*
X203025214Y-64997862D01*
X202894362Y-65018587D01*
X202705370Y-65079993D01*
X202705367Y-65079994D01*
X202528305Y-65170213D01*
X202367533Y-65287021D01*
X202227021Y-65427533D01*
X202110213Y-65588305D01*
X202030485Y-65744780D01*
X201982510Y-65795576D01*
X201914689Y-65812371D01*
X201848554Y-65789833D01*
X201809515Y-65744780D01*
X201790179Y-65706832D01*
X201729787Y-65588306D01*
X201612981Y-65427536D01*
X201472464Y-65287019D01*
X201311694Y-65170213D01*
X201134632Y-65079994D01*
X201134629Y-65079993D01*
X200945637Y-65018587D01*
X200847498Y-65003043D01*
X200749361Y-64987500D01*
X200550639Y-64987500D01*
X200485214Y-64997862D01*
X200354362Y-65018587D01*
X200165370Y-65079993D01*
X200165367Y-65079994D01*
X199988305Y-65170213D01*
X199827533Y-65287021D01*
X199687021Y-65427533D01*
X199570213Y-65588305D01*
X199479994Y-65765367D01*
X199479993Y-65765370D01*
X199418587Y-65954362D01*
X199387500Y-66150639D01*
X199387500Y-66349360D01*
X199418587Y-66545637D01*
X199479993Y-66734629D01*
X199479994Y-66734632D01*
X199516439Y-66806158D01*
X199570213Y-66911694D01*
X199687019Y-67072464D01*
X199827536Y-67212981D01*
X199988306Y-67329787D01*
X200075149Y-67374035D01*
X200165367Y-67420005D01*
X200165370Y-67420006D01*
X200219951Y-67437740D01*
X200354364Y-67481413D01*
X200550639Y-67512500D01*
X200550640Y-67512500D01*
X200749360Y-67512500D01*
X200749361Y-67512500D01*
X200945636Y-67481413D01*
X201134632Y-67420005D01*
X201311694Y-67329787D01*
X201472464Y-67212981D01*
X201612981Y-67072464D01*
X201729787Y-66911694D01*
X201809515Y-66755218D01*
X201857490Y-66704423D01*
X201925311Y-66687628D01*
X201991446Y-66710165D01*
X202030484Y-66755218D01*
X202110213Y-66911694D01*
X202227019Y-67072464D01*
X202367536Y-67212981D01*
X202528306Y-67329787D01*
X202615149Y-67374035D01*
X202705367Y-67420005D01*
X202705370Y-67420006D01*
X202759951Y-67437740D01*
X202894364Y-67481413D01*
X203090639Y-67512500D01*
X203090640Y-67512500D01*
X203289360Y-67512500D01*
X203289361Y-67512500D01*
X203485636Y-67481413D01*
X203485646Y-67481409D01*
X203487891Y-67480871D01*
X203488778Y-67480915D01*
X203490448Y-67480651D01*
X203490503Y-67481001D01*
X203557674Y-67484357D01*
X203604527Y-67513762D01*
X206580281Y-70489516D01*
X206613766Y-70550839D01*
X206616600Y-70577197D01*
X206616600Y-75859403D01*
X206596915Y-75926442D01*
X206580281Y-75947084D01*
X206397985Y-76129380D01*
X206336662Y-76162865D01*
X206310304Y-76165699D01*
X206249443Y-76165699D01*
X206142087Y-76194465D01*
X206096710Y-76206624D01*
X206096709Y-76206625D01*
X206046596Y-76235559D01*
X206046595Y-76235560D01*
X206003189Y-76260620D01*
X205959785Y-76285679D01*
X205959782Y-76285681D01*
X205847978Y-76397486D01*
X204223135Y-78022328D01*
X204161812Y-78055813D01*
X204092120Y-78050829D01*
X204047773Y-78022328D01*
X204012466Y-77987021D01*
X204012464Y-77987019D01*
X203851694Y-77870213D01*
X203827723Y-77857999D01*
X203674632Y-77779994D01*
X203674629Y-77779993D01*
X203485637Y-77718587D01*
X203387498Y-77703043D01*
X203289361Y-77687500D01*
X203090639Y-77687500D01*
X203025214Y-77697862D01*
X202894362Y-77718587D01*
X202705370Y-77779993D01*
X202705367Y-77779994D01*
X202528305Y-77870213D01*
X202367533Y-77987021D01*
X202227021Y-78127533D01*
X202110213Y-78288305D01*
X202030485Y-78444780D01*
X201982510Y-78495576D01*
X201914689Y-78512371D01*
X201848554Y-78489833D01*
X201809515Y-78444780D01*
X201769531Y-78366307D01*
X201729787Y-78288306D01*
X201612981Y-78127536D01*
X201472464Y-77987019D01*
X201311694Y-77870213D01*
X201287723Y-77857999D01*
X201134632Y-77779994D01*
X201134629Y-77779993D01*
X200945637Y-77718587D01*
X200847498Y-77703043D01*
X200749361Y-77687500D01*
X200550639Y-77687500D01*
X200485214Y-77697862D01*
X200354362Y-77718587D01*
X200165370Y-77779993D01*
X200165367Y-77779994D01*
X199988305Y-77870213D01*
X199827533Y-77987021D01*
X199687021Y-78127533D01*
X199570213Y-78288305D01*
X199479994Y-78465367D01*
X199479993Y-78465370D01*
X199418587Y-78654362D01*
X199387500Y-78850639D01*
X199387500Y-79049360D01*
X199418587Y-79245637D01*
X199479993Y-79434629D01*
X199479994Y-79434632D01*
X199556111Y-79584017D01*
X199570213Y-79611694D01*
X199687019Y-79772464D01*
X199827536Y-79912981D01*
X199988306Y-80029787D01*
X200075149Y-80074035D01*
X200165367Y-80120005D01*
X200165370Y-80120006D01*
X200259866Y-80150709D01*
X200354364Y-80181413D01*
X200550639Y-80212500D01*
X200550640Y-80212500D01*
X200749360Y-80212500D01*
X200749361Y-80212500D01*
X200945636Y-80181413D01*
X201134632Y-80120005D01*
X201311694Y-80029787D01*
X201472464Y-79912981D01*
X201612981Y-79772464D01*
X201729787Y-79611694D01*
X201809515Y-79455218D01*
X201857490Y-79404423D01*
X201925311Y-79387628D01*
X201991446Y-79410165D01*
X202030484Y-79455218D01*
X202110213Y-79611694D01*
X202227019Y-79772464D01*
X202367536Y-79912981D01*
X202528306Y-80029787D01*
X202615149Y-80074035D01*
X202705367Y-80120005D01*
X202705370Y-80120006D01*
X202799866Y-80150709D01*
X202894364Y-80181413D01*
X203090639Y-80212500D01*
X203090640Y-80212500D01*
X203289360Y-80212500D01*
X203289361Y-80212500D01*
X203485636Y-80181413D01*
X203534184Y-80165638D01*
X203604022Y-80163643D01*
X203663855Y-80199723D01*
X203694684Y-80262424D01*
X203696500Y-80283570D01*
X203696500Y-81672901D01*
X203687855Y-81702341D01*
X203681332Y-81732328D01*
X203677577Y-81737343D01*
X203676815Y-81739940D01*
X203660181Y-81760582D01*
X203634526Y-81786237D01*
X203573203Y-81819722D01*
X203520478Y-81819158D01*
X203520448Y-81819349D01*
X203519156Y-81819144D01*
X203517903Y-81819131D01*
X203515636Y-81818586D01*
X203346196Y-81791750D01*
X203319361Y-81787500D01*
X203120639Y-81787500D01*
X203055214Y-81797862D01*
X202924362Y-81818587D01*
X202735370Y-81879993D01*
X202735367Y-81879994D01*
X202558305Y-81970213D01*
X202397533Y-82087021D01*
X202257021Y-82227533D01*
X202140213Y-82388305D01*
X202060485Y-82544780D01*
X202012510Y-82595576D01*
X201944689Y-82612371D01*
X201878554Y-82589833D01*
X201839515Y-82544780D01*
X201793015Y-82453520D01*
X201759787Y-82388306D01*
X201642981Y-82227536D01*
X201502464Y-82087019D01*
X201341694Y-81970213D01*
X201330005Y-81964257D01*
X201164632Y-81879994D01*
X201164629Y-81879993D01*
X200975637Y-81818587D01*
X200877498Y-81803043D01*
X200779361Y-81787500D01*
X200580639Y-81787500D01*
X200515214Y-81797862D01*
X200384362Y-81818587D01*
X200195370Y-81879993D01*
X200195367Y-81879994D01*
X200018305Y-81970213D01*
X199857533Y-82087021D01*
X199717021Y-82227533D01*
X199600213Y-82388305D01*
X199509994Y-82565367D01*
X199509993Y-82565370D01*
X199448587Y-82754362D01*
X199417500Y-82950639D01*
X199417500Y-83149360D01*
X199448587Y-83345637D01*
X199509993Y-83534629D01*
X199509994Y-83534632D01*
X199600074Y-83711422D01*
X199600213Y-83711694D01*
X199717019Y-83872464D01*
X199857536Y-84012981D01*
X200018306Y-84129787D01*
X200105149Y-84174035D01*
X200195367Y-84220005D01*
X200195370Y-84220006D01*
X200273449Y-84245375D01*
X200384364Y-84281413D01*
X200580639Y-84312500D01*
X200580640Y-84312500D01*
X200779360Y-84312500D01*
X200779361Y-84312500D01*
X200975636Y-84281413D01*
X201164632Y-84220005D01*
X201341694Y-84129787D01*
X201502464Y-84012981D01*
X201642981Y-83872464D01*
X201759787Y-83711694D01*
X201839515Y-83555218D01*
X201887490Y-83504423D01*
X201955311Y-83487628D01*
X202021446Y-83510165D01*
X202060484Y-83555218D01*
X202140213Y-83711694D01*
X202257019Y-83872464D01*
X202397536Y-84012981D01*
X202558306Y-84129787D01*
X202645149Y-84174035D01*
X202735367Y-84220005D01*
X202735370Y-84220006D01*
X202813449Y-84245375D01*
X202924364Y-84281413D01*
X203120639Y-84312500D01*
X203120640Y-84312500D01*
X203319360Y-84312500D01*
X203319361Y-84312500D01*
X203515636Y-84281413D01*
X203704632Y-84220005D01*
X203881694Y-84129787D01*
X204042464Y-84012981D01*
X204182981Y-83872464D01*
X204299787Y-83711694D01*
X204379796Y-83554667D01*
X204427769Y-83503872D01*
X204495590Y-83487077D01*
X204561725Y-83509614D01*
X204600765Y-83554668D01*
X204680641Y-83711432D01*
X204707730Y-83748715D01*
X205379000Y-83077445D01*
X205379000Y-83100160D01*
X205404964Y-83197061D01*
X205455124Y-83283940D01*
X205526060Y-83354876D01*
X205612939Y-83405036D01*
X205709840Y-83431000D01*
X205732553Y-83431000D01*
X205061283Y-84102268D01*
X205061283Y-84102269D01*
X205098567Y-84129358D01*
X205275562Y-84219542D01*
X205464477Y-84280924D01*
X205660679Y-84312000D01*
X205859321Y-84312000D01*
X206055520Y-84280924D01*
X206055523Y-84280924D01*
X206244437Y-84219542D01*
X206421425Y-84129362D01*
X206458716Y-84102268D01*
X205787448Y-83431000D01*
X205810160Y-83431000D01*
X205907061Y-83405036D01*
X205993940Y-83354876D01*
X206064876Y-83283940D01*
X206115036Y-83197061D01*
X206141000Y-83100160D01*
X206141000Y-83077447D01*
X206812268Y-83748715D01*
X206839364Y-83711422D01*
X206919234Y-83554669D01*
X206967208Y-83503872D01*
X207035029Y-83487077D01*
X207101164Y-83509614D01*
X207140203Y-83554667D01*
X207220213Y-83711694D01*
X207337019Y-83872464D01*
X207477536Y-84012981D01*
X207638306Y-84129787D01*
X207725149Y-84174035D01*
X207815367Y-84220005D01*
X207815370Y-84220006D01*
X207893449Y-84245375D01*
X208004364Y-84281413D01*
X208200639Y-84312500D01*
X208200640Y-84312500D01*
X208399360Y-84312500D01*
X208399361Y-84312500D01*
X208595636Y-84281413D01*
X208784632Y-84220005D01*
X208961694Y-84129787D01*
X209122464Y-84012981D01*
X209262981Y-83872464D01*
X209379787Y-83711694D01*
X209459515Y-83555218D01*
X209507490Y-83504423D01*
X209575311Y-83487628D01*
X209641446Y-83510165D01*
X209680484Y-83555218D01*
X209760213Y-83711694D01*
X209877019Y-83872464D01*
X210017536Y-84012981D01*
X210178306Y-84129787D01*
X210265149Y-84174035D01*
X210355367Y-84220005D01*
X210355370Y-84220006D01*
X210433449Y-84245375D01*
X210544364Y-84281413D01*
X210740639Y-84312500D01*
X210740640Y-84312500D01*
X210939360Y-84312500D01*
X210939361Y-84312500D01*
X211135636Y-84281413D01*
X211324632Y-84220005D01*
X211501694Y-84129787D01*
X211662464Y-84012981D01*
X211802981Y-83872464D01*
X211919787Y-83711694D01*
X211999796Y-83554667D01*
X212047769Y-83503872D01*
X212115590Y-83487077D01*
X212181725Y-83509614D01*
X212220765Y-83554668D01*
X212300641Y-83711432D01*
X212327730Y-83748715D01*
X212327731Y-83748716D01*
X212999000Y-83077447D01*
X212999000Y-83100160D01*
X213024964Y-83197061D01*
X213075124Y-83283940D01*
X213146060Y-83354876D01*
X213232939Y-83405036D01*
X213329840Y-83431000D01*
X213352553Y-83431000D01*
X212681283Y-84102268D01*
X212681283Y-84102269D01*
X212718567Y-84129358D01*
X212895562Y-84219542D01*
X213084477Y-84280924D01*
X213280679Y-84312000D01*
X213479321Y-84312000D01*
X213675520Y-84280924D01*
X213675523Y-84280924D01*
X213864437Y-84219542D01*
X214041425Y-84129362D01*
X214078716Y-84102268D01*
X213407448Y-83431000D01*
X213430160Y-83431000D01*
X213527061Y-83405036D01*
X213613940Y-83354876D01*
X213684876Y-83283940D01*
X213735036Y-83197061D01*
X213761000Y-83100160D01*
X213761000Y-83077447D01*
X214432268Y-83748715D01*
X214459364Y-83711422D01*
X214539234Y-83554669D01*
X214587208Y-83503872D01*
X214655029Y-83487077D01*
X214721164Y-83509614D01*
X214760203Y-83554667D01*
X214840213Y-83711694D01*
X214957019Y-83872464D01*
X215097536Y-84012981D01*
X215258306Y-84129787D01*
X215345149Y-84174035D01*
X215435367Y-84220005D01*
X215435370Y-84220006D01*
X215513449Y-84245375D01*
X215624364Y-84281413D01*
X215820639Y-84312500D01*
X215820640Y-84312500D01*
X216019360Y-84312500D01*
X216019361Y-84312500D01*
X216189125Y-84285612D01*
X216220448Y-84280651D01*
X216220751Y-84282567D01*
X216282303Y-84285612D01*
X216339143Y-84326244D01*
X216364993Y-84391157D01*
X216351645Y-84459739D01*
X216307624Y-84507637D01*
X211250324Y-87693338D01*
X211250322Y-87693339D01*
X211072643Y-87848929D01*
X210921480Y-88030410D01*
X210800574Y-88233292D01*
X210712892Y-88452603D01*
X210660596Y-88682922D01*
X210660595Y-88682925D01*
X210656570Y-88743655D01*
X210632495Y-88809245D01*
X210576780Y-88851408D01*
X210507115Y-88856755D01*
X210445619Y-88823590D01*
X210445161Y-88823134D01*
X207577511Y-85955484D01*
X207522032Y-85915176D01*
X207386434Y-85816657D01*
X207175996Y-85709433D01*
X206951368Y-85636446D01*
X206718097Y-85599500D01*
X206718092Y-85599500D01*
X200520310Y-85599500D01*
X200453271Y-85579815D01*
X200422370Y-85551552D01*
X199801170Y-84751568D01*
X198575726Y-83173435D01*
X198575724Y-83173433D01*
X197837573Y-82222838D01*
X197837573Y-82222837D01*
X197836056Y-82220883D01*
X197784860Y-82149213D01*
X197763721Y-82127731D01*
X197745236Y-82103926D01*
X196022818Y-79885789D01*
X195999036Y-79833392D01*
X194511262Y-72176502D01*
X194993955Y-72176502D01*
X195000965Y-72412565D01*
X195000965Y-72412571D01*
X196197520Y-78744651D01*
X196235471Y-78850639D01*
X196277140Y-78967012D01*
X196390565Y-79174178D01*
X196447416Y-79247732D01*
X196535002Y-79361053D01*
X196706888Y-79523024D01*
X196902002Y-79656118D01*
X197115538Y-79757053D01*
X197342222Y-79823336D01*
X197342224Y-79823336D01*
X197342227Y-79823337D01*
X197576496Y-79853344D01*
X197576500Y-79853343D01*
X197576502Y-79853344D01*
X197659818Y-79850869D01*
X197812576Y-79846334D01*
X198044653Y-79802479D01*
X198267012Y-79722860D01*
X198474178Y-79609435D01*
X198661050Y-79465000D01*
X198823026Y-79293109D01*
X198956119Y-79097996D01*
X199057051Y-78884464D01*
X199057052Y-78884461D01*
X199123336Y-78657778D01*
X199123336Y-78657775D01*
X199123337Y-78657773D01*
X199153344Y-78423504D01*
X199151846Y-78373069D01*
X199149514Y-78294513D01*
X199146334Y-78187424D01*
X197949779Y-71855347D01*
X197870160Y-71632988D01*
X197756735Y-71425822D01*
X197612300Y-71238951D01*
X197612297Y-71238947D01*
X197490463Y-71124141D01*
X197440409Y-71076974D01*
X197440406Y-71076972D01*
X197440404Y-71076970D01*
X197245299Y-70943882D01*
X197031761Y-70842947D01*
X196805076Y-70776663D01*
X196570805Y-70746656D01*
X196570797Y-70746655D01*
X196334734Y-70753665D01*
X196334728Y-70753665D01*
X196102648Y-70797520D01*
X195880285Y-70877141D01*
X195673122Y-70990565D01*
X195486247Y-71135002D01*
X195324270Y-71306895D01*
X195191182Y-71502000D01*
X195090247Y-71715538D01*
X195023963Y-71942221D01*
X195023963Y-71942224D01*
X194993956Y-72176494D01*
X194993955Y-72176502D01*
X194511262Y-72176502D01*
X194475433Y-71992106D01*
X194474685Y-71987859D01*
X194460554Y-71898637D01*
X194460552Y-71898629D01*
X194454734Y-71880724D01*
X194454733Y-71880722D01*
X194452388Y-71873505D01*
X194447428Y-71847974D01*
X194416286Y-71762394D01*
X194387568Y-71674008D01*
X194375517Y-71650358D01*
X194366664Y-71626027D01*
X194322731Y-71546756D01*
X194321752Y-71544835D01*
X194321740Y-71544813D01*
X194280344Y-71463569D01*
X194280343Y-71463567D01*
X194269124Y-71448127D01*
X194263287Y-71439325D01*
X194262106Y-71437369D01*
X194252175Y-71419448D01*
X194248290Y-71414475D01*
X194244435Y-71408087D01*
X194242616Y-71401180D01*
X194232893Y-71383018D01*
X194232114Y-71380667D01*
X194232114Y-71380666D01*
X194140012Y-71231344D01*
X194015956Y-71107288D01*
X193866634Y-71015186D01*
X193866633Y-71015185D01*
X193866632Y-71015185D01*
X193854757Y-71011250D01*
X193826364Y-70997628D01*
X193823575Y-70995821D01*
X193783433Y-70966657D01*
X193760463Y-70954953D01*
X193755080Y-70951467D01*
X193754835Y-70951183D01*
X193753138Y-70950183D01*
X193738261Y-70940147D01*
X193738262Y-70940147D01*
X193659220Y-70903282D01*
X193655340Y-70901389D01*
X193572996Y-70859433D01*
X193572992Y-70859431D01*
X193554522Y-70853429D01*
X193554522Y-70853430D01*
X193547301Y-70851083D01*
X193524212Y-70840315D01*
X193438450Y-70815716D01*
X193436390Y-70815046D01*
X193348371Y-70786448D01*
X193348368Y-70786447D01*
X193348366Y-70786446D01*
X193348353Y-70786443D01*
X193329141Y-70783400D01*
X193321640Y-70782212D01*
X193297183Y-70775198D01*
X193208749Y-70764332D01*
X193206568Y-70763987D01*
X193115098Y-70749500D01*
X193115092Y-70749500D01*
X193088018Y-70749500D01*
X193062762Y-70746397D01*
X192973723Y-70749500D01*
X192878908Y-70749500D01*
X192878905Y-70749500D01*
X192859649Y-70752549D01*
X192852153Y-70753736D01*
X192826721Y-70754623D01*
X192739237Y-70771621D01*
X192645632Y-70786447D01*
X192645627Y-70786448D01*
X192645621Y-70786450D01*
X192627106Y-70792464D01*
X192627107Y-70792465D01*
X192619884Y-70794811D01*
X192594874Y-70799672D01*
X192511065Y-70830168D01*
X192508988Y-70830843D01*
X192508990Y-70830843D01*
X192421004Y-70859433D01*
X192403682Y-70868257D01*
X192403683Y-70868258D01*
X192396916Y-70871705D01*
X192372927Y-70880436D01*
X192294757Y-70923758D01*
X192292823Y-70924744D01*
X192292821Y-70924744D01*
X192210566Y-70966656D01*
X192194876Y-70978056D01*
X192186404Y-70983695D01*
X192184274Y-70984989D01*
X192166348Y-70994925D01*
X192160794Y-70999262D01*
X192154589Y-71003035D01*
X192147698Y-71004872D01*
X192134438Y-71011971D01*
X192134514Y-71012132D01*
X192131600Y-71013490D01*
X192129198Y-71014777D01*
X192127969Y-71015184D01*
X192127968Y-71015184D01*
X191978644Y-71107287D01*
X191854589Y-71231342D01*
X191762486Y-71380665D01*
X191762485Y-71380667D01*
X191758981Y-71391239D01*
X191745292Y-71419730D01*
X191743503Y-71422485D01*
X191713657Y-71463567D01*
X191702028Y-71486388D01*
X191698499Y-71491827D01*
X191698230Y-71492057D01*
X191697284Y-71493664D01*
X191687043Y-71508845D01*
X191649645Y-71589027D01*
X191647754Y-71592905D01*
X191606434Y-71674003D01*
X191606433Y-71674005D01*
X191606432Y-71674008D01*
X191598208Y-71699316D01*
X191587215Y-71722888D01*
X191562112Y-71810404D01*
X191561439Y-71812478D01*
X191533446Y-71898632D01*
X191533445Y-71898637D01*
X191530487Y-71917304D01*
X191530488Y-71917305D01*
X191529300Y-71924801D01*
X191522098Y-71949917D01*
X191510939Y-72040740D01*
X191510597Y-72042900D01*
X191510595Y-72042903D01*
X191496500Y-72131902D01*
X191496500Y-72131908D01*
X191496500Y-72158267D01*
X191493297Y-72184338D01*
X191496500Y-72276246D01*
X191496500Y-72368193D01*
X191499420Y-72386628D01*
X191500872Y-72401706D01*
X191501523Y-72420385D01*
X191518649Y-72508523D01*
X191518650Y-72508523D01*
X191519062Y-72510644D01*
X191533447Y-72601468D01*
X191541562Y-72626446D01*
X191543010Y-72633896D01*
X191543009Y-72633898D01*
X193126572Y-80783756D01*
X193126606Y-80784116D01*
X193126640Y-80784110D01*
X193148412Y-80897921D01*
X193149062Y-80900291D01*
X193149061Y-80900293D01*
X193149071Y-80900326D01*
X193149541Y-80902042D01*
X193149572Y-80902127D01*
X193189233Y-81011119D01*
X193228534Y-81120102D01*
X193229584Y-81122010D01*
X193230335Y-81124073D01*
X193285183Y-81223038D01*
X193286579Y-81225556D01*
X193342424Y-81327012D01*
X193342428Y-81327017D01*
X193343764Y-81329049D01*
X193343764Y-81329050D01*
X193344777Y-81330591D01*
X193344825Y-81330652D01*
X193415949Y-81421699D01*
X193416087Y-81422047D01*
X193416171Y-81421983D01*
X194561365Y-82896771D01*
X194586934Y-82961795D01*
X194573289Y-83030319D01*
X194550398Y-83061207D01*
X193825270Y-83774759D01*
X193763679Y-83807749D01*
X193724414Y-83809595D01*
X193634815Y-83799500D01*
X193634809Y-83799500D01*
X193365191Y-83799500D01*
X193365186Y-83799500D01*
X193097280Y-83829686D01*
X193097268Y-83829688D01*
X192834405Y-83889684D01*
X192834397Y-83889687D01*
X192579917Y-83978734D01*
X192337005Y-84095714D01*
X192108712Y-84239161D01*
X191897915Y-84407265D01*
X191707265Y-84597915D01*
X191539161Y-84808712D01*
X191395714Y-85037005D01*
X191278734Y-85279917D01*
X191189687Y-85534397D01*
X191189684Y-85534405D01*
X191129688Y-85797268D01*
X191129686Y-85797280D01*
X191099500Y-86065186D01*
X187171401Y-86065186D01*
X186921234Y-84751568D01*
X186780499Y-84102268D01*
X186609879Y-83315091D01*
X186262340Y-81886927D01*
X185878841Y-80467995D01*
X185459625Y-79059202D01*
X185252685Y-78422986D01*
X185252685Y-78422975D01*
X185234241Y-78366277D01*
X185230975Y-78354174D01*
X185213571Y-78273696D01*
X185210776Y-78248728D01*
X185210438Y-78214647D01*
X185699509Y-78214647D01*
X185699509Y-78503090D01*
X185699510Y-78503107D01*
X185737158Y-78789075D01*
X185737159Y-78789080D01*
X185737160Y-78789086D01*
X185809534Y-79059189D01*
X185811818Y-79067713D01*
X185811823Y-79067729D01*
X185922200Y-79334205D01*
X185922208Y-79334221D01*
X186066429Y-79584017D01*
X186066440Y-79584033D01*
X186242033Y-79812871D01*
X186242039Y-79812878D01*
X186445999Y-80016838D01*
X186446006Y-80016844D01*
X186580450Y-80120006D01*
X186674853Y-80192444D01*
X186674860Y-80192448D01*
X186924656Y-80336669D01*
X186924672Y-80336677D01*
X187191148Y-80447054D01*
X187191154Y-80447055D01*
X187191164Y-80447060D01*
X187469792Y-80521718D01*
X187755781Y-80559369D01*
X187755788Y-80559369D01*
X188044230Y-80559369D01*
X188044237Y-80559369D01*
X188330226Y-80521718D01*
X188608854Y-80447060D01*
X188608866Y-80447054D01*
X188608869Y-80447054D01*
X188875345Y-80336677D01*
X188875348Y-80336675D01*
X188875354Y-80336673D01*
X189125165Y-80192444D01*
X189354013Y-80016843D01*
X189557983Y-79812873D01*
X189733584Y-79584025D01*
X189877813Y-79334214D01*
X189894839Y-79293111D01*
X189988194Y-79067729D01*
X189988194Y-79067726D01*
X189988200Y-79067714D01*
X190062858Y-78789086D01*
X190100509Y-78503097D01*
X190100509Y-78214641D01*
X190062858Y-77928652D01*
X189988200Y-77650024D01*
X189988195Y-77650014D01*
X189988194Y-77650008D01*
X189877817Y-77383532D01*
X189877809Y-77383516D01*
X189733588Y-77133720D01*
X189733584Y-77133713D01*
X189557983Y-76904865D01*
X189557978Y-76904859D01*
X189354018Y-76700899D01*
X189354011Y-76700893D01*
X189125173Y-76525300D01*
X189125171Y-76525298D01*
X189125165Y-76525294D01*
X189125160Y-76525291D01*
X189125157Y-76525289D01*
X188875361Y-76381068D01*
X188875345Y-76381060D01*
X188608869Y-76270683D01*
X188608857Y-76270679D01*
X188608854Y-76270678D01*
X188330226Y-76196020D01*
X188330220Y-76196019D01*
X188330215Y-76196018D01*
X188044247Y-76158370D01*
X188044242Y-76158369D01*
X188044237Y-76158369D01*
X187755781Y-76158369D01*
X187755775Y-76158369D01*
X187755770Y-76158370D01*
X187469802Y-76196018D01*
X187469795Y-76196019D01*
X187469792Y-76196020D01*
X187322223Y-76235561D01*
X187191164Y-76270678D01*
X187191148Y-76270683D01*
X186924672Y-76381060D01*
X186924656Y-76381068D01*
X186674860Y-76525289D01*
X186674844Y-76525300D01*
X186446006Y-76700893D01*
X186445999Y-76700899D01*
X186242039Y-76904859D01*
X186242033Y-76904866D01*
X186066440Y-77133704D01*
X186066429Y-77133720D01*
X185922208Y-77383516D01*
X185922200Y-77383532D01*
X185811823Y-77650008D01*
X185811818Y-77650024D01*
X185756092Y-77857999D01*
X185737161Y-77928649D01*
X185737158Y-77928662D01*
X185699510Y-78214630D01*
X185699509Y-78214647D01*
X185210438Y-78214647D01*
X185210022Y-78172732D01*
X185212321Y-78147709D01*
X185226906Y-78073136D01*
X185234205Y-78049086D01*
X185254616Y-78000292D01*
X185265942Y-77973215D01*
X185271378Y-77961874D01*
X185284052Y-77938549D01*
X190836135Y-67720208D01*
X190839851Y-67713368D01*
X190863394Y-67670037D01*
X190870284Y-67658825D01*
X190919354Y-67587748D01*
X190936547Y-67567777D01*
X190994676Y-67513244D01*
X191015708Y-67497355D01*
X191059950Y-67470809D01*
X191076301Y-67462575D01*
X191078173Y-67461798D01*
X191078187Y-67461795D01*
X191110994Y-67442852D01*
X191120847Y-67437740D01*
X191155205Y-67421821D01*
X191155206Y-67421819D01*
X191165094Y-67417238D01*
X191165116Y-67417224D01*
X220361692Y-53888170D01*
X220361696Y-53888170D01*
X220415182Y-53863384D01*
X220428053Y-53858276D01*
X220514354Y-53829511D01*
X220541497Y-53823739D01*
X220625024Y-53815584D01*
X220652778Y-53815996D01*
G37*
%TD.AperFunction*%
%TD*%
M02*
