%TF.GenerationSoftware,KiCad,Pcbnew,9.0.7*%
%TF.CreationDate,2026-02-20T22:23:55+09:00*%
%TF.ProjectId,MOTOR,4d4f544f-522e-46b6-9963-61645f706362,rev?*%
%TF.SameCoordinates,Original*%
%TF.FileFunction,Copper,L1,Top*%
%TF.FilePolarity,Positive*%
%FSLAX46Y46*%
G04 Gerber Fmt 4.6, Leading zero omitted, Abs format (unit mm)*
G04 Created by KiCad (PCBNEW 9.0.7) date 2026-02-20 22:23:55*
%MOMM*%
%LPD*%
G01*
G04 APERTURE LIST*
G04 Aperture macros list*
%AMRoundRect*
0 Rectangle with rounded corners*
0 $1 Rounding radius*
0 $2 $3 $4 $5 $6 $7 $8 $9 X,Y pos of 4 corners*
0 Add a 4 corners polygon primitive as box body*
4,1,4,$2,$3,$4,$5,$6,$7,$8,$9,$2,$3,0*
0 Add four circle primitives for the rounded corners*
1,1,$1+$1,$2,$3*
1,1,$1+$1,$4,$5*
1,1,$1+$1,$6,$7*
1,1,$1+$1,$8,$9*
0 Add four rect primitives between the rounded corners*
20,1,$1+$1,$2,$3,$4,$5,0*
20,1,$1+$1,$4,$5,$6,$7,0*
20,1,$1+$1,$6,$7,$8,$9,0*
20,1,$1+$1,$8,$9,$2,$3,0*%
G04 Aperture macros list end*
%TA.AperFunction,ComponentPad*%
%ADD10C,1.524000*%
%TD*%
%TA.AperFunction,ComponentPad*%
%ADD11RoundRect,0.250000X0.750000X-0.600000X0.750000X0.600000X-0.750000X0.600000X-0.750000X-0.600000X0*%
%TD*%
%TA.AperFunction,ComponentPad*%
%ADD12O,2.000000X1.700000*%
%TD*%
%TA.AperFunction,ComponentPad*%
%ADD13RoundRect,0.250000X-0.550000X-0.550000X0.550000X-0.550000X0.550000X0.550000X-0.550000X0.550000X0*%
%TD*%
%TA.AperFunction,ComponentPad*%
%ADD14C,1.600000*%
%TD*%
%TA.AperFunction,ComponentPad*%
%ADD15C,1.701800*%
%TD*%
%TA.AperFunction,ComponentPad*%
%ADD16RoundRect,0.760000X1.140000X-1.140000X1.140000X1.140000X-1.140000X1.140000X-1.140000X-1.140000X0*%
%TD*%
%TA.AperFunction,ComponentPad*%
%ADD17C,3.800000*%
%TD*%
%TA.AperFunction,ViaPad*%
%ADD18C,0.600000*%
%TD*%
%TA.AperFunction,Conductor*%
%ADD19C,0.200000*%
%TD*%
%TA.AperFunction,Conductor*%
%ADD20C,2.000000*%
%TD*%
G04 APERTURE END LIST*
D10*
%TO.P,U3,1,VM*%
%TO.N,unconnected-(U3-VM-Pad1)*%
X215990000Y-99250000D03*
%TO.P,U3,2,GND*%
%TO.N,GND*%
X213450000Y-99250000D03*
%TO.P,U3,3,EN/IN1*%
%TO.N,PWM_M3*%
X210910000Y-99250000D03*
%TO.P,U3,4,PH/IN2*%
%TO.N,PWM_M3_2*%
X208370000Y-99250000D03*
%TO.P,U3,5,PMODE*%
%TO.N,GND*%
X205830000Y-99250000D03*
%TO.P,U3,6,SLEEP*%
%TO.N,3.3V*%
X203290000Y-99250000D03*
%TO.P,U3,7,VREF*%
%TO.N,unconnected-(U3-VREF-Pad7)*%
X200750000Y-99250000D03*
%TO.P,U3,8,VIN*%
%TO.N,Vin*%
X215990000Y-111950000D03*
%TO.P,U3,9,GND*%
%TO.N,GND_2*%
X213450000Y-111950000D03*
%TO.P,U3,10,OUT1*%
%TO.N,M3+*%
X210910000Y-111950000D03*
%TO.P,U3,11,OUT2*%
%TO.N,M3-*%
X208370000Y-111950000D03*
%TO.P,U3,12,IMODE*%
%TO.N,unconnected-(U3-IMODE-Pad12)*%
X205830000Y-111950000D03*
%TO.P,U3,13,FAULT*%
%TO.N,unconnected-(U3-FAULT-Pad13)*%
X203290000Y-111950000D03*
%TO.P,U3,14,CS*%
%TO.N,unconnected-(U3-CS-Pad14)*%
X200750000Y-111950000D03*
%TD*%
D11*
%TO.P,J7,1,Pin_1*%
%TO.N,M3+*%
X221900000Y-114700000D03*
D12*
%TO.P,J7,2,Pin_2*%
%TO.N,M3-*%
X221900000Y-112200000D03*
%TD*%
D13*
%TO.P,C2,1*%
%TO.N,Vin*%
X192447300Y-100150000D03*
D14*
%TO.P,C2,2*%
%TO.N,GND_2*%
X195947300Y-100150000D03*
%TD*%
D11*
%TO.P,J8,1,Pin_1*%
%TO.N,M4+*%
X221400000Y-124350000D03*
D12*
%TO.P,J8,2,Pin_2*%
%TO.N,M4-*%
X221400000Y-121850000D03*
%TD*%
D10*
%TO.P,U4,1,VM*%
%TO.N,unconnected-(U4-VM-Pad1)*%
X216020000Y-115350000D03*
%TO.P,U4,2,GND*%
%TO.N,GND*%
X213480000Y-115350000D03*
%TO.P,U4,3,EN/IN1*%
%TO.N,PWM_M4*%
X210940000Y-115350000D03*
%TO.P,U4,4,PH/IN2*%
%TO.N,PWM_M4_2*%
X208400000Y-115350000D03*
%TO.P,U4,5,PMODE*%
%TO.N,GND*%
X205860000Y-115350000D03*
%TO.P,U4,6,SLEEP*%
%TO.N,3.3V*%
X203320000Y-115350000D03*
%TO.P,U4,7,VREF*%
%TO.N,unconnected-(U4-VREF-Pad7)*%
X200780000Y-115350000D03*
%TO.P,U4,8,VIN*%
%TO.N,Vin*%
X216020000Y-128050000D03*
%TO.P,U4,9,GND*%
%TO.N,GND_2*%
X213480000Y-128050000D03*
%TO.P,U4,10,OUT1*%
%TO.N,M4+*%
X210940000Y-128050000D03*
%TO.P,U4,11,OUT2*%
%TO.N,M4-*%
X208400000Y-128050000D03*
%TO.P,U4,12,IMODE*%
%TO.N,unconnected-(U4-IMODE-Pad12)*%
X205860000Y-128050000D03*
%TO.P,U4,13,FAULT*%
%TO.N,unconnected-(U4-FAULT-Pad13)*%
X203320000Y-128050000D03*
%TO.P,U4,14,CS*%
%TO.N,unconnected-(U4-CS-Pad14)*%
X200780000Y-128050000D03*
%TD*%
D13*
%TO.P,C3,1*%
%TO.N,Vin*%
X192797300Y-109500000D03*
D14*
%TO.P,C3,2*%
%TO.N,GND_2*%
X196297300Y-109500000D03*
%TD*%
D13*
%TO.P,C1,1*%
%TO.N,Vin*%
X192997300Y-72250000D03*
D14*
%TO.P,C1,2*%
%TO.N,GND_2*%
X196497300Y-72250000D03*
%TD*%
D15*
%TO.P,J11,1,Pin_1*%
%TO.N,PWM_M2_2*%
X225100000Y-101530000D03*
%TO.P,J11,2,Pin_2*%
%TO.N,GND*%
X222560000Y-101530000D03*
%TO.P,J11,3,Pin_3*%
%TO.N,PWM_M3*%
X225100000Y-98990000D03*
%TO.P,J11,4,Pin_4*%
%TO.N,3.3V*%
X222560000Y-98990000D03*
%TO.P,J11,5,Pin_5*%
%TO.N,PWM_M3_2*%
X225100000Y-96450000D03*
%TO.P,J11,6,Pin_6*%
%TO.N,PWM_M1*%
X222560000Y-96450000D03*
%TO.P,J11,7,Pin_7*%
%TO.N,PWM_M4*%
X225100000Y-93910000D03*
%TO.P,J11,8,Pin_8*%
%TO.N,PWM_M1_2*%
X222560000Y-93910000D03*
%TO.P,J11,9,Pin_9*%
%TO.N,PWM_M4_2*%
X225100000Y-91370000D03*
%TO.P,J11,10,Pin_10*%
%TO.N,PWM_M2*%
X222560000Y-91370000D03*
%TD*%
D10*
%TO.P,U1,1,VM*%
%TO.N,unconnected-(U1-VM-Pad1)*%
X215890000Y-66250000D03*
%TO.P,U1,2,GND*%
%TO.N,GND*%
X213350000Y-66250000D03*
%TO.P,U1,3,EN/IN1*%
%TO.N,PWM_M1*%
X210810000Y-66250000D03*
%TO.P,U1,4,PH/IN2*%
%TO.N,PWM_M1_2*%
X208270000Y-66250000D03*
%TO.P,U1,5,PMODE*%
%TO.N,GND*%
X205730000Y-66250000D03*
%TO.P,U1,6,SLEEP*%
%TO.N,3.3V*%
X203190000Y-66250000D03*
%TO.P,U1,7,VREF*%
%TO.N,unconnected-(U1-VREF-Pad7)*%
X200650000Y-66250000D03*
%TO.P,U1,8,VIN*%
%TO.N,Vin*%
X215890000Y-78950000D03*
%TO.P,U1,9,GND*%
%TO.N,GND_2*%
X213350000Y-78950000D03*
%TO.P,U1,10,OUT1*%
%TO.N,M1+*%
X210810000Y-78950000D03*
%TO.P,U1,11,OUT2*%
%TO.N,M1-*%
X208270000Y-78950000D03*
%TO.P,U1,12,IMODE*%
%TO.N,unconnected-(U1-IMODE-Pad12)*%
X205730000Y-78950000D03*
%TO.P,U1,13,FAULT*%
%TO.N,unconnected-(U1-FAULT-Pad13)*%
X203190000Y-78950000D03*
%TO.P,U1,14,CS*%
%TO.N,unconnected-(U1-CS-Pad14)*%
X200650000Y-78950000D03*
%TD*%
D13*
%TO.P,C4,1*%
%TO.N,Vin*%
X192747300Y-119800000D03*
D14*
%TO.P,C4,2*%
%TO.N,GND_2*%
X196247300Y-119800000D03*
%TD*%
D10*
%TO.P,U2,1,VM*%
%TO.N,unconnected-(U2-VM-Pad1)*%
X215920000Y-83050000D03*
%TO.P,U2,2,GND*%
%TO.N,GND*%
X213380000Y-83050000D03*
%TO.P,U2,3,EN/IN1*%
%TO.N,PWM_M2*%
X210840000Y-83050000D03*
%TO.P,U2,4,PH/IN2*%
%TO.N,PWM_M2_2*%
X208300000Y-83050000D03*
%TO.P,U2,5,PMODE*%
%TO.N,GND*%
X205760000Y-83050000D03*
%TO.P,U2,6,SLEEP*%
%TO.N,3.3V*%
X203220000Y-83050000D03*
%TO.P,U2,7,VREF*%
%TO.N,unconnected-(U2-VREF-Pad7)*%
X200680000Y-83050000D03*
%TO.P,U2,8,VIN*%
%TO.N,Vin*%
X215920000Y-95750000D03*
%TO.P,U2,9,GND*%
%TO.N,GND_2*%
X213380000Y-95750000D03*
%TO.P,U2,10,OUT1*%
%TO.N,M2+*%
X210840000Y-95750000D03*
%TO.P,U2,11,OUT2*%
%TO.N,M2-*%
X208300000Y-95750000D03*
%TO.P,U2,12,IMODE*%
%TO.N,unconnected-(U2-IMODE-Pad12)*%
X205760000Y-95750000D03*
%TO.P,U2,13,FAULT*%
%TO.N,unconnected-(U2-FAULT-Pad13)*%
X203220000Y-95750000D03*
%TO.P,U2,14,CS*%
%TO.N,unconnected-(U2-CS-Pad14)*%
X200680000Y-95750000D03*
%TD*%
D11*
%TO.P,J6,1,Pin_1*%
%TO.N,M2+*%
X222150000Y-80700000D03*
D12*
%TO.P,J6,2,Pin_2*%
%TO.N,M2-*%
X222150000Y-78200000D03*
%TD*%
D16*
%TO.P,J9,1,Pin_1*%
%TO.N,GND_2*%
X193500000Y-91200000D03*
D17*
%TO.P,J9,2,Pin_2*%
%TO.N,Vin*%
X193500000Y-86200000D03*
%TD*%
D11*
%TO.P,J5,1,Pin_1*%
%TO.N,M1+*%
X221450000Y-71100000D03*
D12*
%TO.P,J5,2,Pin_2*%
%TO.N,M1-*%
X221450000Y-68600000D03*
%TD*%
D18*
%TO.N,*%
X205700000Y-90250000D03*
X201200000Y-89600000D03*
%TO.N,GND_2*%
X197650000Y-78350000D03*
%TO.N,Vin*%
X199100000Y-103100000D03*
%TO.N,M2-*%
X212150000Y-88900000D03*
%TO.N,PWM_M1_2*%
X220514300Y-66630600D03*
%TO.N,PWM_M2_2*%
X206248200Y-102187200D03*
%TO.N,PWM_M2*%
X206893700Y-97138400D03*
%TO.N,PWM_M4_2*%
X224013900Y-114977800D03*
X224016900Y-92826900D03*
%TO.N,PWM_M1*%
X223822500Y-69591300D03*
%TO.N,3.3V*%
X220706800Y-100670200D03*
%TO.N,GND*%
X213039100Y-100978400D03*
X227150000Y-92600000D03*
X202800000Y-89750000D03*
X202400000Y-124900000D03*
X198500000Y-66600000D03*
X201750000Y-84950000D03*
X210950000Y-62750000D03*
X207750000Y-84850000D03*
X205050000Y-84800000D03*
X203500000Y-76300000D03*
X221500000Y-118650000D03*
X198350000Y-105950000D03*
X220493800Y-98871000D03*
X207350000Y-117850000D03*
X203447000Y-94295900D03*
X209950000Y-86050000D03*
X202300000Y-105650000D03*
X225000000Y-110500000D03*
X203300000Y-68450000D03*
X222200000Y-104800000D03*
X218000000Y-91750000D03*
X188450000Y-107400000D03*
X220050000Y-96550000D03*
X198250000Y-96450000D03*
X228000000Y-109600000D03*
X215550000Y-61100000D03*
X209600000Y-68750000D03*
X202000000Y-100850000D03*
X196150000Y-124000000D03*
X225100000Y-105150000D03*
X229400000Y-98300000D03*
%TO.N,PWM_M4*%
X224594200Y-113726500D03*
%TD*%
D19*
%TO.N,GND_2*%
X196297300Y-109500000D02*
X196297000Y-109500000D01*
D20*
X206919800Y-74307600D02*
X196497300Y-72250000D01*
X193500000Y-91200000D02*
X195947300Y-100150000D01*
D19*
X195947300Y-100150000D02*
X195947000Y-100150000D01*
D20*
X212200000Y-75350000D02*
X213350000Y-78950000D01*
X213450000Y-111950000D02*
X212150000Y-109050000D01*
X195947000Y-100150000D02*
X196297000Y-109500000D01*
X197450000Y-87600000D02*
X196550000Y-90350000D01*
D19*
X196272000Y-114650000D02*
X196247300Y-114674700D01*
D20*
X212150000Y-109050000D02*
X196297000Y-109500000D01*
X196272000Y-114650000D02*
X196247000Y-119800000D01*
X196550000Y-90350000D02*
X193500000Y-91200000D01*
X206919800Y-74307600D02*
X212200000Y-75350000D01*
X197650000Y-78350000D02*
X197450000Y-87600000D01*
D19*
X196247300Y-114674700D02*
X196247300Y-119800000D01*
D20*
X196297000Y-109500000D02*
X196272000Y-114650000D01*
D19*
%TO.N,Vin*%
X192997300Y-71901200D02*
X192997300Y-72250000D01*
D20*
X199100000Y-103100000D02*
X213400000Y-104600000D01*
X189950000Y-93550000D02*
X190235660Y-89935661D01*
X192797000Y-109500000D02*
X192747000Y-119800000D01*
D19*
X192747300Y-119800000D02*
X192747000Y-119800000D01*
D20*
X190700000Y-87800000D02*
X193500000Y-86200000D01*
X190900000Y-96750000D02*
X192447300Y-100150000D01*
X192447000Y-100150000D02*
X192797000Y-109500000D01*
X193973500Y-70925000D02*
X194950000Y-69600000D01*
X194950000Y-69600000D02*
X214000000Y-72350000D01*
X214000000Y-72350000D02*
X215890000Y-78950000D01*
D19*
X192797300Y-109500000D02*
X192797000Y-109500000D01*
D20*
X213400000Y-104600000D02*
X215990000Y-111950000D01*
X190235660Y-89935661D02*
X190700000Y-87800000D01*
D19*
X193973500Y-70925000D02*
X192997300Y-71901200D01*
D20*
X192997000Y-72250000D02*
X193973500Y-70925000D01*
X189950000Y-93550000D02*
X190900000Y-96750000D01*
%TO.N,M2+*%
X218100000Y-85950000D02*
X222150000Y-80700000D01*
X210840000Y-95750000D02*
X218100000Y-85950000D01*
%TO.N,M2-*%
X208300000Y-95750000D02*
X212150000Y-88900000D01*
%TO.N,M4+*%
X211700000Y-125900000D02*
X221400000Y-124350000D01*
X210940000Y-128050000D02*
X211700000Y-125900000D01*
%TO.N,M4-*%
X208400000Y-128050000D02*
X209850000Y-123550000D01*
X209850000Y-123550000D02*
X221400000Y-121850000D01*
D19*
%TO.N,PWM_M1_2*%
X224440000Y-69353600D02*
X221717000Y-66630600D01*
X221346200Y-90953800D02*
X222712700Y-89587300D01*
X222712700Y-89587300D02*
X222783900Y-89587300D01*
X224440000Y-87931200D02*
X224440000Y-69353600D01*
X222560000Y-93910000D02*
X221346200Y-92696200D01*
X221346200Y-92696200D02*
X221346200Y-90953800D01*
X221717000Y-66630600D02*
X220514300Y-66630600D01*
X222783900Y-89587300D02*
X224440000Y-87931200D01*
%TO.N,PWM_M2_2*%
X208300000Y-83050000D02*
X204696300Y-86653700D01*
X204696300Y-86653700D02*
X204696300Y-100635300D01*
X204696300Y-100635300D02*
X206248200Y-102187200D01*
%TO.N,PWM_M2*%
X206893700Y-86996300D02*
X210840000Y-83050000D01*
X206893700Y-97138400D02*
X206893700Y-86996300D01*
%TO.N,PWM_M4_2*%
X224016900Y-92826900D02*
X223894300Y-92949500D01*
X223894300Y-92949500D02*
X224016900Y-92826900D01*
X223894300Y-114858200D02*
X224013900Y-114977800D01*
X223894300Y-92949500D02*
X223894300Y-114858200D01*
X224013900Y-114977800D02*
X223894300Y-114858200D01*
X224016900Y-92826900D02*
X223894300Y-92949500D01*
X223894300Y-114858200D02*
X224013900Y-114977800D01*
%TO.N,PWM_M1*%
X223822500Y-69591300D02*
X223822500Y-87909500D01*
X223822500Y-87909500D02*
X220944500Y-90787500D01*
X220944500Y-90787500D02*
X220944500Y-94834500D01*
X220944500Y-94834500D02*
X222560000Y-96450000D01*
%TO.N,3.3V*%
X203220000Y-83050000D02*
X203218500Y-83051500D01*
X222560000Y-98990000D02*
X222387000Y-98990000D01*
X222387000Y-98990000D02*
X220706800Y-100670200D01*
X202148200Y-88588800D02*
X202148200Y-98108200D01*
X202148200Y-98108200D02*
X203290000Y-99250000D01*
X203218500Y-87518500D02*
X202148200Y-88588800D01*
X203218500Y-83051500D02*
X203218500Y-87518500D01*
%TO.N,GND*%
X206850000Y-64400000D02*
X205730000Y-66250000D01*
X212100000Y-64450000D02*
X206850000Y-64400000D01*
X213380000Y-83050000D02*
X213664200Y-83050000D01*
X203447000Y-94295900D02*
X203620200Y-94122700D01*
X203620200Y-94122700D02*
X203620200Y-85189800D01*
X220683500Y-109099600D02*
X220683500Y-101530000D01*
X220069800Y-99295000D02*
X220493800Y-98871000D01*
X214433100Y-115350000D02*
X220683500Y-109099600D01*
X220069800Y-100916300D02*
X220069800Y-99295000D01*
X203620200Y-85189800D02*
X205760000Y-83050000D01*
X217223600Y-70123600D02*
X213350000Y-66250000D01*
X217223600Y-79490600D02*
X217223600Y-70123600D01*
X213450000Y-100567500D02*
X213039100Y-100978400D01*
X220683500Y-101530000D02*
X220069800Y-100916300D01*
X222560000Y-101530000D02*
X220683500Y-101530000D01*
X213664200Y-83050000D02*
X217223600Y-79490600D01*
X213480000Y-115350000D02*
X214433100Y-115350000D01*
X213450000Y-99250000D02*
X213450000Y-100567500D01*
X213350000Y-66250000D02*
X212100000Y-64450000D01*
%TO.N,PWM_M4*%
X225100000Y-93910000D02*
X226316800Y-95126800D01*
X224594200Y-113726500D02*
X226316800Y-112003900D01*
X226316800Y-112003900D02*
X224594200Y-113726500D01*
X226316800Y-95126800D02*
X226316800Y-112003900D01*
X226316800Y-112003900D02*
X224594200Y-113726500D01*
%TD*%
%TA.AperFunction,Conductor*%
%TO.N,GND*%
G36*
X225683656Y-102837524D02*
G01*
X225714484Y-102900225D01*
X225716300Y-102921370D01*
X225716300Y-111703803D01*
X225696615Y-111770842D01*
X225679981Y-111791484D01*
X224706481Y-112764984D01*
X224645158Y-112798469D01*
X224575466Y-112793485D01*
X224519533Y-112751613D01*
X224495116Y-112686149D01*
X224494800Y-112677303D01*
X224494800Y-102924976D01*
X224514485Y-102857937D01*
X224567289Y-102812182D01*
X224636447Y-102802238D01*
X224657113Y-102807043D01*
X224783546Y-102848124D01*
X224993642Y-102881400D01*
X224993643Y-102881400D01*
X225206357Y-102881400D01*
X225206358Y-102881400D01*
X225416454Y-102848124D01*
X225527073Y-102812182D01*
X225553982Y-102803439D01*
X225623823Y-102801444D01*
X225683656Y-102837524D01*
G37*
%TD.AperFunction*%
%TA.AperFunction,Conductor*%
G36*
X197792518Y-103853194D02*
G01*
X197822251Y-103887855D01*
X197859752Y-103952777D01*
X198008425Y-104136295D01*
X198183976Y-104294298D01*
X198183978Y-104294299D01*
X198183980Y-104294301D01*
X198183986Y-104294305D01*
X198382073Y-104422885D01*
X198382081Y-104422890D01*
X198597864Y-104518910D01*
X198597865Y-104518910D01*
X198597867Y-104518911D01*
X198826016Y-104579993D01*
X212222093Y-105985175D01*
X212286713Y-106011745D01*
X212326108Y-106067287D01*
X212823633Y-107479182D01*
X212824290Y-107491524D01*
X212829423Y-107502769D01*
X212826113Y-107525760D01*
X212827348Y-107548952D01*
X212821228Y-107559689D01*
X212819467Y-107571926D01*
X212804252Y-107589477D01*
X212792753Y-107609656D01*
X212781797Y-107615381D01*
X212773702Y-107624721D01*
X212751415Y-107631260D01*
X212730830Y-107642019D01*
X212716884Y-107641392D01*
X212706659Y-107644393D01*
X212671725Y-107639364D01*
X212633955Y-107628266D01*
X212624768Y-107625171D01*
X212573820Y-107605762D01*
X212573821Y-107605762D01*
X212520993Y-107594673D01*
X212511512Y-107592289D01*
X212459697Y-107577065D01*
X212405599Y-107570064D01*
X212400788Y-107569441D01*
X212342668Y-107557242D01*
X212283868Y-107554310D01*
X212279006Y-107553681D01*
X212225473Y-107546752D01*
X212170939Y-107548299D01*
X212170940Y-107548300D01*
X212166087Y-107548437D01*
X212106778Y-107545481D01*
X212048264Y-107551780D01*
X212043343Y-107551920D01*
X212043343Y-107551921D01*
X197863659Y-107954424D01*
X197796088Y-107936650D01*
X197748854Y-107885165D01*
X197736228Y-107835112D01*
X197731896Y-107719399D01*
X197590965Y-103954516D01*
X197608128Y-103886789D01*
X197659183Y-103839090D01*
X197727921Y-103826567D01*
X197792518Y-103853194D01*
G37*
%TD.AperFunction*%
%TA.AperFunction,Conductor*%
G36*
X205379000Y-83100160D02*
G01*
X205404964Y-83197061D01*
X205455124Y-83283940D01*
X205526060Y-83354876D01*
X205612939Y-83405036D01*
X205709840Y-83431000D01*
X205732553Y-83431000D01*
X205061283Y-84102268D01*
X205061283Y-84102269D01*
X205098567Y-84129358D01*
X205275562Y-84219542D01*
X205464477Y-84280924D01*
X205660679Y-84312000D01*
X205859317Y-84312000D01*
X205873824Y-84309702D01*
X205943118Y-84318655D01*
X205996571Y-84363650D01*
X206017212Y-84430401D01*
X205998489Y-84497715D01*
X205980906Y-84519856D01*
X204330990Y-86169773D01*
X204330984Y-86169779D01*
X204327586Y-86173178D01*
X204327584Y-86173180D01*
X204215780Y-86284984D01*
X204187014Y-86334809D01*
X204136723Y-86421915D01*
X204095799Y-86574643D01*
X204095799Y-86574645D01*
X204095799Y-86742746D01*
X204095800Y-86742759D01*
X204095800Y-94582406D01*
X204076115Y-94649445D01*
X204023311Y-94695200D01*
X203954153Y-94705144D01*
X203898915Y-94682724D01*
X203881697Y-94670215D01*
X203881696Y-94670214D01*
X203881694Y-94670213D01*
X203824968Y-94641309D01*
X203704632Y-94579994D01*
X203704629Y-94579993D01*
X203515637Y-94518587D01*
X203417498Y-94503043D01*
X203319361Y-94487500D01*
X203120639Y-94487500D01*
X203055214Y-94497862D01*
X202924362Y-94518587D01*
X202911018Y-94522923D01*
X202841177Y-94524918D01*
X202781344Y-94488837D01*
X202750516Y-94426136D01*
X202748700Y-94404992D01*
X202748700Y-88888897D01*
X202768385Y-88821858D01*
X202785019Y-88801216D01*
X203205023Y-88381212D01*
X203699020Y-87887216D01*
X203778077Y-87750284D01*
X203819001Y-87597557D01*
X203819001Y-87439442D01*
X203819001Y-87431847D01*
X203819000Y-87431829D01*
X203819000Y-84237649D01*
X203838685Y-84170610D01*
X203878216Y-84131918D01*
X203881684Y-84129791D01*
X203881694Y-84129787D01*
X204042464Y-84012981D01*
X204182981Y-83872464D01*
X204299787Y-83711694D01*
X204379796Y-83554667D01*
X204427769Y-83503872D01*
X204495590Y-83487077D01*
X204561725Y-83509614D01*
X204600765Y-83554668D01*
X204680641Y-83711432D01*
X204707730Y-83748715D01*
X204707731Y-83748716D01*
X205379000Y-83077447D01*
X205379000Y-83100160D01*
G37*
%TD.AperFunction*%
%TA.AperFunction,Conductor*%
G36*
X208002099Y-84280869D02*
G01*
X208004352Y-84281409D01*
X208004364Y-84281413D01*
X208200639Y-84312500D01*
X208200640Y-84312500D01*
X208399355Y-84312500D01*
X208399361Y-84312500D01*
X208413228Y-84310303D01*
X208482516Y-84319256D01*
X208535970Y-84364250D01*
X208556612Y-84431001D01*
X208537889Y-84498315D01*
X208520306Y-84520457D01*
X206524986Y-86515778D01*
X206413181Y-86627582D01*
X206413175Y-86627590D01*
X206371828Y-86699207D01*
X206371828Y-86699209D01*
X206334123Y-86764514D01*
X206334123Y-86764515D01*
X206293199Y-86917243D01*
X206293199Y-86917245D01*
X206293199Y-87085346D01*
X206293200Y-87085359D01*
X206293200Y-89451622D01*
X206273515Y-89518661D01*
X206220711Y-89564416D01*
X206151553Y-89574360D01*
X206100309Y-89554724D01*
X206079185Y-89540609D01*
X206079172Y-89540602D01*
X205933501Y-89480264D01*
X205933489Y-89480261D01*
X205778845Y-89449500D01*
X205778842Y-89449500D01*
X205621158Y-89449500D01*
X205621155Y-89449500D01*
X205466510Y-89480261D01*
X205460676Y-89482031D01*
X205460183Y-89480407D01*
X205398775Y-89487005D01*
X205336298Y-89455726D01*
X205300650Y-89395635D01*
X205296800Y-89364977D01*
X205296800Y-86953796D01*
X205316485Y-86886757D01*
X205333114Y-86866120D01*
X207885473Y-84313760D01*
X207894583Y-84308786D01*
X207900984Y-84300607D01*
X207924728Y-84292325D01*
X207946794Y-84280277D01*
X207958903Y-84280406D01*
X207966957Y-84277598D01*
X208002099Y-84280869D01*
G37*
%TD.AperFunction*%
%TA.AperFunction,Conductor*%
G36*
X220652778Y-53815996D02*
G01*
X220736016Y-53826630D01*
X220762990Y-53833210D01*
X220841779Y-53862100D01*
X220866613Y-53874517D01*
X220936993Y-53920210D01*
X220958444Y-53937843D01*
X221016892Y-53998052D01*
X221033880Y-54020015D01*
X221080675Y-54097001D01*
X221087719Y-54110360D01*
X221882880Y-55870619D01*
X221883844Y-55872810D01*
X222647287Y-57653710D01*
X222648209Y-57655919D01*
X223363156Y-59416801D01*
X223370137Y-59486321D01*
X223338425Y-59548580D01*
X223278087Y-59583809D01*
X223208281Y-59580826D01*
X223172779Y-59561825D01*
X223125177Y-59525299D01*
X223125175Y-59525297D01*
X223125169Y-59525293D01*
X223125164Y-59525290D01*
X223125161Y-59525288D01*
X222875365Y-59381067D01*
X222875349Y-59381059D01*
X222608873Y-59270682D01*
X222608861Y-59270678D01*
X222608858Y-59270677D01*
X222330230Y-59196019D01*
X222330224Y-59196018D01*
X222330219Y-59196017D01*
X222044251Y-59158369D01*
X222044246Y-59158368D01*
X222044241Y-59158368D01*
X221755785Y-59158368D01*
X221755779Y-59158368D01*
X221755774Y-59158369D01*
X221469806Y-59196017D01*
X221469799Y-59196018D01*
X221469796Y-59196019D01*
X221191168Y-59270677D01*
X221191152Y-59270682D01*
X220924676Y-59381059D01*
X220924660Y-59381067D01*
X220674864Y-59525288D01*
X220674848Y-59525299D01*
X220446010Y-59700892D01*
X220446003Y-59700898D01*
X220242043Y-59904858D01*
X220242037Y-59904865D01*
X220066444Y-60133703D01*
X220066433Y-60133719D01*
X219922212Y-60383515D01*
X219922204Y-60383531D01*
X219811827Y-60650007D01*
X219811822Y-60650023D01*
X219737165Y-60928648D01*
X219737162Y-60928661D01*
X219699514Y-61214629D01*
X219699513Y-61214646D01*
X219699513Y-61503089D01*
X219699514Y-61503106D01*
X219737162Y-61789074D01*
X219737163Y-61789079D01*
X219737164Y-61789085D01*
X219751587Y-61842911D01*
X219811822Y-62067712D01*
X219811827Y-62067728D01*
X219922204Y-62334204D01*
X219922212Y-62334220D01*
X220066433Y-62584016D01*
X220066444Y-62584032D01*
X220242037Y-62812870D01*
X220242043Y-62812877D01*
X220446003Y-63016837D01*
X220446009Y-63016842D01*
X220674857Y-63192443D01*
X220674864Y-63192447D01*
X220924660Y-63336668D01*
X220924676Y-63336676D01*
X221191152Y-63447053D01*
X221191158Y-63447054D01*
X221191168Y-63447059D01*
X221469796Y-63521717D01*
X221755785Y-63559368D01*
X221755792Y-63559368D01*
X222044234Y-63559368D01*
X222044241Y-63559368D01*
X222330230Y-63521717D01*
X222608858Y-63447059D01*
X222608870Y-63447053D01*
X222608873Y-63447053D01*
X222875349Y-63336676D01*
X222875352Y-63336674D01*
X222875358Y-63336672D01*
X223125169Y-63192443D01*
X223354017Y-63016842D01*
X223557987Y-62812872D01*
X223733588Y-62584024D01*
X223877817Y-62334213D01*
X223988204Y-62067713D01*
X224045738Y-61852992D01*
X224082101Y-61793335D01*
X224144948Y-61762806D01*
X224214323Y-61771101D01*
X224268201Y-61815586D01*
X224282117Y-61842911D01*
X224732086Y-63086896D01*
X224732879Y-63089155D01*
X225356689Y-64923710D01*
X225357437Y-64925983D01*
X225945694Y-66772159D01*
X225946399Y-66774447D01*
X226498927Y-68631699D01*
X226499587Y-68634000D01*
X227016146Y-70501511D01*
X227016762Y-70503824D01*
X227497184Y-72380994D01*
X227497755Y-72383318D01*
X227941852Y-74269413D01*
X227942378Y-74271749D01*
X228349982Y-76166053D01*
X228350463Y-76168397D01*
X228721423Y-78070205D01*
X228721859Y-78072559D01*
X229056045Y-79981213D01*
X229056435Y-79983575D01*
X229353714Y-81898317D01*
X229354058Y-81900686D01*
X229614314Y-83820751D01*
X229614613Y-83823126D01*
X229837762Y-85747904D01*
X229838015Y-85750284D01*
X230023972Y-87679061D01*
X230024178Y-87681446D01*
X230172861Y-89613341D01*
X230173022Y-89615729D01*
X230284388Y-91550186D01*
X230284503Y-91552577D01*
X230358509Y-93488873D01*
X230358577Y-93491266D01*
X230395191Y-95428575D01*
X230395213Y-95430968D01*
X230394424Y-97368622D01*
X230394400Y-97371016D01*
X230356208Y-99308295D01*
X230356138Y-99310688D01*
X230280555Y-101246921D01*
X230280438Y-101249312D01*
X230167500Y-103183627D01*
X230167338Y-103186015D01*
X230017074Y-105117896D01*
X230016865Y-105120280D01*
X229829342Y-107048843D01*
X229829087Y-107051224D01*
X229604375Y-108975779D01*
X229604075Y-108978153D01*
X229342243Y-110898102D01*
X229341896Y-110900471D01*
X229043063Y-112814928D01*
X229042671Y-112817289D01*
X228706940Y-114725612D01*
X228706503Y-114727966D01*
X228333984Y-116629531D01*
X228333501Y-116631875D01*
X227924356Y-118525835D01*
X227923828Y-118528170D01*
X227478195Y-120413902D01*
X227477622Y-120416226D01*
X226995672Y-122293003D01*
X226995054Y-122295316D01*
X226476971Y-124162419D01*
X226476309Y-124164719D01*
X225922282Y-126021474D01*
X225921576Y-126023761D01*
X225331790Y-127869536D01*
X225331039Y-127871809D01*
X224705761Y-129705779D01*
X224704967Y-129708037D01*
X224281968Y-130874491D01*
X224240608Y-130930804D01*
X224175369Y-130955816D01*
X224106963Y-130941587D01*
X224057110Y-130892634D01*
X224045622Y-130864315D01*
X223988204Y-130650025D01*
X223988199Y-130650015D01*
X223988198Y-130650009D01*
X223877821Y-130383533D01*
X223877813Y-130383517D01*
X223733592Y-130133721D01*
X223733588Y-130133714D01*
X223557987Y-129904866D01*
X223557982Y-129904860D01*
X223354022Y-129700900D01*
X223354015Y-129700894D01*
X223125177Y-129525301D01*
X223125175Y-129525299D01*
X223125169Y-129525295D01*
X223125164Y-129525292D01*
X223125161Y-129525290D01*
X222875365Y-129381069D01*
X222875349Y-129381061D01*
X222608873Y-129270684D01*
X222608861Y-129270680D01*
X222608858Y-129270679D01*
X222330230Y-129196021D01*
X222330224Y-129196020D01*
X222330219Y-129196019D01*
X222044251Y-129158371D01*
X222044246Y-129158370D01*
X222044241Y-129158370D01*
X221755785Y-129158370D01*
X221755779Y-129158370D01*
X221755774Y-129158371D01*
X221469806Y-129196019D01*
X221469799Y-129196020D01*
X221469796Y-129196021D01*
X221380283Y-129220006D01*
X221191168Y-129270679D01*
X221191152Y-129270684D01*
X220924676Y-129381061D01*
X220924660Y-129381069D01*
X220674864Y-129525290D01*
X220674848Y-129525301D01*
X220446010Y-129700894D01*
X220446003Y-129700900D01*
X220242043Y-129904860D01*
X220242037Y-129904867D01*
X220066444Y-130133705D01*
X220066433Y-130133721D01*
X219922212Y-130383517D01*
X219922204Y-130383533D01*
X219811827Y-130650009D01*
X219811822Y-130650025D01*
X219754405Y-130864311D01*
X219737165Y-130928650D01*
X219737162Y-130928663D01*
X219699514Y-131214631D01*
X219699513Y-131214648D01*
X219699513Y-131503091D01*
X219699514Y-131503108D01*
X219737162Y-131789076D01*
X219737163Y-131789081D01*
X219737164Y-131789087D01*
X219737165Y-131789089D01*
X219811822Y-132067714D01*
X219811827Y-132067730D01*
X219922204Y-132334206D01*
X219922212Y-132334222D01*
X220066433Y-132584018D01*
X220066444Y-132584034D01*
X220242037Y-132812872D01*
X220242043Y-132812879D01*
X220446003Y-133016839D01*
X220446009Y-133016844D01*
X220674857Y-133192445D01*
X220674864Y-133192449D01*
X220924660Y-133336670D01*
X220924676Y-133336678D01*
X221191152Y-133447055D01*
X221191158Y-133447056D01*
X221191168Y-133447061D01*
X221469796Y-133521719D01*
X221755785Y-133559370D01*
X221755792Y-133559370D01*
X222044234Y-133559370D01*
X222044241Y-133559370D01*
X222330230Y-133521719D01*
X222608858Y-133447061D01*
X222608870Y-133447055D01*
X222608873Y-133447055D01*
X222875349Y-133336678D01*
X222875352Y-133336676D01*
X222875358Y-133336674D01*
X223125169Y-133192445D01*
X223172678Y-133155989D01*
X223174004Y-133155477D01*
X223174869Y-133154346D01*
X223206475Y-133142923D01*
X223237844Y-133130796D01*
X223239239Y-133131082D01*
X223240580Y-133130598D01*
X223273365Y-133138081D01*
X223306289Y-133144834D01*
X223307307Y-133145828D01*
X223308697Y-133146146D01*
X223332221Y-133170155D01*
X223356280Y-133193647D01*
X223356599Y-133195035D01*
X223357596Y-133196053D01*
X223364401Y-133228949D01*
X223371944Y-133261738D01*
X223371555Y-133263532D01*
X223371750Y-133264474D01*
X223363896Y-133298883D01*
X223347933Y-133340383D01*
X223347053Y-133342607D01*
X222616676Y-135137298D01*
X222615753Y-135139507D01*
X221850815Y-136919889D01*
X221849848Y-136922079D01*
X221053345Y-138681488D01*
X221046331Y-138694775D01*
X220999628Y-138771577D01*
X220982731Y-138793438D01*
X220924633Y-138853397D01*
X220903316Y-138870974D01*
X220833376Y-138916585D01*
X220808693Y-138929006D01*
X220730395Y-138957994D01*
X220703578Y-138964641D01*
X220620800Y-138975573D01*
X220593175Y-138976116D01*
X220510030Y-138968446D01*
X220482971Y-138962858D01*
X220397323Y-138934924D01*
X220384430Y-138929908D01*
X220371835Y-138924179D01*
X220347748Y-138913222D01*
X220347747Y-138913221D01*
X220347746Y-138913221D01*
X220340556Y-138909950D01*
X220340549Y-138909946D01*
X196485447Y-128058638D01*
X196248026Y-127950639D01*
X199517500Y-127950639D01*
X199517500Y-128149360D01*
X199548587Y-128345637D01*
X199609993Y-128534629D01*
X199609994Y-128534632D01*
X199700213Y-128711694D01*
X199817019Y-128872464D01*
X199957536Y-129012981D01*
X200118306Y-129129787D01*
X200174403Y-129158370D01*
X200295367Y-129220005D01*
X200295370Y-129220006D01*
X200389866Y-129250709D01*
X200484364Y-129281413D01*
X200680639Y-129312500D01*
X200680640Y-129312500D01*
X200879360Y-129312500D01*
X200879361Y-129312500D01*
X201075636Y-129281413D01*
X201264632Y-129220005D01*
X201441694Y-129129787D01*
X201602464Y-129012981D01*
X201742981Y-128872464D01*
X201859787Y-128711694D01*
X201939515Y-128555218D01*
X201987490Y-128504423D01*
X202055311Y-128487628D01*
X202121446Y-128510165D01*
X202160484Y-128555218D01*
X202240213Y-128711694D01*
X202357019Y-128872464D01*
X202497536Y-129012981D01*
X202658306Y-129129787D01*
X202714403Y-129158370D01*
X202835367Y-129220005D01*
X202835370Y-129220006D01*
X202929866Y-129250709D01*
X203024364Y-129281413D01*
X203220639Y-129312500D01*
X203220640Y-129312500D01*
X203419360Y-129312500D01*
X203419361Y-129312500D01*
X203615636Y-129281413D01*
X203804632Y-129220005D01*
X203981694Y-129129787D01*
X204142464Y-129012981D01*
X204282981Y-128872464D01*
X204399787Y-128711694D01*
X204479515Y-128555218D01*
X204527490Y-128504423D01*
X204595311Y-128487628D01*
X204661446Y-128510165D01*
X204700484Y-128555218D01*
X204780213Y-128711694D01*
X204897019Y-128872464D01*
X205037536Y-129012981D01*
X205198306Y-129129787D01*
X205254403Y-129158370D01*
X205375367Y-129220005D01*
X205375370Y-129220006D01*
X205469866Y-129250709D01*
X205564364Y-129281413D01*
X205760639Y-129312500D01*
X205760640Y-129312500D01*
X205959360Y-129312500D01*
X205959361Y-129312500D01*
X206155636Y-129281413D01*
X206344632Y-129220005D01*
X206521694Y-129129787D01*
X206682464Y-129012981D01*
X206822981Y-128872464D01*
X206887574Y-128783558D01*
X206942904Y-128740893D01*
X207012517Y-128734914D01*
X207074312Y-128767519D01*
X207098239Y-128799879D01*
X207118582Y-128839564D01*
X207257873Y-129030302D01*
X207425288Y-129196901D01*
X207456109Y-129219179D01*
X207616700Y-129335258D01*
X207616702Y-129335259D01*
X207827405Y-129441970D01*
X208052207Y-129514406D01*
X208052213Y-129514407D01*
X208052217Y-129514408D01*
X208178124Y-129534034D01*
X208285568Y-129550783D01*
X208285569Y-129550784D01*
X208285571Y-129550783D01*
X208285572Y-129550784D01*
X208521755Y-129550207D01*
X208754940Y-129512691D01*
X208979386Y-129439157D01*
X209147331Y-129353067D01*
X209189555Y-129331423D01*
X209189556Y-129331421D01*
X209189564Y-129331418D01*
X209380302Y-129192127D01*
X209546901Y-129024712D01*
X209568087Y-128995401D01*
X209623309Y-128952602D01*
X209692907Y-128946451D01*
X209754783Y-128978905D01*
X209767676Y-128994136D01*
X209767745Y-128994081D01*
X209770373Y-128997323D01*
X209770730Y-128997744D01*
X209770814Y-128997866D01*
X209770820Y-128997874D01*
X209933484Y-129169094D01*
X209933489Y-129169098D01*
X209933492Y-129169101D01*
X210120949Y-129312776D01*
X210328575Y-129425356D01*
X210551256Y-129504071D01*
X210551258Y-129504071D01*
X210551260Y-129504072D01*
X210597904Y-129512690D01*
X210783508Y-129546983D01*
X210783514Y-129546983D01*
X210783520Y-129546984D01*
X211019609Y-129553033D01*
X211019610Y-129553032D01*
X211019615Y-129553033D01*
X211253760Y-129522074D01*
X211480181Y-129454866D01*
X211693300Y-129353067D01*
X211887871Y-129219182D01*
X211951880Y-129158371D01*
X212059094Y-129056515D01*
X212059095Y-129056513D01*
X212059101Y-129056508D01*
X212202776Y-128869051D01*
X212242277Y-128796200D01*
X212291534Y-128746652D01*
X212359763Y-128731598D01*
X212425299Y-128755822D01*
X212451599Y-128782421D01*
X212517019Y-128872464D01*
X212657536Y-129012981D01*
X212818306Y-129129787D01*
X212874403Y-129158370D01*
X212995367Y-129220005D01*
X212995370Y-129220006D01*
X213089866Y-129250709D01*
X213184364Y-129281413D01*
X213380639Y-129312500D01*
X213380640Y-129312500D01*
X213579360Y-129312500D01*
X213579361Y-129312500D01*
X213775636Y-129281413D01*
X213964632Y-129220005D01*
X214141694Y-129129787D01*
X214302464Y-129012981D01*
X214442981Y-128872464D01*
X214559787Y-128711694D01*
X214639515Y-128555218D01*
X214687490Y-128504423D01*
X214755311Y-128487628D01*
X214821446Y-128510165D01*
X214860484Y-128555218D01*
X214940213Y-128711694D01*
X215057019Y-128872464D01*
X215197536Y-129012981D01*
X215358306Y-129129787D01*
X215414403Y-129158370D01*
X215535367Y-129220005D01*
X215535370Y-129220006D01*
X215629866Y-129250709D01*
X215724364Y-129281413D01*
X215920639Y-129312500D01*
X215920640Y-129312500D01*
X216119360Y-129312500D01*
X216119361Y-129312500D01*
X216315636Y-129281413D01*
X216504632Y-129220005D01*
X216681694Y-129129787D01*
X216842464Y-129012981D01*
X216982981Y-128872464D01*
X217099787Y-128711694D01*
X217190005Y-128534632D01*
X217251413Y-128345636D01*
X217282500Y-128149361D01*
X217282500Y-127950639D01*
X217251413Y-127754364D01*
X217190005Y-127565368D01*
X217190005Y-127565367D01*
X217099786Y-127388305D01*
X217023473Y-127283269D01*
X216982981Y-127227536D01*
X216842464Y-127087019D01*
X216681694Y-126970213D01*
X216606189Y-126931741D01*
X216502918Y-126879121D01*
X216452122Y-126831146D01*
X216435327Y-126763325D01*
X216457865Y-126697190D01*
X216512580Y-126653739D01*
X216539639Y-126646191D01*
X221753380Y-125813068D01*
X221977904Y-125739775D01*
X222028139Y-125714092D01*
X222084586Y-125700499D01*
X222200002Y-125700499D01*
X222200008Y-125700499D01*
X222302797Y-125689999D01*
X222469334Y-125634814D01*
X222618656Y-125542712D01*
X222742712Y-125418656D01*
X222834814Y-125269334D01*
X222889999Y-125102797D01*
X222900500Y-125000009D01*
X222900499Y-124467063D01*
X222900662Y-124466029D01*
X222900499Y-124347936D01*
X222900499Y-123699992D01*
X222889999Y-123597203D01*
X222834814Y-123430666D01*
X222742712Y-123281344D01*
X222618656Y-123157288D01*
X222502645Y-123085732D01*
X222455922Y-123033785D01*
X222444699Y-122964822D01*
X222472543Y-122900740D01*
X222481018Y-122891566D01*
X222533752Y-122839975D01*
X222674660Y-122650429D01*
X222784182Y-122441173D01*
X222859620Y-122217362D01*
X222899118Y-121984504D01*
X222899347Y-121963565D01*
X222900500Y-121956287D01*
X222900500Y-121858242D01*
X222901703Y-121748334D01*
X222867310Y-121514668D01*
X222867309Y-121514666D01*
X222867309Y-121514663D01*
X222796789Y-121289262D01*
X222796789Y-121289261D01*
X222691872Y-121077657D01*
X222596067Y-120942712D01*
X222555146Y-120885073D01*
X222389975Y-120716248D01*
X222200429Y-120575340D01*
X222200427Y-120575339D01*
X222200426Y-120575338D01*
X221991170Y-120465816D01*
X221767362Y-120390380D01*
X221534507Y-120350882D01*
X221534512Y-120350882D01*
X221399550Y-120349405D01*
X221298335Y-120348298D01*
X221298334Y-120348298D01*
X221298329Y-120348298D01*
X209747173Y-122048468D01*
X209747172Y-122048468D01*
X209738339Y-122049768D01*
X209728245Y-122049793D01*
X209621684Y-122066936D01*
X209620786Y-122067069D01*
X209620743Y-122067076D01*
X209514668Y-122082689D01*
X209513520Y-122083049D01*
X209513519Y-122083048D01*
X209505020Y-122085706D01*
X209495060Y-122087310D01*
X209392471Y-122120919D01*
X209391661Y-122121173D01*
X209289259Y-122153211D01*
X209288237Y-122153718D01*
X209280206Y-122157700D01*
X209270614Y-122160843D01*
X209174560Y-122210080D01*
X209173776Y-122210469D01*
X209173774Y-122210469D01*
X209077659Y-122258126D01*
X209077658Y-122258126D01*
X209076685Y-122258818D01*
X209076684Y-122258817D01*
X209069410Y-122263980D01*
X209060435Y-122268582D01*
X208973209Y-122332280D01*
X208972549Y-122332749D01*
X208885073Y-122394853D01*
X208884220Y-122395688D01*
X208884219Y-122395687D01*
X208877845Y-122401922D01*
X208869698Y-122407873D01*
X208793570Y-122484372D01*
X208792947Y-122484982D01*
X208792875Y-122485055D01*
X208716247Y-122560025D01*
X208716240Y-122560034D01*
X208715527Y-122560993D01*
X208703949Y-122574432D01*
X208703109Y-122575275D01*
X208703095Y-122575293D01*
X208640280Y-122662192D01*
X208640281Y-122662193D01*
X208639762Y-122662910D01*
X208575340Y-122749571D01*
X208570657Y-122758516D01*
X208565433Y-122765745D01*
X208564742Y-122766700D01*
X208564740Y-122766703D01*
X208516290Y-122862365D01*
X208516289Y-122862364D01*
X208515818Y-122863292D01*
X208465818Y-122958827D01*
X208462595Y-122968383D01*
X208458580Y-122976313D01*
X208458577Y-122976323D01*
X208458032Y-122977398D01*
X208458030Y-122977404D01*
X208425141Y-123079466D01*
X208425142Y-123079467D01*
X208424891Y-123080247D01*
X208390380Y-123182638D01*
X208388691Y-123192593D01*
X208385954Y-123201088D01*
X208385952Y-123201089D01*
X208385953Y-123201089D01*
X207081815Y-127248414D01*
X207042519Y-127306186D01*
X206978227Y-127333541D01*
X206909351Y-127321795D01*
X206863473Y-127283269D01*
X206838149Y-127248414D01*
X206822981Y-127227536D01*
X206682464Y-127087019D01*
X206521694Y-126970213D01*
X206344632Y-126879994D01*
X206344629Y-126879993D01*
X206155637Y-126818587D01*
X206057498Y-126803043D01*
X205959361Y-126787500D01*
X205760639Y-126787500D01*
X205695214Y-126797862D01*
X205564362Y-126818587D01*
X205375370Y-126879993D01*
X205375367Y-126879994D01*
X205198305Y-126970213D01*
X205037533Y-127087021D01*
X204897021Y-127227533D01*
X204780213Y-127388305D01*
X204700485Y-127544780D01*
X204652510Y-127595576D01*
X204584689Y-127612371D01*
X204518554Y-127589833D01*
X204479515Y-127544780D01*
X204399786Y-127388305D01*
X204323473Y-127283269D01*
X204282981Y-127227536D01*
X204142464Y-127087019D01*
X203981694Y-126970213D01*
X203804632Y-126879994D01*
X203804629Y-126879993D01*
X203615637Y-126818587D01*
X203517498Y-126803043D01*
X203419361Y-126787500D01*
X203220639Y-126787500D01*
X203155214Y-126797862D01*
X203024362Y-126818587D01*
X202835370Y-126879993D01*
X202835367Y-126879994D01*
X202658305Y-126970213D01*
X202497533Y-127087021D01*
X202357021Y-127227533D01*
X202240213Y-127388305D01*
X202160485Y-127544780D01*
X202112510Y-127595576D01*
X202044689Y-127612371D01*
X201978554Y-127589833D01*
X201939515Y-127544780D01*
X201859786Y-127388305D01*
X201783473Y-127283269D01*
X201742981Y-127227536D01*
X201602464Y-127087019D01*
X201441694Y-126970213D01*
X201264632Y-126879994D01*
X201264629Y-126879993D01*
X201075637Y-126818587D01*
X200977498Y-126803043D01*
X200879361Y-126787500D01*
X200680639Y-126787500D01*
X200615214Y-126797862D01*
X200484362Y-126818587D01*
X200295370Y-126879993D01*
X200295367Y-126879994D01*
X200118305Y-126970213D01*
X199957533Y-127087021D01*
X199817021Y-127227533D01*
X199700213Y-127388305D01*
X199609994Y-127565367D01*
X199609993Y-127565370D01*
X199548587Y-127754362D01*
X199517500Y-127950639D01*
X196248026Y-127950639D01*
X191166482Y-125639125D01*
X191166480Y-125639124D01*
X191159477Y-125635938D01*
X191159473Y-125635935D01*
X191121248Y-125618548D01*
X191105619Y-125611438D01*
X191105618Y-125611437D01*
X191093707Y-125605220D01*
X191018110Y-125560382D01*
X190996641Y-125544270D01*
X190937411Y-125488844D01*
X190919914Y-125468492D01*
X190870189Y-125396072D01*
X190863198Y-125384605D01*
X190835162Y-125332449D01*
X190835160Y-125332447D01*
X185224357Y-114894657D01*
X185218995Y-114883345D01*
X185187610Y-114807413D01*
X185180427Y-114783400D01*
X185172934Y-114744310D01*
X185166152Y-114708933D01*
X185163947Y-114683970D01*
X185164944Y-114608160D01*
X185167806Y-114583257D01*
X185177461Y-114539190D01*
X185185358Y-114503142D01*
X185188662Y-114491036D01*
X185196379Y-114467511D01*
X185279333Y-114214647D01*
X185699509Y-114214647D01*
X185699509Y-114503090D01*
X185699510Y-114503107D01*
X185737158Y-114789075D01*
X185737159Y-114789080D01*
X185737160Y-114789086D01*
X185811818Y-115067713D01*
X185811823Y-115067729D01*
X185922200Y-115334205D01*
X185922208Y-115334221D01*
X186066429Y-115584017D01*
X186066440Y-115584033D01*
X186242033Y-115812871D01*
X186242039Y-115812878D01*
X186445999Y-116016838D01*
X186446006Y-116016844D01*
X186608962Y-116141884D01*
X186674853Y-116192444D01*
X186674860Y-116192448D01*
X186924656Y-116336669D01*
X186924672Y-116336677D01*
X187191148Y-116447054D01*
X187191154Y-116447055D01*
X187191164Y-116447060D01*
X187469792Y-116521718D01*
X187755781Y-116559369D01*
X187755788Y-116559369D01*
X188044230Y-116559369D01*
X188044237Y-116559369D01*
X188330226Y-116521718D01*
X188608854Y-116447060D01*
X188608866Y-116447054D01*
X188608869Y-116447054D01*
X188875345Y-116336677D01*
X188875348Y-116336675D01*
X188875354Y-116336673D01*
X189125165Y-116192444D01*
X189354013Y-116016843D01*
X189557983Y-115812873D01*
X189733584Y-115584025D01*
X189877813Y-115334214D01*
X189928727Y-115211297D01*
X189988194Y-115067729D01*
X189988194Y-115067726D01*
X189988200Y-115067714D01*
X190062858Y-114789086D01*
X190100509Y-114503097D01*
X190100509Y-114214641D01*
X190062858Y-113928652D01*
X189988200Y-113650024D01*
X189988195Y-113650014D01*
X189988194Y-113650008D01*
X189877817Y-113383532D01*
X189877809Y-113383516D01*
X189733588Y-113133720D01*
X189733584Y-113133713D01*
X189596770Y-112955413D01*
X189557984Y-112904866D01*
X189557978Y-112904859D01*
X189354018Y-112700899D01*
X189354011Y-112700893D01*
X189125173Y-112525300D01*
X189125171Y-112525298D01*
X189125165Y-112525294D01*
X189125160Y-112525291D01*
X189125157Y-112525289D01*
X188875361Y-112381068D01*
X188875345Y-112381060D01*
X188608869Y-112270683D01*
X188608857Y-112270679D01*
X188608854Y-112270678D01*
X188330226Y-112196020D01*
X188330220Y-112196019D01*
X188330215Y-112196018D01*
X188044247Y-112158370D01*
X188044242Y-112158369D01*
X188044237Y-112158369D01*
X187755781Y-112158369D01*
X187755775Y-112158369D01*
X187755770Y-112158370D01*
X187469802Y-112196018D01*
X187469795Y-112196019D01*
X187469792Y-112196020D01*
X187211601Y-112265202D01*
X187191164Y-112270678D01*
X187191148Y-112270683D01*
X186924672Y-112381060D01*
X186924656Y-112381068D01*
X186674860Y-112525289D01*
X186674844Y-112525300D01*
X186446006Y-112700893D01*
X186445999Y-112700899D01*
X186242039Y-112904859D01*
X186242033Y-112904866D01*
X186066440Y-113133704D01*
X186066429Y-113133720D01*
X185922208Y-113383516D01*
X185922200Y-113383532D01*
X185811823Y-113650008D01*
X185811818Y-113650024D01*
X185776814Y-113780663D01*
X185737161Y-113928649D01*
X185737158Y-113928662D01*
X185699510Y-114214630D01*
X185699509Y-114214647D01*
X185279333Y-114214647D01*
X185415818Y-113798607D01*
X185838585Y-112390876D01*
X186225662Y-110972917D01*
X186576801Y-109545633D01*
X186891780Y-108109936D01*
X187170397Y-106666741D01*
X187412474Y-105216970D01*
X187617856Y-103761546D01*
X187786414Y-102301400D01*
X187918038Y-100837463D01*
X188012646Y-99370668D01*
X188070177Y-97901951D01*
X188090594Y-96432250D01*
X188073884Y-94962502D01*
X188022104Y-93549507D01*
X188444860Y-93549507D01*
X188444860Y-93549508D01*
X188447493Y-93583118D01*
X188447832Y-93595967D01*
X188446971Y-93629689D01*
X188446971Y-93629692D01*
X188456776Y-93703822D01*
X188457468Y-93710391D01*
X188463313Y-93784961D01*
X188471175Y-93817757D01*
X188471174Y-93817757D01*
X188472677Y-93824026D01*
X188477942Y-93863831D01*
X188500161Y-93938676D01*
X188500928Y-93941873D01*
X188500933Y-93941894D01*
X188518373Y-94014639D01*
X188531269Y-94045802D01*
X188535564Y-94057927D01*
X189457241Y-97162527D01*
X189457588Y-97163697D01*
X189485359Y-97264041D01*
X189491164Y-97276798D01*
X189493609Y-97285034D01*
X189493610Y-97285035D01*
X189495157Y-97290245D01*
X189495159Y-97290249D01*
X189539551Y-97383175D01*
X189540525Y-97385264D01*
X190948463Y-100479031D01*
X190959514Y-100525755D01*
X191296264Y-109521790D01*
X191296350Y-109527030D01*
X191245944Y-119910812D01*
X191281759Y-120144260D01*
X191353649Y-120369228D01*
X191353650Y-120369230D01*
X191353652Y-120369235D01*
X191459855Y-120580194D01*
X191491375Y-120624024D01*
X191491610Y-120624350D01*
X191508644Y-120657742D01*
X191512483Y-120669329D01*
X191512484Y-120669330D01*
X191512485Y-120669332D01*
X191512486Y-120669334D01*
X191604588Y-120818656D01*
X191728644Y-120942712D01*
X191877966Y-121034814D01*
X191887614Y-121038011D01*
X191921977Y-121055752D01*
X191951822Y-121077657D01*
X191954347Y-121079510D01*
X192164265Y-121187756D01*
X192388532Y-121261830D01*
X192621625Y-121299909D01*
X192857807Y-121301056D01*
X193091259Y-121265241D01*
X193316235Y-121193348D01*
X193527194Y-121087145D01*
X193570322Y-121056128D01*
X193603714Y-121039095D01*
X193616634Y-121034814D01*
X193765956Y-120942712D01*
X193890012Y-120818656D01*
X193982114Y-120669334D01*
X193985738Y-120658394D01*
X194003480Y-120624027D01*
X194026510Y-120592653D01*
X194134756Y-120382735D01*
X194208830Y-120158468D01*
X194246909Y-119925375D01*
X194297064Y-109593508D01*
X194300867Y-109561881D01*
X194297636Y-109475583D01*
X194298056Y-109389194D01*
X194294302Y-109364732D01*
X194292956Y-109350567D01*
X193948878Y-100158751D01*
X193951551Y-100098266D01*
X193944181Y-100033278D01*
X193942032Y-99975862D01*
X193932725Y-99928619D01*
X193931181Y-99918643D01*
X193930393Y-99911692D01*
X193924938Y-99863587D01*
X193907514Y-99800630D01*
X193896385Y-99744131D01*
X193878027Y-99694084D01*
X193861941Y-99635960D01*
X193834955Y-99576662D01*
X193815049Y-99522394D01*
X193788989Y-99475659D01*
X192312391Y-96231017D01*
X192306385Y-96214958D01*
X191517725Y-93558418D01*
X191517517Y-93488550D01*
X191555116Y-93429659D01*
X191618584Y-93400444D01*
X191687772Y-93410181D01*
X191707215Y-93421201D01*
X191735416Y-93440739D01*
X191735420Y-93440741D01*
X191941997Y-93534573D01*
X191941998Y-93534573D01*
X191942000Y-93534574D01*
X192162017Y-93590013D01*
X192295264Y-93600500D01*
X192506166Y-93600500D01*
X192573205Y-93620185D01*
X192618960Y-93672989D01*
X192625773Y-93691788D01*
X193387261Y-96476621D01*
X194450202Y-100363896D01*
X194454506Y-100391964D01*
X194796264Y-109521790D01*
X194796350Y-109527030D01*
X194770979Y-114753757D01*
X194745944Y-119910812D01*
X194781759Y-120144260D01*
X194853649Y-120369228D01*
X194853650Y-120369230D01*
X194853652Y-120369235D01*
X194860449Y-120382736D01*
X194959854Y-120580193D01*
X195015624Y-120657742D01*
X195097751Y-120771943D01*
X195263946Y-120939758D01*
X195454347Y-121079510D01*
X195664265Y-121187756D01*
X195888532Y-121261830D01*
X196121625Y-121299909D01*
X196357807Y-121301056D01*
X196591259Y-121265241D01*
X196816235Y-121193348D01*
X197027194Y-121087145D01*
X197218943Y-120949249D01*
X197386758Y-120783054D01*
X197526510Y-120592653D01*
X197634756Y-120382735D01*
X197708830Y-120158468D01*
X197746909Y-119925375D01*
X197767737Y-115634931D01*
X197769602Y-115250639D01*
X199517500Y-115250639D01*
X199517500Y-115449361D01*
X199525055Y-115497061D01*
X199548587Y-115645637D01*
X199609993Y-115834629D01*
X199609994Y-115834632D01*
X199639587Y-115892710D01*
X199700213Y-116011694D01*
X199817019Y-116172464D01*
X199957536Y-116312981D01*
X200118306Y-116429787D01*
X200205149Y-116474035D01*
X200295367Y-116520005D01*
X200295370Y-116520006D01*
X200389866Y-116550709D01*
X200484364Y-116581413D01*
X200680639Y-116612500D01*
X200680640Y-116612500D01*
X200879360Y-116612500D01*
X200879361Y-116612500D01*
X201075636Y-116581413D01*
X201264632Y-116520005D01*
X201441694Y-116429787D01*
X201602464Y-116312981D01*
X201742981Y-116172464D01*
X201859787Y-116011694D01*
X201939515Y-115855218D01*
X201987490Y-115804423D01*
X202055311Y-115787628D01*
X202121446Y-115810165D01*
X202160484Y-115855218D01*
X202240213Y-116011694D01*
X202357019Y-116172464D01*
X202497536Y-116312981D01*
X202658306Y-116429787D01*
X202745149Y-116474035D01*
X202835367Y-116520005D01*
X202835370Y-116520006D01*
X202929866Y-116550709D01*
X203024364Y-116581413D01*
X203220639Y-116612500D01*
X203220640Y-116612500D01*
X203419360Y-116612500D01*
X203419361Y-116612500D01*
X203615636Y-116581413D01*
X203804632Y-116520005D01*
X203981694Y-116429787D01*
X204142464Y-116312981D01*
X204282981Y-116172464D01*
X204399787Y-116011694D01*
X204479796Y-115854667D01*
X204527769Y-115803872D01*
X204595590Y-115787077D01*
X204661725Y-115809614D01*
X204700765Y-115854668D01*
X204780641Y-116011432D01*
X204807730Y-116048715D01*
X204807731Y-116048716D01*
X205479000Y-115377447D01*
X205479000Y-115400160D01*
X205504964Y-115497061D01*
X205555124Y-115583940D01*
X205626060Y-115654876D01*
X205712939Y-115705036D01*
X205809840Y-115731000D01*
X205832553Y-115731000D01*
X205161283Y-116402268D01*
X205161283Y-116402269D01*
X205198567Y-116429358D01*
X205375562Y-116519542D01*
X205564477Y-116580924D01*
X205760679Y-116612000D01*
X205959321Y-116612000D01*
X206155520Y-116580924D01*
X206155523Y-116580924D01*
X206344437Y-116519542D01*
X206521425Y-116429362D01*
X206558716Y-116402268D01*
X205887448Y-115731000D01*
X205910160Y-115731000D01*
X206007061Y-115705036D01*
X206093940Y-115654876D01*
X206164876Y-115583940D01*
X206215036Y-115497061D01*
X206241000Y-115400160D01*
X206241000Y-115377447D01*
X206912268Y-116048715D01*
X206939364Y-116011422D01*
X207019234Y-115854669D01*
X207067208Y-115803872D01*
X207135029Y-115787077D01*
X207201164Y-115809614D01*
X207240203Y-115854667D01*
X207320213Y-116011694D01*
X207437019Y-116172464D01*
X207577536Y-116312981D01*
X207738306Y-116429787D01*
X207825149Y-116474035D01*
X207915367Y-116520005D01*
X207915370Y-116520006D01*
X208009866Y-116550709D01*
X208104364Y-116581413D01*
X208300639Y-116612500D01*
X208300640Y-116612500D01*
X208499360Y-116612500D01*
X208499361Y-116612500D01*
X208695636Y-116581413D01*
X208884632Y-116520005D01*
X209061694Y-116429787D01*
X209222464Y-116312981D01*
X209362981Y-116172464D01*
X209479787Y-116011694D01*
X209559515Y-115855218D01*
X209607490Y-115804423D01*
X209675311Y-115787628D01*
X209741446Y-115810165D01*
X209780484Y-115855218D01*
X209860213Y-116011694D01*
X209977019Y-116172464D01*
X210117536Y-116312981D01*
X210278306Y-116429787D01*
X210365149Y-116474035D01*
X210455367Y-116520005D01*
X210455370Y-116520006D01*
X210549866Y-116550709D01*
X210644364Y-116581413D01*
X210840639Y-116612500D01*
X210840640Y-116612500D01*
X211039360Y-116612500D01*
X211039361Y-116612500D01*
X211235636Y-116581413D01*
X211424632Y-116520005D01*
X211601694Y-116429787D01*
X211762464Y-116312981D01*
X211902981Y-116172464D01*
X212019787Y-116011694D01*
X212099796Y-115854667D01*
X212147769Y-115803872D01*
X212215590Y-115787077D01*
X212281725Y-115809614D01*
X212320765Y-115854668D01*
X212400641Y-116011432D01*
X212427730Y-116048715D01*
X212427731Y-116048716D01*
X213099000Y-115377447D01*
X213099000Y-115400160D01*
X213124964Y-115497061D01*
X213175124Y-115583940D01*
X213246060Y-115654876D01*
X213332939Y-115705036D01*
X213429840Y-115731000D01*
X213452553Y-115731000D01*
X212781283Y-116402268D01*
X212781283Y-116402269D01*
X212818567Y-116429358D01*
X212995562Y-116519542D01*
X213184477Y-116580924D01*
X213380679Y-116612000D01*
X213579321Y-116612000D01*
X213775520Y-116580924D01*
X213775523Y-116580924D01*
X213964437Y-116519542D01*
X214141425Y-116429362D01*
X214178716Y-116402268D01*
X213507448Y-115731000D01*
X213530160Y-115731000D01*
X213627061Y-115705036D01*
X213713940Y-115654876D01*
X213784876Y-115583940D01*
X213835036Y-115497061D01*
X213861000Y-115400160D01*
X213861000Y-115377447D01*
X214532268Y-116048715D01*
X214559364Y-116011422D01*
X214639234Y-115854669D01*
X214687208Y-115803872D01*
X214755029Y-115787077D01*
X214821164Y-115809614D01*
X214860203Y-115854667D01*
X214940213Y-116011694D01*
X215057019Y-116172464D01*
X215197536Y-116312981D01*
X215358306Y-116429787D01*
X215445149Y-116474035D01*
X215535367Y-116520005D01*
X215535370Y-116520006D01*
X215629866Y-116550709D01*
X215724364Y-116581413D01*
X215920639Y-116612500D01*
X215920640Y-116612500D01*
X216119360Y-116612500D01*
X216119361Y-116612500D01*
X216315636Y-116581413D01*
X216504632Y-116520005D01*
X216681694Y-116429787D01*
X216842464Y-116312981D01*
X216982981Y-116172464D01*
X217099787Y-116011694D01*
X217190005Y-115834632D01*
X217251413Y-115645636D01*
X217282500Y-115449361D01*
X217282500Y-115250639D01*
X217251413Y-115054364D01*
X217200918Y-114898955D01*
X217190006Y-114865370D01*
X217190005Y-114865367D01*
X217133136Y-114753757D01*
X217099787Y-114688306D01*
X216982981Y-114527536D01*
X216842464Y-114387019D01*
X216681694Y-114270213D01*
X216637363Y-114247625D01*
X216504632Y-114179994D01*
X216504629Y-114179993D01*
X216315637Y-114118587D01*
X216217498Y-114103043D01*
X216119361Y-114087500D01*
X215920639Y-114087500D01*
X215855214Y-114097862D01*
X215724362Y-114118587D01*
X215535370Y-114179993D01*
X215535367Y-114179994D01*
X215358305Y-114270213D01*
X215197533Y-114387021D01*
X215057021Y-114527533D01*
X214940213Y-114688305D01*
X214860204Y-114845331D01*
X214812229Y-114896127D01*
X214744408Y-114912922D01*
X214678273Y-114890384D01*
X214639234Y-114845331D01*
X214559358Y-114688567D01*
X214532268Y-114651283D01*
X213861000Y-115322551D01*
X213861000Y-115299840D01*
X213835036Y-115202939D01*
X213784876Y-115116060D01*
X213713940Y-115045124D01*
X213627061Y-114994964D01*
X213530160Y-114969000D01*
X213507447Y-114969000D01*
X214178716Y-114297731D01*
X214178715Y-114297730D01*
X214141432Y-114270641D01*
X213964437Y-114180457D01*
X213775522Y-114119075D01*
X213579321Y-114088000D01*
X213380679Y-114088000D01*
X213184479Y-114119075D01*
X213184476Y-114119075D01*
X212995562Y-114180457D01*
X212818564Y-114270643D01*
X212781283Y-114297729D01*
X212781282Y-114297730D01*
X213452554Y-114969000D01*
X213429840Y-114969000D01*
X213332939Y-114994964D01*
X213246060Y-115045124D01*
X213175124Y-115116060D01*
X213124964Y-115202939D01*
X213099000Y-115299840D01*
X213099000Y-115322552D01*
X212427730Y-114651282D01*
X212427729Y-114651283D01*
X212400641Y-114688566D01*
X212320764Y-114845332D01*
X212272790Y-114896127D01*
X212204969Y-114912922D01*
X212138834Y-114890384D01*
X212099796Y-114845332D01*
X212019787Y-114688306D01*
X211902981Y-114527536D01*
X211762464Y-114387019D01*
X211601694Y-114270213D01*
X211557363Y-114247625D01*
X211424632Y-114179994D01*
X211424629Y-114179993D01*
X211235637Y-114118587D01*
X211137498Y-114103043D01*
X211039361Y-114087500D01*
X210840639Y-114087500D01*
X210775214Y-114097862D01*
X210644362Y-114118587D01*
X210455370Y-114179993D01*
X210455367Y-114179994D01*
X210278305Y-114270213D01*
X210117533Y-114387021D01*
X209977021Y-114527533D01*
X209860213Y-114688305D01*
X209780485Y-114844780D01*
X209732510Y-114895576D01*
X209664689Y-114912371D01*
X209598554Y-114889833D01*
X209559515Y-114844780D01*
X209513136Y-114753757D01*
X209479787Y-114688306D01*
X209362981Y-114527536D01*
X209222464Y-114387019D01*
X209061694Y-114270213D01*
X209017363Y-114247625D01*
X208884632Y-114179994D01*
X208884629Y-114179993D01*
X208695637Y-114118587D01*
X208597498Y-114103043D01*
X208499361Y-114087500D01*
X208300639Y-114087500D01*
X208235214Y-114097862D01*
X208104362Y-114118587D01*
X207915370Y-114179993D01*
X207915367Y-114179994D01*
X207738305Y-114270213D01*
X207577533Y-114387021D01*
X207437021Y-114527533D01*
X207320213Y-114688305D01*
X207240204Y-114845331D01*
X207192229Y-114896127D01*
X207124408Y-114912922D01*
X207058273Y-114890384D01*
X207019234Y-114845331D01*
X206939358Y-114688567D01*
X206912268Y-114651283D01*
X206241000Y-115322551D01*
X206241000Y-115299840D01*
X206215036Y-115202939D01*
X206164876Y-115116060D01*
X206093940Y-115045124D01*
X206007061Y-114994964D01*
X205910160Y-114969000D01*
X205887447Y-114969000D01*
X206558716Y-114297731D01*
X206558715Y-114297730D01*
X206521432Y-114270641D01*
X206344437Y-114180457D01*
X206155522Y-114119075D01*
X205959321Y-114088000D01*
X205760679Y-114088000D01*
X205564479Y-114119075D01*
X205564476Y-114119075D01*
X205375562Y-114180457D01*
X205198564Y-114270643D01*
X205161283Y-114297729D01*
X205161282Y-114297730D01*
X205832554Y-114969000D01*
X205809840Y-114969000D01*
X205712939Y-114994964D01*
X205626060Y-115045124D01*
X205555124Y-115116060D01*
X205504964Y-115202939D01*
X205479000Y-115299840D01*
X205479000Y-115322552D01*
X204807730Y-114651282D01*
X204807729Y-114651283D01*
X204780641Y-114688566D01*
X204700764Y-114845332D01*
X204652790Y-114896127D01*
X204584969Y-114912922D01*
X204518834Y-114890384D01*
X204479796Y-114845332D01*
X204399787Y-114688306D01*
X204282981Y-114527536D01*
X204142464Y-114387019D01*
X203981694Y-114270213D01*
X203937363Y-114247625D01*
X203804632Y-114179994D01*
X203804629Y-114179993D01*
X203615637Y-114118587D01*
X203517498Y-114103043D01*
X203419361Y-114087500D01*
X203220639Y-114087500D01*
X203155214Y-114097862D01*
X203024362Y-114118587D01*
X202835370Y-114179993D01*
X202835367Y-114179994D01*
X202658305Y-114270213D01*
X202497533Y-114387021D01*
X202357021Y-114527533D01*
X202240213Y-114688305D01*
X202160485Y-114844780D01*
X202112510Y-114895576D01*
X202044689Y-114912371D01*
X201978554Y-114889833D01*
X201939515Y-114844780D01*
X201893136Y-114753757D01*
X201859787Y-114688306D01*
X201742981Y-114527536D01*
X201602464Y-114387019D01*
X201441694Y-114270213D01*
X201397363Y-114247625D01*
X201264632Y-114179994D01*
X201264629Y-114179993D01*
X201075637Y-114118587D01*
X200977498Y-114103043D01*
X200879361Y-114087500D01*
X200680639Y-114087500D01*
X200615214Y-114097862D01*
X200484362Y-114118587D01*
X200295370Y-114179993D01*
X200295367Y-114179994D01*
X200118305Y-114270213D01*
X199957533Y-114387021D01*
X199817021Y-114527533D01*
X199700213Y-114688305D01*
X199609994Y-114865367D01*
X199609993Y-114865370D01*
X199548587Y-115054362D01*
X199518367Y-115245165D01*
X199517500Y-115250639D01*
X197769602Y-115250639D01*
X197769629Y-115245165D01*
X197769918Y-115185491D01*
X197773056Y-114539193D01*
X197773055Y-114539190D01*
X197789853Y-111078653D01*
X197809863Y-111011713D01*
X197862889Y-110966215D01*
X197910331Y-110955308D01*
X199707429Y-110904296D01*
X199774999Y-110922070D01*
X199822233Y-110973555D01*
X199834135Y-111042403D01*
X199806925Y-111106757D01*
X199798630Y-111115924D01*
X199787021Y-111127533D01*
X199670213Y-111288305D01*
X199579994Y-111465367D01*
X199579993Y-111465370D01*
X199518587Y-111654362D01*
X199487500Y-111850639D01*
X199487500Y-112049360D01*
X199518587Y-112245637D01*
X199579993Y-112434629D01*
X199579994Y-112434632D01*
X199670213Y-112611694D01*
X199787019Y-112772464D01*
X199927536Y-112912981D01*
X200088306Y-113029787D01*
X200117021Y-113044418D01*
X200265367Y-113120005D01*
X200265370Y-113120006D01*
X200332376Y-113141777D01*
X200454364Y-113181413D01*
X200650639Y-113212500D01*
X200650640Y-113212500D01*
X200849360Y-113212500D01*
X200849361Y-113212500D01*
X201045636Y-113181413D01*
X201234632Y-113120005D01*
X201411694Y-113029787D01*
X201572464Y-112912981D01*
X201712981Y-112772464D01*
X201829787Y-112611694D01*
X201909515Y-112455218D01*
X201957490Y-112404423D01*
X202025311Y-112387628D01*
X202091446Y-112410165D01*
X202130484Y-112455218D01*
X202210213Y-112611694D01*
X202327019Y-112772464D01*
X202467536Y-112912981D01*
X202628306Y-113029787D01*
X202657021Y-113044418D01*
X202805367Y-113120005D01*
X202805370Y-113120006D01*
X202872376Y-113141777D01*
X202994364Y-113181413D01*
X203190639Y-113212500D01*
X203190640Y-113212500D01*
X203389360Y-113212500D01*
X203389361Y-113212500D01*
X203585636Y-113181413D01*
X203774632Y-113120005D01*
X203951694Y-113029787D01*
X204112464Y-112912981D01*
X204252981Y-112772464D01*
X204369787Y-112611694D01*
X204449515Y-112455218D01*
X204497490Y-112404423D01*
X204565311Y-112387628D01*
X204631446Y-112410165D01*
X204670484Y-112455218D01*
X204750213Y-112611694D01*
X204867019Y-112772464D01*
X205007536Y-112912981D01*
X205168306Y-113029787D01*
X205197021Y-113044418D01*
X205345367Y-113120005D01*
X205345370Y-113120006D01*
X205412376Y-113141777D01*
X205534364Y-113181413D01*
X205730639Y-113212500D01*
X205730640Y-113212500D01*
X205929360Y-113212500D01*
X205929361Y-113212500D01*
X206125636Y-113181413D01*
X206314632Y-113120005D01*
X206491694Y-113029787D01*
X206652464Y-112912981D01*
X206792981Y-112772464D01*
X206909787Y-112611694D01*
X206989515Y-112455218D01*
X207037490Y-112404423D01*
X207105311Y-112387628D01*
X207171446Y-112410165D01*
X207210484Y-112455218D01*
X207290213Y-112611694D01*
X207407019Y-112772464D01*
X207547536Y-112912981D01*
X207708306Y-113029787D01*
X207737021Y-113044418D01*
X207885367Y-113120005D01*
X207885370Y-113120006D01*
X207952376Y-113141777D01*
X208074364Y-113181413D01*
X208270639Y-113212500D01*
X208270640Y-113212500D01*
X208469360Y-113212500D01*
X208469361Y-113212500D01*
X208665636Y-113181413D01*
X208854632Y-113120005D01*
X209031694Y-113029787D01*
X209192464Y-112912981D01*
X209332981Y-112772464D01*
X209449787Y-112611694D01*
X209529515Y-112455218D01*
X209577490Y-112404423D01*
X209645311Y-112387628D01*
X209711446Y-112410165D01*
X209750484Y-112455218D01*
X209830213Y-112611694D01*
X209947019Y-112772464D01*
X210087536Y-112912981D01*
X210248306Y-113029787D01*
X210277021Y-113044418D01*
X210425367Y-113120005D01*
X210425370Y-113120006D01*
X210492376Y-113141777D01*
X210614364Y-113181413D01*
X210810639Y-113212500D01*
X210810640Y-113212500D01*
X211009360Y-113212500D01*
X211009361Y-113212500D01*
X211205636Y-113181413D01*
X211394632Y-113120005D01*
X211571694Y-113029787D01*
X211732464Y-112912981D01*
X211872981Y-112772464D01*
X211936803Y-112684620D01*
X211992131Y-112641955D01*
X212061745Y-112635976D01*
X212123540Y-112668581D01*
X212140943Y-112689707D01*
X212258219Y-112869296D01*
X212258226Y-112869305D01*
X212336156Y-112955413D01*
X212416707Y-113044418D01*
X212600633Y-113192587D01*
X212635327Y-113212500D01*
X212805466Y-113310155D01*
X212805470Y-113310156D01*
X212805474Y-113310159D01*
X212805482Y-113310162D01*
X213026179Y-113394237D01*
X213026182Y-113394238D01*
X213026185Y-113394239D01*
X213026187Y-113394239D01*
X213026189Y-113394240D01*
X213080066Y-113405549D01*
X213257332Y-113442758D01*
X213257335Y-113442758D01*
X213257340Y-113442759D01*
X213493216Y-113454519D01*
X213493218Y-113454518D01*
X213493222Y-113454519D01*
X213728049Y-113429235D01*
X213956028Y-113367527D01*
X214171549Y-113270914D01*
X214369302Y-113141777D01*
X214544418Y-112983294D01*
X214623232Y-112885458D01*
X214680616Y-112845603D01*
X214750441Y-112843098D01*
X214810536Y-112878740D01*
X214818281Y-112887909D01*
X214869908Y-112955406D01*
X214869913Y-112955410D01*
X214869915Y-112955413D01*
X215040972Y-113118243D01*
X215040975Y-113118245D01*
X215040978Y-113118248D01*
X215132579Y-113181412D01*
X215235417Y-113252325D01*
X215274236Y-113270914D01*
X215448436Y-113354334D01*
X215674790Y-113421764D01*
X215674797Y-113421765D01*
X215687943Y-113423516D01*
X215908905Y-113452954D01*
X216145017Y-113447136D01*
X216377312Y-113404454D01*
X216600071Y-113325958D01*
X216807807Y-113213582D01*
X216995406Y-113070092D01*
X217158248Y-112899022D01*
X217292325Y-112704582D01*
X217394334Y-112491564D01*
X217461764Y-112265210D01*
X217492954Y-112031095D01*
X217487136Y-111794983D01*
X217444454Y-111562688D01*
X217418781Y-111489833D01*
X214850118Y-104200385D01*
X214847451Y-104192816D01*
X214843069Y-104172219D01*
X214808248Y-104081564D01*
X214775958Y-103989929D01*
X214765933Y-103971398D01*
X214758383Y-103951740D01*
X214709814Y-103867658D01*
X214663582Y-103782193D01*
X214650778Y-103765454D01*
X214640248Y-103747223D01*
X214579132Y-103671784D01*
X214520092Y-103594594D01*
X214504828Y-103580064D01*
X214491575Y-103563705D01*
X214419391Y-103498737D01*
X214418134Y-103497540D01*
X214349026Y-103431755D01*
X214338284Y-103424348D01*
X214325725Y-103414433D01*
X214316027Y-103405705D01*
X214316024Y-103405702D01*
X214298613Y-103394400D01*
X214235961Y-103353731D01*
X214235961Y-103353732D01*
X214234530Y-103352803D01*
X214154582Y-103297675D01*
X214135587Y-103288578D01*
X214117917Y-103277109D01*
X214117913Y-103277107D01*
X214117911Y-103277106D01*
X214030746Y-103238319D01*
X214030745Y-103238319D01*
X214029162Y-103237614D01*
X213941564Y-103195666D01*
X213921379Y-103189652D01*
X213914054Y-103186393D01*
X213914052Y-103186391D01*
X213902141Y-103181092D01*
X213902134Y-103181089D01*
X213809968Y-103156413D01*
X213809968Y-103156412D01*
X213808267Y-103155956D01*
X213715210Y-103128236D01*
X213694339Y-103125455D01*
X213686592Y-103123381D01*
X213686590Y-103123381D01*
X213673993Y-103120008D01*
X213673980Y-103120006D01*
X213579118Y-103110055D01*
X213575681Y-103109646D01*
X213481097Y-103097046D01*
X213481095Y-103097046D01*
X213477801Y-103097127D01*
X213468039Y-103097367D01*
X213452059Y-103096727D01*
X207152921Y-102435978D01*
X207088301Y-102409407D01*
X207048304Y-102352118D01*
X207044240Y-102288463D01*
X207048700Y-102266042D01*
X207048700Y-102108358D01*
X207048700Y-102108355D01*
X207048699Y-102108353D01*
X207041745Y-102073392D01*
X207017937Y-101953703D01*
X206973465Y-101846337D01*
X206957597Y-101808027D01*
X206957590Y-101808014D01*
X206869989Y-101676911D01*
X206869986Y-101676907D01*
X206758492Y-101565413D01*
X206758488Y-101565410D01*
X206627385Y-101477809D01*
X206627372Y-101477802D01*
X206481701Y-101417464D01*
X206481691Y-101417461D01*
X206326349Y-101386561D01*
X206264438Y-101354176D01*
X206262860Y-101352625D01*
X205633556Y-100723321D01*
X205600071Y-100661998D01*
X205605055Y-100592306D01*
X205646927Y-100536373D01*
X205712391Y-100511956D01*
X205725806Y-100512004D01*
X205725806Y-100512000D01*
X205929321Y-100512000D01*
X206125520Y-100480924D01*
X206125523Y-100480924D01*
X206314437Y-100419542D01*
X206491425Y-100329362D01*
X206528715Y-100302268D01*
X205857447Y-99631000D01*
X205880160Y-99631000D01*
X205977061Y-99605036D01*
X206063940Y-99554876D01*
X206134876Y-99483940D01*
X206185036Y-99397061D01*
X206211000Y-99300160D01*
X206211000Y-99277447D01*
X206882268Y-99948715D01*
X206909364Y-99911422D01*
X206989234Y-99754669D01*
X207037208Y-99703872D01*
X207105029Y-99687077D01*
X207171164Y-99709614D01*
X207210203Y-99754667D01*
X207290213Y-99911694D01*
X207407019Y-100072464D01*
X207547536Y-100212981D01*
X207708306Y-100329787D01*
X207777411Y-100364998D01*
X207885367Y-100420005D01*
X207885370Y-100420006D01*
X207936781Y-100436710D01*
X208074364Y-100481413D01*
X208270639Y-100512500D01*
X208270640Y-100512500D01*
X208469360Y-100512500D01*
X208469361Y-100512500D01*
X208665636Y-100481413D01*
X208854632Y-100420005D01*
X209031694Y-100329787D01*
X209192464Y-100212981D01*
X209332981Y-100072464D01*
X209449787Y-99911694D01*
X209529515Y-99755218D01*
X209577490Y-99704423D01*
X209645311Y-99687628D01*
X209711446Y-99710165D01*
X209750484Y-99755218D01*
X209830213Y-99911694D01*
X209947019Y-100072464D01*
X210087536Y-100212981D01*
X210248306Y-100329787D01*
X210317411Y-100364998D01*
X210425367Y-100420005D01*
X210425370Y-100420006D01*
X210476781Y-100436710D01*
X210614364Y-100481413D01*
X210810639Y-100512500D01*
X210810640Y-100512500D01*
X211009360Y-100512500D01*
X211009361Y-100512500D01*
X211205636Y-100481413D01*
X211394632Y-100420005D01*
X211571694Y-100329787D01*
X211732464Y-100212981D01*
X211872981Y-100072464D01*
X211989787Y-99911694D01*
X212069796Y-99754667D01*
X212117769Y-99703872D01*
X212185590Y-99687077D01*
X212251725Y-99709614D01*
X212290765Y-99754668D01*
X212370641Y-99911432D01*
X212397730Y-99948715D01*
X212397731Y-99948716D01*
X213069000Y-99277447D01*
X213069000Y-99300160D01*
X213094964Y-99397061D01*
X213145124Y-99483940D01*
X213216060Y-99554876D01*
X213302939Y-99605036D01*
X213399840Y-99631000D01*
X213422553Y-99631000D01*
X212751283Y-100302268D01*
X212751283Y-100302269D01*
X212788567Y-100329358D01*
X212965562Y-100419542D01*
X213154477Y-100480924D01*
X213350679Y-100512000D01*
X213549321Y-100512000D01*
X213745520Y-100480924D01*
X213745523Y-100480924D01*
X213934437Y-100419542D01*
X214111425Y-100329362D01*
X214148716Y-100302268D01*
X213477448Y-99631000D01*
X213500160Y-99631000D01*
X213597061Y-99605036D01*
X213683940Y-99554876D01*
X213754876Y-99483940D01*
X213805036Y-99397061D01*
X213831000Y-99300160D01*
X213831000Y-99277447D01*
X214502268Y-99948715D01*
X214529364Y-99911422D01*
X214609234Y-99754669D01*
X214657208Y-99703872D01*
X214725029Y-99687077D01*
X214791164Y-99709614D01*
X214830203Y-99754667D01*
X214910213Y-99911694D01*
X215027019Y-100072464D01*
X215167536Y-100212981D01*
X215328306Y-100329787D01*
X215397411Y-100364998D01*
X215505367Y-100420005D01*
X215505370Y-100420006D01*
X215556781Y-100436710D01*
X215694364Y-100481413D01*
X215890639Y-100512500D01*
X215890640Y-100512500D01*
X216089360Y-100512500D01*
X216089361Y-100512500D01*
X216285636Y-100481413D01*
X216474632Y-100420005D01*
X216651694Y-100329787D01*
X216812464Y-100212981D01*
X216952981Y-100072464D01*
X217069787Y-99911694D01*
X217160005Y-99734632D01*
X217221413Y-99545636D01*
X217252500Y-99349361D01*
X217252500Y-99150639D01*
X217221413Y-98954364D01*
X217160005Y-98765368D01*
X217160005Y-98765367D01*
X217074283Y-98597130D01*
X217069787Y-98588306D01*
X216952981Y-98427536D01*
X216812464Y-98287019D01*
X216651694Y-98170213D01*
X216474632Y-98079994D01*
X216474629Y-98079993D01*
X216285637Y-98018587D01*
X216187498Y-98003043D01*
X216089361Y-97987500D01*
X215890639Y-97987500D01*
X215825214Y-97997862D01*
X215694362Y-98018587D01*
X215505370Y-98079993D01*
X215505367Y-98079994D01*
X215328305Y-98170213D01*
X215167533Y-98287021D01*
X215027021Y-98427533D01*
X214910213Y-98588305D01*
X214830204Y-98745331D01*
X214782229Y-98796127D01*
X214714408Y-98812922D01*
X214648273Y-98790384D01*
X214609234Y-98745331D01*
X214529358Y-98588567D01*
X214502268Y-98551283D01*
X213831000Y-99222551D01*
X213831000Y-99199840D01*
X213805036Y-99102939D01*
X213754876Y-99016060D01*
X213683940Y-98945124D01*
X213597061Y-98894964D01*
X213500160Y-98869000D01*
X213477447Y-98869000D01*
X214148716Y-98197731D01*
X214148715Y-98197730D01*
X214111432Y-98170641D01*
X213934437Y-98080457D01*
X213745522Y-98019075D01*
X213549321Y-97988000D01*
X213350679Y-97988000D01*
X213154479Y-98019075D01*
X213154476Y-98019075D01*
X212965562Y-98080457D01*
X212788564Y-98170643D01*
X212751283Y-98197729D01*
X212751282Y-98197730D01*
X213422554Y-98869000D01*
X213399840Y-98869000D01*
X213302939Y-98894964D01*
X213216060Y-98945124D01*
X213145124Y-99016060D01*
X213094964Y-99102939D01*
X213069000Y-99199840D01*
X213069000Y-99222552D01*
X212397730Y-98551282D01*
X212397729Y-98551283D01*
X212370641Y-98588566D01*
X212290764Y-98745332D01*
X212242790Y-98796127D01*
X212174969Y-98812922D01*
X212108834Y-98790384D01*
X212069796Y-98745332D01*
X211989787Y-98588306D01*
X211872981Y-98427536D01*
X211732464Y-98287019D01*
X211571694Y-98170213D01*
X211394632Y-98079994D01*
X211394629Y-98079993D01*
X211205637Y-98018587D01*
X211107498Y-98003043D01*
X211009361Y-97987500D01*
X210810639Y-97987500D01*
X210745214Y-97997862D01*
X210614362Y-98018587D01*
X210425370Y-98079993D01*
X210425367Y-98079994D01*
X210248305Y-98170213D01*
X210087533Y-98287021D01*
X209947021Y-98427533D01*
X209830213Y-98588305D01*
X209750485Y-98744780D01*
X209702510Y-98795576D01*
X209634689Y-98812371D01*
X209568554Y-98789833D01*
X209529515Y-98744780D01*
X209454283Y-98597130D01*
X209449787Y-98588306D01*
X209332981Y-98427536D01*
X209192464Y-98287019D01*
X209031694Y-98170213D01*
X208854632Y-98079994D01*
X208854629Y-98079993D01*
X208665637Y-98018587D01*
X208567498Y-98003043D01*
X208469361Y-97987500D01*
X208270639Y-97987500D01*
X208205214Y-97997862D01*
X208074362Y-98018587D01*
X207885370Y-98079993D01*
X207885367Y-98079994D01*
X207708305Y-98170213D01*
X207547533Y-98287021D01*
X207407021Y-98427533D01*
X207290213Y-98588305D01*
X207210204Y-98745331D01*
X207162229Y-98796127D01*
X207094408Y-98812922D01*
X207028273Y-98790384D01*
X206989234Y-98745331D01*
X206909358Y-98588567D01*
X206882268Y-98551283D01*
X206211000Y-99222551D01*
X206211000Y-99199840D01*
X206185036Y-99102939D01*
X206134876Y-99016060D01*
X206063940Y-98945124D01*
X205977061Y-98894964D01*
X205880160Y-98869000D01*
X205857446Y-98869000D01*
X206528715Y-98197730D01*
X206491432Y-98170641D01*
X206314437Y-98080457D01*
X206125522Y-98019075D01*
X205929321Y-97988000D01*
X205730679Y-97988000D01*
X205534479Y-98019075D01*
X205534476Y-98019075D01*
X205459118Y-98043561D01*
X205389277Y-98045556D01*
X205329444Y-98009475D01*
X205298616Y-97946774D01*
X205296800Y-97925630D01*
X205296800Y-97097640D01*
X205316485Y-97030601D01*
X205369289Y-96984846D01*
X205438447Y-96974902D01*
X205459119Y-96979709D01*
X205464363Y-96981413D01*
X205562501Y-96996956D01*
X205660639Y-97012500D01*
X205660640Y-97012500D01*
X205859360Y-97012500D01*
X205859361Y-97012500D01*
X205949803Y-96998175D01*
X206019095Y-97007129D01*
X206072547Y-97052125D01*
X206093187Y-97118877D01*
X206093200Y-97120648D01*
X206093200Y-97217246D01*
X206123961Y-97371889D01*
X206123964Y-97371901D01*
X206184302Y-97517572D01*
X206184309Y-97517585D01*
X206271910Y-97648688D01*
X206271913Y-97648692D01*
X206383407Y-97760186D01*
X206383411Y-97760189D01*
X206514514Y-97847790D01*
X206514527Y-97847797D01*
X206660198Y-97908135D01*
X206660203Y-97908137D01*
X206814853Y-97938899D01*
X206814856Y-97938900D01*
X206814858Y-97938900D01*
X206972544Y-97938900D01*
X206972545Y-97938899D01*
X207127197Y-97908137D01*
X207239866Y-97861467D01*
X207272872Y-97847797D01*
X207272872Y-97847796D01*
X207272879Y-97847794D01*
X207403989Y-97760189D01*
X207515489Y-97648689D01*
X207603094Y-97517579D01*
X207663437Y-97371897D01*
X207680715Y-97285035D01*
X207682788Y-97274616D01*
X207715173Y-97212705D01*
X207775889Y-97178131D01*
X207845658Y-97181870D01*
X207847464Y-97182523D01*
X207889222Y-97198002D01*
X208120797Y-97244434D01*
X208305281Y-97251965D01*
X208356778Y-97254068D01*
X208356779Y-97254067D01*
X208356784Y-97254068D01*
X208591373Y-97226667D01*
X208818788Y-97162906D01*
X209033428Y-97064355D01*
X209230009Y-96933440D01*
X209403690Y-96773385D01*
X209471205Y-96688011D01*
X209528228Y-96647640D01*
X209598027Y-96644505D01*
X209658441Y-96679605D01*
X209669451Y-96692974D01*
X209686461Y-96716848D01*
X209851912Y-96885398D01*
X210041692Y-97025990D01*
X210251130Y-97135164D01*
X210475067Y-97210229D01*
X210707984Y-97249339D01*
X210707990Y-97249340D01*
X210944164Y-97251531D01*
X211177772Y-97216750D01*
X211348866Y-97162908D01*
X211403059Y-97145854D01*
X211403059Y-97145853D01*
X211403065Y-97145852D01*
X211614492Y-97040585D01*
X211806848Y-96903539D01*
X211975398Y-96738088D01*
X212158499Y-96490925D01*
X212214220Y-96448777D01*
X212283886Y-96443443D01*
X212345376Y-96476621D01*
X212358453Y-96491855D01*
X212405317Y-96556358D01*
X212417019Y-96572464D01*
X212557536Y-96712981D01*
X212718306Y-96829787D01*
X212805149Y-96874035D01*
X212895367Y-96920005D01*
X212895370Y-96920006D01*
X212989866Y-96950709D01*
X213084364Y-96981413D01*
X213280639Y-97012500D01*
X213280640Y-97012500D01*
X213479360Y-97012500D01*
X213479361Y-97012500D01*
X213675636Y-96981413D01*
X213864632Y-96920005D01*
X214041694Y-96829787D01*
X214202464Y-96712981D01*
X214342981Y-96572464D01*
X214459787Y-96411694D01*
X214539515Y-96255218D01*
X214587490Y-96204423D01*
X214655311Y-96187628D01*
X214721446Y-96210165D01*
X214760484Y-96255218D01*
X214840213Y-96411694D01*
X214957019Y-96572464D01*
X215097536Y-96712981D01*
X215258306Y-96829787D01*
X215345149Y-96874035D01*
X215435367Y-96920005D01*
X215435370Y-96920006D01*
X215529866Y-96950709D01*
X215624364Y-96981413D01*
X215820639Y-97012500D01*
X215820640Y-97012500D01*
X216019360Y-97012500D01*
X216019361Y-97012500D01*
X216215636Y-96981413D01*
X216404632Y-96920005D01*
X216581694Y-96829787D01*
X216742464Y-96712981D01*
X216882981Y-96572464D01*
X216999787Y-96411694D01*
X217090005Y-96234632D01*
X217151413Y-96045636D01*
X217182500Y-95849361D01*
X217182500Y-95650639D01*
X217151413Y-95454364D01*
X217090005Y-95265368D01*
X217090005Y-95265367D01*
X217037536Y-95162392D01*
X216999787Y-95088306D01*
X216882981Y-94927536D01*
X216742464Y-94787019D01*
X216581694Y-94670213D01*
X216540935Y-94649445D01*
X216404632Y-94579994D01*
X216404629Y-94579993D01*
X216215637Y-94518587D01*
X216117498Y-94503043D01*
X216019361Y-94487500D01*
X215820639Y-94487500D01*
X215755214Y-94497862D01*
X215624362Y-94518587D01*
X215435370Y-94579993D01*
X215435367Y-94579994D01*
X215258305Y-94670213D01*
X215097533Y-94787021D01*
X214957021Y-94927533D01*
X214840213Y-95088305D01*
X214760485Y-95244780D01*
X214712510Y-95295576D01*
X214644689Y-95312371D01*
X214578554Y-95289833D01*
X214539515Y-95244780D01*
X214497536Y-95162392D01*
X214459787Y-95088306D01*
X214342981Y-94927536D01*
X214202464Y-94787019D01*
X214041694Y-94670213D01*
X213864632Y-94579995D01*
X213853940Y-94576521D01*
X213794414Y-94557179D01*
X213736739Y-94517741D01*
X213709541Y-94453382D01*
X213721456Y-94384536D01*
X213733091Y-94365441D01*
X219296337Y-86855826D01*
X219297653Y-86854085D01*
X222975416Y-82086614D01*
X222993480Y-82073495D01*
X223008393Y-82056882D01*
X223026230Y-82049710D01*
X223031949Y-82045558D01*
X223040749Y-82042785D01*
X223049762Y-82040308D01*
X223052797Y-82039999D01*
X223062039Y-82036936D01*
X223065153Y-82036081D01*
X223096983Y-82036638D01*
X223128823Y-82035543D01*
X223131684Y-82037245D01*
X223135012Y-82037304D01*
X223161497Y-82054987D01*
X223188865Y-82071274D01*
X223190350Y-82074252D01*
X223193120Y-82076101D01*
X223205844Y-82105305D01*
X223220058Y-82133794D01*
X223220519Y-82138987D01*
X223221028Y-82140155D01*
X223220766Y-82141770D01*
X223222000Y-82155651D01*
X223222000Y-87609402D01*
X223202315Y-87676441D01*
X223185681Y-87697083D01*
X220463981Y-90418782D01*
X220463979Y-90418785D01*
X220443531Y-90454203D01*
X220423082Y-90489622D01*
X220384923Y-90555715D01*
X220343999Y-90708443D01*
X220343999Y-90708445D01*
X220343999Y-90876546D01*
X220344000Y-90876559D01*
X220344000Y-94747830D01*
X220343999Y-94747848D01*
X220343999Y-94913554D01*
X220343998Y-94913554D01*
X220384923Y-95066285D01*
X220397637Y-95088306D01*
X220463977Y-95203212D01*
X220463981Y-95203217D01*
X220582849Y-95322085D01*
X220582855Y-95322090D01*
X221225527Y-95964762D01*
X221259012Y-96026085D01*
X221255777Y-96090760D01*
X221241876Y-96133542D01*
X221208600Y-96343642D01*
X221208600Y-96556357D01*
X221241876Y-96766455D01*
X221307606Y-96968755D01*
X221307607Y-96968758D01*
X221401584Y-97153196D01*
X221404179Y-97158288D01*
X221529210Y-97330378D01*
X221679622Y-97480790D01*
X221808689Y-97574563D01*
X221851713Y-97605822D01*
X221858963Y-97609516D01*
X221909758Y-97657490D01*
X221926553Y-97725311D01*
X221904015Y-97791446D01*
X221858963Y-97830484D01*
X221851713Y-97834177D01*
X221749918Y-97908137D01*
X221679622Y-97959210D01*
X221679620Y-97959212D01*
X221679619Y-97959212D01*
X221529212Y-98109619D01*
X221529212Y-98109620D01*
X221529210Y-98109622D01*
X221496908Y-98154082D01*
X221404179Y-98281711D01*
X221307607Y-98471241D01*
X221307606Y-98471244D01*
X221241876Y-98673544D01*
X221230506Y-98745331D01*
X221208600Y-98883642D01*
X221208600Y-99096358D01*
X221209642Y-99102939D01*
X221229180Y-99226296D01*
X221220225Y-99295590D01*
X221194388Y-99333375D01*
X220692139Y-99835625D01*
X220630816Y-99869110D01*
X220628650Y-99869561D01*
X220473308Y-99900461D01*
X220473298Y-99900464D01*
X220327627Y-99960802D01*
X220327614Y-99960809D01*
X220196511Y-100048410D01*
X220196507Y-100048413D01*
X220085013Y-100159907D01*
X220085010Y-100159911D01*
X219997409Y-100291014D01*
X219997402Y-100291027D01*
X219937064Y-100436698D01*
X219937061Y-100436710D01*
X219906300Y-100591353D01*
X219906300Y-100749046D01*
X219937061Y-100903689D01*
X219937064Y-100903701D01*
X219997402Y-101049372D01*
X219997409Y-101049385D01*
X220085010Y-101180488D01*
X220085013Y-101180492D01*
X220196507Y-101291986D01*
X220196511Y-101291989D01*
X220327614Y-101379590D01*
X220327627Y-101379597D01*
X220473298Y-101439935D01*
X220473303Y-101439937D01*
X220627953Y-101470699D01*
X220627956Y-101470700D01*
X220627958Y-101470700D01*
X220785644Y-101470700D01*
X220785645Y-101470699D01*
X220940297Y-101439937D01*
X221037649Y-101399612D01*
X221107116Y-101392144D01*
X221169596Y-101423419D01*
X221205248Y-101483508D01*
X221209100Y-101514174D01*
X221209100Y-101636317D01*
X221242364Y-101846337D01*
X221308070Y-102048563D01*
X221308071Y-102048566D01*
X221404609Y-102238029D01*
X221444083Y-102292361D01*
X221444085Y-102292361D01*
X221997917Y-101738528D01*
X222003777Y-101760395D01*
X222082361Y-101896505D01*
X222193495Y-102007639D01*
X222329605Y-102086223D01*
X222351469Y-102092081D01*
X221797636Y-102645914D01*
X221797637Y-102645915D01*
X221851970Y-102685390D01*
X222041433Y-102781928D01*
X222041436Y-102781929D01*
X222243662Y-102847635D01*
X222453683Y-102880900D01*
X222666317Y-102880900D01*
X222876337Y-102847635D01*
X223078563Y-102781929D01*
X223078565Y-102781928D01*
X223113503Y-102764126D01*
X223182172Y-102751229D01*
X223246913Y-102777504D01*
X223287171Y-102834610D01*
X223293800Y-102874610D01*
X223293800Y-111234542D01*
X223274115Y-111301581D01*
X223221311Y-111347336D01*
X223152153Y-111357280D01*
X223088597Y-111328255D01*
X223082119Y-111322223D01*
X222929786Y-111169890D01*
X222757820Y-111044951D01*
X222568414Y-110948444D01*
X222568413Y-110948443D01*
X222568412Y-110948443D01*
X222366243Y-110882754D01*
X222366241Y-110882753D01*
X222366240Y-110882753D01*
X222204957Y-110857208D01*
X222156287Y-110849500D01*
X221643713Y-110849500D01*
X221595042Y-110857208D01*
X221433760Y-110882753D01*
X221231585Y-110948444D01*
X221042179Y-111044951D01*
X220870213Y-111169890D01*
X220719890Y-111320213D01*
X220594951Y-111492179D01*
X220498444Y-111681585D01*
X220432753Y-111883760D01*
X220399500Y-112093713D01*
X220399500Y-112306286D01*
X220427713Y-112484420D01*
X220432754Y-112516243D01*
X220493949Y-112704582D01*
X220498444Y-112718414D01*
X220594951Y-112907820D01*
X220719890Y-113079786D01*
X220858705Y-113218601D01*
X220892190Y-113279924D01*
X220887206Y-113349616D01*
X220845334Y-113405549D01*
X220836121Y-113411821D01*
X220681342Y-113507289D01*
X220557289Y-113631342D01*
X220465187Y-113780663D01*
X220465186Y-113780666D01*
X220410001Y-113947203D01*
X220410001Y-113947204D01*
X220410000Y-113947204D01*
X220399500Y-114049983D01*
X220399500Y-115350001D01*
X220399501Y-115350018D01*
X220410000Y-115452796D01*
X220410001Y-115452799D01*
X220453483Y-115584017D01*
X220465186Y-115619334D01*
X220557288Y-115768656D01*
X220681344Y-115892712D01*
X220830666Y-115984814D01*
X220997203Y-116039999D01*
X221099991Y-116050500D01*
X222700008Y-116050499D01*
X222802797Y-116039999D01*
X222969334Y-115984814D01*
X223118656Y-115892712D01*
X223242712Y-115768656D01*
X223325194Y-115634929D01*
X223377140Y-115588206D01*
X223446103Y-115576983D01*
X223499623Y-115596925D01*
X223634714Y-115687190D01*
X223634727Y-115687197D01*
X223780398Y-115747535D01*
X223780403Y-115747537D01*
X223886570Y-115768655D01*
X223935053Y-115778299D01*
X223935056Y-115778300D01*
X223935058Y-115778300D01*
X224092744Y-115778300D01*
X224092745Y-115778299D01*
X224247397Y-115747537D01*
X224393079Y-115687194D01*
X224524189Y-115599589D01*
X224635689Y-115488089D01*
X224723294Y-115356979D01*
X224726182Y-115350008D01*
X224744881Y-115304862D01*
X224783637Y-115211297D01*
X224814400Y-115056642D01*
X224814400Y-114898958D01*
X224814400Y-114898955D01*
X224814399Y-114898953D01*
X224813546Y-114894666D01*
X224783637Y-114744303D01*
X224749627Y-114662196D01*
X224742159Y-114592730D01*
X224773434Y-114530250D01*
X224822510Y-114499634D01*
X224822069Y-114498568D01*
X224973372Y-114435897D01*
X224973372Y-114435896D01*
X224973379Y-114435894D01*
X225104489Y-114348289D01*
X225215989Y-114236789D01*
X225303594Y-114105679D01*
X225363937Y-113959997D01*
X225394700Y-113805342D01*
X225394838Y-113804650D01*
X225427223Y-113742739D01*
X225428720Y-113741214D01*
X226685513Y-112484421D01*
X226685516Y-112484420D01*
X226797320Y-112372616D01*
X226847439Y-112285804D01*
X226876377Y-112235685D01*
X226917300Y-112082958D01*
X226917300Y-111924843D01*
X226917300Y-95047743D01*
X226876377Y-94895016D01*
X226876377Y-94895015D01*
X226876377Y-94895014D01*
X226847439Y-94844895D01*
X226847437Y-94844892D01*
X226814025Y-94787019D01*
X226797320Y-94758084D01*
X226685516Y-94646280D01*
X226685515Y-94646279D01*
X226681185Y-94641949D01*
X226681174Y-94641939D01*
X226434472Y-94395237D01*
X226400987Y-94333914D01*
X226404221Y-94269240D01*
X226418124Y-94226454D01*
X226451400Y-94016358D01*
X226451400Y-93803642D01*
X226418124Y-93593546D01*
X226368475Y-93440740D01*
X226352393Y-93391244D01*
X226352392Y-93391241D01*
X226255820Y-93201711D01*
X226130790Y-93029622D01*
X225980378Y-92879210D01*
X225808288Y-92754179D01*
X225801039Y-92750485D01*
X225750243Y-92702514D01*
X225733446Y-92634693D01*
X225755981Y-92568557D01*
X225801040Y-92529514D01*
X225808288Y-92525821D01*
X225980378Y-92400790D01*
X226130790Y-92250378D01*
X226255821Y-92078288D01*
X226352392Y-91888758D01*
X226418124Y-91686454D01*
X226451400Y-91476358D01*
X226451400Y-91263642D01*
X226418124Y-91053546D01*
X226352392Y-90851242D01*
X226352392Y-90851241D01*
X226279632Y-90708443D01*
X226255821Y-90661712D01*
X226130790Y-90489622D01*
X225980378Y-90339210D01*
X225808288Y-90214179D01*
X225786772Y-90203216D01*
X225618758Y-90117607D01*
X225618755Y-90117606D01*
X225416455Y-90051876D01*
X225299208Y-90033306D01*
X225206358Y-90018600D01*
X224993642Y-90018600D01*
X224953253Y-90024997D01*
X224783544Y-90051876D01*
X224581244Y-90117606D01*
X224581241Y-90117607D01*
X224391711Y-90214179D01*
X224293527Y-90285514D01*
X224219622Y-90339210D01*
X224219620Y-90339212D01*
X224219619Y-90339212D01*
X224069212Y-90489619D01*
X224069212Y-90489620D01*
X224069210Y-90489622D01*
X224043574Y-90524907D01*
X223944177Y-90661713D01*
X223940484Y-90668963D01*
X223892510Y-90719758D01*
X223824689Y-90736553D01*
X223758554Y-90714015D01*
X223719516Y-90668963D01*
X223715822Y-90661713D01*
X223697039Y-90635861D01*
X223590790Y-90489622D01*
X223440378Y-90339210D01*
X223354333Y-90276694D01*
X223268286Y-90214177D01*
X223246772Y-90203216D01*
X223226321Y-90183901D01*
X223203800Y-90167043D01*
X223201259Y-90160231D01*
X223195976Y-90155242D01*
X223189214Y-90127939D01*
X223179382Y-90101579D01*
X223180927Y-90094476D01*
X223179180Y-90087422D01*
X223188253Y-90060797D01*
X223194233Y-90033306D01*
X223200452Y-90024997D01*
X223201717Y-90021287D01*
X223215372Y-90005063D01*
X223264420Y-89956016D01*
X223264421Y-89956013D01*
X224798506Y-88421928D01*
X224798511Y-88421924D01*
X224808714Y-88411720D01*
X224808716Y-88411720D01*
X224920520Y-88299916D01*
X224983630Y-88190606D01*
X224999577Y-88162985D01*
X225040500Y-88010257D01*
X225040500Y-87852143D01*
X225040500Y-69442660D01*
X225040501Y-69442647D01*
X225040501Y-69274544D01*
X225023776Y-69212127D01*
X224999577Y-69121816D01*
X224984215Y-69095208D01*
X224920524Y-68984890D01*
X224920518Y-68984882D01*
X222204590Y-66268955D01*
X222204588Y-66268952D01*
X222085717Y-66150081D01*
X222085716Y-66150080D01*
X221998904Y-66099960D01*
X221998904Y-66099959D01*
X221998900Y-66099958D01*
X221948785Y-66071023D01*
X221796057Y-66030099D01*
X221637943Y-66030099D01*
X221630347Y-66030099D01*
X221630331Y-66030100D01*
X221094066Y-66030100D01*
X221027027Y-66010415D01*
X221025175Y-66009202D01*
X220893485Y-65921209D01*
X220893472Y-65921202D01*
X220747801Y-65860864D01*
X220747789Y-65860861D01*
X220593145Y-65830100D01*
X220593142Y-65830100D01*
X220435458Y-65830100D01*
X220435455Y-65830100D01*
X220280810Y-65860861D01*
X220280798Y-65860864D01*
X220135127Y-65921202D01*
X220135114Y-65921209D01*
X220004011Y-66008810D01*
X220004007Y-66008813D01*
X219892513Y-66120307D01*
X219892510Y-66120311D01*
X219804909Y-66251414D01*
X219804902Y-66251427D01*
X219744564Y-66397098D01*
X219744561Y-66397110D01*
X219713800Y-66551753D01*
X219713800Y-66709446D01*
X219744561Y-66864089D01*
X219744564Y-66864101D01*
X219804902Y-67009772D01*
X219804909Y-67009785D01*
X219892510Y-67140888D01*
X219892513Y-67140892D01*
X220004007Y-67252386D01*
X220004011Y-67252389D01*
X220135114Y-67339990D01*
X220135127Y-67339997D01*
X220280798Y-67400335D01*
X220280803Y-67400337D01*
X220310976Y-67406339D01*
X220372887Y-67438723D01*
X220407461Y-67499438D01*
X220403722Y-67569208D01*
X220374467Y-67615637D01*
X220269889Y-67720215D01*
X220144951Y-67892179D01*
X220048444Y-68081585D01*
X220048443Y-68081587D01*
X220048443Y-68081588D01*
X220029008Y-68141401D01*
X219982753Y-68283760D01*
X219955823Y-68453789D01*
X219949500Y-68493713D01*
X219949500Y-68706287D01*
X219952186Y-68723246D01*
X219980101Y-68899496D01*
X219982754Y-68916243D01*
X220009955Y-68999960D01*
X220048444Y-69118414D01*
X220144951Y-69307820D01*
X220269890Y-69479786D01*
X220408705Y-69618601D01*
X220442190Y-69679924D01*
X220437206Y-69749616D01*
X220395334Y-69805549D01*
X220386121Y-69811821D01*
X220231342Y-69907289D01*
X220107289Y-70031342D01*
X220015187Y-70180663D01*
X220015186Y-70180666D01*
X219960001Y-70347203D01*
X219960001Y-70347204D01*
X219960000Y-70347204D01*
X219949500Y-70449983D01*
X219949500Y-71750001D01*
X219949501Y-71750018D01*
X219960000Y-71852796D01*
X219960001Y-71852799D01*
X220001687Y-71978596D01*
X220015186Y-72019334D01*
X220107288Y-72168656D01*
X220231344Y-72292712D01*
X220380666Y-72384814D01*
X220547203Y-72439999D01*
X220649991Y-72450500D01*
X222250008Y-72450499D01*
X222352797Y-72439999D01*
X222519334Y-72384814D01*
X222668656Y-72292712D01*
X222792712Y-72168656D01*
X222884814Y-72019334D01*
X222939999Y-71852797D01*
X222950500Y-71750009D01*
X222950499Y-70449992D01*
X222939999Y-70347203D01*
X222884814Y-70180666D01*
X222792712Y-70031344D01*
X222668656Y-69907288D01*
X222519334Y-69815186D01*
X222519333Y-69815185D01*
X222513878Y-69811821D01*
X222467154Y-69759873D01*
X222455931Y-69690910D01*
X222483775Y-69626828D01*
X222491272Y-69618623D01*
X222630104Y-69479792D01*
X222664347Y-69432661D01*
X222755048Y-69307820D01*
X222755047Y-69307820D01*
X222755051Y-69307816D01*
X222851557Y-69118412D01*
X222912632Y-68930440D01*
X222914184Y-68928171D01*
X222914381Y-68925426D01*
X222933792Y-68899496D01*
X222952070Y-68872766D01*
X222954604Y-68871694D01*
X222956253Y-68869493D01*
X222986587Y-68858178D01*
X223016428Y-68845568D01*
X223019139Y-68846037D01*
X223021717Y-68845076D01*
X223053361Y-68851959D01*
X223085275Y-68857483D01*
X223088124Y-68859522D01*
X223089990Y-68859928D01*
X223118244Y-68881079D01*
X223175802Y-68938637D01*
X223209287Y-68999960D01*
X223204303Y-69069652D01*
X223191223Y-69095208D01*
X223113112Y-69212109D01*
X223113102Y-69212127D01*
X223052764Y-69357798D01*
X223052761Y-69357810D01*
X223022000Y-69512453D01*
X223022000Y-69670146D01*
X223052761Y-69824789D01*
X223052764Y-69824801D01*
X223113102Y-69970472D01*
X223113109Y-69970485D01*
X223201102Y-70102174D01*
X223221980Y-70168851D01*
X223222000Y-70171065D01*
X223222000Y-76957198D01*
X223202315Y-77024237D01*
X223149511Y-77069992D01*
X223080353Y-77079936D01*
X223025117Y-77057518D01*
X223007818Y-77044950D01*
X222818414Y-76948444D01*
X222818413Y-76948443D01*
X222818412Y-76948443D01*
X222616243Y-76882754D01*
X222616241Y-76882753D01*
X222616240Y-76882753D01*
X222454957Y-76857208D01*
X222406287Y-76849500D01*
X221893713Y-76849500D01*
X221845042Y-76857208D01*
X221683760Y-76882753D01*
X221481585Y-76948444D01*
X221292179Y-77044951D01*
X221120213Y-77169890D01*
X220969890Y-77320213D01*
X220844951Y-77492179D01*
X220748444Y-77681585D01*
X220682753Y-77883760D01*
X220649500Y-78093713D01*
X220649500Y-78306286D01*
X220682140Y-78512371D01*
X220682754Y-78516243D01*
X220727632Y-78654364D01*
X220748444Y-78718414D01*
X220844951Y-78907820D01*
X220969890Y-79079786D01*
X221108705Y-79218601D01*
X221142190Y-79279924D01*
X221137206Y-79349616D01*
X221095334Y-79405549D01*
X221086121Y-79411821D01*
X220931342Y-79507289D01*
X220807289Y-79631342D01*
X220715187Y-79780663D01*
X220715185Y-79780668D01*
X220704512Y-79812878D01*
X220660001Y-79947203D01*
X220660001Y-79947204D01*
X220660000Y-79947204D01*
X220649500Y-80049983D01*
X220649500Y-80146221D01*
X220629815Y-80213260D01*
X220623681Y-80221961D01*
X216980302Y-84944857D01*
X216980301Y-84944856D01*
X216975074Y-84951630D01*
X216964603Y-84961912D01*
X216903024Y-85045034D01*
X216902274Y-85046007D01*
X216902273Y-85046008D01*
X216839799Y-85126992D01*
X216839797Y-85126996D01*
X216836841Y-85132406D01*
X216827667Y-85146753D01*
X213868664Y-89140999D01*
X213812941Y-89183150D01*
X213743275Y-89188483D01*
X213681785Y-89155305D01*
X213647994Y-89094150D01*
X213645130Y-89062136D01*
X213654069Y-88843216D01*
X213626668Y-88608626D01*
X213562907Y-88381212D01*
X213464355Y-88166571D01*
X213333440Y-87969991D01*
X213173385Y-87796310D01*
X213115458Y-87750500D01*
X212988137Y-87649811D01*
X212988132Y-87649808D01*
X212988130Y-87649806D01*
X212895164Y-87597555D01*
X212782245Y-87534089D01*
X212782246Y-87534089D01*
X212782238Y-87534085D01*
X212560778Y-87451998D01*
X212560775Y-87451997D01*
X212560774Y-87451997D01*
X212329205Y-87405566D01*
X212093220Y-87395930D01*
X212093216Y-87395931D01*
X211858626Y-87423332D01*
X211858621Y-87423333D01*
X211631216Y-87487091D01*
X211416575Y-87585643D01*
X211416573Y-87585644D01*
X211416572Y-87585645D01*
X211272718Y-87681446D01*
X211219988Y-87716562D01*
X211046310Y-87876615D01*
X211046305Y-87876620D01*
X210899811Y-88061862D01*
X210899803Y-88061874D01*
X207726296Y-93708245D01*
X207676290Y-93757042D01*
X207607840Y-93771056D01*
X207542680Y-93745840D01*
X207501496Y-93689398D01*
X207494200Y-93647490D01*
X207494200Y-87296396D01*
X207513885Y-87229357D01*
X207530514Y-87208720D01*
X210425473Y-84313760D01*
X210486794Y-84280277D01*
X210539521Y-84280841D01*
X210539552Y-84280651D01*
X210540843Y-84280855D01*
X210542099Y-84280869D01*
X210544352Y-84281409D01*
X210544364Y-84281413D01*
X210740639Y-84312500D01*
X210740640Y-84312500D01*
X210939360Y-84312500D01*
X210939361Y-84312500D01*
X211135636Y-84281413D01*
X211324632Y-84220005D01*
X211501694Y-84129787D01*
X211662464Y-84012981D01*
X211802981Y-83872464D01*
X211919787Y-83711694D01*
X211999796Y-83554667D01*
X212047769Y-83503872D01*
X212115590Y-83487077D01*
X212181725Y-83509614D01*
X212220765Y-83554668D01*
X212300641Y-83711432D01*
X212327730Y-83748715D01*
X212327731Y-83748716D01*
X212999000Y-83077447D01*
X212999000Y-83100160D01*
X213024964Y-83197061D01*
X213075124Y-83283940D01*
X213146060Y-83354876D01*
X213232939Y-83405036D01*
X213329840Y-83431000D01*
X213352553Y-83431000D01*
X212681283Y-84102268D01*
X212681283Y-84102269D01*
X212718567Y-84129358D01*
X212895562Y-84219542D01*
X213084477Y-84280924D01*
X213280679Y-84312000D01*
X213479321Y-84312000D01*
X213675520Y-84280924D01*
X213675523Y-84280924D01*
X213864437Y-84219542D01*
X214041425Y-84129362D01*
X214078716Y-84102268D01*
X213407448Y-83431000D01*
X213430160Y-83431000D01*
X213527061Y-83405036D01*
X213613940Y-83354876D01*
X213684876Y-83283940D01*
X213735036Y-83197061D01*
X213761000Y-83100160D01*
X213761000Y-83077447D01*
X214432268Y-83748715D01*
X214459364Y-83711422D01*
X214539234Y-83554669D01*
X214587208Y-83503872D01*
X214655029Y-83487077D01*
X214721164Y-83509614D01*
X214760203Y-83554667D01*
X214840213Y-83711694D01*
X214957019Y-83872464D01*
X215097536Y-84012981D01*
X215258306Y-84129787D01*
X215338425Y-84170610D01*
X215435367Y-84220005D01*
X215435370Y-84220006D01*
X215513449Y-84245375D01*
X215624364Y-84281413D01*
X215820639Y-84312500D01*
X215820640Y-84312500D01*
X216019360Y-84312500D01*
X216019361Y-84312500D01*
X216215636Y-84281413D01*
X216404632Y-84220005D01*
X216581694Y-84129787D01*
X216742464Y-84012981D01*
X216882981Y-83872464D01*
X216999787Y-83711694D01*
X217090005Y-83534632D01*
X217151413Y-83345636D01*
X217182500Y-83149361D01*
X217182500Y-82950639D01*
X217151413Y-82754364D01*
X217090005Y-82565368D01*
X217090005Y-82565367D01*
X217044035Y-82475149D01*
X216999787Y-82388306D01*
X216882981Y-82227536D01*
X216742464Y-82087019D01*
X216581694Y-81970213D01*
X216404632Y-81879994D01*
X216404629Y-81879993D01*
X216215637Y-81818587D01*
X216117498Y-81803043D01*
X216019361Y-81787500D01*
X215820639Y-81787500D01*
X215755214Y-81797862D01*
X215624362Y-81818587D01*
X215435370Y-81879993D01*
X215435367Y-81879994D01*
X215258305Y-81970213D01*
X215097533Y-82087021D01*
X214957021Y-82227533D01*
X214840213Y-82388305D01*
X214760204Y-82545331D01*
X214712229Y-82596127D01*
X214644408Y-82612922D01*
X214578273Y-82590384D01*
X214539234Y-82545331D01*
X214459358Y-82388567D01*
X214432268Y-82351283D01*
X213761000Y-83022551D01*
X213761000Y-82999840D01*
X213735036Y-82902939D01*
X213684876Y-82816060D01*
X213613940Y-82745124D01*
X213527061Y-82694964D01*
X213430160Y-82669000D01*
X213407447Y-82669000D01*
X214078716Y-81997731D01*
X214078715Y-81997730D01*
X214041432Y-81970641D01*
X213864437Y-81880457D01*
X213675522Y-81819075D01*
X213479321Y-81788000D01*
X213280679Y-81788000D01*
X213084479Y-81819075D01*
X213084476Y-81819075D01*
X212895562Y-81880457D01*
X212718564Y-81970643D01*
X212681283Y-81997729D01*
X212681282Y-81997730D01*
X213352554Y-82669000D01*
X213329840Y-82669000D01*
X213232939Y-82694964D01*
X213146060Y-82745124D01*
X213075124Y-82816060D01*
X213024964Y-82902939D01*
X212999000Y-82999840D01*
X212999000Y-83022552D01*
X212327730Y-82351282D01*
X212327729Y-82351283D01*
X212300641Y-82388566D01*
X212220764Y-82545332D01*
X212172790Y-82596127D01*
X212104969Y-82612922D01*
X212038834Y-82590384D01*
X211999796Y-82545332D01*
X211919787Y-82388306D01*
X211802981Y-82227536D01*
X211662464Y-82087019D01*
X211501694Y-81970213D01*
X211324632Y-81879994D01*
X211324629Y-81879993D01*
X211135637Y-81818587D01*
X211037498Y-81803043D01*
X210939361Y-81787500D01*
X210740639Y-81787500D01*
X210675214Y-81797862D01*
X210544362Y-81818587D01*
X210355370Y-81879993D01*
X210355367Y-81879994D01*
X210178305Y-81970213D01*
X210017533Y-82087021D01*
X209877021Y-82227533D01*
X209760213Y-82388305D01*
X209680485Y-82544780D01*
X209632510Y-82595576D01*
X209564689Y-82612371D01*
X209498554Y-82589833D01*
X209459515Y-82544780D01*
X209440179Y-82506832D01*
X209379787Y-82388306D01*
X209262981Y-82227536D01*
X209122464Y-82087019D01*
X208961694Y-81970213D01*
X208784632Y-81879994D01*
X208784629Y-81879993D01*
X208595637Y-81818587D01*
X208497498Y-81803043D01*
X208399361Y-81787500D01*
X208200639Y-81787500D01*
X208135214Y-81797862D01*
X208004362Y-81818587D01*
X207815370Y-81879993D01*
X207815367Y-81879994D01*
X207638305Y-81970213D01*
X207477533Y-82087021D01*
X207337021Y-82227533D01*
X207220213Y-82388305D01*
X207140204Y-82545331D01*
X207092229Y-82596127D01*
X207024408Y-82612922D01*
X206958273Y-82590384D01*
X206919234Y-82545331D01*
X206839358Y-82388567D01*
X206812268Y-82351283D01*
X206141000Y-83022553D01*
X206141000Y-82999840D01*
X206115036Y-82902939D01*
X206064876Y-82816060D01*
X205993940Y-82745124D01*
X205907061Y-82694964D01*
X205810160Y-82669000D01*
X205787447Y-82669000D01*
X206458716Y-81997731D01*
X206458715Y-81997730D01*
X206421432Y-81970641D01*
X206244437Y-81880457D01*
X206055522Y-81819075D01*
X205859321Y-81788000D01*
X205660679Y-81788000D01*
X205464479Y-81819075D01*
X205464476Y-81819075D01*
X205275562Y-81880457D01*
X205098564Y-81970643D01*
X205061283Y-81997729D01*
X205061282Y-81997730D01*
X205732554Y-82669000D01*
X205709840Y-82669000D01*
X205612939Y-82694964D01*
X205526060Y-82745124D01*
X205455124Y-82816060D01*
X205404964Y-82902939D01*
X205379000Y-82999840D01*
X205379000Y-83022552D01*
X204707730Y-82351282D01*
X204707729Y-82351283D01*
X204680641Y-82388566D01*
X204600764Y-82545332D01*
X204552790Y-82596127D01*
X204484969Y-82612922D01*
X204418834Y-82590384D01*
X204379796Y-82545332D01*
X204299787Y-82388306D01*
X204182981Y-82227536D01*
X204042464Y-82087019D01*
X203881694Y-81970213D01*
X203704632Y-81879994D01*
X203704629Y-81879993D01*
X203515637Y-81818587D01*
X203417498Y-81803043D01*
X203319361Y-81787500D01*
X203120639Y-81787500D01*
X203055214Y-81797862D01*
X202924362Y-81818587D01*
X202735370Y-81879993D01*
X202735367Y-81879994D01*
X202558305Y-81970213D01*
X202397533Y-82087021D01*
X202257021Y-82227533D01*
X202140213Y-82388305D01*
X202060485Y-82544780D01*
X202012510Y-82595576D01*
X201944689Y-82612371D01*
X201878554Y-82589833D01*
X201839515Y-82544780D01*
X201820179Y-82506832D01*
X201759787Y-82388306D01*
X201642981Y-82227536D01*
X201502464Y-82087019D01*
X201341694Y-81970213D01*
X201164632Y-81879994D01*
X201164629Y-81879993D01*
X200975637Y-81818587D01*
X200877498Y-81803043D01*
X200779361Y-81787500D01*
X200580639Y-81787500D01*
X200515214Y-81797862D01*
X200384362Y-81818587D01*
X200195370Y-81879993D01*
X200195367Y-81879994D01*
X200018305Y-81970213D01*
X199857533Y-82087021D01*
X199717021Y-82227533D01*
X199600213Y-82388305D01*
X199509994Y-82565367D01*
X199509993Y-82565370D01*
X199448587Y-82754362D01*
X199417500Y-82950639D01*
X199417500Y-83149360D01*
X199448587Y-83345637D01*
X199509993Y-83534629D01*
X199509994Y-83534632D01*
X199547526Y-83608291D01*
X199600213Y-83711694D01*
X199717019Y-83872464D01*
X199857536Y-84012981D01*
X200018306Y-84129787D01*
X200098425Y-84170610D01*
X200195367Y-84220005D01*
X200195370Y-84220006D01*
X200273449Y-84245375D01*
X200384364Y-84281413D01*
X200580639Y-84312500D01*
X200580640Y-84312500D01*
X200779360Y-84312500D01*
X200779361Y-84312500D01*
X200975636Y-84281413D01*
X201164632Y-84220005D01*
X201341694Y-84129787D01*
X201502464Y-84012981D01*
X201642981Y-83872464D01*
X201759787Y-83711694D01*
X201839515Y-83555218D01*
X201887490Y-83504423D01*
X201955311Y-83487628D01*
X202021446Y-83510165D01*
X202060484Y-83555218D01*
X202140213Y-83711694D01*
X202257019Y-83872464D01*
X202397536Y-84012981D01*
X202558306Y-84129787D01*
X202558313Y-84129790D01*
X202558770Y-84130071D01*
X202558910Y-84130225D01*
X202562248Y-84132651D01*
X202561739Y-84133351D01*
X202605655Y-84181874D01*
X202618000Y-84235810D01*
X202618000Y-87218402D01*
X202598315Y-87285441D01*
X202581681Y-87306083D01*
X201667681Y-88220082D01*
X201667677Y-88220087D01*
X201650698Y-88249498D01*
X201650697Y-88249500D01*
X201588623Y-88357015D01*
X201547699Y-88509743D01*
X201547699Y-88509745D01*
X201547699Y-88677846D01*
X201547700Y-88677859D01*
X201547700Y-88701884D01*
X201528015Y-88768923D01*
X201475211Y-88814678D01*
X201406053Y-88824622D01*
X201399509Y-88823501D01*
X201278846Y-88799500D01*
X201278842Y-88799500D01*
X201121158Y-88799500D01*
X201121155Y-88799500D01*
X200966510Y-88830261D01*
X200966498Y-88830264D01*
X200820827Y-88890602D01*
X200820814Y-88890609D01*
X200689711Y-88978210D01*
X200689707Y-88978213D01*
X200578213Y-89089707D01*
X200578210Y-89089711D01*
X200490609Y-89220814D01*
X200490602Y-89220827D01*
X200430264Y-89366498D01*
X200430261Y-89366510D01*
X200399500Y-89521153D01*
X200399500Y-89678846D01*
X200430261Y-89833489D01*
X200430264Y-89833501D01*
X200490602Y-89979172D01*
X200490609Y-89979185D01*
X200578210Y-90110288D01*
X200578213Y-90110292D01*
X200689707Y-90221786D01*
X200689711Y-90221789D01*
X200820814Y-90309390D01*
X200820827Y-90309397D01*
X200966498Y-90369735D01*
X200966503Y-90369737D01*
X201121153Y-90400499D01*
X201121156Y-90400500D01*
X201121158Y-90400500D01*
X201278844Y-90400500D01*
X201399508Y-90376498D01*
X201469100Y-90382725D01*
X201524277Y-90425588D01*
X201547522Y-90491477D01*
X201547700Y-90498115D01*
X201547700Y-94576521D01*
X201528015Y-94643560D01*
X201475211Y-94689315D01*
X201406053Y-94699259D01*
X201350815Y-94676839D01*
X201341697Y-94670215D01*
X201341696Y-94670214D01*
X201341694Y-94670213D01*
X201284968Y-94641309D01*
X201164632Y-94579994D01*
X201164629Y-94579993D01*
X200975637Y-94518587D01*
X200877498Y-94503043D01*
X200779361Y-94487500D01*
X200580639Y-94487500D01*
X200515214Y-94497862D01*
X200384362Y-94518587D01*
X200195370Y-94579993D01*
X200195367Y-94579994D01*
X200018305Y-94670213D01*
X199857533Y-94787021D01*
X199717021Y-94927533D01*
X199600213Y-95088305D01*
X199509994Y-95265367D01*
X199509993Y-95265370D01*
X199448587Y-95454362D01*
X199417500Y-95650639D01*
X199417500Y-95849360D01*
X199448587Y-96045637D01*
X199509993Y-96234629D01*
X199509994Y-96234632D01*
X199600213Y-96411694D01*
X199717019Y-96572464D01*
X199857536Y-96712981D01*
X200018306Y-96829787D01*
X200105149Y-96874035D01*
X200195367Y-96920005D01*
X200195370Y-96920006D01*
X200289866Y-96950709D01*
X200384364Y-96981413D01*
X200580639Y-97012500D01*
X200580640Y-97012500D01*
X200779360Y-97012500D01*
X200779361Y-97012500D01*
X200975636Y-96981413D01*
X201164632Y-96920005D01*
X201341694Y-96829787D01*
X201350812Y-96823162D01*
X201416615Y-96799681D01*
X201484670Y-96815503D01*
X201533367Y-96865606D01*
X201547700Y-96923478D01*
X201547700Y-98029139D01*
X201547699Y-98029143D01*
X201547699Y-98037169D01*
X201537443Y-98072088D01*
X201528014Y-98104200D01*
X201528011Y-98104202D01*
X201528010Y-98104207D01*
X201497069Y-98131014D01*
X201475210Y-98149955D01*
X201475207Y-98149955D01*
X201475203Y-98149959D01*
X201434955Y-98155743D01*
X201406052Y-98159899D01*
X201406047Y-98159897D01*
X201406044Y-98159898D01*
X201406033Y-98159892D01*
X201367404Y-98147646D01*
X201234632Y-98079994D01*
X201234629Y-98079993D01*
X201045637Y-98018587D01*
X200947498Y-98003043D01*
X200849361Y-97987500D01*
X200650639Y-97987500D01*
X200585214Y-97997862D01*
X200454362Y-98018587D01*
X200265370Y-98079993D01*
X200265367Y-98079994D01*
X200088305Y-98170213D01*
X199927533Y-98287021D01*
X199787021Y-98427533D01*
X199670213Y-98588305D01*
X199579994Y-98765367D01*
X199579993Y-98765370D01*
X199518587Y-98954362D01*
X199487500Y-99150639D01*
X199487500Y-99349360D01*
X199518587Y-99545637D01*
X199579993Y-99734629D01*
X199579994Y-99734632D01*
X199648515Y-99869110D01*
X199670213Y-99911694D01*
X199787019Y-100072464D01*
X199927536Y-100212981D01*
X200088306Y-100329787D01*
X200157411Y-100364998D01*
X200265367Y-100420005D01*
X200265370Y-100420006D01*
X200316781Y-100436710D01*
X200454364Y-100481413D01*
X200650639Y-100512500D01*
X200650640Y-100512500D01*
X200849360Y-100512500D01*
X200849361Y-100512500D01*
X201045636Y-100481413D01*
X201234632Y-100420005D01*
X201411694Y-100329787D01*
X201572464Y-100212981D01*
X201712981Y-100072464D01*
X201829787Y-99911694D01*
X201909515Y-99755218D01*
X201957490Y-99704423D01*
X202025311Y-99687628D01*
X202091446Y-99710165D01*
X202130484Y-99755218D01*
X202210213Y-99911694D01*
X202327019Y-100072464D01*
X202467536Y-100212981D01*
X202628306Y-100329787D01*
X202697411Y-100364998D01*
X202805367Y-100420005D01*
X202805370Y-100420006D01*
X202856781Y-100436710D01*
X202994364Y-100481413D01*
X203190639Y-100512500D01*
X203190640Y-100512500D01*
X203389360Y-100512500D01*
X203389361Y-100512500D01*
X203585636Y-100481413D01*
X203774632Y-100420005D01*
X203915505Y-100348225D01*
X203918210Y-100347717D01*
X203920289Y-100345917D01*
X203952338Y-100341308D01*
X203984174Y-100335330D01*
X203986723Y-100336364D01*
X203989447Y-100335973D01*
X204018910Y-100349428D01*
X204048914Y-100361606D01*
X204050499Y-100363854D01*
X204053003Y-100364998D01*
X204070512Y-100392242D01*
X204089172Y-100418712D01*
X204089745Y-100422170D01*
X204090777Y-100423776D01*
X204095800Y-100458711D01*
X204095800Y-100548630D01*
X204095799Y-100548648D01*
X204095799Y-100714354D01*
X204095798Y-100714354D01*
X204136723Y-100867085D01*
X204141261Y-100874944D01*
X204141262Y-100874950D01*
X204141264Y-100874950D01*
X204215777Y-101004012D01*
X204215781Y-101004017D01*
X204334649Y-101122885D01*
X204334655Y-101122890D01*
X205223834Y-102012069D01*
X205257319Y-102073392D01*
X205252335Y-102143084D01*
X205210463Y-102199017D01*
X205144999Y-102223434D01*
X205123217Y-102223073D01*
X199139093Y-101595367D01*
X198903232Y-101607776D01*
X198903229Y-101607777D01*
X198672217Y-101656931D01*
X198451739Y-101741617D01*
X198247221Y-101859753D01*
X198063706Y-102008424D01*
X197905698Y-102183980D01*
X197905694Y-102183986D01*
X197777114Y-102382073D01*
X197777107Y-102382085D01*
X197768329Y-102401812D01*
X197723088Y-102455057D01*
X197656242Y-102475390D01*
X197589015Y-102456356D01*
X197542751Y-102403998D01*
X197531129Y-102356038D01*
X197448959Y-100160927D01*
X197451703Y-100102901D01*
X197444261Y-100035425D01*
X197442032Y-99975862D01*
X197433185Y-99930954D01*
X197431597Y-99920593D01*
X197430616Y-99911694D01*
X197425813Y-99868140D01*
X197407930Y-99802740D01*
X197396385Y-99744131D01*
X197378780Y-99696138D01*
X195610695Y-93230089D01*
X195612000Y-93160234D01*
X195628374Y-93126771D01*
X195740740Y-92964582D01*
X195834574Y-92758000D01*
X195890013Y-92537983D01*
X195900500Y-92404736D01*
X195900500Y-92182855D01*
X195920185Y-92115816D01*
X195972989Y-92070061D01*
X195991200Y-92063410D01*
X196868284Y-91818978D01*
X196898254Y-91814297D01*
X196981897Y-91787315D01*
X197066579Y-91763716D01*
X197073964Y-91760338D01*
X197087578Y-91754114D01*
X197087578Y-91754113D01*
X197094172Y-91751098D01*
X197123033Y-91741789D01*
X197201414Y-91702061D01*
X197281373Y-91665500D01*
X197281373Y-91665499D01*
X197281377Y-91665498D01*
X197290196Y-91659643D01*
X197306650Y-91648722D01*
X197333702Y-91635012D01*
X197404917Y-91583502D01*
X197478157Y-91534892D01*
X197495165Y-91519266D01*
X197506359Y-91510128D01*
X197525074Y-91496593D01*
X197587356Y-91434574D01*
X197652088Y-91375109D01*
X197670941Y-91351345D01*
X197692436Y-91329942D01*
X197744252Y-91258940D01*
X197798882Y-91190083D01*
X197813785Y-91163662D01*
X197831667Y-91139161D01*
X197871739Y-91060927D01*
X197914924Y-90984372D01*
X197925510Y-90955947D01*
X197939340Y-90928948D01*
X197965904Y-90847777D01*
X197965905Y-90847777D01*
X197966684Y-90845395D01*
X197997358Y-90763040D01*
X198003368Y-90733306D01*
X198871146Y-88081759D01*
X198871887Y-88079567D01*
X198905616Y-87982923D01*
X198908230Y-87968448D01*
X198912802Y-87954480D01*
X198929203Y-87852335D01*
X198947597Y-87750500D01*
X198947729Y-87744355D01*
X198949269Y-87727364D01*
X198950246Y-87721283D01*
X198950462Y-87618954D01*
X198950491Y-87616586D01*
X198950647Y-87609402D01*
X199152702Y-78264371D01*
X199120806Y-78030351D01*
X199052694Y-77804202D01*
X198950043Y-77591492D01*
X198947735Y-77588167D01*
X198879213Y-77489435D01*
X198815380Y-77397459D01*
X198652022Y-77226881D01*
X198652021Y-77226880D01*
X198652017Y-77226876D01*
X198463992Y-77083958D01*
X198463991Y-77083957D01*
X198456504Y-77079936D01*
X198255912Y-76972205D01*
X198032923Y-76894384D01*
X197800504Y-76852403D01*
X197800490Y-76852402D01*
X197582413Y-76847688D01*
X197564371Y-76847298D01*
X197564370Y-76847298D01*
X197564368Y-76847298D01*
X197330354Y-76879193D01*
X197330346Y-76879195D01*
X197104203Y-76947305D01*
X197104201Y-76947306D01*
X196891490Y-77049957D01*
X196697457Y-77184621D01*
X196526876Y-77347982D01*
X196383958Y-77536007D01*
X196383953Y-77536015D01*
X196272205Y-77744087D01*
X196194384Y-77967076D01*
X196152403Y-78199495D01*
X196152402Y-78199509D01*
X195997936Y-85343550D01*
X195976807Y-85410149D01*
X195923026Y-85454752D01*
X195853669Y-85463198D01*
X195790755Y-85432806D01*
X195756925Y-85381828D01*
X195721267Y-85279921D01*
X195647620Y-85126992D01*
X195604285Y-85037005D01*
X195550633Y-84951619D01*
X195460838Y-84808711D01*
X195292734Y-84597915D01*
X195102085Y-84407266D01*
X194891289Y-84239162D01*
X194733613Y-84140087D01*
X194662994Y-84095714D01*
X194420082Y-83978734D01*
X194165602Y-83889687D01*
X194165594Y-83889684D01*
X193968446Y-83844687D01*
X193902732Y-83829688D01*
X193902728Y-83829687D01*
X193902719Y-83829686D01*
X193634813Y-83799500D01*
X193634809Y-83799500D01*
X193365191Y-83799500D01*
X193365186Y-83799500D01*
X193097280Y-83829686D01*
X193097268Y-83829688D01*
X192834405Y-83889684D01*
X192834397Y-83889687D01*
X192579917Y-83978734D01*
X192337005Y-84095714D01*
X192108712Y-84239161D01*
X191897915Y-84407265D01*
X191707265Y-84597915D01*
X191539161Y-84808712D01*
X191395714Y-85037005D01*
X191278734Y-85279917D01*
X191189687Y-85534397D01*
X191189684Y-85534406D01*
X191134189Y-85777544D01*
X191100080Y-85838522D01*
X191074819Y-85857613D01*
X190029596Y-86454884D01*
X190023938Y-86458116D01*
X189987969Y-86473932D01*
X189921579Y-86516607D01*
X189918786Y-86518204D01*
X189918770Y-86518214D01*
X189853011Y-86555791D01*
X189827428Y-86576318D01*
X189822349Y-86580393D01*
X189789292Y-86601644D01*
X189730380Y-86654194D01*
X189713955Y-86667374D01*
X189668804Y-86703604D01*
X189646750Y-86727877D01*
X189642370Y-86732700D01*
X189613040Y-86758864D01*
X189563083Y-86819972D01*
X189560904Y-86822371D01*
X189560902Y-86822372D01*
X189509982Y-86878422D01*
X189491997Y-86905846D01*
X189491998Y-86905847D01*
X189488426Y-86911292D01*
X189463553Y-86941720D01*
X189423760Y-87009907D01*
X189421982Y-87012619D01*
X189421980Y-87012620D01*
X189380466Y-87075929D01*
X189366991Y-87105833D01*
X189361041Y-87117381D01*
X189344511Y-87145708D01*
X189344506Y-87145719D01*
X189317044Y-87216274D01*
X189317045Y-87216275D01*
X189315867Y-87219301D01*
X189283444Y-87291262D01*
X189273105Y-87329168D01*
X189270742Y-87335240D01*
X189270742Y-87335241D01*
X189258847Y-87365804D01*
X189258846Y-87365808D01*
X189242758Y-87439798D01*
X189242757Y-87439797D01*
X189242061Y-87442993D01*
X189221300Y-87519123D01*
X189217018Y-87558182D01*
X189215633Y-87564554D01*
X189215633Y-87564559D01*
X188773191Y-89599504D01*
X188772586Y-89602146D01*
X188749129Y-89699707D01*
X188748490Y-89707792D01*
X188748489Y-89707791D01*
X188747827Y-89716160D01*
X188744327Y-89732263D01*
X188738539Y-89833667D01*
X188738431Y-89835034D01*
X188738426Y-89835123D01*
X188460811Y-93347670D01*
X188459134Y-93360418D01*
X188453010Y-93393577D01*
X188453009Y-93393590D01*
X188451097Y-93468328D01*
X188450753Y-93474923D01*
X188444860Y-93549507D01*
X188022104Y-93549507D01*
X188020057Y-93493645D01*
X187929149Y-92026616D01*
X187835907Y-90959397D01*
X187801217Y-90562348D01*
X187636346Y-89101810D01*
X187634670Y-89089711D01*
X187434631Y-87645849D01*
X187196212Y-86195471D01*
X186921236Y-84751578D01*
X186866211Y-84497715D01*
X186825261Y-84308786D01*
X186609879Y-83315091D01*
X186262340Y-81886927D01*
X185878841Y-80467995D01*
X185459625Y-79059202D01*
X185252685Y-78422986D01*
X185252685Y-78422975D01*
X185234241Y-78366277D01*
X185230975Y-78354174D01*
X185213571Y-78273696D01*
X185210776Y-78248728D01*
X185210438Y-78214647D01*
X185699509Y-78214647D01*
X185699509Y-78503090D01*
X185699510Y-78503107D01*
X185737158Y-78789075D01*
X185737159Y-78789080D01*
X185737160Y-78789086D01*
X185809534Y-79059189D01*
X185811818Y-79067713D01*
X185811823Y-79067729D01*
X185922200Y-79334205D01*
X185922208Y-79334221D01*
X186066429Y-79584017D01*
X186066440Y-79584033D01*
X186242033Y-79812871D01*
X186242039Y-79812878D01*
X186445999Y-80016838D01*
X186446006Y-80016844D01*
X186580450Y-80120006D01*
X186674853Y-80192444D01*
X186674860Y-80192448D01*
X186924656Y-80336669D01*
X186924672Y-80336677D01*
X187191148Y-80447054D01*
X187191154Y-80447055D01*
X187191164Y-80447060D01*
X187469792Y-80521718D01*
X187755781Y-80559369D01*
X187755788Y-80559369D01*
X188044230Y-80559369D01*
X188044237Y-80559369D01*
X188330226Y-80521718D01*
X188608854Y-80447060D01*
X188608866Y-80447054D01*
X188608869Y-80447054D01*
X188875345Y-80336677D01*
X188875348Y-80336675D01*
X188875354Y-80336673D01*
X189125165Y-80192444D01*
X189354013Y-80016843D01*
X189557983Y-79812873D01*
X189733584Y-79584025D01*
X189877813Y-79334214D01*
X189900301Y-79279924D01*
X189988194Y-79067729D01*
X189988194Y-79067726D01*
X189988200Y-79067714D01*
X190062858Y-78789086D01*
X190100509Y-78503097D01*
X190100509Y-78214641D01*
X190062858Y-77928652D01*
X189988200Y-77650024D01*
X189988195Y-77650014D01*
X189988194Y-77650008D01*
X189877817Y-77383532D01*
X189877809Y-77383516D01*
X189733588Y-77133720D01*
X189733584Y-77133713D01*
X189609655Y-76972205D01*
X189557984Y-76904866D01*
X189557978Y-76904859D01*
X189354018Y-76700899D01*
X189354011Y-76700893D01*
X189125173Y-76525300D01*
X189125171Y-76525298D01*
X189125165Y-76525294D01*
X189125160Y-76525291D01*
X189125157Y-76525289D01*
X188875361Y-76381068D01*
X188875345Y-76381060D01*
X188608869Y-76270683D01*
X188608857Y-76270679D01*
X188608854Y-76270678D01*
X188330226Y-76196020D01*
X188330220Y-76196019D01*
X188330215Y-76196018D01*
X188044247Y-76158370D01*
X188044242Y-76158369D01*
X188044237Y-76158369D01*
X187755781Y-76158369D01*
X187755775Y-76158369D01*
X187755770Y-76158370D01*
X187469802Y-76196018D01*
X187469795Y-76196019D01*
X187469792Y-76196020D01*
X187191164Y-76270678D01*
X187191148Y-76270683D01*
X186924672Y-76381060D01*
X186924656Y-76381068D01*
X186674860Y-76525289D01*
X186674844Y-76525300D01*
X186446006Y-76700893D01*
X186445999Y-76700899D01*
X186242039Y-76904859D01*
X186242033Y-76904866D01*
X186066440Y-77133704D01*
X186066429Y-77133720D01*
X185922208Y-77383516D01*
X185922200Y-77383532D01*
X185811823Y-77650008D01*
X185811818Y-77650024D01*
X185770507Y-77804201D01*
X185737161Y-77928649D01*
X185737158Y-77928662D01*
X185699510Y-78214630D01*
X185699509Y-78214647D01*
X185210438Y-78214647D01*
X185210022Y-78172732D01*
X185212321Y-78147709D01*
X185226906Y-78073136D01*
X185234205Y-78049086D01*
X185265939Y-77973222D01*
X185271378Y-77961874D01*
X185313821Y-77883760D01*
X188316273Y-72357892D01*
X191495732Y-72357892D01*
X191531091Y-72591401D01*
X191531094Y-72591416D01*
X191602549Y-72816526D01*
X191708339Y-73027688D01*
X191741623Y-73074161D01*
X191758515Y-73107352D01*
X191759022Y-73108881D01*
X191762486Y-73119334D01*
X191854588Y-73268656D01*
X191978644Y-73392712D01*
X192127966Y-73484814D01*
X192137133Y-73487851D01*
X192171698Y-73505738D01*
X192201860Y-73527967D01*
X192411568Y-73636620D01*
X192635690Y-73711130D01*
X192868710Y-73749663D01*
X193104888Y-73751268D01*
X193338410Y-73715907D01*
X193563526Y-73644451D01*
X193774691Y-73538659D01*
X193820122Y-73506120D01*
X193853319Y-73489225D01*
X193866634Y-73484814D01*
X194015956Y-73392712D01*
X194140012Y-73268656D01*
X194232114Y-73119334D01*
X194235579Y-73108873D01*
X194253462Y-73074315D01*
X194782873Y-72355965D01*
X194838490Y-72313680D01*
X194908142Y-72308174D01*
X194969714Y-72341199D01*
X195003657Y-72402270D01*
X195005810Y-72414782D01*
X195021502Y-72545748D01*
X195021504Y-72545760D01*
X195085939Y-72772977D01*
X195085941Y-72772983D01*
X195185131Y-72987331D01*
X195185132Y-72987332D01*
X195273609Y-73119337D01*
X195316629Y-73183520D01*
X195477199Y-73356725D01*
X195662888Y-73502678D01*
X195708193Y-73527965D01*
X195869125Y-73617788D01*
X196090820Y-73699213D01*
X196090823Y-73699214D01*
X196090826Y-73699215D01*
X206745037Y-75802560D01*
X206745039Y-75802560D01*
X206750960Y-75803729D01*
X206750967Y-75803729D01*
X210968411Y-76636324D01*
X211030369Y-76668620D01*
X211062515Y-76720243D01*
X211339769Y-77588167D01*
X211341417Y-77658017D01*
X211305041Y-77717671D01*
X211242187Y-77748187D01*
X211183331Y-77743831D01*
X211105637Y-77718587D01*
X211007498Y-77703043D01*
X210909361Y-77687500D01*
X210710639Y-77687500D01*
X210645214Y-77697862D01*
X210514362Y-77718587D01*
X210325370Y-77779993D01*
X210325367Y-77779994D01*
X210148305Y-77870213D01*
X209987533Y-77987021D01*
X209847021Y-78127533D01*
X209730213Y-78288305D01*
X209650485Y-78444780D01*
X209602510Y-78495576D01*
X209534689Y-78512371D01*
X209468554Y-78489833D01*
X209429515Y-78444780D01*
X209389531Y-78366307D01*
X209349787Y-78288306D01*
X209232981Y-78127536D01*
X209092464Y-77987019D01*
X208931694Y-77870213D01*
X208754632Y-77779994D01*
X208754629Y-77779993D01*
X208565637Y-77718587D01*
X208467498Y-77703043D01*
X208369361Y-77687500D01*
X208170639Y-77687500D01*
X208105214Y-77697862D01*
X207974362Y-77718587D01*
X207785370Y-77779993D01*
X207785367Y-77779994D01*
X207608305Y-77870213D01*
X207447533Y-77987021D01*
X207307021Y-78127533D01*
X207190213Y-78288305D01*
X207110485Y-78444780D01*
X207062510Y-78495576D01*
X206994689Y-78512371D01*
X206928554Y-78489833D01*
X206889515Y-78444780D01*
X206849531Y-78366307D01*
X206809787Y-78288306D01*
X206692981Y-78127536D01*
X206552464Y-77987019D01*
X206391694Y-77870213D01*
X206214632Y-77779994D01*
X206214629Y-77779993D01*
X206025637Y-77718587D01*
X205927498Y-77703043D01*
X205829361Y-77687500D01*
X205630639Y-77687500D01*
X205565214Y-77697862D01*
X205434362Y-77718587D01*
X205245370Y-77779993D01*
X205245367Y-77779994D01*
X205068305Y-77870213D01*
X204907533Y-77987021D01*
X204767021Y-78127533D01*
X204650213Y-78288305D01*
X204570485Y-78444780D01*
X204522510Y-78495576D01*
X204454689Y-78512371D01*
X204388554Y-78489833D01*
X204349515Y-78444780D01*
X204309531Y-78366307D01*
X204269787Y-78288306D01*
X204152981Y-78127536D01*
X204012464Y-77987019D01*
X203851694Y-77870213D01*
X203674632Y-77779994D01*
X203674629Y-77779993D01*
X203485637Y-77718587D01*
X203387498Y-77703043D01*
X203289361Y-77687500D01*
X203090639Y-77687500D01*
X203025214Y-77697862D01*
X202894362Y-77718587D01*
X202705370Y-77779993D01*
X202705367Y-77779994D01*
X202528305Y-77870213D01*
X202367533Y-77987021D01*
X202227021Y-78127533D01*
X202110213Y-78288305D01*
X202030485Y-78444780D01*
X201982510Y-78495576D01*
X201914689Y-78512371D01*
X201848554Y-78489833D01*
X201809515Y-78444780D01*
X201769531Y-78366307D01*
X201729787Y-78288306D01*
X201612981Y-78127536D01*
X201472464Y-77987019D01*
X201311694Y-77870213D01*
X201134632Y-77779994D01*
X201134629Y-77779993D01*
X200945637Y-77718587D01*
X200847498Y-77703043D01*
X200749361Y-77687500D01*
X200550639Y-77687500D01*
X200485214Y-77697862D01*
X200354362Y-77718587D01*
X200165370Y-77779993D01*
X200165367Y-77779994D01*
X199988305Y-77870213D01*
X199827533Y-77987021D01*
X199687021Y-78127533D01*
X199570213Y-78288305D01*
X199479994Y-78465367D01*
X199479993Y-78465370D01*
X199418587Y-78654362D01*
X199388175Y-78846372D01*
X199388174Y-78846378D01*
X199387500Y-78850639D01*
X199387500Y-78877624D01*
X199387500Y-79049360D01*
X199418587Y-79245637D01*
X199479993Y-79434629D01*
X199479994Y-79434632D01*
X199551340Y-79574654D01*
X199570213Y-79611694D01*
X199687019Y-79772464D01*
X199827536Y-79912981D01*
X199988306Y-80029787D01*
X200046319Y-80059346D01*
X200165367Y-80120005D01*
X200165370Y-80120006D01*
X200246053Y-80146221D01*
X200354364Y-80181413D01*
X200550639Y-80212500D01*
X200550640Y-80212500D01*
X200749360Y-80212500D01*
X200749361Y-80212500D01*
X200945636Y-80181413D01*
X201134632Y-80120005D01*
X201311694Y-80029787D01*
X201472464Y-79912981D01*
X201612981Y-79772464D01*
X201729787Y-79611694D01*
X201809515Y-79455218D01*
X201857490Y-79404423D01*
X201925311Y-79387628D01*
X201991446Y-79410165D01*
X202030484Y-79455218D01*
X202110213Y-79611694D01*
X202227019Y-79772464D01*
X202367536Y-79912981D01*
X202528306Y-80029787D01*
X202586319Y-80059346D01*
X202705367Y-80120005D01*
X202705370Y-80120006D01*
X202786053Y-80146221D01*
X202894364Y-80181413D01*
X203090639Y-80212500D01*
X203090640Y-80212500D01*
X203289360Y-80212500D01*
X203289361Y-80212500D01*
X203485636Y-80181413D01*
X203674632Y-80120005D01*
X203851694Y-80029787D01*
X204012464Y-79912981D01*
X204152981Y-79772464D01*
X204269787Y-79611694D01*
X204349515Y-79455218D01*
X204397490Y-79404423D01*
X204465311Y-79387628D01*
X204531446Y-79410165D01*
X204570484Y-79455218D01*
X204650213Y-79611694D01*
X204767019Y-79772464D01*
X204907536Y-79912981D01*
X205068306Y-80029787D01*
X205126319Y-80059346D01*
X205245367Y-80120005D01*
X205245370Y-80120006D01*
X205326053Y-80146221D01*
X205434364Y-80181413D01*
X205630639Y-80212500D01*
X205630640Y-80212500D01*
X205829360Y-80212500D01*
X205829361Y-80212500D01*
X206025636Y-80181413D01*
X206214632Y-80120005D01*
X206391694Y-80029787D01*
X206552464Y-79912981D01*
X206692981Y-79772464D01*
X206809787Y-79611694D01*
X206889515Y-79455218D01*
X206937490Y-79404423D01*
X207005311Y-79387628D01*
X207071446Y-79410165D01*
X207110484Y-79455218D01*
X207190213Y-79611694D01*
X207307019Y-79772464D01*
X207447536Y-79912981D01*
X207608306Y-80029787D01*
X207666319Y-80059346D01*
X207785367Y-80120005D01*
X207785370Y-80120006D01*
X207866053Y-80146221D01*
X207974364Y-80181413D01*
X208170639Y-80212500D01*
X208170640Y-80212500D01*
X208369360Y-80212500D01*
X208369361Y-80212500D01*
X208565636Y-80181413D01*
X208754632Y-80120005D01*
X208931694Y-80029787D01*
X209092464Y-79912981D01*
X209232981Y-79772464D01*
X209349787Y-79611694D01*
X209429515Y-79455218D01*
X209477490Y-79404423D01*
X209545311Y-79387628D01*
X209611446Y-79410165D01*
X209650484Y-79455218D01*
X209730213Y-79611694D01*
X209847019Y-79772464D01*
X209987536Y-79912981D01*
X210148306Y-80029787D01*
X210206319Y-80059346D01*
X210325367Y-80120005D01*
X210325370Y-80120006D01*
X210406053Y-80146221D01*
X210514364Y-80181413D01*
X210710639Y-80212500D01*
X210710640Y-80212500D01*
X210909360Y-80212500D01*
X210909361Y-80212500D01*
X211105636Y-80181413D01*
X211294632Y-80120005D01*
X211471694Y-80029787D01*
X211632464Y-79912981D01*
X211772981Y-79772464D01*
X211837186Y-79684092D01*
X211892513Y-79641429D01*
X211962126Y-79635450D01*
X212023922Y-79668055D01*
X212048264Y-79701232D01*
X212062772Y-79730058D01*
X212093262Y-79772464D01*
X212194290Y-79912978D01*
X212200648Y-79921820D01*
X212366824Y-80089654D01*
X212366827Y-80089656D01*
X212557200Y-80229418D01*
X212557216Y-80229428D01*
X212617002Y-80260265D01*
X212767117Y-80337693D01*
X212874480Y-80373167D01*
X212991373Y-80411791D01*
X212991374Y-80411791D01*
X212991377Y-80411792D01*
X213224467Y-80449895D01*
X213290072Y-80450220D01*
X213460634Y-80451067D01*
X213460634Y-80451066D01*
X213460647Y-80451067D01*
X213680601Y-80417346D01*
X213694098Y-80415278D01*
X213694098Y-80415277D01*
X213694104Y-80415277D01*
X213919087Y-80343407D01*
X214130058Y-80237228D01*
X214321821Y-80099352D01*
X214489654Y-79933175D01*
X214518059Y-79894483D01*
X214573598Y-79852094D01*
X214643240Y-79846460D01*
X214704873Y-79879372D01*
X214708731Y-79883331D01*
X214711731Y-79886551D01*
X214711735Y-79886556D01*
X214872750Y-80059346D01*
X215058815Y-80204821D01*
X215265346Y-80319398D01*
X215487258Y-80400257D01*
X215530902Y-80408756D01*
X215719072Y-80445402D01*
X215719077Y-80445402D01*
X215719086Y-80445404D01*
X215915054Y-80452316D01*
X215955117Y-80453730D01*
X215955118Y-80453729D01*
X215955123Y-80453730D01*
X216189556Y-80425029D01*
X216416614Y-80360008D01*
X216630704Y-80260268D01*
X216826556Y-80128265D01*
X216999346Y-79967249D01*
X217144821Y-79781185D01*
X217259398Y-79574654D01*
X217340257Y-79352742D01*
X217385404Y-79120914D01*
X217393731Y-78884877D01*
X217365029Y-78650444D01*
X217342924Y-78573253D01*
X215898137Y-73527965D01*
X215464870Y-72014969D01*
X215458597Y-71978596D01*
X215432399Y-71901576D01*
X215410008Y-71823386D01*
X215397254Y-71796009D01*
X215392263Y-71783582D01*
X215382539Y-71754994D01*
X215379908Y-71750001D01*
X215346034Y-71685715D01*
X215343346Y-71680294D01*
X215310270Y-71609298D01*
X215310269Y-71609296D01*
X215293384Y-71584244D01*
X215289636Y-71578683D01*
X215272437Y-71546043D01*
X215223739Y-71480912D01*
X215178265Y-71413444D01*
X215157674Y-71391347D01*
X215153097Y-71386436D01*
X215131005Y-71356888D01*
X215072722Y-71300182D01*
X215070648Y-71297956D01*
X215070647Y-71297955D01*
X215017252Y-71240656D01*
X215017251Y-71240655D01*
X215017250Y-71240654D01*
X214988171Y-71217919D01*
X214961723Y-71192186D01*
X214895273Y-71145285D01*
X214892881Y-71143415D01*
X214892870Y-71143407D01*
X214831185Y-71095179D01*
X214804772Y-71080525D01*
X214793434Y-71073407D01*
X214768773Y-71056001D01*
X214768754Y-71055990D01*
X214698489Y-71021392D01*
X214698489Y-71021391D01*
X214695736Y-71020035D01*
X214624654Y-70980602D01*
X214589998Y-70967974D01*
X214583987Y-70965014D01*
X214583972Y-70965008D01*
X214556872Y-70951665D01*
X214482068Y-70928488D01*
X214479157Y-70927586D01*
X214402742Y-70899743D01*
X214366513Y-70892687D01*
X214331265Y-70881767D01*
X214253764Y-70870578D01*
X214247781Y-70869564D01*
X214170916Y-70854596D01*
X214140731Y-70853530D01*
X214127391Y-70852335D01*
X195180908Y-68117279D01*
X195179629Y-68117094D01*
X195078291Y-68100337D01*
X195062813Y-68100231D01*
X195054418Y-68099019D01*
X195054416Y-68099018D01*
X195047518Y-68098023D01*
X195047493Y-68098021D01*
X194946096Y-68099411D01*
X194943556Y-68099420D01*
X194842112Y-68098732D01*
X194842109Y-68098732D01*
X194835192Y-68099779D01*
X194818352Y-68101163D01*
X194811343Y-68101259D01*
X194811342Y-68101259D01*
X194711345Y-68118505D01*
X194710099Y-68118721D01*
X194608590Y-68134093D01*
X194593847Y-68138771D01*
X194585492Y-68140213D01*
X194585491Y-68140212D01*
X194578602Y-68141401D01*
X194578593Y-68141403D01*
X194482545Y-68174073D01*
X194482544Y-68174072D01*
X194481232Y-68174518D01*
X194383474Y-68205549D01*
X194369648Y-68212474D01*
X194361622Y-68215205D01*
X194361618Y-68215207D01*
X194354999Y-68217458D01*
X194354994Y-68217460D01*
X194265255Y-68264745D01*
X194262995Y-68265907D01*
X194172303Y-68311343D01*
X194166609Y-68315421D01*
X194159721Y-68320353D01*
X194146043Y-68327562D01*
X194063869Y-68389003D01*
X194062809Y-68389763D01*
X193980299Y-68448858D01*
X193980289Y-68448866D01*
X193975299Y-68453789D01*
X193975298Y-68453788D01*
X193969264Y-68459739D01*
X193956888Y-68468995D01*
X193885358Y-68542511D01*
X193884411Y-68543447D01*
X193884365Y-68543495D01*
X193812153Y-68614733D01*
X193812146Y-68614742D01*
X193808001Y-68620366D01*
X193797073Y-68633251D01*
X193792193Y-68638267D01*
X193792186Y-68638276D01*
X193733667Y-68721185D01*
X193732180Y-68723246D01*
X192695844Y-70129437D01*
X192695838Y-70129446D01*
X191971040Y-71112913D01*
X191958902Y-71127027D01*
X191854591Y-71231340D01*
X191854589Y-71231342D01*
X191854588Y-71231344D01*
X191813502Y-71297955D01*
X191762484Y-71380669D01*
X191762482Y-71380673D01*
X191759508Y-71389648D01*
X191741628Y-71424199D01*
X191719038Y-71454851D01*
X191719035Y-71454856D01*
X191719033Y-71454860D01*
X191671790Y-71546043D01*
X191610379Y-71664569D01*
X191535870Y-71888688D01*
X191497336Y-72121716D01*
X191495732Y-72357892D01*
X188316273Y-72357892D01*
X190836135Y-67720208D01*
X190839851Y-67713368D01*
X190863394Y-67670037D01*
X190870284Y-67658825D01*
X190919354Y-67587748D01*
X190936547Y-67567777D01*
X190994676Y-67513244D01*
X191015708Y-67497355D01*
X191059950Y-67470809D01*
X191076301Y-67462575D01*
X191078173Y-67461798D01*
X191078187Y-67461795D01*
X191110994Y-67442852D01*
X191120847Y-67437740D01*
X191155205Y-67421821D01*
X191155206Y-67421819D01*
X191165094Y-67417238D01*
X191165116Y-67417224D01*
X193898489Y-66150639D01*
X199387500Y-66150639D01*
X199387500Y-66349360D01*
X199418587Y-66545637D01*
X199479993Y-66734629D01*
X199479994Y-66734632D01*
X199516439Y-66806158D01*
X199570213Y-66911694D01*
X199687019Y-67072464D01*
X199827536Y-67212981D01*
X199988306Y-67329787D01*
X200075149Y-67374035D01*
X200165367Y-67420005D01*
X200165370Y-67420006D01*
X200227153Y-67440080D01*
X200354364Y-67481413D01*
X200550639Y-67512500D01*
X200550640Y-67512500D01*
X200749360Y-67512500D01*
X200749361Y-67512500D01*
X200945636Y-67481413D01*
X201134632Y-67420005D01*
X201311694Y-67329787D01*
X201472464Y-67212981D01*
X201612981Y-67072464D01*
X201729787Y-66911694D01*
X201809515Y-66755218D01*
X201857490Y-66704423D01*
X201925311Y-66687628D01*
X201991446Y-66710165D01*
X202030484Y-66755218D01*
X202110213Y-66911694D01*
X202227019Y-67072464D01*
X202367536Y-67212981D01*
X202528306Y-67329787D01*
X202615149Y-67374035D01*
X202705367Y-67420005D01*
X202705370Y-67420006D01*
X202767153Y-67440080D01*
X202894364Y-67481413D01*
X203090639Y-67512500D01*
X203090640Y-67512500D01*
X203289360Y-67512500D01*
X203289361Y-67512500D01*
X203485636Y-67481413D01*
X203674632Y-67420005D01*
X203851694Y-67329787D01*
X204012464Y-67212981D01*
X204152981Y-67072464D01*
X204269787Y-66911694D01*
X204349796Y-66754667D01*
X204397769Y-66703872D01*
X204465590Y-66687077D01*
X204531725Y-66709614D01*
X204570765Y-66754668D01*
X204650641Y-66911432D01*
X204677730Y-66948715D01*
X204677731Y-66948716D01*
X205349000Y-66277447D01*
X205349000Y-66300160D01*
X205374964Y-66397061D01*
X205425124Y-66483940D01*
X205496060Y-66554876D01*
X205582939Y-66605036D01*
X205679840Y-66631000D01*
X205702553Y-66631000D01*
X205031283Y-67302268D01*
X205031283Y-67302269D01*
X205068567Y-67329358D01*
X205245562Y-67419542D01*
X205434477Y-67480924D01*
X205630679Y-67512000D01*
X205829321Y-67512000D01*
X206025520Y-67480924D01*
X206025523Y-67480924D01*
X206214437Y-67419542D01*
X206391425Y-67329362D01*
X206428716Y-67302268D01*
X205757448Y-66631000D01*
X205780160Y-66631000D01*
X205877061Y-66605036D01*
X205963940Y-66554876D01*
X206034876Y-66483940D01*
X206085036Y-66397061D01*
X206111000Y-66300160D01*
X206111000Y-66277447D01*
X206782268Y-66948715D01*
X206809364Y-66911422D01*
X206889234Y-66754669D01*
X206937208Y-66703872D01*
X207005029Y-66687077D01*
X207071164Y-66709614D01*
X207110203Y-66754667D01*
X207190213Y-66911694D01*
X207307019Y-67072464D01*
X207447536Y-67212981D01*
X207608306Y-67329787D01*
X207695149Y-67374035D01*
X207785367Y-67420005D01*
X207785370Y-67420006D01*
X207847153Y-67440080D01*
X207974364Y-67481413D01*
X208170639Y-67512500D01*
X208170640Y-67512500D01*
X208369360Y-67512500D01*
X208369361Y-67512500D01*
X208565636Y-67481413D01*
X208754632Y-67420005D01*
X208931694Y-67329787D01*
X209092464Y-67212981D01*
X209232981Y-67072464D01*
X209349787Y-66911694D01*
X209429515Y-66755218D01*
X209477490Y-66704423D01*
X209545311Y-66687628D01*
X209611446Y-66710165D01*
X209650484Y-66755218D01*
X209730213Y-66911694D01*
X209847019Y-67072464D01*
X209987536Y-67212981D01*
X210148306Y-67329787D01*
X210235149Y-67374035D01*
X210325367Y-67420005D01*
X210325370Y-67420006D01*
X210387153Y-67440080D01*
X210514364Y-67481413D01*
X210710639Y-67512500D01*
X210710640Y-67512500D01*
X210909360Y-67512500D01*
X210909361Y-67512500D01*
X211105636Y-67481413D01*
X211294632Y-67420005D01*
X211471694Y-67329787D01*
X211632464Y-67212981D01*
X211772981Y-67072464D01*
X211889787Y-66911694D01*
X211969796Y-66754667D01*
X212017769Y-66703872D01*
X212085590Y-66687077D01*
X212151725Y-66709614D01*
X212190765Y-66754668D01*
X212270641Y-66911432D01*
X212297730Y-66948715D01*
X212297731Y-66948716D01*
X212969000Y-66277447D01*
X212969000Y-66300160D01*
X212994964Y-66397061D01*
X213045124Y-66483940D01*
X213116060Y-66554876D01*
X213202939Y-66605036D01*
X213299840Y-66631000D01*
X213322553Y-66631000D01*
X212651283Y-67302268D01*
X212651283Y-67302269D01*
X212688567Y-67329358D01*
X212865562Y-67419542D01*
X213054477Y-67480924D01*
X213250679Y-67512000D01*
X213449321Y-67512000D01*
X213645520Y-67480924D01*
X213645523Y-67480924D01*
X213834437Y-67419542D01*
X214011425Y-67329362D01*
X214048716Y-67302268D01*
X213377448Y-66631000D01*
X213400160Y-66631000D01*
X213497061Y-66605036D01*
X213583940Y-66554876D01*
X213654876Y-66483940D01*
X213705036Y-66397061D01*
X213731000Y-66300160D01*
X213731000Y-66277447D01*
X214402268Y-66948715D01*
X214429364Y-66911422D01*
X214509234Y-66754669D01*
X214557208Y-66703872D01*
X214625029Y-66687077D01*
X214691164Y-66709614D01*
X214730203Y-66754667D01*
X214810213Y-66911694D01*
X214927019Y-67072464D01*
X215067536Y-67212981D01*
X215228306Y-67329787D01*
X215315149Y-67374035D01*
X215405367Y-67420005D01*
X215405370Y-67420006D01*
X215467153Y-67440080D01*
X215594364Y-67481413D01*
X215790639Y-67512500D01*
X215790640Y-67512500D01*
X215989360Y-67512500D01*
X215989361Y-67512500D01*
X216185636Y-67481413D01*
X216374632Y-67420005D01*
X216551694Y-67329787D01*
X216712464Y-67212981D01*
X216852981Y-67072464D01*
X216969787Y-66911694D01*
X217060005Y-66734632D01*
X217121413Y-66545636D01*
X217152500Y-66349361D01*
X217152500Y-66150639D01*
X217121413Y-65954364D01*
X217060005Y-65765368D01*
X217060005Y-65765367D01*
X217014035Y-65675149D01*
X216969787Y-65588306D01*
X216852981Y-65427536D01*
X216712464Y-65287019D01*
X216551694Y-65170213D01*
X216374632Y-65079994D01*
X216374629Y-65079993D01*
X216185637Y-65018587D01*
X216087498Y-65003043D01*
X215989361Y-64987500D01*
X215790639Y-64987500D01*
X215725214Y-64997862D01*
X215594362Y-65018587D01*
X215405370Y-65079993D01*
X215405367Y-65079994D01*
X215228305Y-65170213D01*
X215067533Y-65287021D01*
X214927021Y-65427533D01*
X214810213Y-65588305D01*
X214730204Y-65745331D01*
X214682229Y-65796127D01*
X214614408Y-65812922D01*
X214548273Y-65790384D01*
X214509234Y-65745331D01*
X214429358Y-65588567D01*
X214402268Y-65551283D01*
X213731000Y-66222551D01*
X213731000Y-66199840D01*
X213705036Y-66102939D01*
X213654876Y-66016060D01*
X213583940Y-65945124D01*
X213497061Y-65894964D01*
X213400160Y-65869000D01*
X213377447Y-65869000D01*
X214048716Y-65197731D01*
X214048715Y-65197730D01*
X214011432Y-65170641D01*
X213834437Y-65080457D01*
X213645522Y-65019075D01*
X213449321Y-64988000D01*
X213250679Y-64988000D01*
X213054479Y-65019075D01*
X213054476Y-65019075D01*
X212865562Y-65080457D01*
X212688564Y-65170643D01*
X212651283Y-65197729D01*
X212651282Y-65197730D01*
X213322554Y-65869000D01*
X213299840Y-65869000D01*
X213202939Y-65894964D01*
X213116060Y-65945124D01*
X213045124Y-66016060D01*
X212994964Y-66102939D01*
X212969000Y-66199840D01*
X212969000Y-66222552D01*
X212297730Y-65551282D01*
X212297729Y-65551283D01*
X212270641Y-65588566D01*
X212190764Y-65745332D01*
X212142790Y-65796127D01*
X212074969Y-65812922D01*
X212008834Y-65790384D01*
X211969796Y-65745332D01*
X211889787Y-65588306D01*
X211772981Y-65427536D01*
X211632464Y-65287019D01*
X211471694Y-65170213D01*
X211294632Y-65079994D01*
X211294629Y-65079993D01*
X211105637Y-65018587D01*
X211007498Y-65003043D01*
X210909361Y-64987500D01*
X210710639Y-64987500D01*
X210645214Y-64997862D01*
X210514362Y-65018587D01*
X210325370Y-65079993D01*
X210325367Y-65079994D01*
X210148305Y-65170213D01*
X209987533Y-65287021D01*
X209847021Y-65427533D01*
X209730213Y-65588305D01*
X209650485Y-65744780D01*
X209602510Y-65795576D01*
X209534689Y-65812371D01*
X209468554Y-65789833D01*
X209429515Y-65744780D01*
X209410179Y-65706832D01*
X209349787Y-65588306D01*
X209232981Y-65427536D01*
X209092464Y-65287019D01*
X208931694Y-65170213D01*
X208754632Y-65079994D01*
X208754629Y-65079993D01*
X208565637Y-65018587D01*
X208467498Y-65003043D01*
X208369361Y-64987500D01*
X208170639Y-64987500D01*
X208105214Y-64997862D01*
X207974362Y-65018587D01*
X207785370Y-65079993D01*
X207785367Y-65079994D01*
X207608305Y-65170213D01*
X207447533Y-65287021D01*
X207307021Y-65427533D01*
X207190213Y-65588305D01*
X207110204Y-65745331D01*
X207062229Y-65796127D01*
X206994408Y-65812922D01*
X206928273Y-65790384D01*
X206889234Y-65745331D01*
X206809358Y-65588567D01*
X206782268Y-65551283D01*
X206111000Y-66222551D01*
X206111000Y-66199840D01*
X206085036Y-66102939D01*
X206034876Y-66016060D01*
X205963940Y-65945124D01*
X205877061Y-65894964D01*
X205780160Y-65869000D01*
X205757447Y-65869000D01*
X206428716Y-65197731D01*
X206428715Y-65197730D01*
X206391432Y-65170641D01*
X206214437Y-65080457D01*
X206025522Y-65019075D01*
X205829321Y-64988000D01*
X205630679Y-64988000D01*
X205434479Y-65019075D01*
X205434476Y-65019075D01*
X205245562Y-65080457D01*
X205068564Y-65170643D01*
X205031283Y-65197729D01*
X205031282Y-65197730D01*
X205702554Y-65869000D01*
X205679840Y-65869000D01*
X205582939Y-65894964D01*
X205496060Y-65945124D01*
X205425124Y-66016060D01*
X205374964Y-66102939D01*
X205349000Y-66199840D01*
X205349000Y-66222552D01*
X204677730Y-65551282D01*
X204677729Y-65551283D01*
X204650641Y-65588566D01*
X204570764Y-65745332D01*
X204522790Y-65796127D01*
X204454969Y-65812922D01*
X204388834Y-65790384D01*
X204349796Y-65745332D01*
X204269787Y-65588306D01*
X204152981Y-65427536D01*
X204012464Y-65287019D01*
X203851694Y-65170213D01*
X203674632Y-65079994D01*
X203674629Y-65079993D01*
X203485637Y-65018587D01*
X203387498Y-65003043D01*
X203289361Y-64987500D01*
X203090639Y-64987500D01*
X203025214Y-64997862D01*
X202894362Y-65018587D01*
X202705370Y-65079993D01*
X202705367Y-65079994D01*
X202528305Y-65170213D01*
X202367533Y-65287021D01*
X202227021Y-65427533D01*
X202110213Y-65588305D01*
X202030485Y-65744780D01*
X201982510Y-65795576D01*
X201914689Y-65812371D01*
X201848554Y-65789833D01*
X201809515Y-65744780D01*
X201790179Y-65706832D01*
X201729787Y-65588306D01*
X201612981Y-65427536D01*
X201472464Y-65287019D01*
X201311694Y-65170213D01*
X201134632Y-65079994D01*
X201134629Y-65079993D01*
X200945637Y-65018587D01*
X200847498Y-65003043D01*
X200749361Y-64987500D01*
X200550639Y-64987500D01*
X200485214Y-64997862D01*
X200354362Y-65018587D01*
X200165370Y-65079993D01*
X200165367Y-65079994D01*
X199988305Y-65170213D01*
X199827533Y-65287021D01*
X199687021Y-65427533D01*
X199570213Y-65588305D01*
X199479994Y-65765367D01*
X199479993Y-65765370D01*
X199418587Y-65954362D01*
X199387500Y-66150639D01*
X193898489Y-66150639D01*
X220361692Y-53888170D01*
X220361696Y-53888170D01*
X220415182Y-53863384D01*
X220428053Y-53858276D01*
X220514354Y-53829511D01*
X220541497Y-53823739D01*
X220625024Y-53815584D01*
X220652778Y-53815996D01*
G37*
%TD.AperFunction*%
%TD*%
M02*
