%TF.GenerationSoftware,KiCad,Pcbnew,9.0.7*%
%TF.CreationDate,2026-02-20T22:23:55+09:00*%
%TF.ProjectId,MOTOR,4d4f544f-522e-46b6-9963-61645f706362,rev?*%
%TF.SameCoordinates,Original*%
%TF.FileFunction,Profile,NP*%
%FSLAX46Y46*%
G04 Gerber Fmt 4.6, Leading zero omitted, Abs format (unit mm)*
G04 Created by KiCad (PCBNEW 9.0.7) date 2026-02-20 22:23:55*
%MOMM*%
%LPD*%
G01*
G04 APERTURE LIST*
%TA.AperFunction,Profile*%
%ADD10C,0.200000*%
%TD*%
G04 APERTURE END LIST*
D10*
X184780539Y-115126097D02*
G75*
G02*
X184711162Y-114340890I880861J473497D01*
G01*
X184780539Y-115126097D02*
X190425515Y-125627460D01*
X220211054Y-53406351D02*
X190885001Y-66995402D01*
X190426762Y-67425301D02*
G75*
G02*
X190885003Y-66995407I878638J-477399D01*
G01*
X190426762Y-67425301D02*
X184828634Y-77728387D01*
X221538803Y-53893222D02*
G75*
G02*
X221504186Y-138899140I-91638783J-42465648D01*
G01*
X190892266Y-126064237D02*
X220183155Y-139388200D01*
X221504185Y-138899140D02*
G75*
G02*
X220183138Y-139388238I-906985J421140D01*
G01*
X223600013Y-61358868D02*
G75*
G02*
X220200013Y-61358868I-1700000J0D01*
G01*
X220200013Y-61358868D02*
G75*
G02*
X223600013Y-61358868I1700000J0D01*
G01*
X190885001Y-66995403D02*
X190885001Y-66995402D01*
X190892266Y-126064237D02*
G75*
G02*
X190425511Y-125627462I414034J910237D01*
G01*
X184756351Y-78515140D02*
G75*
G02*
X184711174Y-114340894I-54856331J-17843730D01*
G01*
X220211054Y-53406351D02*
G75*
G02*
X221538829Y-53893210I420446J-907349D01*
G01*
X223600013Y-131358870D02*
G75*
G02*
X220200013Y-131358870I-1700000J0D01*
G01*
X220200013Y-131358870D02*
G75*
G02*
X223600013Y-131358870I1700000J0D01*
G01*
X184756351Y-78515140D02*
G75*
G02*
X184828626Y-77728383I950949J309340D01*
G01*
X189600009Y-114358869D02*
G75*
G02*
X186200009Y-114358869I-1700000J0D01*
G01*
X186200009Y-114358869D02*
G75*
G02*
X189600009Y-114358869I1700000J0D01*
G01*
X189600009Y-78358869D02*
G75*
G02*
X186200009Y-78358869I-1700000J0D01*
G01*
X186200009Y-78358869D02*
G75*
G02*
X189600009Y-78358869I1700000J0D01*
G01*
M02*
