M48
; DRILL file {KiCad 9.0.7} date 2026-02-20T17:37:58+0900
; FORMAT={-:-/ absolute / inch / decimal}
; #@! TF.CreationDate,2026-02-20T17:37:58+09:00
; #@! TF.GenerationSoftware,Kicad,Pcbnew,9.0.7
; #@! TF.FileFunction,Plated,1,4,PTH
FMAT,2
INCH
; #@! TA.AperFunction,Plated,PTH,ViaDrill
T1C0.0118
; #@! TA.AperFunction,Plated,PTH,ComponentDrill
T2C0.0236
; #@! TA.AperFunction,Plated,PTH,ComponentDrill
T3C0.0295
; #@! TA.AperFunction,Plated,PTH,ComponentDrill
T4C0.0315
; #@! TA.AperFunction,Plated,PTH,ComponentDrill
T5C0.0354
; #@! TA.AperFunction,Plated,PTH,ComponentDrill
T6C0.0374
; #@! TA.AperFunction,Plated,PTH,ComponentDrill
T7C0.0394
; #@! TA.AperFunction,Plated,PTH,ComponentDrill
T8C0.0433
; #@! TA.AperFunction,Plated,PTH,ComponentDrill
T9C0.0469
; #@! TA.AperFunction,Plated,PTH,ComponentDrill
T10C0.0472
; #@! TA.AperFunction,Plated,PTH,ComponentDrill
T11C0.0510
%
G90
G05
T1
X1.3651Y-3.5705
X1.3984Y-3.5568
X1.4504Y-2.6071
X1.5512Y-3.3307
X1.5748Y-3.3465
X1.5846Y-3.4665
X1.6285Y-3.3831
X1.7158Y-3.4275
X1.7185Y-2.7382
X1.7767Y-3.3431
X1.7852Y-3.6854
X1.8183Y-2.7944
X1.8673Y-3.9807
X1.874Y-4.4862
X1.8897Y-2.6047
X1.8897Y-3.3512
X1.8897Y-4.5363
X1.9697Y-3.7883
X1.982Y-2.9241
X1.9876Y-3.9523
X2.0076Y-3.0876
X2.0634Y-2.0321
X2.0855Y-3.3774
X2.1352Y-4.4427
X2.1508Y-2.1367
X2.1784Y-4.6449
X2.1834Y-3.75
X2.2008Y-5.2106
X2.2165Y-3.9232
X2.2329Y-2.2181
X2.252Y-4.8248
X2.2813Y-3.7428
X2.2813Y-3.8482
X2.3395Y-4.3013
X2.3858Y-3.9823
X2.4154Y-4.9744
X2.435Y-3.878
X2.4771Y-3.4739
X2.4921Y-5.2539
X2.5039Y-3.9862
X2.5128Y-3.1842
X2.5197Y-4.7972
X2.5405Y-2.2811
X2.567Y-4.168
X2.5689Y-1.7185
X2.572Y-1.8445
X2.5721Y-2.9939
X2.575Y-4.0534
X2.5809Y-3.8828
X2.5827Y-4.9469
X2.5984Y-5.1319
X2.6043Y-4.2185
X2.6044Y-3.3774
X2.626Y-4.2815
X2.6299Y-3.6614
X2.6417Y-3.5866
X2.6456Y-4.8171
X2.6654Y-1.6654
X2.6673Y-3.7697
X2.668Y-4.932
X2.6709Y-4.3118
X2.6772Y-5.1161
X2.7011Y-4.7801
X2.7106Y-4.4193
X2.7259Y-1.8904
X2.7516Y-3.8976
X2.7539Y-4.1949
X2.7559Y-3.7843
X2.7724Y-5.0133
X2.7894Y-1.6969
X2.7972Y-3.7854
X2.8009Y-3.6254
X2.8102Y-3.9181
X2.8527Y-5.4025
X2.8558Y-4.1171
X2.8558Y-4.6128
X2.8687Y-5.6954
X2.8871Y-4.0173
X2.8985Y-3.44
X2.9075Y-3.5827
X2.9088Y-3.6542
X2.9214Y-3.8579
X2.9409Y-3.5571
X2.9409Y-3.6575
X2.9685Y-3.8362
X2.9783Y-3.6634
X2.9803Y-3.4016
X2.9981Y-4.3745
X3.0003Y-3.5683
X3.0118Y-3.8777
X3.0172Y-3.982
X3.0295Y-3.4331
X3.0493Y-5.4056
X3.0503Y-3.6358
X3.0546Y-3.5454
X3.0645Y-3.4202
X3.0694Y-3.7629
X3.0765Y-4.0846
X3.0772Y-4.2615
X3.0966Y-3.4147
X3.0976Y-3.8558
X3.1072Y-3.7568
X3.124Y-3.6181
X3.1323Y-3.5413
X3.1407Y-3.9841
X3.1496Y-3.8524
X3.1555Y-3.622
X3.1654Y-5.0807
X3.1667Y-4.0918
X3.1771Y-3.8021
X3.1921Y-1.9444
X3.2085Y-3.7236
X3.2348Y-3.6117
X3.2402Y-3.5787
X3.2477Y-3.7972
X3.248Y-5.2146
X3.2537Y-3.5174
X3.254Y-3.9413
X3.2767Y-4.9228
X3.2958Y-4.826
X3.2972Y-1.6988
X3.3287Y-1.6811
X3.3364Y-1.864
X3.3497Y-3.4428
X3.3571Y-2.2258
X3.3657Y-3.7467
X3.3701Y-3.6752
X3.3724Y-3.7801
X3.3813Y-3.4453
X3.3833Y-4.9899
X3.3844Y-2.4416
X3.3937Y-3.6476
X3.3999Y-4.1365
X3.4639Y-3.4859
X3.4659Y-3.6652
X3.4665Y-1.628
X3.4729Y-1.7707
X3.4796Y-3.7796
X3.4797Y-3.6979
X3.497Y-3.862
X3.4975Y-3.6387
X3.5Y-3.9626
X3.522Y-2.5396
X3.5367Y-4.0907
X3.5367Y-4.0907
X3.5541Y-2.4115
X3.5645Y-3.679
X3.6146Y-4.1694
X3.6147Y-5.4639
X3.616Y-3.9792
X3.6194Y-3.8885
X3.6208Y-2.8944
X3.622Y-4.2323
X3.6551Y-4.0564
X3.6682Y-4.0067
X3.6723Y-3.9643
X3.6748Y-3.7859
X3.6791Y-2.1457
X3.6816Y-3.8332
X3.7219Y-3.9627
X3.7329Y-4.459
X3.7338Y-3.9978
X3.734Y-4.057
X3.7385Y-4.1336
X3.7385Y-3.8868
X3.7459Y-3.9292
X3.748Y-3.6437
X3.7558Y-2.1203
X3.7835Y-2.2441
X3.7992Y-4.0733
X3.8425Y-4.1969
X3.8479Y-3.91
X3.8481Y-3.9682
X3.8495Y-3.8429
X3.8543Y-5.1378
X3.8669Y-4.6329
X3.8688Y-4.0547
X3.8702Y-1.9325
X3.8898Y-1.7972
X3.914Y-4.8588
X3.9232Y-1.7776
X3.9252Y-4.2106
X3.9447Y-4.8835
X3.9497Y-4.7456
X3.9498Y-1.9466
X3.9509Y-1.8275
X4.0035Y-3.6572
X4.0276Y-5.1043
X4.0591Y-1.6988
X4.0925Y-5.0846
X4.1043Y-4.0197
X4.1319Y-1.7835
X4.1907Y-5.6585
X4.2102Y-3.4858
X4.222Y-5.9146
X4.2394Y-2.7013
X4.2492Y-3.788
X4.258Y-5.506
X4.3055Y-4.3432
X4.3095Y-5.6696
X4.3205Y-3.1642
X4.3316Y-3.6377
X4.3517Y-4.4625
X4.4026Y-2.3198
X4.4057Y-5.5022
X4.4148Y-5.3833
X4.4266Y-4.4939
X4.4303Y-3.6616
X4.4626Y-4.5984
X4.5079Y-4.5827
X4.5109Y-3.8004
X4.5361Y-2.2913
X4.5415Y-4.0658
X4.5556Y-4.4216
X4.5984Y-2.2598
X4.6262Y-2.7934
X4.6575Y-2.2717
X4.6831Y-3.6142
X4.689Y-4.185
X4.6995Y-3.3765
X4.7113Y-2.6493
X4.7262Y-3.9661
X4.7264Y-4.3917
X4.7502Y-2.7336
X4.7682Y-3.2901
X4.7854Y-4.2303
X4.8239Y-2.8946
X4.8248Y-3.6988
X4.8425Y-4.0846
X4.8479Y-4.0394
X4.8624Y-2.7934
X4.8942Y-3.5392
X4.9114Y-3.354
X4.9247Y-3.4963
X4.9606Y-2.6339
X4.9961Y-3.2087
X5.0197Y-3.4173
X5.0886Y-3.4075
T3
X3.1563Y-4.2362
X3.1602Y-4.5016
X3.235Y-4.2362
X3.239Y-4.5016
X3.3138Y-4.2362
X3.3177Y-4.5016
X3.3925Y-4.2362
X3.3965Y-4.5016
T4
X2.228Y-5.6071
X2.628Y-5.6071
X2.7209Y-5.6055
X3.1209Y-5.6055
X3.2102Y-5.6268
X3.6102Y-5.6268
X3.7024Y-5.6327
X4.1024Y-5.6327
T5
X3.711Y-5.4886
X3.811Y-5.4886
X3.911Y-5.4886
T6
X1.2793Y-3.9478
X1.3177Y-4.0384
X1.3562Y-4.129
X1.3946Y-4.2196
X1.4331Y-4.3102
X1.4716Y-4.4008
X2.2996Y-3.9228
X2.398Y-3.9228
X2.4965Y-3.9228
X2.748Y-4.2589
X2.8465Y-4.2589
X2.9449Y-4.2589
T7
X1.3686Y-2.6306
X1.4055Y-2.5394
X2.3091Y-3.5854
X2.4075Y-3.5854
X3.6134Y-2.2508
X3.7118Y-2.2508
X4.0382Y-3.9622
X4.1366Y-2.8634
X4.1366Y-3.9622
X4.3334Y-2.8634
T8
X2.289Y-5.8201
X2.289Y-5.9972
X2.5449Y-5.8201
X2.5449Y-5.9972
X2.7634Y-5.8209
X2.7634Y-5.998
X3.0193Y-5.8209
X3.0193Y-5.998
X3.2205Y-5.8217
X3.2205Y-5.9988
X3.4764Y-5.8217
X3.4764Y-5.9988
X3.6732Y-5.8256
X3.6732Y-6.0028
X3.9291Y-5.8256
X3.9291Y-6.0028
X4.0787Y-5.2913
X4.0787Y-5.4685
X4.3346Y-5.2913
X4.3346Y-5.4685
T9
X1.43Y-3.2783
X1.43Y-3.3783
X1.43Y-3.4783
X1.5249Y-3.3791
X1.5249Y-3.4791
X1.5249Y-3.2791
X1.6142Y-2.7784
X1.6305Y-3.9818
X1.6516Y-2.6857
X1.6696Y-4.0738
X1.6891Y-2.593
X1.7086Y-4.1659
X1.9221Y-4.6436
X1.9269Y-2.1077
X1.9919Y-4.5754
X1.9928Y-4.7144
X1.9932Y-2.1735
X1.9976Y-2.037
X2.0627Y-4.6461
X2.0635Y-4.7851
X2.064Y-2.1028
X2.0683Y-1.9663
X2.1334Y-4.7168
X2.1347Y-2.0321
X2.5327Y-1.7742
X2.5456Y-4.9773
X2.6247Y-1.7351
X2.6383Y-5.0147
X2.7168Y-1.696
X2.731Y-5.0522
X3.1981Y-1.615
X3.1988Y-1.5147
X3.2086Y-5.264
X3.2118Y-5.1593
X3.2981Y-1.615
X3.2988Y-1.5147
X3.3086Y-5.264
X3.3118Y-5.1593
X3.3981Y-1.615
X3.3988Y-1.5147
X3.4086Y-5.264
X3.4118Y-5.1593
X3.8779Y-1.7077
X3.8996Y-5.0875
X3.9706Y-1.7452
X3.9916Y-5.0485
X4.0634Y-1.7826
X4.0837Y-5.0094
X4.4684Y-4.6995
X4.4856Y-2.0672
X4.5391Y-4.6288
X4.5421Y-4.7753
X4.5524Y-1.9986
X4.5563Y-2.138
X4.6098Y-4.5581
X4.6128Y-4.7046
X4.6231Y-2.0693
X4.627Y-2.2087
X4.6835Y-4.6339
X4.6938Y-2.14
X4.8897Y-2.6087
X4.9005Y-4.1298
X4.9288Y-2.7008
X4.938Y-4.037
X4.9679Y-2.7928
X4.9754Y-3.9443
X5.0673Y-3.4527
X5.0673Y-3.2527
X5.0673Y-3.3527
X5.1634Y-3.2523
X5.1634Y-3.3523
X5.1634Y-3.4523
T10
X3.4689Y-3.1142
X3.4689Y-3.2142
X3.4689Y-3.3142
X3.4689Y-3.4142
X3.7689Y-3.1142
X3.7689Y-3.2142
X3.7689Y-3.3142
X3.7689Y-3.4142
T11
X2.3705Y-2.7067
X2.3705Y-2.8067
X2.3705Y-2.9067
X2.3705Y-3.0067
X2.3705Y-3.1067
X2.4705Y-2.7067
X2.4705Y-2.8067
X2.4705Y-2.9067
X2.4705Y-3.0067
X2.4705Y-3.1067
T2
G00X4.052Y-5.8703
M15
G01X4.052Y-5.9136
M16
G05
G00X4.052Y-6.0447
M15
G01X4.052Y-6.0683
M16
G05
G00X4.3921Y-6.0447
M15
G01X4.3921Y-6.0683
M16
G05
G00X4.3921Y-5.8703
M15
G01X4.3921Y-5.9136
M16
G05
M30
