%TF.GenerationSoftware,KiCad,Pcbnew,9.0.7*%
%TF.CreationDate,2026-02-20T17:37:58+09:00*%
%TF.ProjectId,main and ball,6d61696e-2061-46e6-9420-62616c6c2e6b,rev?*%
%TF.SameCoordinates,Original*%
%TF.FileFunction,Profile,NP*%
%FSLAX46Y46*%
G04 Gerber Fmt 4.6, Leading zero omitted, Abs format (unit mm)*
G04 Created by KiCad (PCBNEW 9.0.7) date 2026-02-20 17:37:58*
%MOMM*%
%LPD*%
G01*
G04 APERTURE LIST*
%TA.AperFunction,Profile*%
%ADD10C,0.200000*%
%TD*%
G04 APERTURE END LIST*
D10*
X34601157Y-95110206D02*
X27266248Y-98148424D01*
X39404224Y-62387441D02*
G75*
G02*
X52046074Y-46887767I44284426J-23213969D01*
G01*
X113688658Y-153601421D02*
X113688658Y-125601419D01*
X39404224Y-62387441D02*
X33734807Y-60039091D01*
X34927770Y-116622762D02*
G75*
G02*
X34270955Y-116353628I-194870J460462D01*
G01*
X34927770Y-116622762D02*
X42254825Y-113587797D01*
X30299218Y-68357554D02*
G75*
G02*
X30028623Y-67704274I191382J461954D01*
G01*
X55688658Y-155601419D02*
X111688660Y-155601419D01*
X27000005Y-98800007D02*
G75*
G02*
X27266229Y-98148379I462095J191407D01*
G01*
X73384258Y-61551419D02*
X85384258Y-61551419D01*
X113724335Y-104285355D02*
G75*
G02*
X110324335Y-104285355I-1700000J0D01*
G01*
X110324335Y-104285355D02*
G75*
G02*
X113724335Y-104285355I1700000J0D01*
G01*
X104096326Y-57281405D02*
G75*
G02*
X100696326Y-57281405I-1700000J0D01*
G01*
X100696326Y-57281405D02*
G75*
G02*
X104096326Y-57281405I1700000J0D01*
G01*
X52046074Y-46887767D02*
G75*
G02*
X88688658Y-35852044I31642586J-38713643D01*
G01*
X33090099Y-60313169D02*
G75*
G02*
X33734791Y-60039132I462001J-191531D01*
G01*
X133438030Y-90601419D02*
G75*
G02*
X115331169Y-124315131I-49749370J4999999D01*
G01*
X53688658Y-125601417D02*
G75*
G02*
X42254830Y-113587793I29999942J39999917D01*
G01*
X34601157Y-95110206D02*
G75*
G02*
X35960074Y-70702357I49087426J9508791D01*
G01*
X73384258Y-85551419D02*
X73384258Y-61551419D01*
X66680990Y-113921433D02*
G75*
G02*
X63280990Y-113921433I-1700000J0D01*
G01*
X63280990Y-113921433D02*
G75*
G02*
X66680990Y-113921433I1700000J0D01*
G01*
X113688658Y-125601419D02*
X115331168Y-124315130D01*
X27000005Y-98800007D02*
X34270953Y-116353629D01*
X57052981Y-66917483D02*
G75*
G02*
X53652981Y-66917483I-1700000J0D01*
G01*
X53652981Y-66917483D02*
G75*
G02*
X57052981Y-66917483I1700000J0D01*
G01*
X85384258Y-61551419D02*
X85384258Y-85551419D01*
X85384258Y-85551419D02*
X73384258Y-85551419D01*
X53688658Y-125601417D02*
X53688658Y-153601419D01*
X30299218Y-68357554D02*
X35960074Y-70702357D01*
X122402310Y-53958835D02*
G75*
G02*
X133438025Y-90601418I-38713610J-31642565D01*
G01*
X55688658Y-155601419D02*
G75*
G02*
X53688681Y-153601419I42J2000019D01*
G01*
X88688658Y-35852047D02*
G75*
G02*
X122402312Y-53958834I-4999998J-49749373D01*
G01*
X113688658Y-153601421D02*
G75*
G02*
X111688660Y-155601358I-1999958J21D01*
G01*
X33090099Y-60313169D02*
X30028606Y-67704267D01*
M02*
