%TF.GenerationSoftware,KiCad,Pcbnew,9.0.7*%
%TF.CreationDate,2026-02-20T22:20:08+09:00*%
%TF.ProjectId,connect,636f6e6e-6563-4742-9e6b-696361645f70,rev?*%
%TF.SameCoordinates,Original*%
%TF.FileFunction,Copper,L1,Top*%
%TF.FilePolarity,Positive*%
%FSLAX46Y46*%
G04 Gerber Fmt 4.6, Leading zero omitted, Abs format (unit mm)*
G04 Created by KiCad (PCBNEW 9.0.7) date 2026-02-20 22:20:08*
%MOMM*%
%LPD*%
G01*
G04 APERTURE LIST*
%TA.AperFunction,ComponentPad*%
%ADD10R,1.700000X1.700000*%
%TD*%
%TA.AperFunction,ComponentPad*%
%ADD11C,1.700000*%
%TD*%
%TA.AperFunction,ViaPad*%
%ADD12C,0.600000*%
%TD*%
%TA.AperFunction,ViaPad*%
%ADD13C,0.500000*%
%TD*%
%TA.AperFunction,Conductor*%
%ADD14C,0.200000*%
%TD*%
%TA.AperFunction,Conductor*%
%ADD15C,1.000000*%
%TD*%
G04 APERTURE END LIST*
D10*
%TO.P,J1,1,Pin_1*%
%TO.N,GND*%
X132650000Y-41130000D03*
D11*
%TO.P,J1,2,Pin_2*%
%TO.N,Net-(J1-Pin_2)*%
X132650000Y-43670000D03*
%TO.P,J1,3,Pin_3*%
%TO.N,Net-(J1-Pin_3)*%
X132650000Y-46210000D03*
%TO.P,J1,4,Pin_4*%
%TO.N,Net-(J1-Pin_4)*%
X132650000Y-48750000D03*
%TO.P,J1,5,Pin_5*%
%TO.N,Net-(J1-Pin_5)*%
X132650000Y-51290000D03*
%TO.P,J1,6,Pin_6*%
%TO.N,Net-(J1-Pin_6)*%
X132650000Y-53830000D03*
%TO.P,J1,7,Pin_7*%
%TO.N,Net-(J1-Pin_7)*%
X132650000Y-56370000D03*
%TD*%
D10*
%TO.P,J2,1,Pin_1*%
%TO.N,GND*%
X163600000Y-41210000D03*
D11*
%TO.P,J2,2,Pin_2*%
%TO.N,Net-(J1-Pin_2)*%
X163600000Y-43750000D03*
%TO.P,J2,3,Pin_3*%
%TO.N,Net-(J1-Pin_3)*%
X163600000Y-46290000D03*
%TO.P,J2,4,Pin_4*%
%TO.N,Net-(J1-Pin_4)*%
X163600000Y-48830000D03*
%TO.P,J2,5,Pin_5*%
%TO.N,Net-(J1-Pin_5)*%
X163600000Y-51370000D03*
%TO.P,J2,6,Pin_6*%
%TO.N,Net-(J1-Pin_6)*%
X163600000Y-53910000D03*
%TO.P,J2,7,Pin_7*%
%TO.N,Net-(J1-Pin_7)*%
X163600000Y-56450000D03*
%TD*%
D12*
%TO.N,Net-(J1-Pin_3)*%
X161343000Y-47993400D03*
%TO.N,Net-(J1-Pin_7)*%
X134713700Y-51749600D03*
X158110400Y-51548700D03*
%TO.N,Net-(J1-Pin_6)*%
X161343000Y-52209200D03*
D13*
%TO.N,GND*%
X152800000Y-47350000D03*
X152700000Y-51050000D03*
X160600000Y-50900000D03*
X149950000Y-49400000D03*
X135050000Y-56650000D03*
X160750000Y-57050000D03*
X140700000Y-47400000D03*
X135300000Y-47050000D03*
X135300000Y-49850000D03*
X160700000Y-46600000D03*
X143800000Y-50950000D03*
%TD*%
D14*
%TO.N,Net-(J1-Pin_3)*%
X161343000Y-47993400D02*
X134433400Y-47993400D01*
X134433400Y-47993400D02*
X132650000Y-46210000D01*
%TO.N,Net-(J1-Pin_7)*%
X134714100Y-51750000D02*
X134713700Y-51749600D01*
X157909100Y-51750000D02*
X134714100Y-51750000D01*
X158110400Y-51548700D02*
X158060200Y-51598900D01*
X158060200Y-51598900D02*
X158110400Y-51548700D01*
X158110400Y-51548700D02*
X157909100Y-51750000D01*
%TO.N,Net-(J1-Pin_5)*%
X135120100Y-51147900D02*
X132792100Y-51147900D01*
X135425500Y-51123700D02*
X135260700Y-51288500D01*
X135425500Y-51123700D02*
X135260700Y-51288500D01*
X163600000Y-51370000D02*
X162380000Y-50150000D01*
X162380000Y-50150000D02*
X147700000Y-50150000D01*
X132792100Y-51147900D02*
X132650000Y-51290000D01*
X135260700Y-51288500D02*
X135120100Y-51147900D01*
X147550000Y-50000000D02*
X136549200Y-50000000D01*
X136549200Y-50000000D02*
X135425500Y-51123700D01*
X147700000Y-50150000D02*
X147550000Y-50000000D01*
%TO.N,Net-(J1-Pin_4)*%
X163600000Y-48830000D02*
X132730000Y-48830000D01*
X132730000Y-48830000D02*
X132650000Y-48750000D01*
%TO.N,Net-(J1-Pin_6)*%
X132650000Y-53830000D02*
X134406700Y-53830000D01*
X134406700Y-53830000D02*
X136027500Y-52209200D01*
X136027500Y-52209200D02*
X161343000Y-52209200D01*
D15*
%TO.N,Net-(J1-Pin_2)*%
X158950000Y-45950000D02*
X163600000Y-43750000D01*
X132650000Y-43670000D02*
X136600000Y-46250000D01*
X136600000Y-46250000D02*
X158950000Y-45950000D01*
%TD*%
%TA.AperFunction,Conductor*%
%TO.N,GND*%
G36*
X135898985Y-39220188D02*
G01*
X135944740Y-39272992D01*
X135955946Y-39324503D01*
X135955946Y-43627981D01*
X135955945Y-43627985D01*
X135955946Y-43627987D01*
X135955946Y-43634110D01*
X135955945Y-43634115D01*
X135955945Y-43643713D01*
X135955945Y-43648603D01*
X135955897Y-43648766D01*
X135955897Y-43807325D01*
X135971629Y-43916733D01*
X135986444Y-44019774D01*
X135986447Y-44019789D01*
X136046919Y-44225729D01*
X136136087Y-44420974D01*
X136136089Y-44420976D01*
X136188946Y-44503219D01*
X136208632Y-44570258D01*
X136188949Y-44637298D01*
X136136146Y-44683054D01*
X136066988Y-44692999D01*
X136016823Y-44674078D01*
X133996270Y-43354324D01*
X133950907Y-43301183D01*
X133946148Y-43288825D01*
X133933398Y-43249585D01*
X133901557Y-43151588D01*
X133805051Y-42962184D01*
X133805049Y-42962181D01*
X133805048Y-42962179D01*
X133680109Y-42790213D01*
X133566181Y-42676285D01*
X133532696Y-42614962D01*
X133537680Y-42545270D01*
X133579552Y-42489337D01*
X133610529Y-42472422D01*
X133742086Y-42423354D01*
X133742093Y-42423350D01*
X133857187Y-42337190D01*
X133857190Y-42337187D01*
X133943350Y-42222093D01*
X133943354Y-42222086D01*
X133993596Y-42087379D01*
X133993598Y-42087372D01*
X133999999Y-42027844D01*
X134000000Y-42027827D01*
X134000000Y-41380000D01*
X133083012Y-41380000D01*
X133115925Y-41322993D01*
X133150000Y-41195826D01*
X133150000Y-41064174D01*
X133115925Y-40937007D01*
X133083012Y-40880000D01*
X134000000Y-40880000D01*
X134000000Y-40232172D01*
X133999999Y-40232155D01*
X133993598Y-40172627D01*
X133993596Y-40172620D01*
X133943354Y-40037913D01*
X133943350Y-40037906D01*
X133857190Y-39922812D01*
X133857187Y-39922809D01*
X133742093Y-39836649D01*
X133742086Y-39836645D01*
X133607379Y-39786403D01*
X133607372Y-39786401D01*
X133547844Y-39780000D01*
X132900000Y-39780000D01*
X132900000Y-40696988D01*
X132842993Y-40664075D01*
X132715826Y-40630000D01*
X132584174Y-40630000D01*
X132457007Y-40664075D01*
X132400000Y-40696988D01*
X132400000Y-39780000D01*
X131752155Y-39780000D01*
X131692627Y-39786401D01*
X131692620Y-39786403D01*
X131557913Y-39836645D01*
X131557906Y-39836649D01*
X131442812Y-39922809D01*
X131442809Y-39922812D01*
X131356649Y-40037906D01*
X131356645Y-40037913D01*
X131306403Y-40172620D01*
X131306401Y-40172627D01*
X131300000Y-40232155D01*
X131300000Y-40880000D01*
X132216988Y-40880000D01*
X132184075Y-40937007D01*
X132150000Y-41064174D01*
X132150000Y-41195826D01*
X132184075Y-41322993D01*
X132216988Y-41380000D01*
X131300000Y-41380000D01*
X131300000Y-42027844D01*
X131306401Y-42087372D01*
X131306403Y-42087379D01*
X131356645Y-42222086D01*
X131356649Y-42222093D01*
X131442809Y-42337187D01*
X131442812Y-42337190D01*
X131557906Y-42423350D01*
X131557913Y-42423354D01*
X131689470Y-42472422D01*
X131745404Y-42514293D01*
X131769821Y-42579758D01*
X131754969Y-42648031D01*
X131733819Y-42676285D01*
X131619889Y-42790215D01*
X131494951Y-42962179D01*
X131398444Y-43151585D01*
X131332753Y-43353760D01*
X131299500Y-43563713D01*
X131299500Y-43776287D01*
X131305023Y-43811155D01*
X131321744Y-43916733D01*
X131332754Y-43986243D01*
X131390563Y-44164161D01*
X131398444Y-44188414D01*
X131494951Y-44377820D01*
X131619890Y-44549786D01*
X131770213Y-44700109D01*
X131942182Y-44825050D01*
X131950946Y-44829516D01*
X132001742Y-44877491D01*
X132018536Y-44945312D01*
X131995998Y-45011447D01*
X131950946Y-45050484D01*
X131942182Y-45054949D01*
X131770213Y-45179890D01*
X131619890Y-45330213D01*
X131494951Y-45502179D01*
X131398444Y-45691585D01*
X131332753Y-45893760D01*
X131299500Y-46103713D01*
X131299500Y-46316286D01*
X131332753Y-46526239D01*
X131332753Y-46526241D01*
X131332754Y-46526243D01*
X131387431Y-46694522D01*
X131398444Y-46728414D01*
X131494951Y-46917820D01*
X131619890Y-47089786D01*
X131770213Y-47240109D01*
X131942182Y-47365050D01*
X131950946Y-47369516D01*
X132001742Y-47417491D01*
X132018536Y-47485312D01*
X131995998Y-47551447D01*
X131950946Y-47590484D01*
X131942182Y-47594949D01*
X131770213Y-47719890D01*
X131619890Y-47870213D01*
X131494951Y-48042179D01*
X131398444Y-48231585D01*
X131332753Y-48433760D01*
X131299500Y-48643713D01*
X131299500Y-48856287D01*
X131332754Y-49066243D01*
X131358746Y-49146239D01*
X131398444Y-49268414D01*
X131494951Y-49457820D01*
X131619890Y-49629786D01*
X131770213Y-49780109D01*
X131942182Y-49905050D01*
X131950946Y-49909516D01*
X132001742Y-49957491D01*
X132018536Y-50025312D01*
X131995998Y-50091447D01*
X131950946Y-50130484D01*
X131942182Y-50134949D01*
X131770213Y-50259890D01*
X131619890Y-50410213D01*
X131494951Y-50582179D01*
X131398444Y-50771585D01*
X131332753Y-50973760D01*
X131316400Y-51077011D01*
X131299500Y-51183713D01*
X131299500Y-51396287D01*
X131306339Y-51439464D01*
X131329771Y-51587413D01*
X131332754Y-51606243D01*
X131358746Y-51686239D01*
X131398444Y-51808414D01*
X131494951Y-51997820D01*
X131619890Y-52169786D01*
X131770213Y-52320109D01*
X131942182Y-52445050D01*
X131950946Y-52449516D01*
X132001742Y-52497491D01*
X132018536Y-52565312D01*
X131995998Y-52631447D01*
X131950946Y-52670484D01*
X131942182Y-52674949D01*
X131770213Y-52799890D01*
X131619890Y-52950213D01*
X131494951Y-53122179D01*
X131398444Y-53311585D01*
X131332753Y-53513760D01*
X131313720Y-53633929D01*
X131299500Y-53723713D01*
X131299500Y-53936287D01*
X131332754Y-54146243D01*
X131358746Y-54226239D01*
X131398444Y-54348414D01*
X131494951Y-54537820D01*
X131619890Y-54709786D01*
X131770213Y-54860109D01*
X131942182Y-54985050D01*
X131950946Y-54989516D01*
X132001742Y-55037491D01*
X132018536Y-55105312D01*
X131995998Y-55171447D01*
X131950946Y-55210484D01*
X131942182Y-55214949D01*
X131770213Y-55339890D01*
X131619890Y-55490213D01*
X131494951Y-55662179D01*
X131398444Y-55851585D01*
X131332753Y-56053760D01*
X131299500Y-56263713D01*
X131299500Y-56476287D01*
X131332754Y-56686243D01*
X131358746Y-56766239D01*
X131398444Y-56888414D01*
X131494951Y-57077820D01*
X131619890Y-57249786D01*
X131770213Y-57400109D01*
X131942179Y-57525048D01*
X131942181Y-57525049D01*
X131942184Y-57525051D01*
X132131588Y-57621557D01*
X132333757Y-57687246D01*
X132543713Y-57720500D01*
X132543714Y-57720500D01*
X132756286Y-57720500D01*
X132756287Y-57720500D01*
X132966243Y-57687246D01*
X133168412Y-57621557D01*
X133357816Y-57525051D01*
X133419681Y-57480104D01*
X133529786Y-57400109D01*
X133529788Y-57400106D01*
X133529792Y-57400104D01*
X133680104Y-57249792D01*
X133680106Y-57249788D01*
X133680109Y-57249786D01*
X133805048Y-57077820D01*
X133805047Y-57077820D01*
X133805051Y-57077816D01*
X133901557Y-56888412D01*
X133967246Y-56686243D01*
X134000500Y-56476287D01*
X134000500Y-56263713D01*
X133967246Y-56053757D01*
X133901557Y-55851588D01*
X133805051Y-55662184D01*
X133805049Y-55662181D01*
X133805048Y-55662179D01*
X133680109Y-55490213D01*
X133529786Y-55339890D01*
X133357820Y-55214951D01*
X133357115Y-55214591D01*
X133349054Y-55210485D01*
X133298259Y-55162512D01*
X133281463Y-55094692D01*
X133303999Y-55028556D01*
X133349054Y-54989515D01*
X133357816Y-54985051D01*
X133419681Y-54940104D01*
X133529786Y-54860109D01*
X133529788Y-54860106D01*
X133529792Y-54860104D01*
X133680104Y-54709792D01*
X133680106Y-54709788D01*
X133680109Y-54709786D01*
X133746928Y-54617816D01*
X133805051Y-54537816D01*
X133805349Y-54537230D01*
X133825235Y-54498205D01*
X133873209Y-54447409D01*
X133935719Y-54430500D01*
X134320031Y-54430500D01*
X134320047Y-54430501D01*
X134327643Y-54430501D01*
X134485754Y-54430501D01*
X134485757Y-54430501D01*
X134638485Y-54389577D01*
X134688604Y-54360639D01*
X134775416Y-54310520D01*
X134887220Y-54198716D01*
X134887220Y-54198714D01*
X134897428Y-54188507D01*
X134897430Y-54188504D01*
X135770204Y-53315729D01*
X135831525Y-53282246D01*
X135901217Y-53287230D01*
X135957150Y-53329102D01*
X135981567Y-53394566D01*
X135980621Y-53421058D01*
X135955946Y-53592683D01*
X135955946Y-58075503D01*
X135936261Y-58142542D01*
X135883457Y-58188297D01*
X135831946Y-58199503D01*
X131070946Y-58199503D01*
X131003907Y-58179818D01*
X130958152Y-58127014D01*
X130946946Y-58075503D01*
X130946946Y-39324503D01*
X130966631Y-39257464D01*
X131019435Y-39211709D01*
X131070946Y-39200503D01*
X135831946Y-39200503D01*
X135898985Y-39220188D01*
G37*
%TD.AperFunction*%
%TA.AperFunction,Conductor*%
G36*
X165195191Y-39220188D02*
G01*
X165240946Y-39272992D01*
X165252152Y-39324503D01*
X165252152Y-58075503D01*
X165232467Y-58142542D01*
X165179663Y-58188297D01*
X165128152Y-58199503D01*
X160366946Y-58199503D01*
X160299907Y-58179818D01*
X160254152Y-58127014D01*
X160242946Y-58075503D01*
X160242946Y-53626270D01*
X160242897Y-53625531D01*
X160242898Y-53592688D01*
X160212354Y-53380244D01*
X160151888Y-53174308D01*
X160151884Y-53174301D01*
X160151884Y-53174298D01*
X160065534Y-52985209D01*
X160055591Y-52916051D01*
X160084617Y-52852496D01*
X160143396Y-52814722D01*
X160178329Y-52809700D01*
X160763234Y-52809700D01*
X160830273Y-52829385D01*
X160832125Y-52830598D01*
X160963814Y-52918590D01*
X160963827Y-52918597D01*
X161109498Y-52978935D01*
X161109503Y-52978937D01*
X161264153Y-53009699D01*
X161264156Y-53009700D01*
X161264158Y-53009700D01*
X161421844Y-53009700D01*
X161421845Y-53009699D01*
X161576497Y-52978937D01*
X161722179Y-52918594D01*
X161853289Y-52830989D01*
X161964789Y-52719489D01*
X162052394Y-52588379D01*
X162112737Y-52442697D01*
X162143500Y-52288042D01*
X162143500Y-52130358D01*
X162143500Y-52130355D01*
X162143499Y-52130353D01*
X162117136Y-51997820D01*
X162112737Y-51975703D01*
X162076580Y-51888412D01*
X162052397Y-51830027D01*
X162052390Y-51830014D01*
X161964789Y-51698911D01*
X161964786Y-51698907D01*
X161853292Y-51587413D01*
X161853288Y-51587410D01*
X161722185Y-51499809D01*
X161722172Y-51499802D01*
X161576501Y-51439464D01*
X161576489Y-51439461D01*
X161421845Y-51408700D01*
X161421842Y-51408700D01*
X161264158Y-51408700D01*
X161264155Y-51408700D01*
X161109510Y-51439461D01*
X161109498Y-51439464D01*
X160963827Y-51499802D01*
X160963814Y-51499809D01*
X160832125Y-51587802D01*
X160765447Y-51608680D01*
X160763234Y-51608700D01*
X159034900Y-51608700D01*
X158967861Y-51589015D01*
X158922106Y-51536211D01*
X158910900Y-51484700D01*
X158910900Y-51469855D01*
X158910899Y-51469853D01*
X158896266Y-51396287D01*
X158880137Y-51315203D01*
X158880135Y-51315198D01*
X158819797Y-51169527D01*
X158819790Y-51169514D01*
X158732189Y-51038411D01*
X158732186Y-51038407D01*
X158655960Y-50962181D01*
X158622475Y-50900858D01*
X158627459Y-50831166D01*
X158669331Y-50775233D01*
X158734795Y-50750816D01*
X158743641Y-50750500D01*
X162079903Y-50750500D01*
X162109343Y-50759144D01*
X162139330Y-50765668D01*
X162144345Y-50769422D01*
X162146942Y-50770185D01*
X162167584Y-50786819D01*
X162266241Y-50885476D01*
X162299726Y-50946799D01*
X162296492Y-51011473D01*
X162282753Y-51053757D01*
X162249500Y-51263713D01*
X162249500Y-51476287D01*
X162253225Y-51499806D01*
X162270082Y-51606239D01*
X162282754Y-51686243D01*
X162329472Y-51830027D01*
X162348444Y-51888414D01*
X162444951Y-52077820D01*
X162569890Y-52249786D01*
X162720213Y-52400109D01*
X162892182Y-52525050D01*
X162900946Y-52529516D01*
X162951742Y-52577491D01*
X162968536Y-52645312D01*
X162945998Y-52711447D01*
X162900946Y-52750484D01*
X162892182Y-52754949D01*
X162720213Y-52879890D01*
X162569890Y-53030213D01*
X162444951Y-53202179D01*
X162348444Y-53391585D01*
X162282753Y-53593760D01*
X162249500Y-53803713D01*
X162249500Y-54016286D01*
X162278393Y-54198713D01*
X162282754Y-54226243D01*
X162335824Y-54389576D01*
X162348444Y-54428414D01*
X162444951Y-54617820D01*
X162569890Y-54789786D01*
X162720213Y-54940109D01*
X162892182Y-55065050D01*
X162900946Y-55069516D01*
X162951742Y-55117491D01*
X162968536Y-55185312D01*
X162945998Y-55251447D01*
X162900946Y-55290484D01*
X162892182Y-55294949D01*
X162720213Y-55419890D01*
X162569890Y-55570213D01*
X162444951Y-55742179D01*
X162348444Y-55931585D01*
X162282753Y-56133760D01*
X162249500Y-56343713D01*
X162249500Y-56556286D01*
X162270082Y-56686239D01*
X162282754Y-56766243D01*
X162322449Y-56888412D01*
X162348444Y-56968414D01*
X162444951Y-57157820D01*
X162569890Y-57329786D01*
X162720213Y-57480109D01*
X162892179Y-57605048D01*
X162892181Y-57605049D01*
X162892184Y-57605051D01*
X163081588Y-57701557D01*
X163283757Y-57767246D01*
X163493713Y-57800500D01*
X163493714Y-57800500D01*
X163706286Y-57800500D01*
X163706287Y-57800500D01*
X163916243Y-57767246D01*
X164118412Y-57701557D01*
X164307816Y-57605051D01*
X164329789Y-57589086D01*
X164479786Y-57480109D01*
X164479788Y-57480106D01*
X164479792Y-57480104D01*
X164630104Y-57329792D01*
X164630106Y-57329788D01*
X164630109Y-57329786D01*
X164755048Y-57157820D01*
X164755047Y-57157820D01*
X164755051Y-57157816D01*
X164851557Y-56968412D01*
X164917246Y-56766243D01*
X164950500Y-56556287D01*
X164950500Y-56343713D01*
X164917246Y-56133757D01*
X164851557Y-55931588D01*
X164755051Y-55742184D01*
X164755049Y-55742181D01*
X164755048Y-55742179D01*
X164630109Y-55570213D01*
X164479786Y-55419890D01*
X164307820Y-55294951D01*
X164307115Y-55294591D01*
X164299054Y-55290485D01*
X164248259Y-55242512D01*
X164231463Y-55174692D01*
X164253999Y-55108556D01*
X164299054Y-55069515D01*
X164307816Y-55065051D01*
X164345749Y-55037491D01*
X164479786Y-54940109D01*
X164479788Y-54940106D01*
X164479792Y-54940104D01*
X164630104Y-54789792D01*
X164630106Y-54789788D01*
X164630109Y-54789786D01*
X164755048Y-54617820D01*
X164755047Y-54617820D01*
X164755051Y-54617816D01*
X164851557Y-54428412D01*
X164917246Y-54226243D01*
X164950500Y-54016287D01*
X164950500Y-53803713D01*
X164917246Y-53593757D01*
X164851557Y-53391588D01*
X164755051Y-53202184D01*
X164755049Y-53202181D01*
X164755048Y-53202179D01*
X164630109Y-53030213D01*
X164479786Y-52879890D01*
X164307820Y-52754951D01*
X164307115Y-52754591D01*
X164299054Y-52750485D01*
X164248259Y-52702512D01*
X164231463Y-52634692D01*
X164253999Y-52568556D01*
X164299054Y-52529515D01*
X164307816Y-52525051D01*
X164345749Y-52497491D01*
X164479786Y-52400109D01*
X164479788Y-52400106D01*
X164479792Y-52400104D01*
X164630104Y-52249792D01*
X164630106Y-52249788D01*
X164630109Y-52249786D01*
X164755048Y-52077820D01*
X164755047Y-52077820D01*
X164755051Y-52077816D01*
X164851557Y-51888412D01*
X164917246Y-51686243D01*
X164950500Y-51476287D01*
X164950500Y-51263713D01*
X164917246Y-51053757D01*
X164851557Y-50851588D01*
X164755051Y-50662184D01*
X164755049Y-50662181D01*
X164755048Y-50662179D01*
X164630109Y-50490213D01*
X164479786Y-50339890D01*
X164307820Y-50214951D01*
X164307115Y-50214591D01*
X164299054Y-50210485D01*
X164248259Y-50162512D01*
X164231463Y-50094692D01*
X164253999Y-50028556D01*
X164299054Y-49989515D01*
X164307816Y-49985051D01*
X164345749Y-49957491D01*
X164479786Y-49860109D01*
X164479788Y-49860106D01*
X164479792Y-49860104D01*
X164630104Y-49709792D01*
X164630106Y-49709788D01*
X164630109Y-49709786D01*
X164755048Y-49537820D01*
X164755047Y-49537820D01*
X164755051Y-49537816D01*
X164851557Y-49348412D01*
X164917246Y-49146243D01*
X164950500Y-48936287D01*
X164950500Y-48723713D01*
X164917246Y-48513757D01*
X164851557Y-48311588D01*
X164755051Y-48122184D01*
X164755049Y-48122181D01*
X164755048Y-48122179D01*
X164630109Y-47950213D01*
X164479786Y-47799890D01*
X164307820Y-47674951D01*
X164307115Y-47674591D01*
X164299054Y-47670485D01*
X164248259Y-47622512D01*
X164231463Y-47554692D01*
X164253999Y-47488556D01*
X164299054Y-47449515D01*
X164307816Y-47445051D01*
X164398690Y-47379028D01*
X164479786Y-47320109D01*
X164479788Y-47320106D01*
X164479792Y-47320104D01*
X164630104Y-47169792D01*
X164630106Y-47169788D01*
X164630109Y-47169786D01*
X164755048Y-46997820D01*
X164755047Y-46997820D01*
X164755051Y-46997816D01*
X164851557Y-46808412D01*
X164917246Y-46606243D01*
X164950500Y-46396287D01*
X164950500Y-46183713D01*
X164917246Y-45973757D01*
X164851557Y-45771588D01*
X164755051Y-45582184D01*
X164755049Y-45582181D01*
X164755048Y-45582179D01*
X164630109Y-45410213D01*
X164479786Y-45259890D01*
X164307820Y-45134951D01*
X164307115Y-45134591D01*
X164299054Y-45130485D01*
X164248259Y-45082512D01*
X164231463Y-45014692D01*
X164253999Y-44948556D01*
X164299054Y-44909515D01*
X164307816Y-44905051D01*
X164411782Y-44829516D01*
X164479786Y-44780109D01*
X164479788Y-44780106D01*
X164479792Y-44780104D01*
X164630104Y-44629792D01*
X164630106Y-44629788D01*
X164630109Y-44629786D01*
X164755048Y-44457820D01*
X164755047Y-44457820D01*
X164755051Y-44457816D01*
X164851557Y-44268412D01*
X164917246Y-44066243D01*
X164950500Y-43856287D01*
X164950500Y-43643713D01*
X164917246Y-43433757D01*
X164851557Y-43231588D01*
X164755051Y-43042184D01*
X164755049Y-43042181D01*
X164755048Y-43042179D01*
X164630109Y-42870213D01*
X164516181Y-42756285D01*
X164482696Y-42694962D01*
X164487680Y-42625270D01*
X164529552Y-42569337D01*
X164560529Y-42552422D01*
X164692086Y-42503354D01*
X164692093Y-42503350D01*
X164807187Y-42417190D01*
X164807190Y-42417187D01*
X164893350Y-42302093D01*
X164893354Y-42302086D01*
X164943596Y-42167379D01*
X164943598Y-42167372D01*
X164949999Y-42107844D01*
X164950000Y-42107827D01*
X164950000Y-41460000D01*
X164033012Y-41460000D01*
X164065925Y-41402993D01*
X164100000Y-41275826D01*
X164100000Y-41144174D01*
X164065925Y-41017007D01*
X164033012Y-40960000D01*
X164950000Y-40960000D01*
X164950000Y-40312172D01*
X164949999Y-40312155D01*
X164943598Y-40252627D01*
X164943596Y-40252620D01*
X164893354Y-40117913D01*
X164893350Y-40117906D01*
X164807190Y-40002812D01*
X164807187Y-40002809D01*
X164692093Y-39916649D01*
X164692086Y-39916645D01*
X164557379Y-39866403D01*
X164557372Y-39866401D01*
X164497844Y-39860000D01*
X163850000Y-39860000D01*
X163850000Y-40776988D01*
X163792993Y-40744075D01*
X163665826Y-40710000D01*
X163534174Y-40710000D01*
X163407007Y-40744075D01*
X163350000Y-40776988D01*
X163350000Y-39860000D01*
X162702155Y-39860000D01*
X162642627Y-39866401D01*
X162642620Y-39866403D01*
X162507913Y-39916645D01*
X162507906Y-39916649D01*
X162392812Y-40002809D01*
X162392809Y-40002812D01*
X162306649Y-40117906D01*
X162306645Y-40117913D01*
X162256403Y-40252620D01*
X162256401Y-40252627D01*
X162250000Y-40312155D01*
X162250000Y-40960000D01*
X163166988Y-40960000D01*
X163134075Y-41017007D01*
X163100000Y-41144174D01*
X163100000Y-41275826D01*
X163134075Y-41402993D01*
X163166988Y-41460000D01*
X162250000Y-41460000D01*
X162250000Y-42107844D01*
X162256401Y-42167372D01*
X162256403Y-42167379D01*
X162306645Y-42302086D01*
X162306649Y-42302093D01*
X162392809Y-42417187D01*
X162392812Y-42417190D01*
X162507906Y-42503350D01*
X162507913Y-42503354D01*
X162639470Y-42552422D01*
X162695404Y-42594293D01*
X162719821Y-42659758D01*
X162704969Y-42728031D01*
X162683819Y-42756285D01*
X162569889Y-42870215D01*
X162444951Y-43042180D01*
X162365154Y-43198789D01*
X162317179Y-43249585D01*
X162307700Y-43254582D01*
X160385181Y-44164161D01*
X160316163Y-44175038D01*
X160252221Y-44146875D01*
X160213656Y-44088612D01*
X160212788Y-44024383D01*
X160211460Y-44024095D01*
X160212400Y-44019772D01*
X160213596Y-44011455D01*
X160242946Y-43807324D01*
X160242946Y-43700006D01*
X160242946Y-43634114D01*
X160242946Y-39324503D01*
X160262631Y-39257464D01*
X160315435Y-39211709D01*
X160366946Y-39200503D01*
X165128152Y-39200503D01*
X165195191Y-39220188D01*
G37*
%TD.AperFunction*%
%TA.AperFunction,Conductor*%
G36*
X147272002Y-50606940D02*
G01*
X147294784Y-50608843D01*
X147312648Y-50618875D01*
X147317108Y-50620185D01*
X147325557Y-50626125D01*
X147331280Y-50630516D01*
X147331284Y-50630520D01*
X147395128Y-50667380D01*
X147468215Y-50709577D01*
X147620943Y-50750501D01*
X147620946Y-50750501D01*
X147786653Y-50750501D01*
X147786669Y-50750500D01*
X157477159Y-50750500D01*
X157493868Y-50755406D01*
X157511284Y-50755288D01*
X157526697Y-50765046D01*
X157544198Y-50770185D01*
X157555601Y-50783344D01*
X157570318Y-50792662D01*
X157578009Y-50809205D01*
X157589953Y-50822989D01*
X157592431Y-50840225D01*
X157599774Y-50856019D01*
X157597300Y-50874091D01*
X157599897Y-50892147D01*
X157592633Y-50908195D01*
X157590301Y-50925243D01*
X157574627Y-50947982D01*
X157571422Y-50955064D01*
X157568269Y-50958752D01*
X157488611Y-51038411D01*
X157447132Y-51100487D01*
X157442367Y-51106064D01*
X157418999Y-51121306D01*
X157397594Y-51139196D01*
X157388753Y-51141036D01*
X157383847Y-51144237D01*
X157373028Y-51144310D01*
X157348104Y-51149500D01*
X136548297Y-51149500D01*
X136481258Y-51129815D01*
X136435503Y-51077011D01*
X136425559Y-51007853D01*
X136454584Y-50944297D01*
X136460616Y-50937819D01*
X136524345Y-50874091D01*
X136761617Y-50636819D01*
X136822940Y-50603334D01*
X136849298Y-50600500D01*
X147250069Y-50600500D01*
X147272002Y-50606940D01*
G37*
%TD.AperFunction*%
%TA.AperFunction,Conductor*%
G36*
X136037141Y-49450185D02*
G01*
X136082896Y-49502989D01*
X136092840Y-49572147D01*
X136063815Y-49635703D01*
X136057783Y-49642181D01*
X135188885Y-50511080D01*
X135127562Y-50544565D01*
X135101204Y-50547399D01*
X135033447Y-50547399D01*
X135033431Y-50547400D01*
X133842960Y-50547400D01*
X133775921Y-50527715D01*
X133742641Y-50496284D01*
X133738230Y-50490213D01*
X133680108Y-50410213D01*
X133680107Y-50410211D01*
X133529786Y-50259890D01*
X133357820Y-50134951D01*
X133357115Y-50134591D01*
X133349054Y-50130485D01*
X133298259Y-50082512D01*
X133281463Y-50014692D01*
X133303999Y-49948556D01*
X133349054Y-49909515D01*
X133357816Y-49905051D01*
X133419681Y-49860104D01*
X133529786Y-49780109D01*
X133529788Y-49780106D01*
X133529792Y-49780104D01*
X133680104Y-49629792D01*
X133787761Y-49481613D01*
X133843089Y-49438949D01*
X133888078Y-49430500D01*
X135970102Y-49430500D01*
X136037141Y-49450185D01*
G37*
%TD.AperFunction*%
%TA.AperFunction,Conductor*%
G36*
X162300108Y-45491884D02*
G01*
X162305561Y-45491025D01*
X162332824Y-45503033D01*
X162361019Y-45512641D01*
X162364451Y-45516963D01*
X162369503Y-45519188D01*
X162385944Y-45544027D01*
X162404471Y-45567356D01*
X162405021Y-45572849D01*
X162408068Y-45577451D01*
X162408470Y-45607229D01*
X162411444Y-45636877D01*
X162408969Y-45644139D01*
X162409012Y-45647314D01*
X162400059Y-45670285D01*
X162348444Y-45771585D01*
X162282753Y-45973760D01*
X162249500Y-46183713D01*
X162249500Y-46396286D01*
X162270082Y-46526239D01*
X162282754Y-46606243D01*
X162322449Y-46728412D01*
X162348444Y-46808414D01*
X162444951Y-46997820D01*
X162569890Y-47169786D01*
X162720213Y-47320109D01*
X162892182Y-47445050D01*
X162900946Y-47449516D01*
X162951742Y-47497491D01*
X162968536Y-47565312D01*
X162945998Y-47631447D01*
X162900946Y-47670484D01*
X162892182Y-47674949D01*
X162720213Y-47799890D01*
X162569890Y-47950213D01*
X162444948Y-48122184D01*
X162444947Y-48122185D01*
X162424765Y-48161795D01*
X162414316Y-48172857D01*
X162407994Y-48186703D01*
X162390812Y-48197744D01*
X162376791Y-48212591D01*
X162361111Y-48216832D01*
X162349216Y-48224477D01*
X162314281Y-48229500D01*
X162263314Y-48229500D01*
X162196275Y-48209815D01*
X162150520Y-48157011D01*
X162140576Y-48087853D01*
X162141697Y-48081308D01*
X162143500Y-48072244D01*
X162143500Y-47914555D01*
X162143499Y-47914553D01*
X162112738Y-47759910D01*
X162112737Y-47759903D01*
X162075699Y-47670484D01*
X162052397Y-47614227D01*
X162052390Y-47614214D01*
X161964789Y-47483111D01*
X161964786Y-47483107D01*
X161853292Y-47371613D01*
X161853288Y-47371610D01*
X161722185Y-47284009D01*
X161722172Y-47284002D01*
X161576501Y-47223664D01*
X161576489Y-47223661D01*
X161421845Y-47192900D01*
X161421842Y-47192900D01*
X161264158Y-47192900D01*
X161264155Y-47192900D01*
X161109510Y-47223661D01*
X161109498Y-47223664D01*
X160963827Y-47284002D01*
X160963814Y-47284009D01*
X160832125Y-47372002D01*
X160765447Y-47392880D01*
X160763234Y-47392900D01*
X144474661Y-47392900D01*
X144407622Y-47373215D01*
X144361867Y-47320411D01*
X144351923Y-47251253D01*
X144380948Y-47187697D01*
X144439726Y-47149923D01*
X144472997Y-47144911D01*
X144621773Y-47142914D01*
X158882942Y-46951489D01*
X158900797Y-46954136D01*
X158981337Y-46950169D01*
X159061960Y-46949087D01*
X159069841Y-46947408D01*
X159089575Y-46944837D01*
X159097639Y-46944441D01*
X159175875Y-46924833D01*
X159254721Y-46908047D01*
X159271293Y-46900920D01*
X159288808Y-46896531D01*
X159359738Y-46862971D01*
X159363735Y-46861167D01*
X159435771Y-46830191D01*
X159442411Y-46825623D01*
X159459651Y-46815700D01*
X162236544Y-45501901D01*
X162265967Y-45497264D01*
X162294884Y-45490104D01*
X162300108Y-45491884D01*
G37*
%TD.AperFunction*%
%TA.AperFunction,Conductor*%
G36*
X134169241Y-45857360D02*
G01*
X134171496Y-45858798D01*
X134668944Y-46183713D01*
X135965384Y-47030502D01*
X135970432Y-47034153D01*
X136053995Y-47088380D01*
X136053996Y-47088381D01*
X136054186Y-47088504D01*
X136135379Y-47141537D01*
X136136771Y-47142096D01*
X136138031Y-47142914D01*
X136165122Y-47153712D01*
X136220110Y-47196818D01*
X136243063Y-47262810D01*
X136226695Y-47330735D01*
X136176202Y-47379028D01*
X136119213Y-47392900D01*
X134733497Y-47392900D01*
X134666458Y-47373215D01*
X134645816Y-47356581D01*
X133983757Y-46694522D01*
X133950272Y-46633199D01*
X133953507Y-46568523D01*
X133967246Y-46526243D01*
X134000500Y-46316287D01*
X134000500Y-46103713D01*
X133981225Y-45982017D01*
X133990179Y-45912727D01*
X134035175Y-45859275D01*
X134101927Y-45838635D01*
X134169241Y-45857360D01*
G37*
%TD.AperFunction*%
%TD*%
M02*
