%TF.GenerationSoftware,KiCad,Pcbnew,9.0.7*%
%TF.CreationDate,2026-02-20T22:20:08+09:00*%
%TF.ProjectId,connect,636f6e6e-6563-4742-9e6b-696361645f70,rev?*%
%TF.SameCoordinates,Original*%
%TF.FileFunction,Legend,Bot*%
%TF.FilePolarity,Positive*%
%FSLAX46Y46*%
G04 Gerber Fmt 4.6, Leading zero omitted, Abs format (unit mm)*
G04 Created by KiCad (PCBNEW 9.0.7) date 2026-02-20 22:20:08*
%MOMM*%
%LPD*%
G01*
G04 APERTURE LIST*
%ADD10C,0.150000*%
%ADD11C,0.120000*%
%ADD12R,1.700000X1.700000*%
%ADD13C,1.700000*%
G04 APERTURE END LIST*
D10*
X132983333Y-38204819D02*
X132983333Y-38919104D01*
X132983333Y-38919104D02*
X133030952Y-39061961D01*
X133030952Y-39061961D02*
X133126190Y-39157200D01*
X133126190Y-39157200D02*
X133269047Y-39204819D01*
X133269047Y-39204819D02*
X133364285Y-39204819D01*
X131983333Y-39204819D02*
X132554761Y-39204819D01*
X132269047Y-39204819D02*
X132269047Y-38204819D01*
X132269047Y-38204819D02*
X132364285Y-38347676D01*
X132364285Y-38347676D02*
X132459523Y-38442914D01*
X132459523Y-38442914D02*
X132554761Y-38490533D01*
X163933333Y-38284819D02*
X163933333Y-38999104D01*
X163933333Y-38999104D02*
X163980952Y-39141961D01*
X163980952Y-39141961D02*
X164076190Y-39237200D01*
X164076190Y-39237200D02*
X164219047Y-39284819D01*
X164219047Y-39284819D02*
X164314285Y-39284819D01*
X163504761Y-38380057D02*
X163457142Y-38332438D01*
X163457142Y-38332438D02*
X163361904Y-38284819D01*
X163361904Y-38284819D02*
X163123809Y-38284819D01*
X163123809Y-38284819D02*
X163028571Y-38332438D01*
X163028571Y-38332438D02*
X162980952Y-38380057D01*
X162980952Y-38380057D02*
X162933333Y-38475295D01*
X162933333Y-38475295D02*
X162933333Y-38570533D01*
X162933333Y-38570533D02*
X162980952Y-38713390D01*
X162980952Y-38713390D02*
X163552380Y-39284819D01*
X163552380Y-39284819D02*
X162933333Y-39284819D01*
D11*
%TO.C,J1*%
X131270000Y-42400000D02*
X131270000Y-57750000D01*
X134030000Y-39750000D02*
X132650000Y-39750000D01*
X134030000Y-41130000D02*
X134030000Y-39750000D01*
X134030000Y-42400000D02*
X131270000Y-42400000D01*
X134030000Y-42400000D02*
X134030000Y-57750000D01*
X134030000Y-57750000D02*
X131270000Y-57750000D01*
%TO.C,J2*%
X162220000Y-42480000D02*
X162220000Y-57830000D01*
X164980000Y-39830000D02*
X163600000Y-39830000D01*
X164980000Y-41210000D02*
X164980000Y-39830000D01*
X164980000Y-42480000D02*
X162220000Y-42480000D01*
X164980000Y-42480000D02*
X164980000Y-57830000D01*
X164980000Y-57830000D02*
X162220000Y-57830000D01*
%TD*%
%LPC*%
D12*
%TO.C,J1*%
X132650000Y-41130000D03*
D13*
X132650000Y-43670000D03*
X132650000Y-46210000D03*
X132650000Y-48750000D03*
X132650000Y-51290000D03*
X132650000Y-53830000D03*
X132650000Y-56370000D03*
%TD*%
D12*
%TO.C,J2*%
X163600000Y-41210000D03*
D13*
X163600000Y-43750000D03*
X163600000Y-46290000D03*
X163600000Y-48830000D03*
X163600000Y-51370000D03*
X163600000Y-53910000D03*
X163600000Y-56450000D03*
%TD*%
%LPD*%
M02*
