M48
; DRILL file {KiCad 9.0.7} date 2026-02-20T22:20:08+0900
; FORMAT={-:-/ absolute / inch / decimal}
; #@! TF.CreationDate,2026-02-20T22:20:08+09:00
; #@! TF.GenerationSoftware,Kicad,Pcbnew,9.0.7
; #@! TF.FileFunction,Plated,1,2,PTH
FMAT,2
INCH
; #@! TA.AperFunction,Plated,PTH,ViaDrill
T1C0.0118
; #@! TA.AperFunction,Plated,PTH,ComponentDrill
T2C0.0394
%
G90
G05
T1
X5.3037Y-2.0374
X5.3169Y-2.2303
X5.3268Y-1.8524
X5.3268Y-1.9626
X5.5394Y-1.8661
X5.6614Y-2.0059
X5.9035Y-1.9449
X6.0118Y-2.0098
X6.0157Y-1.8642
X6.2248Y-2.0295
X6.3228Y-2.0039
X6.3268Y-1.8346
X6.3287Y-2.2461
X6.3521Y-1.8895
X6.3521Y-2.0555
T2
X5.2224Y-1.6193
X5.2224Y-1.7193
X5.2224Y-1.8193
X5.2224Y-1.9193
X5.2224Y-2.0193
X5.2224Y-2.1193
X5.2224Y-2.2193
X6.4409Y-1.6224
X6.4409Y-1.7224
X6.4409Y-1.8224
X6.4409Y-1.9224
X6.4409Y-2.0224
X6.4409Y-2.1224
X6.4409Y-2.2224
M30
