%TF.GenerationSoftware,KiCad,Pcbnew,9.0.7*%
%TF.CreationDate,2026-02-20T22:20:08+09:00*%
%TF.ProjectId,connect,636f6e6e-6563-4742-9e6b-696361645f70,rev?*%
%TF.SameCoordinates,Original*%
%TF.FileFunction,Profile,NP*%
%FSLAX46Y46*%
G04 Gerber Fmt 4.6, Leading zero omitted, Abs format (unit mm)*
G04 Created by KiCad (PCBNEW 9.0.7) date 2026-02-20 22:20:08*
%MOMM*%
%LPD*%
G01*
G04 APERTURE LIST*
%TA.AperFunction,Profile*%
%ADD10C,0.200000*%
%TD*%
G04 APERTURE END LIST*
D10*
X159742446Y-39200004D02*
G75*
G02*
X160242447Y-38700046I499954J4D01*
G01*
X159742446Y-39200004D02*
X159742446Y-43700004D01*
X158742447Y-52700003D02*
G75*
G02*
X159742397Y-53700002I-47J-999997D01*
G01*
X159742446Y-43700004D02*
G75*
G02*
X158742447Y-44700046I-1000046J4D01*
G01*
X135956445Y-38700003D02*
G75*
G02*
X136456397Y-39200004I-45J-499997D01*
G01*
X165252654Y-38700003D02*
G75*
G02*
X165752697Y-39200002I46J-499997D01*
G01*
X160242447Y-58700003D02*
G75*
G02*
X159742397Y-58200002I-47J500003D01*
G01*
X130946443Y-58700003D02*
X135956449Y-58700003D01*
X160242447Y-58700003D02*
X165252655Y-58700003D01*
X165752652Y-58200005D02*
G75*
G02*
X165252655Y-58699952I-499952J5D01*
G01*
X136456446Y-53700002D02*
G75*
G02*
X137456445Y-52700046I999954J2D01*
G01*
X130446446Y-39200000D02*
G75*
G02*
X130946445Y-38700046I499954J0D01*
G01*
X165752652Y-58200005D02*
X165752652Y-39200002D01*
X136456446Y-58200005D02*
X136456446Y-53700002D01*
X137456445Y-52700003D02*
X158742447Y-52700003D01*
X158742447Y-44700003D02*
X137456444Y-44700003D01*
X135956445Y-38700003D02*
X130946445Y-38700003D01*
X136456446Y-58200005D02*
G75*
G02*
X135956449Y-58700046I-500046J5D01*
G01*
X159742446Y-53700002D02*
X159742446Y-58200002D01*
X136456446Y-43700005D02*
X136456446Y-39200004D01*
X137456444Y-44700003D02*
G75*
G02*
X136456397Y-43700005I-44J1000003D01*
G01*
X130946443Y-58700003D02*
G75*
G02*
X130446397Y-58200004I-43J500003D01*
G01*
X130446446Y-39200000D02*
X130446446Y-58200004D01*
X165252654Y-38700003D02*
X160242447Y-38700003D01*
M02*
