%TF.GenerationSoftware,KiCad,Pcbnew,9.0.7*%
%TF.CreationDate,2026-02-20T22:20:08+09:00*%
%TF.ProjectId,connect,636f6e6e-6563-4742-9e6b-696361645f70,rev?*%
%TF.SameCoordinates,Original*%
%TF.FileFunction,Copper,L2,Bot*%
%TF.FilePolarity,Positive*%
%FSLAX46Y46*%
G04 Gerber Fmt 4.6, Leading zero omitted, Abs format (unit mm)*
G04 Created by KiCad (PCBNEW 9.0.7) date 2026-02-20 22:20:08*
%MOMM*%
%LPD*%
G01*
G04 APERTURE LIST*
%TA.AperFunction,ComponentPad*%
%ADD10R,1.700000X1.700000*%
%TD*%
%TA.AperFunction,ComponentPad*%
%ADD11C,1.700000*%
%TD*%
%TA.AperFunction,ViaPad*%
%ADD12C,0.600000*%
%TD*%
%TA.AperFunction,ViaPad*%
%ADD13C,0.500000*%
%TD*%
%TA.AperFunction,Conductor*%
%ADD14C,0.200000*%
%TD*%
%TA.AperFunction,Conductor*%
%ADD15C,1.000000*%
%TD*%
G04 APERTURE END LIST*
D10*
%TO.P,J1,1,Pin_1*%
%TO.N,GND*%
X132650000Y-41130000D03*
D11*
%TO.P,J1,2,Pin_2*%
%TO.N,Net-(J1-Pin_2)*%
X132650000Y-43670000D03*
%TO.P,J1,3,Pin_3*%
%TO.N,Net-(J1-Pin_3)*%
X132650000Y-46210000D03*
%TO.P,J1,4,Pin_4*%
%TO.N,Net-(J1-Pin_4)*%
X132650000Y-48750000D03*
%TO.P,J1,5,Pin_5*%
%TO.N,Net-(J1-Pin_5)*%
X132650000Y-51290000D03*
%TO.P,J1,6,Pin_6*%
%TO.N,Net-(J1-Pin_6)*%
X132650000Y-53830000D03*
%TO.P,J1,7,Pin_7*%
%TO.N,Net-(J1-Pin_7)*%
X132650000Y-56370000D03*
%TD*%
D10*
%TO.P,J2,1,Pin_1*%
%TO.N,GND*%
X163600000Y-41210000D03*
D11*
%TO.P,J2,2,Pin_2*%
%TO.N,Net-(J1-Pin_2)*%
X163600000Y-43750000D03*
%TO.P,J2,3,Pin_3*%
%TO.N,Net-(J1-Pin_3)*%
X163600000Y-46290000D03*
%TO.P,J2,4,Pin_4*%
%TO.N,Net-(J1-Pin_4)*%
X163600000Y-48830000D03*
%TO.P,J2,5,Pin_5*%
%TO.N,Net-(J1-Pin_5)*%
X163600000Y-51370000D03*
%TO.P,J2,6,Pin_6*%
%TO.N,Net-(J1-Pin_6)*%
X163600000Y-53910000D03*
%TO.P,J2,7,Pin_7*%
%TO.N,Net-(J1-Pin_7)*%
X163600000Y-56450000D03*
%TD*%
D12*
%TO.N,Net-(J1-Pin_3)*%
X161343000Y-47993400D03*
%TO.N,Net-(J1-Pin_7)*%
X134713700Y-51749600D03*
X158110400Y-51548700D03*
%TO.N,Net-(J1-Pin_6)*%
X161343000Y-52209200D03*
D13*
%TO.N,GND*%
X152800000Y-47350000D03*
X152700000Y-51050000D03*
X160600000Y-50900000D03*
X149950000Y-49400000D03*
X135050000Y-56650000D03*
X160750000Y-57050000D03*
X140700000Y-47400000D03*
X135300000Y-47050000D03*
X135300000Y-49850000D03*
X160700000Y-46600000D03*
X143800000Y-50950000D03*
%TD*%
D14*
%TO.N,Net-(J1-Pin_3)*%
X163046400Y-46290000D02*
X161343000Y-47993400D01*
X163600000Y-46290000D02*
X163046400Y-46290000D01*
%TO.N,Net-(J1-Pin_7)*%
X134713700Y-54306300D02*
X132650000Y-56370000D01*
X134713700Y-51749600D02*
X134713700Y-54306300D01*
X158060200Y-51598900D02*
X158110400Y-51548700D01*
X158110400Y-51548700D02*
X158060200Y-51598900D01*
X163600000Y-56450000D02*
X158698700Y-51548700D01*
X158698700Y-51548700D02*
X158110400Y-51548700D01*
%TO.N,Net-(J1-Pin_6)*%
X161899200Y-52209200D02*
X161343000Y-52209200D01*
X161899200Y-52209200D02*
X161343000Y-52209200D01*
X163600000Y-53910000D02*
X161899200Y-52209200D01*
X161343000Y-52209200D02*
X161899200Y-52209200D01*
D15*
%TO.N,GND*%
X134850000Y-45300000D02*
X134500000Y-43250000D01*
X156300000Y-46500000D02*
X136950000Y-46300000D01*
X161150000Y-43650000D02*
X160050000Y-45600000D01*
X160050000Y-45600000D02*
X156300000Y-46500000D01*
X133850000Y-41650000D02*
X132650000Y-41130000D01*
X136950000Y-46300000D02*
X134850000Y-45300000D01*
X134500000Y-43250000D02*
X133850000Y-41650000D01*
X163600000Y-41210000D02*
X161150000Y-43650000D01*
%TD*%
%TA.AperFunction,Conductor*%
%TO.N,GND*%
G36*
X135898985Y-39220188D02*
G01*
X135944740Y-39272992D01*
X135955946Y-39324503D01*
X135955946Y-43627981D01*
X135955945Y-43628003D01*
X135955945Y-43648597D01*
X135955897Y-43648760D01*
X135955897Y-43807325D01*
X135971629Y-43916733D01*
X135986444Y-44019774D01*
X135986447Y-44019789D01*
X136046919Y-44225729D01*
X136136087Y-44420974D01*
X136136089Y-44420976D01*
X136252134Y-44601538D01*
X136392698Y-44763751D01*
X136468597Y-44829514D01*
X136554919Y-44904308D01*
X136639160Y-44958443D01*
X136721640Y-45011447D01*
X136735490Y-45020347D01*
X136930738Y-45109506D01*
X137136687Y-45169970D01*
X137349145Y-45200508D01*
X137456466Y-45200503D01*
X158668305Y-45200503D01*
X158676569Y-45200503D01*
X158676578Y-45200506D01*
X158691082Y-45200505D01*
X158691227Y-45200547D01*
X158742471Y-45200545D01*
X158742471Y-45200546D01*
X158849788Y-45200541D01*
X159062238Y-45169986D01*
X159268176Y-45109509D01*
X159463413Y-45020340D01*
X159643972Y-44904294D01*
X159806158Y-44763752D01*
X159806178Y-44763735D01*
X159861308Y-44700109D01*
X159946733Y-44601520D01*
X160062771Y-44420956D01*
X160151931Y-44225716D01*
X160212400Y-44019774D01*
X160242946Y-43807324D01*
X160242946Y-43700006D01*
X160242946Y-43634114D01*
X160242946Y-39324503D01*
X160262631Y-39257464D01*
X160315435Y-39211709D01*
X160366946Y-39200503D01*
X165128152Y-39200503D01*
X165195191Y-39220188D01*
X165240946Y-39272992D01*
X165252152Y-39324503D01*
X165252152Y-58075503D01*
X165232467Y-58142542D01*
X165179663Y-58188297D01*
X165128152Y-58199503D01*
X160366946Y-58199503D01*
X160299907Y-58179818D01*
X160254152Y-58127014D01*
X160242946Y-58075503D01*
X160242946Y-54241543D01*
X160262631Y-54174504D01*
X160315435Y-54128749D01*
X160384593Y-54118805D01*
X160448149Y-54147830D01*
X160454627Y-54153862D01*
X162266241Y-55965476D01*
X162299726Y-56026799D01*
X162296492Y-56091473D01*
X162282753Y-56133757D01*
X162249500Y-56343713D01*
X162249500Y-56556286D01*
X162270082Y-56686239D01*
X162282754Y-56766243D01*
X162322449Y-56888412D01*
X162348444Y-56968414D01*
X162444951Y-57157820D01*
X162569890Y-57329786D01*
X162720213Y-57480109D01*
X162892179Y-57605048D01*
X162892181Y-57605049D01*
X162892184Y-57605051D01*
X163081588Y-57701557D01*
X163283757Y-57767246D01*
X163493713Y-57800500D01*
X163493714Y-57800500D01*
X163706286Y-57800500D01*
X163706287Y-57800500D01*
X163916243Y-57767246D01*
X164118412Y-57701557D01*
X164307816Y-57605051D01*
X164329789Y-57589086D01*
X164479786Y-57480109D01*
X164479788Y-57480106D01*
X164479792Y-57480104D01*
X164630104Y-57329792D01*
X164630106Y-57329788D01*
X164630109Y-57329786D01*
X164755048Y-57157820D01*
X164755047Y-57157820D01*
X164755051Y-57157816D01*
X164851557Y-56968412D01*
X164917246Y-56766243D01*
X164950500Y-56556287D01*
X164950500Y-56343713D01*
X164917246Y-56133757D01*
X164851557Y-55931588D01*
X164755051Y-55742184D01*
X164755049Y-55742181D01*
X164755048Y-55742179D01*
X164630109Y-55570213D01*
X164479786Y-55419890D01*
X164307820Y-55294951D01*
X164307115Y-55294591D01*
X164299054Y-55290485D01*
X164248259Y-55242512D01*
X164231463Y-55174692D01*
X164253999Y-55108556D01*
X164299054Y-55069515D01*
X164307816Y-55065051D01*
X164411782Y-54989516D01*
X164479786Y-54940109D01*
X164479788Y-54940106D01*
X164479792Y-54940104D01*
X164630104Y-54789792D01*
X164630106Y-54789788D01*
X164630109Y-54789786D01*
X164755048Y-54617820D01*
X164755047Y-54617820D01*
X164755051Y-54617816D01*
X164851557Y-54428412D01*
X164917246Y-54226243D01*
X164950500Y-54016287D01*
X164950500Y-53803713D01*
X164917246Y-53593757D01*
X164851557Y-53391588D01*
X164755051Y-53202184D01*
X164755049Y-53202181D01*
X164755048Y-53202179D01*
X164630109Y-53030213D01*
X164479786Y-52879890D01*
X164307820Y-52754951D01*
X164307115Y-52754591D01*
X164299054Y-52750485D01*
X164248259Y-52702512D01*
X164231463Y-52634692D01*
X164253999Y-52568556D01*
X164299054Y-52529515D01*
X164307816Y-52525051D01*
X164348169Y-52495733D01*
X164479786Y-52400109D01*
X164479788Y-52400106D01*
X164479792Y-52400104D01*
X164630104Y-52249792D01*
X164630106Y-52249788D01*
X164630109Y-52249786D01*
X164755048Y-52077820D01*
X164755047Y-52077820D01*
X164755051Y-52077816D01*
X164851557Y-51888412D01*
X164917246Y-51686243D01*
X164950500Y-51476287D01*
X164950500Y-51263713D01*
X164917246Y-51053757D01*
X164851557Y-50851588D01*
X164755051Y-50662184D01*
X164755049Y-50662181D01*
X164755048Y-50662179D01*
X164630109Y-50490213D01*
X164479786Y-50339890D01*
X164307820Y-50214951D01*
X164307115Y-50214591D01*
X164299054Y-50210485D01*
X164248259Y-50162512D01*
X164231463Y-50094692D01*
X164253999Y-50028556D01*
X164299054Y-49989515D01*
X164307816Y-49985051D01*
X164345749Y-49957491D01*
X164479786Y-49860109D01*
X164479788Y-49860106D01*
X164479792Y-49860104D01*
X164630104Y-49709792D01*
X164630106Y-49709788D01*
X164630109Y-49709786D01*
X164755048Y-49537820D01*
X164755047Y-49537820D01*
X164755051Y-49537816D01*
X164851557Y-49348412D01*
X164917246Y-49146243D01*
X164950500Y-48936287D01*
X164950500Y-48723713D01*
X164917246Y-48513757D01*
X164851557Y-48311588D01*
X164755051Y-48122184D01*
X164755049Y-48122181D01*
X164755048Y-48122179D01*
X164630109Y-47950213D01*
X164479786Y-47799890D01*
X164307820Y-47674951D01*
X164307115Y-47674591D01*
X164299054Y-47670485D01*
X164248259Y-47622512D01*
X164231463Y-47554692D01*
X164253999Y-47488556D01*
X164299054Y-47449515D01*
X164307816Y-47445051D01*
X164345749Y-47417491D01*
X164479786Y-47320109D01*
X164479788Y-47320106D01*
X164479792Y-47320104D01*
X164630104Y-47169792D01*
X164630106Y-47169788D01*
X164630109Y-47169786D01*
X164755048Y-46997820D01*
X164755047Y-46997820D01*
X164755051Y-46997816D01*
X164851557Y-46808412D01*
X164917246Y-46606243D01*
X164950500Y-46396287D01*
X164950500Y-46183713D01*
X164917246Y-45973757D01*
X164851557Y-45771588D01*
X164755051Y-45582184D01*
X164755049Y-45582181D01*
X164755048Y-45582179D01*
X164630109Y-45410213D01*
X164479786Y-45259890D01*
X164307820Y-45134951D01*
X164307115Y-45134591D01*
X164299054Y-45130485D01*
X164248259Y-45082512D01*
X164231463Y-45014692D01*
X164253999Y-44948556D01*
X164299054Y-44909515D01*
X164307816Y-44905051D01*
X164345749Y-44877491D01*
X164479786Y-44780109D01*
X164479788Y-44780106D01*
X164479792Y-44780104D01*
X164630104Y-44629792D01*
X164630106Y-44629788D01*
X164630109Y-44629786D01*
X164755048Y-44457820D01*
X164755047Y-44457820D01*
X164755051Y-44457816D01*
X164851557Y-44268412D01*
X164917246Y-44066243D01*
X164950500Y-43856287D01*
X164950500Y-43643713D01*
X164917246Y-43433757D01*
X164851557Y-43231588D01*
X164755051Y-43042184D01*
X164755049Y-43042181D01*
X164755048Y-43042179D01*
X164630109Y-42870213D01*
X164516181Y-42756285D01*
X164482696Y-42694962D01*
X164487680Y-42625270D01*
X164529552Y-42569337D01*
X164560529Y-42552422D01*
X164692086Y-42503354D01*
X164692093Y-42503350D01*
X164807187Y-42417190D01*
X164807190Y-42417187D01*
X164893350Y-42302093D01*
X164893354Y-42302086D01*
X164943596Y-42167379D01*
X164943598Y-42167372D01*
X164949999Y-42107844D01*
X164950000Y-42107827D01*
X164950000Y-41460000D01*
X164033012Y-41460000D01*
X164065925Y-41402993D01*
X164100000Y-41275826D01*
X164100000Y-41144174D01*
X164065925Y-41017007D01*
X164033012Y-40960000D01*
X164950000Y-40960000D01*
X164950000Y-40312172D01*
X164949999Y-40312155D01*
X164943598Y-40252627D01*
X164943596Y-40252620D01*
X164893354Y-40117913D01*
X164893350Y-40117906D01*
X164807190Y-40002812D01*
X164807187Y-40002809D01*
X164692093Y-39916649D01*
X164692086Y-39916645D01*
X164557379Y-39866403D01*
X164557372Y-39866401D01*
X164497844Y-39860000D01*
X163850000Y-39860000D01*
X163850000Y-40776988D01*
X163792993Y-40744075D01*
X163665826Y-40710000D01*
X163534174Y-40710000D01*
X163407007Y-40744075D01*
X163350000Y-40776988D01*
X163350000Y-39860000D01*
X162702155Y-39860000D01*
X162642627Y-39866401D01*
X162642620Y-39866403D01*
X162507913Y-39916645D01*
X162507906Y-39916649D01*
X162392812Y-40002809D01*
X162392809Y-40002812D01*
X162306649Y-40117906D01*
X162306645Y-40117913D01*
X162256403Y-40252620D01*
X162256401Y-40252627D01*
X162250000Y-40312155D01*
X162250000Y-40960000D01*
X163166988Y-40960000D01*
X163134075Y-41017007D01*
X163100000Y-41144174D01*
X163100000Y-41275826D01*
X163134075Y-41402993D01*
X163166988Y-41460000D01*
X162250000Y-41460000D01*
X162250000Y-42107844D01*
X162256401Y-42167372D01*
X162256403Y-42167379D01*
X162306645Y-42302086D01*
X162306649Y-42302093D01*
X162392809Y-42417187D01*
X162392812Y-42417190D01*
X162507906Y-42503350D01*
X162507913Y-42503354D01*
X162639470Y-42552422D01*
X162695404Y-42594293D01*
X162719821Y-42659758D01*
X162704969Y-42728031D01*
X162683819Y-42756285D01*
X162569889Y-42870215D01*
X162444951Y-43042179D01*
X162348444Y-43231585D01*
X162282753Y-43433760D01*
X162249500Y-43643713D01*
X162249500Y-43856286D01*
X162275395Y-44019785D01*
X162282754Y-44066243D01*
X162334574Y-44225729D01*
X162348444Y-44268414D01*
X162444951Y-44457820D01*
X162569890Y-44629786D01*
X162720213Y-44780109D01*
X162892182Y-44905050D01*
X162900946Y-44909516D01*
X162951742Y-44957491D01*
X162968536Y-45025312D01*
X162945998Y-45091447D01*
X162900946Y-45130484D01*
X162892182Y-45134949D01*
X162720213Y-45259890D01*
X162569890Y-45410213D01*
X162444951Y-45582179D01*
X162348444Y-45771585D01*
X162282753Y-45973760D01*
X162249500Y-46183713D01*
X162249500Y-46186303D01*
X162249221Y-46187252D01*
X162249117Y-46188576D01*
X162248838Y-46188554D01*
X162229815Y-46253342D01*
X162213181Y-46273984D01*
X161328339Y-47158825D01*
X161267016Y-47192310D01*
X161264850Y-47192761D01*
X161109508Y-47223661D01*
X161109498Y-47223664D01*
X160963827Y-47284002D01*
X160963814Y-47284009D01*
X160832711Y-47371610D01*
X160832707Y-47371613D01*
X160721213Y-47483107D01*
X160721210Y-47483111D01*
X160633609Y-47614214D01*
X160633602Y-47614227D01*
X160573264Y-47759898D01*
X160573261Y-47759910D01*
X160542500Y-47914553D01*
X160542500Y-48072246D01*
X160573261Y-48226889D01*
X160573264Y-48226901D01*
X160633602Y-48372572D01*
X160633609Y-48372585D01*
X160721210Y-48503688D01*
X160721213Y-48503692D01*
X160832707Y-48615186D01*
X160832711Y-48615189D01*
X160963814Y-48702790D01*
X160963827Y-48702797D01*
X161109498Y-48763135D01*
X161109503Y-48763137D01*
X161264153Y-48793899D01*
X161264156Y-48793900D01*
X161264158Y-48793900D01*
X161421844Y-48793900D01*
X161421845Y-48793899D01*
X161576497Y-48763137D01*
X161722179Y-48702794D01*
X161853289Y-48615189D01*
X161964789Y-48503689D01*
X162052394Y-48372579D01*
X162112737Y-48226897D01*
X162133567Y-48122179D01*
X162143638Y-48071550D01*
X162176023Y-48009639D01*
X162177521Y-48008113D01*
X162344445Y-47841189D01*
X162405767Y-47807705D01*
X162475459Y-47812689D01*
X162531392Y-47854561D01*
X162555809Y-47920025D01*
X162540957Y-47988298D01*
X162532444Y-48001756D01*
X162444948Y-48122184D01*
X162348444Y-48311585D01*
X162282753Y-48513760D01*
X162249500Y-48723713D01*
X162249500Y-48936286D01*
X162270082Y-49066239D01*
X162282754Y-49146243D01*
X162322449Y-49268412D01*
X162348444Y-49348414D01*
X162444951Y-49537820D01*
X162569890Y-49709786D01*
X162720213Y-49860109D01*
X162892182Y-49985050D01*
X162900946Y-49989516D01*
X162951742Y-50037491D01*
X162968536Y-50105312D01*
X162945998Y-50171447D01*
X162900946Y-50210484D01*
X162892182Y-50214949D01*
X162720213Y-50339890D01*
X162569890Y-50490213D01*
X162444951Y-50662179D01*
X162348444Y-50851585D01*
X162282753Y-51053760D01*
X162253365Y-51239311D01*
X162249500Y-51263713D01*
X162249500Y-51476287D01*
X162253225Y-51499806D01*
X162253553Y-51501876D01*
X162249820Y-51530760D01*
X162248917Y-51559880D01*
X162245394Y-51565004D01*
X162244598Y-51571170D01*
X162225839Y-51593453D01*
X162209339Y-51617459D01*
X162203606Y-51619865D01*
X162199602Y-51624622D01*
X162171773Y-51633226D01*
X162144914Y-51644500D01*
X162137188Y-51643919D01*
X162132850Y-51645261D01*
X162109637Y-51643406D01*
X162104259Y-51642461D01*
X161978257Y-51608699D01*
X161911960Y-51608699D01*
X161901321Y-51606831D01*
X161879296Y-51595935D01*
X161855725Y-51589014D01*
X161853873Y-51587801D01*
X161722185Y-51499809D01*
X161722172Y-51499802D01*
X161576501Y-51439464D01*
X161576489Y-51439461D01*
X161421845Y-51408700D01*
X161421842Y-51408700D01*
X161264158Y-51408700D01*
X161264155Y-51408700D01*
X161109510Y-51439461D01*
X161109498Y-51439464D01*
X160963827Y-51499802D01*
X160963814Y-51499809D01*
X160832711Y-51587410D01*
X160832707Y-51587413D01*
X160721213Y-51698907D01*
X160721210Y-51698911D01*
X160633609Y-51830014D01*
X160633602Y-51830027D01*
X160573264Y-51975698D01*
X160573261Y-51975710D01*
X160542500Y-52130353D01*
X160542500Y-52243903D01*
X160522815Y-52310942D01*
X160470011Y-52356697D01*
X160400853Y-52366641D01*
X160337297Y-52337616D01*
X160330819Y-52331584D01*
X159186290Y-51187055D01*
X159186288Y-51187052D01*
X159067417Y-51068181D01*
X159067416Y-51068180D01*
X158980604Y-51018060D01*
X158980604Y-51018059D01*
X158980600Y-51018058D01*
X158930485Y-50989123D01*
X158777757Y-50948199D01*
X158777754Y-50948199D01*
X158690164Y-50948199D01*
X158623125Y-50928514D01*
X158621273Y-50927301D01*
X158489585Y-50839309D01*
X158489572Y-50839302D01*
X158343901Y-50778964D01*
X158343889Y-50778961D01*
X158189245Y-50748200D01*
X158189242Y-50748200D01*
X158031558Y-50748200D01*
X158031555Y-50748200D01*
X157876910Y-50778961D01*
X157876898Y-50778964D01*
X157731227Y-50839302D01*
X157731214Y-50839309D01*
X157600111Y-50926910D01*
X157600107Y-50926913D01*
X157488613Y-51038407D01*
X157488610Y-51038411D01*
X157401009Y-51169514D01*
X157401002Y-51169527D01*
X157340664Y-51315198D01*
X157340661Y-51315210D01*
X157309900Y-51469853D01*
X157309900Y-51627546D01*
X157340661Y-51782189D01*
X157340664Y-51782201D01*
X157401002Y-51927872D01*
X157401009Y-51927885D01*
X157453613Y-52006612D01*
X157474491Y-52073290D01*
X157456006Y-52140670D01*
X157404027Y-52187360D01*
X157350511Y-52199503D01*
X137382910Y-52199503D01*
X137382304Y-52199541D01*
X137349150Y-52199541D01*
X137136690Y-52230079D01*
X136930755Y-52290540D01*
X136735506Y-52379699D01*
X136735504Y-52379701D01*
X136554946Y-52495732D01*
X136554942Y-52495735D01*
X136392736Y-52636280D01*
X136252172Y-52798493D01*
X136252165Y-52798502D01*
X136136133Y-52979045D01*
X136136130Y-52979049D01*
X136046963Y-53174291D01*
X135986492Y-53380232D01*
X135986490Y-53380238D01*
X135955946Y-53592685D01*
X135955946Y-58075503D01*
X135936261Y-58142542D01*
X135883457Y-58188297D01*
X135831946Y-58199503D01*
X131070946Y-58199503D01*
X131003907Y-58179818D01*
X130958152Y-58127014D01*
X130946946Y-58075503D01*
X130946946Y-43563713D01*
X131299500Y-43563713D01*
X131299500Y-43776287D01*
X131305023Y-43811155D01*
X131321744Y-43916733D01*
X131332754Y-43986243D01*
X131385984Y-44150068D01*
X131398444Y-44188414D01*
X131494951Y-44377820D01*
X131619890Y-44549786D01*
X131770213Y-44700109D01*
X131942182Y-44825050D01*
X131950946Y-44829516D01*
X132001742Y-44877491D01*
X132018536Y-44945312D01*
X131995998Y-45011447D01*
X131950946Y-45050484D01*
X131942182Y-45054949D01*
X131770213Y-45179890D01*
X131619890Y-45330213D01*
X131494951Y-45502179D01*
X131398444Y-45691585D01*
X131332753Y-45893760D01*
X131299500Y-46103713D01*
X131299500Y-46316287D01*
X131332754Y-46526243D01*
X131358746Y-46606239D01*
X131398444Y-46728414D01*
X131494951Y-46917820D01*
X131619890Y-47089786D01*
X131770213Y-47240109D01*
X131942182Y-47365050D01*
X131950946Y-47369516D01*
X132001742Y-47417491D01*
X132018536Y-47485312D01*
X131995998Y-47551447D01*
X131950946Y-47590484D01*
X131942182Y-47594949D01*
X131770213Y-47719890D01*
X131619890Y-47870213D01*
X131494951Y-48042179D01*
X131398444Y-48231585D01*
X131332753Y-48433760D01*
X131304018Y-48615186D01*
X131299500Y-48643713D01*
X131299500Y-48856287D01*
X131332754Y-49066243D01*
X131358746Y-49146239D01*
X131398444Y-49268414D01*
X131494951Y-49457820D01*
X131619890Y-49629786D01*
X131770213Y-49780109D01*
X131942182Y-49905050D01*
X131950946Y-49909516D01*
X132001742Y-49957491D01*
X132018536Y-50025312D01*
X131995998Y-50091447D01*
X131950946Y-50130484D01*
X131942182Y-50134949D01*
X131770213Y-50259890D01*
X131619890Y-50410213D01*
X131494951Y-50582179D01*
X131398444Y-50771585D01*
X131332753Y-50973760D01*
X131300091Y-51179984D01*
X131299500Y-51183713D01*
X131299500Y-51396287D01*
X131306339Y-51439464D01*
X131329771Y-51587413D01*
X131332754Y-51606243D01*
X131389926Y-51782201D01*
X131398444Y-51808414D01*
X131494951Y-51997820D01*
X131619890Y-52169786D01*
X131770213Y-52320109D01*
X131942182Y-52445050D01*
X131950946Y-52449516D01*
X132001742Y-52497491D01*
X132018536Y-52565312D01*
X131995998Y-52631447D01*
X131950946Y-52670484D01*
X131942182Y-52674949D01*
X131770213Y-52799890D01*
X131619890Y-52950213D01*
X131494951Y-53122179D01*
X131398444Y-53311585D01*
X131332753Y-53513760D01*
X131299500Y-53723713D01*
X131299500Y-53936286D01*
X131318708Y-54057564D01*
X131332754Y-54146243D01*
X131359072Y-54227242D01*
X131398444Y-54348414D01*
X131494951Y-54537820D01*
X131619890Y-54709786D01*
X131770213Y-54860109D01*
X131942182Y-54985050D01*
X131950946Y-54989516D01*
X132001742Y-55037491D01*
X132018536Y-55105312D01*
X131995998Y-55171447D01*
X131950946Y-55210484D01*
X131942182Y-55214949D01*
X131770213Y-55339890D01*
X131619890Y-55490213D01*
X131494951Y-55662179D01*
X131398444Y-55851585D01*
X131332753Y-56053760D01*
X131299500Y-56263713D01*
X131299500Y-56476287D01*
X131332754Y-56686243D01*
X131358746Y-56766239D01*
X131398444Y-56888414D01*
X131494951Y-57077820D01*
X131619890Y-57249786D01*
X131770213Y-57400109D01*
X131942179Y-57525048D01*
X131942181Y-57525049D01*
X131942184Y-57525051D01*
X132131588Y-57621557D01*
X132333757Y-57687246D01*
X132543713Y-57720500D01*
X132543714Y-57720500D01*
X132756286Y-57720500D01*
X132756287Y-57720500D01*
X132966243Y-57687246D01*
X133168412Y-57621557D01*
X133357816Y-57525051D01*
X133419681Y-57480104D01*
X133529786Y-57400109D01*
X133529788Y-57400106D01*
X133529792Y-57400104D01*
X133680104Y-57249792D01*
X133680106Y-57249788D01*
X133680109Y-57249786D01*
X133805048Y-57077820D01*
X133805047Y-57077820D01*
X133805051Y-57077816D01*
X133901557Y-56888412D01*
X133967246Y-56686243D01*
X134000500Y-56476287D01*
X134000500Y-56263713D01*
X133967246Y-56053757D01*
X133953506Y-56011473D01*
X133951512Y-55941635D01*
X133983755Y-55885478D01*
X135194220Y-54675016D01*
X135273277Y-54538084D01*
X135314201Y-54385357D01*
X135314201Y-54227242D01*
X135314201Y-54219647D01*
X135314200Y-54219629D01*
X135314200Y-52329365D01*
X135333885Y-52262326D01*
X135335098Y-52260474D01*
X135346171Y-52243903D01*
X135423094Y-52128779D01*
X135483437Y-51983097D01*
X135514200Y-51828442D01*
X135514200Y-51670758D01*
X135514200Y-51670755D01*
X135514199Y-51670753D01*
X135506734Y-51633226D01*
X135483437Y-51516103D01*
X135466945Y-51476287D01*
X135423097Y-51370427D01*
X135423090Y-51370414D01*
X135335489Y-51239311D01*
X135335486Y-51239307D01*
X135223992Y-51127813D01*
X135223988Y-51127810D01*
X135092885Y-51040209D01*
X135092872Y-51040202D01*
X134947201Y-50979864D01*
X134947189Y-50979861D01*
X134792545Y-50949100D01*
X134792542Y-50949100D01*
X134634858Y-50949100D01*
X134634855Y-50949100D01*
X134480210Y-50979861D01*
X134480198Y-50979864D01*
X134334527Y-51040202D01*
X134334514Y-51040209D01*
X134203411Y-51127810D01*
X134203405Y-51127815D01*
X134192680Y-51138540D01*
X134131356Y-51172023D01*
X134061665Y-51167036D01*
X134005732Y-51125163D01*
X133982529Y-51070255D01*
X133967246Y-50973757D01*
X133901557Y-50771588D01*
X133805051Y-50582184D01*
X133805049Y-50582181D01*
X133805048Y-50582179D01*
X133680109Y-50410213D01*
X133529786Y-50259890D01*
X133357820Y-50134951D01*
X133357115Y-50134591D01*
X133349054Y-50130485D01*
X133298259Y-50082512D01*
X133281463Y-50014692D01*
X133303999Y-49948556D01*
X133349054Y-49909515D01*
X133357816Y-49905051D01*
X133419681Y-49860104D01*
X133529786Y-49780109D01*
X133529788Y-49780106D01*
X133529792Y-49780104D01*
X133680104Y-49629792D01*
X133680106Y-49629788D01*
X133680109Y-49629786D01*
X133805048Y-49457820D01*
X133805047Y-49457820D01*
X133805051Y-49457816D01*
X133901557Y-49268412D01*
X133967246Y-49066243D01*
X134000500Y-48856287D01*
X134000500Y-48643713D01*
X133967246Y-48433757D01*
X133901557Y-48231588D01*
X133805051Y-48042184D01*
X133805049Y-48042181D01*
X133805048Y-48042179D01*
X133680109Y-47870213D01*
X133529786Y-47719890D01*
X133357820Y-47594951D01*
X133357115Y-47594591D01*
X133349054Y-47590485D01*
X133298259Y-47542512D01*
X133281463Y-47474692D01*
X133303999Y-47408556D01*
X133349054Y-47369515D01*
X133357816Y-47365051D01*
X133469366Y-47284006D01*
X133529786Y-47240109D01*
X133529788Y-47240106D01*
X133529792Y-47240104D01*
X133680104Y-47089792D01*
X133680106Y-47089788D01*
X133680109Y-47089786D01*
X133805048Y-46917820D01*
X133805047Y-46917820D01*
X133805051Y-46917816D01*
X133901557Y-46728412D01*
X133967246Y-46526243D01*
X134000500Y-46316287D01*
X134000500Y-46103713D01*
X133967246Y-45893757D01*
X133901557Y-45691588D01*
X133805051Y-45502184D01*
X133805049Y-45502181D01*
X133805048Y-45502179D01*
X133680109Y-45330213D01*
X133529786Y-45179890D01*
X133357820Y-45054951D01*
X133357115Y-45054591D01*
X133349054Y-45050485D01*
X133298259Y-45002512D01*
X133281463Y-44934692D01*
X133303999Y-44868556D01*
X133349054Y-44829515D01*
X133357816Y-44825051D01*
X133419681Y-44780104D01*
X133529786Y-44700109D01*
X133529788Y-44700106D01*
X133529792Y-44700104D01*
X133680104Y-44549792D01*
X133680106Y-44549788D01*
X133680109Y-44549786D01*
X133805048Y-44377820D01*
X133805047Y-44377820D01*
X133805051Y-44377816D01*
X133901557Y-44188412D01*
X133967246Y-43986243D01*
X134000500Y-43776287D01*
X134000500Y-43563713D01*
X133967246Y-43353757D01*
X133901557Y-43151588D01*
X133805051Y-42962184D01*
X133805049Y-42962181D01*
X133805048Y-42962179D01*
X133680109Y-42790213D01*
X133566181Y-42676285D01*
X133532696Y-42614962D01*
X133537680Y-42545270D01*
X133579552Y-42489337D01*
X133610529Y-42472422D01*
X133742086Y-42423354D01*
X133742093Y-42423350D01*
X133857187Y-42337190D01*
X133857190Y-42337187D01*
X133943350Y-42222093D01*
X133943354Y-42222086D01*
X133993596Y-42087379D01*
X133993598Y-42087372D01*
X133999999Y-42027844D01*
X134000000Y-42027827D01*
X134000000Y-41380000D01*
X133083012Y-41380000D01*
X133115925Y-41322993D01*
X133150000Y-41195826D01*
X133150000Y-41064174D01*
X133115925Y-40937007D01*
X133083012Y-40880000D01*
X134000000Y-40880000D01*
X134000000Y-40232172D01*
X133999999Y-40232155D01*
X133993598Y-40172627D01*
X133993596Y-40172620D01*
X133943354Y-40037913D01*
X133943350Y-40037906D01*
X133857190Y-39922812D01*
X133857187Y-39922809D01*
X133742093Y-39836649D01*
X133742086Y-39836645D01*
X133607379Y-39786403D01*
X133607372Y-39786401D01*
X133547844Y-39780000D01*
X132900000Y-39780000D01*
X132900000Y-40696988D01*
X132842993Y-40664075D01*
X132715826Y-40630000D01*
X132584174Y-40630000D01*
X132457007Y-40664075D01*
X132400000Y-40696988D01*
X132400000Y-39780000D01*
X131752155Y-39780000D01*
X131692627Y-39786401D01*
X131692620Y-39786403D01*
X131557913Y-39836645D01*
X131557906Y-39836649D01*
X131442812Y-39922809D01*
X131442809Y-39922812D01*
X131356649Y-40037906D01*
X131356645Y-40037913D01*
X131306403Y-40172620D01*
X131306401Y-40172627D01*
X131300000Y-40232155D01*
X131300000Y-40880000D01*
X132216988Y-40880000D01*
X132184075Y-40937007D01*
X132150000Y-41064174D01*
X132150000Y-41195826D01*
X132184075Y-41322993D01*
X132216988Y-41380000D01*
X131300000Y-41380000D01*
X131300000Y-42027844D01*
X131306401Y-42087372D01*
X131306403Y-42087379D01*
X131356645Y-42222086D01*
X131356649Y-42222093D01*
X131442809Y-42337187D01*
X131442812Y-42337190D01*
X131557906Y-42423350D01*
X131557913Y-42423354D01*
X131689470Y-42472422D01*
X131745404Y-42514293D01*
X131769821Y-42579758D01*
X131754969Y-42648031D01*
X131733819Y-42676285D01*
X131619889Y-42790215D01*
X131494951Y-42962179D01*
X131398444Y-43151585D01*
X131332753Y-43353760D01*
X131299500Y-43563713D01*
X130946946Y-43563713D01*
X130946946Y-39324503D01*
X130966631Y-39257464D01*
X131019435Y-39211709D01*
X131070946Y-39200503D01*
X135831946Y-39200503D01*
X135898985Y-39220188D01*
G37*
%TD.AperFunction*%
%TD*%
M02*
