M48
; DRILL file {KiCad 9.0.7} date 2026-02-24T13:20:47+0900
; FORMAT={-:-/ absolute / inch / decimal}
; #@! TF.CreationDate,2026-02-24T13:20:47+09:00
; #@! TF.GenerationSoftware,Kicad,Pcbnew,9.0.7
; #@! TF.FileFunction,Plated,1,2,PTH
FMAT,2
INCH
; #@! TA.AperFunction,Plated,PTH,ViaDrill
T1C0.0118
; #@! TA.AperFunction,Plated,PTH,ComponentDrill
T2C0.0236
; #@! TA.AperFunction,Plated,PTH,ComponentDrill
T3C0.0320
; #@! TA.AperFunction,Plated,PTH,ComponentDrill
T4C0.0354
; #@! TA.AperFunction,Plated,PTH,ComponentDrill
T5C0.0374
; #@! TA.AperFunction,Plated,PTH,ComponentDrill
T6C0.0394
; #@! TA.AperFunction,Plated,PTH,ComponentDrill
T7C0.0433
; #@! TA.AperFunction,Plated,PTH,ComponentDrill
T8C0.0590
%
G90
G05
T1
X2.502Y-3.9567
X2.5177Y-3.5827
X2.5217Y-4.0098
X2.5591Y-2.939
X2.5965Y-3.4134
X2.5965Y-4.5236
X2.628Y-4.4232
X2.6881Y-3.9359
X2.7357Y-3.7696
X2.7441Y-4.3346
X2.7961Y-3.5671
X2.8561Y-3.8694
X2.9499Y-2.9949
X3.0039Y-4.2165
X3.0157Y-5.0413
X3.0181Y-4.6512
X3.0315Y-4.2579
X3.0329Y-4.6191
X3.0346Y-2.7874
X3.0791Y-4.61
X3.1204Y-4.5462
X3.1299Y-4.9409
X3.1516Y-2.4075
X3.187Y-4.4193
X3.2056Y-4.8215
X3.2149Y-4.2395
X3.2657Y-5.1319
X3.2892Y-4.882
X3.2953Y-2.5177
X3.3031Y-4.5413
X3.3484Y-5.3543
X3.3764Y-3.7812
X3.4015Y-4.0581
X3.4048Y-4.97
X3.4429Y-4.1358
X3.4437Y-4.5022
X3.4449Y-4.0827
X3.4469Y-4.2283
X3.4665Y-4.0276
X3.4921Y-4.2283
X3.498Y-4.1555
X3.5256Y-4.6909
X3.5327Y-4.006
X3.5544Y-4.4689
X3.5617Y-2.3012
X3.5827Y-4.0653
X3.5827Y-4.1496
X3.5945Y-4.2244
X3.6201Y-5.0453
X3.6339Y-4.1575
X3.6476Y-4.0866
X3.6924Y-5.1877
X3.7478Y-4.1669
X3.8094Y-2.2047
X3.8495Y-4.1822
X3.876Y-5.4567
X3.8942Y-4.4079
X3.9225Y-4.13
X3.9272Y-4.6969
X3.9291Y-2.1555
X3.9409Y-1.8976
X3.9495Y-3.9376
X3.9581Y-4.0261
X3.9965Y-4.0559
X4.007Y-3.9185
X4.0285Y-4.3479
X4.0367Y-4.1876
X4.0374Y-4.0338
X4.0632Y-4.1678
X4.0846Y-5.187
X4.0965Y-3.8031
X4.1161Y-5.435
X4.1299Y-5.0551
X4.1332Y-4.1063
X4.1472Y-4.2706
X4.2129Y-4.1861
X4.2268Y-5.0778
X4.2474Y-3.9857
X4.2495Y-3.8941
X4.3169Y-3.813
X4.3307Y-4.9331
X4.3397Y-2.0921
X4.3583Y-5.2224
X4.437Y-5.2165
X4.4404Y-4.757
X4.4449Y-4.935
X4.4511Y-5.3062
X4.4665Y-4.2874
X4.4887Y-4.2235
X4.4937Y-2.1165
X4.5059Y-4.498
X4.5236Y-5.2008
X4.5295Y-5.0276
X4.5752Y-4.7234
X4.5906Y-3.7953
X4.5968Y-5.6663
X4.6181Y-4.6358
X4.624Y-5.2343
X4.6378Y-4.9291
X4.6594Y-3.8031
X4.6614Y-5.0197
X4.6693Y-4.7657
X4.6772Y-5.2126
X4.6893Y-3.8938
X4.7461Y-5.3878
X4.75Y-5.0335
X4.7638Y-4.563
X4.7697Y-4.9291
X4.8075Y-3.7851
X4.8075Y-4.7454
X4.8484Y-4.2047
X4.8602Y-4.9291
X4.863Y-2.1413
X4.8681Y-4.5827
X4.872Y-5.0236
X4.8819Y-3.9961
X4.8878Y-4.0374
X4.8996Y-5.374
X4.9016Y-4.4173
X4.9016Y-5.2677
X4.9205Y-4.612
X4.9311Y-4.1476
X4.9351Y-2.1902
X4.937Y-5.1181
X4.9644Y-4.8207
X4.9646Y-2.4764
X4.9676Y-4.4666
X4.9705Y-4.9311
X4.9711Y-4.7654
X4.9882Y-3.9626
X4.9961Y-5.0354
X5.002Y-5.5276
X5.0039Y-3.8406
X5.0048Y-4.7743
X5.0059Y-4.0276
X5.0078Y-4.4643
X5.0078Y-1.8993
X5.0361Y-4.4824
X5.0374Y-4.5354
X5.0558Y-3.9699
X5.0571Y-4.0374
X5.0574Y-4.2994
X5.067Y-4.6202
X5.0689Y-4.5428
X5.0728Y-4.1594
X5.0764Y-4.2736
X5.0866Y-3.7343
X5.1079Y-4.3055
X5.1083Y-3.8425
X5.1099Y-3.9468
X5.1115Y-3.7604
X5.1128Y-4.2337
X5.1142Y-4.8169
X5.122Y-4.7756
X5.1272Y-4.2
X5.1356Y-2.2823
X5.1358Y-4.5341
X5.147Y-4.8785
X5.1516Y-4.3583
X5.1516Y-4.1765
X5.1589Y-4.6769
X5.1589Y-5.2216
X5.1594Y-4.6398
X5.1634Y-4.5118
X5.1732Y-4.1496
X5.1732Y-4.9783
X5.1887Y-2.8317
X5.1966Y-4.0713
X5.1986Y-4.5108
X5.2067Y-4.3642
X5.2146Y-5.0118
X5.2185Y-4.2815
X5.2343Y-4.5118
X5.2345Y-4.8415
X5.2345Y-4.9248
X5.2461Y-4.3154
X5.2505Y-3.8594
X5.2513Y-4.3642
X5.2527Y-3.6854
X5.2649Y-3.9358
X5.2667Y-4.5018
X5.3047Y-5.1594
X5.308Y-3.7097
X5.317Y-4.3185
X5.3228Y-2.7618
X5.3445Y-2.3878
X5.3461Y-3.8868
X5.3506Y-4.892
X5.3522Y-4.5531
X5.3535Y-4.3515
X5.3572Y-5.3374
X5.3681Y-4.9902
X5.3856Y-4.312
X5.3947Y-4.2511
X5.4022Y-4.1763
X5.4027Y-4.8947
X5.4103Y-3.7089
X5.414Y-3.9543
X5.415Y-4.0415
X5.4331Y-2.5335
X5.4569Y-3.9644
X5.4899Y-4.8311
X5.4969Y-5.0778
X5.5059Y-2.4823
X5.5117Y-4.2589
X5.5147Y-4.752
X5.5157Y-4.6457
X5.5363Y-4.2969
X5.5537Y-4.7401
X5.5726Y-4.293
X5.5787Y-4.4744
X5.5866Y-4.6102
X5.5925Y-2.8169
X5.5925Y-4.5374
X5.6122Y-4.9272
X5.6205Y-3.6847
X5.6334Y-4.6213
X5.6594Y-4.6497
X5.6654Y-5.0689
X5.7008Y-3.8248
X5.7047Y-3.5217
X5.7093Y-4.6091
X5.7303Y-4.3425
X5.7402Y-2.4154
X5.7854Y-4.2992
X5.7953Y-5.0059
X5.8263Y-4.1226
X5.8386Y-4.8268
X5.8464Y-4.3766
X5.8524Y-4.7002
X5.8528Y-3.9169
X5.8858Y-4.6319
X5.9213Y-3.1594
X5.9858Y-3.7806
X6.0236Y-4.0453
X6.0728Y-4.2815
X6.0839Y-3.8428
X6.1036Y-3.4755
X6.1201Y-3.2028
X6.1611Y-3.9361
X6.1654Y-4.1181
X6.2067Y-4.3091
T3
X3.4283Y-3.8418
X3.507Y-3.8418
X3.5857Y-3.8418
T4
X2.5878Y-3.5746
X2.5878Y-3.6746
X2.5945Y-3.7959
X2.5945Y-3.8959
X2.7036Y-3.0342
X2.7536Y-2.9476
X2.785Y-4.5574
X2.8097Y-2.8418
X2.835Y-4.644
X2.8597Y-2.7552
X2.9062Y-4.7602
X2.9562Y-4.8468
X3.3692Y-2.2178
X3.3944Y-5.238
X3.4558Y-2.1678
X3.4811Y-5.288
X3.5801Y-2.1087
X3.6057Y-5.3586
X3.6667Y-2.0587
X3.6924Y-5.4086
X4.2364Y-1.9111
X4.247Y-5.5308
X4.3364Y-1.9111
X4.347Y-5.5308
X4.4544Y-1.9143
X4.4993Y-5.5293
X4.5544Y-1.9143
X4.5993Y-5.5293
X5.0896Y-2.0544
X5.1762Y-2.1044
X5.1916Y-5.384
X5.2782Y-5.334
X5.2796Y-2.1686
X5.3662Y-2.2186
X5.3951Y-5.2633
X5.4817Y-5.2133
X5.8747Y-2.672
X5.9214Y-4.7358
X5.9247Y-2.7586
X5.9714Y-4.6492
X6.0033Y-2.8655
X6.0277Y-4.5353
X6.0533Y-2.9521
X6.0777Y-4.4487
X6.1941Y-3.7883
X6.1941Y-3.8883
X6.2001Y-3.5627
X6.2001Y-3.6627
T5
X4.3974Y-4.0466
X4.4958Y-4.0466
X4.5492Y-2.3543
X4.5942Y-4.0466
X4.6476Y-2.3543
X4.6927Y-4.0466
X4.7461Y-2.3543
X4.7911Y-4.0466
X4.8445Y-2.3543
X5.1226Y-3.6367
X5.1234Y-3.3552
X5.1313Y-3.0669
X5.221Y-3.6367
X5.2218Y-3.3552
X5.2297Y-3.0669
X5.3194Y-3.6367
X5.3202Y-3.3552
X5.3281Y-3.0669
X5.4179Y-3.6367
X5.4187Y-3.3552
X5.4265Y-3.0669
T6
X2.3986Y-3.4466
X2.3986Y-3.5466
X2.3986Y-3.6466
X2.3986Y-3.7466
X2.3986Y-3.8466
X2.3986Y-3.9466
X2.3986Y-4.0466
X4.1017Y-5.7462
X4.2017Y-5.7462
X4.3017Y-5.7462
X4.3327Y-4.3642
X4.4017Y-5.7462
X4.4311Y-4.3642
X4.5017Y-5.7462
X4.6017Y-5.7462
X4.6654Y-4.3691
X4.7017Y-5.7462
X4.7638Y-4.3691
X5.7492Y-4.0421
X5.7492Y-4.1406
X6.4151Y-3.4399
X6.4151Y-3.5399
X6.4151Y-3.6399
X6.4151Y-3.7399
X6.4151Y-3.8399
X6.4151Y-3.9399
X6.4151Y-4.0399
T7
X2.9309Y-3.8041
X2.9309Y-3.9812
X3.1868Y-3.8041
X3.1868Y-3.9812
T8
X3.3456Y-3.8418
X3.6684Y-3.8418
T2
G00X3.8324Y-3.8076
M15
G01X3.8324Y-3.784
M16
G05
G00X3.8324Y-3.982
M15
G01X3.8324Y-3.9387
M16
G05
G00X4.1726Y-3.8076
M15
G01X4.1726Y-3.784
M16
G05
G00X4.1726Y-3.982
M15
G01X4.1726Y-3.9387
M16
G05
M30
