%TF.GenerationSoftware,KiCad,Pcbnew,9.0.7*%
%TF.CreationDate,2026-02-24T13:20:47+09:00*%
%TF.ProjectId,line,6c696e65-2e6b-4696-9361-645f70636258,rev?*%
%TF.SameCoordinates,Original*%
%TF.FileFunction,Soldermask,Top*%
%TF.FilePolarity,Negative*%
%FSLAX46Y46*%
G04 Gerber Fmt 4.6, Leading zero omitted, Abs format (unit mm)*
G04 Created by KiCad (PCBNEW 9.0.7) date 2026-02-24 13:20:47*
%MOMM*%
%LPD*%
G01*
G04 APERTURE LIST*
G04 Aperture macros list*
%AMRoundRect*
0 Rectangle with rounded corners*
0 $1 Rounding radius*
0 $2 $3 $4 $5 $6 $7 $8 $9 X,Y pos of 4 corners*
0 Add a 4 corners polygon primitive as box body*
4,1,4,$2,$3,$4,$5,$6,$7,$8,$9,$2,$3,0*
0 Add four circle primitives for the rounded corners*
1,1,$1+$1,$2,$3*
1,1,$1+$1,$4,$5*
1,1,$1+$1,$6,$7*
1,1,$1+$1,$8,$9*
0 Add four rect primitives between the rounded corners*
20,1,$1+$1,$2,$3,$4,$5,0*
20,1,$1+$1,$4,$5,$6,$7,0*
20,1,$1+$1,$6,$7,$8,$9,0*
20,1,$1+$1,$8,$9,$2,$3,0*%
%AMRotRect*
0 Rectangle, with rotation*
0 The origin of the aperture is its center*
0 $1 length*
0 $2 width*
0 $3 Rotation angle, in degrees counterclockwise*
0 Add horizontal line*
21,1,$1,$2,0,0,$3*%
G04 Aperture macros list end*
%ADD10RoundRect,0.200000X-0.200000X-0.275000X0.200000X-0.275000X0.200000X0.275000X-0.200000X0.275000X0*%
%ADD11R,1.879600X1.701800*%
%ADD12RoundRect,0.250000X0.583133X0.385016X0.041867X0.697516X-0.583133X-0.385016X-0.041867X-0.697516X0*%
%ADD13RoundRect,0.200000X0.200000X0.275000X-0.200000X0.275000X-0.200000X-0.275000X0.200000X-0.275000X0*%
%ADD14RoundRect,0.200000X0.138157X-0.310705X0.338157X0.035705X-0.138157X0.310705X-0.338157X-0.035705X0*%
%ADD15RoundRect,0.250000X0.697516X0.041867X0.385016X0.583133X-0.697516X-0.041867X-0.385016X-0.583133X0*%
%ADD16RoundRect,0.140000X-0.140000X-0.170000X0.140000X-0.170000X0.140000X0.170000X-0.140000X0.170000X0*%
%ADD17R,0.850800X1.761200*%
%ADD18R,3.150799X1.761200*%
%ADD19RoundRect,0.250000X0.312500X0.625000X-0.312500X0.625000X-0.312500X-0.625000X0.312500X-0.625000X0*%
%ADD20RoundRect,0.250000X-0.583133X-0.385016X-0.041867X-0.697516X0.583133X0.385016X0.041867X0.697516X0*%
%ADD21RoundRect,0.200000X-0.338157X0.035705X-0.138157X-0.310705X0.338157X-0.035705X0.138157X0.310705X0*%
%ADD22RoundRect,0.250000X-0.312500X-0.625000X0.312500X-0.625000X0.312500X0.625000X-0.312500X0.625000X0*%
%ADD23R,0.300000X1.150000*%
%ADD24O,1.000000X2.100000*%
%ADD25O,1.000000X1.600000*%
%ADD26RoundRect,0.250000X-0.600000X-0.725000X0.600000X-0.725000X0.600000X0.725000X-0.600000X0.725000X0*%
%ADD27O,1.700000X1.950000*%
%ADD28RoundRect,0.200000X0.338157X-0.035705X0.138157X0.310705X-0.338157X0.035705X-0.138157X-0.310705X0*%
%ADD29C,2.000000*%
%ADD30RoundRect,0.225000X-0.250000X0.225000X-0.250000X-0.225000X0.250000X-0.225000X0.250000X0.225000X0*%
%ADD31RoundRect,0.200000X-0.035705X-0.338157X0.310705X-0.138157X0.035705X0.338157X-0.310705X0.138157X0*%
%ADD32RoundRect,0.200000X0.275000X-0.200000X0.275000X0.200000X-0.275000X0.200000X-0.275000X-0.200000X0*%
%ADD33RoundRect,0.200000X0.035705X0.338157X-0.310705X0.138157X-0.035705X-0.338157X0.310705X-0.138157X0*%
%ADD34R,1.700000X1.700000*%
%ADD35C,1.700000*%
%ADD36RoundRect,0.200000X-0.275000X0.200000X-0.275000X-0.200000X0.275000X-0.200000X0.275000X0.200000X0*%
%ADD37RoundRect,0.250000X0.625000X-0.312500X0.625000X0.312500X-0.625000X0.312500X-0.625000X-0.312500X0*%
%ADD38RoundRect,0.250000X-0.600000X-0.750000X0.600000X-0.750000X0.600000X0.750000X-0.600000X0.750000X0*%
%ADD39O,1.700000X2.000000*%
%ADD40RoundRect,0.200000X-0.138157X0.310705X-0.338157X-0.035705X0.138157X-0.310705X0.338157X0.035705X0*%
%ADD41RoundRect,0.200000X0.310705X0.138157X-0.035705X0.338157X-0.310705X-0.138157X0.035705X-0.338157X0*%
%ADD42RoundRect,0.075000X-0.700000X-0.075000X0.700000X-0.075000X0.700000X0.075000X-0.700000X0.075000X0*%
%ADD43RoundRect,0.075000X-0.075000X-0.700000X0.075000X-0.700000X0.075000X0.700000X-0.075000X0.700000X0*%
%ADD44R,0.600000X1.150000*%
%ADD45RoundRect,0.200000X-0.310705X-0.138157X0.035705X-0.338157X0.310705X0.138157X-0.035705X0.338157X0*%
%ADD46RoundRect,0.087500X-0.725000X-0.087500X0.725000X-0.087500X0.725000X0.087500X-0.725000X0.087500X0*%
%ADD47RoundRect,0.218750X-0.218750X-0.256250X0.218750X-0.256250X0.218750X0.256250X-0.218750X0.256250X0*%
%ADD48C,1.320800*%
%ADD49C,2.006600*%
%ADD50RoundRect,0.250000X0.385016X-0.583133X0.697516X-0.041867X-0.385016X0.583133X-0.697516X0.041867X0*%
%ADD51R,1.473200X0.355600*%
%ADD52RoundRect,0.250000X-0.325000X-0.650000X0.325000X-0.650000X0.325000X0.650000X-0.325000X0.650000X0*%
%ADD53RoundRect,0.250000X-0.041867X0.697516X-0.583133X0.385016X0.041867X-0.697516X0.583133X-0.385016X0*%
%ADD54RoundRect,0.250000X-0.385016X0.583133X-0.697516X0.041867X0.385016X-0.583133X0.697516X-0.041867X0*%
%ADD55RoundRect,0.250000X-0.625000X0.312500X-0.625000X-0.312500X0.625000X-0.312500X0.625000X0.312500X0*%
%ADD56RoundRect,0.250000X-0.697516X-0.041867X-0.385016X-0.583133X0.697516X0.041867X0.385016X0.583133X0*%
%ADD57RoundRect,0.250000X0.600000X0.725000X-0.600000X0.725000X-0.600000X-0.725000X0.600000X-0.725000X0*%
%ADD58RoundRect,0.102000X-0.300000X-0.950000X0.300000X-0.950000X0.300000X0.950000X-0.300000X0.950000X0*%
%ADD59RoundRect,0.102000X-0.200000X-0.950000X0.200000X-0.950000X0.200000X0.950000X-0.200000X0.950000X0*%
%ADD60RoundRect,0.250000X0.041867X-0.697516X0.583133X-0.385016X-0.041867X0.697516X-0.583133X0.385016X0*%
%ADD61RoundRect,0.250000X0.750000X-0.600000X0.750000X0.600000X-0.750000X0.600000X-0.750000X-0.600000X0*%
%ADD62O,2.000000X1.700000*%
%ADD63RotRect,1.800000X1.800000X60.000000*%
%ADD64C,1.800000*%
%ADD65RotRect,1.800000X1.800000X240.000000*%
%ADD66RotRect,1.800000X1.800000X150.000000*%
%ADD67RotRect,1.800000X1.800000X120.000000*%
%ADD68RotRect,1.800000X1.800000X300.000000*%
%ADD69RotRect,1.800000X1.800000X330.000000*%
%ADD70RotRect,1.800000X1.800000X210.000000*%
%ADD71R,1.800000X1.800000*%
%ADD72RotRect,1.800000X1.800000X30.000000*%
G04 APERTURE END LIST*
D10*
%TO.C,R41*%
X105778900Y-103543000D03*
X107428900Y-103543000D03*
%TD*%
D11*
%TO.C,CR1*%
X80825800Y-105323200D03*
X85245400Y-105323200D03*
%TD*%
D12*
%TO.C,R12*%
X90347162Y-131292150D03*
X87814038Y-129829650D03*
%TD*%
D13*
%TO.C,R27*%
X116378800Y-135021000D03*
X114728800Y-135021000D03*
%TD*%
D14*
%TO.C,R35*%
X72127000Y-78405571D03*
X72952000Y-76976629D03*
%TD*%
D15*
%TO.C,R13*%
X75365150Y-116285562D03*
X73902650Y-113752438D03*
%TD*%
D16*
%TO.C,C26*%
X97358900Y-107173000D03*
X98318900Y-107173000D03*
%TD*%
D17*
%TO.C,U7*%
X88033800Y-109308000D03*
X90333800Y-109308000D03*
X92633800Y-109308000D03*
D18*
X90333800Y-103258000D03*
%TD*%
D19*
%TO.C,R11*%
X110623800Y-136551000D03*
X107698800Y-136551000D03*
%TD*%
D20*
%TO.C,R6*%
X132012638Y-58097750D03*
X134545762Y-59560250D03*
%TD*%
D21*
%TO.C,R4*%
X146312700Y-70048329D03*
X147137700Y-71477271D03*
%TD*%
D16*
%TO.C,C2*%
X140250000Y-103120000D03*
X141210000Y-103120000D03*
%TD*%
%TO.C,C5*%
X140280000Y-106310000D03*
X141240000Y-106310000D03*
%TD*%
D22*
%TO.C,R5*%
X112827500Y-52670000D03*
X115752500Y-52670000D03*
%TD*%
D23*
%TO.C,J7*%
X105013900Y-101158000D03*
X104213900Y-101158000D03*
X102913900Y-101158000D03*
X101913900Y-101158000D03*
X101413900Y-101158000D03*
X100413900Y-101158000D03*
X99113900Y-101158000D03*
X98313900Y-101158000D03*
X98613901Y-101158000D03*
X99413900Y-101158000D03*
X99913901Y-101158000D03*
X100913900Y-101158000D03*
X102413900Y-101158000D03*
X103413899Y-101158000D03*
X103913900Y-101158000D03*
X104713899Y-101158000D03*
D24*
X105983900Y-100593000D03*
D25*
X105983900Y-96413000D03*
D24*
X97343900Y-100593000D03*
D25*
X97343900Y-96413000D03*
%TD*%
D16*
%TO.C,C1*%
X140280000Y-102050000D03*
X141240000Y-102050000D03*
%TD*%
D26*
%TO.C,J9*%
X130333800Y-77898000D03*
D27*
X132833800Y-77898000D03*
X135333800Y-77898000D03*
X137833800Y-77898000D03*
%TD*%
D28*
%TO.C,R32*%
X79627500Y-119748271D03*
X78802500Y-118319329D03*
%TD*%
D29*
%TO.C,SW2*%
X74443800Y-96623000D03*
X80943800Y-96623000D03*
X74443800Y-101123000D03*
X80943800Y-101123000D03*
%TD*%
D16*
%TO.C,C11*%
X73400000Y-103880000D03*
X74360000Y-103880000D03*
%TD*%
%TO.C,C6*%
X135410000Y-114790000D03*
X136370000Y-114790000D03*
%TD*%
D30*
%TO.C,C35*%
X93810000Y-111540000D03*
X93810000Y-113090000D03*
%TD*%
D31*
%TO.C,R38*%
X88681729Y-60648300D03*
X90110671Y-59823300D03*
%TD*%
D32*
%TO.C,R34*%
X71258900Y-98429900D03*
X71258900Y-96779900D03*
%TD*%
D16*
%TO.C,C4*%
X140290000Y-105220000D03*
X141250000Y-105220000D03*
%TD*%
D13*
%TO.C,R24*%
X116398800Y-136631000D03*
X114748800Y-136631000D03*
%TD*%
D26*
%TO.C,J11*%
X130113800Y-92373000D03*
D27*
X132613800Y-92373000D03*
X135113800Y-92373000D03*
X137613800Y-92373000D03*
%TD*%
D33*
%TO.C,R22*%
X137066371Y-129455400D03*
X135637429Y-130280400D03*
%TD*%
D16*
%TO.C,C9*%
X133915000Y-116790000D03*
X134875000Y-116790000D03*
%TD*%
D34*
%TO.C,J3*%
X104183900Y-145953000D03*
D35*
X106723900Y-145953000D03*
X109263900Y-145953000D03*
X111803900Y-145953000D03*
X114343900Y-145953000D03*
X116883900Y-145953000D03*
X119423900Y-145953000D03*
%TD*%
D36*
%TO.C,R18*%
X153919900Y-90991100D03*
X153919900Y-92641100D03*
%TD*%
D16*
%TO.C,C3*%
X140260000Y-104160000D03*
X141220000Y-104160000D03*
%TD*%
D37*
%TO.C,R14*%
X69418900Y-93552400D03*
X69418900Y-90627400D03*
%TD*%
D21*
%TO.C,R17*%
X144862600Y-70856629D03*
X145687600Y-72285571D03*
%TD*%
D26*
%TO.C,J8*%
X115550000Y-59800000D03*
D27*
X118050000Y-59800000D03*
X120550000Y-59800000D03*
X123050000Y-59800000D03*
%TD*%
D10*
%TO.C,R26*%
X108085000Y-52140000D03*
X109735000Y-52140000D03*
%TD*%
D38*
%TO.C,J6*%
X118500000Y-110975000D03*
D39*
X121000000Y-110975000D03*
%TD*%
D40*
%TO.C,R20*%
X151005000Y-111666929D03*
X150180000Y-113095871D03*
%TD*%
D28*
%TO.C,R31*%
X78061400Y-120675571D03*
X77236400Y-119246629D03*
%TD*%
D31*
%TO.C,R37*%
X87861729Y-59228100D03*
X89290671Y-58403100D03*
%TD*%
D41*
%TO.C,R30*%
X96504471Y-131972500D03*
X95075529Y-131147500D03*
%TD*%
D42*
%TO.C,U3*%
X127168800Y-103643000D03*
X127168800Y-104143000D03*
X127168800Y-104643000D03*
X127168800Y-105143000D03*
X127168800Y-105643000D03*
X127168800Y-106143000D03*
X127168800Y-106643000D03*
X127168800Y-107143000D03*
X127168800Y-107643000D03*
X127168800Y-108143000D03*
X127168800Y-108643000D03*
X127168800Y-109143000D03*
X127168800Y-109643000D03*
X127168800Y-110143000D03*
X127168800Y-110643000D03*
X127168800Y-111143000D03*
D43*
X129093800Y-113068000D03*
X129593800Y-113068000D03*
X130093800Y-113068000D03*
X130593800Y-113068000D03*
X131093800Y-113068000D03*
X131593800Y-113068000D03*
X132093800Y-113068000D03*
X132593800Y-113068000D03*
X133093800Y-113068000D03*
X133593800Y-113068000D03*
X134093800Y-113068000D03*
X134593800Y-113068000D03*
X135093800Y-113068000D03*
X135593800Y-113068000D03*
X136093800Y-113068000D03*
X136593800Y-113068000D03*
D42*
X138518800Y-111143000D03*
X138518800Y-110643000D03*
X138518800Y-110143000D03*
X138518800Y-109643000D03*
X138518800Y-109143000D03*
X138518800Y-108643000D03*
X138518800Y-108143000D03*
X138518800Y-107643000D03*
X138518800Y-107143000D03*
X138518800Y-106643000D03*
X138518800Y-106143000D03*
X138518800Y-105643000D03*
X138518800Y-105143000D03*
X138518800Y-104643000D03*
X138518800Y-104143000D03*
X138518800Y-103643000D03*
D43*
X136593800Y-101718000D03*
X136093800Y-101718000D03*
X135593800Y-101718000D03*
X135093800Y-101718000D03*
X134593800Y-101718000D03*
X134093800Y-101718000D03*
X133593800Y-101718000D03*
X133093800Y-101718000D03*
X132593800Y-101718000D03*
X132093800Y-101718000D03*
X131593800Y-101718000D03*
X131093800Y-101718000D03*
X130593800Y-101718000D03*
X130093800Y-101718000D03*
X129593800Y-101718000D03*
X129093800Y-101718000D03*
%TD*%
D10*
%TO.C,R40*%
X96993800Y-105373000D03*
X98643800Y-105373000D03*
%TD*%
D36*
%TO.C,R19*%
X152319900Y-90991100D03*
X152319900Y-92641100D03*
%TD*%
D44*
%TO.C,Q13*%
X95900000Y-112450000D03*
X97820000Y-112450000D03*
X96860000Y-110250000D03*
%TD*%
%TO.C,Q14*%
X100450000Y-112450000D03*
X102370000Y-112450000D03*
X101410000Y-110250000D03*
%TD*%
D45*
%TO.C,R1*%
X127774629Y-55443100D03*
X129203571Y-56268100D03*
%TD*%
D11*
%TO.C,CR2*%
X80825800Y-109930000D03*
X85245400Y-109930000D03*
%TD*%
D46*
%TO.C,U4*%
X101136300Y-105133001D03*
X101136300Y-105633000D03*
X101136300Y-106133000D03*
X101136300Y-106633000D03*
X101136300Y-107132999D03*
X105361300Y-107132999D03*
X105361300Y-106633000D03*
X105361300Y-106133000D03*
X105361300Y-105633000D03*
X105361300Y-105133001D03*
%TD*%
D47*
%TO.C,D17*%
X102581300Y-103563000D03*
X104156300Y-103563000D03*
%TD*%
D41*
%TO.C,R28*%
X95544471Y-133672500D03*
X94115529Y-132847500D03*
%TD*%
D10*
%TO.C,R43*%
X93195000Y-101520000D03*
X94845000Y-101520000D03*
%TD*%
%TO.C,R29*%
X84515000Y-101410000D03*
X86165000Y-101410000D03*
%TD*%
%TO.C,R25*%
X128200000Y-116350000D03*
X129850000Y-116350000D03*
%TD*%
D48*
%TO.C,SW1*%
X91078000Y-97580600D03*
X89078000Y-97580600D03*
X87078000Y-97580600D03*
D49*
X93177998Y-97580600D03*
X84978001Y-97580600D03*
%TD*%
D10*
%TO.C,R2*%
X108285000Y-54140000D03*
X109935000Y-54140000D03*
%TD*%
D32*
%TO.C,R33*%
X69518900Y-98479900D03*
X69518900Y-96829900D03*
%TD*%
D38*
%TO.C,J5*%
X110050000Y-110850000D03*
D39*
X112550000Y-110850000D03*
%TD*%
D50*
%TO.C,R15*%
X74404550Y-74180862D03*
X75867050Y-71647738D03*
%TD*%
D51*
%TO.C,U1*%
X128373000Y-118060001D03*
X128373000Y-118710000D03*
X128373000Y-119359997D03*
X128373000Y-120009999D03*
X128373000Y-120659997D03*
X128373000Y-121309999D03*
X128373000Y-121959999D03*
X128373000Y-122609999D03*
X128373000Y-123259998D03*
X128373000Y-123909999D03*
X128373000Y-124559998D03*
X128373000Y-125209999D03*
X134215000Y-125209999D03*
X134215000Y-124560000D03*
X134215000Y-123909999D03*
X134215000Y-123260001D03*
X134215000Y-122609999D03*
X134215000Y-121960001D03*
X134215000Y-121310001D03*
X134215000Y-120660001D03*
X134215000Y-120010002D03*
X134215000Y-119360001D03*
X134215000Y-118710002D03*
X134215000Y-118060001D03*
%TD*%
D52*
%TO.C,C36*%
X88855000Y-112730000D03*
X91805000Y-112730000D03*
%TD*%
D14*
%TO.C,R36*%
X73528800Y-79197571D03*
X74353800Y-77768629D03*
%TD*%
D53*
%TO.C,R10*%
X132698162Y-132104450D03*
X130165038Y-133566950D03*
%TD*%
D32*
%TO.C,FB1*%
X125100000Y-111120000D03*
X125100000Y-109470000D03*
%TD*%
D54*
%TO.C,R9*%
X148657950Y-116192138D03*
X147195450Y-118725262D03*
%TD*%
D16*
%TO.C,C7*%
X125720000Y-112370000D03*
X126680000Y-112370000D03*
%TD*%
D33*
%TO.C,R23*%
X136235871Y-127981700D03*
X134806929Y-128806700D03*
%TD*%
D55*
%TO.C,R8*%
X153559900Y-96098600D03*
X153559900Y-99023600D03*
%TD*%
D56*
%TO.C,R7*%
X149031850Y-74578038D03*
X150494350Y-77111162D03*
%TD*%
D26*
%TO.C,J10*%
X130133800Y-85223000D03*
D27*
X132633800Y-85223000D03*
X135133800Y-85223000D03*
X137633800Y-85223000D03*
%TD*%
D45*
%TO.C,R3*%
X126944529Y-57021600D03*
X128373471Y-57846600D03*
%TD*%
D16*
%TO.C,C8*%
X125720000Y-114340000D03*
X126680000Y-114340000D03*
%TD*%
D34*
%TO.C,J4*%
X162943900Y-102613000D03*
D35*
X162943900Y-100073000D03*
X162943900Y-97533000D03*
X162943900Y-94993000D03*
X162943900Y-92453000D03*
X162943900Y-89913000D03*
X162943900Y-87373000D03*
%TD*%
D36*
%TO.C,R42*%
X104680000Y-110085000D03*
X104680000Y-111735000D03*
%TD*%
D57*
%TO.C,J1*%
X121693800Y-102783000D03*
D27*
X119193800Y-102783000D03*
X116693800Y-102783000D03*
X114193800Y-102783000D03*
X111693800Y-102783000D03*
%TD*%
D58*
%TO.C,Y1*%
X125990000Y-98970000D03*
D59*
X126940000Y-98970000D03*
D58*
X127890000Y-98970000D03*
%TD*%
D60*
%TO.C,R16*%
X92578038Y-57117050D03*
X95111162Y-55654550D03*
%TD*%
D10*
%TO.C,R39*%
X96998900Y-103713000D03*
X98648900Y-103713000D03*
%TD*%
D34*
%TO.C,J2*%
X60923800Y-87543000D03*
D35*
X60923800Y-90083000D03*
X60923800Y-92623000D03*
X60923800Y-95163000D03*
X60923800Y-97703000D03*
X60923800Y-100243000D03*
X60923800Y-102783000D03*
%TD*%
D61*
%TO.C,J12*%
X146030000Y-105170000D03*
D62*
X146030000Y-102670000D03*
%TD*%
D40*
%TO.C,R21*%
X149513100Y-110767929D03*
X148688100Y-112196871D03*
%TD*%
D63*
%TO.C,D13*%
X71367100Y-72181800D03*
D64*
X72637100Y-69982095D03*
%TD*%
D65*
%TO.C,Q5*%
X154372900Y-112996500D03*
D64*
X153102900Y-115196205D03*
%TD*%
D66*
%TO.C,Q8*%
X93785700Y-137379300D03*
D64*
X91585995Y-136109300D03*
%TD*%
D67*
%TO.C,D11*%
X72008700Y-117956500D03*
D64*
X70738700Y-115756795D03*
%TD*%
D68*
%TO.C,D5*%
X152483400Y-72783700D03*
D64*
X153753400Y-74983405D03*
%TD*%
D69*
%TO.C,D4*%
X134102100Y-55082200D03*
D64*
X136301805Y-56352200D03*
%TD*%
D68*
%TO.C,Q3*%
X149217900Y-67867800D03*
D64*
X150487900Y-70067505D03*
%TD*%
D69*
%TO.C,Q2*%
X129276400Y-52180600D03*
D64*
X131476105Y-53450600D03*
%TD*%
D70*
%TO.C,D8*%
X134066500Y-135484600D03*
D64*
X131866795Y-136754600D03*
%TD*%
D66*
%TO.C,D10*%
X88418700Y-134315200D03*
D64*
X86218995Y-133045200D03*
%TD*%
D67*
%TO.C,Q9*%
X75086700Y-123107700D03*
D64*
X73816700Y-120907995D03*
%TD*%
D71*
%TO.C,Q7*%
X116822800Y-140443200D03*
D64*
X114282800Y-140443200D03*
%TD*%
D72*
%TO.C,Q12*%
X85577700Y-56332100D03*
D64*
X87777405Y-55062100D03*
%TD*%
D70*
%TO.C,Q6*%
X139236300Y-132419000D03*
D64*
X137036595Y-133689000D03*
%TD*%
D71*
%TO.C,Q1*%
X107603800Y-48543000D03*
D64*
X110143800Y-48543000D03*
%TD*%
D65*
%TO.C,D7*%
X151674700Y-118089800D03*
D64*
X150404700Y-120289505D03*
%TD*%
D71*
%TO.C,D6*%
X157331400Y-96223600D03*
D64*
X157331400Y-98763600D03*
%TD*%
D72*
%TO.C,D14*%
X90935500Y-53562000D03*
D64*
X93135205Y-52292000D03*
%TD*%
D63*
%TO.C,Q11*%
X68672300Y-77069200D03*
D64*
X69942300Y-74869495D03*
%TD*%
D71*
%TO.C,Q10*%
X65901100Y-98954900D03*
D64*
X65901100Y-96414900D03*
%TD*%
D71*
%TO.C,D9*%
X110412800Y-140483200D03*
D64*
X107872800Y-140483200D03*
%TD*%
D71*
%TO.C,Q4*%
X157481400Y-90493600D03*
D64*
X157481400Y-93033600D03*
%TD*%
D71*
%TO.C,D3*%
X113141400Y-48623600D03*
D64*
X115681400Y-48623600D03*
%TD*%
D71*
%TO.C,D12*%
X65731100Y-93334900D03*
D64*
X65731100Y-90794900D03*
%TD*%
M02*
