%TF.GenerationSoftware,KiCad,Pcbnew,9.0.7*%
%TF.CreationDate,2026-02-24T13:20:47+09:00*%
%TF.ProjectId,line,6c696e65-2e6b-4696-9361-645f70636258,rev?*%
%TF.SameCoordinates,Original*%
%TF.FileFunction,Soldermask,Bot*%
%TF.FilePolarity,Negative*%
%FSLAX46Y46*%
G04 Gerber Fmt 4.6, Leading zero omitted, Abs format (unit mm)*
G04 Created by KiCad (PCBNEW 9.0.7) date 2026-02-24 13:20:47*
%MOMM*%
%LPD*%
G01*
G04 APERTURE LIST*
G04 Aperture macros list*
%AMRoundRect*
0 Rectangle with rounded corners*
0 $1 Rounding radius*
0 $2 $3 $4 $5 $6 $7 $8 $9 X,Y pos of 4 corners*
0 Add a 4 corners polygon primitive as box body*
4,1,4,$2,$3,$4,$5,$6,$7,$8,$9,$2,$3,0*
0 Add four circle primitives for the rounded corners*
1,1,$1+$1,$2,$3*
1,1,$1+$1,$4,$5*
1,1,$1+$1,$6,$7*
1,1,$1+$1,$8,$9*
0 Add four rect primitives between the rounded corners*
20,1,$1+$1,$2,$3,$4,$5,0*
20,1,$1+$1,$4,$5,$6,$7,0*
20,1,$1+$1,$6,$7,$8,$9,0*
20,1,$1+$1,$8,$9,$2,$3,0*%
%AMRotRect*
0 Rectangle, with rotation*
0 The origin of the aperture is its center*
0 $1 length*
0 $2 width*
0 $3 Rotation angle, in degrees counterclockwise*
0 Add horizontal line*
21,1,$1,$2,0,0,$3*%
G04 Aperture macros list end*
%ADD10C,0.650000*%
%ADD11O,1.000000X2.100000*%
%ADD12O,1.000000X1.600000*%
%ADD13RoundRect,0.250000X-0.600000X-0.725000X0.600000X-0.725000X0.600000X0.725000X-0.600000X0.725000X0*%
%ADD14O,1.700000X1.950000*%
%ADD15C,2.000000*%
%ADD16R,1.700000X1.700000*%
%ADD17C,1.700000*%
%ADD18RoundRect,0.250000X-0.600000X-0.750000X0.600000X-0.750000X0.600000X0.750000X-0.600000X0.750000X0*%
%ADD19O,1.700000X2.000000*%
%ADD20C,1.320800*%
%ADD21C,2.006600*%
%ADD22C,3.200000*%
%ADD23RoundRect,0.250000X0.600000X0.725000X-0.600000X0.725000X-0.600000X-0.725000X0.600000X-0.725000X0*%
%ADD24RoundRect,0.250000X0.750000X-0.600000X0.750000X0.600000X-0.750000X0.600000X-0.750000X-0.600000X0*%
%ADD25O,2.000000X1.700000*%
%ADD26RotRect,1.800000X1.800000X60.000000*%
%ADD27C,1.800000*%
%ADD28RotRect,1.800000X1.800000X240.000000*%
%ADD29RotRect,1.800000X1.800000X150.000000*%
%ADD30RotRect,1.800000X1.800000X120.000000*%
%ADD31RotRect,1.800000X1.800000X300.000000*%
%ADD32RotRect,1.800000X1.800000X330.000000*%
%ADD33RotRect,1.800000X1.800000X210.000000*%
%ADD34R,1.800000X1.800000*%
%ADD35RotRect,1.800000X1.800000X30.000000*%
G04 APERTURE END LIST*
D10*
%TO.C,J7*%
X104553900Y-100093000D03*
X98773900Y-100093000D03*
D11*
X105983900Y-100593000D03*
D12*
X105983900Y-96413000D03*
D11*
X97343900Y-100593000D03*
D12*
X97343900Y-96413000D03*
%TD*%
D13*
%TO.C,J9*%
X130333800Y-77898000D03*
D14*
X132833800Y-77898000D03*
X135333800Y-77898000D03*
X137833800Y-77898000D03*
%TD*%
D15*
%TO.C,SW2*%
X74443800Y-96623000D03*
X80943800Y-96623000D03*
X74443800Y-101123000D03*
X80943800Y-101123000D03*
%TD*%
D13*
%TO.C,J11*%
X130113800Y-92373000D03*
D14*
X132613800Y-92373000D03*
X135113800Y-92373000D03*
X137613800Y-92373000D03*
%TD*%
D16*
%TO.C,J3*%
X104183900Y-145953000D03*
D17*
X106723900Y-145953000D03*
X109263900Y-145953000D03*
X111803900Y-145953000D03*
X114343900Y-145953000D03*
X116883900Y-145953000D03*
X119423900Y-145953000D03*
%TD*%
D13*
%TO.C,J8*%
X115550000Y-59800000D03*
D14*
X118050000Y-59800000D03*
X120550000Y-59800000D03*
X123050000Y-59800000D03*
%TD*%
D18*
%TO.C,J6*%
X118500000Y-110975000D03*
D19*
X121000000Y-110975000D03*
%TD*%
D20*
%TO.C,SW1*%
X91078000Y-97580600D03*
X89078000Y-97580600D03*
X87078000Y-97580600D03*
D21*
X93177998Y-97580600D03*
X84978001Y-97580600D03*
%TD*%
D18*
%TO.C,J5*%
X110050000Y-110850000D03*
D19*
X112550000Y-110850000D03*
%TD*%
D22*
%TO.C,REF\u002A\u002A*%
X162200000Y-117000000D03*
%TD*%
%TO.C,REF\u002A\u002A*%
X61350000Y-73100000D03*
%TD*%
%TO.C,REF\u002A\u002A*%
X61350000Y-116950000D03*
%TD*%
%TO.C,REF\u002A\u002A*%
X162250000Y-73100000D03*
%TD*%
D13*
%TO.C,J10*%
X130133800Y-85223000D03*
D14*
X132633800Y-85223000D03*
X135133800Y-85223000D03*
X137633800Y-85223000D03*
%TD*%
D16*
%TO.C,J4*%
X162943900Y-102613000D03*
D17*
X162943900Y-100073000D03*
X162943900Y-97533000D03*
X162943900Y-94993000D03*
X162943900Y-92453000D03*
X162943900Y-89913000D03*
X162943900Y-87373000D03*
%TD*%
D23*
%TO.C,J1*%
X121693800Y-102783000D03*
D14*
X119193800Y-102783000D03*
X116693800Y-102783000D03*
X114193800Y-102783000D03*
X111693800Y-102783000D03*
%TD*%
D16*
%TO.C,J2*%
X60923800Y-87543000D03*
D17*
X60923800Y-90083000D03*
X60923800Y-92623000D03*
X60923800Y-95163000D03*
X60923800Y-97703000D03*
X60923800Y-100243000D03*
X60923800Y-102783000D03*
%TD*%
D24*
%TO.C,J12*%
X146030000Y-105170000D03*
D25*
X146030000Y-102670000D03*
%TD*%
D26*
%TO.C,D13*%
X71367100Y-72181800D03*
D27*
X72637100Y-69982095D03*
%TD*%
D28*
%TO.C,Q5*%
X154372900Y-112996500D03*
D27*
X153102900Y-115196205D03*
%TD*%
D29*
%TO.C,Q8*%
X93785700Y-137379300D03*
D27*
X91585995Y-136109300D03*
%TD*%
D30*
%TO.C,D11*%
X72008700Y-117956500D03*
D27*
X70738700Y-115756795D03*
%TD*%
D31*
%TO.C,D5*%
X152483400Y-72783700D03*
D27*
X153753400Y-74983405D03*
%TD*%
D32*
%TO.C,D4*%
X134102100Y-55082200D03*
D27*
X136301805Y-56352200D03*
%TD*%
D31*
%TO.C,Q3*%
X149217900Y-67867800D03*
D27*
X150487900Y-70067505D03*
%TD*%
D32*
%TO.C,Q2*%
X129276400Y-52180600D03*
D27*
X131476105Y-53450600D03*
%TD*%
D33*
%TO.C,D8*%
X134066500Y-135484600D03*
D27*
X131866795Y-136754600D03*
%TD*%
D29*
%TO.C,D10*%
X88418700Y-134315200D03*
D27*
X86218995Y-133045200D03*
%TD*%
D30*
%TO.C,Q9*%
X75086700Y-123107700D03*
D27*
X73816700Y-120907995D03*
%TD*%
D34*
%TO.C,Q7*%
X116822800Y-140443200D03*
D27*
X114282800Y-140443200D03*
%TD*%
D35*
%TO.C,Q12*%
X85577700Y-56332100D03*
D27*
X87777405Y-55062100D03*
%TD*%
D33*
%TO.C,Q6*%
X139236300Y-132419000D03*
D27*
X137036595Y-133689000D03*
%TD*%
D34*
%TO.C,Q1*%
X107603800Y-48543000D03*
D27*
X110143800Y-48543000D03*
%TD*%
D28*
%TO.C,D7*%
X151674700Y-118089800D03*
D27*
X150404700Y-120289505D03*
%TD*%
D34*
%TO.C,D6*%
X157331400Y-96223600D03*
D27*
X157331400Y-98763600D03*
%TD*%
D35*
%TO.C,D14*%
X90935500Y-53562000D03*
D27*
X93135205Y-52292000D03*
%TD*%
D26*
%TO.C,Q11*%
X68672300Y-77069200D03*
D27*
X69942300Y-74869495D03*
%TD*%
D34*
%TO.C,Q10*%
X65901100Y-98954900D03*
D27*
X65901100Y-96414900D03*
%TD*%
D34*
%TO.C,D9*%
X110412800Y-140483200D03*
D27*
X107872800Y-140483200D03*
%TD*%
D34*
%TO.C,Q4*%
X157481400Y-90493600D03*
D27*
X157481400Y-93033600D03*
%TD*%
D34*
%TO.C,D3*%
X113141400Y-48623600D03*
D27*
X115681400Y-48623600D03*
%TD*%
D34*
%TO.C,D12*%
X65731100Y-93334900D03*
D27*
X65731100Y-90794900D03*
%TD*%
M02*
