%TF.GenerationSoftware,KiCad,Pcbnew,9.0.7*%
%TF.CreationDate,2026-02-24T13:20:46+09:00*%
%TF.ProjectId,line,6c696e65-2e6b-4696-9361-645f70636258,rev?*%
%TF.SameCoordinates,Original*%
%TF.FileFunction,Legend,Top*%
%TF.FilePolarity,Positive*%
%FSLAX46Y46*%
G04 Gerber Fmt 4.6, Leading zero omitted, Abs format (unit mm)*
G04 Created by KiCad (PCBNEW 9.0.7) date 2026-02-24 13:20:46*
%MOMM*%
%LPD*%
G01*
G04 APERTURE LIST*
G04 Aperture macros list*
%AMRoundRect*
0 Rectangle with rounded corners*
0 $1 Rounding radius*
0 $2 $3 $4 $5 $6 $7 $8 $9 X,Y pos of 4 corners*
0 Add a 4 corners polygon primitive as box body*
4,1,4,$2,$3,$4,$5,$6,$7,$8,$9,$2,$3,0*
0 Add four circle primitives for the rounded corners*
1,1,$1+$1,$2,$3*
1,1,$1+$1,$4,$5*
1,1,$1+$1,$6,$7*
1,1,$1+$1,$8,$9*
0 Add four rect primitives between the rounded corners*
20,1,$1+$1,$2,$3,$4,$5,0*
20,1,$1+$1,$4,$5,$6,$7,0*
20,1,$1+$1,$6,$7,$8,$9,0*
20,1,$1+$1,$8,$9,$2,$3,0*%
%AMRotRect*
0 Rectangle, with rotation*
0 The origin of the aperture is its center*
0 $1 length*
0 $2 width*
0 $3 Rotation angle, in degrees counterclockwise*
0 Add horizontal line*
21,1,$1,$2,0,0,$3*%
G04 Aperture macros list end*
%ADD10C,0.300000*%
%ADD11C,0.150000*%
%ADD12C,0.254000*%
%ADD13C,0.120000*%
%ADD14C,0.152400*%
%ADD15C,0.200000*%
%ADD16C,0.508000*%
%ADD17C,0.000000*%
%ADD18C,0.127000*%
%ADD19RoundRect,0.200000X-0.200000X-0.275000X0.200000X-0.275000X0.200000X0.275000X-0.200000X0.275000X0*%
%ADD20R,1.879600X1.701800*%
%ADD21RoundRect,0.250000X0.583133X0.385016X0.041867X0.697516X-0.583133X-0.385016X-0.041867X-0.697516X0*%
%ADD22RoundRect,0.200000X0.200000X0.275000X-0.200000X0.275000X-0.200000X-0.275000X0.200000X-0.275000X0*%
%ADD23RoundRect,0.200000X0.138157X-0.310705X0.338157X0.035705X-0.138157X0.310705X-0.338157X-0.035705X0*%
%ADD24RoundRect,0.250000X0.697516X0.041867X0.385016X0.583133X-0.697516X-0.041867X-0.385016X-0.583133X0*%
%ADD25RoundRect,0.140000X-0.140000X-0.170000X0.140000X-0.170000X0.140000X0.170000X-0.140000X0.170000X0*%
%ADD26R,0.850800X1.761200*%
%ADD27R,3.150799X1.761200*%
%ADD28RoundRect,0.250000X0.312500X0.625000X-0.312500X0.625000X-0.312500X-0.625000X0.312500X-0.625000X0*%
%ADD29RoundRect,0.250000X-0.583133X-0.385016X-0.041867X-0.697516X0.583133X0.385016X0.041867X0.697516X0*%
%ADD30RoundRect,0.200000X-0.338157X0.035705X-0.138157X-0.310705X0.338157X-0.035705X0.138157X0.310705X0*%
%ADD31RoundRect,0.250000X-0.312500X-0.625000X0.312500X-0.625000X0.312500X0.625000X-0.312500X0.625000X0*%
%ADD32C,0.650000*%
%ADD33R,0.300000X1.150000*%
%ADD34O,1.000000X2.100000*%
%ADD35O,1.000000X1.600000*%
%ADD36RoundRect,0.250000X-0.600000X-0.725000X0.600000X-0.725000X0.600000X0.725000X-0.600000X0.725000X0*%
%ADD37O,1.700000X1.950000*%
%ADD38RoundRect,0.200000X0.338157X-0.035705X0.138157X0.310705X-0.338157X0.035705X-0.138157X-0.310705X0*%
%ADD39C,2.000000*%
%ADD40RoundRect,0.225000X-0.250000X0.225000X-0.250000X-0.225000X0.250000X-0.225000X0.250000X0.225000X0*%
%ADD41RoundRect,0.200000X-0.035705X-0.338157X0.310705X-0.138157X0.035705X0.338157X-0.310705X0.138157X0*%
%ADD42RoundRect,0.200000X0.275000X-0.200000X0.275000X0.200000X-0.275000X0.200000X-0.275000X-0.200000X0*%
%ADD43RoundRect,0.200000X0.035705X0.338157X-0.310705X0.138157X-0.035705X-0.338157X0.310705X-0.138157X0*%
%ADD44R,1.700000X1.700000*%
%ADD45C,1.700000*%
%ADD46RoundRect,0.200000X-0.275000X0.200000X-0.275000X-0.200000X0.275000X-0.200000X0.275000X0.200000X0*%
%ADD47RoundRect,0.250000X0.625000X-0.312500X0.625000X0.312500X-0.625000X0.312500X-0.625000X-0.312500X0*%
%ADD48RoundRect,0.250000X-0.600000X-0.750000X0.600000X-0.750000X0.600000X0.750000X-0.600000X0.750000X0*%
%ADD49O,1.700000X2.000000*%
%ADD50RoundRect,0.200000X-0.138157X0.310705X-0.338157X-0.035705X0.138157X-0.310705X0.338157X0.035705X0*%
%ADD51RoundRect,0.200000X0.310705X0.138157X-0.035705X0.338157X-0.310705X-0.138157X0.035705X-0.338157X0*%
%ADD52RoundRect,0.075000X-0.700000X-0.075000X0.700000X-0.075000X0.700000X0.075000X-0.700000X0.075000X0*%
%ADD53RoundRect,0.075000X-0.075000X-0.700000X0.075000X-0.700000X0.075000X0.700000X-0.075000X0.700000X0*%
%ADD54R,0.600000X1.150000*%
%ADD55RoundRect,0.200000X-0.310705X-0.138157X0.035705X-0.338157X0.310705X0.138157X-0.035705X0.338157X0*%
%ADD56RoundRect,0.087500X-0.725000X-0.087500X0.725000X-0.087500X0.725000X0.087500X-0.725000X0.087500X0*%
%ADD57RoundRect,0.218750X-0.218750X-0.256250X0.218750X-0.256250X0.218750X0.256250X-0.218750X0.256250X0*%
%ADD58C,1.320800*%
%ADD59C,2.006600*%
%ADD60RoundRect,0.250000X0.385016X-0.583133X0.697516X-0.041867X-0.385016X0.583133X-0.697516X0.041867X0*%
%ADD61R,1.473200X0.355600*%
%ADD62RoundRect,0.250000X-0.325000X-0.650000X0.325000X-0.650000X0.325000X0.650000X-0.325000X0.650000X0*%
%ADD63RoundRect,0.250000X-0.041867X0.697516X-0.583133X0.385016X0.041867X-0.697516X0.583133X-0.385016X0*%
%ADD64C,3.200000*%
%ADD65RoundRect,0.250000X-0.385016X0.583133X-0.697516X0.041867X0.385016X-0.583133X0.697516X-0.041867X0*%
%ADD66RoundRect,0.250000X-0.625000X0.312500X-0.625000X-0.312500X0.625000X-0.312500X0.625000X0.312500X0*%
%ADD67RoundRect,0.250000X-0.697516X-0.041867X-0.385016X-0.583133X0.697516X0.041867X0.385016X0.583133X0*%
%ADD68RoundRect,0.250000X0.600000X0.725000X-0.600000X0.725000X-0.600000X-0.725000X0.600000X-0.725000X0*%
%ADD69RoundRect,0.102000X-0.300000X-0.950000X0.300000X-0.950000X0.300000X0.950000X-0.300000X0.950000X0*%
%ADD70RoundRect,0.102000X-0.200000X-0.950000X0.200000X-0.950000X0.200000X0.950000X-0.200000X0.950000X0*%
%ADD71RoundRect,0.250000X0.041867X-0.697516X0.583133X-0.385016X-0.041867X0.697516X-0.583133X0.385016X0*%
%ADD72RoundRect,0.250000X0.750000X-0.600000X0.750000X0.600000X-0.750000X0.600000X-0.750000X-0.600000X0*%
%ADD73O,2.000000X1.700000*%
%ADD74RotRect,1.800000X1.800000X60.000000*%
%ADD75C,1.800000*%
%ADD76RotRect,1.800000X1.800000X240.000000*%
%ADD77RotRect,1.800000X1.800000X150.000000*%
%ADD78RotRect,1.800000X1.800000X120.000000*%
%ADD79RotRect,1.800000X1.800000X300.000000*%
%ADD80RotRect,1.800000X1.800000X330.000000*%
%ADD81RotRect,1.800000X1.800000X210.000000*%
%ADD82R,1.800000X1.800000*%
%ADD83RotRect,1.800000X1.800000X30.000000*%
G04 APERTURE END LIST*
D10*
G36*
X118404830Y-117033051D02*
G01*
X118441835Y-117070056D01*
X118486542Y-117159469D01*
X118486542Y-117545489D01*
X118000828Y-117545489D01*
X118000828Y-117159470D01*
X118045535Y-117070055D01*
X118082539Y-117033051D01*
X118171952Y-116988346D01*
X118315418Y-116988346D01*
X118404830Y-117033051D01*
G37*
G36*
X119667495Y-118012156D02*
G01*
X117534161Y-118012156D01*
X117534161Y-117124060D01*
X117700828Y-117124060D01*
X117700828Y-117695489D01*
X117703710Y-117724753D01*
X117726108Y-117778825D01*
X117767492Y-117820209D01*
X117821564Y-117842607D01*
X117850828Y-117845489D01*
X119350828Y-117845489D01*
X119380092Y-117842607D01*
X119434164Y-117820209D01*
X119475548Y-117778825D01*
X119497946Y-117724753D01*
X119497946Y-117666225D01*
X119475548Y-117612153D01*
X119434164Y-117570769D01*
X119380092Y-117548371D01*
X119350828Y-117545489D01*
X118786542Y-117545489D01*
X118786542Y-117416444D01*
X119436847Y-116961231D01*
X119459169Y-116942088D01*
X119490622Y-116892731D01*
X119500793Y-116835095D01*
X119488134Y-116777953D01*
X119454570Y-116730005D01*
X119405213Y-116698552D01*
X119347577Y-116688381D01*
X119290435Y-116701040D01*
X119264809Y-116715461D01*
X118772020Y-117060413D01*
X118770706Y-117056979D01*
X118699278Y-116914121D01*
X118691351Y-116901529D01*
X118689835Y-116897868D01*
X118686451Y-116893745D01*
X118683613Y-116889236D01*
X118680621Y-116886641D01*
X118671180Y-116875137D01*
X118599751Y-116803708D01*
X118588249Y-116794268D01*
X118585653Y-116791275D01*
X118581139Y-116788434D01*
X118577020Y-116785053D01*
X118573360Y-116783537D01*
X118560767Y-116775610D01*
X118417910Y-116704182D01*
X118390446Y-116693672D01*
X118385070Y-116693290D01*
X118380092Y-116691228D01*
X118350828Y-116688346D01*
X118136542Y-116688346D01*
X118107278Y-116691228D01*
X118102299Y-116693290D01*
X118096924Y-116693672D01*
X118069461Y-116704182D01*
X117926603Y-116775610D01*
X117914008Y-116783538D01*
X117910349Y-116785054D01*
X117906228Y-116788435D01*
X117901718Y-116791275D01*
X117899123Y-116794266D01*
X117887618Y-116803709D01*
X117816190Y-116875138D01*
X117806752Y-116886637D01*
X117803758Y-116889235D01*
X117800915Y-116893751D01*
X117797536Y-116897869D01*
X117796021Y-116901525D01*
X117788093Y-116914121D01*
X117716664Y-117056978D01*
X117706155Y-117084441D01*
X117705773Y-117089815D01*
X117703710Y-117094796D01*
X117700828Y-117124060D01*
X117534161Y-117124060D01*
X117534161Y-115338504D01*
X117700828Y-115338504D01*
X117712306Y-115395893D01*
X117744872Y-115444523D01*
X117767623Y-115463154D01*
X118330411Y-115838346D01*
X117767623Y-116213538D01*
X117744872Y-116232169D01*
X117712306Y-116280799D01*
X117700828Y-116338188D01*
X117712186Y-116395603D01*
X117744651Y-116444302D01*
X117793281Y-116476868D01*
X117850670Y-116488346D01*
X117908085Y-116476988D01*
X117934033Y-116463154D01*
X118600827Y-116018623D01*
X119267623Y-116463154D01*
X119293571Y-116476989D01*
X119350986Y-116488346D01*
X119408375Y-116476868D01*
X119457005Y-116444302D01*
X119489471Y-116395603D01*
X119500828Y-116338189D01*
X119489350Y-116280799D01*
X119456784Y-116232169D01*
X119434033Y-116213539D01*
X118871244Y-115838346D01*
X119434033Y-115463153D01*
X119456784Y-115444523D01*
X119489350Y-115395893D01*
X119500828Y-115338503D01*
X119489471Y-115281089D01*
X119457005Y-115232390D01*
X119408375Y-115199824D01*
X119350986Y-115188346D01*
X119293571Y-115199703D01*
X119267623Y-115213538D01*
X118600827Y-115658068D01*
X117934033Y-115213538D01*
X117908085Y-115199704D01*
X117850670Y-115188346D01*
X117793281Y-115199824D01*
X117744651Y-115232390D01*
X117712186Y-115281089D01*
X117700828Y-115338504D01*
X117534161Y-115338504D01*
X117534161Y-115021679D01*
X119667495Y-115021679D01*
X119667495Y-118012156D01*
G37*
G36*
X122267495Y-117923559D02*
G01*
X120134161Y-117923559D01*
X120134161Y-116752632D01*
X120300828Y-116752632D01*
X120300828Y-117609774D01*
X120303710Y-117639038D01*
X120326108Y-117693110D01*
X120367492Y-117734494D01*
X120421564Y-117756892D01*
X120480092Y-117756892D01*
X120534164Y-117734494D01*
X120575548Y-117693110D01*
X120597946Y-117639038D01*
X120600828Y-117609774D01*
X120600828Y-117331203D01*
X121950828Y-117331203D01*
X121980092Y-117328321D01*
X122034164Y-117305923D01*
X122075548Y-117264539D01*
X122097946Y-117210467D01*
X122097946Y-117151939D01*
X122075548Y-117097867D01*
X122034164Y-117056483D01*
X121980092Y-117034085D01*
X121950828Y-117031203D01*
X120600828Y-117031203D01*
X120600828Y-116752632D01*
X120597946Y-116723368D01*
X120575548Y-116669296D01*
X120534164Y-116627912D01*
X120480092Y-116605514D01*
X120421564Y-116605514D01*
X120367492Y-116627912D01*
X120326108Y-116669296D01*
X120303710Y-116723368D01*
X120300828Y-116752632D01*
X120134161Y-116752632D01*
X120134161Y-115395647D01*
X120300828Y-115395647D01*
X120312306Y-115453036D01*
X120344872Y-115501666D01*
X120367623Y-115520297D01*
X120930411Y-115895489D01*
X120367623Y-116270681D01*
X120344872Y-116289312D01*
X120312306Y-116337942D01*
X120300828Y-116395331D01*
X120312186Y-116452746D01*
X120344651Y-116501445D01*
X120393281Y-116534011D01*
X120450670Y-116545489D01*
X120508085Y-116534131D01*
X120534033Y-116520297D01*
X121200827Y-116075766D01*
X121867623Y-116520297D01*
X121893571Y-116534132D01*
X121950986Y-116545489D01*
X122008375Y-116534011D01*
X122057005Y-116501445D01*
X122089471Y-116452746D01*
X122100828Y-116395332D01*
X122089350Y-116337942D01*
X122056784Y-116289312D01*
X122034033Y-116270682D01*
X121471244Y-115895489D01*
X122034033Y-115520296D01*
X122056784Y-115501666D01*
X122089350Y-115453036D01*
X122100828Y-115395646D01*
X122089471Y-115338232D01*
X122057005Y-115289533D01*
X122008375Y-115256967D01*
X121950986Y-115245489D01*
X121893571Y-115256846D01*
X121867623Y-115270681D01*
X121200827Y-115715211D01*
X120534033Y-115270681D01*
X120508085Y-115256847D01*
X120450670Y-115245489D01*
X120393281Y-115256967D01*
X120344651Y-115289533D01*
X120312186Y-115338232D01*
X120300828Y-115395647D01*
X120134161Y-115395647D01*
X120134161Y-115078822D01*
X122267495Y-115078822D01*
X122267495Y-117923559D01*
G37*
G36*
X113717495Y-120052131D02*
G01*
X111584161Y-120052131D01*
X111584161Y-118809774D01*
X111750828Y-118809774D01*
X111750828Y-119738346D01*
X111753710Y-119767610D01*
X111776108Y-119821682D01*
X111817492Y-119863066D01*
X111871564Y-119885464D01*
X111930092Y-119885464D01*
X111984164Y-119863066D01*
X112025548Y-119821682D01*
X112047946Y-119767610D01*
X112050828Y-119738346D01*
X112050828Y-119140339D01*
X112373481Y-119422660D01*
X112386130Y-119431703D01*
X112388921Y-119434494D01*
X112391565Y-119435589D01*
X112397402Y-119439762D01*
X112420481Y-119447567D01*
X112442993Y-119456892D01*
X112448055Y-119456892D01*
X112452845Y-119458512D01*
X112477145Y-119456892D01*
X112501521Y-119456892D01*
X112506196Y-119454955D01*
X112511241Y-119454619D01*
X112533076Y-119443820D01*
X112555593Y-119434494D01*
X112559169Y-119430917D01*
X112563704Y-119428675D01*
X112579747Y-119410339D01*
X112596977Y-119393110D01*
X112598913Y-119388435D01*
X112602245Y-119384628D01*
X112610048Y-119361552D01*
X112619375Y-119339038D01*
X112620078Y-119331896D01*
X112620995Y-119329186D01*
X112620732Y-119325251D01*
X112622257Y-119309774D01*
X112622257Y-119130898D01*
X112666962Y-119041486D01*
X112703968Y-119004480D01*
X112793381Y-118959774D01*
X113079704Y-118959774D01*
X113169117Y-119004481D01*
X113206121Y-119041485D01*
X113250828Y-119130898D01*
X113250828Y-119488650D01*
X113206121Y-119578063D01*
X113151905Y-119632280D01*
X113133250Y-119655011D01*
X113110853Y-119709083D01*
X113110853Y-119767609D01*
X113133250Y-119821681D01*
X113174636Y-119863067D01*
X113228708Y-119885464D01*
X113287234Y-119885464D01*
X113341306Y-119863067D01*
X113364037Y-119844412D01*
X113435466Y-119772983D01*
X113444907Y-119761478D01*
X113447899Y-119758884D01*
X113450737Y-119754374D01*
X113454121Y-119750252D01*
X113455637Y-119746590D01*
X113463564Y-119733999D01*
X113534992Y-119591141D01*
X113545502Y-119563678D01*
X113545883Y-119558302D01*
X113547946Y-119553324D01*
X113550828Y-119524060D01*
X113550828Y-119095489D01*
X113547946Y-119066225D01*
X113545883Y-119061246D01*
X113545502Y-119055871D01*
X113534992Y-119028408D01*
X113463564Y-118885550D01*
X113455637Y-118872958D01*
X113454121Y-118869297D01*
X113450737Y-118865174D01*
X113447899Y-118860665D01*
X113444907Y-118858070D01*
X113435466Y-118846566D01*
X113364037Y-118775137D01*
X113352535Y-118765697D01*
X113349939Y-118762704D01*
X113345425Y-118759863D01*
X113341306Y-118756482D01*
X113337646Y-118754966D01*
X113325053Y-118747039D01*
X113182196Y-118675610D01*
X113154733Y-118665101D01*
X113149358Y-118664719D01*
X113144378Y-118662656D01*
X113115114Y-118659774D01*
X112757971Y-118659774D01*
X112728707Y-118662656D01*
X112723726Y-118664719D01*
X112718352Y-118665101D01*
X112690888Y-118675610D01*
X112548032Y-118747039D01*
X112535438Y-118754966D01*
X112531779Y-118756482D01*
X112527659Y-118759863D01*
X112523146Y-118762704D01*
X112520549Y-118765698D01*
X112509048Y-118775137D01*
X112437619Y-118846566D01*
X112428179Y-118858067D01*
X112425186Y-118860664D01*
X112422345Y-118865177D01*
X112418964Y-118869297D01*
X112417448Y-118872956D01*
X112409521Y-118885550D01*
X112350385Y-119003821D01*
X111999604Y-118696887D01*
X111986953Y-118687843D01*
X111984164Y-118685054D01*
X111981518Y-118683957D01*
X111975682Y-118679786D01*
X111952600Y-118671979D01*
X111930092Y-118662656D01*
X111925033Y-118662656D01*
X111920240Y-118661035D01*
X111895931Y-118662656D01*
X111871564Y-118662656D01*
X111866888Y-118664592D01*
X111861844Y-118664929D01*
X111840008Y-118675727D01*
X111817492Y-118685054D01*
X111813915Y-118688630D01*
X111809381Y-118690873D01*
X111793337Y-118709208D01*
X111776108Y-118726438D01*
X111774171Y-118731112D01*
X111770840Y-118734920D01*
X111763033Y-118758001D01*
X111753710Y-118780510D01*
X111753007Y-118787647D01*
X111752089Y-118790362D01*
X111752351Y-118794301D01*
X111750828Y-118809774D01*
X111584161Y-118809774D01*
X111584161Y-118137654D01*
X113110853Y-118137654D01*
X113110853Y-118137655D01*
X113110853Y-118137656D01*
X113110853Y-118196182D01*
X113113079Y-118201555D01*
X113133250Y-118250253D01*
X113133251Y-118250254D01*
X113151906Y-118272985D01*
X113223335Y-118344413D01*
X113246064Y-118363066D01*
X113246065Y-118363067D01*
X113300137Y-118385464D01*
X113300138Y-118385464D01*
X113358663Y-118385464D01*
X113412735Y-118363067D01*
X113435466Y-118344412D01*
X113506894Y-118272984D01*
X113525549Y-118250254D01*
X113534825Y-118227856D01*
X113547946Y-118196182D01*
X113547946Y-118137654D01*
X113525549Y-118083584D01*
X113525549Y-118083583D01*
X113506895Y-118060853D01*
X113435467Y-117989424D01*
X113412736Y-117970769D01*
X113412735Y-117970768D01*
X113381061Y-117957648D01*
X113358664Y-117948371D01*
X113358663Y-117948371D01*
X113300137Y-117948371D01*
X113246065Y-117970768D01*
X113223334Y-117989423D01*
X113151905Y-118060852D01*
X113133250Y-118083583D01*
X113133250Y-118083584D01*
X113110853Y-118137654D01*
X111584161Y-118137654D01*
X111584161Y-116666917D01*
X111750828Y-116666917D01*
X111750828Y-117595489D01*
X111753710Y-117624753D01*
X111776108Y-117678825D01*
X111817492Y-117720209D01*
X111871564Y-117742607D01*
X111930092Y-117742607D01*
X111984164Y-117720209D01*
X112025548Y-117678825D01*
X112047946Y-117624753D01*
X112050828Y-117595489D01*
X112050828Y-116997482D01*
X112373481Y-117279803D01*
X112386130Y-117288846D01*
X112388921Y-117291637D01*
X112391565Y-117292732D01*
X112397402Y-117296905D01*
X112420481Y-117304710D01*
X112442993Y-117314035D01*
X112448055Y-117314035D01*
X112452845Y-117315655D01*
X112477145Y-117314035D01*
X112501521Y-117314035D01*
X112506196Y-117312098D01*
X112511241Y-117311762D01*
X112533076Y-117300963D01*
X112555593Y-117291637D01*
X112559169Y-117288060D01*
X112563704Y-117285818D01*
X112579747Y-117267482D01*
X112596977Y-117250253D01*
X112598913Y-117245578D01*
X112602245Y-117241771D01*
X112610048Y-117218695D01*
X112619375Y-117196181D01*
X112620078Y-117189039D01*
X112620995Y-117186329D01*
X112620732Y-117182394D01*
X112622257Y-117166917D01*
X112622257Y-116988041D01*
X112666962Y-116898629D01*
X112703968Y-116861623D01*
X112793381Y-116816917D01*
X113079704Y-116816917D01*
X113169117Y-116861624D01*
X113206121Y-116898628D01*
X113250828Y-116988041D01*
X113250828Y-117345793D01*
X113206121Y-117435206D01*
X113151905Y-117489423D01*
X113133250Y-117512154D01*
X113110853Y-117566226D01*
X113110853Y-117624752D01*
X113133250Y-117678824D01*
X113174636Y-117720210D01*
X113228708Y-117742607D01*
X113287234Y-117742607D01*
X113341306Y-117720210D01*
X113364037Y-117701555D01*
X113435466Y-117630126D01*
X113444907Y-117618621D01*
X113447899Y-117616027D01*
X113450737Y-117611517D01*
X113454121Y-117607395D01*
X113455637Y-117603733D01*
X113463564Y-117591142D01*
X113534992Y-117448284D01*
X113545502Y-117420821D01*
X113545883Y-117415445D01*
X113547946Y-117410467D01*
X113550828Y-117381203D01*
X113550828Y-116952632D01*
X113547946Y-116923368D01*
X113545883Y-116918389D01*
X113545502Y-116913014D01*
X113534992Y-116885551D01*
X113463564Y-116742693D01*
X113455637Y-116730101D01*
X113454121Y-116726440D01*
X113450737Y-116722317D01*
X113447899Y-116717808D01*
X113444907Y-116715213D01*
X113435466Y-116703709D01*
X113364037Y-116632280D01*
X113352535Y-116622840D01*
X113349939Y-116619847D01*
X113345425Y-116617006D01*
X113341306Y-116613625D01*
X113337646Y-116612109D01*
X113325053Y-116604182D01*
X113182196Y-116532753D01*
X113154733Y-116522244D01*
X113149358Y-116521862D01*
X113144378Y-116519799D01*
X113115114Y-116516917D01*
X112757971Y-116516917D01*
X112728707Y-116519799D01*
X112723726Y-116521862D01*
X112718352Y-116522244D01*
X112690888Y-116532753D01*
X112548032Y-116604182D01*
X112535438Y-116612109D01*
X112531779Y-116613625D01*
X112527659Y-116617006D01*
X112523146Y-116619847D01*
X112520549Y-116622841D01*
X112509048Y-116632280D01*
X112437619Y-116703709D01*
X112428179Y-116715210D01*
X112425186Y-116717807D01*
X112422345Y-116722320D01*
X112418964Y-116726440D01*
X112417448Y-116730099D01*
X112409521Y-116742693D01*
X112350385Y-116860964D01*
X111999604Y-116554030D01*
X111986953Y-116544986D01*
X111984164Y-116542197D01*
X111981518Y-116541100D01*
X111975682Y-116536929D01*
X111952600Y-116529122D01*
X111930092Y-116519799D01*
X111925033Y-116519799D01*
X111920240Y-116518178D01*
X111895931Y-116519799D01*
X111871564Y-116519799D01*
X111866888Y-116521735D01*
X111861844Y-116522072D01*
X111840008Y-116532870D01*
X111817492Y-116542197D01*
X111813915Y-116545773D01*
X111809381Y-116548016D01*
X111793337Y-116566351D01*
X111776108Y-116583581D01*
X111774171Y-116588255D01*
X111770840Y-116592063D01*
X111763033Y-116615144D01*
X111753710Y-116637653D01*
X111753007Y-116644790D01*
X111752089Y-116647505D01*
X111752351Y-116651444D01*
X111750828Y-116666917D01*
X111584161Y-116666917D01*
X111584161Y-115219585D01*
X111752006Y-115219585D01*
X111756155Y-115277966D01*
X111782329Y-115330313D01*
X111826543Y-115368660D01*
X111853394Y-115380648D01*
X112926485Y-115738346D01*
X111853394Y-116096044D01*
X111826543Y-116108032D01*
X111782329Y-116146379D01*
X111756155Y-116198726D01*
X111752006Y-116257107D01*
X111770514Y-116312631D01*
X111808861Y-116356845D01*
X111861208Y-116383019D01*
X111919589Y-116387168D01*
X111948262Y-116380648D01*
X113448262Y-115880648D01*
X113475113Y-115868660D01*
X113483210Y-115861637D01*
X113492795Y-115856845D01*
X113505116Y-115842638D01*
X113519328Y-115830313D01*
X113524121Y-115820725D01*
X113531142Y-115812631D01*
X113537090Y-115794786D01*
X113545501Y-115777965D01*
X113546260Y-115767277D01*
X113549651Y-115757107D01*
X113548317Y-115738346D01*
X113549651Y-115719585D01*
X113546260Y-115709414D01*
X113545501Y-115698727D01*
X113537090Y-115681905D01*
X113531142Y-115664061D01*
X113524121Y-115655966D01*
X113519328Y-115646379D01*
X113505116Y-115634053D01*
X113492795Y-115619847D01*
X113483210Y-115615054D01*
X113475113Y-115608032D01*
X113448262Y-115596044D01*
X111948262Y-115096044D01*
X111919589Y-115089524D01*
X111861208Y-115093673D01*
X111808861Y-115119847D01*
X111770514Y-115164061D01*
X111752006Y-115219585D01*
X111584161Y-115219585D01*
X111584161Y-114922857D01*
X113717495Y-114922857D01*
X113717495Y-120052131D01*
G37*
G36*
X110341328Y-115679871D02*
G01*
X110447688Y-115733052D01*
X110548294Y-115833657D01*
X110600828Y-115991259D01*
X110600828Y-116174060D01*
X109400828Y-116174060D01*
X109400828Y-115991257D01*
X109453361Y-115833658D01*
X109553968Y-115733051D01*
X109660327Y-115679872D01*
X109912149Y-115616917D01*
X110089507Y-115616917D01*
X110341328Y-115679871D01*
G37*
G36*
X111067495Y-119783584D02*
G01*
X108934161Y-119783584D01*
X108934161Y-118752632D01*
X109100828Y-118752632D01*
X109100828Y-118966917D01*
X109102286Y-118981728D01*
X109102006Y-118985678D01*
X109103187Y-118990872D01*
X109103710Y-118996181D01*
X109105227Y-118999843D01*
X109108526Y-119014351D01*
X109179954Y-119228637D01*
X109191943Y-119255488D01*
X109195473Y-119259558D01*
X109197536Y-119264538D01*
X109216191Y-119287269D01*
X109359048Y-119430126D01*
X109370550Y-119439566D01*
X109373146Y-119442559D01*
X109377655Y-119445397D01*
X109381778Y-119448781D01*
X109385440Y-119450297D01*
X109398032Y-119458224D01*
X109540888Y-119529653D01*
X109543030Y-119530472D01*
X109543900Y-119531117D01*
X109556171Y-119535501D01*
X109568352Y-119540162D01*
X109569432Y-119540238D01*
X109571591Y-119541010D01*
X109857305Y-119612438D01*
X109862376Y-119613187D01*
X109864421Y-119614035D01*
X109875443Y-119615120D01*
X109886394Y-119616740D01*
X109888581Y-119616414D01*
X109893685Y-119616917D01*
X110107971Y-119616917D01*
X110113074Y-119616414D01*
X110115262Y-119616740D01*
X110126212Y-119615120D01*
X110137235Y-119614035D01*
X110139279Y-119613187D01*
X110144351Y-119612438D01*
X110430065Y-119541010D01*
X110432223Y-119540238D01*
X110433304Y-119540162D01*
X110445478Y-119535503D01*
X110457756Y-119531117D01*
X110458626Y-119530472D01*
X110460767Y-119529653D01*
X110603624Y-119458224D01*
X110616217Y-119450296D01*
X110619877Y-119448781D01*
X110623996Y-119445399D01*
X110628510Y-119442559D01*
X110631106Y-119439565D01*
X110642608Y-119430126D01*
X110785466Y-119287269D01*
X110804121Y-119264539D01*
X110806183Y-119259559D01*
X110809715Y-119255488D01*
X110821703Y-119228637D01*
X110893131Y-119014351D01*
X110896430Y-118999838D01*
X110897946Y-118996181D01*
X110898468Y-118990878D01*
X110899651Y-118985677D01*
X110899369Y-118981722D01*
X110900828Y-118966917D01*
X110900828Y-118824060D01*
X110899369Y-118809254D01*
X110899651Y-118805300D01*
X110898468Y-118800098D01*
X110897946Y-118794796D01*
X110896430Y-118791138D01*
X110893131Y-118776626D01*
X110821703Y-118562340D01*
X110809715Y-118535489D01*
X110806181Y-118531414D01*
X110804120Y-118526438D01*
X110785465Y-118503707D01*
X110714036Y-118432279D01*
X110691310Y-118413629D01*
X110691307Y-118413626D01*
X110637235Y-118391228D01*
X110607971Y-118388346D01*
X110107971Y-118388346D01*
X110078707Y-118391228D01*
X110024635Y-118413626D01*
X109983251Y-118455010D01*
X109960853Y-118509082D01*
X109957971Y-118538346D01*
X109957971Y-118824060D01*
X109960853Y-118853324D01*
X109983251Y-118907396D01*
X110024635Y-118948780D01*
X110078707Y-118971178D01*
X110137235Y-118971178D01*
X110191307Y-118948780D01*
X110232691Y-118907396D01*
X110255089Y-118853324D01*
X110257971Y-118824060D01*
X110257971Y-118688346D01*
X110545840Y-118688346D01*
X110548294Y-118690800D01*
X110600828Y-118848402D01*
X110600828Y-118942574D01*
X110548294Y-119100176D01*
X110447688Y-119200781D01*
X110341328Y-119253962D01*
X110089507Y-119316917D01*
X109912149Y-119316917D01*
X109660327Y-119253961D01*
X109553968Y-119200782D01*
X109453361Y-119100175D01*
X109400828Y-118942576D01*
X109400828Y-118788042D01*
X109456421Y-118676856D01*
X109466931Y-118649393D01*
X109471079Y-118591013D01*
X109452571Y-118535490D01*
X109414225Y-118491275D01*
X109361876Y-118465100D01*
X109303495Y-118460952D01*
X109247973Y-118479460D01*
X109203758Y-118517806D01*
X109188093Y-118542692D01*
X109116664Y-118685550D01*
X109106154Y-118713013D01*
X109105771Y-118718390D01*
X109103710Y-118723368D01*
X109100828Y-118752632D01*
X108934161Y-118752632D01*
X108934161Y-117885012D01*
X109101194Y-117885012D01*
X109103710Y-117904803D01*
X109103710Y-117924753D01*
X109107369Y-117933586D01*
X109108575Y-117943072D01*
X109118473Y-117960394D01*
X109126108Y-117978825D01*
X109132868Y-117985585D01*
X109137613Y-117993888D01*
X109153384Y-118006101D01*
X109167492Y-118020209D01*
X109176327Y-118023868D01*
X109183887Y-118029723D01*
X109203131Y-118034971D01*
X109221564Y-118042607D01*
X109236530Y-118044080D01*
X109240351Y-118045123D01*
X109243302Y-118044747D01*
X109250828Y-118045489D01*
X110750828Y-118045489D01*
X110780092Y-118042607D01*
X110834164Y-118020209D01*
X110875548Y-117978825D01*
X110897946Y-117924753D01*
X110897946Y-117866225D01*
X110875548Y-117812153D01*
X110834164Y-117770769D01*
X110780092Y-117748371D01*
X110750828Y-117745489D01*
X109815662Y-117745489D01*
X110825249Y-117168582D01*
X110831416Y-117164204D01*
X110834164Y-117163066D01*
X110836963Y-117160266D01*
X110849227Y-117151561D01*
X110861442Y-117135787D01*
X110875548Y-117121682D01*
X110879206Y-117112848D01*
X110885063Y-117105287D01*
X110890312Y-117086038D01*
X110897946Y-117067610D01*
X110897946Y-117058048D01*
X110900462Y-117048823D01*
X110897946Y-117029031D01*
X110897946Y-117009082D01*
X110894286Y-117000248D01*
X110893081Y-116990763D01*
X110883182Y-116973440D01*
X110875548Y-116955010D01*
X110868787Y-116948249D01*
X110864043Y-116939947D01*
X110848271Y-116927733D01*
X110834164Y-116913626D01*
X110825328Y-116909966D01*
X110817769Y-116904112D01*
X110798524Y-116898863D01*
X110780092Y-116891228D01*
X110765127Y-116889754D01*
X110761306Y-116888712D01*
X110758354Y-116889087D01*
X110750828Y-116888346D01*
X109250828Y-116888346D01*
X109221564Y-116891228D01*
X109167492Y-116913626D01*
X109126108Y-116955010D01*
X109103710Y-117009082D01*
X109103710Y-117067610D01*
X109126108Y-117121682D01*
X109167492Y-117163066D01*
X109221564Y-117185464D01*
X109250828Y-117188346D01*
X110185993Y-117188346D01*
X109176407Y-117765253D01*
X109170239Y-117769630D01*
X109167492Y-117770769D01*
X109164692Y-117773568D01*
X109152429Y-117782274D01*
X109140215Y-117798045D01*
X109126108Y-117812153D01*
X109122448Y-117820988D01*
X109116594Y-117828548D01*
X109111345Y-117847792D01*
X109103710Y-117866225D01*
X109103710Y-117875787D01*
X109101194Y-117885012D01*
X108934161Y-117885012D01*
X108934161Y-115966917D01*
X109100828Y-115966917D01*
X109100828Y-116324060D01*
X109103710Y-116353324D01*
X109126108Y-116407396D01*
X109167492Y-116448780D01*
X109221564Y-116471178D01*
X109250828Y-116474060D01*
X110750828Y-116474060D01*
X110780092Y-116471178D01*
X110834164Y-116448780D01*
X110875548Y-116407396D01*
X110897946Y-116353324D01*
X110900828Y-116324060D01*
X110900828Y-115966917D01*
X110899369Y-115952111D01*
X110899651Y-115948157D01*
X110898468Y-115942955D01*
X110897946Y-115937653D01*
X110896430Y-115933995D01*
X110893131Y-115919483D01*
X110821703Y-115705197D01*
X110809715Y-115678346D01*
X110806183Y-115674274D01*
X110804121Y-115669295D01*
X110785466Y-115646565D01*
X110642608Y-115503708D01*
X110631106Y-115494268D01*
X110628510Y-115491275D01*
X110623996Y-115488434D01*
X110619877Y-115485053D01*
X110616217Y-115483537D01*
X110603624Y-115475610D01*
X110460767Y-115404181D01*
X110458626Y-115403361D01*
X110457756Y-115402717D01*
X110445478Y-115398330D01*
X110433304Y-115393672D01*
X110432223Y-115393595D01*
X110430065Y-115392824D01*
X110144351Y-115321396D01*
X110139279Y-115320646D01*
X110137235Y-115319799D01*
X110126212Y-115318713D01*
X110115262Y-115317094D01*
X110113074Y-115317419D01*
X110107971Y-115316917D01*
X109893685Y-115316917D01*
X109888581Y-115317419D01*
X109886394Y-115317094D01*
X109875443Y-115318713D01*
X109864421Y-115319799D01*
X109862376Y-115320646D01*
X109857305Y-115321396D01*
X109571591Y-115392824D01*
X109569432Y-115393595D01*
X109568352Y-115393672D01*
X109556171Y-115398332D01*
X109543900Y-115402717D01*
X109543030Y-115403361D01*
X109540888Y-115404181D01*
X109398032Y-115475610D01*
X109385440Y-115483536D01*
X109381778Y-115485053D01*
X109377655Y-115488436D01*
X109373146Y-115491275D01*
X109370550Y-115494267D01*
X109359048Y-115503708D01*
X109216191Y-115646565D01*
X109197536Y-115669296D01*
X109195473Y-115674275D01*
X109191943Y-115678346D01*
X109179954Y-115705197D01*
X109108526Y-115919483D01*
X109105227Y-115933990D01*
X109103710Y-115937653D01*
X109103187Y-115942961D01*
X109102006Y-115948156D01*
X109102286Y-115952105D01*
X109100828Y-115966917D01*
X108934161Y-115966917D01*
X108934161Y-115150250D01*
X111067495Y-115150250D01*
X111067495Y-119783584D01*
G37*
D11*
X82368933Y-105682780D02*
X82321314Y-105730400D01*
X82321314Y-105730400D02*
X82178457Y-105778019D01*
X82178457Y-105778019D02*
X82083219Y-105778019D01*
X82083219Y-105778019D02*
X81940362Y-105730400D01*
X81940362Y-105730400D02*
X81845124Y-105635161D01*
X81845124Y-105635161D02*
X81797505Y-105539923D01*
X81797505Y-105539923D02*
X81749886Y-105349447D01*
X81749886Y-105349447D02*
X81749886Y-105206590D01*
X81749886Y-105206590D02*
X81797505Y-105016114D01*
X81797505Y-105016114D02*
X81845124Y-104920876D01*
X81845124Y-104920876D02*
X81940362Y-104825638D01*
X81940362Y-104825638D02*
X82083219Y-104778019D01*
X82083219Y-104778019D02*
X82178457Y-104778019D01*
X82178457Y-104778019D02*
X82321314Y-104825638D01*
X82321314Y-104825638D02*
X82368933Y-104873257D01*
X83368933Y-105778019D02*
X83035600Y-105301828D01*
X82797505Y-105778019D02*
X82797505Y-104778019D01*
X82797505Y-104778019D02*
X83178457Y-104778019D01*
X83178457Y-104778019D02*
X83273695Y-104825638D01*
X83273695Y-104825638D02*
X83321314Y-104873257D01*
X83321314Y-104873257D02*
X83368933Y-104968495D01*
X83368933Y-104968495D02*
X83368933Y-105111352D01*
X83368933Y-105111352D02*
X83321314Y-105206590D01*
X83321314Y-105206590D02*
X83273695Y-105254209D01*
X83273695Y-105254209D02*
X83178457Y-105301828D01*
X83178457Y-105301828D02*
X82797505Y-105301828D01*
X84321314Y-105778019D02*
X83749886Y-105778019D01*
X84035600Y-105778019D02*
X84035600Y-104778019D01*
X84035600Y-104778019D02*
X83940362Y-104920876D01*
X83940362Y-104920876D02*
X83845124Y-105016114D01*
X83845124Y-105016114D02*
X83749886Y-105063733D01*
X87381459Y-132218182D02*
X87330879Y-131639122D01*
X86886588Y-131932467D02*
X87386588Y-131066442D01*
X87386588Y-131066442D02*
X87716502Y-131256918D01*
X87716502Y-131256918D02*
X87775171Y-131345777D01*
X87775171Y-131345777D02*
X87792601Y-131410825D01*
X87792601Y-131410825D02*
X87786221Y-131517114D01*
X87786221Y-131517114D02*
X87714793Y-131640831D01*
X87714793Y-131640831D02*
X87625934Y-131699501D01*
X87625934Y-131699501D02*
X87560885Y-131716930D01*
X87560885Y-131716930D02*
X87454597Y-131710551D01*
X87454597Y-131710551D02*
X87124683Y-131520074D01*
X88206245Y-132694372D02*
X87711374Y-132408658D01*
X87958810Y-132551515D02*
X88458810Y-131685490D01*
X88458810Y-131685490D02*
X88304902Y-131761589D01*
X88304902Y-131761589D02*
X88174805Y-131796448D01*
X88174805Y-131796448D02*
X88068517Y-131790068D01*
X88988541Y-132101302D02*
X89053590Y-132083872D01*
X89053590Y-132083872D02*
X89159878Y-132090252D01*
X89159878Y-132090252D02*
X89366074Y-132209299D01*
X89366074Y-132209299D02*
X89424743Y-132298158D01*
X89424743Y-132298158D02*
X89442173Y-132363206D01*
X89442173Y-132363206D02*
X89435793Y-132469495D01*
X89435793Y-132469495D02*
X89388174Y-132551973D01*
X89388174Y-132551973D02*
X89275507Y-132651882D01*
X89275507Y-132651882D02*
X88494921Y-132861039D01*
X88494921Y-132861039D02*
X89031032Y-133170563D01*
X71466302Y-77819570D02*
X70887242Y-77870150D01*
X71180587Y-78314441D02*
X70314562Y-77814441D01*
X70314562Y-77814441D02*
X70505038Y-77484527D01*
X70505038Y-77484527D02*
X70593897Y-77425858D01*
X70593897Y-77425858D02*
X70658945Y-77408428D01*
X70658945Y-77408428D02*
X70765234Y-77414808D01*
X70765234Y-77414808D02*
X70888951Y-77486236D01*
X70888951Y-77486236D02*
X70947621Y-77575095D01*
X70947621Y-77575095D02*
X70965050Y-77640144D01*
X70965050Y-77640144D02*
X70958671Y-77746432D01*
X70958671Y-77746432D02*
X70768194Y-78076346D01*
X70766943Y-77030895D02*
X71076467Y-76494784D01*
X71076467Y-76494784D02*
X71239715Y-76973935D01*
X71239715Y-76973935D02*
X71311143Y-76850217D01*
X71311143Y-76850217D02*
X71400002Y-76791548D01*
X71400002Y-76791548D02*
X71465050Y-76774118D01*
X71465050Y-76774118D02*
X71571338Y-76780498D01*
X71571338Y-76780498D02*
X71777535Y-76899545D01*
X71777535Y-76899545D02*
X71836204Y-76988404D01*
X71836204Y-76988404D02*
X71853634Y-77053453D01*
X71853634Y-77053453D02*
X71847254Y-77159741D01*
X71847254Y-77159741D02*
X71704397Y-77407177D01*
X71704397Y-77407177D02*
X71615539Y-77465846D01*
X71615539Y-77465846D02*
X71550490Y-77483275D01*
X71528848Y-75711237D02*
X71290753Y-76123630D01*
X71290753Y-76123630D02*
X71679336Y-76402964D01*
X71679336Y-76402964D02*
X71661906Y-76337916D01*
X71661906Y-76337916D02*
X71668286Y-76231627D01*
X71668286Y-76231627D02*
X71787334Y-76025431D01*
X71787334Y-76025431D02*
X71876192Y-75966762D01*
X71876192Y-75966762D02*
X71941241Y-75949332D01*
X71941241Y-75949332D02*
X72047529Y-75955712D01*
X72047529Y-75955712D02*
X72253726Y-76074759D01*
X72253726Y-76074759D02*
X72312395Y-76163618D01*
X72312395Y-76163618D02*
X72329824Y-76228667D01*
X72329824Y-76228667D02*
X72323445Y-76334955D01*
X72323445Y-76334955D02*
X72204397Y-76541151D01*
X72204397Y-76541151D02*
X72115539Y-76599820D01*
X72115539Y-76599820D02*
X72050490Y-76617250D01*
X72333760Y-115604678D02*
X72579486Y-115077908D01*
X72048046Y-115109807D02*
X72914071Y-114609807D01*
X72914071Y-114609807D02*
X73104547Y-114939721D01*
X73104547Y-114939721D02*
X73110927Y-115046009D01*
X73110927Y-115046009D02*
X73093497Y-115111058D01*
X73093497Y-115111058D02*
X73034828Y-115199916D01*
X73034828Y-115199916D02*
X72911110Y-115271345D01*
X72911110Y-115271345D02*
X72804822Y-115277725D01*
X72804822Y-115277725D02*
X72739773Y-115260295D01*
X72739773Y-115260295D02*
X72650915Y-115201626D01*
X72650915Y-115201626D02*
X72460439Y-114871711D01*
X72809951Y-116429464D02*
X72524236Y-115934593D01*
X72667093Y-116182029D02*
X73533119Y-115682029D01*
X73533119Y-115682029D02*
X73361782Y-115670979D01*
X73361782Y-115670979D02*
X73231684Y-115636119D01*
X73231684Y-115636119D02*
X73142826Y-115577450D01*
X73842643Y-116218140D02*
X74152166Y-116754251D01*
X74152166Y-116754251D02*
X73655585Y-116656052D01*
X73655585Y-116656052D02*
X73727014Y-116779770D01*
X73727014Y-116779770D02*
X73733394Y-116886058D01*
X73733394Y-116886058D02*
X73715964Y-116951107D01*
X73715964Y-116951107D02*
X73657295Y-117039965D01*
X73657295Y-117039965D02*
X73451098Y-117159013D01*
X73451098Y-117159013D02*
X73344810Y-117165392D01*
X73344810Y-117165392D02*
X73279761Y-117147962D01*
X73279761Y-117147962D02*
X73190903Y-117089293D01*
X73190903Y-117089293D02*
X73048046Y-116841858D01*
X73048046Y-116841858D02*
X73041666Y-116735569D01*
X73041666Y-116735569D02*
X73059096Y-116670521D01*
X97196042Y-106372580D02*
X97148423Y-106420200D01*
X97148423Y-106420200D02*
X97005566Y-106467819D01*
X97005566Y-106467819D02*
X96910328Y-106467819D01*
X96910328Y-106467819D02*
X96767471Y-106420200D01*
X96767471Y-106420200D02*
X96672233Y-106324961D01*
X96672233Y-106324961D02*
X96624614Y-106229723D01*
X96624614Y-106229723D02*
X96576995Y-106039247D01*
X96576995Y-106039247D02*
X96576995Y-105896390D01*
X96576995Y-105896390D02*
X96624614Y-105705914D01*
X96624614Y-105705914D02*
X96672233Y-105610676D01*
X96672233Y-105610676D02*
X96767471Y-105515438D01*
X96767471Y-105515438D02*
X96910328Y-105467819D01*
X96910328Y-105467819D02*
X97005566Y-105467819D01*
X97005566Y-105467819D02*
X97148423Y-105515438D01*
X97148423Y-105515438D02*
X97196042Y-105563057D01*
X97576995Y-105563057D02*
X97624614Y-105515438D01*
X97624614Y-105515438D02*
X97719852Y-105467819D01*
X97719852Y-105467819D02*
X97957947Y-105467819D01*
X97957947Y-105467819D02*
X98053185Y-105515438D01*
X98053185Y-105515438D02*
X98100804Y-105563057D01*
X98100804Y-105563057D02*
X98148423Y-105658295D01*
X98148423Y-105658295D02*
X98148423Y-105753533D01*
X98148423Y-105753533D02*
X98100804Y-105896390D01*
X98100804Y-105896390D02*
X97529376Y-106467819D01*
X97529376Y-106467819D02*
X98148423Y-106467819D01*
X99005566Y-105467819D02*
X98815090Y-105467819D01*
X98815090Y-105467819D02*
X98719852Y-105515438D01*
X98719852Y-105515438D02*
X98672233Y-105563057D01*
X98672233Y-105563057D02*
X98576995Y-105705914D01*
X98576995Y-105705914D02*
X98529376Y-105896390D01*
X98529376Y-105896390D02*
X98529376Y-106277342D01*
X98529376Y-106277342D02*
X98576995Y-106372580D01*
X98576995Y-106372580D02*
X98624614Y-106420200D01*
X98624614Y-106420200D02*
X98719852Y-106467819D01*
X98719852Y-106467819D02*
X98910328Y-106467819D01*
X98910328Y-106467819D02*
X99005566Y-106420200D01*
X99005566Y-106420200D02*
X99053185Y-106372580D01*
X99053185Y-106372580D02*
X99100804Y-106277342D01*
X99100804Y-106277342D02*
X99100804Y-106039247D01*
X99100804Y-106039247D02*
X99053185Y-105944009D01*
X99053185Y-105944009D02*
X99005566Y-105896390D01*
X99005566Y-105896390D02*
X98910328Y-105848771D01*
X98910328Y-105848771D02*
X98719852Y-105848771D01*
X98719852Y-105848771D02*
X98624614Y-105896390D01*
X98624614Y-105896390D02*
X98576995Y-105944009D01*
X98576995Y-105944009D02*
X98529376Y-106039247D01*
X89571895Y-105737819D02*
X89571895Y-106547342D01*
X89571895Y-106547342D02*
X89619514Y-106642580D01*
X89619514Y-106642580D02*
X89667133Y-106690200D01*
X89667133Y-106690200D02*
X89762371Y-106737819D01*
X89762371Y-106737819D02*
X89952847Y-106737819D01*
X89952847Y-106737819D02*
X90048085Y-106690200D01*
X90048085Y-106690200D02*
X90095704Y-106642580D01*
X90095704Y-106642580D02*
X90143323Y-106547342D01*
X90143323Y-106547342D02*
X90143323Y-105737819D01*
X90524276Y-105737819D02*
X91190942Y-105737819D01*
X91190942Y-105737819D02*
X90762371Y-106737819D01*
X108518442Y-138835819D02*
X108185109Y-138359628D01*
X107947014Y-138835819D02*
X107947014Y-137835819D01*
X107947014Y-137835819D02*
X108327966Y-137835819D01*
X108327966Y-137835819D02*
X108423204Y-137883438D01*
X108423204Y-137883438D02*
X108470823Y-137931057D01*
X108470823Y-137931057D02*
X108518442Y-138026295D01*
X108518442Y-138026295D02*
X108518442Y-138169152D01*
X108518442Y-138169152D02*
X108470823Y-138264390D01*
X108470823Y-138264390D02*
X108423204Y-138312009D01*
X108423204Y-138312009D02*
X108327966Y-138359628D01*
X108327966Y-138359628D02*
X107947014Y-138359628D01*
X109470823Y-138835819D02*
X108899395Y-138835819D01*
X109185109Y-138835819D02*
X109185109Y-137835819D01*
X109185109Y-137835819D02*
X109089871Y-137978676D01*
X109089871Y-137978676D02*
X108994633Y-138073914D01*
X108994633Y-138073914D02*
X108899395Y-138121533D01*
X110423204Y-138835819D02*
X109851776Y-138835819D01*
X110137490Y-138835819D02*
X110137490Y-137835819D01*
X110137490Y-137835819D02*
X110042252Y-137978676D01*
X110042252Y-137978676D02*
X109947014Y-138073914D01*
X109947014Y-138073914D02*
X109851776Y-138121533D01*
X133822453Y-57554725D02*
X133771873Y-56975666D01*
X133327581Y-57269011D02*
X133827581Y-56402986D01*
X133827581Y-56402986D02*
X134157496Y-56593462D01*
X134157496Y-56593462D02*
X134216165Y-56682320D01*
X134216165Y-56682320D02*
X134233594Y-56747369D01*
X134233594Y-56747369D02*
X134227215Y-56853657D01*
X134227215Y-56853657D02*
X134155786Y-56977375D01*
X134155786Y-56977375D02*
X134066928Y-57036044D01*
X134066928Y-57036044D02*
X134001879Y-57053474D01*
X134001879Y-57053474D02*
X133895591Y-57047094D01*
X133895591Y-57047094D02*
X133565676Y-56856618D01*
X135064760Y-57117271D02*
X134899803Y-57022033D01*
X134899803Y-57022033D02*
X134793515Y-57015653D01*
X134793515Y-57015653D02*
X134728466Y-57033083D01*
X134728466Y-57033083D02*
X134574559Y-57109182D01*
X134574559Y-57109182D02*
X134438082Y-57250330D01*
X134438082Y-57250330D02*
X134247605Y-57580244D01*
X134247605Y-57580244D02*
X134241226Y-57686532D01*
X134241226Y-57686532D02*
X134258655Y-57751581D01*
X134258655Y-57751581D02*
X134317324Y-57840440D01*
X134317324Y-57840440D02*
X134482282Y-57935678D01*
X134482282Y-57935678D02*
X134588570Y-57942057D01*
X134588570Y-57942057D02*
X134653619Y-57924628D01*
X134653619Y-57924628D02*
X134742477Y-57865959D01*
X134742477Y-57865959D02*
X134861525Y-57659762D01*
X134861525Y-57659762D02*
X134867904Y-57553474D01*
X134867904Y-57553474D02*
X134850475Y-57488425D01*
X134850475Y-57488425D02*
X134791806Y-57399567D01*
X134791806Y-57399567D02*
X134626848Y-57304329D01*
X134626848Y-57304329D02*
X134520560Y-57297949D01*
X134520560Y-57297949D02*
X134455511Y-57315379D01*
X134455511Y-57315379D02*
X134366653Y-57374048D01*
X147486398Y-70130872D02*
X147732124Y-69604101D01*
X147200683Y-69636000D02*
X148066709Y-69136000D01*
X148066709Y-69136000D02*
X148257185Y-69465915D01*
X148257185Y-69465915D02*
X148263565Y-69572203D01*
X148263565Y-69572203D02*
X148246135Y-69637252D01*
X148246135Y-69637252D02*
X148187466Y-69726110D01*
X148187466Y-69726110D02*
X148063748Y-69797539D01*
X148063748Y-69797539D02*
X147957460Y-69803918D01*
X147957460Y-69803918D02*
X147892411Y-69786488D01*
X147892411Y-69786488D02*
X147803553Y-69727819D01*
X147803553Y-69727819D02*
X147613076Y-69397905D01*
X148492319Y-70539846D02*
X147914969Y-70873179D01*
X148703186Y-70143173D02*
X147965549Y-70294120D01*
X147965549Y-70294120D02*
X148275073Y-70830231D01*
X114123333Y-51294819D02*
X113790000Y-50818628D01*
X113551905Y-51294819D02*
X113551905Y-50294819D01*
X113551905Y-50294819D02*
X113932857Y-50294819D01*
X113932857Y-50294819D02*
X114028095Y-50342438D01*
X114028095Y-50342438D02*
X114075714Y-50390057D01*
X114075714Y-50390057D02*
X114123333Y-50485295D01*
X114123333Y-50485295D02*
X114123333Y-50628152D01*
X114123333Y-50628152D02*
X114075714Y-50723390D01*
X114075714Y-50723390D02*
X114028095Y-50771009D01*
X114028095Y-50771009D02*
X113932857Y-50818628D01*
X113932857Y-50818628D02*
X113551905Y-50818628D01*
X115028095Y-50294819D02*
X114551905Y-50294819D01*
X114551905Y-50294819D02*
X114504286Y-50771009D01*
X114504286Y-50771009D02*
X114551905Y-50723390D01*
X114551905Y-50723390D02*
X114647143Y-50675771D01*
X114647143Y-50675771D02*
X114885238Y-50675771D01*
X114885238Y-50675771D02*
X114980476Y-50723390D01*
X114980476Y-50723390D02*
X115028095Y-50771009D01*
X115028095Y-50771009D02*
X115075714Y-50866247D01*
X115075714Y-50866247D02*
X115075714Y-51104342D01*
X115075714Y-51104342D02*
X115028095Y-51199580D01*
X115028095Y-51199580D02*
X114980476Y-51247200D01*
X114980476Y-51247200D02*
X114885238Y-51294819D01*
X114885238Y-51294819D02*
X114647143Y-51294819D01*
X114647143Y-51294819D02*
X114551905Y-51247200D01*
X114551905Y-51247200D02*
X114504286Y-51199580D01*
X133750466Y-73802819D02*
X133750466Y-74517104D01*
X133750466Y-74517104D02*
X133702847Y-74659961D01*
X133702847Y-74659961D02*
X133607609Y-74755200D01*
X133607609Y-74755200D02*
X133464752Y-74802819D01*
X133464752Y-74802819D02*
X133369514Y-74802819D01*
X134274276Y-74802819D02*
X134464752Y-74802819D01*
X134464752Y-74802819D02*
X134559990Y-74755200D01*
X134559990Y-74755200D02*
X134607609Y-74707580D01*
X134607609Y-74707580D02*
X134702847Y-74564723D01*
X134702847Y-74564723D02*
X134750466Y-74374247D01*
X134750466Y-74374247D02*
X134750466Y-73993295D01*
X134750466Y-73993295D02*
X134702847Y-73898057D01*
X134702847Y-73898057D02*
X134655228Y-73850438D01*
X134655228Y-73850438D02*
X134559990Y-73802819D01*
X134559990Y-73802819D02*
X134369514Y-73802819D01*
X134369514Y-73802819D02*
X134274276Y-73850438D01*
X134274276Y-73850438D02*
X134226657Y-73898057D01*
X134226657Y-73898057D02*
X134179038Y-73993295D01*
X134179038Y-73993295D02*
X134179038Y-74231390D01*
X134179038Y-74231390D02*
X134226657Y-74326628D01*
X134226657Y-74326628D02*
X134274276Y-74374247D01*
X134274276Y-74374247D02*
X134369514Y-74421866D01*
X134369514Y-74421866D02*
X134559990Y-74421866D01*
X134559990Y-74421866D02*
X134655228Y-74374247D01*
X134655228Y-74374247D02*
X134702847Y-74326628D01*
X134702847Y-74326628D02*
X134750466Y-74231390D01*
X77157167Y-119439167D02*
X77402893Y-118912397D01*
X76871453Y-118944296D02*
X77737478Y-118444296D01*
X77737478Y-118444296D02*
X77927954Y-118774210D01*
X77927954Y-118774210D02*
X77934334Y-118880498D01*
X77934334Y-118880498D02*
X77916904Y-118945547D01*
X77916904Y-118945547D02*
X77858235Y-119034405D01*
X77858235Y-119034405D02*
X77734517Y-119105834D01*
X77734517Y-119105834D02*
X77628229Y-119112214D01*
X77628229Y-119112214D02*
X77563180Y-119094784D01*
X77563180Y-119094784D02*
X77474322Y-119036115D01*
X77474322Y-119036115D02*
X77283846Y-118706200D01*
X78189859Y-119227843D02*
X78499383Y-119763953D01*
X78499383Y-119763953D02*
X78002802Y-119665755D01*
X78002802Y-119665755D02*
X78074230Y-119789472D01*
X78074230Y-119789472D02*
X78080610Y-119895761D01*
X78080610Y-119895761D02*
X78063180Y-119960809D01*
X78063180Y-119960809D02*
X78004511Y-120049668D01*
X78004511Y-120049668D02*
X77798315Y-120168715D01*
X77798315Y-120168715D02*
X77692027Y-120175095D01*
X77692027Y-120175095D02*
X77626978Y-120157665D01*
X77626978Y-120157665D02*
X77538119Y-120098996D01*
X77538119Y-120098996D02*
X77395262Y-119851560D01*
X77395262Y-119851560D02*
X77388883Y-119745272D01*
X77388883Y-119745272D02*
X77406312Y-119680223D01*
X78607381Y-120141487D02*
X78672429Y-120158917D01*
X78672429Y-120158917D02*
X78761288Y-120217586D01*
X78761288Y-120217586D02*
X78880335Y-120423782D01*
X78880335Y-120423782D02*
X78886715Y-120530071D01*
X78886715Y-120530071D02*
X78869285Y-120595119D01*
X78869285Y-120595119D02*
X78810616Y-120683978D01*
X78810616Y-120683978D02*
X78728138Y-120731597D01*
X78728138Y-120731597D02*
X78580610Y-120761786D01*
X78580610Y-120761786D02*
X77800024Y-120552629D01*
X77800024Y-120552629D02*
X78109548Y-121088740D01*
X76360467Y-95030200D02*
X76503324Y-95077819D01*
X76503324Y-95077819D02*
X76741419Y-95077819D01*
X76741419Y-95077819D02*
X76836657Y-95030200D01*
X76836657Y-95030200D02*
X76884276Y-94982580D01*
X76884276Y-94982580D02*
X76931895Y-94887342D01*
X76931895Y-94887342D02*
X76931895Y-94792104D01*
X76931895Y-94792104D02*
X76884276Y-94696866D01*
X76884276Y-94696866D02*
X76836657Y-94649247D01*
X76836657Y-94649247D02*
X76741419Y-94601628D01*
X76741419Y-94601628D02*
X76550943Y-94554009D01*
X76550943Y-94554009D02*
X76455705Y-94506390D01*
X76455705Y-94506390D02*
X76408086Y-94458771D01*
X76408086Y-94458771D02*
X76360467Y-94363533D01*
X76360467Y-94363533D02*
X76360467Y-94268295D01*
X76360467Y-94268295D02*
X76408086Y-94173057D01*
X76408086Y-94173057D02*
X76455705Y-94125438D01*
X76455705Y-94125438D02*
X76550943Y-94077819D01*
X76550943Y-94077819D02*
X76789038Y-94077819D01*
X76789038Y-94077819D02*
X76931895Y-94125438D01*
X77265229Y-94077819D02*
X77503324Y-95077819D01*
X77503324Y-95077819D02*
X77693800Y-94363533D01*
X77693800Y-94363533D02*
X77884276Y-95077819D01*
X77884276Y-95077819D02*
X78122372Y-94077819D01*
X78455705Y-94173057D02*
X78503324Y-94125438D01*
X78503324Y-94125438D02*
X78598562Y-94077819D01*
X78598562Y-94077819D02*
X78836657Y-94077819D01*
X78836657Y-94077819D02*
X78931895Y-94125438D01*
X78931895Y-94125438D02*
X78979514Y-94173057D01*
X78979514Y-94173057D02*
X79027133Y-94268295D01*
X79027133Y-94268295D02*
X79027133Y-94363533D01*
X79027133Y-94363533D02*
X78979514Y-94506390D01*
X78979514Y-94506390D02*
X78408086Y-95077819D01*
X78408086Y-95077819D02*
X79027133Y-95077819D01*
X73212142Y-102769580D02*
X73164523Y-102817200D01*
X73164523Y-102817200D02*
X73021666Y-102864819D01*
X73021666Y-102864819D02*
X72926428Y-102864819D01*
X72926428Y-102864819D02*
X72783571Y-102817200D01*
X72783571Y-102817200D02*
X72688333Y-102721961D01*
X72688333Y-102721961D02*
X72640714Y-102626723D01*
X72640714Y-102626723D02*
X72593095Y-102436247D01*
X72593095Y-102436247D02*
X72593095Y-102293390D01*
X72593095Y-102293390D02*
X72640714Y-102102914D01*
X72640714Y-102102914D02*
X72688333Y-102007676D01*
X72688333Y-102007676D02*
X72783571Y-101912438D01*
X72783571Y-101912438D02*
X72926428Y-101864819D01*
X72926428Y-101864819D02*
X73021666Y-101864819D01*
X73021666Y-101864819D02*
X73164523Y-101912438D01*
X73164523Y-101912438D02*
X73212142Y-101960057D01*
X74164523Y-102864819D02*
X73593095Y-102864819D01*
X73878809Y-102864819D02*
X73878809Y-101864819D01*
X73878809Y-101864819D02*
X73783571Y-102007676D01*
X73783571Y-102007676D02*
X73688333Y-102102914D01*
X73688333Y-102102914D02*
X73593095Y-102150533D01*
X75116904Y-102864819D02*
X74545476Y-102864819D01*
X74831190Y-102864819D02*
X74831190Y-101864819D01*
X74831190Y-101864819D02*
X74735952Y-102007676D01*
X74735952Y-102007676D02*
X74640714Y-102102914D01*
X74640714Y-102102914D02*
X74545476Y-102150533D01*
X95739580Y-112972857D02*
X95787200Y-113020476D01*
X95787200Y-113020476D02*
X95834819Y-113163333D01*
X95834819Y-113163333D02*
X95834819Y-113258571D01*
X95834819Y-113258571D02*
X95787200Y-113401428D01*
X95787200Y-113401428D02*
X95691961Y-113496666D01*
X95691961Y-113496666D02*
X95596723Y-113544285D01*
X95596723Y-113544285D02*
X95406247Y-113591904D01*
X95406247Y-113591904D02*
X95263390Y-113591904D01*
X95263390Y-113591904D02*
X95072914Y-113544285D01*
X95072914Y-113544285D02*
X94977676Y-113496666D01*
X94977676Y-113496666D02*
X94882438Y-113401428D01*
X94882438Y-113401428D02*
X94834819Y-113258571D01*
X94834819Y-113258571D02*
X94834819Y-113163333D01*
X94834819Y-113163333D02*
X94882438Y-113020476D01*
X94882438Y-113020476D02*
X94930057Y-112972857D01*
X94834819Y-112639523D02*
X94834819Y-112020476D01*
X94834819Y-112020476D02*
X95215771Y-112353809D01*
X95215771Y-112353809D02*
X95215771Y-112210952D01*
X95215771Y-112210952D02*
X95263390Y-112115714D01*
X95263390Y-112115714D02*
X95311009Y-112068095D01*
X95311009Y-112068095D02*
X95406247Y-112020476D01*
X95406247Y-112020476D02*
X95644342Y-112020476D01*
X95644342Y-112020476D02*
X95739580Y-112068095D01*
X95739580Y-112068095D02*
X95787200Y-112115714D01*
X95787200Y-112115714D02*
X95834819Y-112210952D01*
X95834819Y-112210952D02*
X95834819Y-112496666D01*
X95834819Y-112496666D02*
X95787200Y-112591904D01*
X95787200Y-112591904D02*
X95739580Y-112639523D01*
X94834819Y-111115714D02*
X94834819Y-111591904D01*
X94834819Y-111591904D02*
X95311009Y-111639523D01*
X95311009Y-111639523D02*
X95263390Y-111591904D01*
X95263390Y-111591904D02*
X95215771Y-111496666D01*
X95215771Y-111496666D02*
X95215771Y-111258571D01*
X95215771Y-111258571D02*
X95263390Y-111163333D01*
X95263390Y-111163333D02*
X95311009Y-111115714D01*
X95311009Y-111115714D02*
X95406247Y-111068095D01*
X95406247Y-111068095D02*
X95644342Y-111068095D01*
X95644342Y-111068095D02*
X95739580Y-111115714D01*
X95739580Y-111115714D02*
X95787200Y-111163333D01*
X95787200Y-111163333D02*
X95834819Y-111258571D01*
X95834819Y-111258571D02*
X95834819Y-111496666D01*
X95834819Y-111496666D02*
X95787200Y-111591904D01*
X95787200Y-111591904D02*
X95739580Y-111639523D01*
X88351878Y-59712697D02*
X87825108Y-59466971D01*
X87857007Y-59998411D02*
X87357007Y-59132386D01*
X87357007Y-59132386D02*
X87686921Y-58941910D01*
X87686921Y-58941910D02*
X87793209Y-58935530D01*
X87793209Y-58935530D02*
X87858258Y-58952960D01*
X87858258Y-58952960D02*
X87947116Y-59011629D01*
X87947116Y-59011629D02*
X88018545Y-59135347D01*
X88018545Y-59135347D02*
X88024925Y-59241635D01*
X88024925Y-59241635D02*
X88007495Y-59306684D01*
X88007495Y-59306684D02*
X87948826Y-59395542D01*
X87948826Y-59395542D02*
X87618911Y-59586018D01*
X88140554Y-58680005D02*
X88676664Y-58370481D01*
X88676664Y-58370481D02*
X88578466Y-58867062D01*
X88578466Y-58867062D02*
X88702183Y-58795634D01*
X88702183Y-58795634D02*
X88808472Y-58789254D01*
X88808472Y-58789254D02*
X88873520Y-58806684D01*
X88873520Y-58806684D02*
X88962379Y-58865353D01*
X88962379Y-58865353D02*
X89081426Y-59071549D01*
X89081426Y-59071549D02*
X89087806Y-59177837D01*
X89087806Y-59177837D02*
X89070376Y-59242886D01*
X89070376Y-59242886D02*
X89011707Y-59331745D01*
X89011707Y-59331745D02*
X88764271Y-59474602D01*
X88764271Y-59474602D02*
X88657983Y-59480981D01*
X88657983Y-59480981D02*
X88592934Y-59463552D01*
X89385822Y-58455920D02*
X89279534Y-58462300D01*
X89279534Y-58462300D02*
X89214485Y-58444870D01*
X89214485Y-58444870D02*
X89125627Y-58386201D01*
X89125627Y-58386201D02*
X89101817Y-58344962D01*
X89101817Y-58344962D02*
X89095437Y-58238674D01*
X89095437Y-58238674D02*
X89112867Y-58173625D01*
X89112867Y-58173625D02*
X89171536Y-58084767D01*
X89171536Y-58084767D02*
X89336493Y-57989529D01*
X89336493Y-57989529D02*
X89442782Y-57983149D01*
X89442782Y-57983149D02*
X89507830Y-58000579D01*
X89507830Y-58000579D02*
X89596689Y-58059248D01*
X89596689Y-58059248D02*
X89620498Y-58100487D01*
X89620498Y-58100487D02*
X89626878Y-58206775D01*
X89626878Y-58206775D02*
X89609448Y-58271824D01*
X89609448Y-58271824D02*
X89550779Y-58360682D01*
X89550779Y-58360682D02*
X89385822Y-58455920D01*
X89385822Y-58455920D02*
X89327153Y-58544779D01*
X89327153Y-58544779D02*
X89309723Y-58609828D01*
X89309723Y-58609828D02*
X89316103Y-58716116D01*
X89316103Y-58716116D02*
X89411341Y-58881073D01*
X89411341Y-58881073D02*
X89500199Y-58939742D01*
X89500199Y-58939742D02*
X89565248Y-58957172D01*
X89565248Y-58957172D02*
X89671536Y-58950792D01*
X89671536Y-58950792D02*
X89836493Y-58855554D01*
X89836493Y-58855554D02*
X89895162Y-58766696D01*
X89895162Y-58766696D02*
X89912592Y-58701647D01*
X89912592Y-58701647D02*
X89906213Y-58595359D01*
X89906213Y-58595359D02*
X89810974Y-58430402D01*
X89810974Y-58430402D02*
X89722116Y-58371732D01*
X89722116Y-58371732D02*
X89657067Y-58354303D01*
X89657067Y-58354303D02*
X89550779Y-58360682D01*
X69573719Y-97547757D02*
X69097528Y-97881090D01*
X69573719Y-98119185D02*
X68573719Y-98119185D01*
X68573719Y-98119185D02*
X68573719Y-97738233D01*
X68573719Y-97738233D02*
X68621338Y-97642995D01*
X68621338Y-97642995D02*
X68668957Y-97595376D01*
X68668957Y-97595376D02*
X68764195Y-97547757D01*
X68764195Y-97547757D02*
X68907052Y-97547757D01*
X68907052Y-97547757D02*
X69002290Y-97595376D01*
X69002290Y-97595376D02*
X69049909Y-97642995D01*
X69049909Y-97642995D02*
X69097528Y-97738233D01*
X69097528Y-97738233D02*
X69097528Y-98119185D01*
X68573719Y-97214423D02*
X68573719Y-96595376D01*
X68573719Y-96595376D02*
X68954671Y-96928709D01*
X68954671Y-96928709D02*
X68954671Y-96785852D01*
X68954671Y-96785852D02*
X69002290Y-96690614D01*
X69002290Y-96690614D02*
X69049909Y-96642995D01*
X69049909Y-96642995D02*
X69145147Y-96595376D01*
X69145147Y-96595376D02*
X69383242Y-96595376D01*
X69383242Y-96595376D02*
X69478480Y-96642995D01*
X69478480Y-96642995D02*
X69526100Y-96690614D01*
X69526100Y-96690614D02*
X69573719Y-96785852D01*
X69573719Y-96785852D02*
X69573719Y-97071566D01*
X69573719Y-97071566D02*
X69526100Y-97166804D01*
X69526100Y-97166804D02*
X69478480Y-97214423D01*
X68907052Y-95738233D02*
X69573719Y-95738233D01*
X68526100Y-95976328D02*
X69240385Y-96214423D01*
X69240385Y-96214423D02*
X69240385Y-95595376D01*
X133054276Y-88277819D02*
X133054276Y-88992104D01*
X133054276Y-88992104D02*
X133006657Y-89134961D01*
X133006657Y-89134961D02*
X132911419Y-89230200D01*
X132911419Y-89230200D02*
X132768562Y-89277819D01*
X132768562Y-89277819D02*
X132673324Y-89277819D01*
X134054276Y-89277819D02*
X133482848Y-89277819D01*
X133768562Y-89277819D02*
X133768562Y-88277819D01*
X133768562Y-88277819D02*
X133673324Y-88420676D01*
X133673324Y-88420676D02*
X133578086Y-88515914D01*
X133578086Y-88515914D02*
X133482848Y-88563533D01*
X135006657Y-89277819D02*
X134435229Y-89277819D01*
X134720943Y-89277819D02*
X134720943Y-88277819D01*
X134720943Y-88277819D02*
X134625705Y-88420676D01*
X134625705Y-88420676D02*
X134530467Y-88515914D01*
X134530467Y-88515914D02*
X134435229Y-88563533D01*
X136688607Y-131826809D02*
X136161837Y-131581083D01*
X136193736Y-132112523D02*
X135693736Y-131246498D01*
X135693736Y-131246498D02*
X136023650Y-131056022D01*
X136023650Y-131056022D02*
X136129938Y-131049642D01*
X136129938Y-131049642D02*
X136194987Y-131067072D01*
X136194987Y-131067072D02*
X136283845Y-131125741D01*
X136283845Y-131125741D02*
X136355274Y-131249459D01*
X136355274Y-131249459D02*
X136361654Y-131355747D01*
X136361654Y-131355747D02*
X136344224Y-131420796D01*
X136344224Y-131420796D02*
X136285555Y-131509654D01*
X136285555Y-131509654D02*
X135955640Y-131700130D01*
X136566141Y-130852786D02*
X136583571Y-130787737D01*
X136583571Y-130787737D02*
X136642240Y-130698879D01*
X136642240Y-130698879D02*
X136848436Y-130579831D01*
X136848436Y-130579831D02*
X136954724Y-130573451D01*
X136954724Y-130573451D02*
X137019773Y-130590881D01*
X137019773Y-130590881D02*
X137108632Y-130649550D01*
X137108632Y-130649550D02*
X137156251Y-130732029D01*
X137156251Y-130732029D02*
X137186440Y-130879556D01*
X137186440Y-130879556D02*
X136977283Y-131660142D01*
X136977283Y-131660142D02*
X137513393Y-131350618D01*
X137390927Y-130376595D02*
X137408357Y-130311547D01*
X137408357Y-130311547D02*
X137467026Y-130222688D01*
X137467026Y-130222688D02*
X137673222Y-130103641D01*
X137673222Y-130103641D02*
X137779511Y-130097261D01*
X137779511Y-130097261D02*
X137844559Y-130114691D01*
X137844559Y-130114691D02*
X137933418Y-130173360D01*
X137933418Y-130173360D02*
X137981037Y-130255838D01*
X137981037Y-130255838D02*
X138011226Y-130403366D01*
X138011226Y-130403366D02*
X137802069Y-131183952D01*
X137802069Y-131183952D02*
X138338180Y-130874428D01*
X134228333Y-115989580D02*
X134180714Y-116037200D01*
X134180714Y-116037200D02*
X134037857Y-116084819D01*
X134037857Y-116084819D02*
X133942619Y-116084819D01*
X133942619Y-116084819D02*
X133799762Y-116037200D01*
X133799762Y-116037200D02*
X133704524Y-115941961D01*
X133704524Y-115941961D02*
X133656905Y-115846723D01*
X133656905Y-115846723D02*
X133609286Y-115656247D01*
X133609286Y-115656247D02*
X133609286Y-115513390D01*
X133609286Y-115513390D02*
X133656905Y-115322914D01*
X133656905Y-115322914D02*
X133704524Y-115227676D01*
X133704524Y-115227676D02*
X133799762Y-115132438D01*
X133799762Y-115132438D02*
X133942619Y-115084819D01*
X133942619Y-115084819D02*
X134037857Y-115084819D01*
X134037857Y-115084819D02*
X134180714Y-115132438D01*
X134180714Y-115132438D02*
X134228333Y-115180057D01*
X134704524Y-116084819D02*
X134895000Y-116084819D01*
X134895000Y-116084819D02*
X134990238Y-116037200D01*
X134990238Y-116037200D02*
X135037857Y-115989580D01*
X135037857Y-115989580D02*
X135133095Y-115846723D01*
X135133095Y-115846723D02*
X135180714Y-115656247D01*
X135180714Y-115656247D02*
X135180714Y-115275295D01*
X135180714Y-115275295D02*
X135133095Y-115180057D01*
X135133095Y-115180057D02*
X135085476Y-115132438D01*
X135085476Y-115132438D02*
X134990238Y-115084819D01*
X134990238Y-115084819D02*
X134799762Y-115084819D01*
X134799762Y-115084819D02*
X134704524Y-115132438D01*
X134704524Y-115132438D02*
X134656905Y-115180057D01*
X134656905Y-115180057D02*
X134609286Y-115275295D01*
X134609286Y-115275295D02*
X134609286Y-115513390D01*
X134609286Y-115513390D02*
X134656905Y-115608628D01*
X134656905Y-115608628D02*
X134704524Y-115656247D01*
X134704524Y-115656247D02*
X134799762Y-115703866D01*
X134799762Y-115703866D02*
X134990238Y-115703866D01*
X134990238Y-115703866D02*
X135085476Y-115656247D01*
X135085476Y-115656247D02*
X135133095Y-115608628D01*
X135133095Y-115608628D02*
X135180714Y-115513390D01*
X100868719Y-146286333D02*
X101583004Y-146286333D01*
X101583004Y-146286333D02*
X101725861Y-146333952D01*
X101725861Y-146333952D02*
X101821100Y-146429190D01*
X101821100Y-146429190D02*
X101868719Y-146572047D01*
X101868719Y-146572047D02*
X101868719Y-146667285D01*
X100868719Y-145905380D02*
X100868719Y-145286333D01*
X100868719Y-145286333D02*
X101249671Y-145619666D01*
X101249671Y-145619666D02*
X101249671Y-145476809D01*
X101249671Y-145476809D02*
X101297290Y-145381571D01*
X101297290Y-145381571D02*
X101344909Y-145333952D01*
X101344909Y-145333952D02*
X101440147Y-145286333D01*
X101440147Y-145286333D02*
X101678242Y-145286333D01*
X101678242Y-145286333D02*
X101773480Y-145333952D01*
X101773480Y-145333952D02*
X101821100Y-145381571D01*
X101821100Y-145381571D02*
X101868719Y-145476809D01*
X101868719Y-145476809D02*
X101868719Y-145762523D01*
X101868719Y-145762523D02*
X101821100Y-145857761D01*
X101821100Y-145857761D02*
X101773480Y-145905380D01*
X155804719Y-92458957D02*
X155328528Y-92792290D01*
X155804719Y-93030385D02*
X154804719Y-93030385D01*
X154804719Y-93030385D02*
X154804719Y-92649433D01*
X154804719Y-92649433D02*
X154852338Y-92554195D01*
X154852338Y-92554195D02*
X154899957Y-92506576D01*
X154899957Y-92506576D02*
X154995195Y-92458957D01*
X154995195Y-92458957D02*
X155138052Y-92458957D01*
X155138052Y-92458957D02*
X155233290Y-92506576D01*
X155233290Y-92506576D02*
X155280909Y-92554195D01*
X155280909Y-92554195D02*
X155328528Y-92649433D01*
X155328528Y-92649433D02*
X155328528Y-93030385D01*
X155804719Y-91506576D02*
X155804719Y-92078004D01*
X155804719Y-91792290D02*
X154804719Y-91792290D01*
X154804719Y-91792290D02*
X154947576Y-91887528D01*
X154947576Y-91887528D02*
X155042814Y-91982766D01*
X155042814Y-91982766D02*
X155090433Y-92078004D01*
X155233290Y-90935147D02*
X155185671Y-91030385D01*
X155185671Y-91030385D02*
X155138052Y-91078004D01*
X155138052Y-91078004D02*
X155042814Y-91125623D01*
X155042814Y-91125623D02*
X154995195Y-91125623D01*
X154995195Y-91125623D02*
X154899957Y-91078004D01*
X154899957Y-91078004D02*
X154852338Y-91030385D01*
X154852338Y-91030385D02*
X154804719Y-90935147D01*
X154804719Y-90935147D02*
X154804719Y-90744671D01*
X154804719Y-90744671D02*
X154852338Y-90649433D01*
X154852338Y-90649433D02*
X154899957Y-90601814D01*
X154899957Y-90601814D02*
X154995195Y-90554195D01*
X154995195Y-90554195D02*
X155042814Y-90554195D01*
X155042814Y-90554195D02*
X155138052Y-90601814D01*
X155138052Y-90601814D02*
X155185671Y-90649433D01*
X155185671Y-90649433D02*
X155233290Y-90744671D01*
X155233290Y-90744671D02*
X155233290Y-90935147D01*
X155233290Y-90935147D02*
X155280909Y-91030385D01*
X155280909Y-91030385D02*
X155328528Y-91078004D01*
X155328528Y-91078004D02*
X155423766Y-91125623D01*
X155423766Y-91125623D02*
X155614242Y-91125623D01*
X155614242Y-91125623D02*
X155709480Y-91078004D01*
X155709480Y-91078004D02*
X155757100Y-91030385D01*
X155757100Y-91030385D02*
X155804719Y-90935147D01*
X155804719Y-90935147D02*
X155804719Y-90744671D01*
X155804719Y-90744671D02*
X155757100Y-90649433D01*
X155757100Y-90649433D02*
X155709480Y-90601814D01*
X155709480Y-90601814D02*
X155614242Y-90554195D01*
X155614242Y-90554195D02*
X155423766Y-90554195D01*
X155423766Y-90554195D02*
X155328528Y-90601814D01*
X155328528Y-90601814D02*
X155280909Y-90649433D01*
X155280909Y-90649433D02*
X155233290Y-90744671D01*
X68043719Y-92732757D02*
X67567528Y-93066090D01*
X68043719Y-93304185D02*
X67043719Y-93304185D01*
X67043719Y-93304185D02*
X67043719Y-92923233D01*
X67043719Y-92923233D02*
X67091338Y-92827995D01*
X67091338Y-92827995D02*
X67138957Y-92780376D01*
X67138957Y-92780376D02*
X67234195Y-92732757D01*
X67234195Y-92732757D02*
X67377052Y-92732757D01*
X67377052Y-92732757D02*
X67472290Y-92780376D01*
X67472290Y-92780376D02*
X67519909Y-92827995D01*
X67519909Y-92827995D02*
X67567528Y-92923233D01*
X67567528Y-92923233D02*
X67567528Y-93304185D01*
X68043719Y-91780376D02*
X68043719Y-92351804D01*
X68043719Y-92066090D02*
X67043719Y-92066090D01*
X67043719Y-92066090D02*
X67186576Y-92161328D01*
X67186576Y-92161328D02*
X67281814Y-92256566D01*
X67281814Y-92256566D02*
X67329433Y-92351804D01*
X67377052Y-90923233D02*
X68043719Y-90923233D01*
X66996100Y-91161328D02*
X67710385Y-91399423D01*
X67710385Y-91399423D02*
X67710385Y-90780376D01*
X145798202Y-70526778D02*
X146043928Y-70000008D01*
X145512488Y-70031907D02*
X146378513Y-69531907D01*
X146378513Y-69531907D02*
X146568989Y-69861821D01*
X146568989Y-69861821D02*
X146575369Y-69968109D01*
X146575369Y-69968109D02*
X146557939Y-70033158D01*
X146557939Y-70033158D02*
X146499270Y-70122016D01*
X146499270Y-70122016D02*
X146375552Y-70193445D01*
X146375552Y-70193445D02*
X146269264Y-70199825D01*
X146269264Y-70199825D02*
X146204215Y-70182395D01*
X146204215Y-70182395D02*
X146115357Y-70123726D01*
X146115357Y-70123726D02*
X145924881Y-69793811D01*
X146274393Y-71351564D02*
X145988678Y-70856693D01*
X146131535Y-71104129D02*
X146997561Y-70604129D01*
X146997561Y-70604129D02*
X146826224Y-70593079D01*
X146826224Y-70593079D02*
X146696126Y-70558219D01*
X146696126Y-70558219D02*
X146607268Y-70499550D01*
X147307085Y-71140240D02*
X147640418Y-71717590D01*
X147640418Y-71717590D02*
X146560107Y-71846436D01*
X118966666Y-55704819D02*
X118966666Y-56419104D01*
X118966666Y-56419104D02*
X118919047Y-56561961D01*
X118919047Y-56561961D02*
X118823809Y-56657200D01*
X118823809Y-56657200D02*
X118680952Y-56704819D01*
X118680952Y-56704819D02*
X118585714Y-56704819D01*
X119585714Y-56133390D02*
X119490476Y-56085771D01*
X119490476Y-56085771D02*
X119442857Y-56038152D01*
X119442857Y-56038152D02*
X119395238Y-55942914D01*
X119395238Y-55942914D02*
X119395238Y-55895295D01*
X119395238Y-55895295D02*
X119442857Y-55800057D01*
X119442857Y-55800057D02*
X119490476Y-55752438D01*
X119490476Y-55752438D02*
X119585714Y-55704819D01*
X119585714Y-55704819D02*
X119776190Y-55704819D01*
X119776190Y-55704819D02*
X119871428Y-55752438D01*
X119871428Y-55752438D02*
X119919047Y-55800057D01*
X119919047Y-55800057D02*
X119966666Y-55895295D01*
X119966666Y-55895295D02*
X119966666Y-55942914D01*
X119966666Y-55942914D02*
X119919047Y-56038152D01*
X119919047Y-56038152D02*
X119871428Y-56085771D01*
X119871428Y-56085771D02*
X119776190Y-56133390D01*
X119776190Y-56133390D02*
X119585714Y-56133390D01*
X119585714Y-56133390D02*
X119490476Y-56181009D01*
X119490476Y-56181009D02*
X119442857Y-56228628D01*
X119442857Y-56228628D02*
X119395238Y-56323866D01*
X119395238Y-56323866D02*
X119395238Y-56514342D01*
X119395238Y-56514342D02*
X119442857Y-56609580D01*
X119442857Y-56609580D02*
X119490476Y-56657200D01*
X119490476Y-56657200D02*
X119585714Y-56704819D01*
X119585714Y-56704819D02*
X119776190Y-56704819D01*
X119776190Y-56704819D02*
X119871428Y-56657200D01*
X119871428Y-56657200D02*
X119919047Y-56609580D01*
X119919047Y-56609580D02*
X119966666Y-56514342D01*
X119966666Y-56514342D02*
X119966666Y-56323866D01*
X119966666Y-56323866D02*
X119919047Y-56228628D01*
X119919047Y-56228628D02*
X119871428Y-56181009D01*
X119871428Y-56181009D02*
X119776190Y-56133390D01*
X108267142Y-51164819D02*
X107933809Y-50688628D01*
X107695714Y-51164819D02*
X107695714Y-50164819D01*
X107695714Y-50164819D02*
X108076666Y-50164819D01*
X108076666Y-50164819D02*
X108171904Y-50212438D01*
X108171904Y-50212438D02*
X108219523Y-50260057D01*
X108219523Y-50260057D02*
X108267142Y-50355295D01*
X108267142Y-50355295D02*
X108267142Y-50498152D01*
X108267142Y-50498152D02*
X108219523Y-50593390D01*
X108219523Y-50593390D02*
X108171904Y-50641009D01*
X108171904Y-50641009D02*
X108076666Y-50688628D01*
X108076666Y-50688628D02*
X107695714Y-50688628D01*
X108648095Y-50260057D02*
X108695714Y-50212438D01*
X108695714Y-50212438D02*
X108790952Y-50164819D01*
X108790952Y-50164819D02*
X109029047Y-50164819D01*
X109029047Y-50164819D02*
X109124285Y-50212438D01*
X109124285Y-50212438D02*
X109171904Y-50260057D01*
X109171904Y-50260057D02*
X109219523Y-50355295D01*
X109219523Y-50355295D02*
X109219523Y-50450533D01*
X109219523Y-50450533D02*
X109171904Y-50593390D01*
X109171904Y-50593390D02*
X108600476Y-51164819D01*
X108600476Y-51164819D02*
X109219523Y-51164819D01*
X110076666Y-50164819D02*
X109886190Y-50164819D01*
X109886190Y-50164819D02*
X109790952Y-50212438D01*
X109790952Y-50212438D02*
X109743333Y-50260057D01*
X109743333Y-50260057D02*
X109648095Y-50402914D01*
X109648095Y-50402914D02*
X109600476Y-50593390D01*
X109600476Y-50593390D02*
X109600476Y-50974342D01*
X109600476Y-50974342D02*
X109648095Y-51069580D01*
X109648095Y-51069580D02*
X109695714Y-51117200D01*
X109695714Y-51117200D02*
X109790952Y-51164819D01*
X109790952Y-51164819D02*
X109981428Y-51164819D01*
X109981428Y-51164819D02*
X110076666Y-51117200D01*
X110076666Y-51117200D02*
X110124285Y-51069580D01*
X110124285Y-51069580D02*
X110171904Y-50974342D01*
X110171904Y-50974342D02*
X110171904Y-50736247D01*
X110171904Y-50736247D02*
X110124285Y-50641009D01*
X110124285Y-50641009D02*
X110076666Y-50593390D01*
X110076666Y-50593390D02*
X109981428Y-50545771D01*
X109981428Y-50545771D02*
X109790952Y-50545771D01*
X109790952Y-50545771D02*
X109695714Y-50593390D01*
X109695714Y-50593390D02*
X109648095Y-50641009D01*
X109648095Y-50641009D02*
X109600476Y-50736247D01*
X119416666Y-106879819D02*
X119416666Y-107594104D01*
X119416666Y-107594104D02*
X119369047Y-107736961D01*
X119369047Y-107736961D02*
X119273809Y-107832200D01*
X119273809Y-107832200D02*
X119130952Y-107879819D01*
X119130952Y-107879819D02*
X119035714Y-107879819D01*
X120321428Y-106879819D02*
X120130952Y-106879819D01*
X120130952Y-106879819D02*
X120035714Y-106927438D01*
X120035714Y-106927438D02*
X119988095Y-106975057D01*
X119988095Y-106975057D02*
X119892857Y-107117914D01*
X119892857Y-107117914D02*
X119845238Y-107308390D01*
X119845238Y-107308390D02*
X119845238Y-107689342D01*
X119845238Y-107689342D02*
X119892857Y-107784580D01*
X119892857Y-107784580D02*
X119940476Y-107832200D01*
X119940476Y-107832200D02*
X120035714Y-107879819D01*
X120035714Y-107879819D02*
X120226190Y-107879819D01*
X120226190Y-107879819D02*
X120321428Y-107832200D01*
X120321428Y-107832200D02*
X120369047Y-107784580D01*
X120369047Y-107784580D02*
X120416666Y-107689342D01*
X120416666Y-107689342D02*
X120416666Y-107451247D01*
X120416666Y-107451247D02*
X120369047Y-107356009D01*
X120369047Y-107356009D02*
X120321428Y-107308390D01*
X120321428Y-107308390D02*
X120226190Y-107260771D01*
X120226190Y-107260771D02*
X120035714Y-107260771D01*
X120035714Y-107260771D02*
X119940476Y-107308390D01*
X119940476Y-107308390D02*
X119892857Y-107356009D01*
X119892857Y-107356009D02*
X119845238Y-107451247D01*
X151903372Y-113880540D02*
X151324312Y-113931120D01*
X151617657Y-114375411D02*
X150751632Y-113875411D01*
X150751632Y-113875411D02*
X150942108Y-113545497D01*
X150942108Y-113545497D02*
X151030967Y-113486828D01*
X151030967Y-113486828D02*
X151096015Y-113469398D01*
X151096015Y-113469398D02*
X151202304Y-113475778D01*
X151202304Y-113475778D02*
X151326021Y-113547206D01*
X151326021Y-113547206D02*
X151384691Y-113636065D01*
X151384691Y-113636065D02*
X151402120Y-113701114D01*
X151402120Y-113701114D02*
X151395741Y-113807402D01*
X151395741Y-113807402D02*
X151205264Y-114137316D01*
X151310301Y-113098244D02*
X151292871Y-113033195D01*
X151292871Y-113033195D02*
X151299251Y-112926907D01*
X151299251Y-112926907D02*
X151418299Y-112720711D01*
X151418299Y-112720711D02*
X151507157Y-112662042D01*
X151507157Y-112662042D02*
X151572206Y-112644612D01*
X151572206Y-112644612D02*
X151678494Y-112650992D01*
X151678494Y-112650992D02*
X151760973Y-112698611D01*
X151760973Y-112698611D02*
X151860881Y-112811279D01*
X151860881Y-112811279D02*
X152070038Y-113591865D01*
X152070038Y-113591865D02*
X152379562Y-113055754D01*
X151823061Y-112019643D02*
X151870680Y-111937164D01*
X151870680Y-111937164D02*
X151959538Y-111878495D01*
X151959538Y-111878495D02*
X152024587Y-111861065D01*
X152024587Y-111861065D02*
X152130875Y-111867445D01*
X152130875Y-111867445D02*
X152319642Y-111921444D01*
X152319642Y-111921444D02*
X152525838Y-112040491D01*
X152525838Y-112040491D02*
X152666986Y-112176969D01*
X152666986Y-112176969D02*
X152725655Y-112265827D01*
X152725655Y-112265827D02*
X152743085Y-112330876D01*
X152743085Y-112330876D02*
X152736705Y-112437164D01*
X152736705Y-112437164D02*
X152689086Y-112519643D01*
X152689086Y-112519643D02*
X152600228Y-112578312D01*
X152600228Y-112578312D02*
X152535179Y-112595741D01*
X152535179Y-112595741D02*
X152428891Y-112589362D01*
X152428891Y-112589362D02*
X152240124Y-112535363D01*
X152240124Y-112535363D02*
X152033927Y-112416315D01*
X152033927Y-112416315D02*
X151892780Y-112279838D01*
X151892780Y-112279838D02*
X151834111Y-112190980D01*
X151834111Y-112190980D02*
X151816681Y-112125931D01*
X151816681Y-112125931D02*
X151823061Y-112019643D01*
X75695170Y-120346778D02*
X75940896Y-119820008D01*
X75409456Y-119851907D02*
X76275481Y-119351907D01*
X76275481Y-119351907D02*
X76465957Y-119681821D01*
X76465957Y-119681821D02*
X76472337Y-119788109D01*
X76472337Y-119788109D02*
X76454907Y-119853158D01*
X76454907Y-119853158D02*
X76396238Y-119942016D01*
X76396238Y-119942016D02*
X76272520Y-120013445D01*
X76272520Y-120013445D02*
X76166232Y-120019825D01*
X76166232Y-120019825D02*
X76101183Y-120002395D01*
X76101183Y-120002395D02*
X76012325Y-119943726D01*
X76012325Y-119943726D02*
X75821849Y-119613811D01*
X76727862Y-120135454D02*
X77037386Y-120671564D01*
X77037386Y-120671564D02*
X76540805Y-120573366D01*
X76540805Y-120573366D02*
X76612233Y-120697083D01*
X76612233Y-120697083D02*
X76618613Y-120803372D01*
X76618613Y-120803372D02*
X76601183Y-120868420D01*
X76601183Y-120868420D02*
X76542514Y-120957279D01*
X76542514Y-120957279D02*
X76336318Y-121076326D01*
X76336318Y-121076326D02*
X76230030Y-121082706D01*
X76230030Y-121082706D02*
X76164981Y-121065276D01*
X76164981Y-121065276D02*
X76076122Y-121006607D01*
X76076122Y-121006607D02*
X75933265Y-120759171D01*
X75933265Y-120759171D02*
X75926886Y-120652883D01*
X75926886Y-120652883D02*
X75944315Y-120587834D01*
X76647551Y-121996351D02*
X76361837Y-121501479D01*
X76504694Y-121748915D02*
X77370719Y-121248915D01*
X77370719Y-121248915D02*
X77199382Y-121237865D01*
X77199382Y-121237865D02*
X77069285Y-121203005D01*
X77069285Y-121203005D02*
X76980426Y-121144336D01*
X87531878Y-58292497D02*
X87005108Y-58046771D01*
X87037007Y-58578211D02*
X86537007Y-57712186D01*
X86537007Y-57712186D02*
X86866921Y-57521710D01*
X86866921Y-57521710D02*
X86973209Y-57515330D01*
X86973209Y-57515330D02*
X87038258Y-57532760D01*
X87038258Y-57532760D02*
X87127116Y-57591429D01*
X87127116Y-57591429D02*
X87198545Y-57715147D01*
X87198545Y-57715147D02*
X87204925Y-57821435D01*
X87204925Y-57821435D02*
X87187495Y-57886484D01*
X87187495Y-57886484D02*
X87128826Y-57975342D01*
X87128826Y-57975342D02*
X86798911Y-58165818D01*
X87320554Y-57259805D02*
X87856664Y-56950281D01*
X87856664Y-56950281D02*
X87758466Y-57446862D01*
X87758466Y-57446862D02*
X87882183Y-57375434D01*
X87882183Y-57375434D02*
X87988472Y-57369054D01*
X87988472Y-57369054D02*
X88053520Y-57386484D01*
X88053520Y-57386484D02*
X88142379Y-57445153D01*
X88142379Y-57445153D02*
X88261426Y-57651349D01*
X88261426Y-57651349D02*
X88267806Y-57757637D01*
X88267806Y-57757637D02*
X88250376Y-57822686D01*
X88250376Y-57822686D02*
X88191707Y-57911545D01*
X88191707Y-57911545D02*
X87944271Y-58054402D01*
X87944271Y-58054402D02*
X87837983Y-58060781D01*
X87837983Y-58060781D02*
X87772934Y-58043352D01*
X88145340Y-56783614D02*
X88722690Y-56450281D01*
X88722690Y-56450281D02*
X88851536Y-57530592D01*
X94290859Y-132870872D02*
X94240279Y-132291812D01*
X93795988Y-132585157D02*
X94295988Y-131719132D01*
X94295988Y-131719132D02*
X94625902Y-131909608D01*
X94625902Y-131909608D02*
X94684571Y-131998467D01*
X94684571Y-131998467D02*
X94702001Y-132063515D01*
X94702001Y-132063515D02*
X94695621Y-132169804D01*
X94695621Y-132169804D02*
X94624193Y-132293521D01*
X94624193Y-132293521D02*
X94535334Y-132352191D01*
X94535334Y-132352191D02*
X94470285Y-132369620D01*
X94470285Y-132369620D02*
X94363997Y-132363241D01*
X94363997Y-132363241D02*
X94034083Y-132172764D01*
X95079534Y-132171513D02*
X95615645Y-132481037D01*
X95615645Y-132481037D02*
X95136494Y-132644285D01*
X95136494Y-132644285D02*
X95260212Y-132715713D01*
X95260212Y-132715713D02*
X95318881Y-132804572D01*
X95318881Y-132804572D02*
X95336311Y-132869620D01*
X95336311Y-132869620D02*
X95329931Y-132975908D01*
X95329931Y-132975908D02*
X95210884Y-133182105D01*
X95210884Y-133182105D02*
X95122025Y-133240774D01*
X95122025Y-133240774D02*
X95056976Y-133258204D01*
X95056976Y-133258204D02*
X94950688Y-133251824D01*
X94950688Y-133251824D02*
X94703252Y-133108967D01*
X94703252Y-133108967D02*
X94644583Y-133020109D01*
X94644583Y-133020109D02*
X94627154Y-132955060D01*
X96151756Y-132790561D02*
X96234235Y-132838180D01*
X96234235Y-132838180D02*
X96292904Y-132927038D01*
X96292904Y-132927038D02*
X96310334Y-132992087D01*
X96310334Y-132992087D02*
X96303954Y-133098375D01*
X96303954Y-133098375D02*
X96249955Y-133287142D01*
X96249955Y-133287142D02*
X96130908Y-133493338D01*
X96130908Y-133493338D02*
X95994430Y-133634486D01*
X95994430Y-133634486D02*
X95905572Y-133693155D01*
X95905572Y-133693155D02*
X95840523Y-133710585D01*
X95840523Y-133710585D02*
X95734235Y-133704205D01*
X95734235Y-133704205D02*
X95651756Y-133656586D01*
X95651756Y-133656586D02*
X95593087Y-133567728D01*
X95593087Y-133567728D02*
X95575658Y-133502679D01*
X95575658Y-133502679D02*
X95582037Y-133396391D01*
X95582037Y-133396391D02*
X95636036Y-133207624D01*
X95636036Y-133207624D02*
X95755084Y-133001427D01*
X95755084Y-133001427D02*
X95891561Y-132860280D01*
X95891561Y-132860280D02*
X95980419Y-132801611D01*
X95980419Y-132801611D02*
X96045468Y-132784181D01*
X96045468Y-132784181D02*
X96151756Y-132790561D01*
X132081895Y-99447819D02*
X132081895Y-100257342D01*
X132081895Y-100257342D02*
X132129514Y-100352580D01*
X132129514Y-100352580D02*
X132177133Y-100400200D01*
X132177133Y-100400200D02*
X132272371Y-100447819D01*
X132272371Y-100447819D02*
X132462847Y-100447819D01*
X132462847Y-100447819D02*
X132558085Y-100400200D01*
X132558085Y-100400200D02*
X132605704Y-100352580D01*
X132605704Y-100352580D02*
X132653323Y-100257342D01*
X132653323Y-100257342D02*
X132653323Y-99447819D01*
X133034276Y-99447819D02*
X133653323Y-99447819D01*
X133653323Y-99447819D02*
X133319990Y-99828771D01*
X133319990Y-99828771D02*
X133462847Y-99828771D01*
X133462847Y-99828771D02*
X133558085Y-99876390D01*
X133558085Y-99876390D02*
X133605704Y-99924009D01*
X133605704Y-99924009D02*
X133653323Y-100019247D01*
X133653323Y-100019247D02*
X133653323Y-100257342D01*
X133653323Y-100257342D02*
X133605704Y-100352580D01*
X133605704Y-100352580D02*
X133558085Y-100400200D01*
X133558085Y-100400200D02*
X133462847Y-100447819D01*
X133462847Y-100447819D02*
X133177133Y-100447819D01*
X133177133Y-100447819D02*
X133081895Y-100400200D01*
X133081895Y-100400200D02*
X133034276Y-100352580D01*
X154204719Y-92458957D02*
X153728528Y-92792290D01*
X154204719Y-93030385D02*
X153204719Y-93030385D01*
X153204719Y-93030385D02*
X153204719Y-92649433D01*
X153204719Y-92649433D02*
X153252338Y-92554195D01*
X153252338Y-92554195D02*
X153299957Y-92506576D01*
X153299957Y-92506576D02*
X153395195Y-92458957D01*
X153395195Y-92458957D02*
X153538052Y-92458957D01*
X153538052Y-92458957D02*
X153633290Y-92506576D01*
X153633290Y-92506576D02*
X153680909Y-92554195D01*
X153680909Y-92554195D02*
X153728528Y-92649433D01*
X153728528Y-92649433D02*
X153728528Y-93030385D01*
X154204719Y-91506576D02*
X154204719Y-92078004D01*
X154204719Y-91792290D02*
X153204719Y-91792290D01*
X153204719Y-91792290D02*
X153347576Y-91887528D01*
X153347576Y-91887528D02*
X153442814Y-91982766D01*
X153442814Y-91982766D02*
X153490433Y-92078004D01*
X154204719Y-91030385D02*
X154204719Y-90839909D01*
X154204719Y-90839909D02*
X154157100Y-90744671D01*
X154157100Y-90744671D02*
X154109480Y-90697052D01*
X154109480Y-90697052D02*
X153966623Y-90601814D01*
X153966623Y-90601814D02*
X153776147Y-90554195D01*
X153776147Y-90554195D02*
X153395195Y-90554195D01*
X153395195Y-90554195D02*
X153299957Y-90601814D01*
X153299957Y-90601814D02*
X153252338Y-90649433D01*
X153252338Y-90649433D02*
X153204719Y-90744671D01*
X153204719Y-90744671D02*
X153204719Y-90935147D01*
X153204719Y-90935147D02*
X153252338Y-91030385D01*
X153252338Y-91030385D02*
X153299957Y-91078004D01*
X153299957Y-91078004D02*
X153395195Y-91125623D01*
X153395195Y-91125623D02*
X153633290Y-91125623D01*
X153633290Y-91125623D02*
X153728528Y-91078004D01*
X153728528Y-91078004D02*
X153776147Y-91030385D01*
X153776147Y-91030385D02*
X153823766Y-90935147D01*
X153823766Y-90935147D02*
X153823766Y-90744671D01*
X153823766Y-90744671D02*
X153776147Y-90649433D01*
X153776147Y-90649433D02*
X153728528Y-90601814D01*
X153728528Y-90601814D02*
X153633290Y-90554195D01*
D12*
X97555270Y-112075714D02*
X97494794Y-112196666D01*
X97494794Y-112196666D02*
X97373842Y-112317619D01*
X97373842Y-112317619D02*
X97192413Y-112499047D01*
X97192413Y-112499047D02*
X97131937Y-112620000D01*
X97131937Y-112620000D02*
X97131937Y-112740952D01*
X97434318Y-112680476D02*
X97373842Y-112801428D01*
X97373842Y-112801428D02*
X97252889Y-112922381D01*
X97252889Y-112922381D02*
X97010984Y-112982857D01*
X97010984Y-112982857D02*
X96587651Y-112982857D01*
X96587651Y-112982857D02*
X96345746Y-112922381D01*
X96345746Y-112922381D02*
X96224794Y-112801428D01*
X96224794Y-112801428D02*
X96164318Y-112680476D01*
X96164318Y-112680476D02*
X96164318Y-112438571D01*
X96164318Y-112438571D02*
X96224794Y-112317619D01*
X96224794Y-112317619D02*
X96345746Y-112196666D01*
X96345746Y-112196666D02*
X96587651Y-112136190D01*
X96587651Y-112136190D02*
X97010984Y-112136190D01*
X97010984Y-112136190D02*
X97252889Y-112196666D01*
X97252889Y-112196666D02*
X97373842Y-112317619D01*
X97373842Y-112317619D02*
X97434318Y-112438571D01*
X97434318Y-112438571D02*
X97434318Y-112680476D01*
X97434318Y-110926666D02*
X97434318Y-111652381D01*
X97434318Y-111289524D02*
X96164318Y-111289524D01*
X96164318Y-111289524D02*
X96345746Y-111410476D01*
X96345746Y-111410476D02*
X96466699Y-111531428D01*
X96466699Y-111531428D02*
X96527175Y-111652381D01*
X96164318Y-110503333D02*
X96164318Y-109717142D01*
X96164318Y-109717142D02*
X96648127Y-110140476D01*
X96648127Y-110140476D02*
X96648127Y-109959047D01*
X96648127Y-109959047D02*
X96708603Y-109838095D01*
X96708603Y-109838095D02*
X96769080Y-109777619D01*
X96769080Y-109777619D02*
X96890032Y-109717142D01*
X96890032Y-109717142D02*
X97192413Y-109717142D01*
X97192413Y-109717142D02*
X97313365Y-109777619D01*
X97313365Y-109777619D02*
X97373842Y-109838095D01*
X97373842Y-109838095D02*
X97434318Y-109959047D01*
X97434318Y-109959047D02*
X97434318Y-110321904D01*
X97434318Y-110321904D02*
X97373842Y-110442857D01*
X97373842Y-110442857D02*
X97313365Y-110503333D01*
X102105270Y-112075714D02*
X102044794Y-112196666D01*
X102044794Y-112196666D02*
X101923842Y-112317619D01*
X101923842Y-112317619D02*
X101742413Y-112499047D01*
X101742413Y-112499047D02*
X101681937Y-112620000D01*
X101681937Y-112620000D02*
X101681937Y-112740952D01*
X101984318Y-112680476D02*
X101923842Y-112801428D01*
X101923842Y-112801428D02*
X101802889Y-112922381D01*
X101802889Y-112922381D02*
X101560984Y-112982857D01*
X101560984Y-112982857D02*
X101137651Y-112982857D01*
X101137651Y-112982857D02*
X100895746Y-112922381D01*
X100895746Y-112922381D02*
X100774794Y-112801428D01*
X100774794Y-112801428D02*
X100714318Y-112680476D01*
X100714318Y-112680476D02*
X100714318Y-112438571D01*
X100714318Y-112438571D02*
X100774794Y-112317619D01*
X100774794Y-112317619D02*
X100895746Y-112196666D01*
X100895746Y-112196666D02*
X101137651Y-112136190D01*
X101137651Y-112136190D02*
X101560984Y-112136190D01*
X101560984Y-112136190D02*
X101802889Y-112196666D01*
X101802889Y-112196666D02*
X101923842Y-112317619D01*
X101923842Y-112317619D02*
X101984318Y-112438571D01*
X101984318Y-112438571D02*
X101984318Y-112680476D01*
X101984318Y-110926666D02*
X101984318Y-111652381D01*
X101984318Y-111289524D02*
X100714318Y-111289524D01*
X100714318Y-111289524D02*
X100895746Y-111410476D01*
X100895746Y-111410476D02*
X101016699Y-111531428D01*
X101016699Y-111531428D02*
X101077175Y-111652381D01*
X101137651Y-109838095D02*
X101984318Y-109838095D01*
X100653842Y-110140476D02*
X101560984Y-110442857D01*
X101560984Y-110442857D02*
X101560984Y-109656666D01*
D11*
X128832353Y-54927735D02*
X128781773Y-54348676D01*
X128337481Y-54642021D02*
X128837481Y-53775996D01*
X128837481Y-53775996D02*
X129167396Y-53966472D01*
X129167396Y-53966472D02*
X129226065Y-54055330D01*
X129226065Y-54055330D02*
X129243494Y-54120379D01*
X129243494Y-54120379D02*
X129237115Y-54226667D01*
X129237115Y-54226667D02*
X129165686Y-54350385D01*
X129165686Y-54350385D02*
X129076828Y-54409054D01*
X129076828Y-54409054D02*
X129011779Y-54426484D01*
X129011779Y-54426484D02*
X128905491Y-54420104D01*
X128905491Y-54420104D02*
X128575576Y-54229628D01*
X129657139Y-55403926D02*
X129162267Y-55118211D01*
X129409703Y-55261069D02*
X129909703Y-54395043D01*
X129909703Y-54395043D02*
X129755796Y-54471142D01*
X129755796Y-54471142D02*
X129625698Y-54506002D01*
X129625698Y-54506002D02*
X129519410Y-54499622D01*
X82368933Y-110289580D02*
X82321314Y-110337200D01*
X82321314Y-110337200D02*
X82178457Y-110384819D01*
X82178457Y-110384819D02*
X82083219Y-110384819D01*
X82083219Y-110384819D02*
X81940362Y-110337200D01*
X81940362Y-110337200D02*
X81845124Y-110241961D01*
X81845124Y-110241961D02*
X81797505Y-110146723D01*
X81797505Y-110146723D02*
X81749886Y-109956247D01*
X81749886Y-109956247D02*
X81749886Y-109813390D01*
X81749886Y-109813390D02*
X81797505Y-109622914D01*
X81797505Y-109622914D02*
X81845124Y-109527676D01*
X81845124Y-109527676D02*
X81940362Y-109432438D01*
X81940362Y-109432438D02*
X82083219Y-109384819D01*
X82083219Y-109384819D02*
X82178457Y-109384819D01*
X82178457Y-109384819D02*
X82321314Y-109432438D01*
X82321314Y-109432438D02*
X82368933Y-109480057D01*
X83368933Y-110384819D02*
X83035600Y-109908628D01*
X82797505Y-110384819D02*
X82797505Y-109384819D01*
X82797505Y-109384819D02*
X83178457Y-109384819D01*
X83178457Y-109384819D02*
X83273695Y-109432438D01*
X83273695Y-109432438D02*
X83321314Y-109480057D01*
X83321314Y-109480057D02*
X83368933Y-109575295D01*
X83368933Y-109575295D02*
X83368933Y-109718152D01*
X83368933Y-109718152D02*
X83321314Y-109813390D01*
X83321314Y-109813390D02*
X83273695Y-109861009D01*
X83273695Y-109861009D02*
X83178457Y-109908628D01*
X83178457Y-109908628D02*
X82797505Y-109908628D01*
X83749886Y-109480057D02*
X83797505Y-109432438D01*
X83797505Y-109432438D02*
X83892743Y-109384819D01*
X83892743Y-109384819D02*
X84130838Y-109384819D01*
X84130838Y-109384819D02*
X84226076Y-109432438D01*
X84226076Y-109432438D02*
X84273695Y-109480057D01*
X84273695Y-109480057D02*
X84321314Y-109575295D01*
X84321314Y-109575295D02*
X84321314Y-109670533D01*
X84321314Y-109670533D02*
X84273695Y-109813390D01*
X84273695Y-109813390D02*
X83702267Y-110384819D01*
X83702267Y-110384819D02*
X84321314Y-110384819D01*
X93330859Y-134570872D02*
X93280279Y-133991812D01*
X92835988Y-134285157D02*
X93335988Y-133419132D01*
X93335988Y-133419132D02*
X93665902Y-133609608D01*
X93665902Y-133609608D02*
X93724571Y-133698467D01*
X93724571Y-133698467D02*
X93742001Y-133763515D01*
X93742001Y-133763515D02*
X93735621Y-133869804D01*
X93735621Y-133869804D02*
X93664193Y-133993521D01*
X93664193Y-133993521D02*
X93575334Y-134052191D01*
X93575334Y-134052191D02*
X93510285Y-134069620D01*
X93510285Y-134069620D02*
X93403997Y-134063241D01*
X93403997Y-134063241D02*
X93074083Y-133872764D01*
X94113155Y-133977801D02*
X94178204Y-133960371D01*
X94178204Y-133960371D02*
X94284492Y-133966751D01*
X94284492Y-133966751D02*
X94490688Y-134085799D01*
X94490688Y-134085799D02*
X94549357Y-134174657D01*
X94549357Y-134174657D02*
X94566787Y-134239706D01*
X94566787Y-134239706D02*
X94560407Y-134345994D01*
X94560407Y-134345994D02*
X94512788Y-134428473D01*
X94512788Y-134428473D02*
X94400120Y-134528381D01*
X94400120Y-134528381D02*
X93619534Y-134737538D01*
X93619534Y-134737538D02*
X94155645Y-135047062D01*
X94936231Y-134837905D02*
X94877562Y-134749047D01*
X94877562Y-134749047D02*
X94860133Y-134683998D01*
X94860133Y-134683998D02*
X94866512Y-134577710D01*
X94866512Y-134577710D02*
X94890322Y-134536470D01*
X94890322Y-134536470D02*
X94979180Y-134477801D01*
X94979180Y-134477801D02*
X95044229Y-134460371D01*
X95044229Y-134460371D02*
X95150517Y-134466751D01*
X95150517Y-134466751D02*
X95315474Y-134561989D01*
X95315474Y-134561989D02*
X95374143Y-134650848D01*
X95374143Y-134650848D02*
X95391573Y-134715896D01*
X95391573Y-134715896D02*
X95385193Y-134822185D01*
X95385193Y-134822185D02*
X95361384Y-134863424D01*
X95361384Y-134863424D02*
X95272526Y-134922093D01*
X95272526Y-134922093D02*
X95207477Y-134939523D01*
X95207477Y-134939523D02*
X95101189Y-134933143D01*
X95101189Y-134933143D02*
X94936231Y-134837905D01*
X94936231Y-134837905D02*
X94829943Y-134831525D01*
X94829943Y-134831525D02*
X94764894Y-134848955D01*
X94764894Y-134848955D02*
X94676036Y-134907624D01*
X94676036Y-134907624D02*
X94580798Y-135072581D01*
X94580798Y-135072581D02*
X94574418Y-135178869D01*
X94574418Y-135178869D02*
X94591848Y-135243918D01*
X94591848Y-135243918D02*
X94650517Y-135332777D01*
X94650517Y-135332777D02*
X94815474Y-135428015D01*
X94815474Y-135428015D02*
X94921762Y-135434394D01*
X94921762Y-135434394D02*
X94986811Y-135416965D01*
X94986811Y-135416965D02*
X95075670Y-135358296D01*
X95075670Y-135358296D02*
X95170908Y-135193338D01*
X95170908Y-135193338D02*
X95177287Y-135087050D01*
X95177287Y-135087050D02*
X95159858Y-135022001D01*
X95159858Y-135022001D02*
X95101189Y-134933143D01*
X93332142Y-100484819D02*
X92998809Y-100008628D01*
X92760714Y-100484819D02*
X92760714Y-99484819D01*
X92760714Y-99484819D02*
X93141666Y-99484819D01*
X93141666Y-99484819D02*
X93236904Y-99532438D01*
X93236904Y-99532438D02*
X93284523Y-99580057D01*
X93284523Y-99580057D02*
X93332142Y-99675295D01*
X93332142Y-99675295D02*
X93332142Y-99818152D01*
X93332142Y-99818152D02*
X93284523Y-99913390D01*
X93284523Y-99913390D02*
X93236904Y-99961009D01*
X93236904Y-99961009D02*
X93141666Y-100008628D01*
X93141666Y-100008628D02*
X92760714Y-100008628D01*
X94189285Y-99818152D02*
X94189285Y-100484819D01*
X93951190Y-99437200D02*
X93713095Y-100151485D01*
X93713095Y-100151485D02*
X94332142Y-100151485D01*
X94617857Y-99484819D02*
X95236904Y-99484819D01*
X95236904Y-99484819D02*
X94903571Y-99865771D01*
X94903571Y-99865771D02*
X95046428Y-99865771D01*
X95046428Y-99865771D02*
X95141666Y-99913390D01*
X95141666Y-99913390D02*
X95189285Y-99961009D01*
X95189285Y-99961009D02*
X95236904Y-100056247D01*
X95236904Y-100056247D02*
X95236904Y-100294342D01*
X95236904Y-100294342D02*
X95189285Y-100389580D01*
X95189285Y-100389580D02*
X95141666Y-100437200D01*
X95141666Y-100437200D02*
X95046428Y-100484819D01*
X95046428Y-100484819D02*
X94760714Y-100484819D01*
X94760714Y-100484819D02*
X94665476Y-100437200D01*
X94665476Y-100437200D02*
X94617857Y-100389580D01*
X84697142Y-100434819D02*
X84363809Y-99958628D01*
X84125714Y-100434819D02*
X84125714Y-99434819D01*
X84125714Y-99434819D02*
X84506666Y-99434819D01*
X84506666Y-99434819D02*
X84601904Y-99482438D01*
X84601904Y-99482438D02*
X84649523Y-99530057D01*
X84649523Y-99530057D02*
X84697142Y-99625295D01*
X84697142Y-99625295D02*
X84697142Y-99768152D01*
X84697142Y-99768152D02*
X84649523Y-99863390D01*
X84649523Y-99863390D02*
X84601904Y-99911009D01*
X84601904Y-99911009D02*
X84506666Y-99958628D01*
X84506666Y-99958628D02*
X84125714Y-99958628D01*
X85078095Y-99530057D02*
X85125714Y-99482438D01*
X85125714Y-99482438D02*
X85220952Y-99434819D01*
X85220952Y-99434819D02*
X85459047Y-99434819D01*
X85459047Y-99434819D02*
X85554285Y-99482438D01*
X85554285Y-99482438D02*
X85601904Y-99530057D01*
X85601904Y-99530057D02*
X85649523Y-99625295D01*
X85649523Y-99625295D02*
X85649523Y-99720533D01*
X85649523Y-99720533D02*
X85601904Y-99863390D01*
X85601904Y-99863390D02*
X85030476Y-100434819D01*
X85030476Y-100434819D02*
X85649523Y-100434819D01*
X86125714Y-100434819D02*
X86316190Y-100434819D01*
X86316190Y-100434819D02*
X86411428Y-100387200D01*
X86411428Y-100387200D02*
X86459047Y-100339580D01*
X86459047Y-100339580D02*
X86554285Y-100196723D01*
X86554285Y-100196723D02*
X86601904Y-100006247D01*
X86601904Y-100006247D02*
X86601904Y-99625295D01*
X86601904Y-99625295D02*
X86554285Y-99530057D01*
X86554285Y-99530057D02*
X86506666Y-99482438D01*
X86506666Y-99482438D02*
X86411428Y-99434819D01*
X86411428Y-99434819D02*
X86220952Y-99434819D01*
X86220952Y-99434819D02*
X86125714Y-99482438D01*
X86125714Y-99482438D02*
X86078095Y-99530057D01*
X86078095Y-99530057D02*
X86030476Y-99625295D01*
X86030476Y-99625295D02*
X86030476Y-99863390D01*
X86030476Y-99863390D02*
X86078095Y-99958628D01*
X86078095Y-99958628D02*
X86125714Y-100006247D01*
X86125714Y-100006247D02*
X86220952Y-100053866D01*
X86220952Y-100053866D02*
X86411428Y-100053866D01*
X86411428Y-100053866D02*
X86506666Y-100006247D01*
X86506666Y-100006247D02*
X86554285Y-99958628D01*
X86554285Y-99958628D02*
X86601904Y-99863390D01*
X128382142Y-115374819D02*
X128048809Y-114898628D01*
X127810714Y-115374819D02*
X127810714Y-114374819D01*
X127810714Y-114374819D02*
X128191666Y-114374819D01*
X128191666Y-114374819D02*
X128286904Y-114422438D01*
X128286904Y-114422438D02*
X128334523Y-114470057D01*
X128334523Y-114470057D02*
X128382142Y-114565295D01*
X128382142Y-114565295D02*
X128382142Y-114708152D01*
X128382142Y-114708152D02*
X128334523Y-114803390D01*
X128334523Y-114803390D02*
X128286904Y-114851009D01*
X128286904Y-114851009D02*
X128191666Y-114898628D01*
X128191666Y-114898628D02*
X127810714Y-114898628D01*
X128763095Y-114470057D02*
X128810714Y-114422438D01*
X128810714Y-114422438D02*
X128905952Y-114374819D01*
X128905952Y-114374819D02*
X129144047Y-114374819D01*
X129144047Y-114374819D02*
X129239285Y-114422438D01*
X129239285Y-114422438D02*
X129286904Y-114470057D01*
X129286904Y-114470057D02*
X129334523Y-114565295D01*
X129334523Y-114565295D02*
X129334523Y-114660533D01*
X129334523Y-114660533D02*
X129286904Y-114803390D01*
X129286904Y-114803390D02*
X128715476Y-115374819D01*
X128715476Y-115374819D02*
X129334523Y-115374819D01*
X130239285Y-114374819D02*
X129763095Y-114374819D01*
X129763095Y-114374819D02*
X129715476Y-114851009D01*
X129715476Y-114851009D02*
X129763095Y-114803390D01*
X129763095Y-114803390D02*
X129858333Y-114755771D01*
X129858333Y-114755771D02*
X130096428Y-114755771D01*
X130096428Y-114755771D02*
X130191666Y-114803390D01*
X130191666Y-114803390D02*
X130239285Y-114851009D01*
X130239285Y-114851009D02*
X130286904Y-114946247D01*
X130286904Y-114946247D02*
X130286904Y-115184342D01*
X130286904Y-115184342D02*
X130239285Y-115279580D01*
X130239285Y-115279580D02*
X130191666Y-115327200D01*
X130191666Y-115327200D02*
X130096428Y-115374819D01*
X130096428Y-115374819D02*
X129858333Y-115374819D01*
X129858333Y-115374819D02*
X129763095Y-115327200D01*
X129763095Y-115327200D02*
X129715476Y-115279580D01*
X90427232Y-100345850D02*
X90284375Y-100298230D01*
X90284375Y-100298230D02*
X90046280Y-100298230D01*
X90046280Y-100298230D02*
X89951042Y-100345850D01*
X89951042Y-100345850D02*
X89903423Y-100393469D01*
X89903423Y-100393469D02*
X89855804Y-100488707D01*
X89855804Y-100488707D02*
X89855804Y-100583945D01*
X89855804Y-100583945D02*
X89903423Y-100679183D01*
X89903423Y-100679183D02*
X89951042Y-100726802D01*
X89951042Y-100726802D02*
X90046280Y-100774421D01*
X90046280Y-100774421D02*
X90236756Y-100822040D01*
X90236756Y-100822040D02*
X90331994Y-100869659D01*
X90331994Y-100869659D02*
X90379613Y-100917278D01*
X90379613Y-100917278D02*
X90427232Y-101012516D01*
X90427232Y-101012516D02*
X90427232Y-101107754D01*
X90427232Y-101107754D02*
X90379613Y-101202992D01*
X90379613Y-101202992D02*
X90331994Y-101250611D01*
X90331994Y-101250611D02*
X90236756Y-101298230D01*
X90236756Y-101298230D02*
X89998661Y-101298230D01*
X89998661Y-101298230D02*
X89855804Y-101250611D01*
X89522470Y-101298230D02*
X89284375Y-100298230D01*
X89284375Y-100298230D02*
X89093899Y-101012516D01*
X89093899Y-101012516D02*
X88903423Y-100298230D01*
X88903423Y-100298230D02*
X88665328Y-101298230D01*
X87760566Y-100298230D02*
X88331994Y-100298230D01*
X88046280Y-100298230D02*
X88046280Y-101298230D01*
X88046280Y-101298230D02*
X88141518Y-101155373D01*
X88141518Y-101155373D02*
X88236756Y-101060135D01*
X88236756Y-101060135D02*
X88331994Y-101012516D01*
X108943333Y-53164819D02*
X108610000Y-52688628D01*
X108371905Y-53164819D02*
X108371905Y-52164819D01*
X108371905Y-52164819D02*
X108752857Y-52164819D01*
X108752857Y-52164819D02*
X108848095Y-52212438D01*
X108848095Y-52212438D02*
X108895714Y-52260057D01*
X108895714Y-52260057D02*
X108943333Y-52355295D01*
X108943333Y-52355295D02*
X108943333Y-52498152D01*
X108943333Y-52498152D02*
X108895714Y-52593390D01*
X108895714Y-52593390D02*
X108848095Y-52641009D01*
X108848095Y-52641009D02*
X108752857Y-52688628D01*
X108752857Y-52688628D02*
X108371905Y-52688628D01*
X109324286Y-52260057D02*
X109371905Y-52212438D01*
X109371905Y-52212438D02*
X109467143Y-52164819D01*
X109467143Y-52164819D02*
X109705238Y-52164819D01*
X109705238Y-52164819D02*
X109800476Y-52212438D01*
X109800476Y-52212438D02*
X109848095Y-52260057D01*
X109848095Y-52260057D02*
X109895714Y-52355295D01*
X109895714Y-52355295D02*
X109895714Y-52450533D01*
X109895714Y-52450533D02*
X109848095Y-52593390D01*
X109848095Y-52593390D02*
X109276667Y-53164819D01*
X109276667Y-53164819D02*
X109895714Y-53164819D01*
X68543719Y-98297757D02*
X68067528Y-98631090D01*
X68543719Y-98869185D02*
X67543719Y-98869185D01*
X67543719Y-98869185D02*
X67543719Y-98488233D01*
X67543719Y-98488233D02*
X67591338Y-98392995D01*
X67591338Y-98392995D02*
X67638957Y-98345376D01*
X67638957Y-98345376D02*
X67734195Y-98297757D01*
X67734195Y-98297757D02*
X67877052Y-98297757D01*
X67877052Y-98297757D02*
X67972290Y-98345376D01*
X67972290Y-98345376D02*
X68019909Y-98392995D01*
X68019909Y-98392995D02*
X68067528Y-98488233D01*
X68067528Y-98488233D02*
X68067528Y-98869185D01*
X67543719Y-97964423D02*
X67543719Y-97345376D01*
X67543719Y-97345376D02*
X67924671Y-97678709D01*
X67924671Y-97678709D02*
X67924671Y-97535852D01*
X67924671Y-97535852D02*
X67972290Y-97440614D01*
X67972290Y-97440614D02*
X68019909Y-97392995D01*
X68019909Y-97392995D02*
X68115147Y-97345376D01*
X68115147Y-97345376D02*
X68353242Y-97345376D01*
X68353242Y-97345376D02*
X68448480Y-97392995D01*
X68448480Y-97392995D02*
X68496100Y-97440614D01*
X68496100Y-97440614D02*
X68543719Y-97535852D01*
X68543719Y-97535852D02*
X68543719Y-97821566D01*
X68543719Y-97821566D02*
X68496100Y-97916804D01*
X68496100Y-97916804D02*
X68448480Y-97964423D01*
X67543719Y-97012042D02*
X67543719Y-96392995D01*
X67543719Y-96392995D02*
X67924671Y-96726328D01*
X67924671Y-96726328D02*
X67924671Y-96583471D01*
X67924671Y-96583471D02*
X67972290Y-96488233D01*
X67972290Y-96488233D02*
X68019909Y-96440614D01*
X68019909Y-96440614D02*
X68115147Y-96392995D01*
X68115147Y-96392995D02*
X68353242Y-96392995D01*
X68353242Y-96392995D02*
X68448480Y-96440614D01*
X68448480Y-96440614D02*
X68496100Y-96488233D01*
X68496100Y-96488233D02*
X68543719Y-96583471D01*
X68543719Y-96583471D02*
X68543719Y-96869185D01*
X68543719Y-96869185D02*
X68496100Y-96964423D01*
X68496100Y-96964423D02*
X68448480Y-97012042D01*
X110966666Y-106754819D02*
X110966666Y-107469104D01*
X110966666Y-107469104D02*
X110919047Y-107611961D01*
X110919047Y-107611961D02*
X110823809Y-107707200D01*
X110823809Y-107707200D02*
X110680952Y-107754819D01*
X110680952Y-107754819D02*
X110585714Y-107754819D01*
X111919047Y-106754819D02*
X111442857Y-106754819D01*
X111442857Y-106754819D02*
X111395238Y-107231009D01*
X111395238Y-107231009D02*
X111442857Y-107183390D01*
X111442857Y-107183390D02*
X111538095Y-107135771D01*
X111538095Y-107135771D02*
X111776190Y-107135771D01*
X111776190Y-107135771D02*
X111871428Y-107183390D01*
X111871428Y-107183390D02*
X111919047Y-107231009D01*
X111919047Y-107231009D02*
X111966666Y-107326247D01*
X111966666Y-107326247D02*
X111966666Y-107564342D01*
X111966666Y-107564342D02*
X111919047Y-107659580D01*
X111919047Y-107659580D02*
X111871428Y-107707200D01*
X111871428Y-107707200D02*
X111776190Y-107754819D01*
X111776190Y-107754819D02*
X111538095Y-107754819D01*
X111538095Y-107754819D02*
X111442857Y-107707200D01*
X111442857Y-107707200D02*
X111395238Y-107659580D01*
X130532095Y-121089819D02*
X130532095Y-121899342D01*
X130532095Y-121899342D02*
X130579714Y-121994580D01*
X130579714Y-121994580D02*
X130627333Y-122042200D01*
X130627333Y-122042200D02*
X130722571Y-122089819D01*
X130722571Y-122089819D02*
X130913047Y-122089819D01*
X130913047Y-122089819D02*
X131008285Y-122042200D01*
X131008285Y-122042200D02*
X131055904Y-121994580D01*
X131055904Y-121994580D02*
X131103523Y-121899342D01*
X131103523Y-121899342D02*
X131103523Y-121089819D01*
X132103523Y-122089819D02*
X131532095Y-122089819D01*
X131817809Y-122089819D02*
X131817809Y-121089819D01*
X131817809Y-121089819D02*
X131722571Y-121232676D01*
X131722571Y-121232676D02*
X131627333Y-121327914D01*
X131627333Y-121327914D02*
X131532095Y-121375533D01*
X128118999Y-116016219D02*
X128118999Y-116254314D01*
X127880904Y-116159076D02*
X128118999Y-116254314D01*
X128118999Y-116254314D02*
X128357094Y-116159076D01*
X127976142Y-116444790D02*
X128118999Y-116254314D01*
X128118999Y-116254314D02*
X128261856Y-116444790D01*
X128118999Y-116016219D02*
X128118999Y-116254314D01*
X127880904Y-116159076D02*
X128118999Y-116254314D01*
X128118999Y-116254314D02*
X128357094Y-116159076D01*
X127976142Y-116444790D02*
X128118999Y-116254314D01*
X128118999Y-116254314D02*
X128261856Y-116444790D01*
X89687142Y-111239580D02*
X89639523Y-111287200D01*
X89639523Y-111287200D02*
X89496666Y-111334819D01*
X89496666Y-111334819D02*
X89401428Y-111334819D01*
X89401428Y-111334819D02*
X89258571Y-111287200D01*
X89258571Y-111287200D02*
X89163333Y-111191961D01*
X89163333Y-111191961D02*
X89115714Y-111096723D01*
X89115714Y-111096723D02*
X89068095Y-110906247D01*
X89068095Y-110906247D02*
X89068095Y-110763390D01*
X89068095Y-110763390D02*
X89115714Y-110572914D01*
X89115714Y-110572914D02*
X89163333Y-110477676D01*
X89163333Y-110477676D02*
X89258571Y-110382438D01*
X89258571Y-110382438D02*
X89401428Y-110334819D01*
X89401428Y-110334819D02*
X89496666Y-110334819D01*
X89496666Y-110334819D02*
X89639523Y-110382438D01*
X89639523Y-110382438D02*
X89687142Y-110430057D01*
X90020476Y-110334819D02*
X90639523Y-110334819D01*
X90639523Y-110334819D02*
X90306190Y-110715771D01*
X90306190Y-110715771D02*
X90449047Y-110715771D01*
X90449047Y-110715771D02*
X90544285Y-110763390D01*
X90544285Y-110763390D02*
X90591904Y-110811009D01*
X90591904Y-110811009D02*
X90639523Y-110906247D01*
X90639523Y-110906247D02*
X90639523Y-111144342D01*
X90639523Y-111144342D02*
X90591904Y-111239580D01*
X90591904Y-111239580D02*
X90544285Y-111287200D01*
X90544285Y-111287200D02*
X90449047Y-111334819D01*
X90449047Y-111334819D02*
X90163333Y-111334819D01*
X90163333Y-111334819D02*
X90068095Y-111287200D01*
X90068095Y-111287200D02*
X90020476Y-111239580D01*
X91496666Y-110334819D02*
X91306190Y-110334819D01*
X91306190Y-110334819D02*
X91210952Y-110382438D01*
X91210952Y-110382438D02*
X91163333Y-110430057D01*
X91163333Y-110430057D02*
X91068095Y-110572914D01*
X91068095Y-110572914D02*
X91020476Y-110763390D01*
X91020476Y-110763390D02*
X91020476Y-111144342D01*
X91020476Y-111144342D02*
X91068095Y-111239580D01*
X91068095Y-111239580D02*
X91115714Y-111287200D01*
X91115714Y-111287200D02*
X91210952Y-111334819D01*
X91210952Y-111334819D02*
X91401428Y-111334819D01*
X91401428Y-111334819D02*
X91496666Y-111287200D01*
X91496666Y-111287200D02*
X91544285Y-111239580D01*
X91544285Y-111239580D02*
X91591904Y-111144342D01*
X91591904Y-111144342D02*
X91591904Y-110906247D01*
X91591904Y-110906247D02*
X91544285Y-110811009D01*
X91544285Y-110811009D02*
X91496666Y-110763390D01*
X91496666Y-110763390D02*
X91401428Y-110715771D01*
X91401428Y-110715771D02*
X91210952Y-110715771D01*
X91210952Y-110715771D02*
X91115714Y-110763390D01*
X91115714Y-110763390D02*
X91068095Y-110811009D01*
X91068095Y-110811009D02*
X91020476Y-110906247D01*
X131781297Y-134787109D02*
X131254527Y-134541383D01*
X131286426Y-135072823D02*
X130786426Y-134206798D01*
X130786426Y-134206798D02*
X131116340Y-134016322D01*
X131116340Y-134016322D02*
X131222628Y-134009942D01*
X131222628Y-134009942D02*
X131287677Y-134027372D01*
X131287677Y-134027372D02*
X131376535Y-134086041D01*
X131376535Y-134086041D02*
X131447964Y-134209759D01*
X131447964Y-134209759D02*
X131454344Y-134316047D01*
X131454344Y-134316047D02*
X131436914Y-134381096D01*
X131436914Y-134381096D02*
X131378245Y-134469954D01*
X131378245Y-134469954D02*
X131048330Y-134660430D01*
X132606083Y-134310918D02*
X132111212Y-134596633D01*
X132358648Y-134453776D02*
X131858648Y-133587750D01*
X131858648Y-133587750D02*
X131847598Y-133759087D01*
X131847598Y-133759087D02*
X131812738Y-133889185D01*
X131812738Y-133889185D02*
X131754069Y-133978043D01*
X132642194Y-133135369D02*
X132724673Y-133087750D01*
X132724673Y-133087750D02*
X132830961Y-133081370D01*
X132830961Y-133081370D02*
X132896010Y-133098800D01*
X132896010Y-133098800D02*
X132984868Y-133157469D01*
X132984868Y-133157469D02*
X133121346Y-133298617D01*
X133121346Y-133298617D02*
X133240393Y-133504814D01*
X133240393Y-133504814D02*
X133294392Y-133693580D01*
X133294392Y-133693580D02*
X133300772Y-133799868D01*
X133300772Y-133799868D02*
X133283342Y-133864917D01*
X133283342Y-133864917D02*
X133224673Y-133953776D01*
X133224673Y-133953776D02*
X133142194Y-134001395D01*
X133142194Y-134001395D02*
X133035906Y-134007774D01*
X133035906Y-134007774D02*
X132970858Y-133990345D01*
X132970858Y-133990345D02*
X132881999Y-133931676D01*
X132881999Y-133931676D02*
X132745522Y-133790528D01*
X132745522Y-133790528D02*
X132626474Y-133584331D01*
X132626474Y-133584331D02*
X132572475Y-133395565D01*
X132572475Y-133395565D02*
X132566096Y-133289276D01*
X132566096Y-133289276D02*
X132583525Y-133224228D01*
X132583525Y-133224228D02*
X132642194Y-133135369D01*
X123601009Y-111128333D02*
X123601009Y-111461666D01*
X124124819Y-111461666D02*
X123124819Y-111461666D01*
X123124819Y-111461666D02*
X123124819Y-110985476D01*
X123601009Y-110271190D02*
X123648628Y-110128333D01*
X123648628Y-110128333D02*
X123696247Y-110080714D01*
X123696247Y-110080714D02*
X123791485Y-110033095D01*
X123791485Y-110033095D02*
X123934342Y-110033095D01*
X123934342Y-110033095D02*
X124029580Y-110080714D01*
X124029580Y-110080714D02*
X124077200Y-110128333D01*
X124077200Y-110128333D02*
X124124819Y-110223571D01*
X124124819Y-110223571D02*
X124124819Y-110604523D01*
X124124819Y-110604523D02*
X123124819Y-110604523D01*
X123124819Y-110604523D02*
X123124819Y-110271190D01*
X123124819Y-110271190D02*
X123172438Y-110175952D01*
X123172438Y-110175952D02*
X123220057Y-110128333D01*
X123220057Y-110128333D02*
X123315295Y-110080714D01*
X123315295Y-110080714D02*
X123410533Y-110080714D01*
X123410533Y-110080714D02*
X123505771Y-110128333D01*
X123505771Y-110128333D02*
X123553390Y-110175952D01*
X123553390Y-110175952D02*
X123601009Y-110271190D01*
X123601009Y-110271190D02*
X123601009Y-110604523D01*
X124124819Y-109080714D02*
X124124819Y-109652142D01*
X124124819Y-109366428D02*
X123124819Y-109366428D01*
X123124819Y-109366428D02*
X123267676Y-109461666D01*
X123267676Y-109461666D02*
X123362914Y-109556904D01*
X123362914Y-109556904D02*
X123410533Y-109652142D01*
X160866666Y-113304819D02*
X160533333Y-112828628D01*
X160295238Y-113304819D02*
X160295238Y-112304819D01*
X160295238Y-112304819D02*
X160676190Y-112304819D01*
X160676190Y-112304819D02*
X160771428Y-112352438D01*
X160771428Y-112352438D02*
X160819047Y-112400057D01*
X160819047Y-112400057D02*
X160866666Y-112495295D01*
X160866666Y-112495295D02*
X160866666Y-112638152D01*
X160866666Y-112638152D02*
X160819047Y-112733390D01*
X160819047Y-112733390D02*
X160771428Y-112781009D01*
X160771428Y-112781009D02*
X160676190Y-112828628D01*
X160676190Y-112828628D02*
X160295238Y-112828628D01*
X161295238Y-112781009D02*
X161628571Y-112781009D01*
X161771428Y-113304819D02*
X161295238Y-113304819D01*
X161295238Y-113304819D02*
X161295238Y-112304819D01*
X161295238Y-112304819D02*
X161771428Y-112304819D01*
X162533333Y-112781009D02*
X162200000Y-112781009D01*
X162200000Y-113304819D02*
X162200000Y-112304819D01*
X162200000Y-112304819D02*
X162676190Y-112304819D01*
X163200000Y-112304819D02*
X163200000Y-112542914D01*
X162961905Y-112447676D02*
X163200000Y-112542914D01*
X163200000Y-112542914D02*
X163438095Y-112447676D01*
X163057143Y-112733390D02*
X163200000Y-112542914D01*
X163200000Y-112542914D02*
X163342857Y-112733390D01*
X163961905Y-112304819D02*
X163961905Y-112542914D01*
X163723810Y-112447676D02*
X163961905Y-112542914D01*
X163961905Y-112542914D02*
X164200000Y-112447676D01*
X163819048Y-112733390D02*
X163961905Y-112542914D01*
X163961905Y-112542914D02*
X164104762Y-112733390D01*
X149822077Y-118745446D02*
X149243018Y-118796026D01*
X149536363Y-119240318D02*
X148670338Y-118740318D01*
X148670338Y-118740318D02*
X148860814Y-118410403D01*
X148860814Y-118410403D02*
X148949672Y-118351734D01*
X148949672Y-118351734D02*
X149014721Y-118334305D01*
X149014721Y-118334305D02*
X149121009Y-118340684D01*
X149121009Y-118340684D02*
X149244727Y-118412113D01*
X149244727Y-118412113D02*
X149303396Y-118500971D01*
X149303396Y-118500971D02*
X149320826Y-118566020D01*
X149320826Y-118566020D02*
X149314446Y-118672308D01*
X149314446Y-118672308D02*
X149123970Y-119002223D01*
X150060172Y-118333053D02*
X150155411Y-118168096D01*
X150155411Y-118168096D02*
X150161790Y-118061808D01*
X150161790Y-118061808D02*
X150144361Y-117996759D01*
X150144361Y-117996759D02*
X150068262Y-117842852D01*
X150068262Y-117842852D02*
X149927114Y-117706374D01*
X149927114Y-117706374D02*
X149597200Y-117515898D01*
X149597200Y-117515898D02*
X149490911Y-117509518D01*
X149490911Y-117509518D02*
X149425863Y-117526948D01*
X149425863Y-117526948D02*
X149337004Y-117585617D01*
X149337004Y-117585617D02*
X149241766Y-117750575D01*
X149241766Y-117750575D02*
X149235386Y-117856863D01*
X149235386Y-117856863D02*
X149252816Y-117921911D01*
X149252816Y-117921911D02*
X149311485Y-118010770D01*
X149311485Y-118010770D02*
X149517682Y-118129817D01*
X149517682Y-118129817D02*
X149623970Y-118136197D01*
X149623970Y-118136197D02*
X149689019Y-118118767D01*
X149689019Y-118118767D02*
X149777877Y-118060098D01*
X149777877Y-118060098D02*
X149873115Y-117895141D01*
X149873115Y-117895141D02*
X149879495Y-117788853D01*
X149879495Y-117788853D02*
X149862065Y-117723804D01*
X149862065Y-117723804D02*
X149803396Y-117634946D01*
X126033333Y-111569580D02*
X125985714Y-111617200D01*
X125985714Y-111617200D02*
X125842857Y-111664819D01*
X125842857Y-111664819D02*
X125747619Y-111664819D01*
X125747619Y-111664819D02*
X125604762Y-111617200D01*
X125604762Y-111617200D02*
X125509524Y-111521961D01*
X125509524Y-111521961D02*
X125461905Y-111426723D01*
X125461905Y-111426723D02*
X125414286Y-111236247D01*
X125414286Y-111236247D02*
X125414286Y-111093390D01*
X125414286Y-111093390D02*
X125461905Y-110902914D01*
X125461905Y-110902914D02*
X125509524Y-110807676D01*
X125509524Y-110807676D02*
X125604762Y-110712438D01*
X125604762Y-110712438D02*
X125747619Y-110664819D01*
X125747619Y-110664819D02*
X125842857Y-110664819D01*
X125842857Y-110664819D02*
X125985714Y-110712438D01*
X125985714Y-110712438D02*
X126033333Y-110760057D01*
X126366667Y-110664819D02*
X127033333Y-110664819D01*
X127033333Y-110664819D02*
X126604762Y-111664819D01*
X60016666Y-69404819D02*
X59683333Y-68928628D01*
X59445238Y-69404819D02*
X59445238Y-68404819D01*
X59445238Y-68404819D02*
X59826190Y-68404819D01*
X59826190Y-68404819D02*
X59921428Y-68452438D01*
X59921428Y-68452438D02*
X59969047Y-68500057D01*
X59969047Y-68500057D02*
X60016666Y-68595295D01*
X60016666Y-68595295D02*
X60016666Y-68738152D01*
X60016666Y-68738152D02*
X59969047Y-68833390D01*
X59969047Y-68833390D02*
X59921428Y-68881009D01*
X59921428Y-68881009D02*
X59826190Y-68928628D01*
X59826190Y-68928628D02*
X59445238Y-68928628D01*
X60445238Y-68881009D02*
X60778571Y-68881009D01*
X60921428Y-69404819D02*
X60445238Y-69404819D01*
X60445238Y-69404819D02*
X60445238Y-68404819D01*
X60445238Y-68404819D02*
X60921428Y-68404819D01*
X61683333Y-68881009D02*
X61350000Y-68881009D01*
X61350000Y-69404819D02*
X61350000Y-68404819D01*
X61350000Y-68404819D02*
X61826190Y-68404819D01*
X62350000Y-68404819D02*
X62350000Y-68642914D01*
X62111905Y-68547676D02*
X62350000Y-68642914D01*
X62350000Y-68642914D02*
X62588095Y-68547676D01*
X62207143Y-68833390D02*
X62350000Y-68642914D01*
X62350000Y-68642914D02*
X62492857Y-68833390D01*
X63111905Y-68404819D02*
X63111905Y-68642914D01*
X62873810Y-68547676D02*
X63111905Y-68642914D01*
X63111905Y-68642914D02*
X63350000Y-68547676D01*
X62969048Y-68833390D02*
X63111905Y-68642914D01*
X63111905Y-68642914D02*
X63254762Y-68833390D01*
X135907078Y-130347929D02*
X135380308Y-130102203D01*
X135412207Y-130633643D02*
X134912207Y-129767618D01*
X134912207Y-129767618D02*
X135242121Y-129577142D01*
X135242121Y-129577142D02*
X135348409Y-129570762D01*
X135348409Y-129570762D02*
X135413458Y-129588192D01*
X135413458Y-129588192D02*
X135502316Y-129646861D01*
X135502316Y-129646861D02*
X135573745Y-129770579D01*
X135573745Y-129770579D02*
X135580125Y-129876867D01*
X135580125Y-129876867D02*
X135562695Y-129941916D01*
X135562695Y-129941916D02*
X135504026Y-130030774D01*
X135504026Y-130030774D02*
X135174111Y-130221250D01*
X135784612Y-129373906D02*
X135802042Y-129308857D01*
X135802042Y-129308857D02*
X135860711Y-129219999D01*
X135860711Y-129219999D02*
X136066907Y-129100951D01*
X136066907Y-129100951D02*
X136173195Y-129094571D01*
X136173195Y-129094571D02*
X136238244Y-129112001D01*
X136238244Y-129112001D02*
X136327103Y-129170670D01*
X136327103Y-129170670D02*
X136374722Y-129253149D01*
X136374722Y-129253149D02*
X136404911Y-129400676D01*
X136404911Y-129400676D02*
X136195754Y-130181262D01*
X136195754Y-130181262D02*
X136731864Y-129871738D01*
X136520540Y-128839046D02*
X137056651Y-128529523D01*
X137056651Y-128529523D02*
X136958452Y-129026104D01*
X136958452Y-129026104D02*
X137082170Y-128954675D01*
X137082170Y-128954675D02*
X137188458Y-128948295D01*
X137188458Y-128948295D02*
X137253507Y-128965725D01*
X137253507Y-128965725D02*
X137342365Y-129024394D01*
X137342365Y-129024394D02*
X137461413Y-129230591D01*
X137461413Y-129230591D02*
X137467792Y-129336879D01*
X137467792Y-129336879D02*
X137450362Y-129401928D01*
X137450362Y-129401928D02*
X137391693Y-129490786D01*
X137391693Y-129490786D02*
X137144258Y-129633643D01*
X137144258Y-129633643D02*
X137037969Y-129640023D01*
X137037969Y-129640023D02*
X136972921Y-129622593D01*
X155844719Y-97727766D02*
X155368528Y-98061099D01*
X155844719Y-98299194D02*
X154844719Y-98299194D01*
X154844719Y-98299194D02*
X154844719Y-97918242D01*
X154844719Y-97918242D02*
X154892338Y-97823004D01*
X154892338Y-97823004D02*
X154939957Y-97775385D01*
X154939957Y-97775385D02*
X155035195Y-97727766D01*
X155035195Y-97727766D02*
X155178052Y-97727766D01*
X155178052Y-97727766D02*
X155273290Y-97775385D01*
X155273290Y-97775385D02*
X155320909Y-97823004D01*
X155320909Y-97823004D02*
X155368528Y-97918242D01*
X155368528Y-97918242D02*
X155368528Y-98299194D01*
X155273290Y-97156337D02*
X155225671Y-97251575D01*
X155225671Y-97251575D02*
X155178052Y-97299194D01*
X155178052Y-97299194D02*
X155082814Y-97346813D01*
X155082814Y-97346813D02*
X155035195Y-97346813D01*
X155035195Y-97346813D02*
X154939957Y-97299194D01*
X154939957Y-97299194D02*
X154892338Y-97251575D01*
X154892338Y-97251575D02*
X154844719Y-97156337D01*
X154844719Y-97156337D02*
X154844719Y-96965861D01*
X154844719Y-96965861D02*
X154892338Y-96870623D01*
X154892338Y-96870623D02*
X154939957Y-96823004D01*
X154939957Y-96823004D02*
X155035195Y-96775385D01*
X155035195Y-96775385D02*
X155082814Y-96775385D01*
X155082814Y-96775385D02*
X155178052Y-96823004D01*
X155178052Y-96823004D02*
X155225671Y-96870623D01*
X155225671Y-96870623D02*
X155273290Y-96965861D01*
X155273290Y-96965861D02*
X155273290Y-97156337D01*
X155273290Y-97156337D02*
X155320909Y-97251575D01*
X155320909Y-97251575D02*
X155368528Y-97299194D01*
X155368528Y-97299194D02*
X155463766Y-97346813D01*
X155463766Y-97346813D02*
X155654242Y-97346813D01*
X155654242Y-97346813D02*
X155749480Y-97299194D01*
X155749480Y-97299194D02*
X155797100Y-97251575D01*
X155797100Y-97251575D02*
X155844719Y-97156337D01*
X155844719Y-97156337D02*
X155844719Y-96965861D01*
X155844719Y-96965861D02*
X155797100Y-96870623D01*
X155797100Y-96870623D02*
X155749480Y-96823004D01*
X155749480Y-96823004D02*
X155654242Y-96775385D01*
X155654242Y-96775385D02*
X155463766Y-96775385D01*
X155463766Y-96775385D02*
X155368528Y-96823004D01*
X155368528Y-96823004D02*
X155320909Y-96870623D01*
X155320909Y-96870623D02*
X155273290Y-96965861D01*
X60016666Y-113254819D02*
X59683333Y-112778628D01*
X59445238Y-113254819D02*
X59445238Y-112254819D01*
X59445238Y-112254819D02*
X59826190Y-112254819D01*
X59826190Y-112254819D02*
X59921428Y-112302438D01*
X59921428Y-112302438D02*
X59969047Y-112350057D01*
X59969047Y-112350057D02*
X60016666Y-112445295D01*
X60016666Y-112445295D02*
X60016666Y-112588152D01*
X60016666Y-112588152D02*
X59969047Y-112683390D01*
X59969047Y-112683390D02*
X59921428Y-112731009D01*
X59921428Y-112731009D02*
X59826190Y-112778628D01*
X59826190Y-112778628D02*
X59445238Y-112778628D01*
X60445238Y-112731009D02*
X60778571Y-112731009D01*
X60921428Y-113254819D02*
X60445238Y-113254819D01*
X60445238Y-113254819D02*
X60445238Y-112254819D01*
X60445238Y-112254819D02*
X60921428Y-112254819D01*
X61683333Y-112731009D02*
X61350000Y-112731009D01*
X61350000Y-113254819D02*
X61350000Y-112254819D01*
X61350000Y-112254819D02*
X61826190Y-112254819D01*
X62350000Y-112254819D02*
X62350000Y-112492914D01*
X62111905Y-112397676D02*
X62350000Y-112492914D01*
X62350000Y-112492914D02*
X62588095Y-112397676D01*
X62207143Y-112683390D02*
X62350000Y-112492914D01*
X62350000Y-112492914D02*
X62492857Y-112683390D01*
X63111905Y-112254819D02*
X63111905Y-112492914D01*
X62873810Y-112397676D02*
X63111905Y-112492914D01*
X63111905Y-112492914D02*
X63350000Y-112397676D01*
X62969048Y-112683390D02*
X63111905Y-112492914D01*
X63111905Y-112492914D02*
X63254762Y-112683390D01*
X150870708Y-75012672D02*
X151116434Y-74485901D01*
X150584993Y-74517800D02*
X151451019Y-74017800D01*
X151451019Y-74017800D02*
X151641495Y-74347715D01*
X151641495Y-74347715D02*
X151647875Y-74454003D01*
X151647875Y-74454003D02*
X151630445Y-74519052D01*
X151630445Y-74519052D02*
X151571776Y-74607910D01*
X151571776Y-74607910D02*
X151448058Y-74679339D01*
X151448058Y-74679339D02*
X151341770Y-74685718D01*
X151341770Y-74685718D02*
X151276721Y-74668288D01*
X151276721Y-74668288D02*
X151187863Y-74609619D01*
X151187863Y-74609619D02*
X150997386Y-74279705D01*
X151903400Y-74801347D02*
X152236733Y-75378697D01*
X152236733Y-75378697D02*
X151156422Y-75507544D01*
X160916666Y-69404819D02*
X160583333Y-68928628D01*
X160345238Y-69404819D02*
X160345238Y-68404819D01*
X160345238Y-68404819D02*
X160726190Y-68404819D01*
X160726190Y-68404819D02*
X160821428Y-68452438D01*
X160821428Y-68452438D02*
X160869047Y-68500057D01*
X160869047Y-68500057D02*
X160916666Y-68595295D01*
X160916666Y-68595295D02*
X160916666Y-68738152D01*
X160916666Y-68738152D02*
X160869047Y-68833390D01*
X160869047Y-68833390D02*
X160821428Y-68881009D01*
X160821428Y-68881009D02*
X160726190Y-68928628D01*
X160726190Y-68928628D02*
X160345238Y-68928628D01*
X161345238Y-68881009D02*
X161678571Y-68881009D01*
X161821428Y-69404819D02*
X161345238Y-69404819D01*
X161345238Y-69404819D02*
X161345238Y-68404819D01*
X161345238Y-68404819D02*
X161821428Y-68404819D01*
X162583333Y-68881009D02*
X162250000Y-68881009D01*
X162250000Y-69404819D02*
X162250000Y-68404819D01*
X162250000Y-68404819D02*
X162726190Y-68404819D01*
X163250000Y-68404819D02*
X163250000Y-68642914D01*
X163011905Y-68547676D02*
X163250000Y-68642914D01*
X163250000Y-68642914D02*
X163488095Y-68547676D01*
X163107143Y-68833390D02*
X163250000Y-68642914D01*
X163250000Y-68642914D02*
X163392857Y-68833390D01*
X164011905Y-68404819D02*
X164011905Y-68642914D01*
X163773810Y-68547676D02*
X164011905Y-68642914D01*
X164011905Y-68642914D02*
X164250000Y-68547676D01*
X163869048Y-68833390D02*
X164011905Y-68642914D01*
X164011905Y-68642914D02*
X164154762Y-68833390D01*
X133074276Y-81127819D02*
X133074276Y-81842104D01*
X133074276Y-81842104D02*
X133026657Y-81984961D01*
X133026657Y-81984961D02*
X132931419Y-82080200D01*
X132931419Y-82080200D02*
X132788562Y-82127819D01*
X132788562Y-82127819D02*
X132693324Y-82127819D01*
X134074276Y-82127819D02*
X133502848Y-82127819D01*
X133788562Y-82127819D02*
X133788562Y-81127819D01*
X133788562Y-81127819D02*
X133693324Y-81270676D01*
X133693324Y-81270676D02*
X133598086Y-81365914D01*
X133598086Y-81365914D02*
X133502848Y-81413533D01*
X134693324Y-81127819D02*
X134788562Y-81127819D01*
X134788562Y-81127819D02*
X134883800Y-81175438D01*
X134883800Y-81175438D02*
X134931419Y-81223057D01*
X134931419Y-81223057D02*
X134979038Y-81318295D01*
X134979038Y-81318295D02*
X135026657Y-81508771D01*
X135026657Y-81508771D02*
X135026657Y-81746866D01*
X135026657Y-81746866D02*
X134979038Y-81937342D01*
X134979038Y-81937342D02*
X134931419Y-82032580D01*
X134931419Y-82032580D02*
X134883800Y-82080200D01*
X134883800Y-82080200D02*
X134788562Y-82127819D01*
X134788562Y-82127819D02*
X134693324Y-82127819D01*
X134693324Y-82127819D02*
X134598086Y-82080200D01*
X134598086Y-82080200D02*
X134550467Y-82032580D01*
X134550467Y-82032580D02*
X134502848Y-81937342D01*
X134502848Y-81937342D02*
X134455229Y-81746866D01*
X134455229Y-81746866D02*
X134455229Y-81508771D01*
X134455229Y-81508771D02*
X134502848Y-81318295D01*
X134502848Y-81318295D02*
X134550467Y-81223057D01*
X134550467Y-81223057D02*
X134598086Y-81175438D01*
X134598086Y-81175438D02*
X134693324Y-81127819D01*
X128003904Y-56553376D02*
X127953324Y-55974317D01*
X127509032Y-56267662D02*
X128009032Y-55401637D01*
X128009032Y-55401637D02*
X128338947Y-55592113D01*
X128338947Y-55592113D02*
X128397616Y-55680971D01*
X128397616Y-55680971D02*
X128415045Y-55746020D01*
X128415045Y-55746020D02*
X128408666Y-55852308D01*
X128408666Y-55852308D02*
X128337237Y-55976026D01*
X128337237Y-55976026D02*
X128248379Y-56034695D01*
X128248379Y-56034695D02*
X128183330Y-56052125D01*
X128183330Y-56052125D02*
X128077042Y-56045745D01*
X128077042Y-56045745D02*
X127747127Y-55855269D01*
X128792579Y-55854018D02*
X129328690Y-56163541D01*
X129328690Y-56163541D02*
X128849539Y-56326789D01*
X128849539Y-56326789D02*
X128973257Y-56398218D01*
X128973257Y-56398218D02*
X129031926Y-56487076D01*
X129031926Y-56487076D02*
X129049355Y-56552125D01*
X129049355Y-56552125D02*
X129042976Y-56658413D01*
X129042976Y-56658413D02*
X128923928Y-56864610D01*
X128923928Y-56864610D02*
X128835070Y-56923279D01*
X128835070Y-56923279D02*
X128770021Y-56940708D01*
X128770021Y-56940708D02*
X128663733Y-56934329D01*
X128663733Y-56934329D02*
X128416297Y-56791471D01*
X128416297Y-56791471D02*
X128357628Y-56702613D01*
X128357628Y-56702613D02*
X128340198Y-56637564D01*
X126033333Y-113539580D02*
X125985714Y-113587200D01*
X125985714Y-113587200D02*
X125842857Y-113634819D01*
X125842857Y-113634819D02*
X125747619Y-113634819D01*
X125747619Y-113634819D02*
X125604762Y-113587200D01*
X125604762Y-113587200D02*
X125509524Y-113491961D01*
X125509524Y-113491961D02*
X125461905Y-113396723D01*
X125461905Y-113396723D02*
X125414286Y-113206247D01*
X125414286Y-113206247D02*
X125414286Y-113063390D01*
X125414286Y-113063390D02*
X125461905Y-112872914D01*
X125461905Y-112872914D02*
X125509524Y-112777676D01*
X125509524Y-112777676D02*
X125604762Y-112682438D01*
X125604762Y-112682438D02*
X125747619Y-112634819D01*
X125747619Y-112634819D02*
X125842857Y-112634819D01*
X125842857Y-112634819D02*
X125985714Y-112682438D01*
X125985714Y-112682438D02*
X126033333Y-112730057D01*
X126604762Y-113063390D02*
X126509524Y-113015771D01*
X126509524Y-113015771D02*
X126461905Y-112968152D01*
X126461905Y-112968152D02*
X126414286Y-112872914D01*
X126414286Y-112872914D02*
X126414286Y-112825295D01*
X126414286Y-112825295D02*
X126461905Y-112730057D01*
X126461905Y-112730057D02*
X126509524Y-112682438D01*
X126509524Y-112682438D02*
X126604762Y-112634819D01*
X126604762Y-112634819D02*
X126795238Y-112634819D01*
X126795238Y-112634819D02*
X126890476Y-112682438D01*
X126890476Y-112682438D02*
X126938095Y-112730057D01*
X126938095Y-112730057D02*
X126985714Y-112825295D01*
X126985714Y-112825295D02*
X126985714Y-112872914D01*
X126985714Y-112872914D02*
X126938095Y-112968152D01*
X126938095Y-112968152D02*
X126890476Y-113015771D01*
X126890476Y-113015771D02*
X126795238Y-113063390D01*
X126795238Y-113063390D02*
X126604762Y-113063390D01*
X126604762Y-113063390D02*
X126509524Y-113111009D01*
X126509524Y-113111009D02*
X126461905Y-113158628D01*
X126461905Y-113158628D02*
X126414286Y-113253866D01*
X126414286Y-113253866D02*
X126414286Y-113444342D01*
X126414286Y-113444342D02*
X126461905Y-113539580D01*
X126461905Y-113539580D02*
X126509524Y-113587200D01*
X126509524Y-113587200D02*
X126604762Y-113634819D01*
X126604762Y-113634819D02*
X126795238Y-113634819D01*
X126795238Y-113634819D02*
X126890476Y-113587200D01*
X126890476Y-113587200D02*
X126938095Y-113539580D01*
X126938095Y-113539580D02*
X126985714Y-113444342D01*
X126985714Y-113444342D02*
X126985714Y-113253866D01*
X126985714Y-113253866D02*
X126938095Y-113158628D01*
X126938095Y-113158628D02*
X126890476Y-113111009D01*
X126890476Y-113111009D02*
X126795238Y-113063390D01*
X162610566Y-104837819D02*
X162610566Y-105552104D01*
X162610566Y-105552104D02*
X162562947Y-105694961D01*
X162562947Y-105694961D02*
X162467709Y-105790200D01*
X162467709Y-105790200D02*
X162324852Y-105837819D01*
X162324852Y-105837819D02*
X162229614Y-105837819D01*
X163515328Y-105171152D02*
X163515328Y-105837819D01*
X163277233Y-104790200D02*
X163039138Y-105504485D01*
X163039138Y-105504485D02*
X163658185Y-105504485D01*
X106564819Y-111552857D02*
X106088628Y-111886190D01*
X106564819Y-112124285D02*
X105564819Y-112124285D01*
X105564819Y-112124285D02*
X105564819Y-111743333D01*
X105564819Y-111743333D02*
X105612438Y-111648095D01*
X105612438Y-111648095D02*
X105660057Y-111600476D01*
X105660057Y-111600476D02*
X105755295Y-111552857D01*
X105755295Y-111552857D02*
X105898152Y-111552857D01*
X105898152Y-111552857D02*
X105993390Y-111600476D01*
X105993390Y-111600476D02*
X106041009Y-111648095D01*
X106041009Y-111648095D02*
X106088628Y-111743333D01*
X106088628Y-111743333D02*
X106088628Y-112124285D01*
X105898152Y-110695714D02*
X106564819Y-110695714D01*
X105517200Y-110933809D02*
X106231485Y-111171904D01*
X106231485Y-111171904D02*
X106231485Y-110552857D01*
X105660057Y-110219523D02*
X105612438Y-110171904D01*
X105612438Y-110171904D02*
X105564819Y-110076666D01*
X105564819Y-110076666D02*
X105564819Y-109838571D01*
X105564819Y-109838571D02*
X105612438Y-109743333D01*
X105612438Y-109743333D02*
X105660057Y-109695714D01*
X105660057Y-109695714D02*
X105755295Y-109648095D01*
X105755295Y-109648095D02*
X105850533Y-109648095D01*
X105850533Y-109648095D02*
X105993390Y-109695714D01*
X105993390Y-109695714D02*
X106564819Y-110267142D01*
X106564819Y-110267142D02*
X106564819Y-109648095D01*
X116360466Y-107337819D02*
X116360466Y-108052104D01*
X116360466Y-108052104D02*
X116312847Y-108194961D01*
X116312847Y-108194961D02*
X116217609Y-108290200D01*
X116217609Y-108290200D02*
X116074752Y-108337819D01*
X116074752Y-108337819D02*
X115979514Y-108337819D01*
X117360466Y-108337819D02*
X116789038Y-108337819D01*
X117074752Y-108337819D02*
X117074752Y-107337819D01*
X117074752Y-107337819D02*
X116979514Y-107480676D01*
X116979514Y-107480676D02*
X116884276Y-107575914D01*
X116884276Y-107575914D02*
X116789038Y-107623533D01*
X92600278Y-55516287D02*
X92073508Y-55270561D01*
X92105407Y-55802001D02*
X91605407Y-54935976D01*
X91605407Y-54935976D02*
X91935321Y-54745500D01*
X91935321Y-54745500D02*
X92041609Y-54739120D01*
X92041609Y-54739120D02*
X92106658Y-54756550D01*
X92106658Y-54756550D02*
X92195516Y-54815219D01*
X92195516Y-54815219D02*
X92266945Y-54938937D01*
X92266945Y-54938937D02*
X92273325Y-55045225D01*
X92273325Y-55045225D02*
X92255895Y-55110274D01*
X92255895Y-55110274D02*
X92197226Y-55199132D01*
X92197226Y-55199132D02*
X91867311Y-55389608D01*
X93425064Y-55040096D02*
X92930193Y-55325811D01*
X93177629Y-55182954D02*
X92677629Y-54316928D01*
X92677629Y-54316928D02*
X92666579Y-54488265D01*
X92666579Y-54488265D02*
X92631719Y-54618363D01*
X92631719Y-54618363D02*
X92573050Y-54707221D01*
X93667372Y-53745500D02*
X93502415Y-53840738D01*
X93502415Y-53840738D02*
X93443746Y-53929596D01*
X93443746Y-53929596D02*
X93426316Y-53994645D01*
X93426316Y-53994645D02*
X93415266Y-54165982D01*
X93415266Y-54165982D02*
X93469265Y-54354749D01*
X93469265Y-54354749D02*
X93659741Y-54684663D01*
X93659741Y-54684663D02*
X93748599Y-54743332D01*
X93748599Y-54743332D02*
X93813648Y-54760762D01*
X93813648Y-54760762D02*
X93919936Y-54754382D01*
X93919936Y-54754382D02*
X94084893Y-54659144D01*
X94084893Y-54659144D02*
X94143562Y-54570286D01*
X94143562Y-54570286D02*
X94160992Y-54505237D01*
X94160992Y-54505237D02*
X94154613Y-54398949D01*
X94154613Y-54398949D02*
X94035565Y-54192752D01*
X94035565Y-54192752D02*
X93946707Y-54134083D01*
X93946707Y-54134083D02*
X93881658Y-54116653D01*
X93881658Y-54116653D02*
X93775370Y-54123033D01*
X93775370Y-54123033D02*
X93610412Y-54218271D01*
X93610412Y-54218271D02*
X93551743Y-54307130D01*
X93551743Y-54307130D02*
X93534313Y-54372178D01*
X93534313Y-54372178D02*
X93540693Y-54478467D01*
X60590466Y-84227819D02*
X60590466Y-84942104D01*
X60590466Y-84942104D02*
X60542847Y-85084961D01*
X60542847Y-85084961D02*
X60447609Y-85180200D01*
X60447609Y-85180200D02*
X60304752Y-85227819D01*
X60304752Y-85227819D02*
X60209514Y-85227819D01*
X61019038Y-84323057D02*
X61066657Y-84275438D01*
X61066657Y-84275438D02*
X61161895Y-84227819D01*
X61161895Y-84227819D02*
X61399990Y-84227819D01*
X61399990Y-84227819D02*
X61495228Y-84275438D01*
X61495228Y-84275438D02*
X61542847Y-84323057D01*
X61542847Y-84323057D02*
X61590466Y-84418295D01*
X61590466Y-84418295D02*
X61590466Y-84513533D01*
X61590466Y-84513533D02*
X61542847Y-84656390D01*
X61542847Y-84656390D02*
X60971419Y-85227819D01*
X60971419Y-85227819D02*
X61590466Y-85227819D01*
G36*
X143015930Y-106095145D02*
G01*
X141643708Y-106095145D01*
X141643708Y-105514891D01*
X141756260Y-105514891D01*
X141756260Y-105544155D01*
X141767459Y-105571191D01*
X141788151Y-105591883D01*
X141815187Y-105603082D01*
X141829819Y-105604523D01*
X142531934Y-105604523D01*
X142646447Y-105642694D01*
X142716648Y-105712894D01*
X142754819Y-105827407D01*
X142754819Y-105910475D01*
X142756260Y-105925107D01*
X142767459Y-105952143D01*
X142788151Y-105972835D01*
X142815187Y-105984034D01*
X142844451Y-105984034D01*
X142871487Y-105972835D01*
X142892179Y-105952143D01*
X142903378Y-105925107D01*
X142904819Y-105910475D01*
X142904819Y-105815237D01*
X142904089Y-105807830D01*
X142904230Y-105805856D01*
X142903639Y-105803258D01*
X142903378Y-105800605D01*
X142902619Y-105798774D01*
X142900970Y-105791519D01*
X142853351Y-105648663D01*
X142847357Y-105635237D01*
X142845592Y-105633202D01*
X142844561Y-105630712D01*
X142835233Y-105619347D01*
X142739994Y-105524109D01*
X142728628Y-105514781D01*
X142726137Y-105513749D01*
X142724103Y-105511985D01*
X142710678Y-105505991D01*
X142567821Y-105458372D01*
X142560567Y-105456722D01*
X142558736Y-105455964D01*
X142556081Y-105455702D01*
X142553484Y-105455112D01*
X142551509Y-105455252D01*
X142544104Y-105454523D01*
X141829819Y-105454523D01*
X141815187Y-105455964D01*
X141788151Y-105467163D01*
X141767459Y-105487855D01*
X141756260Y-105514891D01*
X141643708Y-105514891D01*
X141643708Y-104815316D01*
X141754819Y-104815316D01*
X141756260Y-104822520D01*
X141756260Y-104829869D01*
X141759101Y-104836729D01*
X141760558Y-104844010D01*
X141764646Y-104850115D01*
X141767459Y-104856905D01*
X141772709Y-104862155D01*
X141776841Y-104868325D01*
X141788099Y-104877545D01*
X141788151Y-104877597D01*
X141788173Y-104877606D01*
X141788216Y-104877641D01*
X141924894Y-104968759D01*
X142006275Y-105050140D01*
X142048451Y-105134492D01*
X142056283Y-105146935D01*
X142078391Y-105166108D01*
X142106152Y-105175362D01*
X142135342Y-105173288D01*
X142161517Y-105160200D01*
X142180690Y-105138093D01*
X142189944Y-105110331D01*
X142187870Y-105081141D01*
X142182615Y-105067410D01*
X142134996Y-104972172D01*
X142131033Y-104965877D01*
X142130275Y-104964045D01*
X142128583Y-104961983D01*
X142127164Y-104959729D01*
X142125667Y-104958430D01*
X142120947Y-104952680D01*
X142058504Y-104890237D01*
X142754819Y-104890237D01*
X142754819Y-105100951D01*
X142756260Y-105115583D01*
X142767459Y-105142619D01*
X142788151Y-105163311D01*
X142815187Y-105174510D01*
X142844451Y-105174510D01*
X142871487Y-105163311D01*
X142892179Y-105142619D01*
X142903378Y-105115583D01*
X142904819Y-105100951D01*
X142904819Y-104529523D01*
X142903378Y-104514891D01*
X142892179Y-104487855D01*
X142871487Y-104467163D01*
X142844451Y-104455964D01*
X142815187Y-104455964D01*
X142788151Y-104467163D01*
X142767459Y-104487855D01*
X142756260Y-104514891D01*
X142754819Y-104529523D01*
X142754819Y-104740237D01*
X141829819Y-104740237D01*
X141829766Y-104740242D01*
X141829740Y-104740237D01*
X141829663Y-104740252D01*
X141815187Y-104741678D01*
X141808326Y-104744519D01*
X141801046Y-104745976D01*
X141794940Y-104750064D01*
X141788151Y-104752877D01*
X141782900Y-104758127D01*
X141776731Y-104762259D01*
X141772654Y-104768373D01*
X141767459Y-104773569D01*
X141764617Y-104780429D01*
X141760498Y-104786608D01*
X141759072Y-104793816D01*
X141756260Y-104800605D01*
X141756260Y-104808031D01*
X141754819Y-104815316D01*
X141643708Y-104815316D01*
X141643708Y-103767618D01*
X141754819Y-103767618D01*
X141754819Y-104005713D01*
X141756260Y-104020345D01*
X141757291Y-104022834D01*
X141757482Y-104025522D01*
X141762737Y-104039254D01*
X141810356Y-104134492D01*
X141814320Y-104140791D01*
X141815078Y-104142619D01*
X141816766Y-104144675D01*
X141818188Y-104146935D01*
X141819686Y-104148234D01*
X141824405Y-104153984D01*
X141872024Y-104201603D01*
X141883389Y-104210930D01*
X141910425Y-104222129D01*
X141939688Y-104222129D01*
X141966724Y-104210930D01*
X141987417Y-104190237D01*
X141998616Y-104163201D01*
X141998616Y-104133938D01*
X141987417Y-104106902D01*
X141978090Y-104095537D01*
X141939077Y-104056524D01*
X141904819Y-103988008D01*
X141904819Y-103785323D01*
X141939077Y-103716807D01*
X141969484Y-103686400D01*
X142038000Y-103652142D01*
X142103363Y-103652142D01*
X142217876Y-103690313D01*
X142776786Y-104249222D01*
X142788151Y-104258550D01*
X142807268Y-104266468D01*
X142815187Y-104269748D01*
X142815188Y-104269748D01*
X142844451Y-104269748D01*
X142871487Y-104258549D01*
X142892180Y-104237857D01*
X142900098Y-104218739D01*
X142903378Y-104210821D01*
X142904819Y-104196189D01*
X142904819Y-103577142D01*
X142903378Y-103562510D01*
X142892179Y-103535474D01*
X142871487Y-103514782D01*
X142844451Y-103503583D01*
X142815187Y-103503583D01*
X142788151Y-103514782D01*
X142767459Y-103535474D01*
X142756260Y-103562510D01*
X142754819Y-103577142D01*
X142754819Y-104015123D01*
X142311423Y-103571728D01*
X142300058Y-103562401D01*
X142297567Y-103561369D01*
X142295532Y-103559604D01*
X142282107Y-103553610D01*
X142139250Y-103505991D01*
X142131996Y-103504341D01*
X142130165Y-103503583D01*
X142127510Y-103503321D01*
X142124913Y-103502731D01*
X142122938Y-103502871D01*
X142115533Y-103502142D01*
X142020295Y-103502142D01*
X142005663Y-103503583D01*
X142003174Y-103504613D01*
X142000485Y-103504805D01*
X141986754Y-103510060D01*
X141891516Y-103557679D01*
X141885216Y-103561643D01*
X141883389Y-103562401D01*
X141881332Y-103564089D01*
X141879073Y-103565511D01*
X141877773Y-103567009D01*
X141872024Y-103571728D01*
X141824405Y-103619347D01*
X141819686Y-103625096D01*
X141818188Y-103626396D01*
X141816766Y-103628655D01*
X141815078Y-103630712D01*
X141814320Y-103632539D01*
X141810356Y-103638839D01*
X141762737Y-103734077D01*
X141757482Y-103747809D01*
X141757291Y-103750496D01*
X141756260Y-103752986D01*
X141754819Y-103767618D01*
X141643708Y-103767618D01*
X141643708Y-103391031D01*
X143015930Y-103391031D01*
X143015930Y-106095145D01*
G37*
X150411472Y-112981540D02*
X149832412Y-113032120D01*
X150125757Y-113476411D02*
X149259732Y-112976411D01*
X149259732Y-112976411D02*
X149450208Y-112646497D01*
X149450208Y-112646497D02*
X149539067Y-112587828D01*
X149539067Y-112587828D02*
X149604115Y-112570398D01*
X149604115Y-112570398D02*
X149710404Y-112576778D01*
X149710404Y-112576778D02*
X149834121Y-112648206D01*
X149834121Y-112648206D02*
X149892791Y-112737065D01*
X149892791Y-112737065D02*
X149910220Y-112802114D01*
X149910220Y-112802114D02*
X149903841Y-112908402D01*
X149903841Y-112908402D02*
X149713364Y-113238316D01*
X149818401Y-112199244D02*
X149800971Y-112134195D01*
X149800971Y-112134195D02*
X149807351Y-112027907D01*
X149807351Y-112027907D02*
X149926399Y-111821711D01*
X149926399Y-111821711D02*
X150015257Y-111763042D01*
X150015257Y-111763042D02*
X150080306Y-111745612D01*
X150080306Y-111745612D02*
X150186594Y-111751992D01*
X150186594Y-111751992D02*
X150269073Y-111799611D01*
X150269073Y-111799611D02*
X150368981Y-111912279D01*
X150368981Y-111912279D02*
X150578138Y-112692865D01*
X150578138Y-112692865D02*
X150887662Y-112156754D01*
X151363853Y-111331967D02*
X151078138Y-111826839D01*
X151220996Y-111579403D02*
X150354970Y-111079403D01*
X150354970Y-111079403D02*
X150431069Y-111233310D01*
X150431069Y-111233310D02*
X150465929Y-111363408D01*
X150465929Y-111363408D02*
X150459549Y-111469696D01*
D13*
%TO.C,R41*%
X106366643Y-103020500D02*
X106841157Y-103020500D01*
X106366643Y-104065500D02*
X106841157Y-104065500D01*
D14*
%TO.C,CR1*%
X80533700Y-103723000D02*
X80533700Y-104139560D01*
X80533700Y-106506840D02*
X80533700Y-106923400D01*
X80533700Y-106923400D02*
X85537500Y-106923400D01*
X85537500Y-103723000D02*
X80533700Y-103723000D01*
X85537500Y-104139560D02*
X85537500Y-103723000D01*
X85537500Y-106923400D02*
X85537500Y-106506840D01*
X79073200Y-105323200D02*
G75*
G02*
X78920800Y-105323200I-76200J0D01*
G01*
X78920800Y-105323200D02*
G75*
G02*
X79073200Y-105323200I76200J0D01*
G01*
D13*
%TO.C,R12*%
X89255256Y-131712515D02*
X87995944Y-130985451D01*
X90165256Y-130136349D02*
X88905944Y-129409285D01*
%TO.C,R27*%
X115791057Y-134498500D02*
X115316543Y-134498500D01*
X115791057Y-135543500D02*
X115316543Y-135543500D01*
%TO.C,R35*%
X71968373Y-77635321D02*
X72205630Y-77224379D01*
X72873370Y-78157821D02*
X73110627Y-77746879D01*
%TO.C,R13*%
X74209349Y-116103656D02*
X73482285Y-114844344D01*
X75785515Y-115193656D02*
X75058451Y-113934344D01*
%TO.C,C26*%
X97731064Y-106813000D02*
X97946736Y-106813000D01*
X97731064Y-107533000D02*
X97946736Y-107533000D01*
D14*
%TO.C,U7*%
X86931801Y-104381000D02*
X86931801Y-108185000D01*
X86931801Y-108185000D02*
X87380457Y-108185000D01*
X88530457Y-104381000D02*
X86931801Y-104381000D01*
X88687143Y-108185000D02*
X89680457Y-108185000D01*
X90987143Y-108185000D02*
X91980457Y-108185000D01*
X93287144Y-108185000D02*
X93735799Y-108185000D01*
X93735799Y-104381000D02*
X92137143Y-104381000D01*
X93735799Y-108185000D02*
X93735799Y-104381000D01*
X85915800Y-109833000D02*
G75*
G02*
X85661800Y-109833000I-127000J0D01*
G01*
X85661800Y-109833000D02*
G75*
G02*
X85915800Y-109833000I127000J0D01*
G01*
D13*
%TO.C,R11*%
X109888364Y-135641000D02*
X108434236Y-135641000D01*
X109888364Y-137461000D02*
X108434236Y-137461000D01*
%TO.C,R6*%
X132194544Y-59253551D02*
X133453856Y-59980615D01*
X133104544Y-57677385D02*
X134363856Y-58404449D01*
%TO.C,R4*%
X146154073Y-70818579D02*
X146391330Y-71229521D01*
X147059070Y-70296079D02*
X147296327Y-70707021D01*
%TO.C,C2*%
X140622164Y-102760000D02*
X140837836Y-102760000D01*
X140622164Y-103480000D02*
X140837836Y-103480000D01*
%TO.C,C5*%
X140652164Y-105950000D02*
X140867836Y-105950000D01*
X140652164Y-106670000D02*
X140867836Y-106670000D01*
%TO.C,R5*%
X113562936Y-51760000D02*
X115017064Y-51760000D01*
X113562936Y-53580000D02*
X115017064Y-53580000D01*
%TO.C,J7*%
X97083900Y-93703000D02*
X106243900Y-93703000D01*
X97083900Y-95408000D02*
X97083900Y-93703000D01*
X97083900Y-97418000D02*
X97083900Y-99338000D01*
X106243900Y-93703000D02*
X106243900Y-95408000D01*
X106243900Y-99338000D02*
X106243900Y-97418000D01*
%TO.C,C1*%
X140652164Y-101690000D02*
X140867836Y-101690000D01*
X140652164Y-102410000D02*
X140867836Y-102410000D01*
%TO.C,J9*%
X127483800Y-75148000D02*
X127483800Y-76398000D01*
X127783800Y-77698000D02*
X128533800Y-77698000D01*
X128533800Y-77698000D02*
X128533800Y-80648000D01*
X128533800Y-80648000D02*
X134083800Y-80648000D01*
X128733800Y-75148000D02*
X127483800Y-75148000D01*
X139633800Y-77698000D02*
X139633800Y-80648000D01*
X139633800Y-80648000D02*
X134083800Y-80648000D01*
X140383800Y-77698000D02*
X139633800Y-77698000D01*
X140393800Y-75438001D02*
X140393800Y-81408000D01*
X127773800Y-81408000D01*
X127773800Y-75438000D01*
X140393800Y-75438001D01*
X129583800Y-76198000D02*
X127783800Y-76198000D01*
X127783800Y-75448000D01*
X129583800Y-75448000D01*
X129583800Y-76198000D01*
X137083799Y-76198000D02*
X131083800Y-76198000D01*
X131083800Y-75448000D01*
X137083799Y-75448000D01*
X137083799Y-76198000D01*
X140383800Y-76198000D02*
X138583800Y-76198000D01*
X138583800Y-75448000D01*
X140383800Y-75448000D01*
X140383800Y-76198000D01*
%TO.C,R32*%
X78881130Y-119500521D02*
X78643873Y-119089579D01*
X79786127Y-118978021D02*
X79548870Y-118567079D01*
%TO.C,SW2*%
X74193800Y-98123000D02*
X74193800Y-99623000D01*
X75443800Y-102123000D02*
X79943800Y-102123000D01*
X79943800Y-95623000D02*
X75443799Y-95623000D01*
X81193799Y-99623000D02*
X81193800Y-98123000D01*
%TO.C,C11*%
X73772164Y-103520000D02*
X73987836Y-103520000D01*
X73772164Y-104240000D02*
X73987836Y-104240000D01*
%TO.C,C6*%
X135782164Y-114430000D02*
X135997836Y-114430000D01*
X135782164Y-115150000D02*
X135997836Y-115150000D01*
%TO.C,C35*%
X93300000Y-112174420D02*
X93300000Y-112455580D01*
X94320000Y-112174420D02*
X94320000Y-112455580D01*
%TO.C,R38*%
X88929479Y-59901930D02*
X89340421Y-59664673D01*
X89451979Y-60806927D02*
X89862921Y-60569670D01*
%TO.C,R34*%
X70736400Y-97842157D02*
X70736400Y-97367643D01*
X71781400Y-97842157D02*
X71781400Y-97367643D01*
%TO.C,C4*%
X140662164Y-104860000D02*
X140877836Y-104860000D01*
X140662164Y-105580000D02*
X140877836Y-105580000D01*
%TO.C,R24*%
X115811057Y-136108500D02*
X115336543Y-136108500D01*
X115811057Y-137153500D02*
X115336543Y-137153500D01*
%TO.C,J11*%
X127263800Y-89623000D02*
X127263800Y-90873000D01*
X127563800Y-92173000D02*
X128313800Y-92173000D01*
X128313800Y-92173000D02*
X128313800Y-95123000D01*
X128313800Y-95123000D02*
X133863800Y-95123000D01*
X128513800Y-89623000D02*
X127263800Y-89623000D01*
X139413800Y-92173000D02*
X139413800Y-95123000D01*
X139413800Y-95123000D02*
X133863800Y-95123000D01*
X140163800Y-92173000D02*
X139413800Y-92173000D01*
X140173800Y-89913001D02*
X140173800Y-95883000D01*
X127553800Y-95883000D01*
X127553800Y-89913000D01*
X140173800Y-89913001D01*
X129363800Y-90673000D02*
X127563800Y-90673000D01*
X127563800Y-89923000D01*
X129363800Y-89923000D01*
X129363800Y-90673000D01*
X136863799Y-90673000D02*
X130863800Y-90673000D01*
X130863800Y-89923000D01*
X136863799Y-89923000D01*
X136863799Y-90673000D01*
X140163800Y-90673000D02*
X138363800Y-90673000D01*
X138363800Y-89923000D01*
X140163800Y-89923000D01*
X140163800Y-90673000D01*
%TO.C,R22*%
X136296121Y-129296773D02*
X135885179Y-129534030D01*
X136818621Y-130201770D02*
X136407679Y-130439027D01*
%TO.C,C9*%
X134287164Y-116430000D02*
X134502836Y-116430000D01*
X134287164Y-117150000D02*
X134502836Y-117150000D01*
%TO.C,J3*%
X102853900Y-144623000D02*
X104183900Y-144623000D01*
X102853900Y-145953000D02*
X102853900Y-144623000D01*
X105453900Y-144623000D02*
X120753900Y-144623000D01*
X105453900Y-147283000D02*
X105453900Y-144623000D01*
X105453900Y-147283000D02*
X120753900Y-147283000D01*
X120753900Y-147283000D02*
X120753900Y-144623000D01*
%TO.C,R18*%
X153397400Y-91578843D02*
X153397400Y-92053357D01*
X154442400Y-91578843D02*
X154442400Y-92053357D01*
%TO.C,C3*%
X140632164Y-103800000D02*
X140847836Y-103800000D01*
X140632164Y-104520000D02*
X140847836Y-104520000D01*
%TO.C,R14*%
X68508900Y-92816964D02*
X68508900Y-91362836D01*
X70328900Y-92816964D02*
X70328900Y-91362836D01*
%TO.C,R17*%
X144703973Y-71626879D02*
X144941230Y-72037821D01*
X145608970Y-71104379D02*
X145846227Y-71515321D01*
%TO.C,J8*%
X112700000Y-57050000D02*
X112700000Y-58300000D01*
X113000000Y-59600000D02*
X113750000Y-59600000D01*
X113750000Y-59600000D02*
X113750000Y-62550000D01*
X113750000Y-62550000D02*
X119300000Y-62550000D01*
X113950000Y-57050000D02*
X112700000Y-57050000D01*
X124850000Y-59600000D02*
X124850000Y-62550000D01*
X124850000Y-62550000D02*
X119300000Y-62550000D01*
X125600000Y-59600000D02*
X124850000Y-59600000D01*
X125610000Y-57340001D02*
X125610000Y-63310000D01*
X112990000Y-63310000D01*
X112990000Y-57340000D01*
X125610000Y-57340001D01*
X114800000Y-58100000D02*
X113000000Y-58100000D01*
X113000000Y-57350000D01*
X114800000Y-57350000D01*
X114800000Y-58100000D01*
X122299999Y-58100000D02*
X116300000Y-58100000D01*
X116300000Y-57350000D01*
X122299999Y-57350000D01*
X122299999Y-58100000D01*
X125600000Y-58100000D02*
X123800000Y-58100000D01*
X123800000Y-57350000D01*
X125600000Y-57350000D01*
X125600000Y-58100000D01*
%TO.C,R26*%
X108672743Y-51617500D02*
X109147257Y-51617500D01*
X108672743Y-52662500D02*
X109147257Y-52662500D01*
%TO.C,J6*%
X115650000Y-108225000D02*
X115650000Y-109475000D01*
X115950000Y-110775000D02*
X116700000Y-110775000D01*
X116700000Y-110775000D02*
X116700000Y-113725000D01*
X116700000Y-113725000D02*
X119750000Y-113725000D01*
X116900000Y-108225000D02*
X115650000Y-108225000D01*
X122800000Y-110775000D02*
X122800000Y-113725000D01*
X122800000Y-113725000D02*
X119750000Y-113725000D01*
X123550000Y-110775000D02*
X122800000Y-110775000D01*
X115940000Y-108515000D02*
X123560000Y-108515000D01*
X123560000Y-114485000D01*
X115940000Y-114485000D01*
X115940000Y-108515000D01*
X115950000Y-108525000D02*
X117750000Y-108525000D01*
X117750000Y-109275000D01*
X115950000Y-109275000D01*
X115950000Y-108525000D01*
X119250000Y-108525000D02*
X120250000Y-108525000D01*
X120250000Y-109275000D01*
X119250000Y-109275000D01*
X119250000Y-108525000D01*
X121750000Y-108525000D02*
X123550000Y-108525000D01*
X123550000Y-109275000D01*
X121750000Y-109275000D01*
X121750000Y-108525000D01*
%TO.C,R20*%
X150258630Y-111914679D02*
X150021373Y-112325621D01*
X151163627Y-112437179D02*
X150926370Y-112848121D01*
%TO.C,R31*%
X77315030Y-120427821D02*
X77077773Y-120016879D01*
X78220027Y-119905321D02*
X77982770Y-119494379D01*
%TO.C,R37*%
X88109479Y-58481730D02*
X88520421Y-58244473D01*
X88631979Y-59386727D02*
X89042921Y-59149470D01*
%TO.C,R30*%
X95734221Y-132131127D02*
X95323279Y-131893870D01*
X96256721Y-131226130D02*
X95845779Y-130988873D01*
%TO.C,U3*%
X127733800Y-102283000D02*
X128683800Y-102283000D01*
X127733800Y-103233000D02*
X127733800Y-102283000D01*
X127733800Y-112503000D02*
X127733800Y-111553000D01*
X128683800Y-112503000D02*
X127733800Y-112503000D01*
X137003800Y-102283000D02*
X137953800Y-102283000D01*
X137953800Y-102283000D02*
X137953800Y-103233000D01*
X137953800Y-111553000D02*
X137953800Y-112503000D01*
X137953800Y-112503000D02*
X137003800Y-112503000D01*
X127093800Y-103233000D02*
X126753800Y-102763000D01*
X127433801Y-102763000D01*
X127093800Y-103233000D01*
G36*
X127093800Y-103233000D02*
G01*
X126753800Y-102763000D01*
X127433801Y-102763000D01*
X127093800Y-103233000D01*
G37*
%TO.C,R40*%
X97581543Y-104850500D02*
X98056057Y-104850500D01*
X97581543Y-105895500D02*
X98056057Y-105895500D01*
%TO.C,R19*%
X151797400Y-91578843D02*
X151797400Y-92053357D01*
X152842400Y-91578843D02*
X152842400Y-92053357D01*
D15*
%TO.C,Q13*%
X95350000Y-113025001D02*
X95350000Y-111875000D01*
X95410000Y-111175000D02*
X98310000Y-111175000D01*
X95410000Y-111525000D02*
X95410000Y-111175000D01*
X98310000Y-111175000D02*
X98310000Y-111525000D01*
X98310000Y-111525000D02*
X95410000Y-111525000D01*
%TO.C,Q14*%
X99900000Y-113025001D02*
X99900000Y-111875000D01*
X99960000Y-111175000D02*
X102860000Y-111175000D01*
X99960000Y-111525000D02*
X99960000Y-111175000D01*
X102860000Y-111175000D02*
X102860000Y-111525000D01*
X102860000Y-111525000D02*
X99960000Y-111525000D01*
D13*
%TO.C,R1*%
X128022379Y-56189470D02*
X128433321Y-56426727D01*
X128544879Y-55284473D02*
X128955821Y-55521730D01*
D14*
%TO.C,CR2*%
X80533700Y-108329800D02*
X80533700Y-108746360D01*
X80533700Y-111113640D02*
X80533700Y-111530200D01*
X80533700Y-111530200D02*
X85537500Y-111530200D01*
X85537500Y-108329800D02*
X80533700Y-108329800D01*
X85537500Y-108746360D02*
X85537500Y-108329800D01*
X85537500Y-111530200D02*
X85537500Y-111113640D01*
X79073200Y-109930000D02*
G75*
G02*
X78920800Y-109930000I-76200J0D01*
G01*
X78920800Y-109930000D02*
G75*
G02*
X79073200Y-109930000I76200J0D01*
G01*
D13*
%TO.C,U4*%
X101638800Y-104523000D02*
X104858800Y-104523000D01*
X101638800Y-104698000D02*
X101638800Y-104523000D01*
X101638800Y-107743000D02*
X101638800Y-107568000D01*
X104858800Y-104523000D02*
X104858800Y-104698000D01*
X104858800Y-107568000D02*
X104858800Y-107743000D01*
X104858800Y-107743000D02*
X101638800Y-107743000D01*
X101088800Y-104693000D02*
X100848800Y-104363000D01*
X101328800Y-104363000D01*
X101088800Y-104693000D01*
G36*
X101088800Y-104693000D02*
G01*
X100848800Y-104363000D01*
X101328800Y-104363000D01*
X101088800Y-104693000D01*
G37*
%TO.C,D17*%
X101883800Y-102828000D02*
X101883800Y-104298000D01*
X101883800Y-104298000D02*
X104168800Y-104298000D01*
X104168800Y-102828000D02*
X101883800Y-102828000D01*
%TO.C,R28*%
X94774221Y-133831127D02*
X94363279Y-133593870D01*
X95296721Y-132926130D02*
X94885779Y-132688873D01*
%TO.C,R43*%
X93782743Y-100997500D02*
X94257257Y-100997500D01*
X93782743Y-102042500D02*
X94257257Y-102042500D01*
%TO.C,R29*%
X85102743Y-100887500D02*
X85577257Y-100887500D01*
X85102743Y-101932500D02*
X85577257Y-101932500D01*
%TO.C,R25*%
X128787743Y-115827500D02*
X129262257Y-115827500D01*
X128787743Y-116872500D02*
X129262257Y-116872500D01*
D14*
%TO.C,SW1*%
X84645699Y-98874655D02*
X84645700Y-99904700D01*
X84645700Y-95256500D02*
X84645700Y-96286544D01*
X84645700Y-99904700D02*
X93510300Y-99904701D01*
X86944400Y-91268700D02*
X86944400Y-95256499D01*
X86944400Y-95256499D02*
X84645700Y-95256500D01*
X91211600Y-91268700D02*
X86944400Y-91268700D01*
X91211600Y-95256500D02*
X91211600Y-91268700D01*
X93510300Y-96286545D02*
X93510301Y-95256500D01*
X93510300Y-99904701D02*
X93510300Y-98874655D01*
X93510301Y-95256500D02*
X91211600Y-95256500D01*
D16*
X95669300Y-97580600D02*
G75*
G02*
X94907300Y-97580600I-381000J0D01*
G01*
X94907300Y-97580600D02*
G75*
G02*
X95669300Y-97580600I381000J0D01*
G01*
D13*
%TO.C,R2*%
X108872743Y-53617500D02*
X109347257Y-53617500D01*
X108872743Y-54662500D02*
X109347257Y-54662500D01*
%TO.C,R33*%
X68996400Y-97892157D02*
X68996400Y-97417643D01*
X70041400Y-97892157D02*
X70041400Y-97417643D01*
%TO.C,J5*%
X107200000Y-108100000D02*
X107200000Y-109350000D01*
X107500000Y-110650000D02*
X108250000Y-110650000D01*
X108250000Y-110650000D02*
X108250000Y-113600000D01*
X108250000Y-113600000D02*
X111300000Y-113600000D01*
X108450000Y-108100000D02*
X107200000Y-108100000D01*
X114350000Y-110650000D02*
X114350000Y-113600000D01*
X114350000Y-113600000D02*
X111300000Y-113600000D01*
X115100000Y-110650000D02*
X114350000Y-110650000D01*
X107490000Y-108390000D02*
X115110000Y-108390000D01*
X115110000Y-114360000D01*
X107490000Y-114360000D01*
X107490000Y-108390000D01*
X107500000Y-108400000D02*
X109300000Y-108400000D01*
X109300000Y-109150000D01*
X107500000Y-109150000D01*
X107500000Y-108400000D01*
X110800000Y-108400000D02*
X111800000Y-108400000D01*
X111800000Y-109150000D01*
X110800000Y-109150000D01*
X110800000Y-108400000D01*
X113300000Y-108400000D02*
X115100000Y-108400000D01*
X115100000Y-109150000D01*
X113300000Y-109150000D01*
X113300000Y-108400000D01*
%TO.C,R15*%
X73984185Y-73088956D02*
X74711249Y-71829644D01*
X75560351Y-73998956D02*
X76287415Y-72739644D01*
D14*
%TO.C,U1*%
X129185785Y-125711700D02*
X133402215Y-125711700D01*
X133402215Y-117558300D02*
X129185785Y-117558300D01*
D17*
G36*
X127382401Y-124100499D02*
G01*
X127128400Y-124100499D01*
X127128400Y-123719499D01*
X127382400Y-123719499D01*
X127382401Y-124100499D01*
G37*
G36*
X135459600Y-120850501D02*
G01*
X135205600Y-120850501D01*
X135205599Y-120469501D01*
X135459600Y-120469501D01*
X135459600Y-120850501D01*
G37*
D13*
%TO.C,C36*%
X89618748Y-111820000D02*
X91041252Y-111820000D01*
X89618748Y-113640000D02*
X91041252Y-113640000D01*
%TO.C,R36*%
X73370173Y-78427321D02*
X73607430Y-78016379D01*
X74275170Y-78949821D02*
X74512427Y-78538879D01*
%TO.C,R10*%
X131606256Y-131684085D02*
X130346944Y-132411149D01*
X132516256Y-133260251D02*
X131256944Y-133987315D01*
%TO.C,FB1*%
X124577500Y-110532257D02*
X124577500Y-110057743D01*
X125622500Y-110532257D02*
X125622500Y-110057743D01*
%TO.C,R9*%
X147502149Y-116374044D02*
X146775085Y-117633356D01*
X149078315Y-117284044D02*
X148351251Y-118543356D01*
%TO.C,C7*%
X126092164Y-112010000D02*
X126307836Y-112010000D01*
X126092164Y-112730000D02*
X126307836Y-112730000D01*
%TO.C,R23*%
X135465621Y-127823073D02*
X135054679Y-128060330D01*
X135988121Y-128728070D02*
X135577179Y-128965327D01*
%TO.C,R8*%
X152649900Y-96834036D02*
X152649900Y-98288164D01*
X154469900Y-96834036D02*
X154469900Y-98288164D01*
%TO.C,R7*%
X148611485Y-75669944D02*
X149338549Y-76929256D01*
X150187651Y-74759944D02*
X150914715Y-76019256D01*
%TO.C,J10*%
X127283800Y-82473000D02*
X127283800Y-83723000D01*
X127583800Y-85023000D02*
X128333800Y-85023000D01*
X128333800Y-85023000D02*
X128333800Y-87973000D01*
X128333800Y-87973000D02*
X133883800Y-87973000D01*
X128533800Y-82473000D02*
X127283800Y-82473000D01*
X139433800Y-85023000D02*
X139433800Y-87973000D01*
X139433800Y-87973000D02*
X133883800Y-87973000D01*
X140183800Y-85023000D02*
X139433800Y-85023000D01*
X140193800Y-82763001D02*
X140193800Y-88733000D01*
X127573800Y-88733000D01*
X127573800Y-82763000D01*
X140193800Y-82763001D01*
X129383800Y-83523000D02*
X127583800Y-83523000D01*
X127583800Y-82773000D01*
X129383800Y-82773000D01*
X129383800Y-83523000D01*
X136883799Y-83523000D02*
X130883800Y-83523000D01*
X130883800Y-82773000D01*
X136883799Y-82773000D01*
X136883799Y-83523000D01*
X140183800Y-83523000D02*
X138383800Y-83523000D01*
X138383800Y-82773000D01*
X140183800Y-82773000D01*
X140183800Y-83523000D01*
%TO.C,R3*%
X127192279Y-57767970D02*
X127603221Y-58005227D01*
X127714779Y-56862973D02*
X128125721Y-57100230D01*
%TO.C,C8*%
X126092164Y-113980000D02*
X126307836Y-113980000D01*
X126092164Y-114700000D02*
X126307836Y-114700000D01*
%TO.C,J4*%
X161613900Y-101343000D02*
X161613900Y-86043000D01*
X161613900Y-103943000D02*
X161613900Y-102613000D01*
X162943900Y-103943000D02*
X161613900Y-103943000D01*
X164273900Y-86043000D02*
X161613900Y-86043000D01*
X164273900Y-101343000D02*
X161613900Y-101343000D01*
X164273900Y-101343000D02*
X164273900Y-86043000D01*
%TO.C,R42*%
X104157500Y-110672743D02*
X104157500Y-111147257D01*
X105202500Y-110672743D02*
X105202500Y-111147257D01*
%TO.C,J1*%
X109133800Y-95073000D02*
X109133800Y-106793000D01*
X109133800Y-106793000D02*
X110553800Y-106793000D01*
X110553800Y-106793000D02*
X110553800Y-102293000D01*
X116693800Y-95073000D02*
X109133800Y-95073000D01*
X116693800Y-95073000D02*
X124253800Y-95073000D01*
X121393799Y-104883000D02*
X121693800Y-104283000D01*
X121693800Y-104283000D02*
X121993801Y-104883000D01*
X121993801Y-104883000D02*
X121393799Y-104883000D01*
X122833800Y-106793000D02*
X122833800Y-102293000D01*
X124253800Y-95073000D02*
X124253800Y-106793000D01*
X124253800Y-106793000D02*
X122833800Y-106793000D01*
X111943800Y-101183000D02*
X111443801Y-101183000D01*
X111443800Y-95683001D01*
X111943800Y-95683000D01*
X111943800Y-101183000D01*
X114443800Y-101183000D02*
X113943800Y-101183000D01*
X113943800Y-95683000D01*
X114443800Y-95683000D01*
X114443800Y-101183000D01*
X116943800Y-101183000D02*
X116443800Y-101183000D01*
X116443800Y-95683001D01*
X116943800Y-95683000D01*
X116943800Y-101183000D01*
X119443800Y-101183000D02*
X118943800Y-101183000D01*
X118943800Y-95683000D01*
X119443800Y-95683000D01*
X119443800Y-101183000D01*
X121943800Y-101183000D02*
X121443800Y-101183000D01*
X121443800Y-95683000D01*
X121943800Y-95683000D01*
X121943800Y-101183000D01*
D18*
%TO.C,Y1*%
X125339999Y-99620000D02*
X125340000Y-98319999D01*
X128540001Y-98320000D02*
X128540000Y-99620001D01*
D15*
X124840000Y-98970000D02*
G75*
G02*
X124640000Y-98970000I-100000J0D01*
G01*
X124640000Y-98970000D02*
G75*
G02*
X124840000Y-98970000I100000J0D01*
G01*
D13*
%TO.C,R16*%
X92759944Y-55961249D02*
X94019256Y-55234185D01*
X93669944Y-57537415D02*
X94929256Y-56810351D01*
%TO.C,R39*%
X97586643Y-103190500D02*
X98061157Y-103190500D01*
X97586643Y-104235500D02*
X98061157Y-104235500D01*
%TO.C,J2*%
X59593800Y-88813000D02*
X59593800Y-104113000D01*
X59593800Y-88813000D02*
X62253800Y-88813000D01*
X59593800Y-104113000D02*
X62253800Y-104113000D01*
X60923800Y-86213000D02*
X62253800Y-86213000D01*
X62253800Y-86213000D02*
X62253800Y-87543000D01*
X62253800Y-88813000D02*
X62253800Y-104113000D01*
%TO.C,J12*%
X143280000Y-106770000D02*
X143280000Y-108020000D01*
X143280000Y-108020000D02*
X144530000Y-108020000D01*
X145830000Y-100120000D02*
X145830000Y-100870000D01*
X145830000Y-100870000D02*
X148780000Y-100870000D01*
X145830000Y-106970000D02*
X148780000Y-106970000D01*
X145830000Y-107720000D02*
X145830000Y-106970000D01*
X148780000Y-100870000D02*
X148780000Y-103920000D01*
X148780000Y-106970000D02*
X148780000Y-103920000D01*
X149540000Y-107730000D02*
X143570000Y-107730000D01*
X143570001Y-100110000D01*
X149540000Y-100110000D01*
X149540000Y-107730000D01*
X144330000Y-101920000D02*
X143580000Y-101920000D01*
X143580000Y-100120000D01*
X144330000Y-100120000D01*
X144330000Y-101920000D01*
X144330000Y-104420000D02*
X143580000Y-104420000D01*
X143580000Y-103420001D01*
X144330000Y-103420000D01*
X144330000Y-104420000D01*
X144330000Y-107720000D02*
X143580000Y-107720000D01*
X143580000Y-105920000D01*
X144330000Y-105920000D01*
X144330000Y-107720000D01*
%TO.C,R21*%
X148766730Y-111015679D02*
X148529473Y-111426621D01*
X149671727Y-111538179D02*
X149434470Y-111949121D01*
%TD*%
%LPC*%
D19*
%TO.C,R41*%
X105778900Y-103543000D03*
X107428900Y-103543000D03*
%TD*%
D20*
%TO.C,CR1*%
X80825800Y-105323200D03*
X85245400Y-105323200D03*
%TD*%
D21*
%TO.C,R12*%
X90347162Y-131292150D03*
X87814038Y-129829650D03*
%TD*%
D22*
%TO.C,R27*%
X116378800Y-135021000D03*
X114728800Y-135021000D03*
%TD*%
D23*
%TO.C,R35*%
X72127000Y-78405571D03*
X72952000Y-76976629D03*
%TD*%
D24*
%TO.C,R13*%
X75365150Y-116285562D03*
X73902650Y-113752438D03*
%TD*%
D25*
%TO.C,C26*%
X97358900Y-107173000D03*
X98318900Y-107173000D03*
%TD*%
D26*
%TO.C,U7*%
X88033800Y-109308000D03*
X90333800Y-109308000D03*
X92633800Y-109308000D03*
D27*
X90333800Y-103258000D03*
%TD*%
D28*
%TO.C,R11*%
X110623800Y-136551000D03*
X107698800Y-136551000D03*
%TD*%
D29*
%TO.C,R6*%
X132012638Y-58097750D03*
X134545762Y-59560250D03*
%TD*%
D30*
%TO.C,R4*%
X146312700Y-70048329D03*
X147137700Y-71477271D03*
%TD*%
D25*
%TO.C,C2*%
X140250000Y-103120000D03*
X141210000Y-103120000D03*
%TD*%
%TO.C,C5*%
X140280000Y-106310000D03*
X141240000Y-106310000D03*
%TD*%
D31*
%TO.C,R5*%
X112827500Y-52670000D03*
X115752500Y-52670000D03*
%TD*%
D32*
%TO.C,J7*%
X104553900Y-100093000D03*
X98773900Y-100093000D03*
D33*
X105013900Y-101158000D03*
X104213900Y-101158000D03*
X102913900Y-101158000D03*
X101913900Y-101158000D03*
X101413900Y-101158000D03*
X100413900Y-101158000D03*
X99113900Y-101158000D03*
X98313900Y-101158000D03*
X98613901Y-101158000D03*
X99413900Y-101158000D03*
X99913901Y-101158000D03*
X100913900Y-101158000D03*
X102413900Y-101158000D03*
X103413899Y-101158000D03*
X103913900Y-101158000D03*
X104713899Y-101158000D03*
D34*
X105983900Y-100593000D03*
D35*
X105983900Y-96413000D03*
D34*
X97343900Y-100593000D03*
D35*
X97343900Y-96413000D03*
%TD*%
D25*
%TO.C,C1*%
X140280000Y-102050000D03*
X141240000Y-102050000D03*
%TD*%
D36*
%TO.C,J9*%
X130333800Y-77898000D03*
D37*
X132833800Y-77898000D03*
X135333800Y-77898000D03*
X137833800Y-77898000D03*
%TD*%
D38*
%TO.C,R32*%
X79627500Y-119748271D03*
X78802500Y-118319329D03*
%TD*%
D39*
%TO.C,SW2*%
X74443800Y-96623000D03*
X80943800Y-96623000D03*
X74443800Y-101123000D03*
X80943800Y-101123000D03*
%TD*%
D25*
%TO.C,C11*%
X73400000Y-103880000D03*
X74360000Y-103880000D03*
%TD*%
%TO.C,C6*%
X135410000Y-114790000D03*
X136370000Y-114790000D03*
%TD*%
D40*
%TO.C,C35*%
X93810000Y-111540000D03*
X93810000Y-113090000D03*
%TD*%
D41*
%TO.C,R38*%
X88681729Y-60648300D03*
X90110671Y-59823300D03*
%TD*%
D42*
%TO.C,R34*%
X71258900Y-98429900D03*
X71258900Y-96779900D03*
%TD*%
D25*
%TO.C,C4*%
X140290000Y-105220000D03*
X141250000Y-105220000D03*
%TD*%
D22*
%TO.C,R24*%
X116398800Y-136631000D03*
X114748800Y-136631000D03*
%TD*%
D36*
%TO.C,J11*%
X130113800Y-92373000D03*
D37*
X132613800Y-92373000D03*
X135113800Y-92373000D03*
X137613800Y-92373000D03*
%TD*%
D43*
%TO.C,R22*%
X137066371Y-129455400D03*
X135637429Y-130280400D03*
%TD*%
D25*
%TO.C,C9*%
X133915000Y-116790000D03*
X134875000Y-116790000D03*
%TD*%
D44*
%TO.C,J3*%
X104183900Y-145953000D03*
D45*
X106723900Y-145953000D03*
X109263900Y-145953000D03*
X111803900Y-145953000D03*
X114343900Y-145953000D03*
X116883900Y-145953000D03*
X119423900Y-145953000D03*
%TD*%
D46*
%TO.C,R18*%
X153919900Y-90991100D03*
X153919900Y-92641100D03*
%TD*%
D25*
%TO.C,C3*%
X140260000Y-104160000D03*
X141220000Y-104160000D03*
%TD*%
D47*
%TO.C,R14*%
X69418900Y-93552400D03*
X69418900Y-90627400D03*
%TD*%
D30*
%TO.C,R17*%
X144862600Y-70856629D03*
X145687600Y-72285571D03*
%TD*%
D36*
%TO.C,J8*%
X115550000Y-59800000D03*
D37*
X118050000Y-59800000D03*
X120550000Y-59800000D03*
X123050000Y-59800000D03*
%TD*%
D19*
%TO.C,R26*%
X108085000Y-52140000D03*
X109735000Y-52140000D03*
%TD*%
D48*
%TO.C,J6*%
X118500000Y-110975000D03*
D49*
X121000000Y-110975000D03*
%TD*%
D50*
%TO.C,R20*%
X151005000Y-111666929D03*
X150180000Y-113095871D03*
%TD*%
D38*
%TO.C,R31*%
X78061400Y-120675571D03*
X77236400Y-119246629D03*
%TD*%
D41*
%TO.C,R37*%
X87861729Y-59228100D03*
X89290671Y-58403100D03*
%TD*%
D51*
%TO.C,R30*%
X96504471Y-131972500D03*
X95075529Y-131147500D03*
%TD*%
D52*
%TO.C,U3*%
X127168800Y-103643000D03*
X127168800Y-104143000D03*
X127168800Y-104643000D03*
X127168800Y-105143000D03*
X127168800Y-105643000D03*
X127168800Y-106143000D03*
X127168800Y-106643000D03*
X127168800Y-107143000D03*
X127168800Y-107643000D03*
X127168800Y-108143000D03*
X127168800Y-108643000D03*
X127168800Y-109143000D03*
X127168800Y-109643000D03*
X127168800Y-110143000D03*
X127168800Y-110643000D03*
X127168800Y-111143000D03*
D53*
X129093800Y-113068000D03*
X129593800Y-113068000D03*
X130093800Y-113068000D03*
X130593800Y-113068000D03*
X131093800Y-113068000D03*
X131593800Y-113068000D03*
X132093800Y-113068000D03*
X132593800Y-113068000D03*
X133093800Y-113068000D03*
X133593800Y-113068000D03*
X134093800Y-113068000D03*
X134593800Y-113068000D03*
X135093800Y-113068000D03*
X135593800Y-113068000D03*
X136093800Y-113068000D03*
X136593800Y-113068000D03*
D52*
X138518800Y-111143000D03*
X138518800Y-110643000D03*
X138518800Y-110143000D03*
X138518800Y-109643000D03*
X138518800Y-109143000D03*
X138518800Y-108643000D03*
X138518800Y-108143000D03*
X138518800Y-107643000D03*
X138518800Y-107143000D03*
X138518800Y-106643000D03*
X138518800Y-106143000D03*
X138518800Y-105643000D03*
X138518800Y-105143000D03*
X138518800Y-104643000D03*
X138518800Y-104143000D03*
X138518800Y-103643000D03*
D53*
X136593800Y-101718000D03*
X136093800Y-101718000D03*
X135593800Y-101718000D03*
X135093800Y-101718000D03*
X134593800Y-101718000D03*
X134093800Y-101718000D03*
X133593800Y-101718000D03*
X133093800Y-101718000D03*
X132593800Y-101718000D03*
X132093800Y-101718000D03*
X131593800Y-101718000D03*
X131093800Y-101718000D03*
X130593800Y-101718000D03*
X130093800Y-101718000D03*
X129593800Y-101718000D03*
X129093800Y-101718000D03*
%TD*%
D19*
%TO.C,R40*%
X96993800Y-105373000D03*
X98643800Y-105373000D03*
%TD*%
D46*
%TO.C,R19*%
X152319900Y-90991100D03*
X152319900Y-92641100D03*
%TD*%
D54*
%TO.C,Q13*%
X95900000Y-112450000D03*
X97820000Y-112450000D03*
X96860000Y-110250000D03*
%TD*%
%TO.C,Q14*%
X100450000Y-112450000D03*
X102370000Y-112450000D03*
X101410000Y-110250000D03*
%TD*%
D55*
%TO.C,R1*%
X127774629Y-55443100D03*
X129203571Y-56268100D03*
%TD*%
D20*
%TO.C,CR2*%
X80825800Y-109930000D03*
X85245400Y-109930000D03*
%TD*%
D56*
%TO.C,U4*%
X101136300Y-105133001D03*
X101136300Y-105633000D03*
X101136300Y-106133000D03*
X101136300Y-106633000D03*
X101136300Y-107132999D03*
X105361300Y-107132999D03*
X105361300Y-106633000D03*
X105361300Y-106133000D03*
X105361300Y-105633000D03*
X105361300Y-105133001D03*
%TD*%
D57*
%TO.C,D17*%
X102581300Y-103563000D03*
X104156300Y-103563000D03*
%TD*%
D51*
%TO.C,R28*%
X95544471Y-133672500D03*
X94115529Y-132847500D03*
%TD*%
D19*
%TO.C,R43*%
X93195000Y-101520000D03*
X94845000Y-101520000D03*
%TD*%
%TO.C,R29*%
X84515000Y-101410000D03*
X86165000Y-101410000D03*
%TD*%
%TO.C,R25*%
X128200000Y-116350000D03*
X129850000Y-116350000D03*
%TD*%
D58*
%TO.C,SW1*%
X91078000Y-97580600D03*
X89078000Y-97580600D03*
X87078000Y-97580600D03*
D59*
X93177998Y-97580600D03*
X84978001Y-97580600D03*
%TD*%
D19*
%TO.C,R2*%
X108285000Y-54140000D03*
X109935000Y-54140000D03*
%TD*%
D42*
%TO.C,R33*%
X69518900Y-98479900D03*
X69518900Y-96829900D03*
%TD*%
D48*
%TO.C,J5*%
X110050000Y-110850000D03*
D49*
X112550000Y-110850000D03*
%TD*%
D60*
%TO.C,R15*%
X74404550Y-74180862D03*
X75867050Y-71647738D03*
%TD*%
D61*
%TO.C,U1*%
X128373000Y-118060001D03*
X128373000Y-118710000D03*
X128373000Y-119359997D03*
X128373000Y-120009999D03*
X128373000Y-120659997D03*
X128373000Y-121309999D03*
X128373000Y-121959999D03*
X128373000Y-122609999D03*
X128373000Y-123259998D03*
X128373000Y-123909999D03*
X128373000Y-124559998D03*
X128373000Y-125209999D03*
X134215000Y-125209999D03*
X134215000Y-124560000D03*
X134215000Y-123909999D03*
X134215000Y-123260001D03*
X134215000Y-122609999D03*
X134215000Y-121960001D03*
X134215000Y-121310001D03*
X134215000Y-120660001D03*
X134215000Y-120010002D03*
X134215000Y-119360001D03*
X134215000Y-118710002D03*
X134215000Y-118060001D03*
%TD*%
D62*
%TO.C,C36*%
X88855000Y-112730000D03*
X91805000Y-112730000D03*
%TD*%
D23*
%TO.C,R36*%
X73528800Y-79197571D03*
X74353800Y-77768629D03*
%TD*%
D63*
%TO.C,R10*%
X132698162Y-132104450D03*
X130165038Y-133566950D03*
%TD*%
D42*
%TO.C,FB1*%
X125100000Y-111120000D03*
X125100000Y-109470000D03*
%TD*%
D64*
%TO.C,REF\u002A\u002A*%
X162200000Y-117000000D03*
%TD*%
D65*
%TO.C,R9*%
X148657950Y-116192138D03*
X147195450Y-118725262D03*
%TD*%
D25*
%TO.C,C7*%
X125720000Y-112370000D03*
X126680000Y-112370000D03*
%TD*%
D64*
%TO.C,REF\u002A\u002A*%
X61350000Y-73100000D03*
%TD*%
D43*
%TO.C,R23*%
X136235871Y-127981700D03*
X134806929Y-128806700D03*
%TD*%
D66*
%TO.C,R8*%
X153559900Y-96098600D03*
X153559900Y-99023600D03*
%TD*%
D64*
%TO.C,REF\u002A\u002A*%
X61350000Y-116950000D03*
%TD*%
D67*
%TO.C,R7*%
X149031850Y-74578038D03*
X150494350Y-77111162D03*
%TD*%
D64*
%TO.C,REF\u002A\u002A*%
X162250000Y-73100000D03*
%TD*%
D36*
%TO.C,J10*%
X130133800Y-85223000D03*
D37*
X132633800Y-85223000D03*
X135133800Y-85223000D03*
X137633800Y-85223000D03*
%TD*%
D55*
%TO.C,R3*%
X126944529Y-57021600D03*
X128373471Y-57846600D03*
%TD*%
D25*
%TO.C,C8*%
X125720000Y-114340000D03*
X126680000Y-114340000D03*
%TD*%
D44*
%TO.C,J4*%
X162943900Y-102613000D03*
D45*
X162943900Y-100073000D03*
X162943900Y-97533000D03*
X162943900Y-94993000D03*
X162943900Y-92453000D03*
X162943900Y-89913000D03*
X162943900Y-87373000D03*
%TD*%
D46*
%TO.C,R42*%
X104680000Y-110085000D03*
X104680000Y-111735000D03*
%TD*%
D68*
%TO.C,J1*%
X121693800Y-102783000D03*
D37*
X119193800Y-102783000D03*
X116693800Y-102783000D03*
X114193800Y-102783000D03*
X111693800Y-102783000D03*
%TD*%
D69*
%TO.C,Y1*%
X125990000Y-98970000D03*
D70*
X126940000Y-98970000D03*
D69*
X127890000Y-98970000D03*
%TD*%
D71*
%TO.C,R16*%
X92578038Y-57117050D03*
X95111162Y-55654550D03*
%TD*%
D19*
%TO.C,R39*%
X96998900Y-103713000D03*
X98648900Y-103713000D03*
%TD*%
D44*
%TO.C,J2*%
X60923800Y-87543000D03*
D45*
X60923800Y-90083000D03*
X60923800Y-92623000D03*
X60923800Y-95163000D03*
X60923800Y-97703000D03*
X60923800Y-100243000D03*
X60923800Y-102783000D03*
%TD*%
D72*
%TO.C,J12*%
X146030000Y-105170000D03*
D73*
X146030000Y-102670000D03*
%TD*%
D50*
%TO.C,R21*%
X149513100Y-110767929D03*
X148688100Y-112196871D03*
%TD*%
D74*
%TO.C,D13*%
X71367100Y-72181800D03*
D75*
X72637100Y-69982095D03*
%TD*%
D76*
%TO.C,Q5*%
X154372900Y-112996500D03*
D75*
X153102900Y-115196205D03*
%TD*%
D77*
%TO.C,Q8*%
X93785700Y-137379300D03*
D75*
X91585995Y-136109300D03*
%TD*%
D78*
%TO.C,D11*%
X72008700Y-117956500D03*
D75*
X70738700Y-115756795D03*
%TD*%
D79*
%TO.C,D5*%
X152483400Y-72783700D03*
D75*
X153753400Y-74983405D03*
%TD*%
D80*
%TO.C,D4*%
X134102100Y-55082200D03*
D75*
X136301805Y-56352200D03*
%TD*%
D79*
%TO.C,Q3*%
X149217900Y-67867800D03*
D75*
X150487900Y-70067505D03*
%TD*%
D80*
%TO.C,Q2*%
X129276400Y-52180600D03*
D75*
X131476105Y-53450600D03*
%TD*%
D81*
%TO.C,D8*%
X134066500Y-135484600D03*
D75*
X131866795Y-136754600D03*
%TD*%
D77*
%TO.C,D10*%
X88418700Y-134315200D03*
D75*
X86218995Y-133045200D03*
%TD*%
D78*
%TO.C,Q9*%
X75086700Y-123107700D03*
D75*
X73816700Y-120907995D03*
%TD*%
D82*
%TO.C,Q7*%
X116822800Y-140443200D03*
D75*
X114282800Y-140443200D03*
%TD*%
D83*
%TO.C,Q12*%
X85577700Y-56332100D03*
D75*
X87777405Y-55062100D03*
%TD*%
D81*
%TO.C,Q6*%
X139236300Y-132419000D03*
D75*
X137036595Y-133689000D03*
%TD*%
D82*
%TO.C,Q1*%
X107603800Y-48543000D03*
D75*
X110143800Y-48543000D03*
%TD*%
D76*
%TO.C,D7*%
X151674700Y-118089800D03*
D75*
X150404700Y-120289505D03*
%TD*%
D82*
%TO.C,D6*%
X157331400Y-96223600D03*
D75*
X157331400Y-98763600D03*
%TD*%
D83*
%TO.C,D14*%
X90935500Y-53562000D03*
D75*
X93135205Y-52292000D03*
%TD*%
D74*
%TO.C,Q11*%
X68672300Y-77069200D03*
D75*
X69942300Y-74869495D03*
%TD*%
D82*
%TO.C,Q10*%
X65901100Y-98954900D03*
D75*
X65901100Y-96414900D03*
%TD*%
D82*
%TO.C,D9*%
X110412800Y-140483200D03*
D75*
X107872800Y-140483200D03*
%TD*%
D82*
%TO.C,Q4*%
X157481400Y-90493600D03*
D75*
X157481400Y-93033600D03*
%TD*%
D82*
%TO.C,D3*%
X113141400Y-48623600D03*
D75*
X115681400Y-48623600D03*
%TD*%
D82*
%TO.C,D12*%
X65731100Y-93334900D03*
D75*
X65731100Y-90794900D03*
%TD*%
%LPD*%
M02*
