%TF.GenerationSoftware,KiCad,Pcbnew,9.0.7*%
%TF.CreationDate,2026-02-20T22:16:39+09:00*%
%TF.ProjectId,kicker,6b69636b-6572-42e6-9b69-6361645f7063,rev?*%
%TF.SameCoordinates,Original*%
%TF.FileFunction,Copper,L2,Bot*%
%TF.FilePolarity,Positive*%
%FSLAX46Y46*%
G04 Gerber Fmt 4.6, Leading zero omitted, Abs format (unit mm)*
G04 Created by KiCad (PCBNEW 9.0.7) date 2026-02-20 22:16:39*
%MOMM*%
%LPD*%
G01*
G04 APERTURE LIST*
G04 Aperture macros list*
%AMRoundRect*
0 Rectangle with rounded corners*
0 $1 Rounding radius*
0 $2 $3 $4 $5 $6 $7 $8 $9 X,Y pos of 4 corners*
0 Add a 4 corners polygon primitive as box body*
4,1,4,$2,$3,$4,$5,$6,$7,$8,$9,$2,$3,0*
0 Add four circle primitives for the rounded corners*
1,1,$1+$1,$2,$3*
1,1,$1+$1,$4,$5*
1,1,$1+$1,$6,$7*
1,1,$1+$1,$8,$9*
0 Add four rect primitives between the rounded corners*
20,1,$1+$1,$2,$3,$4,$5,0*
20,1,$1+$1,$4,$5,$6,$7,0*
20,1,$1+$1,$6,$7,$8,$9,0*
20,1,$1+$1,$8,$9,$2,$3,0*%
G04 Aperture macros list end*
%TA.AperFunction,ComponentPad*%
%ADD10RoundRect,0.250000X-0.750000X0.600000X-0.750000X-0.600000X0.750000X-0.600000X0.750000X0.600000X0*%
%TD*%
%TA.AperFunction,ComponentPad*%
%ADD11O,2.000000X1.700000*%
%TD*%
%TA.AperFunction,ComponentPad*%
%ADD12RoundRect,0.250001X-0.949999X0.949999X-0.949999X-0.949999X0.949999X-0.949999X0.949999X0.949999X0*%
%TD*%
%TA.AperFunction,ComponentPad*%
%ADD13C,2.400000*%
%TD*%
%TA.AperFunction,ComponentPad*%
%ADD14R,1.800000X1.800000*%
%TD*%
%TA.AperFunction,ComponentPad*%
%ADD15C,1.800000*%
%TD*%
%TA.AperFunction,ComponentPad*%
%ADD16RoundRect,0.250000X-0.550000X0.550000X-0.550000X-0.550000X0.550000X-0.550000X0.550000X0.550000X0*%
%TD*%
%TA.AperFunction,ComponentPad*%
%ADD17C,1.600000*%
%TD*%
%TA.AperFunction,ComponentPad*%
%ADD18RoundRect,0.250001X-0.949999X-0.949999X0.949999X-0.949999X0.949999X0.949999X-0.949999X0.949999X0*%
%TD*%
%TA.AperFunction,ComponentPad*%
%ADD19RoundRect,0.250001X0.949999X0.949999X-0.949999X0.949999X-0.949999X-0.949999X0.949999X-0.949999X0*%
%TD*%
%TA.AperFunction,ComponentPad*%
%ADD20C,1.440000*%
%TD*%
%TA.AperFunction,ComponentPad*%
%ADD21C,2.000000*%
%TD*%
%TA.AperFunction,ViaPad*%
%ADD22C,0.600000*%
%TD*%
%TA.AperFunction,Conductor*%
%ADD23C,1.000000*%
%TD*%
G04 APERTURE END LIST*
D10*
%TO.P,J1,1,Pin_1*%
%TO.N,Net-(D2-K)*%
X81400000Y-129150000D03*
D11*
%TO.P,J1,2,Pin_2*%
%TO.N,GND*%
X81400000Y-131650000D03*
%TD*%
D12*
%TO.P,D2,1,K*%
%TO.N,Net-(D2-K)*%
X101550000Y-112390000D03*
D13*
%TO.P,D2,2,A*%
%TO.N,GND*%
X101550000Y-122550000D03*
%TD*%
D14*
%TO.P,D1,1,K*%
%TO.N,GND*%
X86892500Y-129550000D03*
D15*
%TO.P,D1,2,A*%
%TO.N,Net-(D1-A)*%
X89432500Y-129550000D03*
%TD*%
D16*
%TO.P,U2,1*%
%TO.N,Net-(R4-Pad2)*%
X87425000Y-96345000D03*
D17*
%TO.P,U2,2*%
%TO.N,GND_SIG1*%
X84885000Y-96345000D03*
%TO.P,U2,3*%
%TO.N,Net-(R3-Pad1)*%
X84885000Y-103965000D03*
%TO.P,U2,4*%
%TO.N,Net-(Q1-G)*%
X87425000Y-103965000D03*
%TD*%
D18*
%TO.P,C1,1*%
%TO.N,Net-(Q2-S)*%
X121237246Y-97300000D03*
D13*
%TO.P,C1,2*%
%TO.N,GND*%
X128737246Y-97300000D03*
%TD*%
D19*
%TO.P,D3,1,K*%
%TO.N,Net-(D3-K)*%
X88030000Y-107700000D03*
D13*
%TO.P,D3,2,A*%
%TO.N,GND*%
X77870000Y-107700000D03*
%TD*%
D10*
%TO.P,J2,1,Pin_1*%
%TO.N,GND*%
X81900000Y-81150000D03*
D11*
%TO.P,J2,2,Pin_2*%
%TO.N,11.1v*%
X81900000Y-83650000D03*
%TD*%
D10*
%TO.P,J3,1,Pin_1*%
%TO.N,GND_SIG1*%
X78100000Y-98550000D03*
D11*
%TO.P,J3,2,Pin_2*%
%TO.N,SIG_1*%
X78100000Y-101050000D03*
%TD*%
D16*
%TO.P,U3,1*%
%TO.N,Net-(R5-Pad2)*%
X87640000Y-113650000D03*
D17*
%TO.P,U3,2*%
%TO.N,GND_SIG2*%
X85100000Y-113650000D03*
%TO.P,U3,3*%
%TO.N,Net-(R6-Pad1)*%
X85100000Y-121270000D03*
%TO.P,U3,4*%
%TO.N,Net-(Q2-G)*%
X87640000Y-121270000D03*
%TD*%
D20*
%TO.P,RV1,1,1*%
%TO.N,Net-(VR1-FB)*%
X104110000Y-81140000D03*
%TO.P,RV1,2,2*%
X106650000Y-78600000D03*
%TO.P,RV1,3,3*%
%TO.N,Net-(D3-K)*%
X104110000Y-76060000D03*
%TD*%
D10*
%TO.P,J4,1,Pin_1*%
%TO.N,GND_SIG2*%
X78950000Y-114550000D03*
D11*
%TO.P,J4,2,Pin_2*%
%TO.N,SIG_2*%
X78950000Y-117050000D03*
%TD*%
D21*
%TO.P,SW1,1,1*%
%TO.N,GND*%
X105900000Y-118400000D03*
X112400000Y-118400000D03*
%TO.P,SW1,2,2*%
%TO.N,Net-(R9-Pad2)*%
X105900000Y-122900000D03*
X112400000Y-122900000D03*
%TD*%
D18*
%TO.P,C2,1*%
%TO.N,Net-(Q2-S)*%
X121200000Y-114450000D03*
D13*
%TO.P,C2,2*%
%TO.N,GND*%
X128700000Y-114450000D03*
%TD*%
D22*
%TO.N,Net-(Q2-S)*%
X91787500Y-126050000D03*
X95550000Y-119900000D03*
X87400000Y-126250000D03*
X88900000Y-93250000D03*
%TO.N,GND*%
X100500000Y-133450000D03*
X116950000Y-80750000D03*
X107700000Y-99250000D03*
X94350000Y-121200000D03*
X119200000Y-86900000D03*
X74500000Y-110950000D03*
X127750000Y-88350000D03*
X124100000Y-109800000D03*
X97100000Y-89500000D03*
X83050000Y-91500000D03*
X122700000Y-92800000D03*
X86800000Y-73200000D03*
X88000000Y-85650000D03*
X99175000Y-93850000D03*
X93150000Y-78550000D03*
X130250000Y-120600000D03*
X82200000Y-107450000D03*
X100200000Y-97500000D03*
X80000000Y-110900000D03*
X124150000Y-100900000D03*
X85600000Y-100400000D03*
X86850000Y-117900000D03*
X115500000Y-120750000D03*
X79300000Y-76050000D03*
X119500000Y-88450000D03*
X76700000Y-124700000D03*
X93550000Y-88150000D03*
X78100000Y-94850000D03*
X110900000Y-106850000D03*
X122100000Y-119750000D03*
X92000000Y-75900000D03*
X109850000Y-120200000D03*
X123500000Y-117250000D03*
X81450000Y-120400000D03*
X130850000Y-110300000D03*
X99100000Y-84800000D03*
X81800000Y-125400000D03*
X85700000Y-123050000D03*
X114500000Y-122650000D03*
X132650000Y-93950000D03*
X111550000Y-78500000D03*
X75650000Y-88600000D03*
X117100000Y-95300000D03*
X109600000Y-131350000D03*
X122050000Y-123050000D03*
%TO.N,Net-(D4-K)*%
X101763250Y-89850000D03*
X104400000Y-95100000D03*
%TO.N,Net-(D3-K)*%
X94050000Y-84900000D03*
%TO.N,Net-(VR1-SW)*%
X102050000Y-88150000D03*
X111393250Y-88150000D03*
%TO.N,SIG_2*%
X83300000Y-112400000D03*
%TO.N,Net-(Q1-D)*%
X83600000Y-94150000D03*
X94300000Y-99750000D03*
%TO.N,Net-(Q1-G)*%
X93100000Y-103500000D03*
X98550000Y-110000000D03*
%TO.N,Net-(Q2-G)*%
X92200000Y-122000000D03*
X94500000Y-125850000D03*
%TO.N,Net-(R9-Pad2)*%
X100150000Y-126100000D03*
%TD*%
D23*
%TO.N,Net-(Q2-S)*%
X95550000Y-119900000D02*
X88900000Y-93250000D01*
X87400000Y-126250000D02*
X91787500Y-126050000D01*
%TO.N,GND*%
X93150000Y-78550000D02*
X81900000Y-81150000D01*
X74500000Y-97550000D02*
X77870000Y-107700000D01*
X99100000Y-84800000D02*
X97100000Y-89500000D01*
X98400000Y-125400000D02*
X89700000Y-132350000D01*
X105900000Y-118400000D02*
X101550000Y-122550000D01*
X93600000Y-90550000D02*
X86000000Y-89300000D01*
X122100000Y-119750000D02*
X115500000Y-120750000D01*
X89700000Y-132350000D02*
X86892500Y-129550000D01*
X101550000Y-122550000D02*
X98400000Y-125400000D01*
X77550000Y-90500000D02*
X74500000Y-97550000D01*
X86000000Y-89300000D02*
X77550000Y-90500000D01*
X99175000Y-93850000D02*
X93600000Y-90550000D01*
%TO.N,Net-(D4-K)*%
X104400000Y-95100000D02*
X101763250Y-89850000D01*
%TO.N,Net-(D3-K)*%
X94050000Y-84900000D02*
X100900000Y-79650000D01*
X100900000Y-79650000D02*
X104110000Y-76060000D01*
%TO.N,Net-(VR1-SW)*%
X102050000Y-88150000D02*
X111393250Y-88150000D01*
%TO.N,GND_SIG1*%
X82200000Y-99800000D02*
X84885000Y-96345000D01*
X78100000Y-98550000D02*
X82200000Y-99800000D01*
%TO.N,SIG_2*%
X83300000Y-112400000D02*
X80750000Y-116350000D01*
X80750000Y-116350000D02*
X78950000Y-117050000D01*
%TO.N,Net-(Q1-D)*%
X83600000Y-94150000D02*
X87750000Y-91750000D01*
X92750000Y-92100000D02*
X94300000Y-99750000D01*
X87750000Y-91750000D02*
X92750000Y-92100000D01*
%TO.N,Net-(Q1-G)*%
X98550000Y-110000000D02*
X93100000Y-103500000D01*
%TO.N,Net-(Q2-G)*%
X94500000Y-125850000D02*
X92200000Y-122000000D01*
X92200000Y-122000000D02*
X87640000Y-121270000D01*
%TO.N,Net-(R9-Pad2)*%
X105900000Y-122900000D02*
X100150000Y-126100000D01*
%TD*%
%TA.AperFunction,Conductor*%
%TO.N,GND*%
G36*
X83039968Y-63640446D02*
G01*
X83067024Y-63646033D01*
X83106435Y-63658886D01*
X83152874Y-63674031D01*
X83165755Y-63679043D01*
X83219592Y-63703533D01*
X83219593Y-63703533D01*
X116178577Y-78696054D01*
X123181187Y-81881431D01*
X123234059Y-81927107D01*
X123253844Y-81994117D01*
X123234259Y-82061186D01*
X123181524Y-82107019D01*
X123129844Y-82118302D01*
X123067466Y-82118302D01*
X123067460Y-82118302D01*
X123067455Y-82118303D01*
X122781487Y-82155951D01*
X122781480Y-82155952D01*
X122781477Y-82155953D01*
X122502849Y-82230611D01*
X122502833Y-82230616D01*
X122236357Y-82340993D01*
X122236341Y-82341001D01*
X121986545Y-82485222D01*
X121986529Y-82485233D01*
X121757691Y-82660826D01*
X121757684Y-82660832D01*
X121553724Y-82864792D01*
X121553718Y-82864799D01*
X121378125Y-83093637D01*
X121378114Y-83093653D01*
X121233893Y-83343449D01*
X121233885Y-83343465D01*
X121123508Y-83609941D01*
X121123503Y-83609957D01*
X121052370Y-83875432D01*
X121048846Y-83888582D01*
X121048843Y-83888595D01*
X121011195Y-84174563D01*
X121011194Y-84174580D01*
X121011194Y-84463023D01*
X121011195Y-84463040D01*
X121048843Y-84749008D01*
X121048844Y-84749013D01*
X121048845Y-84749019D01*
X121093996Y-84917524D01*
X121123503Y-85027646D01*
X121123508Y-85027662D01*
X121233885Y-85294138D01*
X121233893Y-85294154D01*
X121378114Y-85543950D01*
X121378125Y-85543966D01*
X121553718Y-85772804D01*
X121553724Y-85772811D01*
X121757684Y-85976771D01*
X121757691Y-85976777D01*
X121920647Y-86101817D01*
X121986538Y-86152377D01*
X121986545Y-86152381D01*
X122236341Y-86296602D01*
X122236357Y-86296610D01*
X122502833Y-86406987D01*
X122502839Y-86406988D01*
X122502849Y-86406993D01*
X122781477Y-86481651D01*
X123067466Y-86519302D01*
X123067473Y-86519302D01*
X123355915Y-86519302D01*
X123355922Y-86519302D01*
X123641911Y-86481651D01*
X123920539Y-86406993D01*
X123920551Y-86406987D01*
X123920554Y-86406987D01*
X124187030Y-86296610D01*
X124187033Y-86296608D01*
X124187039Y-86296606D01*
X124436850Y-86152377D01*
X124665698Y-85976776D01*
X124869668Y-85772806D01*
X125045269Y-85543958D01*
X125189498Y-85294147D01*
X125299885Y-85027647D01*
X125374543Y-84749019D01*
X125412194Y-84463030D01*
X125412194Y-84174574D01*
X125374543Y-83888585D01*
X125299885Y-83609957D01*
X125299880Y-83609947D01*
X125299879Y-83609941D01*
X125189502Y-83343465D01*
X125189494Y-83343449D01*
X125045273Y-83093653D01*
X125045269Y-83093646D01*
X125013697Y-83052501D01*
X124918184Y-82928025D01*
X124892990Y-82862856D01*
X124907028Y-82794411D01*
X124955842Y-82744422D01*
X125023934Y-82728758D01*
X125067902Y-82739667D01*
X125846074Y-83093646D01*
X129217701Y-84627346D01*
X129217707Y-84627349D01*
X129227848Y-84631962D01*
X129227849Y-84631963D01*
X129286071Y-84658447D01*
X129289487Y-84660064D01*
X129805268Y-84913980D01*
X129811925Y-84917514D01*
X130067215Y-85063204D01*
X130309550Y-85201501D01*
X130316013Y-85205456D01*
X130795346Y-85519296D01*
X130801554Y-85523638D01*
X130998836Y-85670775D01*
X131260821Y-85866170D01*
X131266754Y-85870884D01*
X131704234Y-86240824D01*
X131709868Y-86245891D01*
X132123944Y-86641870D01*
X132129258Y-86647272D01*
X132438982Y-86982002D01*
X132518376Y-87067805D01*
X132523344Y-87073515D01*
X132616927Y-87187949D01*
X132886044Y-87517027D01*
X132890660Y-87523037D01*
X133225591Y-87987873D01*
X133229827Y-87994148D01*
X133535752Y-88478592D01*
X133539600Y-88485120D01*
X133815350Y-88987324D01*
X133818792Y-88994075D01*
X134063353Y-89512188D01*
X134066377Y-89519136D01*
X134278832Y-90051211D01*
X134281426Y-90058330D01*
X134460992Y-90602411D01*
X134463146Y-90609677D01*
X134609139Y-91163697D01*
X134610845Y-91171080D01*
X134722725Y-91732980D01*
X134723977Y-91740453D01*
X134801328Y-92308147D01*
X134802121Y-92315683D01*
X134844652Y-92887039D01*
X134844983Y-92894610D01*
X134852534Y-93467477D01*
X134852403Y-93475053D01*
X134824947Y-94047354D01*
X134824352Y-94054908D01*
X134761995Y-94624417D01*
X134760941Y-94631921D01*
X134663910Y-95196587D01*
X134662399Y-95204013D01*
X134530976Y-95762036D01*
X134530050Y-95765715D01*
X134371347Y-96357778D01*
X134089823Y-97551666D01*
X133844579Y-98753527D01*
X133635841Y-99962259D01*
X133463799Y-101176751D01*
X133328605Y-102395941D01*
X133230396Y-103618624D01*
X133169251Y-104843745D01*
X133145231Y-106070119D01*
X133158358Y-107296691D01*
X133208620Y-108522306D01*
X133266627Y-109334812D01*
X133295969Y-109745814D01*
X133300828Y-109793492D01*
X133420324Y-110966117D01*
X133581576Y-112182117D01*
X133779571Y-113392650D01*
X134014135Y-114596667D01*
X134285044Y-115793002D01*
X134431908Y-116361020D01*
X134431909Y-116361023D01*
X134438072Y-116384861D01*
X134438983Y-116388632D01*
X134545297Y-116860965D01*
X134569470Y-116968364D01*
X134570947Y-116976056D01*
X134664249Y-117560846D01*
X134665238Y-117568616D01*
X134721434Y-118158130D01*
X134721931Y-118165946D01*
X134740799Y-118757850D01*
X134740801Y-118765683D01*
X134722262Y-119357580D01*
X134721770Y-119365397D01*
X134665899Y-119954959D01*
X134664914Y-119962729D01*
X134571937Y-120547569D01*
X134570464Y-120555262D01*
X134440745Y-121133082D01*
X134438789Y-121140666D01*
X134272847Y-121709156D01*
X134270415Y-121716601D01*
X134068925Y-122273445D01*
X134066029Y-122280722D01*
X133829779Y-122823754D01*
X133826429Y-122830834D01*
X133556371Y-123357858D01*
X133552581Y-123364713D01*
X133249783Y-123873647D01*
X133245568Y-123880248D01*
X132911243Y-124369052D01*
X132906619Y-124375374D01*
X132542100Y-124842096D01*
X132537086Y-124848113D01*
X132143845Y-125290874D01*
X132138462Y-125296563D01*
X131718037Y-125713628D01*
X131712305Y-125718966D01*
X131266384Y-126108661D01*
X131260327Y-126113626D01*
X130790715Y-126474375D01*
X130784355Y-126478948D01*
X130292878Y-126809346D01*
X130286244Y-126813508D01*
X129774901Y-127112213D01*
X129768016Y-127115948D01*
X129237519Y-127382434D01*
X129233992Y-127384137D01*
X125425640Y-129148844D01*
X125356537Y-129159169D01*
X125292822Y-129130496D01*
X125254724Y-129071928D01*
X125254338Y-129002059D01*
X125258945Y-128988883D01*
X125299881Y-128890054D01*
X125299885Y-128890045D01*
X125374543Y-128611417D01*
X125412194Y-128325428D01*
X125412194Y-128036972D01*
X125374543Y-127750983D01*
X125299885Y-127472355D01*
X125299880Y-127472345D01*
X125299879Y-127472339D01*
X125189502Y-127205863D01*
X125189494Y-127205847D01*
X125045273Y-126956051D01*
X125045269Y-126956044D01*
X124967122Y-126854201D01*
X124869669Y-126727197D01*
X124869663Y-126727190D01*
X124665703Y-126523230D01*
X124665696Y-126523224D01*
X124436858Y-126347631D01*
X124436856Y-126347629D01*
X124436850Y-126347625D01*
X124436845Y-126347622D01*
X124436842Y-126347620D01*
X124187046Y-126203399D01*
X124187030Y-126203391D01*
X123920554Y-126093014D01*
X123920542Y-126093010D01*
X123920539Y-126093009D01*
X123641911Y-126018351D01*
X123641905Y-126018350D01*
X123641900Y-126018349D01*
X123355932Y-125980701D01*
X123355927Y-125980700D01*
X123355922Y-125980700D01*
X123067466Y-125980700D01*
X123067460Y-125980700D01*
X123067455Y-125980701D01*
X122781487Y-126018349D01*
X122781480Y-126018350D01*
X122781477Y-126018351D01*
X122502849Y-126093009D01*
X122502833Y-126093014D01*
X122236357Y-126203391D01*
X122236341Y-126203399D01*
X121986545Y-126347620D01*
X121986529Y-126347631D01*
X121757691Y-126523224D01*
X121757684Y-126523230D01*
X121553724Y-126727190D01*
X121553718Y-126727197D01*
X121378125Y-126956035D01*
X121378114Y-126956051D01*
X121233893Y-127205847D01*
X121233885Y-127205863D01*
X121123508Y-127472339D01*
X121123503Y-127472355D01*
X121048846Y-127750980D01*
X121048843Y-127750993D01*
X121011195Y-128036961D01*
X121011194Y-128036978D01*
X121011194Y-128325421D01*
X121011195Y-128325438D01*
X121048843Y-128611406D01*
X121048844Y-128611411D01*
X121048845Y-128611417D01*
X121055872Y-128637641D01*
X121123503Y-128890044D01*
X121123508Y-128890060D01*
X121233885Y-129156536D01*
X121233893Y-129156552D01*
X121378114Y-129406348D01*
X121378125Y-129406364D01*
X121553718Y-129635202D01*
X121553724Y-129635209D01*
X121757684Y-129839169D01*
X121757691Y-129839175D01*
X121840604Y-129902796D01*
X121986538Y-130014775D01*
X121986545Y-130014779D01*
X122236341Y-130159000D01*
X122236357Y-130159008D01*
X122506599Y-130270945D01*
X122505984Y-130272427D01*
X122557722Y-130308775D01*
X122584104Y-130373472D01*
X122571319Y-130442163D01*
X122523427Y-130493036D01*
X122512877Y-130498555D01*
X83192689Y-148718670D01*
X83192688Y-148718669D01*
X83192681Y-148718673D01*
X83142424Y-148741963D01*
X83142405Y-148741972D01*
X83134821Y-148745485D01*
X83121914Y-148750607D01*
X83035658Y-148779358D01*
X83008498Y-148785134D01*
X82924986Y-148793289D01*
X82897224Y-148792877D01*
X82813986Y-148782245D01*
X82787008Y-148775664D01*
X82708231Y-148746778D01*
X82683394Y-148734359D01*
X82613014Y-148688663D01*
X82591567Y-148671032D01*
X82533121Y-148610825D01*
X82516132Y-148588860D01*
X82469322Y-148511846D01*
X82462279Y-148498489D01*
X81667126Y-146738249D01*
X81666162Y-146736058D01*
X81455108Y-146243727D01*
X80902698Y-144955110D01*
X80901817Y-144953000D01*
X80186846Y-143192059D01*
X80179866Y-143122541D01*
X80211578Y-143060282D01*
X80271916Y-143025053D01*
X80341722Y-143028036D01*
X80377221Y-143047035D01*
X80424844Y-143083577D01*
X80424851Y-143083581D01*
X80674647Y-143227802D01*
X80674663Y-143227810D01*
X80941139Y-143338187D01*
X80941145Y-143338188D01*
X80941155Y-143338193D01*
X81219783Y-143412851D01*
X81505772Y-143450502D01*
X81505779Y-143450502D01*
X81794221Y-143450502D01*
X81794228Y-143450502D01*
X82080217Y-143412851D01*
X82358845Y-143338193D01*
X82358857Y-143338187D01*
X82358860Y-143338187D01*
X82625336Y-143227810D01*
X82625339Y-143227808D01*
X82625345Y-143227806D01*
X82875156Y-143083577D01*
X83104004Y-142907976D01*
X83307974Y-142704006D01*
X83483575Y-142475158D01*
X83627804Y-142225347D01*
X83738191Y-141958847D01*
X83812849Y-141680219D01*
X83850500Y-141394230D01*
X83850500Y-141105774D01*
X83812849Y-140819785D01*
X83738191Y-140541157D01*
X83738186Y-140541147D01*
X83738185Y-140541141D01*
X83627808Y-140274665D01*
X83627800Y-140274649D01*
X83483579Y-140024853D01*
X83483575Y-140024846D01*
X83307974Y-139795998D01*
X83307969Y-139795992D01*
X83104009Y-139592032D01*
X83104002Y-139592026D01*
X82875164Y-139416433D01*
X82875162Y-139416431D01*
X82875156Y-139416427D01*
X82875151Y-139416424D01*
X82875148Y-139416422D01*
X82625352Y-139272201D01*
X82625336Y-139272193D01*
X82358860Y-139161816D01*
X82358848Y-139161812D01*
X82358845Y-139161811D01*
X82080217Y-139087153D01*
X82080211Y-139087152D01*
X82080206Y-139087151D01*
X81794238Y-139049503D01*
X81794233Y-139049502D01*
X81794228Y-139049502D01*
X81505772Y-139049502D01*
X81505766Y-139049502D01*
X81505761Y-139049503D01*
X81219793Y-139087151D01*
X81219786Y-139087152D01*
X81219783Y-139087153D01*
X80941155Y-139161811D01*
X80941139Y-139161816D01*
X80674663Y-139272193D01*
X80674647Y-139272201D01*
X80424851Y-139416422D01*
X80424835Y-139416433D01*
X80195997Y-139592026D01*
X80195990Y-139592032D01*
X79992030Y-139795992D01*
X79992024Y-139795999D01*
X79816431Y-140024837D01*
X79816420Y-140024853D01*
X79672199Y-140274649D01*
X79672191Y-140274665D01*
X79561814Y-140541141D01*
X79561810Y-140541154D01*
X79561809Y-140541157D01*
X79504273Y-140755884D01*
X79467909Y-140815543D01*
X79405062Y-140846072D01*
X79335686Y-140837777D01*
X79281808Y-140793292D01*
X79267893Y-140765967D01*
X78999820Y-140024853D01*
X78817902Y-139521923D01*
X78817144Y-139519763D01*
X78193314Y-137685150D01*
X78192569Y-137682886D01*
X77604299Y-135836668D01*
X77603607Y-135834421D01*
X77051079Y-133977170D01*
X77050419Y-133974869D01*
X76866650Y-133310491D01*
X76533849Y-132107317D01*
X76533244Y-132105045D01*
X76479150Y-131893680D01*
X76314388Y-131249901D01*
X76052812Y-130227836D01*
X76052251Y-130225551D01*
X76015468Y-130069334D01*
X75645951Y-128499983D01*
X79899500Y-128499983D01*
X79899500Y-128499996D01*
X79899501Y-129800000D01*
X79899501Y-129800018D01*
X79910000Y-129902796D01*
X79910001Y-129902799D01*
X79965185Y-130069331D01*
X79965187Y-130069336D01*
X80057289Y-130218657D01*
X80181344Y-130342712D01*
X80336558Y-130438448D01*
X80383283Y-130490396D01*
X80394506Y-130559358D01*
X80366663Y-130623441D01*
X80359144Y-130631668D01*
X80220271Y-130770541D01*
X80095379Y-130942442D01*
X79998904Y-131131782D01*
X79933242Y-131333870D01*
X79933242Y-131333873D01*
X79922769Y-131400000D01*
X80966988Y-131400000D01*
X80934075Y-131457007D01*
X80900000Y-131584174D01*
X80900000Y-131715826D01*
X80934075Y-131842993D01*
X80966988Y-131900000D01*
X79922769Y-131900000D01*
X79933242Y-131966126D01*
X79933242Y-131966129D01*
X79998904Y-132168217D01*
X80095379Y-132357557D01*
X80220272Y-132529459D01*
X80220276Y-132529464D01*
X80370535Y-132679723D01*
X80370540Y-132679727D01*
X80542442Y-132804620D01*
X80731782Y-132901095D01*
X80933870Y-132966757D01*
X81143754Y-133000000D01*
X81150000Y-133000000D01*
X81150000Y-132083012D01*
X81207007Y-132115925D01*
X81334174Y-132150000D01*
X81465826Y-132150000D01*
X81592993Y-132115925D01*
X81650000Y-132083012D01*
X81650000Y-133000000D01*
X81656246Y-133000000D01*
X81866127Y-132966757D01*
X81866130Y-132966757D01*
X82068217Y-132901095D01*
X82257557Y-132804620D01*
X82429459Y-132679727D01*
X82429464Y-132679723D01*
X82579723Y-132529464D01*
X82579727Y-132529459D01*
X82704620Y-132357557D01*
X82801095Y-132168217D01*
X82866757Y-131966129D01*
X82866757Y-131966126D01*
X82877231Y-131900000D01*
X81833012Y-131900000D01*
X81865925Y-131842993D01*
X81900000Y-131715826D01*
X81900000Y-131584174D01*
X81865925Y-131457007D01*
X81833012Y-131400000D01*
X82877231Y-131400000D01*
X82866757Y-131333873D01*
X82866757Y-131333870D01*
X82801095Y-131131782D01*
X82704620Y-130942442D01*
X82579727Y-130770540D01*
X82579723Y-130770535D01*
X82440856Y-130631668D01*
X82407371Y-130570345D01*
X82412355Y-130500653D01*
X82454227Y-130444720D01*
X82463441Y-130438448D01*
X82469331Y-130434814D01*
X82469334Y-130434814D01*
X82618656Y-130342712D01*
X82742712Y-130218656D01*
X82834814Y-130069334D01*
X82889999Y-129902797D01*
X82900500Y-129800009D01*
X82900499Y-128602155D01*
X85492500Y-128602155D01*
X85492500Y-129300000D01*
X86517222Y-129300000D01*
X86473167Y-129376306D01*
X86442500Y-129490756D01*
X86442500Y-129609244D01*
X86473167Y-129723694D01*
X86517222Y-129800000D01*
X85492500Y-129800000D01*
X85492500Y-130497844D01*
X85498901Y-130557372D01*
X85498903Y-130557379D01*
X85549145Y-130692086D01*
X85549149Y-130692093D01*
X85635309Y-130807187D01*
X85635312Y-130807190D01*
X85750406Y-130893350D01*
X85750413Y-130893354D01*
X85885120Y-130943596D01*
X85885127Y-130943598D01*
X85944655Y-130949999D01*
X85944672Y-130950000D01*
X86642500Y-130950000D01*
X86642500Y-129925277D01*
X86718806Y-129969333D01*
X86833256Y-130000000D01*
X86951744Y-130000000D01*
X87066194Y-129969333D01*
X87142500Y-129925277D01*
X87142500Y-130950000D01*
X87840328Y-130950000D01*
X87840344Y-130949999D01*
X87899872Y-130943598D01*
X87899879Y-130943596D01*
X88034586Y-130893354D01*
X88034593Y-130893350D01*
X88149687Y-130807190D01*
X88149690Y-130807187D01*
X88235850Y-130692093D01*
X88235854Y-130692086D01*
X88265713Y-130612031D01*
X88307584Y-130556097D01*
X88373048Y-130531680D01*
X88441321Y-130546531D01*
X88469576Y-130567683D01*
X88520136Y-130618243D01*
X88520141Y-130618247D01*
X88675692Y-130731260D01*
X88698478Y-130747815D01*
X88815001Y-130807187D01*
X88894893Y-130847895D01*
X88894896Y-130847896D01*
X88999721Y-130881955D01*
X89104549Y-130916015D01*
X89322278Y-130950500D01*
X89322279Y-130950500D01*
X89542721Y-130950500D01*
X89542722Y-130950500D01*
X89760451Y-130916015D01*
X89970106Y-130847895D01*
X90166522Y-130747815D01*
X90344865Y-130618242D01*
X90500742Y-130462365D01*
X90630315Y-130284022D01*
X90730395Y-130087606D01*
X90798515Y-129877951D01*
X90833000Y-129660222D01*
X90833000Y-129439778D01*
X90798515Y-129222049D01*
X90764455Y-129117221D01*
X90730396Y-129012396D01*
X90730395Y-129012393D01*
X90668054Y-128890044D01*
X90630315Y-128815978D01*
X90613760Y-128793192D01*
X90500747Y-128637641D01*
X90500743Y-128637636D01*
X90344863Y-128481756D01*
X90344858Y-128481752D01*
X90166525Y-128352187D01*
X90166524Y-128352186D01*
X90166522Y-128352185D01*
X90103596Y-128320122D01*
X89970106Y-128252104D01*
X89970103Y-128252103D01*
X89760452Y-128183985D01*
X89633823Y-128163929D01*
X89542722Y-128149500D01*
X89322278Y-128149500D01*
X89249701Y-128160995D01*
X89104547Y-128183985D01*
X88894896Y-128252103D01*
X88894893Y-128252104D01*
X88698474Y-128352187D01*
X88520141Y-128481752D01*
X88520136Y-128481756D01*
X88469575Y-128532317D01*
X88408252Y-128565801D01*
X88338560Y-128560816D01*
X88282627Y-128518945D01*
X88265713Y-128487968D01*
X88235854Y-128407913D01*
X88235850Y-128407906D01*
X88149690Y-128292812D01*
X88149687Y-128292809D01*
X88034593Y-128206649D01*
X88034586Y-128206645D01*
X87899879Y-128156403D01*
X87899872Y-128156401D01*
X87840344Y-128150000D01*
X87142500Y-128150000D01*
X87142500Y-129174722D01*
X87066194Y-129130667D01*
X86951744Y-129100000D01*
X86833256Y-129100000D01*
X86718806Y-129130667D01*
X86642500Y-129174722D01*
X86642500Y-128150000D01*
X85944655Y-128150000D01*
X85885127Y-128156401D01*
X85885120Y-128156403D01*
X85750413Y-128206645D01*
X85750406Y-128206649D01*
X85635312Y-128292809D01*
X85635309Y-128292812D01*
X85549149Y-128407906D01*
X85549145Y-128407913D01*
X85498903Y-128542620D01*
X85498901Y-128542627D01*
X85492500Y-128602155D01*
X82900499Y-128602155D01*
X82900499Y-128499992D01*
X82889999Y-128397203D01*
X82834814Y-128230666D01*
X82742712Y-128081344D01*
X82618656Y-127957288D01*
X82525888Y-127900069D01*
X82469336Y-127865187D01*
X82469331Y-127865185D01*
X82467862Y-127864698D01*
X82302797Y-127810001D01*
X82302795Y-127810000D01*
X82200010Y-127799500D01*
X80599998Y-127799500D01*
X80599981Y-127799501D01*
X80497203Y-127810000D01*
X80497200Y-127810001D01*
X80330668Y-127865185D01*
X80330663Y-127865187D01*
X80181342Y-127957289D01*
X80057289Y-128081342D01*
X79965187Y-128230663D01*
X79965186Y-128230666D01*
X79910001Y-128397203D01*
X79910001Y-128397204D01*
X79910000Y-128397204D01*
X79899500Y-128499983D01*
X75645951Y-128499983D01*
X75608145Y-128339418D01*
X75607628Y-128337120D01*
X75605114Y-128325438D01*
X75200020Y-126442798D01*
X75199543Y-126440472D01*
X75190476Y-126393990D01*
X75152076Y-126197124D01*
X86396050Y-126197124D01*
X86405024Y-126393990D01*
X86405024Y-126393996D01*
X86405025Y-126393998D01*
X86452236Y-126585341D01*
X86452237Y-126585344D01*
X86452238Y-126585346D01*
X86452239Y-126585350D01*
X86535867Y-126763796D01*
X86535871Y-126763803D01*
X86652709Y-126922508D01*
X86798264Y-127055372D01*
X86798266Y-127055373D01*
X86798268Y-127055375D01*
X86966952Y-127157293D01*
X86966953Y-127157293D01*
X86966955Y-127157295D01*
X87117051Y-127211598D01*
X87152276Y-127224342D01*
X87347121Y-127253949D01*
X91931498Y-127044975D01*
X92122841Y-126997764D01*
X92301297Y-126914132D01*
X92301300Y-126914129D01*
X92301303Y-126914128D01*
X92396229Y-126844244D01*
X92460009Y-126797290D01*
X92592875Y-126651732D01*
X92694793Y-126483048D01*
X92694794Y-126483044D01*
X92694795Y-126483044D01*
X92761841Y-126297726D01*
X92761842Y-126297724D01*
X92791449Y-126102879D01*
X92782475Y-125906002D01*
X92735264Y-125714659D01*
X92735260Y-125714652D01*
X92735260Y-125714649D01*
X92651632Y-125536203D01*
X92651628Y-125536196D01*
X92534790Y-125377491D01*
X92389235Y-125244627D01*
X92389232Y-125244625D01*
X92220546Y-125142706D01*
X92220544Y-125142704D01*
X92035226Y-125075658D01*
X91840374Y-125046050D01*
X87256009Y-125255024D01*
X87256002Y-125255025D01*
X87064659Y-125302236D01*
X87064656Y-125302237D01*
X87064653Y-125302238D01*
X87064649Y-125302239D01*
X86886203Y-125385867D01*
X86886196Y-125385871D01*
X86727491Y-125502709D01*
X86594627Y-125648264D01*
X86594625Y-125648267D01*
X86492706Y-125816953D01*
X86492704Y-125816955D01*
X86425658Y-126002273D01*
X86396050Y-126197124D01*
X75152076Y-126197124D01*
X74828569Y-124538592D01*
X74828160Y-124536381D01*
X74493954Y-122627617D01*
X74493571Y-122625294D01*
X74487383Y-122585439D01*
X74267260Y-121167648D01*
X83799500Y-121167648D01*
X83799500Y-121372352D01*
X83803800Y-121399500D01*
X83831522Y-121574534D01*
X83894781Y-121769223D01*
X83987715Y-121951613D01*
X84108028Y-122117213D01*
X84252786Y-122261971D01*
X84407749Y-122374556D01*
X84418390Y-122382287D01*
X84528861Y-122438575D01*
X84600776Y-122475218D01*
X84600778Y-122475218D01*
X84600781Y-122475220D01*
X84705137Y-122509127D01*
X84795465Y-122538477D01*
X84859581Y-122548632D01*
X84997648Y-122570500D01*
X84997649Y-122570500D01*
X85202351Y-122570500D01*
X85202352Y-122570500D01*
X85404534Y-122538477D01*
X85599219Y-122475220D01*
X85781610Y-122382287D01*
X85874590Y-122314732D01*
X85947213Y-122261971D01*
X85947215Y-122261968D01*
X85947219Y-122261966D01*
X86091966Y-122117219D01*
X86091968Y-122117215D01*
X86091971Y-122117213D01*
X86212284Y-121951614D01*
X86212285Y-121951613D01*
X86212287Y-121951610D01*
X86259516Y-121858917D01*
X86307489Y-121808123D01*
X86375310Y-121791328D01*
X86441445Y-121813865D01*
X86480485Y-121858919D01*
X86527715Y-121951614D01*
X86648028Y-122117213D01*
X86792786Y-122261971D01*
X86947749Y-122374556D01*
X86958390Y-122382287D01*
X87068861Y-122438575D01*
X87140776Y-122475218D01*
X87140778Y-122475218D01*
X87140781Y-122475220D01*
X87245137Y-122509127D01*
X87335465Y-122538477D01*
X87399581Y-122548632D01*
X87537648Y-122570500D01*
X87537649Y-122570500D01*
X87742351Y-122570500D01*
X87742352Y-122570500D01*
X87944534Y-122538477D01*
X88139219Y-122475220D01*
X88270571Y-122408291D01*
X88339240Y-122395395D01*
X88346438Y-122396331D01*
X91382498Y-122882367D01*
X91523477Y-122904936D01*
X91586562Y-122934970D01*
X91610327Y-122963783D01*
X93691630Y-126447703D01*
X93691631Y-126447704D01*
X93691633Y-126447707D01*
X93823772Y-126593926D01*
X93981898Y-126711557D01*
X93981899Y-126711557D01*
X93981900Y-126711558D01*
X94159930Y-126796078D01*
X94159932Y-126796078D01*
X94159935Y-126796080D01*
X94351040Y-126844244D01*
X94547870Y-126854201D01*
X94742860Y-126825566D01*
X94928517Y-126759441D01*
X95073822Y-126672636D01*
X95097701Y-126658371D01*
X95097702Y-126658369D01*
X95097707Y-126658367D01*
X95243926Y-126526228D01*
X95361557Y-126368102D01*
X95446080Y-126190064D01*
X95464481Y-126117053D01*
X99144804Y-126117053D01*
X99167445Y-126312829D01*
X99227845Y-126500426D01*
X99264794Y-126566819D01*
X99323682Y-126672634D01*
X99323684Y-126672636D01*
X99441670Y-126811530D01*
X99451279Y-126822841D01*
X99478279Y-126844243D01*
X99605721Y-126945264D01*
X99781083Y-127035206D01*
X99970620Y-127089209D01*
X100167053Y-127105196D01*
X100362829Y-127082555D01*
X100550426Y-127022155D01*
X105361859Y-124344487D01*
X105430008Y-124329088D01*
X105460473Y-124334908D01*
X105488561Y-124344034D01*
X105548624Y-124363551D01*
X105548627Y-124363551D01*
X105548632Y-124363553D01*
X105656673Y-124380664D01*
X105781903Y-124400500D01*
X105781908Y-124400500D01*
X106018097Y-124400500D01*
X106251368Y-124363553D01*
X106251374Y-124363551D01*
X106475992Y-124290568D01*
X106686433Y-124183343D01*
X106877510Y-124044517D01*
X107044517Y-123877510D01*
X107183343Y-123686433D01*
X107290568Y-123475992D01*
X107363553Y-123251368D01*
X107374429Y-123182698D01*
X107400500Y-123018097D01*
X107400500Y-122781902D01*
X110899500Y-122781902D01*
X110899500Y-123018097D01*
X110936446Y-123251368D01*
X111009433Y-123475996D01*
X111116657Y-123686433D01*
X111255483Y-123877510D01*
X111422490Y-124044517D01*
X111613567Y-124183343D01*
X111692397Y-124223509D01*
X111824003Y-124290566D01*
X111824005Y-124290566D01*
X111824008Y-124290568D01*
X111909078Y-124318209D01*
X112048631Y-124363553D01*
X112281903Y-124400500D01*
X112281908Y-124400500D01*
X112518097Y-124400500D01*
X112751368Y-124363553D01*
X112751374Y-124363551D01*
X112975992Y-124290568D01*
X113186433Y-124183343D01*
X113377510Y-124044517D01*
X113544517Y-123877510D01*
X113683343Y-123686433D01*
X113790568Y-123475992D01*
X113863553Y-123251368D01*
X113874429Y-123182698D01*
X113900500Y-123018097D01*
X113900500Y-122781902D01*
X113863553Y-122548631D01*
X113817954Y-122408292D01*
X113790568Y-122324008D01*
X113790566Y-122324005D01*
X113790566Y-122324003D01*
X113718003Y-122181592D01*
X113683343Y-122113567D01*
X113544517Y-121922490D01*
X113377510Y-121755483D01*
X113186433Y-121616657D01*
X113160625Y-121603507D01*
X112975996Y-121509433D01*
X112751368Y-121436446D01*
X112518097Y-121399500D01*
X112518092Y-121399500D01*
X112281908Y-121399500D01*
X112281903Y-121399500D01*
X112048631Y-121436446D01*
X111824003Y-121509433D01*
X111613566Y-121616657D01*
X111504550Y-121695862D01*
X111422490Y-121755483D01*
X111422488Y-121755485D01*
X111422487Y-121755485D01*
X111255485Y-121922487D01*
X111255485Y-121922488D01*
X111255483Y-121922490D01*
X111235496Y-121950000D01*
X111116657Y-122113566D01*
X111009433Y-122324003D01*
X110936446Y-122548631D01*
X110899500Y-122781902D01*
X107400500Y-122781902D01*
X107363553Y-122548631D01*
X107317954Y-122408292D01*
X107290568Y-122324008D01*
X107290566Y-122324005D01*
X107290566Y-122324003D01*
X107218003Y-122181592D01*
X107183343Y-122113567D01*
X107044517Y-121922490D01*
X106877510Y-121755483D01*
X106686433Y-121616657D01*
X106660625Y-121603507D01*
X106475996Y-121509433D01*
X106251368Y-121436446D01*
X106018097Y-121399500D01*
X106018092Y-121399500D01*
X105781908Y-121399500D01*
X105781903Y-121399500D01*
X105548631Y-121436446D01*
X105324003Y-121509433D01*
X105113566Y-121616657D01*
X105004550Y-121695862D01*
X104922490Y-121755483D01*
X104922488Y-121755485D01*
X104922487Y-121755485D01*
X104755485Y-121922487D01*
X104755485Y-121922488D01*
X104755483Y-121922490D01*
X104735496Y-121950000D01*
X104616657Y-122113566D01*
X104509433Y-122324003D01*
X104443227Y-122527764D01*
X104403789Y-122585439D01*
X104385596Y-122597796D01*
X103362272Y-123167298D01*
X103294120Y-123182698D01*
X103228462Y-123158808D01*
X103186142Y-123103213D01*
X103180598Y-123033564D01*
X103182197Y-123026854D01*
X103220911Y-122882367D01*
X103220914Y-122882354D01*
X103250000Y-122661424D01*
X103250000Y-122438575D01*
X103220914Y-122217645D01*
X103220911Y-122217632D01*
X103163236Y-122002381D01*
X103077954Y-121796497D01*
X103077949Y-121796485D01*
X102966533Y-121603507D01*
X102915956Y-121537595D01*
X102915955Y-121537595D01*
X102114612Y-122338940D01*
X102109111Y-122318409D01*
X102030119Y-122181592D01*
X101918408Y-122069881D01*
X101781591Y-121990889D01*
X101761058Y-121985387D01*
X102562403Y-121184043D01*
X102562403Y-121184040D01*
X102496504Y-121133473D01*
X102496491Y-121133464D01*
X102303520Y-121022054D01*
X102303502Y-121022045D01*
X102097618Y-120936763D01*
X101882367Y-120879088D01*
X101882354Y-120879085D01*
X101661425Y-120850000D01*
X101438575Y-120850000D01*
X101217645Y-120879085D01*
X101217632Y-120879088D01*
X101002381Y-120936763D01*
X100796497Y-121022045D01*
X100796479Y-121022054D01*
X100603511Y-121133462D01*
X100537595Y-121184042D01*
X101338941Y-121985387D01*
X101318409Y-121990889D01*
X101181592Y-122069881D01*
X101069881Y-122181592D01*
X100990889Y-122318409D01*
X100985387Y-122338940D01*
X100184042Y-121537595D01*
X100133462Y-121603511D01*
X100022054Y-121796479D01*
X100022045Y-121796497D01*
X99936763Y-122002381D01*
X99879088Y-122217632D01*
X99879085Y-122217645D01*
X99850000Y-122438575D01*
X99850000Y-122661424D01*
X99879085Y-122882354D01*
X99879088Y-122882367D01*
X99936763Y-123097618D01*
X100022045Y-123303502D01*
X100022054Y-123303520D01*
X100133464Y-123496491D01*
X100133473Y-123496504D01*
X100184040Y-123562403D01*
X100184043Y-123562403D01*
X100985387Y-122761059D01*
X100990889Y-122781591D01*
X101069881Y-122918408D01*
X101181592Y-123030119D01*
X101318409Y-123109111D01*
X101338940Y-123114612D01*
X100537595Y-123915955D01*
X100537595Y-123915956D01*
X100603507Y-123966533D01*
X100796485Y-124077949D01*
X100796497Y-124077954D01*
X101002382Y-124163236D01*
X101091614Y-124187145D01*
X101151275Y-124223509D01*
X101181805Y-124286355D01*
X101173511Y-124355731D01*
X101129026Y-124409610D01*
X101119822Y-124415271D01*
X99577365Y-125273682D01*
X99427158Y-125401279D01*
X99427158Y-125401280D01*
X99304734Y-125555723D01*
X99214794Y-125731082D01*
X99160790Y-125920621D01*
X99160790Y-125920624D01*
X99145083Y-126113626D01*
X99144804Y-126117053D01*
X95464481Y-126117053D01*
X95494244Y-125998960D01*
X95504201Y-125802129D01*
X95475566Y-125607140D01*
X95409442Y-125421483D01*
X93089196Y-121537595D01*
X93086687Y-121533394D01*
X93068185Y-121493083D01*
X93036275Y-121449009D01*
X93008367Y-121402293D01*
X93001699Y-121394915D01*
X92983122Y-121374356D01*
X92980022Y-121370792D01*
X92977230Y-121367455D01*
X92952609Y-121333449D01*
X92916712Y-121300155D01*
X92909052Y-121292395D01*
X92876228Y-121256074D01*
X92873324Y-121253914D01*
X92846019Y-121233601D01*
X92840633Y-121229594D01*
X92808109Y-121199429D01*
X92761765Y-121170923D01*
X92757376Y-121167658D01*
X92757375Y-121167657D01*
X92718101Y-121138442D01*
X92718102Y-121138442D01*
X92684086Y-121122293D01*
X92678020Y-121119413D01*
X92640242Y-121096177D01*
X92589235Y-121077262D01*
X92584298Y-121074919D01*
X92584289Y-121074915D01*
X92540067Y-121053921D01*
X92540058Y-121053917D01*
X92503547Y-121044715D01*
X92503547Y-121044714D01*
X92497028Y-121043071D01*
X92455456Y-121027656D01*
X92401731Y-121019054D01*
X92396418Y-121017716D01*
X92348961Y-121005755D01*
X92348956Y-121005754D01*
X92311355Y-121003852D01*
X92298022Y-121002452D01*
X88663041Y-120420536D01*
X88599956Y-120390502D01*
X88594961Y-120385776D01*
X88487213Y-120278028D01*
X88321613Y-120157715D01*
X88321612Y-120157714D01*
X88321610Y-120157713D01*
X88264653Y-120128691D01*
X88139223Y-120064781D01*
X87944534Y-120001522D01*
X87769995Y-119973878D01*
X87742352Y-119969500D01*
X87537648Y-119969500D01*
X87513329Y-119973351D01*
X87335465Y-120001522D01*
X87140776Y-120064781D01*
X86958386Y-120157715D01*
X86792786Y-120278028D01*
X86648028Y-120422786D01*
X86527715Y-120588386D01*
X86480485Y-120681080D01*
X86432510Y-120731876D01*
X86364689Y-120748671D01*
X86298554Y-120726134D01*
X86259515Y-120681080D01*
X86258883Y-120679840D01*
X86212287Y-120588390D01*
X86182629Y-120547569D01*
X86091971Y-120422786D01*
X85947213Y-120278028D01*
X85781613Y-120157715D01*
X85781612Y-120157714D01*
X85781610Y-120157713D01*
X85724653Y-120128691D01*
X85599223Y-120064781D01*
X85404534Y-120001522D01*
X85229995Y-119973878D01*
X85202352Y-119969500D01*
X84997648Y-119969500D01*
X84973329Y-119973351D01*
X84795465Y-120001522D01*
X84600776Y-120064781D01*
X84418386Y-120157715D01*
X84252786Y-120278028D01*
X84108028Y-120422786D01*
X83987715Y-120588386D01*
X83894781Y-120770776D01*
X83831522Y-120965465D01*
X83799500Y-121167648D01*
X74267260Y-121167648D01*
X74196288Y-120710526D01*
X74195948Y-120708183D01*
X74195782Y-120706956D01*
X73935685Y-118788069D01*
X73935393Y-118785743D01*
X73712236Y-116860892D01*
X73711998Y-116858657D01*
X73526032Y-114929791D01*
X73525828Y-114927423D01*
X73525139Y-114918477D01*
X73446754Y-113899983D01*
X77449500Y-113899983D01*
X77449500Y-115200001D01*
X77449501Y-115200018D01*
X77460000Y-115302796D01*
X77460001Y-115302799D01*
X77491048Y-115396491D01*
X77515186Y-115469334D01*
X77566665Y-115552796D01*
X77607289Y-115618657D01*
X77731344Y-115742712D01*
X77886120Y-115838178D01*
X77932845Y-115890126D01*
X77944068Y-115959088D01*
X77916224Y-116023171D01*
X77908706Y-116031398D01*
X77769889Y-116170215D01*
X77644951Y-116342179D01*
X77548444Y-116531585D01*
X77482753Y-116733760D01*
X77454777Y-116910395D01*
X77449500Y-116943713D01*
X77449500Y-117156287D01*
X77453841Y-117183696D01*
X77474620Y-117314891D01*
X77482754Y-117366243D01*
X77546938Y-117563781D01*
X77548444Y-117568414D01*
X77644951Y-117757820D01*
X77769890Y-117929786D01*
X77920213Y-118080109D01*
X78092179Y-118205048D01*
X78092181Y-118205049D01*
X78092184Y-118205051D01*
X78281588Y-118301557D01*
X78483757Y-118367246D01*
X78693713Y-118400500D01*
X78693714Y-118400500D01*
X79206286Y-118400500D01*
X79206287Y-118400500D01*
X79416243Y-118367246D01*
X79618412Y-118301557D01*
X79807816Y-118205051D01*
X79872398Y-118158130D01*
X79979786Y-118080109D01*
X79979788Y-118080106D01*
X79979792Y-118080104D01*
X80130104Y-117929792D01*
X80130106Y-117929788D01*
X80130109Y-117929786D01*
X80255050Y-117757817D01*
X80323714Y-117623056D01*
X80371688Y-117572260D01*
X80389251Y-117563783D01*
X81038454Y-117311315D01*
X81056993Y-117307323D01*
X81130170Y-117275648D01*
X81204468Y-117246755D01*
X81212135Y-117241870D01*
X81229509Y-117232649D01*
X81237859Y-117229036D01*
X81303447Y-117183696D01*
X81370684Y-117140861D01*
X81384379Y-117127750D01*
X81399976Y-117116969D01*
X81453884Y-117061330D01*
X81457082Y-117058150D01*
X81513047Y-117004577D01*
X81518266Y-116997122D01*
X81530790Y-116981957D01*
X81537112Y-116975432D01*
X81537111Y-116975432D01*
X81537115Y-116975429D01*
X81580360Y-116908441D01*
X81626087Y-116843135D01*
X81633721Y-116825782D01*
X83587800Y-113798874D01*
X83640696Y-113753231D01*
X83709874Y-113743430D01*
X83773370Y-113772585D01*
X83811024Y-113831441D01*
X83814448Y-113846732D01*
X83831523Y-113954535D01*
X83894781Y-114149223D01*
X83987715Y-114331613D01*
X84108028Y-114497213D01*
X84252786Y-114641971D01*
X84407749Y-114754556D01*
X84418390Y-114762287D01*
X84534607Y-114821503D01*
X84600776Y-114855218D01*
X84600778Y-114855218D01*
X84600781Y-114855220D01*
X84691856Y-114884812D01*
X84795465Y-114918477D01*
X84896557Y-114934488D01*
X84997648Y-114950500D01*
X84997649Y-114950500D01*
X85202351Y-114950500D01*
X85202352Y-114950500D01*
X85404534Y-114918477D01*
X85599219Y-114855220D01*
X85781610Y-114762287D01*
X85874590Y-114694732D01*
X85947213Y-114641971D01*
X85947215Y-114641968D01*
X85947219Y-114641966D01*
X86091966Y-114497219D01*
X86160021Y-114403547D01*
X86215349Y-114360882D01*
X86284963Y-114354902D01*
X86346758Y-114387507D01*
X86378044Y-114437427D01*
X86405186Y-114519334D01*
X86497288Y-114668656D01*
X86621344Y-114792712D01*
X86770666Y-114884814D01*
X86937203Y-114939999D01*
X87039991Y-114950500D01*
X88240008Y-114950499D01*
X88342797Y-114939999D01*
X88509334Y-114884814D01*
X88658656Y-114792712D01*
X88782712Y-114668656D01*
X88874814Y-114519334D01*
X88929999Y-114352797D01*
X88940500Y-114250009D01*
X88940499Y-113049992D01*
X88938810Y-113033462D01*
X88929999Y-112947203D01*
X88929998Y-112947200D01*
X88913181Y-112896451D01*
X88874814Y-112780666D01*
X88782712Y-112631344D01*
X88658656Y-112507288D01*
X88509334Y-112415186D01*
X88342797Y-112360001D01*
X88342795Y-112360000D01*
X88240010Y-112349500D01*
X87039998Y-112349500D01*
X87039981Y-112349501D01*
X86937203Y-112360000D01*
X86937200Y-112360001D01*
X86770668Y-112415185D01*
X86770663Y-112415187D01*
X86621342Y-112507289D01*
X86497289Y-112631342D01*
X86405187Y-112780663D01*
X86405186Y-112780666D01*
X86378045Y-112862571D01*
X86338271Y-112920016D01*
X86273755Y-112946838D01*
X86204979Y-112934522D01*
X86160021Y-112896452D01*
X86091966Y-112802781D01*
X85947219Y-112658034D01*
X85947213Y-112658028D01*
X85781613Y-112537715D01*
X85781612Y-112537714D01*
X85781610Y-112537713D01*
X85692875Y-112492500D01*
X85599223Y-112444781D01*
X85404534Y-112381522D01*
X85229995Y-112353878D01*
X85202352Y-112349500D01*
X84997648Y-112349500D01*
X84973329Y-112353351D01*
X84795465Y-112381522D01*
X84600773Y-112444782D01*
X84480861Y-112505881D01*
X84412192Y-112518777D01*
X84347452Y-112492500D01*
X84307195Y-112435394D01*
X84300582Y-112397358D01*
X84298819Y-112285670D01*
X84257322Y-112093008D01*
X84179036Y-111912141D01*
X84141680Y-111858102D01*
X84066971Y-111750027D01*
X83925427Y-111612885D01*
X83759857Y-111505997D01*
X83759854Y-111505995D01*
X83759852Y-111505994D01*
X83759850Y-111505993D01*
X83759846Y-111505991D01*
X83576605Y-111433460D01*
X83382728Y-111398069D01*
X83382727Y-111398069D01*
X83349884Y-111398587D01*
X83185665Y-111401181D01*
X82993006Y-111442678D01*
X82812140Y-111520964D01*
X82650027Y-111633028D01*
X82512883Y-111774574D01*
X80678676Y-114615795D01*
X80625778Y-114661441D01*
X80556600Y-114671242D01*
X80493104Y-114642087D01*
X80455450Y-114583231D01*
X80450499Y-114548541D01*
X80450499Y-113899998D01*
X80450498Y-113899981D01*
X80439999Y-113797203D01*
X80439998Y-113797200D01*
X80406622Y-113696479D01*
X80384814Y-113630666D01*
X80292712Y-113481344D01*
X80168656Y-113357288D01*
X80019334Y-113265186D01*
X79852797Y-113210001D01*
X79852795Y-113210000D01*
X79750010Y-113199500D01*
X78149998Y-113199500D01*
X78149981Y-113199501D01*
X78047203Y-113210000D01*
X78047200Y-113210001D01*
X77880668Y-113265185D01*
X77880663Y-113265187D01*
X77731342Y-113357289D01*
X77607289Y-113481342D01*
X77515187Y-113630663D01*
X77515186Y-113630666D01*
X77460001Y-113797203D01*
X77460001Y-113797204D01*
X77460000Y-113797204D01*
X77449500Y-113899983D01*
X73446754Y-113899983D01*
X73377142Y-112995490D01*
X73376984Y-112993140D01*
X73375559Y-112968390D01*
X73265616Y-111058658D01*
X73265503Y-111056292D01*
X73263553Y-111005285D01*
X73191496Y-109119993D01*
X73191429Y-109117603D01*
X73189591Y-109020346D01*
X73169014Y-107931591D01*
X73162531Y-107588575D01*
X76170000Y-107588575D01*
X76170000Y-107811424D01*
X76199085Y-108032354D01*
X76199088Y-108032367D01*
X76256763Y-108247618D01*
X76342045Y-108453502D01*
X76342054Y-108453520D01*
X76453464Y-108646491D01*
X76453473Y-108646504D01*
X76504040Y-108712403D01*
X76504043Y-108712403D01*
X77305387Y-107911059D01*
X77310889Y-107931591D01*
X77389881Y-108068408D01*
X77501592Y-108180119D01*
X77638409Y-108259111D01*
X77658940Y-108264612D01*
X76857595Y-109065955D01*
X76857595Y-109065956D01*
X76923507Y-109116533D01*
X77116485Y-109227949D01*
X77116497Y-109227954D01*
X77322381Y-109313236D01*
X77537632Y-109370911D01*
X77537645Y-109370914D01*
X77758575Y-109400000D01*
X77981425Y-109400000D01*
X78202354Y-109370914D01*
X78202367Y-109370911D01*
X78417618Y-109313236D01*
X78623502Y-109227954D01*
X78623514Y-109227949D01*
X78816498Y-109116530D01*
X78882403Y-109065957D01*
X78882404Y-109065956D01*
X78081059Y-108264612D01*
X78101591Y-108259111D01*
X78238408Y-108180119D01*
X78350119Y-108068408D01*
X78429111Y-107931591D01*
X78434612Y-107911059D01*
X79235956Y-108712404D01*
X79235957Y-108712403D01*
X79286530Y-108646498D01*
X79397949Y-108453514D01*
X79397954Y-108453502D01*
X79483236Y-108247618D01*
X79540911Y-108032367D01*
X79540914Y-108032354D01*
X79570000Y-107811424D01*
X79570000Y-107588575D01*
X79540914Y-107367645D01*
X79540911Y-107367632D01*
X79483236Y-107152381D01*
X79397954Y-106946497D01*
X79397949Y-106946485D01*
X79289610Y-106758835D01*
X79286533Y-106753506D01*
X79245463Y-106699984D01*
X86329500Y-106699984D01*
X86329500Y-108700015D01*
X86340000Y-108802795D01*
X86340001Y-108802796D01*
X86395186Y-108969335D01*
X86395187Y-108969337D01*
X86487286Y-109118651D01*
X86487289Y-109118655D01*
X86611344Y-109242710D01*
X86611348Y-109242713D01*
X86760662Y-109334812D01*
X86760664Y-109334813D01*
X86760666Y-109334814D01*
X86927203Y-109389999D01*
X87029992Y-109400500D01*
X87029997Y-109400500D01*
X89030003Y-109400500D01*
X89030008Y-109400500D01*
X89132797Y-109389999D01*
X89299334Y-109334814D01*
X89448655Y-109242711D01*
X89572711Y-109118655D01*
X89664814Y-108969334D01*
X89719999Y-108802797D01*
X89730500Y-108700008D01*
X89730500Y-106699992D01*
X89719999Y-106597203D01*
X89664814Y-106430666D01*
X89634762Y-106381945D01*
X89572713Y-106281348D01*
X89572710Y-106281344D01*
X89448655Y-106157289D01*
X89448651Y-106157286D01*
X89299337Y-106065187D01*
X89299335Y-106065186D01*
X89216065Y-106037593D01*
X89132797Y-106010001D01*
X89132795Y-106010000D01*
X89030015Y-105999500D01*
X89030008Y-105999500D01*
X87029992Y-105999500D01*
X87029984Y-105999500D01*
X86927204Y-106010000D01*
X86927203Y-106010001D01*
X86760664Y-106065186D01*
X86760662Y-106065187D01*
X86611348Y-106157286D01*
X86611344Y-106157289D01*
X86487289Y-106281344D01*
X86487286Y-106281348D01*
X86395187Y-106430662D01*
X86395186Y-106430664D01*
X86340001Y-106597203D01*
X86340000Y-106597204D01*
X86329500Y-106699984D01*
X79245463Y-106699984D01*
X79235956Y-106687595D01*
X79235955Y-106687595D01*
X78434612Y-107488939D01*
X78429111Y-107468409D01*
X78350119Y-107331592D01*
X78238408Y-107219881D01*
X78101591Y-107140889D01*
X78081058Y-107135387D01*
X78882403Y-106334043D01*
X78882403Y-106334040D01*
X78816504Y-106283473D01*
X78816491Y-106283464D01*
X78623520Y-106172054D01*
X78623502Y-106172045D01*
X78417618Y-106086763D01*
X78202367Y-106029088D01*
X78202354Y-106029085D01*
X77981425Y-106000000D01*
X77758575Y-106000000D01*
X77537645Y-106029085D01*
X77537632Y-106029088D01*
X77322381Y-106086763D01*
X77116497Y-106172045D01*
X77116479Y-106172054D01*
X76923511Y-106283462D01*
X76857595Y-106334042D01*
X77658941Y-107135387D01*
X77638409Y-107140889D01*
X77501592Y-107219881D01*
X77389881Y-107331592D01*
X77310889Y-107468409D01*
X77305387Y-107488940D01*
X76504042Y-106687595D01*
X76453462Y-106753511D01*
X76342054Y-106946479D01*
X76342045Y-106946497D01*
X76256763Y-107152381D01*
X76199088Y-107367632D01*
X76199085Y-107367645D01*
X76170000Y-107588575D01*
X73162531Y-107588575D01*
X73154814Y-107180245D01*
X73154793Y-107177901D01*
X73155582Y-105240192D01*
X73155605Y-105237906D01*
X73182717Y-103862648D01*
X83584500Y-103862648D01*
X83584500Y-104067351D01*
X83616522Y-104269534D01*
X83679781Y-104464223D01*
X83772715Y-104646613D01*
X83893028Y-104812213D01*
X84037786Y-104956971D01*
X84192749Y-105069556D01*
X84203390Y-105077287D01*
X84309347Y-105131275D01*
X84385776Y-105170218D01*
X84385778Y-105170218D01*
X84385781Y-105170220D01*
X84480774Y-105201085D01*
X84580465Y-105233477D01*
X84623203Y-105240246D01*
X84782648Y-105265500D01*
X84782649Y-105265500D01*
X84987351Y-105265500D01*
X84987352Y-105265500D01*
X85189534Y-105233477D01*
X85384219Y-105170220D01*
X85566610Y-105077287D01*
X85659590Y-105009732D01*
X85732213Y-104956971D01*
X85732215Y-104956968D01*
X85732219Y-104956966D01*
X85876966Y-104812219D01*
X85876968Y-104812215D01*
X85876971Y-104812213D01*
X85997284Y-104646614D01*
X85997285Y-104646613D01*
X85997287Y-104646610D01*
X86044516Y-104553917D01*
X86092489Y-104503123D01*
X86160310Y-104486328D01*
X86226445Y-104508865D01*
X86265485Y-104553919D01*
X86312715Y-104646614D01*
X86433028Y-104812213D01*
X86577786Y-104956971D01*
X86732749Y-105069556D01*
X86743390Y-105077287D01*
X86849347Y-105131275D01*
X86925776Y-105170218D01*
X86925778Y-105170218D01*
X86925781Y-105170220D01*
X87020774Y-105201085D01*
X87120465Y-105233477D01*
X87163203Y-105240246D01*
X87322648Y-105265500D01*
X87322649Y-105265500D01*
X87527351Y-105265500D01*
X87527352Y-105265500D01*
X87729534Y-105233477D01*
X87924219Y-105170220D01*
X88106610Y-105077287D01*
X88199590Y-105009732D01*
X88272213Y-104956971D01*
X88272215Y-104956968D01*
X88272219Y-104956966D01*
X88416966Y-104812219D01*
X88416968Y-104812215D01*
X88416971Y-104812213D01*
X88469732Y-104739590D01*
X88537287Y-104646610D01*
X88630220Y-104464219D01*
X88693477Y-104269534D01*
X88725500Y-104067352D01*
X88725500Y-103862648D01*
X88693477Y-103660466D01*
X88679882Y-103618626D01*
X88630218Y-103465776D01*
X88584515Y-103376080D01*
X88537287Y-103283390D01*
X88529556Y-103272749D01*
X88416971Y-103117786D01*
X88272213Y-102973028D01*
X88106613Y-102852715D01*
X88106612Y-102852714D01*
X88106610Y-102852713D01*
X87996569Y-102796644D01*
X87924223Y-102759781D01*
X87729534Y-102696522D01*
X87554995Y-102668878D01*
X87527352Y-102664500D01*
X87322648Y-102664500D01*
X87298329Y-102668351D01*
X87120465Y-102696522D01*
X86925776Y-102759781D01*
X86743386Y-102852715D01*
X86577786Y-102973028D01*
X86433028Y-103117786D01*
X86312715Y-103283386D01*
X86265485Y-103376080D01*
X86217510Y-103426876D01*
X86149689Y-103443671D01*
X86083554Y-103421134D01*
X86044515Y-103376080D01*
X86043883Y-103374840D01*
X85997287Y-103283390D01*
X85989556Y-103272749D01*
X85876971Y-103117786D01*
X85732213Y-102973028D01*
X85566613Y-102852715D01*
X85566612Y-102852714D01*
X85566610Y-102852713D01*
X85456569Y-102796644D01*
X85384223Y-102759781D01*
X85189534Y-102696522D01*
X85014995Y-102668878D01*
X84987352Y-102664500D01*
X84782648Y-102664500D01*
X84758329Y-102668351D01*
X84580465Y-102696522D01*
X84385776Y-102759781D01*
X84203386Y-102852715D01*
X84037786Y-102973028D01*
X83893028Y-103117786D01*
X83772715Y-103283386D01*
X83679781Y-103465776D01*
X83616522Y-103660465D01*
X83584500Y-103862648D01*
X73182717Y-103862648D01*
X73193798Y-103300560D01*
X73193868Y-103298181D01*
X73269453Y-101361907D01*
X73269568Y-101359557D01*
X73382509Y-99425185D01*
X73382664Y-99422908D01*
X73501119Y-97899983D01*
X76599500Y-97899983D01*
X76599500Y-99200001D01*
X76599501Y-99200018D01*
X76610000Y-99302796D01*
X76610001Y-99302799D01*
X76665185Y-99469331D01*
X76665187Y-99469336D01*
X76757289Y-99618657D01*
X76881344Y-99742712D01*
X77036120Y-99838178D01*
X77082845Y-99890126D01*
X77094068Y-99959088D01*
X77066224Y-100023171D01*
X77058706Y-100031398D01*
X76919889Y-100170215D01*
X76794951Y-100342179D01*
X76698444Y-100531585D01*
X76632753Y-100733760D01*
X76599500Y-100943713D01*
X76599500Y-101156286D01*
X76632753Y-101366239D01*
X76698444Y-101568414D01*
X76794951Y-101757820D01*
X76919890Y-101929786D01*
X77070213Y-102080109D01*
X77242179Y-102205048D01*
X77242181Y-102205049D01*
X77242184Y-102205051D01*
X77431588Y-102301557D01*
X77633757Y-102367246D01*
X77843713Y-102400500D01*
X77843714Y-102400500D01*
X78356286Y-102400500D01*
X78356287Y-102400500D01*
X78566243Y-102367246D01*
X78768412Y-102301557D01*
X78957816Y-102205051D01*
X78979789Y-102189086D01*
X79129786Y-102080109D01*
X79129788Y-102080106D01*
X79129792Y-102080104D01*
X79280104Y-101929792D01*
X79280106Y-101929788D01*
X79280109Y-101929786D01*
X79405048Y-101757820D01*
X79405047Y-101757820D01*
X79405051Y-101757816D01*
X79501557Y-101568412D01*
X79567246Y-101366243D01*
X79600500Y-101156287D01*
X79600500Y-100943713D01*
X79567246Y-100733757D01*
X79501557Y-100531588D01*
X79405051Y-100342184D01*
X79405049Y-100342181D01*
X79405048Y-100342179D01*
X79297510Y-100194164D01*
X79274030Y-100128357D01*
X79289856Y-100060304D01*
X79339962Y-100011609D01*
X79408440Y-99997734D01*
X79433986Y-100002668D01*
X81827475Y-100732391D01*
X81840095Y-100738711D01*
X81921602Y-100761088D01*
X81923254Y-100761592D01*
X81975919Y-100777648D01*
X82002486Y-100785748D01*
X82016532Y-100787151D01*
X82030143Y-100790888D01*
X82114463Y-100796935D01*
X82198590Y-100805340D01*
X82212639Y-100803976D01*
X82226720Y-100804986D01*
X82310608Y-100794465D01*
X82394749Y-100786298D01*
X82398240Y-100785243D01*
X82418650Y-100780916D01*
X82422269Y-100780463D01*
X82502494Y-100753778D01*
X82583425Y-100729352D01*
X82595883Y-100722715D01*
X82609278Y-100718260D01*
X82681257Y-100677289D01*
X82684253Y-100675639D01*
X82757365Y-100636693D01*
X82768291Y-100627751D01*
X82780557Y-100620770D01*
X82844461Y-100565418D01*
X82909886Y-100511879D01*
X82912200Y-100509066D01*
X82926772Y-100494124D01*
X82929526Y-100491739D01*
X82981423Y-100424958D01*
X83035126Y-100359708D01*
X83041794Y-100347274D01*
X85135110Y-97653638D01*
X85191789Y-97612784D01*
X85194701Y-97611798D01*
X85384219Y-97550220D01*
X85566610Y-97457287D01*
X85695482Y-97363657D01*
X85732213Y-97336971D01*
X85732215Y-97336968D01*
X85732219Y-97336966D01*
X85876966Y-97192219D01*
X85879614Y-97188575D01*
X85920406Y-97132428D01*
X85945021Y-97098547D01*
X86000349Y-97055882D01*
X86069963Y-97049902D01*
X86131758Y-97082507D01*
X86163044Y-97132427D01*
X86190186Y-97214334D01*
X86282288Y-97363656D01*
X86406344Y-97487712D01*
X86555666Y-97579814D01*
X86722203Y-97634999D01*
X86824991Y-97645500D01*
X88025008Y-97645499D01*
X88127797Y-97634999D01*
X88294334Y-97579814D01*
X88443656Y-97487712D01*
X88567712Y-97363656D01*
X88646383Y-97236109D01*
X88698328Y-97189386D01*
X88767291Y-97178163D01*
X88831373Y-97206006D01*
X88870230Y-97264075D01*
X88872231Y-97271186D01*
X94603121Y-120237832D01*
X94603126Y-120237845D01*
X94687224Y-120416069D01*
X94687227Y-120416075D01*
X94804483Y-120574474D01*
X94950390Y-120706956D01*
X94950392Y-120706957D01*
X94950393Y-120706958D01*
X95119343Y-120808430D01*
X95304845Y-120874992D01*
X95304848Y-120874992D01*
X95304850Y-120874993D01*
X95436164Y-120894592D01*
X95499767Y-120904085D01*
X95696619Y-120894592D01*
X95887838Y-120846877D01*
X96066072Y-120762774D01*
X96224475Y-120645516D01*
X96356959Y-120499607D01*
X96458430Y-120330656D01*
X96524992Y-120145155D01*
X96554085Y-119950233D01*
X96544592Y-119753381D01*
X96177423Y-118281947D01*
X104400000Y-118281947D01*
X104400000Y-118518052D01*
X104436934Y-118751247D01*
X104509897Y-118975802D01*
X104617087Y-119186174D01*
X104677338Y-119269104D01*
X104677340Y-119269105D01*
X105376212Y-118570233D01*
X105387482Y-118612292D01*
X105459890Y-118737708D01*
X105562292Y-118840110D01*
X105687708Y-118912518D01*
X105729765Y-118923787D01*
X105030893Y-119622658D01*
X105113828Y-119682914D01*
X105324197Y-119790102D01*
X105548752Y-119863065D01*
X105548751Y-119863065D01*
X105781948Y-119900000D01*
X106018052Y-119900000D01*
X106251247Y-119863065D01*
X106475802Y-119790102D01*
X106686163Y-119682918D01*
X106686169Y-119682914D01*
X106769104Y-119622658D01*
X106769105Y-119622658D01*
X106070233Y-118923787D01*
X106112292Y-118912518D01*
X106237708Y-118840110D01*
X106340110Y-118737708D01*
X106412518Y-118612292D01*
X106423787Y-118570233D01*
X107122658Y-119269105D01*
X107122658Y-119269104D01*
X107182914Y-119186169D01*
X107182918Y-119186163D01*
X107290102Y-118975802D01*
X107363065Y-118751247D01*
X107400000Y-118518052D01*
X107400000Y-118281947D01*
X110900000Y-118281947D01*
X110900000Y-118518052D01*
X110936934Y-118751247D01*
X111009897Y-118975802D01*
X111117087Y-119186174D01*
X111177338Y-119269104D01*
X111177340Y-119269105D01*
X111876212Y-118570233D01*
X111887482Y-118612292D01*
X111959890Y-118737708D01*
X112062292Y-118840110D01*
X112187708Y-118912518D01*
X112229765Y-118923787D01*
X111530893Y-119622658D01*
X111613828Y-119682914D01*
X111824197Y-119790102D01*
X112048752Y-119863065D01*
X112048751Y-119863065D01*
X112281948Y-119900000D01*
X112518052Y-119900000D01*
X112751247Y-119863065D01*
X112975802Y-119790102D01*
X113186163Y-119682918D01*
X113186169Y-119682914D01*
X113269104Y-119622658D01*
X113269105Y-119622658D01*
X112570233Y-118923787D01*
X112612292Y-118912518D01*
X112737708Y-118840110D01*
X112840110Y-118737708D01*
X112912518Y-118612292D01*
X112923787Y-118570234D01*
X113622658Y-119269105D01*
X113622658Y-119269104D01*
X113682914Y-119186169D01*
X113682918Y-119186163D01*
X113790102Y-118975802D01*
X113863065Y-118751247D01*
X113900000Y-118518052D01*
X113900000Y-118281947D01*
X113863065Y-118048752D01*
X113790102Y-117824197D01*
X113682914Y-117613828D01*
X113622658Y-117530894D01*
X113622658Y-117530893D01*
X112923787Y-118229765D01*
X112912518Y-118187708D01*
X112840110Y-118062292D01*
X112737708Y-117959890D01*
X112612292Y-117887482D01*
X112570234Y-117876212D01*
X113269105Y-117177340D01*
X113269104Y-117177338D01*
X113186174Y-117117087D01*
X112975802Y-117009897D01*
X112751247Y-116936934D01*
X112751248Y-116936934D01*
X112518052Y-116900000D01*
X112281948Y-116900000D01*
X112048752Y-116936934D01*
X111824197Y-117009897D01*
X111613830Y-117117084D01*
X111530894Y-117177340D01*
X112229766Y-117876212D01*
X112187708Y-117887482D01*
X112062292Y-117959890D01*
X111959890Y-118062292D01*
X111887482Y-118187708D01*
X111876212Y-118229766D01*
X111177340Y-117530894D01*
X111117084Y-117613830D01*
X111009897Y-117824197D01*
X110936934Y-118048752D01*
X110900000Y-118281947D01*
X107400000Y-118281947D01*
X107363065Y-118048752D01*
X107290102Y-117824197D01*
X107182914Y-117613828D01*
X107122658Y-117530894D01*
X107122658Y-117530893D01*
X106423787Y-118229765D01*
X106412518Y-118187708D01*
X106340110Y-118062292D01*
X106237708Y-117959890D01*
X106112292Y-117887482D01*
X106070234Y-117876212D01*
X106769105Y-117177340D01*
X106769104Y-117177339D01*
X106686174Y-117117087D01*
X106475802Y-117009897D01*
X106251247Y-116936934D01*
X106251248Y-116936934D01*
X106018052Y-116900000D01*
X105781948Y-116900000D01*
X105548752Y-116936934D01*
X105324197Y-117009897D01*
X105113830Y-117117084D01*
X105030894Y-117177340D01*
X105729766Y-117876212D01*
X105687708Y-117887482D01*
X105562292Y-117959890D01*
X105459890Y-118062292D01*
X105387482Y-118187708D01*
X105376212Y-118229766D01*
X104677340Y-117530894D01*
X104617084Y-117613830D01*
X104509897Y-117824197D01*
X104436934Y-118048752D01*
X104400000Y-118281947D01*
X96177423Y-118281947D01*
X96078992Y-117887482D01*
X95921074Y-117254620D01*
X94464371Y-111416856D01*
X94457666Y-111389984D01*
X99849500Y-111389984D01*
X99849500Y-113390015D01*
X99860000Y-113492795D01*
X99860001Y-113492797D01*
X99878177Y-113547648D01*
X99915186Y-113659335D01*
X99915187Y-113659337D01*
X100007286Y-113808651D01*
X100007289Y-113808655D01*
X100131344Y-113932710D01*
X100131348Y-113932713D01*
X100280662Y-114024812D01*
X100280664Y-114024813D01*
X100280666Y-114024814D01*
X100447203Y-114079999D01*
X100549992Y-114090500D01*
X100549997Y-114090500D01*
X102550003Y-114090500D01*
X102550008Y-114090500D01*
X102652797Y-114079999D01*
X102819334Y-114024814D01*
X102968655Y-113932711D01*
X103092711Y-113808655D01*
X103184814Y-113659334D01*
X103239999Y-113492797D01*
X103244372Y-113449984D01*
X119499500Y-113449984D01*
X119499500Y-115450015D01*
X119510000Y-115552795D01*
X119510001Y-115552796D01*
X119565186Y-115719335D01*
X119565187Y-115719337D01*
X119657286Y-115868651D01*
X119657289Y-115868655D01*
X119781344Y-115992710D01*
X119781348Y-115992713D01*
X119930662Y-116084812D01*
X119930664Y-116084813D01*
X119930666Y-116084814D01*
X120097203Y-116139999D01*
X120199992Y-116150500D01*
X120199997Y-116150500D01*
X122200003Y-116150500D01*
X122200008Y-116150500D01*
X122302797Y-116139999D01*
X122469334Y-116084814D01*
X122618655Y-115992711D01*
X122742711Y-115868655D01*
X122834814Y-115719334D01*
X122889999Y-115552797D01*
X122900500Y-115450008D01*
X122900500Y-114338575D01*
X127000000Y-114338575D01*
X127000000Y-114561424D01*
X127029085Y-114782354D01*
X127029088Y-114782367D01*
X127086763Y-114997618D01*
X127172045Y-115203502D01*
X127172054Y-115203520D01*
X127283464Y-115396491D01*
X127283473Y-115396504D01*
X127334040Y-115462403D01*
X127334043Y-115462403D01*
X128135387Y-114661059D01*
X128140889Y-114681591D01*
X128219881Y-114818408D01*
X128331592Y-114930119D01*
X128468409Y-115009111D01*
X128488940Y-115014612D01*
X127687595Y-115815955D01*
X127687595Y-115815956D01*
X127753507Y-115866533D01*
X127946485Y-115977949D01*
X127946497Y-115977954D01*
X128152381Y-116063236D01*
X128367632Y-116120911D01*
X128367645Y-116120914D01*
X128588575Y-116150000D01*
X128811425Y-116150000D01*
X129032354Y-116120914D01*
X129032367Y-116120911D01*
X129247618Y-116063236D01*
X129453502Y-115977954D01*
X129453514Y-115977949D01*
X129646498Y-115866530D01*
X129712403Y-115815957D01*
X129712404Y-115815956D01*
X128911059Y-115014612D01*
X128931591Y-115009111D01*
X129068408Y-114930119D01*
X129180119Y-114818408D01*
X129259111Y-114681591D01*
X129264612Y-114661059D01*
X130065956Y-115462404D01*
X130065957Y-115462403D01*
X130116530Y-115396498D01*
X130227949Y-115203514D01*
X130227954Y-115203502D01*
X130313236Y-114997618D01*
X130370911Y-114782367D01*
X130370914Y-114782354D01*
X130400000Y-114561424D01*
X130400000Y-114338575D01*
X130370914Y-114117645D01*
X130370911Y-114117632D01*
X130313236Y-113902381D01*
X130227954Y-113696497D01*
X130227949Y-113696485D01*
X130116533Y-113503507D01*
X130065956Y-113437595D01*
X130065955Y-113437595D01*
X129264612Y-114238939D01*
X129259111Y-114218409D01*
X129180119Y-114081592D01*
X129068408Y-113969881D01*
X128931591Y-113890889D01*
X128911058Y-113885387D01*
X129712403Y-113084043D01*
X129712403Y-113084040D01*
X129646504Y-113033473D01*
X129646491Y-113033464D01*
X129453520Y-112922054D01*
X129453502Y-112922045D01*
X129247618Y-112836763D01*
X129032367Y-112779088D01*
X129032354Y-112779085D01*
X128811425Y-112750000D01*
X128588575Y-112750000D01*
X128367645Y-112779085D01*
X128367632Y-112779088D01*
X128152381Y-112836763D01*
X127946497Y-112922045D01*
X127946479Y-112922054D01*
X127753511Y-113033462D01*
X127687595Y-113084042D01*
X128488941Y-113885387D01*
X128468409Y-113890889D01*
X128331592Y-113969881D01*
X128219881Y-114081592D01*
X128140889Y-114218409D01*
X128135387Y-114238940D01*
X127334042Y-113437595D01*
X127283462Y-113503511D01*
X127172054Y-113696479D01*
X127172045Y-113696497D01*
X127086763Y-113902381D01*
X127029088Y-114117632D01*
X127029085Y-114117645D01*
X127000000Y-114338575D01*
X122900500Y-114338575D01*
X122900500Y-113449992D01*
X122889999Y-113347203D01*
X122834814Y-113180666D01*
X122775214Y-113084040D01*
X122742713Y-113031348D01*
X122742710Y-113031344D01*
X122618655Y-112907289D01*
X122618651Y-112907286D01*
X122469337Y-112815187D01*
X122469335Y-112815186D01*
X122365166Y-112780668D01*
X122302797Y-112760001D01*
X122302795Y-112760000D01*
X122200015Y-112749500D01*
X122200008Y-112749500D01*
X120199992Y-112749500D01*
X120199984Y-112749500D01*
X120097204Y-112760000D01*
X120097203Y-112760001D01*
X119930664Y-112815186D01*
X119930662Y-112815187D01*
X119781348Y-112907286D01*
X119781344Y-112907289D01*
X119657289Y-113031344D01*
X119657286Y-113031348D01*
X119565187Y-113180662D01*
X119565186Y-113180664D01*
X119510001Y-113347203D01*
X119510000Y-113347204D01*
X119499500Y-113449984D01*
X103244372Y-113449984D01*
X103245021Y-113443632D01*
X103245982Y-113434233D01*
X103245982Y-113434232D01*
X103250499Y-113390015D01*
X103250500Y-113390002D01*
X103250500Y-111389997D01*
X103250499Y-111389984D01*
X103239999Y-111287204D01*
X103239999Y-111287203D01*
X103184814Y-111120666D01*
X103145107Y-111056292D01*
X103092713Y-110971348D01*
X103092710Y-110971344D01*
X102968655Y-110847289D01*
X102968651Y-110847286D01*
X102819337Y-110755187D01*
X102819335Y-110755186D01*
X102708116Y-110718332D01*
X102652797Y-110700001D01*
X102652795Y-110700000D01*
X102550015Y-110689500D01*
X102550008Y-110689500D01*
X100549992Y-110689500D01*
X100549984Y-110689500D01*
X100447204Y-110700000D01*
X100447203Y-110700001D01*
X100280664Y-110755186D01*
X100280662Y-110755187D01*
X100131348Y-110847286D01*
X100131344Y-110847289D01*
X100007289Y-110971344D01*
X100007286Y-110971348D01*
X99915187Y-111120662D01*
X99915186Y-111120664D01*
X99860001Y-111287203D01*
X99860000Y-111287204D01*
X99849500Y-111389984D01*
X94457666Y-111389984D01*
X93407217Y-107180294D01*
X92913343Y-105201084D01*
X92916211Y-105131275D01*
X92956367Y-105074097D01*
X93021060Y-105047705D01*
X93089752Y-105060479D01*
X93128673Y-105091394D01*
X96913584Y-109605508D01*
X97846644Y-110718332D01*
X98000299Y-110841747D01*
X98175077Y-110932815D01*
X98364265Y-110988035D01*
X98364264Y-110988035D01*
X98378935Y-110989324D01*
X98560589Y-111005285D01*
X98756508Y-110983903D01*
X98944490Y-110924710D01*
X99117311Y-110829981D01*
X99268332Y-110703356D01*
X99391747Y-110549701D01*
X99482815Y-110374923D01*
X99538035Y-110185735D01*
X99555285Y-109989411D01*
X99533903Y-109793492D01*
X99474710Y-109605510D01*
X99379981Y-109432689D01*
X93803356Y-102781668D01*
X93649701Y-102658253D01*
X93474923Y-102567185D01*
X93285735Y-102511965D01*
X93285732Y-102511964D01*
X93285735Y-102511964D01*
X93118752Y-102497293D01*
X93089411Y-102494715D01*
X93089410Y-102494715D01*
X93089409Y-102494715D01*
X92893490Y-102516097D01*
X92705508Y-102575290D01*
X92532692Y-102670016D01*
X92477145Y-102716590D01*
X92413125Y-102744578D01*
X92344138Y-102733511D01*
X92292085Y-102686904D01*
X92277166Y-102651594D01*
X89885051Y-93065145D01*
X89887919Y-92995337D01*
X89928075Y-92938159D01*
X89992768Y-92911767D01*
X90014012Y-92911429D01*
X91826486Y-93038301D01*
X91891985Y-93062618D01*
X91933941Y-93118489D01*
X91939356Y-93137374D01*
X92748812Y-97132428D01*
X93337605Y-100038409D01*
X93338994Y-100045261D01*
X93412421Y-100220757D01*
X93415061Y-100227067D01*
X93525135Y-100390543D01*
X93664988Y-100529404D01*
X93829243Y-100638313D01*
X94011591Y-100713084D01*
X94205020Y-100750844D01*
X94205021Y-100750843D01*
X94205022Y-100750844D01*
X94248815Y-100750688D01*
X94402100Y-100750143D01*
X94595257Y-100711007D01*
X94777066Y-100634939D01*
X94940543Y-100524865D01*
X95079404Y-100385012D01*
X95188312Y-100220757D01*
X95263084Y-100038409D01*
X95300844Y-99844980D01*
X95300143Y-99647900D01*
X94621807Y-96299984D01*
X119536746Y-96299984D01*
X119536746Y-98300015D01*
X119547246Y-98402795D01*
X119547247Y-98402796D01*
X119602432Y-98569335D01*
X119602433Y-98569337D01*
X119694532Y-98718651D01*
X119694535Y-98718655D01*
X119818590Y-98842710D01*
X119818594Y-98842713D01*
X119967908Y-98934812D01*
X119967910Y-98934813D01*
X119967912Y-98934814D01*
X120134449Y-98989999D01*
X120237238Y-99000500D01*
X120237243Y-99000500D01*
X122237249Y-99000500D01*
X122237254Y-99000500D01*
X122340043Y-98989999D01*
X122506580Y-98934814D01*
X122655901Y-98842711D01*
X122779957Y-98718655D01*
X122872060Y-98569334D01*
X122927245Y-98402797D01*
X122937746Y-98300008D01*
X122937746Y-97188575D01*
X127037246Y-97188575D01*
X127037246Y-97411424D01*
X127066331Y-97632354D01*
X127066334Y-97632367D01*
X127124009Y-97847618D01*
X127209291Y-98053502D01*
X127209300Y-98053520D01*
X127320710Y-98246491D01*
X127320719Y-98246504D01*
X127371286Y-98312403D01*
X127371289Y-98312403D01*
X128172633Y-97511059D01*
X128178135Y-97531591D01*
X128257127Y-97668408D01*
X128368838Y-97780119D01*
X128505655Y-97859111D01*
X128526186Y-97864612D01*
X127724841Y-98665955D01*
X127724841Y-98665956D01*
X127790753Y-98716533D01*
X127983731Y-98827949D01*
X127983743Y-98827954D01*
X128189627Y-98913236D01*
X128404878Y-98970911D01*
X128404891Y-98970914D01*
X128625821Y-99000000D01*
X128848671Y-99000000D01*
X129069600Y-98970914D01*
X129069613Y-98970911D01*
X129284864Y-98913236D01*
X129490748Y-98827954D01*
X129490760Y-98827949D01*
X129683744Y-98716530D01*
X129749649Y-98665957D01*
X129749650Y-98665956D01*
X128948305Y-97864612D01*
X128968837Y-97859111D01*
X129105654Y-97780119D01*
X129217365Y-97668408D01*
X129296357Y-97531591D01*
X129301858Y-97511059D01*
X130103202Y-98312404D01*
X130103203Y-98312403D01*
X130153776Y-98246498D01*
X130265195Y-98053514D01*
X130265200Y-98053502D01*
X130350482Y-97847618D01*
X130408157Y-97632367D01*
X130408160Y-97632354D01*
X130437246Y-97411424D01*
X130437246Y-97188575D01*
X130408160Y-96967645D01*
X130408157Y-96967632D01*
X130350482Y-96752381D01*
X130265200Y-96546497D01*
X130265195Y-96546485D01*
X130153779Y-96353507D01*
X130103202Y-96287595D01*
X130103201Y-96287595D01*
X129301858Y-97088939D01*
X129296357Y-97068409D01*
X129217365Y-96931592D01*
X129105654Y-96819881D01*
X128968837Y-96740889D01*
X128948304Y-96735387D01*
X129749649Y-95934043D01*
X129749649Y-95934040D01*
X129683750Y-95883473D01*
X129683737Y-95883464D01*
X129490766Y-95772054D01*
X129490748Y-95772045D01*
X129284864Y-95686763D01*
X129069613Y-95629088D01*
X129069600Y-95629085D01*
X128848671Y-95600000D01*
X128625821Y-95600000D01*
X128404891Y-95629085D01*
X128404878Y-95629088D01*
X128189627Y-95686763D01*
X127983743Y-95772045D01*
X127983725Y-95772054D01*
X127790757Y-95883462D01*
X127724841Y-95934042D01*
X128526187Y-96735387D01*
X128505655Y-96740889D01*
X128368838Y-96819881D01*
X128257127Y-96931592D01*
X128178135Y-97068409D01*
X128172633Y-97088940D01*
X127371288Y-96287595D01*
X127320708Y-96353511D01*
X127209300Y-96546479D01*
X127209291Y-96546497D01*
X127124009Y-96752381D01*
X127066334Y-96967632D01*
X127066331Y-96967645D01*
X127037246Y-97188575D01*
X122937746Y-97188575D01*
X122937746Y-96299992D01*
X122927245Y-96197203D01*
X122872060Y-96030666D01*
X122812460Y-95934040D01*
X122779959Y-95881348D01*
X122779956Y-95881344D01*
X122655901Y-95757289D01*
X122655897Y-95757286D01*
X122506583Y-95665187D01*
X122506581Y-95665186D01*
X122398953Y-95629522D01*
X122340043Y-95610001D01*
X122340041Y-95610000D01*
X122237261Y-95599500D01*
X122237254Y-95599500D01*
X120237238Y-95599500D01*
X120237230Y-95599500D01*
X120134450Y-95610000D01*
X120134449Y-95610001D01*
X119967910Y-95665186D01*
X119967908Y-95665187D01*
X119818594Y-95757286D01*
X119818590Y-95757289D01*
X119694535Y-95881344D01*
X119694532Y-95881348D01*
X119602433Y-96030662D01*
X119602432Y-96030664D01*
X119547247Y-96197203D01*
X119547246Y-96197204D01*
X119536746Y-96299984D01*
X94621807Y-96299984D01*
X93737872Y-91937338D01*
X93730081Y-91876057D01*
X93718351Y-91840992D01*
X93711007Y-91804743D01*
X93687160Y-91747747D01*
X93667561Y-91689156D01*
X93649210Y-91657042D01*
X93634939Y-91622934D01*
X93602977Y-91575465D01*
X93598171Y-91567729D01*
X93569782Y-91518049D01*
X93569778Y-91518042D01*
X93550519Y-91495883D01*
X93545515Y-91490126D01*
X93524865Y-91459457D01*
X93481020Y-91415923D01*
X93478025Y-91412477D01*
X93440496Y-91369298D01*
X93440486Y-91369288D01*
X93417288Y-91351324D01*
X93405843Y-91341279D01*
X93385012Y-91320596D01*
X93385008Y-91320593D01*
X93337318Y-91288972D01*
X93329921Y-91283667D01*
X93284670Y-91248625D01*
X93284668Y-91248624D01*
X93284669Y-91248624D01*
X93258402Y-91235525D01*
X93258402Y-91235526D01*
X93251574Y-91232121D01*
X93220757Y-91211688D01*
X93163593Y-91188247D01*
X93108302Y-91160676D01*
X93108301Y-91160675D01*
X93108300Y-91160675D01*
X93079982Y-91152952D01*
X93065572Y-91148053D01*
X93038412Y-91136917D01*
X93038410Y-91136916D01*
X93038409Y-91136916D01*
X92982218Y-91125946D01*
X92973378Y-91123880D01*
X92918162Y-91108822D01*
X92918165Y-91108822D01*
X92888879Y-91106772D01*
X92888879Y-91106771D01*
X92881257Y-91106237D01*
X92844980Y-91099156D01*
X92783213Y-91099374D01*
X92778657Y-91099056D01*
X87924064Y-90759235D01*
X87913440Y-90757994D01*
X87817626Y-90751783D01*
X87816990Y-90751740D01*
X87721561Y-90745060D01*
X87718706Y-90745141D01*
X87718637Y-90745144D01*
X87716505Y-90745204D01*
X87621700Y-90757755D01*
X87621067Y-90757838D01*
X87526044Y-90769920D01*
X87523450Y-90770512D01*
X87523294Y-90770549D01*
X87521130Y-90771044D01*
X87430421Y-90801906D01*
X87430422Y-90801907D01*
X87430005Y-90802048D01*
X87339156Y-90832439D01*
X87336892Y-90833732D01*
X87334607Y-90834510D01*
X87334422Y-90834573D01*
X87251615Y-90882460D01*
X87251616Y-90882461D01*
X87251282Y-90882653D01*
X87168042Y-90930222D01*
X87166077Y-90931928D01*
X87158706Y-90936191D01*
X87158704Y-90936191D01*
X83013824Y-93333232D01*
X82865740Y-93463288D01*
X82745880Y-93619726D01*
X82745879Y-93619728D01*
X82658839Y-93796549D01*
X82607968Y-93986951D01*
X82595221Y-94183616D01*
X82595221Y-94183628D01*
X82621085Y-94378987D01*
X82621089Y-94379006D01*
X82684569Y-94565568D01*
X82684569Y-94565569D01*
X82718602Y-94624417D01*
X82783235Y-94736179D01*
X82913287Y-94884258D01*
X83069728Y-95004121D01*
X83246548Y-95091160D01*
X83436950Y-95142031D01*
X83633620Y-95154779D01*
X83828996Y-95128913D01*
X83829002Y-95128910D01*
X83829006Y-95128910D01*
X83893405Y-95106997D01*
X84015572Y-95065429D01*
X84015590Y-95065418D01*
X84016730Y-95064902D01*
X84017400Y-95064807D01*
X84021339Y-95063467D01*
X84021593Y-95064213D01*
X84085910Y-95055110D01*
X84149402Y-95084274D01*
X84187048Y-95143134D01*
X84186895Y-95213004D01*
X84148993Y-95271699D01*
X84140880Y-95278127D01*
X84037787Y-95353028D01*
X84037782Y-95353032D01*
X83893028Y-95497786D01*
X83772715Y-95663386D01*
X83679781Y-95845776D01*
X83616522Y-96040465D01*
X83584500Y-96242648D01*
X83584500Y-96345461D01*
X83564815Y-96412500D01*
X83558410Y-96421550D01*
X81885161Y-98574649D01*
X81828481Y-98615505D01*
X81758711Y-98619231D01*
X81751089Y-98617170D01*
X79685806Y-97987511D01*
X79627422Y-97949132D01*
X79599054Y-97885280D01*
X79598610Y-97881502D01*
X79596323Y-97859111D01*
X79589999Y-97797203D01*
X79534814Y-97630666D01*
X79442712Y-97481344D01*
X79318656Y-97357288D01*
X79169334Y-97265186D01*
X79002797Y-97210001D01*
X79002795Y-97210000D01*
X78900010Y-97199500D01*
X77299998Y-97199500D01*
X77299981Y-97199501D01*
X77197203Y-97210000D01*
X77197200Y-97210001D01*
X77030668Y-97265185D01*
X77030663Y-97265187D01*
X76881342Y-97357289D01*
X76757289Y-97481342D01*
X76665187Y-97630663D01*
X76665185Y-97630668D01*
X76637349Y-97714670D01*
X76610001Y-97797203D01*
X76610001Y-97797204D01*
X76610000Y-97797204D01*
X76599500Y-97899983D01*
X73501119Y-97899983D01*
X73532939Y-97490888D01*
X73533133Y-97488677D01*
X73720668Y-95559979D01*
X73720919Y-95557645D01*
X73720928Y-95557571D01*
X73945638Y-93633027D01*
X73945923Y-93630776D01*
X74207770Y-91710718D01*
X74208110Y-91708398D01*
X74216127Y-91657042D01*
X74502183Y-89824432D01*
X100758233Y-89824432D01*
X100769652Y-89981123D01*
X100772557Y-90020990D01*
X100824951Y-90210979D01*
X103550153Y-95637095D01*
X103550157Y-95637101D01*
X103650344Y-95765715D01*
X103671266Y-95792573D01*
X103820382Y-95921434D01*
X103991774Y-96018729D01*
X104178852Y-96080717D01*
X104374430Y-96105016D01*
X104374431Y-96105015D01*
X104374432Y-96105016D01*
X104394363Y-96103563D01*
X104570990Y-96090693D01*
X104760979Y-96038299D01*
X104937096Y-95949846D01*
X104937098Y-95949843D01*
X104937102Y-95949842D01*
X105092568Y-95828738D01*
X105092572Y-95828735D01*
X105092573Y-95828732D01*
X105092576Y-95828731D01*
X105215260Y-95686763D01*
X105221434Y-95679619D01*
X105221438Y-95679611D01*
X105221443Y-95679605D01*
X105290718Y-95557571D01*
X105318729Y-95508227D01*
X105380716Y-95321149D01*
X105405016Y-95125570D01*
X105390693Y-94929011D01*
X105338299Y-94739022D01*
X102621758Y-89330152D01*
X102609262Y-89261410D01*
X102635913Y-89196823D01*
X102693253Y-89156898D01*
X102732569Y-89150500D01*
X111491793Y-89150500D01*
X111638718Y-89121274D01*
X111685085Y-89112051D01*
X111867164Y-89036632D01*
X112031032Y-88927139D01*
X112170389Y-88787782D01*
X112279882Y-88623914D01*
X112355301Y-88441835D01*
X112393750Y-88248541D01*
X112393750Y-88051459D01*
X112393750Y-88051456D01*
X112355302Y-87858170D01*
X112355301Y-87858169D01*
X112355301Y-87858165D01*
X112355299Y-87858160D01*
X112279885Y-87676092D01*
X112279878Y-87676079D01*
X112170389Y-87512218D01*
X112170386Y-87512214D01*
X112031035Y-87372863D01*
X112031031Y-87372860D01*
X111867170Y-87263371D01*
X111867157Y-87263364D01*
X111685089Y-87187950D01*
X111685079Y-87187947D01*
X111491793Y-87149500D01*
X111491791Y-87149500D01*
X101951459Y-87149500D01*
X101951457Y-87149500D01*
X101758170Y-87187947D01*
X101758160Y-87187950D01*
X101576092Y-87263364D01*
X101576079Y-87263371D01*
X101412218Y-87372860D01*
X101412214Y-87372863D01*
X101272863Y-87512214D01*
X101272860Y-87512218D01*
X101163371Y-87676079D01*
X101163364Y-87676092D01*
X101087950Y-87858160D01*
X101087947Y-87858170D01*
X101049500Y-88051456D01*
X101049500Y-88051459D01*
X101049500Y-88248541D01*
X101049500Y-88248543D01*
X101049499Y-88248543D01*
X101087947Y-88441829D01*
X101087950Y-88441839D01*
X101163364Y-88623907D01*
X101163371Y-88623920D01*
X101272860Y-88787781D01*
X101272863Y-88787785D01*
X101277193Y-88792115D01*
X101310678Y-88853438D01*
X101305694Y-88923130D01*
X101263822Y-88979063D01*
X101245168Y-88990604D01*
X101226159Y-89000151D01*
X101226156Y-89000152D01*
X101226154Y-89000154D01*
X101070678Y-89121266D01*
X101070676Y-89121267D01*
X101070676Y-89121268D01*
X101070670Y-89121274D01*
X100941819Y-89270377D01*
X100941813Y-89270386D01*
X100844523Y-89441770D01*
X100782533Y-89628853D01*
X100758234Y-89824430D01*
X100758233Y-89824432D01*
X74502183Y-89824432D01*
X74506957Y-89793849D01*
X74507335Y-89791581D01*
X74599029Y-89270386D01*
X74843071Y-87883226D01*
X74843503Y-87880903D01*
X75216033Y-85979283D01*
X75216493Y-85977050D01*
X75625663Y-84082974D01*
X75626164Y-84080758D01*
X75753078Y-83543713D01*
X80399500Y-83543713D01*
X80399500Y-83756286D01*
X80420453Y-83888582D01*
X80432754Y-83966243D01*
X80497608Y-84165843D01*
X80498444Y-84168414D01*
X80594951Y-84357820D01*
X80719890Y-84529786D01*
X80870213Y-84680109D01*
X81042179Y-84805048D01*
X81042181Y-84805049D01*
X81042184Y-84805051D01*
X81231588Y-84901557D01*
X81433757Y-84967246D01*
X81643713Y-85000500D01*
X81643714Y-85000500D01*
X82156286Y-85000500D01*
X82156287Y-85000500D01*
X82366243Y-84967246D01*
X82568412Y-84901557D01*
X82637153Y-84866532D01*
X93045215Y-84866532D01*
X93057993Y-85063196D01*
X93057993Y-85063199D01*
X93057994Y-85063202D01*
X93057995Y-85063204D01*
X93108893Y-85253595D01*
X93195957Y-85430397D01*
X93195959Y-85430400D01*
X93195960Y-85430402D01*
X93265681Y-85521371D01*
X93315843Y-85586821D01*
X93315850Y-85586829D01*
X93404707Y-85664842D01*
X93463947Y-85716854D01*
X93634567Y-85815492D01*
X93634573Y-85815494D01*
X93634575Y-85815495D01*
X93783579Y-85866170D01*
X93821154Y-85878949D01*
X94016534Y-85904784D01*
X94213202Y-85892006D01*
X94403596Y-85841106D01*
X94580402Y-85754040D01*
X100725953Y-81043945D01*
X102889500Y-81043945D01*
X102889500Y-81236054D01*
X102919553Y-81425802D01*
X102978916Y-81608506D01*
X103066135Y-81779681D01*
X103179055Y-81935102D01*
X103314898Y-82070945D01*
X103470319Y-82183865D01*
X103641491Y-82271082D01*
X103641493Y-82271083D01*
X103728953Y-82299500D01*
X103824199Y-82330447D01*
X104013945Y-82360500D01*
X104013946Y-82360500D01*
X104206054Y-82360500D01*
X104206055Y-82360500D01*
X104395801Y-82330447D01*
X104578509Y-82271082D01*
X104749681Y-82183865D01*
X104905102Y-82070945D01*
X105040945Y-81935102D01*
X105153865Y-81779681D01*
X105241082Y-81608509D01*
X105300447Y-81425801D01*
X105330500Y-81236055D01*
X105330500Y-81043945D01*
X105300447Y-80854199D01*
X105241082Y-80671491D01*
X105153865Y-80500319D01*
X105040945Y-80344898D01*
X104905102Y-80209055D01*
X104749681Y-80096135D01*
X104721261Y-80081654D01*
X104578506Y-80008916D01*
X104395802Y-79949553D01*
X104300928Y-79934526D01*
X104206055Y-79919500D01*
X104013945Y-79919500D01*
X103950696Y-79929517D01*
X103824197Y-79949553D01*
X103641493Y-80008916D01*
X103470318Y-80096135D01*
X103381645Y-80160560D01*
X103314898Y-80209055D01*
X103314896Y-80209057D01*
X103314895Y-80209057D01*
X103179057Y-80344895D01*
X103179057Y-80344896D01*
X103179055Y-80344898D01*
X103150540Y-80384146D01*
X103066135Y-80500318D01*
X102978916Y-80671493D01*
X102919553Y-80854197D01*
X102889500Y-81043945D01*
X100725953Y-81043945D01*
X101504995Y-80446869D01*
X101580149Y-80390344D01*
X101583196Y-80386934D01*
X101586821Y-80384157D01*
X101586821Y-80384156D01*
X101586826Y-80384153D01*
X101648495Y-80313912D01*
X101649096Y-80313233D01*
X103266871Y-78503945D01*
X105429500Y-78503945D01*
X105429500Y-78696054D01*
X105459553Y-78885802D01*
X105518916Y-79068506D01*
X105518918Y-79068509D01*
X105606135Y-79239681D01*
X105719055Y-79395102D01*
X105854898Y-79530945D01*
X106010319Y-79643865D01*
X106181491Y-79731082D01*
X106181493Y-79731083D01*
X106272845Y-79760764D01*
X106364199Y-79790447D01*
X106553945Y-79820500D01*
X106553946Y-79820500D01*
X106746054Y-79820500D01*
X106746055Y-79820500D01*
X106935801Y-79790447D01*
X107118509Y-79731082D01*
X107289681Y-79643865D01*
X107445102Y-79530945D01*
X107580945Y-79395102D01*
X107693865Y-79239681D01*
X107781082Y-79068509D01*
X107840447Y-78885801D01*
X107870500Y-78696055D01*
X107870500Y-78503945D01*
X107840447Y-78314199D01*
X107781082Y-78131491D01*
X107693865Y-77960319D01*
X107580945Y-77804898D01*
X107445102Y-77669055D01*
X107289681Y-77556135D01*
X107118506Y-77468916D01*
X106935802Y-77409553D01*
X106840928Y-77394526D01*
X106746055Y-77379500D01*
X106553945Y-77379500D01*
X106490696Y-77389517D01*
X106364197Y-77409553D01*
X106181493Y-77468916D01*
X106010318Y-77556135D01*
X105921645Y-77620560D01*
X105854898Y-77669055D01*
X105854896Y-77669057D01*
X105854895Y-77669057D01*
X105719057Y-77804895D01*
X105719057Y-77804896D01*
X105719055Y-77804898D01*
X105670560Y-77871645D01*
X105606135Y-77960318D01*
X105518916Y-78131493D01*
X105459553Y-78314197D01*
X105429500Y-78503945D01*
X103266871Y-78503945D01*
X104362066Y-77279101D01*
X104416183Y-77243824D01*
X104474333Y-77224930D01*
X104578504Y-77191084D01*
X104578506Y-77191082D01*
X104578509Y-77191082D01*
X104749681Y-77103865D01*
X104905102Y-76990945D01*
X105040945Y-76855102D01*
X105153865Y-76699681D01*
X105241082Y-76528509D01*
X105300447Y-76345801D01*
X105330500Y-76156055D01*
X105330500Y-75963945D01*
X105300447Y-75774199D01*
X105241082Y-75591491D01*
X105153865Y-75420319D01*
X105040945Y-75264898D01*
X104905102Y-75129055D01*
X104749681Y-75016135D01*
X104578506Y-74928916D01*
X104395802Y-74869553D01*
X104300928Y-74854526D01*
X104206055Y-74839500D01*
X104013945Y-74839500D01*
X103950696Y-74849517D01*
X103824197Y-74869553D01*
X103641493Y-74928916D01*
X103470318Y-75016135D01*
X103381645Y-75080560D01*
X103314898Y-75129055D01*
X103314896Y-75129057D01*
X103314895Y-75129057D01*
X103179057Y-75264895D01*
X103179057Y-75264896D01*
X103179055Y-75264898D01*
X103130560Y-75331645D01*
X103066135Y-75420318D01*
X102978916Y-75591493D01*
X102919553Y-75774194D01*
X102919553Y-75774195D01*
X102902902Y-75879323D01*
X102872972Y-75942457D01*
X102872866Y-75942576D01*
X100224566Y-78904382D01*
X100207559Y-78920149D01*
X93363178Y-84165843D01*
X93363170Y-84165850D01*
X93233147Y-84313945D01*
X93134509Y-84484565D01*
X93134504Y-84484575D01*
X93071053Y-84671145D01*
X93071051Y-84671153D01*
X93045215Y-84866532D01*
X82637153Y-84866532D01*
X82757816Y-84805051D01*
X82785561Y-84784893D01*
X82808570Y-84768177D01*
X82929786Y-84680109D01*
X82929788Y-84680106D01*
X82929792Y-84680104D01*
X83080104Y-84529792D01*
X83080106Y-84529788D01*
X83080109Y-84529786D01*
X83205048Y-84357820D01*
X83205047Y-84357820D01*
X83205051Y-84357816D01*
X83301557Y-84168412D01*
X83367246Y-83966243D01*
X83400500Y-83756287D01*
X83400500Y-83543713D01*
X83367246Y-83333757D01*
X83301557Y-83131588D01*
X83205051Y-82942184D01*
X83205049Y-82942181D01*
X83205048Y-82942179D01*
X83080109Y-82770213D01*
X82940931Y-82631035D01*
X82907446Y-82569712D01*
X82912430Y-82500020D01*
X82954302Y-82444087D01*
X82963516Y-82437815D01*
X83118343Y-82342317D01*
X83242315Y-82218345D01*
X83334356Y-82069124D01*
X83334358Y-82069119D01*
X83389505Y-81902697D01*
X83389506Y-81902690D01*
X83399999Y-81799986D01*
X83400000Y-81799973D01*
X83400000Y-81400000D01*
X82333012Y-81400000D01*
X82365925Y-81342993D01*
X82400000Y-81215826D01*
X82400000Y-81084174D01*
X82365925Y-80957007D01*
X82333012Y-80900000D01*
X83399999Y-80900000D01*
X83399999Y-80500028D01*
X83399998Y-80500013D01*
X83389505Y-80397302D01*
X83334358Y-80230880D01*
X83334356Y-80230875D01*
X83242315Y-80081654D01*
X83118345Y-79957684D01*
X82969124Y-79865643D01*
X82969119Y-79865641D01*
X82802697Y-79810494D01*
X82802690Y-79810493D01*
X82699986Y-79800000D01*
X82150000Y-79800000D01*
X82150000Y-80716988D01*
X82092993Y-80684075D01*
X81965826Y-80650000D01*
X81834174Y-80650000D01*
X81707007Y-80684075D01*
X81650000Y-80716988D01*
X81650000Y-79800000D01*
X81100028Y-79800000D01*
X81100012Y-79800001D01*
X80997302Y-79810494D01*
X80830880Y-79865641D01*
X80830875Y-79865643D01*
X80681654Y-79957684D01*
X80557684Y-80081654D01*
X80465643Y-80230875D01*
X80465641Y-80230880D01*
X80410494Y-80397302D01*
X80410493Y-80397309D01*
X80400000Y-80500013D01*
X80400000Y-80900000D01*
X81466988Y-80900000D01*
X81434075Y-80957007D01*
X81400000Y-81084174D01*
X81400000Y-81215826D01*
X81434075Y-81342993D01*
X81466988Y-81400000D01*
X80400001Y-81400000D01*
X80400001Y-81799986D01*
X80410494Y-81902697D01*
X80465641Y-82069119D01*
X80465643Y-82069124D01*
X80557684Y-82218345D01*
X80681654Y-82342315D01*
X80836484Y-82437815D01*
X80883208Y-82489763D01*
X80894431Y-82558726D01*
X80866587Y-82622808D01*
X80859069Y-82631035D01*
X80719889Y-82770215D01*
X80594951Y-82942179D01*
X80498444Y-83131585D01*
X80432753Y-83333760D01*
X80399500Y-83543713D01*
X75753078Y-83543713D01*
X76071826Y-82194905D01*
X76072368Y-82192706D01*
X76554344Y-80315824D01*
X76554940Y-80313594D01*
X77073058Y-78446368D01*
X77073673Y-78444231D01*
X77627741Y-76587337D01*
X77628412Y-76585163D01*
X78218229Y-74739292D01*
X78218967Y-74737060D01*
X78844276Y-72903001D01*
X78845007Y-72900921D01*
X79268042Y-71734367D01*
X79309402Y-71678055D01*
X79374641Y-71653043D01*
X79443047Y-71667272D01*
X79492900Y-71716225D01*
X79504387Y-71744543D01*
X79561809Y-71958844D01*
X79561814Y-71958860D01*
X79672191Y-72225336D01*
X79672199Y-72225352D01*
X79816420Y-72475148D01*
X79816431Y-72475164D01*
X79992024Y-72704002D01*
X79992030Y-72704009D01*
X80195990Y-72907969D01*
X80195996Y-72907974D01*
X80424844Y-73083575D01*
X80424851Y-73083579D01*
X80674647Y-73227800D01*
X80674663Y-73227808D01*
X80941139Y-73338185D01*
X80941145Y-73338186D01*
X80941155Y-73338191D01*
X81219783Y-73412849D01*
X81505772Y-73450500D01*
X81505779Y-73450500D01*
X81794221Y-73450500D01*
X81794228Y-73450500D01*
X82080217Y-73412849D01*
X82358845Y-73338191D01*
X82358857Y-73338185D01*
X82358860Y-73338185D01*
X82625336Y-73227808D01*
X82625339Y-73227806D01*
X82625345Y-73227804D01*
X82875156Y-73083575D01*
X83104004Y-72907974D01*
X83307974Y-72704004D01*
X83483575Y-72475156D01*
X83627804Y-72225345D01*
X83738191Y-71958845D01*
X83812849Y-71680217D01*
X83850500Y-71394228D01*
X83850500Y-71105772D01*
X83812849Y-70819783D01*
X83738191Y-70541155D01*
X83738186Y-70541145D01*
X83738185Y-70541139D01*
X83627808Y-70274663D01*
X83627800Y-70274647D01*
X83483579Y-70024851D01*
X83483575Y-70024844D01*
X83307974Y-69795996D01*
X83307969Y-69795990D01*
X83104009Y-69592030D01*
X83104002Y-69592024D01*
X82875164Y-69416431D01*
X82875162Y-69416429D01*
X82875156Y-69416425D01*
X82875151Y-69416422D01*
X82875148Y-69416420D01*
X82625352Y-69272199D01*
X82625336Y-69272191D01*
X82358860Y-69161814D01*
X82358848Y-69161810D01*
X82358845Y-69161809D01*
X82080217Y-69087151D01*
X82080211Y-69087150D01*
X82080206Y-69087149D01*
X81794238Y-69049501D01*
X81794233Y-69049500D01*
X81794228Y-69049500D01*
X81505772Y-69049500D01*
X81505766Y-69049500D01*
X81505761Y-69049501D01*
X81219793Y-69087149D01*
X81219786Y-69087150D01*
X81219783Y-69087151D01*
X80941155Y-69161809D01*
X80941139Y-69161814D01*
X80674663Y-69272191D01*
X80674647Y-69272199D01*
X80424851Y-69416420D01*
X80424837Y-69416430D01*
X80377326Y-69452886D01*
X80375999Y-69453398D01*
X80375136Y-69454528D01*
X80343513Y-69465957D01*
X80312157Y-69478079D01*
X80310764Y-69477793D01*
X80309427Y-69478277D01*
X80276642Y-69470794D01*
X80243712Y-69464040D01*
X80242694Y-69463046D01*
X80241308Y-69462730D01*
X80217781Y-69438718D01*
X80193723Y-69415226D01*
X80193404Y-69413839D01*
X80192409Y-69412824D01*
X80185593Y-69379882D01*
X80178061Y-69347134D01*
X80178448Y-69345346D01*
X80178253Y-69344403D01*
X80186107Y-69309994D01*
X80202101Y-69268411D01*
X80202921Y-69266339D01*
X80933380Y-67471447D01*
X80934237Y-67469397D01*
X81699193Y-65688976D01*
X81700118Y-65686880D01*
X82496657Y-63927389D01*
X82503664Y-63914115D01*
X82550377Y-63837301D01*
X82567262Y-63815456D01*
X82625373Y-63755485D01*
X82646687Y-63737913D01*
X82716631Y-63692301D01*
X82741304Y-63679885D01*
X82801429Y-63657626D01*
X82819610Y-63650896D01*
X82846424Y-63644250D01*
X82929202Y-63633318D01*
X82956826Y-63632776D01*
X83039968Y-63640446D01*
G37*
%TD.AperFunction*%
%TD*%
M02*
