%TF.GenerationSoftware,KiCad,Pcbnew,9.0.7*%
%TF.CreationDate,2026-02-20T22:16:39+09:00*%
%TF.ProjectId,kicker,6b69636b-6572-42e6-9b69-6361645f7063,rev?*%
%TF.SameCoordinates,Original*%
%TF.FileFunction,Legend,Top*%
%TF.FilePolarity,Positive*%
%FSLAX46Y46*%
G04 Gerber Fmt 4.6, Leading zero omitted, Abs format (unit mm)*
G04 Created by KiCad (PCBNEW 9.0.7) date 2026-02-20 22:16:39*
%MOMM*%
%LPD*%
G01*
G04 APERTURE LIST*
G04 Aperture macros list*
%AMRoundRect*
0 Rectangle with rounded corners*
0 $1 Rounding radius*
0 $2 $3 $4 $5 $6 $7 $8 $9 X,Y pos of 4 corners*
0 Add a 4 corners polygon primitive as box body*
4,1,4,$2,$3,$4,$5,$6,$7,$8,$9,$2,$3,0*
0 Add four circle primitives for the rounded corners*
1,1,$1+$1,$2,$3*
1,1,$1+$1,$4,$5*
1,1,$1+$1,$6,$7*
1,1,$1+$1,$8,$9*
0 Add four rect primitives between the rounded corners*
20,1,$1+$1,$2,$3,$4,$5,0*
20,1,$1+$1,$4,$5,$6,$7,0*
20,1,$1+$1,$6,$7,$8,$9,0*
20,1,$1+$1,$8,$9,$2,$3,0*%
G04 Aperture macros list end*
%ADD10C,0.150000*%
%ADD11C,0.254000*%
%ADD12C,0.152400*%
%ADD13C,0.120000*%
%ADD14C,0.200000*%
%ADD15C,0.127000*%
%ADD16R,2.180400X3.180001*%
%ADD17RoundRect,0.250000X-0.750000X0.600000X-0.750000X-0.600000X0.750000X-0.600000X0.750000X0.600000X0*%
%ADD18O,2.000000X1.700000*%
%ADD19C,3.200000*%
%ADD20R,1.600000X3.000000*%
%ADD21R,6.000000X6.000000*%
%ADD22RoundRect,0.250000X-0.650000X0.325000X-0.650000X-0.325000X0.650000X-0.325000X0.650000X0.325000X0*%
%ADD23RoundRect,0.200000X0.275000X-0.200000X0.275000X0.200000X-0.275000X0.200000X-0.275000X-0.200000X0*%
%ADD24R,3.500000X6.050000*%
%ADD25RoundRect,0.250000X-0.312500X-0.625000X0.312500X-0.625000X0.312500X0.625000X-0.312500X0.625000X0*%
%ADD26RoundRect,0.250001X-0.949999X0.949999X-0.949999X-0.949999X0.949999X-0.949999X0.949999X0.949999X0*%
%ADD27C,2.400000*%
%ADD28R,1.800000X1.800000*%
%ADD29C,1.800000*%
%ADD30RoundRect,0.200000X-0.200000X-0.275000X0.200000X-0.275000X0.200000X0.275000X-0.200000X0.275000X0*%
%ADD31RoundRect,0.250000X-0.550000X0.550000X-0.550000X-0.550000X0.550000X-0.550000X0.550000X0.550000X0*%
%ADD32C,1.600000*%
%ADD33RoundRect,0.250000X-0.362500X-1.425000X0.362500X-1.425000X0.362500X1.425000X-0.362500X1.425000X0*%
%ADD34RoundRect,0.250001X-0.949999X-0.949999X0.949999X-0.949999X0.949999X0.949999X-0.949999X0.949999X0*%
%ADD35RoundRect,0.250000X-0.625000X0.312500X-0.625000X-0.312500X0.625000X-0.312500X0.625000X0.312500X0*%
%ADD36RoundRect,0.250000X0.312500X0.625000X-0.312500X0.625000X-0.312500X-0.625000X0.312500X-0.625000X0*%
%ADD37RoundRect,0.250001X0.949999X0.949999X-0.949999X0.949999X-0.949999X-0.949999X0.949999X-0.949999X0*%
%ADD38RoundRect,0.102000X-1.605000X-0.525000X1.605000X-0.525000X1.605000X0.525000X-1.605000X0.525000X0*%
%ADD39RoundRect,0.102000X-4.230000X-5.265000X4.230000X-5.265000X4.230000X5.265000X-4.230000X5.265000X0*%
%ADD40RoundRect,0.250001X-2.049999X-0.799999X2.049999X-0.799999X2.049999X0.799999X-2.049999X0.799999X0*%
%ADD41R,2.200000X1.450000*%
%ADD42RoundRect,0.250000X0.325000X0.650000X-0.325000X0.650000X-0.325000X-0.650000X0.325000X-0.650000X0*%
%ADD43C,1.440000*%
%ADD44C,2.000000*%
G04 APERTURE END LIST*
D10*
X109533333Y-113259580D02*
X109485714Y-113307200D01*
X109485714Y-113307200D02*
X109342857Y-113354819D01*
X109342857Y-113354819D02*
X109247619Y-113354819D01*
X109247619Y-113354819D02*
X109104762Y-113307200D01*
X109104762Y-113307200D02*
X109009524Y-113211961D01*
X109009524Y-113211961D02*
X108961905Y-113116723D01*
X108961905Y-113116723D02*
X108914286Y-112926247D01*
X108914286Y-112926247D02*
X108914286Y-112783390D01*
X108914286Y-112783390D02*
X108961905Y-112592914D01*
X108961905Y-112592914D02*
X109009524Y-112497676D01*
X109009524Y-112497676D02*
X109104762Y-112402438D01*
X109104762Y-112402438D02*
X109247619Y-112354819D01*
X109247619Y-112354819D02*
X109342857Y-112354819D01*
X109342857Y-112354819D02*
X109485714Y-112402438D01*
X109485714Y-112402438D02*
X109533333Y-112450057D01*
X110533333Y-113354819D02*
X110200000Y-112878628D01*
X109961905Y-113354819D02*
X109961905Y-112354819D01*
X109961905Y-112354819D02*
X110342857Y-112354819D01*
X110342857Y-112354819D02*
X110438095Y-112402438D01*
X110438095Y-112402438D02*
X110485714Y-112450057D01*
X110485714Y-112450057D02*
X110533333Y-112545295D01*
X110533333Y-112545295D02*
X110533333Y-112688152D01*
X110533333Y-112688152D02*
X110485714Y-112783390D01*
X110485714Y-112783390D02*
X110438095Y-112831009D01*
X110438095Y-112831009D02*
X110342857Y-112878628D01*
X110342857Y-112878628D02*
X109961905Y-112878628D01*
X111485714Y-113354819D02*
X110914286Y-113354819D01*
X111200000Y-113354819D02*
X111200000Y-112354819D01*
X111200000Y-112354819D02*
X111104762Y-112497676D01*
X111104762Y-112497676D02*
X111009524Y-112592914D01*
X111009524Y-112592914D02*
X110914286Y-112640533D01*
G36*
X85590930Y-131298955D02*
G01*
X84218708Y-131298955D01*
X84218708Y-130718701D01*
X84331260Y-130718701D01*
X84331260Y-130747965D01*
X84342459Y-130775001D01*
X84363151Y-130795693D01*
X84390187Y-130806892D01*
X84404819Y-130808333D01*
X85106934Y-130808333D01*
X85221447Y-130846504D01*
X85291648Y-130916704D01*
X85329819Y-131031217D01*
X85329819Y-131114285D01*
X85331260Y-131128917D01*
X85342459Y-131155953D01*
X85363151Y-131176645D01*
X85390187Y-131187844D01*
X85419451Y-131187844D01*
X85446487Y-131176645D01*
X85467179Y-131155953D01*
X85478378Y-131128917D01*
X85479819Y-131114285D01*
X85479819Y-131019047D01*
X85479089Y-131011640D01*
X85479230Y-131009666D01*
X85478639Y-131007068D01*
X85478378Y-131004415D01*
X85477619Y-131002584D01*
X85475970Y-130995329D01*
X85428351Y-130852473D01*
X85422357Y-130839047D01*
X85420592Y-130837012D01*
X85419561Y-130834522D01*
X85410233Y-130823157D01*
X85314994Y-130727919D01*
X85303628Y-130718591D01*
X85301137Y-130717559D01*
X85299103Y-130715795D01*
X85285678Y-130709801D01*
X85142821Y-130662182D01*
X85135567Y-130660532D01*
X85133736Y-130659774D01*
X85131081Y-130659512D01*
X85128484Y-130658922D01*
X85126509Y-130659062D01*
X85119104Y-130658333D01*
X84404819Y-130658333D01*
X84390187Y-130659774D01*
X84363151Y-130670973D01*
X84342459Y-130691665D01*
X84331260Y-130718701D01*
X84218708Y-130718701D01*
X84218708Y-130019126D01*
X84329819Y-130019126D01*
X84331260Y-130026330D01*
X84331260Y-130033679D01*
X84334101Y-130040539D01*
X84335558Y-130047820D01*
X84339646Y-130053925D01*
X84342459Y-130060715D01*
X84347709Y-130065965D01*
X84351841Y-130072135D01*
X84363099Y-130081355D01*
X84363151Y-130081407D01*
X84363173Y-130081416D01*
X84363216Y-130081451D01*
X84499894Y-130172569D01*
X84581275Y-130253950D01*
X84623451Y-130338302D01*
X84631283Y-130350745D01*
X84653391Y-130369918D01*
X84681152Y-130379172D01*
X84710342Y-130377098D01*
X84736517Y-130364010D01*
X84755690Y-130341903D01*
X84764944Y-130314141D01*
X84762870Y-130284951D01*
X84757615Y-130271220D01*
X84709996Y-130175982D01*
X84706033Y-130169687D01*
X84705275Y-130167855D01*
X84703583Y-130165793D01*
X84702164Y-130163539D01*
X84700667Y-130162240D01*
X84695947Y-130156490D01*
X84633504Y-130094047D01*
X85329819Y-130094047D01*
X85329819Y-130304761D01*
X85331260Y-130319393D01*
X85342459Y-130346429D01*
X85363151Y-130367121D01*
X85390187Y-130378320D01*
X85419451Y-130378320D01*
X85446487Y-130367121D01*
X85467179Y-130346429D01*
X85478378Y-130319393D01*
X85479819Y-130304761D01*
X85479819Y-129733333D01*
X85478378Y-129718701D01*
X85467179Y-129691665D01*
X85446487Y-129670973D01*
X85419451Y-129659774D01*
X85390187Y-129659774D01*
X85363151Y-129670973D01*
X85342459Y-129691665D01*
X85331260Y-129718701D01*
X85329819Y-129733333D01*
X85329819Y-129944047D01*
X84404819Y-129944047D01*
X84404766Y-129944052D01*
X84404740Y-129944047D01*
X84404663Y-129944062D01*
X84390187Y-129945488D01*
X84383326Y-129948329D01*
X84376046Y-129949786D01*
X84369940Y-129953874D01*
X84363151Y-129956687D01*
X84357900Y-129961937D01*
X84351731Y-129966069D01*
X84347654Y-129972183D01*
X84342459Y-129977379D01*
X84339617Y-129984239D01*
X84335498Y-129990418D01*
X84334072Y-129997626D01*
X84331260Y-130004415D01*
X84331260Y-130011841D01*
X84329819Y-130019126D01*
X84218708Y-130019126D01*
X84218708Y-129548663D01*
X85590930Y-129548663D01*
X85590930Y-131298955D01*
G37*
X121866666Y-80604819D02*
X121533333Y-80128628D01*
X121295238Y-80604819D02*
X121295238Y-79604819D01*
X121295238Y-79604819D02*
X121676190Y-79604819D01*
X121676190Y-79604819D02*
X121771428Y-79652438D01*
X121771428Y-79652438D02*
X121819047Y-79700057D01*
X121819047Y-79700057D02*
X121866666Y-79795295D01*
X121866666Y-79795295D02*
X121866666Y-79938152D01*
X121866666Y-79938152D02*
X121819047Y-80033390D01*
X121819047Y-80033390D02*
X121771428Y-80081009D01*
X121771428Y-80081009D02*
X121676190Y-80128628D01*
X121676190Y-80128628D02*
X121295238Y-80128628D01*
X122295238Y-80081009D02*
X122628571Y-80081009D01*
X122771428Y-80604819D02*
X122295238Y-80604819D01*
X122295238Y-80604819D02*
X122295238Y-79604819D01*
X122295238Y-79604819D02*
X122771428Y-79604819D01*
X123533333Y-80081009D02*
X123200000Y-80081009D01*
X123200000Y-80604819D02*
X123200000Y-79604819D01*
X123200000Y-79604819D02*
X123676190Y-79604819D01*
X124200000Y-79604819D02*
X124200000Y-79842914D01*
X123961905Y-79747676D02*
X124200000Y-79842914D01*
X124200000Y-79842914D02*
X124438095Y-79747676D01*
X124057143Y-80033390D02*
X124200000Y-79842914D01*
X124200000Y-79842914D02*
X124342857Y-80033390D01*
X124961905Y-79604819D02*
X124961905Y-79842914D01*
X124723810Y-79747676D02*
X124961905Y-79842914D01*
X124961905Y-79842914D02*
X125200000Y-79747676D01*
X124819048Y-80033390D02*
X124961905Y-79842914D01*
X124961905Y-79842914D02*
X125104762Y-80033390D01*
D11*
X94079047Y-95345270D02*
X93958095Y-95284794D01*
X93958095Y-95284794D02*
X93837142Y-95163842D01*
X93837142Y-95163842D02*
X93655714Y-94982413D01*
X93655714Y-94982413D02*
X93534761Y-94921937D01*
X93534761Y-94921937D02*
X93413809Y-94921937D01*
X93474285Y-95224318D02*
X93353333Y-95163842D01*
X93353333Y-95163842D02*
X93232380Y-95042889D01*
X93232380Y-95042889D02*
X93171904Y-94800984D01*
X93171904Y-94800984D02*
X93171904Y-94377651D01*
X93171904Y-94377651D02*
X93232380Y-94135746D01*
X93232380Y-94135746D02*
X93353333Y-94014794D01*
X93353333Y-94014794D02*
X93474285Y-93954318D01*
X93474285Y-93954318D02*
X93716190Y-93954318D01*
X93716190Y-93954318D02*
X93837142Y-94014794D01*
X93837142Y-94014794D02*
X93958095Y-94135746D01*
X93958095Y-94135746D02*
X94018571Y-94377651D01*
X94018571Y-94377651D02*
X94018571Y-94800984D01*
X94018571Y-94800984D02*
X93958095Y-95042889D01*
X93958095Y-95042889D02*
X93837142Y-95163842D01*
X93837142Y-95163842D02*
X93716190Y-95224318D01*
X93716190Y-95224318D02*
X93474285Y-95224318D01*
X95228095Y-95224318D02*
X94502380Y-95224318D01*
X94865237Y-95224318D02*
X94865237Y-93954318D01*
X94865237Y-93954318D02*
X94744285Y-94135746D01*
X94744285Y-94135746D02*
X94623333Y-94256699D01*
X94623333Y-94256699D02*
X94502380Y-94317175D01*
D10*
X117709580Y-119441666D02*
X117757200Y-119489285D01*
X117757200Y-119489285D02*
X117804819Y-119632142D01*
X117804819Y-119632142D02*
X117804819Y-119727380D01*
X117804819Y-119727380D02*
X117757200Y-119870237D01*
X117757200Y-119870237D02*
X117661961Y-119965475D01*
X117661961Y-119965475D02*
X117566723Y-120013094D01*
X117566723Y-120013094D02*
X117376247Y-120060713D01*
X117376247Y-120060713D02*
X117233390Y-120060713D01*
X117233390Y-120060713D02*
X117042914Y-120013094D01*
X117042914Y-120013094D02*
X116947676Y-119965475D01*
X116947676Y-119965475D02*
X116852438Y-119870237D01*
X116852438Y-119870237D02*
X116804819Y-119727380D01*
X116804819Y-119727380D02*
X116804819Y-119632142D01*
X116804819Y-119632142D02*
X116852438Y-119489285D01*
X116852438Y-119489285D02*
X116900057Y-119441666D01*
X116804819Y-118536904D02*
X116804819Y-119013094D01*
X116804819Y-119013094D02*
X117281009Y-119060713D01*
X117281009Y-119060713D02*
X117233390Y-119013094D01*
X117233390Y-119013094D02*
X117185771Y-118917856D01*
X117185771Y-118917856D02*
X117185771Y-118679761D01*
X117185771Y-118679761D02*
X117233390Y-118584523D01*
X117233390Y-118584523D02*
X117281009Y-118536904D01*
X117281009Y-118536904D02*
X117376247Y-118489285D01*
X117376247Y-118489285D02*
X117614342Y-118489285D01*
X117614342Y-118489285D02*
X117709580Y-118536904D01*
X117709580Y-118536904D02*
X117757200Y-118584523D01*
X117757200Y-118584523D02*
X117804819Y-118679761D01*
X117804819Y-118679761D02*
X117804819Y-118917856D01*
X117804819Y-118917856D02*
X117757200Y-119013094D01*
X117757200Y-119013094D02*
X117709580Y-119060713D01*
X81124819Y-97091666D02*
X80648628Y-97424999D01*
X81124819Y-97663094D02*
X80124819Y-97663094D01*
X80124819Y-97663094D02*
X80124819Y-97282142D01*
X80124819Y-97282142D02*
X80172438Y-97186904D01*
X80172438Y-97186904D02*
X80220057Y-97139285D01*
X80220057Y-97139285D02*
X80315295Y-97091666D01*
X80315295Y-97091666D02*
X80458152Y-97091666D01*
X80458152Y-97091666D02*
X80553390Y-97139285D01*
X80553390Y-97139285D02*
X80601009Y-97186904D01*
X80601009Y-97186904D02*
X80648628Y-97282142D01*
X80648628Y-97282142D02*
X80648628Y-97663094D01*
X80458152Y-96234523D02*
X81124819Y-96234523D01*
X80077200Y-96472618D02*
X80791485Y-96710713D01*
X80791485Y-96710713D02*
X80791485Y-96091666D01*
D11*
X108288333Y-102774318D02*
X107683571Y-102774318D01*
X107683571Y-102774318D02*
X107683571Y-101504318D01*
X109376905Y-102774318D02*
X108651190Y-102774318D01*
X109014047Y-102774318D02*
X109014047Y-101504318D01*
X109014047Y-101504318D02*
X108893095Y-101685746D01*
X108893095Y-101685746D02*
X108772143Y-101806699D01*
X108772143Y-101806699D02*
X108651190Y-101867175D01*
D10*
X96783333Y-108774819D02*
X96450000Y-108298628D01*
X96211905Y-108774819D02*
X96211905Y-107774819D01*
X96211905Y-107774819D02*
X96592857Y-107774819D01*
X96592857Y-107774819D02*
X96688095Y-107822438D01*
X96688095Y-107822438D02*
X96735714Y-107870057D01*
X96735714Y-107870057D02*
X96783333Y-107965295D01*
X96783333Y-107965295D02*
X96783333Y-108108152D01*
X96783333Y-108108152D02*
X96735714Y-108203390D01*
X96735714Y-108203390D02*
X96688095Y-108251009D01*
X96688095Y-108251009D02*
X96592857Y-108298628D01*
X96592857Y-108298628D02*
X96211905Y-108298628D01*
X97735714Y-108774819D02*
X97164286Y-108774819D01*
X97450000Y-108774819D02*
X97450000Y-107774819D01*
X97450000Y-107774819D02*
X97354762Y-107917676D01*
X97354762Y-107917676D02*
X97259524Y-108012914D01*
X97259524Y-108012914D02*
X97164286Y-108060533D01*
X104924819Y-118208094D02*
X103924819Y-118208094D01*
X103924819Y-118208094D02*
X103924819Y-117969999D01*
X103924819Y-117969999D02*
X103972438Y-117827142D01*
X103972438Y-117827142D02*
X104067676Y-117731904D01*
X104067676Y-117731904D02*
X104162914Y-117684285D01*
X104162914Y-117684285D02*
X104353390Y-117636666D01*
X104353390Y-117636666D02*
X104496247Y-117636666D01*
X104496247Y-117636666D02*
X104686723Y-117684285D01*
X104686723Y-117684285D02*
X104781961Y-117731904D01*
X104781961Y-117731904D02*
X104877200Y-117827142D01*
X104877200Y-117827142D02*
X104924819Y-117969999D01*
X104924819Y-117969999D02*
X104924819Y-118208094D01*
X104020057Y-117255713D02*
X103972438Y-117208094D01*
X103972438Y-117208094D02*
X103924819Y-117112856D01*
X103924819Y-117112856D02*
X103924819Y-116874761D01*
X103924819Y-116874761D02*
X103972438Y-116779523D01*
X103972438Y-116779523D02*
X104020057Y-116731904D01*
X104020057Y-116731904D02*
X104115295Y-116684285D01*
X104115295Y-116684285D02*
X104210533Y-116684285D01*
X104210533Y-116684285D02*
X104353390Y-116731904D01*
X104353390Y-116731904D02*
X104924819Y-117303332D01*
X104924819Y-117303332D02*
X104924819Y-116684285D01*
X104204819Y-112651904D02*
X103204819Y-112651904D01*
X104204819Y-112080476D02*
X103633390Y-112509047D01*
X103204819Y-112080476D02*
X103776247Y-112651904D01*
X87933333Y-124624819D02*
X87600000Y-124148628D01*
X87361905Y-124624819D02*
X87361905Y-123624819D01*
X87361905Y-123624819D02*
X87742857Y-123624819D01*
X87742857Y-123624819D02*
X87838095Y-123672438D01*
X87838095Y-123672438D02*
X87885714Y-123720057D01*
X87885714Y-123720057D02*
X87933333Y-123815295D01*
X87933333Y-123815295D02*
X87933333Y-123958152D01*
X87933333Y-123958152D02*
X87885714Y-124053390D01*
X87885714Y-124053390D02*
X87838095Y-124101009D01*
X87838095Y-124101009D02*
X87742857Y-124148628D01*
X87742857Y-124148628D02*
X87361905Y-124148628D01*
X88266667Y-123624819D02*
X88933333Y-123624819D01*
X88933333Y-123624819D02*
X88504762Y-124624819D01*
X87424405Y-127044819D02*
X87424405Y-126044819D01*
X87424405Y-126044819D02*
X87662500Y-126044819D01*
X87662500Y-126044819D02*
X87805357Y-126092438D01*
X87805357Y-126092438D02*
X87900595Y-126187676D01*
X87900595Y-126187676D02*
X87948214Y-126282914D01*
X87948214Y-126282914D02*
X87995833Y-126473390D01*
X87995833Y-126473390D02*
X87995833Y-126616247D01*
X87995833Y-126616247D02*
X87948214Y-126806723D01*
X87948214Y-126806723D02*
X87900595Y-126901961D01*
X87900595Y-126901961D02*
X87805357Y-126997200D01*
X87805357Y-126997200D02*
X87662500Y-127044819D01*
X87662500Y-127044819D02*
X87424405Y-127044819D01*
X88948214Y-127044819D02*
X88376786Y-127044819D01*
X88662500Y-127044819D02*
X88662500Y-126044819D01*
X88662500Y-126044819D02*
X88567262Y-126187676D01*
X88567262Y-126187676D02*
X88472024Y-126282914D01*
X88472024Y-126282914D02*
X88376786Y-126330533D01*
X97433333Y-124574819D02*
X97100000Y-124098628D01*
X96861905Y-124574819D02*
X96861905Y-123574819D01*
X96861905Y-123574819D02*
X97242857Y-123574819D01*
X97242857Y-123574819D02*
X97338095Y-123622438D01*
X97338095Y-123622438D02*
X97385714Y-123670057D01*
X97385714Y-123670057D02*
X97433333Y-123765295D01*
X97433333Y-123765295D02*
X97433333Y-123908152D01*
X97433333Y-123908152D02*
X97385714Y-124003390D01*
X97385714Y-124003390D02*
X97338095Y-124051009D01*
X97338095Y-124051009D02*
X97242857Y-124098628D01*
X97242857Y-124098628D02*
X96861905Y-124098628D01*
X97909524Y-124574819D02*
X98100000Y-124574819D01*
X98100000Y-124574819D02*
X98195238Y-124527200D01*
X98195238Y-124527200D02*
X98242857Y-124479580D01*
X98242857Y-124479580D02*
X98338095Y-124336723D01*
X98338095Y-124336723D02*
X98385714Y-124146247D01*
X98385714Y-124146247D02*
X98385714Y-123765295D01*
X98385714Y-123765295D02*
X98338095Y-123670057D01*
X98338095Y-123670057D02*
X98290476Y-123622438D01*
X98290476Y-123622438D02*
X98195238Y-123574819D01*
X98195238Y-123574819D02*
X98004762Y-123574819D01*
X98004762Y-123574819D02*
X97909524Y-123622438D01*
X97909524Y-123622438D02*
X97861905Y-123670057D01*
X97861905Y-123670057D02*
X97814286Y-123765295D01*
X97814286Y-123765295D02*
X97814286Y-124003390D01*
X97814286Y-124003390D02*
X97861905Y-124098628D01*
X97861905Y-124098628D02*
X97909524Y-124146247D01*
X97909524Y-124146247D02*
X98004762Y-124193866D01*
X98004762Y-124193866D02*
X98195238Y-124193866D01*
X98195238Y-124193866D02*
X98290476Y-124146247D01*
X98290476Y-124146247D02*
X98338095Y-124098628D01*
X98338095Y-124098628D02*
X98385714Y-124003390D01*
X89209819Y-100916904D02*
X90019342Y-100916904D01*
X90019342Y-100916904D02*
X90114580Y-100869285D01*
X90114580Y-100869285D02*
X90162200Y-100821666D01*
X90162200Y-100821666D02*
X90209819Y-100726428D01*
X90209819Y-100726428D02*
X90209819Y-100535952D01*
X90209819Y-100535952D02*
X90162200Y-100440714D01*
X90162200Y-100440714D02*
X90114580Y-100393095D01*
X90114580Y-100393095D02*
X90019342Y-100345476D01*
X90019342Y-100345476D02*
X89209819Y-100345476D01*
X89305057Y-99916904D02*
X89257438Y-99869285D01*
X89257438Y-99869285D02*
X89209819Y-99774047D01*
X89209819Y-99774047D02*
X89209819Y-99535952D01*
X89209819Y-99535952D02*
X89257438Y-99440714D01*
X89257438Y-99440714D02*
X89305057Y-99393095D01*
X89305057Y-99393095D02*
X89400295Y-99345476D01*
X89400295Y-99345476D02*
X89495533Y-99345476D01*
X89495533Y-99345476D02*
X89638390Y-99393095D01*
X89638390Y-99393095D02*
X90209819Y-99964523D01*
X90209819Y-99964523D02*
X90209819Y-99345476D01*
X83020833Y-91074819D02*
X82687500Y-90598628D01*
X82449405Y-91074819D02*
X82449405Y-90074819D01*
X82449405Y-90074819D02*
X82830357Y-90074819D01*
X82830357Y-90074819D02*
X82925595Y-90122438D01*
X82925595Y-90122438D02*
X82973214Y-90170057D01*
X82973214Y-90170057D02*
X83020833Y-90265295D01*
X83020833Y-90265295D02*
X83020833Y-90408152D01*
X83020833Y-90408152D02*
X82973214Y-90503390D01*
X82973214Y-90503390D02*
X82925595Y-90551009D01*
X82925595Y-90551009D02*
X82830357Y-90598628D01*
X82830357Y-90598628D02*
X82449405Y-90598628D01*
X83592262Y-90503390D02*
X83497024Y-90455771D01*
X83497024Y-90455771D02*
X83449405Y-90408152D01*
X83449405Y-90408152D02*
X83401786Y-90312914D01*
X83401786Y-90312914D02*
X83401786Y-90265295D01*
X83401786Y-90265295D02*
X83449405Y-90170057D01*
X83449405Y-90170057D02*
X83497024Y-90122438D01*
X83497024Y-90122438D02*
X83592262Y-90074819D01*
X83592262Y-90074819D02*
X83782738Y-90074819D01*
X83782738Y-90074819D02*
X83877976Y-90122438D01*
X83877976Y-90122438D02*
X83925595Y-90170057D01*
X83925595Y-90170057D02*
X83973214Y-90265295D01*
X83973214Y-90265295D02*
X83973214Y-90312914D01*
X83973214Y-90312914D02*
X83925595Y-90408152D01*
X83925595Y-90408152D02*
X83877976Y-90455771D01*
X83877976Y-90455771D02*
X83782738Y-90503390D01*
X83782738Y-90503390D02*
X83592262Y-90503390D01*
X83592262Y-90503390D02*
X83497024Y-90551009D01*
X83497024Y-90551009D02*
X83449405Y-90598628D01*
X83449405Y-90598628D02*
X83401786Y-90693866D01*
X83401786Y-90693866D02*
X83401786Y-90884342D01*
X83401786Y-90884342D02*
X83449405Y-90979580D01*
X83449405Y-90979580D02*
X83497024Y-91027200D01*
X83497024Y-91027200D02*
X83592262Y-91074819D01*
X83592262Y-91074819D02*
X83782738Y-91074819D01*
X83782738Y-91074819D02*
X83877976Y-91027200D01*
X83877976Y-91027200D02*
X83925595Y-90979580D01*
X83925595Y-90979580D02*
X83973214Y-90884342D01*
X83973214Y-90884342D02*
X83973214Y-90693866D01*
X83973214Y-90693866D02*
X83925595Y-90598628D01*
X83925595Y-90598628D02*
X83877976Y-90551009D01*
X83877976Y-90551009D02*
X83782738Y-90503390D01*
X80316666Y-67554819D02*
X79983333Y-67078628D01*
X79745238Y-67554819D02*
X79745238Y-66554819D01*
X79745238Y-66554819D02*
X80126190Y-66554819D01*
X80126190Y-66554819D02*
X80221428Y-66602438D01*
X80221428Y-66602438D02*
X80269047Y-66650057D01*
X80269047Y-66650057D02*
X80316666Y-66745295D01*
X80316666Y-66745295D02*
X80316666Y-66888152D01*
X80316666Y-66888152D02*
X80269047Y-66983390D01*
X80269047Y-66983390D02*
X80221428Y-67031009D01*
X80221428Y-67031009D02*
X80126190Y-67078628D01*
X80126190Y-67078628D02*
X79745238Y-67078628D01*
X80745238Y-67031009D02*
X81078571Y-67031009D01*
X81221428Y-67554819D02*
X80745238Y-67554819D01*
X80745238Y-67554819D02*
X80745238Y-66554819D01*
X80745238Y-66554819D02*
X81221428Y-66554819D01*
X81983333Y-67031009D02*
X81650000Y-67031009D01*
X81650000Y-67554819D02*
X81650000Y-66554819D01*
X81650000Y-66554819D02*
X82126190Y-66554819D01*
X82650000Y-66554819D02*
X82650000Y-66792914D01*
X82411905Y-66697676D02*
X82650000Y-66792914D01*
X82650000Y-66792914D02*
X82888095Y-66697676D01*
X82507143Y-66983390D02*
X82650000Y-66792914D01*
X82650000Y-66792914D02*
X82792857Y-66983390D01*
X83411905Y-66554819D02*
X83411905Y-66792914D01*
X83173810Y-66697676D02*
X83411905Y-66792914D01*
X83411905Y-66792914D02*
X83650000Y-66697676D01*
X83269048Y-66983390D02*
X83411905Y-66792914D01*
X83411905Y-66792914D02*
X83554762Y-66983390D01*
X124820579Y-88409580D02*
X124772960Y-88457200D01*
X124772960Y-88457200D02*
X124630103Y-88504819D01*
X124630103Y-88504819D02*
X124534865Y-88504819D01*
X124534865Y-88504819D02*
X124392008Y-88457200D01*
X124392008Y-88457200D02*
X124296770Y-88361961D01*
X124296770Y-88361961D02*
X124249151Y-88266723D01*
X124249151Y-88266723D02*
X124201532Y-88076247D01*
X124201532Y-88076247D02*
X124201532Y-87933390D01*
X124201532Y-87933390D02*
X124249151Y-87742914D01*
X124249151Y-87742914D02*
X124296770Y-87647676D01*
X124296770Y-87647676D02*
X124392008Y-87552438D01*
X124392008Y-87552438D02*
X124534865Y-87504819D01*
X124534865Y-87504819D02*
X124630103Y-87504819D01*
X124630103Y-87504819D02*
X124772960Y-87552438D01*
X124772960Y-87552438D02*
X124820579Y-87600057D01*
X125772960Y-88504819D02*
X125201532Y-88504819D01*
X125487246Y-88504819D02*
X125487246Y-87504819D01*
X125487246Y-87504819D02*
X125392008Y-87647676D01*
X125392008Y-87647676D02*
X125296770Y-87742914D01*
X125296770Y-87742914D02*
X125201532Y-87790533D01*
X76784819Y-106916666D02*
X76308628Y-107249999D01*
X76784819Y-107488094D02*
X75784819Y-107488094D01*
X75784819Y-107488094D02*
X75784819Y-107107142D01*
X75784819Y-107107142D02*
X75832438Y-107011904D01*
X75832438Y-107011904D02*
X75880057Y-106964285D01*
X75880057Y-106964285D02*
X75975295Y-106916666D01*
X75975295Y-106916666D02*
X76118152Y-106916666D01*
X76118152Y-106916666D02*
X76213390Y-106964285D01*
X76213390Y-106964285D02*
X76261009Y-107011904D01*
X76261009Y-107011904D02*
X76308628Y-107107142D01*
X76308628Y-107107142D02*
X76308628Y-107488094D01*
X75784819Y-106583332D02*
X75784819Y-105964285D01*
X75784819Y-105964285D02*
X76165771Y-106297618D01*
X76165771Y-106297618D02*
X76165771Y-106154761D01*
X76165771Y-106154761D02*
X76213390Y-106059523D01*
X76213390Y-106059523D02*
X76261009Y-106011904D01*
X76261009Y-106011904D02*
X76356247Y-105964285D01*
X76356247Y-105964285D02*
X76594342Y-105964285D01*
X76594342Y-105964285D02*
X76689580Y-106011904D01*
X76689580Y-106011904D02*
X76737200Y-106059523D01*
X76737200Y-106059523D02*
X76784819Y-106154761D01*
X76784819Y-106154761D02*
X76784819Y-106440475D01*
X76784819Y-106440475D02*
X76737200Y-106535713D01*
X76737200Y-106535713D02*
X76689580Y-106583332D01*
X80333333Y-124984819D02*
X80000000Y-124508628D01*
X79761905Y-124984819D02*
X79761905Y-123984819D01*
X79761905Y-123984819D02*
X80142857Y-123984819D01*
X80142857Y-123984819D02*
X80238095Y-124032438D01*
X80238095Y-124032438D02*
X80285714Y-124080057D01*
X80285714Y-124080057D02*
X80333333Y-124175295D01*
X80333333Y-124175295D02*
X80333333Y-124318152D01*
X80333333Y-124318152D02*
X80285714Y-124413390D01*
X80285714Y-124413390D02*
X80238095Y-124461009D01*
X80238095Y-124461009D02*
X80142857Y-124508628D01*
X80142857Y-124508628D02*
X79761905Y-124508628D01*
X81190476Y-123984819D02*
X81000000Y-123984819D01*
X81000000Y-123984819D02*
X80904762Y-124032438D01*
X80904762Y-124032438D02*
X80857143Y-124080057D01*
X80857143Y-124080057D02*
X80761905Y-124222914D01*
X80761905Y-124222914D02*
X80714286Y-124413390D01*
X80714286Y-124413390D02*
X80714286Y-124794342D01*
X80714286Y-124794342D02*
X80761905Y-124889580D01*
X80761905Y-124889580D02*
X80809524Y-124937200D01*
X80809524Y-124937200D02*
X80904762Y-124984819D01*
X80904762Y-124984819D02*
X81095238Y-124984819D01*
X81095238Y-124984819D02*
X81190476Y-124937200D01*
X81190476Y-124937200D02*
X81238095Y-124889580D01*
X81238095Y-124889580D02*
X81285714Y-124794342D01*
X81285714Y-124794342D02*
X81285714Y-124556247D01*
X81285714Y-124556247D02*
X81238095Y-124461009D01*
X81238095Y-124461009D02*
X81190476Y-124413390D01*
X81190476Y-124413390D02*
X81095238Y-124365771D01*
X81095238Y-124365771D02*
X80904762Y-124365771D01*
X80904762Y-124365771D02*
X80809524Y-124413390D01*
X80809524Y-124413390D02*
X80761905Y-124461009D01*
X80761905Y-124461009D02*
X80714286Y-124556247D01*
X82211905Y-111074819D02*
X82211905Y-110074819D01*
X82211905Y-110074819D02*
X82450000Y-110074819D01*
X82450000Y-110074819D02*
X82592857Y-110122438D01*
X82592857Y-110122438D02*
X82688095Y-110217676D01*
X82688095Y-110217676D02*
X82735714Y-110312914D01*
X82735714Y-110312914D02*
X82783333Y-110503390D01*
X82783333Y-110503390D02*
X82783333Y-110646247D01*
X82783333Y-110646247D02*
X82735714Y-110836723D01*
X82735714Y-110836723D02*
X82688095Y-110931961D01*
X82688095Y-110931961D02*
X82592857Y-111027200D01*
X82592857Y-111027200D02*
X82450000Y-111074819D01*
X82450000Y-111074819D02*
X82211905Y-111074819D01*
X83116667Y-110074819D02*
X83735714Y-110074819D01*
X83735714Y-110074819D02*
X83402381Y-110455771D01*
X83402381Y-110455771D02*
X83545238Y-110455771D01*
X83545238Y-110455771D02*
X83640476Y-110503390D01*
X83640476Y-110503390D02*
X83688095Y-110551009D01*
X83688095Y-110551009D02*
X83735714Y-110646247D01*
X83735714Y-110646247D02*
X83735714Y-110884342D01*
X83735714Y-110884342D02*
X83688095Y-110979580D01*
X83688095Y-110979580D02*
X83640476Y-111027200D01*
X83640476Y-111027200D02*
X83545238Y-111074819D01*
X83545238Y-111074819D02*
X83259524Y-111074819D01*
X83259524Y-111074819D02*
X83164286Y-111027200D01*
X83164286Y-111027200D02*
X83116667Y-110979580D01*
X87768095Y-110354819D02*
X87768095Y-109354819D01*
X88339523Y-110354819D02*
X87910952Y-109783390D01*
X88339523Y-109354819D02*
X87768095Y-109926247D01*
X80316666Y-137554819D02*
X79983333Y-137078628D01*
X79745238Y-137554819D02*
X79745238Y-136554819D01*
X79745238Y-136554819D02*
X80126190Y-136554819D01*
X80126190Y-136554819D02*
X80221428Y-136602438D01*
X80221428Y-136602438D02*
X80269047Y-136650057D01*
X80269047Y-136650057D02*
X80316666Y-136745295D01*
X80316666Y-136745295D02*
X80316666Y-136888152D01*
X80316666Y-136888152D02*
X80269047Y-136983390D01*
X80269047Y-136983390D02*
X80221428Y-137031009D01*
X80221428Y-137031009D02*
X80126190Y-137078628D01*
X80126190Y-137078628D02*
X79745238Y-137078628D01*
X80745238Y-137031009D02*
X81078571Y-137031009D01*
X81221428Y-137554819D02*
X80745238Y-137554819D01*
X80745238Y-137554819D02*
X80745238Y-136554819D01*
X80745238Y-136554819D02*
X81221428Y-136554819D01*
X81983333Y-137031009D02*
X81650000Y-137031009D01*
X81650000Y-137554819D02*
X81650000Y-136554819D01*
X81650000Y-136554819D02*
X82126190Y-136554819D01*
X82650000Y-136554819D02*
X82650000Y-136792914D01*
X82411905Y-136697676D02*
X82650000Y-136792914D01*
X82650000Y-136792914D02*
X82888095Y-136697676D01*
X82507143Y-136983390D02*
X82650000Y-136792914D01*
X82650000Y-136792914D02*
X82792857Y-136983390D01*
X83411905Y-136554819D02*
X83411905Y-136792914D01*
X83173810Y-136697676D02*
X83411905Y-136792914D01*
X83411905Y-136792914D02*
X83650000Y-136697676D01*
X83269048Y-136983390D02*
X83411905Y-136792914D01*
X83411905Y-136792914D02*
X83554762Y-136983390D01*
X102138726Y-81254819D02*
X102472059Y-82254819D01*
X102472059Y-82254819D02*
X102805392Y-81254819D01*
X103710154Y-82254819D02*
X103376821Y-81778628D01*
X103138726Y-82254819D02*
X103138726Y-81254819D01*
X103138726Y-81254819D02*
X103519678Y-81254819D01*
X103519678Y-81254819D02*
X103614916Y-81302438D01*
X103614916Y-81302438D02*
X103662535Y-81350057D01*
X103662535Y-81350057D02*
X103710154Y-81445295D01*
X103710154Y-81445295D02*
X103710154Y-81588152D01*
X103710154Y-81588152D02*
X103662535Y-81683390D01*
X103662535Y-81683390D02*
X103614916Y-81731009D01*
X103614916Y-81731009D02*
X103519678Y-81778628D01*
X103519678Y-81778628D02*
X103138726Y-81778628D01*
X104662535Y-82254819D02*
X104091107Y-82254819D01*
X104376821Y-82254819D02*
X104376821Y-81254819D01*
X104376821Y-81254819D02*
X104281583Y-81397676D01*
X104281583Y-81397676D02*
X104186345Y-81492914D01*
X104186345Y-81492914D02*
X104091107Y-81540533D01*
G36*
X86090930Y-83298955D02*
G01*
X84718708Y-83298955D01*
X84718708Y-82718701D01*
X84831260Y-82718701D01*
X84831260Y-82747965D01*
X84842459Y-82775001D01*
X84863151Y-82795693D01*
X84890187Y-82806892D01*
X84904819Y-82808333D01*
X85606934Y-82808333D01*
X85721447Y-82846504D01*
X85791648Y-82916704D01*
X85829819Y-83031217D01*
X85829819Y-83114285D01*
X85831260Y-83128917D01*
X85842459Y-83155953D01*
X85863151Y-83176645D01*
X85890187Y-83187844D01*
X85919451Y-83187844D01*
X85946487Y-83176645D01*
X85967179Y-83155953D01*
X85978378Y-83128917D01*
X85979819Y-83114285D01*
X85979819Y-83019047D01*
X85979089Y-83011640D01*
X85979230Y-83009666D01*
X85978639Y-83007068D01*
X85978378Y-83004415D01*
X85977619Y-83002584D01*
X85975970Y-82995329D01*
X85928351Y-82852473D01*
X85922357Y-82839047D01*
X85920592Y-82837012D01*
X85919561Y-82834522D01*
X85910233Y-82823157D01*
X85814994Y-82727919D01*
X85803628Y-82718591D01*
X85801137Y-82717559D01*
X85799103Y-82715795D01*
X85785678Y-82709801D01*
X85642821Y-82662182D01*
X85635567Y-82660532D01*
X85633736Y-82659774D01*
X85631081Y-82659512D01*
X85628484Y-82658922D01*
X85626509Y-82659062D01*
X85619104Y-82658333D01*
X84904819Y-82658333D01*
X84890187Y-82659774D01*
X84863151Y-82670973D01*
X84842459Y-82691665D01*
X84831260Y-82718701D01*
X84718708Y-82718701D01*
X84718708Y-81923809D01*
X84829819Y-81923809D01*
X84829819Y-82161904D01*
X84831260Y-82176536D01*
X84832291Y-82179025D01*
X84832482Y-82181713D01*
X84837737Y-82195445D01*
X84885356Y-82290683D01*
X84889320Y-82296982D01*
X84890078Y-82298810D01*
X84891766Y-82300866D01*
X84893188Y-82303126D01*
X84894686Y-82304425D01*
X84899405Y-82310175D01*
X84947024Y-82357794D01*
X84958389Y-82367121D01*
X84985425Y-82378320D01*
X85014688Y-82378320D01*
X85041724Y-82367121D01*
X85062417Y-82346428D01*
X85073616Y-82319392D01*
X85073616Y-82290129D01*
X85062417Y-82263093D01*
X85053090Y-82251728D01*
X85014077Y-82212715D01*
X84979819Y-82144199D01*
X84979819Y-81941514D01*
X85014077Y-81872998D01*
X85044484Y-81842591D01*
X85113000Y-81808333D01*
X85178363Y-81808333D01*
X85292876Y-81846504D01*
X85851786Y-82405413D01*
X85863151Y-82414741D01*
X85882268Y-82422659D01*
X85890187Y-82425939D01*
X85890188Y-82425939D01*
X85919451Y-82425939D01*
X85946487Y-82414740D01*
X85967180Y-82394048D01*
X85975098Y-82374930D01*
X85978378Y-82367012D01*
X85979819Y-82352380D01*
X85979819Y-81733333D01*
X85978378Y-81718701D01*
X85967179Y-81691665D01*
X85946487Y-81670973D01*
X85919451Y-81659774D01*
X85890187Y-81659774D01*
X85863151Y-81670973D01*
X85842459Y-81691665D01*
X85831260Y-81718701D01*
X85829819Y-81733333D01*
X85829819Y-82171314D01*
X85386423Y-81727919D01*
X85375058Y-81718592D01*
X85372567Y-81717560D01*
X85370532Y-81715795D01*
X85357107Y-81709801D01*
X85214250Y-81662182D01*
X85206996Y-81660532D01*
X85205165Y-81659774D01*
X85202510Y-81659512D01*
X85199913Y-81658922D01*
X85197938Y-81659062D01*
X85190533Y-81658333D01*
X85095295Y-81658333D01*
X85080663Y-81659774D01*
X85078174Y-81660804D01*
X85075485Y-81660996D01*
X85061754Y-81666251D01*
X84966516Y-81713870D01*
X84960216Y-81717834D01*
X84958389Y-81718592D01*
X84956332Y-81720280D01*
X84954073Y-81721702D01*
X84952773Y-81723200D01*
X84947024Y-81727919D01*
X84899405Y-81775538D01*
X84894686Y-81781287D01*
X84893188Y-81782587D01*
X84891766Y-81784846D01*
X84890078Y-81786903D01*
X84889320Y-81788730D01*
X84885356Y-81795030D01*
X84837737Y-81890268D01*
X84832482Y-81904000D01*
X84832291Y-81906687D01*
X84831260Y-81909177D01*
X84829819Y-81923809D01*
X84718708Y-81923809D01*
X84718708Y-81547222D01*
X86090930Y-81547222D01*
X86090930Y-83298955D01*
G37*
G36*
X82290930Y-100698955D02*
G01*
X80918708Y-100698955D01*
X80918708Y-100118701D01*
X81031260Y-100118701D01*
X81031260Y-100147965D01*
X81042459Y-100175001D01*
X81063151Y-100195693D01*
X81090187Y-100206892D01*
X81104819Y-100208333D01*
X81806934Y-100208333D01*
X81921447Y-100246504D01*
X81991648Y-100316704D01*
X82029819Y-100431217D01*
X82029819Y-100514285D01*
X82031260Y-100528917D01*
X82042459Y-100555953D01*
X82063151Y-100576645D01*
X82090187Y-100587844D01*
X82119451Y-100587844D01*
X82146487Y-100576645D01*
X82167179Y-100555953D01*
X82178378Y-100528917D01*
X82179819Y-100514285D01*
X82179819Y-100419047D01*
X82179089Y-100411640D01*
X82179230Y-100409666D01*
X82178639Y-100407068D01*
X82178378Y-100404415D01*
X82177619Y-100402584D01*
X82175970Y-100395329D01*
X82128351Y-100252473D01*
X82122357Y-100239047D01*
X82120592Y-100237012D01*
X82119561Y-100234522D01*
X82110233Y-100223157D01*
X82014994Y-100127919D01*
X82003628Y-100118591D01*
X82001137Y-100117559D01*
X81999103Y-100115795D01*
X81985678Y-100109801D01*
X81842821Y-100062182D01*
X81835567Y-100060532D01*
X81833736Y-100059774D01*
X81831081Y-100059512D01*
X81828484Y-100058922D01*
X81826509Y-100059062D01*
X81819104Y-100058333D01*
X81104819Y-100058333D01*
X81090187Y-100059774D01*
X81063151Y-100070973D01*
X81042459Y-100091665D01*
X81031260Y-100118701D01*
X80918708Y-100118701D01*
X80918708Y-99133333D01*
X81029819Y-99133333D01*
X81029819Y-99752380D01*
X81031260Y-99767012D01*
X81042459Y-99794048D01*
X81063151Y-99814740D01*
X81090187Y-99825939D01*
X81119451Y-99825939D01*
X81146487Y-99814740D01*
X81167179Y-99794048D01*
X81178378Y-99767012D01*
X81179819Y-99752380D01*
X81179819Y-99298615D01*
X81436383Y-99523109D01*
X81442707Y-99527630D01*
X81444103Y-99529026D01*
X81445426Y-99529574D01*
X81448344Y-99531660D01*
X81459881Y-99535561D01*
X81471139Y-99540225D01*
X81473670Y-99540225D01*
X81476065Y-99541035D01*
X81488218Y-99540225D01*
X81500403Y-99540225D01*
X81502739Y-99539257D01*
X81505263Y-99539089D01*
X81516188Y-99533686D01*
X81527439Y-99529026D01*
X81529225Y-99527239D01*
X81531495Y-99526117D01*
X81539520Y-99516944D01*
X81548131Y-99508334D01*
X81549099Y-99505997D01*
X81550765Y-99504093D01*
X81554666Y-99492555D01*
X81559330Y-99481298D01*
X81559681Y-99477727D01*
X81560140Y-99476372D01*
X81560008Y-99474404D01*
X81560771Y-99466666D01*
X81560771Y-99341514D01*
X81595029Y-99272998D01*
X81625436Y-99242591D01*
X81693952Y-99208333D01*
X81896637Y-99208333D01*
X81965153Y-99242591D01*
X81995561Y-99272998D01*
X82029819Y-99341514D01*
X82029819Y-99591818D01*
X81995561Y-99660333D01*
X81956548Y-99699346D01*
X81947220Y-99710712D01*
X81936021Y-99737748D01*
X81936021Y-99767011D01*
X81947219Y-99794047D01*
X81967912Y-99814740D01*
X81994948Y-99825939D01*
X82024211Y-99825939D01*
X82051247Y-99814741D01*
X82062612Y-99805414D01*
X82110232Y-99757795D01*
X82114950Y-99752045D01*
X82116450Y-99750745D01*
X82117872Y-99748485D01*
X82119560Y-99746429D01*
X82120317Y-99744601D01*
X82124282Y-99738302D01*
X82171901Y-99643064D01*
X82177156Y-99629333D01*
X82177347Y-99626643D01*
X82178378Y-99624155D01*
X82179819Y-99609523D01*
X82179819Y-99323809D01*
X82178378Y-99309177D01*
X82177347Y-99306688D01*
X82177156Y-99303999D01*
X82171901Y-99290268D01*
X82124282Y-99195030D01*
X82120317Y-99188730D01*
X82119560Y-99186903D01*
X82117872Y-99184846D01*
X82116450Y-99182587D01*
X82114950Y-99181286D01*
X82110232Y-99175537D01*
X82062612Y-99127918D01*
X82056863Y-99123200D01*
X82055564Y-99121702D01*
X82053305Y-99120280D01*
X82051247Y-99118591D01*
X82049417Y-99117833D01*
X82043121Y-99113870D01*
X81947883Y-99066251D01*
X81934151Y-99060996D01*
X81931463Y-99060805D01*
X81928974Y-99059774D01*
X81914342Y-99058333D01*
X81676247Y-99058333D01*
X81661615Y-99059774D01*
X81659126Y-99060804D01*
X81656437Y-99060996D01*
X81642706Y-99066251D01*
X81547468Y-99113870D01*
X81541168Y-99117834D01*
X81539341Y-99118592D01*
X81537284Y-99120280D01*
X81535025Y-99121702D01*
X81533725Y-99123200D01*
X81527976Y-99127919D01*
X81480357Y-99175538D01*
X81475638Y-99181287D01*
X81474140Y-99182587D01*
X81472718Y-99184846D01*
X81471030Y-99186903D01*
X81470272Y-99188730D01*
X81466308Y-99195030D01*
X81418689Y-99290268D01*
X81413516Y-99303785D01*
X81154207Y-99076890D01*
X81147882Y-99072368D01*
X81146487Y-99070973D01*
X81145163Y-99070424D01*
X81142246Y-99068339D01*
X81130708Y-99064437D01*
X81119451Y-99059774D01*
X81116920Y-99059774D01*
X81114525Y-99058964D01*
X81102372Y-99059774D01*
X81090187Y-99059774D01*
X81087850Y-99060741D01*
X81085327Y-99060910D01*
X81074401Y-99066312D01*
X81063151Y-99070973D01*
X81061364Y-99072759D01*
X81059095Y-99073882D01*
X81051069Y-99083054D01*
X81042459Y-99091665D01*
X81041490Y-99094001D01*
X81039825Y-99095906D01*
X81035923Y-99107443D01*
X81031260Y-99118701D01*
X81030908Y-99122271D01*
X81030450Y-99123627D01*
X81030581Y-99125594D01*
X81029819Y-99133333D01*
X80918708Y-99133333D01*
X80918708Y-98947222D01*
X82290930Y-98947222D01*
X82290930Y-100698955D01*
G37*
X92483333Y-72259580D02*
X92435714Y-72307200D01*
X92435714Y-72307200D02*
X92292857Y-72354819D01*
X92292857Y-72354819D02*
X92197619Y-72354819D01*
X92197619Y-72354819D02*
X92054762Y-72307200D01*
X92054762Y-72307200D02*
X91959524Y-72211961D01*
X91959524Y-72211961D02*
X91911905Y-72116723D01*
X91911905Y-72116723D02*
X91864286Y-71926247D01*
X91864286Y-71926247D02*
X91864286Y-71783390D01*
X91864286Y-71783390D02*
X91911905Y-71592914D01*
X91911905Y-71592914D02*
X91959524Y-71497676D01*
X91959524Y-71497676D02*
X92054762Y-71402438D01*
X92054762Y-71402438D02*
X92197619Y-71354819D01*
X92197619Y-71354819D02*
X92292857Y-71354819D01*
X92292857Y-71354819D02*
X92435714Y-71402438D01*
X92435714Y-71402438D02*
X92483333Y-71450057D01*
X93340476Y-71688152D02*
X93340476Y-72354819D01*
X93102381Y-71307200D02*
X92864286Y-72021485D01*
X92864286Y-72021485D02*
X93483333Y-72021485D01*
X89424819Y-118221904D02*
X90234342Y-118221904D01*
X90234342Y-118221904D02*
X90329580Y-118174285D01*
X90329580Y-118174285D02*
X90377200Y-118126666D01*
X90377200Y-118126666D02*
X90424819Y-118031428D01*
X90424819Y-118031428D02*
X90424819Y-117840952D01*
X90424819Y-117840952D02*
X90377200Y-117745714D01*
X90377200Y-117745714D02*
X90329580Y-117698095D01*
X90329580Y-117698095D02*
X90234342Y-117650476D01*
X90234342Y-117650476D02*
X89424819Y-117650476D01*
X89424819Y-117269523D02*
X89424819Y-116650476D01*
X89424819Y-116650476D02*
X89805771Y-116983809D01*
X89805771Y-116983809D02*
X89805771Y-116840952D01*
X89805771Y-116840952D02*
X89853390Y-116745714D01*
X89853390Y-116745714D02*
X89901009Y-116698095D01*
X89901009Y-116698095D02*
X89996247Y-116650476D01*
X89996247Y-116650476D02*
X90234342Y-116650476D01*
X90234342Y-116650476D02*
X90329580Y-116698095D01*
X90329580Y-116698095D02*
X90377200Y-116745714D01*
X90377200Y-116745714D02*
X90424819Y-116840952D01*
X90424819Y-116840952D02*
X90424819Y-117126666D01*
X90424819Y-117126666D02*
X90377200Y-117221904D01*
X90377200Y-117221904D02*
X90329580Y-117269523D01*
D11*
X80162618Y-89424318D02*
X80162618Y-88154318D01*
X80162618Y-88154318D02*
X80464999Y-88154318D01*
X80464999Y-88154318D02*
X80646428Y-88214794D01*
X80646428Y-88214794D02*
X80767380Y-88335746D01*
X80767380Y-88335746D02*
X80827857Y-88456699D01*
X80827857Y-88456699D02*
X80888333Y-88698603D01*
X80888333Y-88698603D02*
X80888333Y-88880032D01*
X80888333Y-88880032D02*
X80827857Y-89121937D01*
X80827857Y-89121937D02*
X80767380Y-89242889D01*
X80767380Y-89242889D02*
X80646428Y-89363842D01*
X80646428Y-89363842D02*
X80464999Y-89424318D01*
X80464999Y-89424318D02*
X80162618Y-89424318D01*
X81976904Y-88577651D02*
X81976904Y-89424318D01*
X81674523Y-88093842D02*
X81372142Y-89000984D01*
X81372142Y-89000984D02*
X82158333Y-89000984D01*
X94279047Y-111095270D02*
X94158095Y-111034794D01*
X94158095Y-111034794D02*
X94037142Y-110913842D01*
X94037142Y-110913842D02*
X93855714Y-110732413D01*
X93855714Y-110732413D02*
X93734761Y-110671937D01*
X93734761Y-110671937D02*
X93613809Y-110671937D01*
X93674285Y-110974318D02*
X93553333Y-110913842D01*
X93553333Y-110913842D02*
X93432380Y-110792889D01*
X93432380Y-110792889D02*
X93371904Y-110550984D01*
X93371904Y-110550984D02*
X93371904Y-110127651D01*
X93371904Y-110127651D02*
X93432380Y-109885746D01*
X93432380Y-109885746D02*
X93553333Y-109764794D01*
X93553333Y-109764794D02*
X93674285Y-109704318D01*
X93674285Y-109704318D02*
X93916190Y-109704318D01*
X93916190Y-109704318D02*
X94037142Y-109764794D01*
X94037142Y-109764794D02*
X94158095Y-109885746D01*
X94158095Y-109885746D02*
X94218571Y-110127651D01*
X94218571Y-110127651D02*
X94218571Y-110550984D01*
X94218571Y-110550984D02*
X94158095Y-110792889D01*
X94158095Y-110792889D02*
X94037142Y-110913842D01*
X94037142Y-110913842D02*
X93916190Y-110974318D01*
X93916190Y-110974318D02*
X93674285Y-110974318D01*
X94702380Y-109825270D02*
X94762856Y-109764794D01*
X94762856Y-109764794D02*
X94883809Y-109704318D01*
X94883809Y-109704318D02*
X95186190Y-109704318D01*
X95186190Y-109704318D02*
X95307142Y-109764794D01*
X95307142Y-109764794D02*
X95367618Y-109825270D01*
X95367618Y-109825270D02*
X95428095Y-109946222D01*
X95428095Y-109946222D02*
X95428095Y-110067175D01*
X95428095Y-110067175D02*
X95367618Y-110248603D01*
X95367618Y-110248603D02*
X94641904Y-110974318D01*
X94641904Y-110974318D02*
X95428095Y-110974318D01*
D10*
X93083333Y-124674819D02*
X92750000Y-124198628D01*
X92511905Y-124674819D02*
X92511905Y-123674819D01*
X92511905Y-123674819D02*
X92892857Y-123674819D01*
X92892857Y-123674819D02*
X92988095Y-123722438D01*
X92988095Y-123722438D02*
X93035714Y-123770057D01*
X93035714Y-123770057D02*
X93083333Y-123865295D01*
X93083333Y-123865295D02*
X93083333Y-124008152D01*
X93083333Y-124008152D02*
X93035714Y-124103390D01*
X93035714Y-124103390D02*
X92988095Y-124151009D01*
X92988095Y-124151009D02*
X92892857Y-124198628D01*
X92892857Y-124198628D02*
X92511905Y-124198628D01*
X93464286Y-123770057D02*
X93511905Y-123722438D01*
X93511905Y-123722438D02*
X93607143Y-123674819D01*
X93607143Y-123674819D02*
X93845238Y-123674819D01*
X93845238Y-123674819D02*
X93940476Y-123722438D01*
X93940476Y-123722438D02*
X93988095Y-123770057D01*
X93988095Y-123770057D02*
X94035714Y-123865295D01*
X94035714Y-123865295D02*
X94035714Y-123960533D01*
X94035714Y-123960533D02*
X93988095Y-124103390D01*
X93988095Y-124103390D02*
X93416667Y-124674819D01*
X93416667Y-124674819D02*
X94035714Y-124674819D01*
X92533333Y-83659580D02*
X92485714Y-83707200D01*
X92485714Y-83707200D02*
X92342857Y-83754819D01*
X92342857Y-83754819D02*
X92247619Y-83754819D01*
X92247619Y-83754819D02*
X92104762Y-83707200D01*
X92104762Y-83707200D02*
X92009524Y-83611961D01*
X92009524Y-83611961D02*
X91961905Y-83516723D01*
X91961905Y-83516723D02*
X91914286Y-83326247D01*
X91914286Y-83326247D02*
X91914286Y-83183390D01*
X91914286Y-83183390D02*
X91961905Y-82992914D01*
X91961905Y-82992914D02*
X92009524Y-82897676D01*
X92009524Y-82897676D02*
X92104762Y-82802438D01*
X92104762Y-82802438D02*
X92247619Y-82754819D01*
X92247619Y-82754819D02*
X92342857Y-82754819D01*
X92342857Y-82754819D02*
X92485714Y-82802438D01*
X92485714Y-82802438D02*
X92533333Y-82850057D01*
X93390476Y-82754819D02*
X93200000Y-82754819D01*
X93200000Y-82754819D02*
X93104762Y-82802438D01*
X93104762Y-82802438D02*
X93057143Y-82850057D01*
X93057143Y-82850057D02*
X92961905Y-82992914D01*
X92961905Y-82992914D02*
X92914286Y-83183390D01*
X92914286Y-83183390D02*
X92914286Y-83564342D01*
X92914286Y-83564342D02*
X92961905Y-83659580D01*
X92961905Y-83659580D02*
X93009524Y-83707200D01*
X93009524Y-83707200D02*
X93104762Y-83754819D01*
X93104762Y-83754819D02*
X93295238Y-83754819D01*
X93295238Y-83754819D02*
X93390476Y-83707200D01*
X93390476Y-83707200D02*
X93438095Y-83659580D01*
X93438095Y-83659580D02*
X93485714Y-83564342D01*
X93485714Y-83564342D02*
X93485714Y-83326247D01*
X93485714Y-83326247D02*
X93438095Y-83231009D01*
X93438095Y-83231009D02*
X93390476Y-83183390D01*
X93390476Y-83183390D02*
X93295238Y-83135771D01*
X93295238Y-83135771D02*
X93104762Y-83135771D01*
X93104762Y-83135771D02*
X93009524Y-83183390D01*
X93009524Y-83183390D02*
X92961905Y-83231009D01*
X92961905Y-83231009D02*
X92914286Y-83326247D01*
X82583333Y-79009580D02*
X82535714Y-79057200D01*
X82535714Y-79057200D02*
X82392857Y-79104819D01*
X82392857Y-79104819D02*
X82297619Y-79104819D01*
X82297619Y-79104819D02*
X82154762Y-79057200D01*
X82154762Y-79057200D02*
X82059524Y-78961961D01*
X82059524Y-78961961D02*
X82011905Y-78866723D01*
X82011905Y-78866723D02*
X81964286Y-78676247D01*
X81964286Y-78676247D02*
X81964286Y-78533390D01*
X81964286Y-78533390D02*
X82011905Y-78342914D01*
X82011905Y-78342914D02*
X82059524Y-78247676D01*
X82059524Y-78247676D02*
X82154762Y-78152438D01*
X82154762Y-78152438D02*
X82297619Y-78104819D01*
X82297619Y-78104819D02*
X82392857Y-78104819D01*
X82392857Y-78104819D02*
X82535714Y-78152438D01*
X82535714Y-78152438D02*
X82583333Y-78200057D01*
X82916667Y-78104819D02*
X83535714Y-78104819D01*
X83535714Y-78104819D02*
X83202381Y-78485771D01*
X83202381Y-78485771D02*
X83345238Y-78485771D01*
X83345238Y-78485771D02*
X83440476Y-78533390D01*
X83440476Y-78533390D02*
X83488095Y-78581009D01*
X83488095Y-78581009D02*
X83535714Y-78676247D01*
X83535714Y-78676247D02*
X83535714Y-78914342D01*
X83535714Y-78914342D02*
X83488095Y-79009580D01*
X83488095Y-79009580D02*
X83440476Y-79057200D01*
X83440476Y-79057200D02*
X83345238Y-79104819D01*
X83345238Y-79104819D02*
X83059524Y-79104819D01*
X83059524Y-79104819D02*
X82964286Y-79057200D01*
X82964286Y-79057200D02*
X82916667Y-79009580D01*
X103454761Y-74504819D02*
X103121428Y-74028628D01*
X102883333Y-74504819D02*
X102883333Y-73504819D01*
X102883333Y-73504819D02*
X103264285Y-73504819D01*
X103264285Y-73504819D02*
X103359523Y-73552438D01*
X103359523Y-73552438D02*
X103407142Y-73600057D01*
X103407142Y-73600057D02*
X103454761Y-73695295D01*
X103454761Y-73695295D02*
X103454761Y-73838152D01*
X103454761Y-73838152D02*
X103407142Y-73933390D01*
X103407142Y-73933390D02*
X103359523Y-73981009D01*
X103359523Y-73981009D02*
X103264285Y-74028628D01*
X103264285Y-74028628D02*
X102883333Y-74028628D01*
X103740476Y-73504819D02*
X104073809Y-74504819D01*
X104073809Y-74504819D02*
X104407142Y-73504819D01*
X105264285Y-74504819D02*
X104692857Y-74504819D01*
X104978571Y-74504819D02*
X104978571Y-73504819D01*
X104978571Y-73504819D02*
X104883333Y-73647676D01*
X104883333Y-73647676D02*
X104788095Y-73742914D01*
X104788095Y-73742914D02*
X104692857Y-73790533D01*
G36*
X83140930Y-116698955D02*
G01*
X81721678Y-116698955D01*
X81721678Y-116118701D01*
X81881260Y-116118701D01*
X81881260Y-116147965D01*
X81892459Y-116175001D01*
X81913151Y-116195693D01*
X81940187Y-116206892D01*
X81954819Y-116208333D01*
X82656934Y-116208333D01*
X82771447Y-116246504D01*
X82841648Y-116316704D01*
X82879819Y-116431217D01*
X82879819Y-116514285D01*
X82881260Y-116528917D01*
X82892459Y-116555953D01*
X82913151Y-116576645D01*
X82940187Y-116587844D01*
X82969451Y-116587844D01*
X82996487Y-116576645D01*
X83017179Y-116555953D01*
X83028378Y-116528917D01*
X83029819Y-116514285D01*
X83029819Y-116419047D01*
X83029089Y-116411640D01*
X83029230Y-116409666D01*
X83028639Y-116407068D01*
X83028378Y-116404415D01*
X83027619Y-116402584D01*
X83025970Y-116395329D01*
X82978351Y-116252473D01*
X82972357Y-116239047D01*
X82970592Y-116237012D01*
X82969561Y-116234522D01*
X82960233Y-116223157D01*
X82864994Y-116127919D01*
X82853628Y-116118591D01*
X82851137Y-116117559D01*
X82849103Y-116115795D01*
X82835678Y-116109801D01*
X82692821Y-116062182D01*
X82685567Y-116060532D01*
X82683736Y-116059774D01*
X82681081Y-116059512D01*
X82678484Y-116058922D01*
X82676509Y-116059062D01*
X82669104Y-116058333D01*
X81954819Y-116058333D01*
X81940187Y-116059774D01*
X81913151Y-116070973D01*
X81892459Y-116091665D01*
X81881260Y-116118701D01*
X81721678Y-116118701D01*
X81721678Y-115457286D01*
X81832789Y-115457286D01*
X81834864Y-115486476D01*
X81847950Y-115512649D01*
X81870057Y-115531823D01*
X81883483Y-115537817D01*
X82597767Y-115775912D01*
X82605022Y-115777561D01*
X82606853Y-115778320D01*
X82608357Y-115778320D01*
X82612104Y-115779172D01*
X82624089Y-115778320D01*
X82636117Y-115778320D01*
X82638608Y-115777287D01*
X82641294Y-115777097D01*
X82652041Y-115771723D01*
X82663153Y-115767121D01*
X82665058Y-115765215D01*
X82667468Y-115764011D01*
X82675342Y-115754931D01*
X82683845Y-115746429D01*
X82684876Y-115743938D01*
X82686642Y-115741903D01*
X82690442Y-115730502D01*
X82695044Y-115719393D01*
X82695420Y-115715566D01*
X82695896Y-115714141D01*
X82695755Y-115712166D01*
X82696485Y-115704761D01*
X82696485Y-115303571D01*
X82954819Y-115303571D01*
X82969451Y-115302130D01*
X82996487Y-115290931D01*
X83017179Y-115270239D01*
X83028378Y-115243203D01*
X83028378Y-115213939D01*
X83017179Y-115186903D01*
X82996487Y-115166211D01*
X82969451Y-115155012D01*
X82954819Y-115153571D01*
X82696485Y-115153571D01*
X82696485Y-115085714D01*
X82695044Y-115071082D01*
X82683845Y-115044046D01*
X82663153Y-115023354D01*
X82636117Y-115012155D01*
X82606853Y-115012155D01*
X82579817Y-115023354D01*
X82559125Y-115044046D01*
X82547926Y-115071082D01*
X82546485Y-115085714D01*
X82546485Y-115153571D01*
X82288152Y-115153571D01*
X82273520Y-115155012D01*
X82246484Y-115166211D01*
X82225792Y-115186903D01*
X82214593Y-115213939D01*
X82214593Y-115243203D01*
X82225792Y-115270239D01*
X82246484Y-115290931D01*
X82273520Y-115302130D01*
X82288152Y-115303571D01*
X82546485Y-115303571D01*
X82546485Y-115600704D01*
X81930917Y-115395515D01*
X81916580Y-115392255D01*
X81887390Y-115394330D01*
X81861217Y-115407416D01*
X81842043Y-115429523D01*
X81832789Y-115457286D01*
X81721678Y-115457286D01*
X81721678Y-114901044D01*
X83140930Y-114901044D01*
X83140930Y-116698955D01*
G37*
X121866666Y-124454819D02*
X121533333Y-123978628D01*
X121295238Y-124454819D02*
X121295238Y-123454819D01*
X121295238Y-123454819D02*
X121676190Y-123454819D01*
X121676190Y-123454819D02*
X121771428Y-123502438D01*
X121771428Y-123502438D02*
X121819047Y-123550057D01*
X121819047Y-123550057D02*
X121866666Y-123645295D01*
X121866666Y-123645295D02*
X121866666Y-123788152D01*
X121866666Y-123788152D02*
X121819047Y-123883390D01*
X121819047Y-123883390D02*
X121771428Y-123931009D01*
X121771428Y-123931009D02*
X121676190Y-123978628D01*
X121676190Y-123978628D02*
X121295238Y-123978628D01*
X122295238Y-123931009D02*
X122628571Y-123931009D01*
X122771428Y-124454819D02*
X122295238Y-124454819D01*
X122295238Y-124454819D02*
X122295238Y-123454819D01*
X122295238Y-123454819D02*
X122771428Y-123454819D01*
X123533333Y-123931009D02*
X123200000Y-123931009D01*
X123200000Y-124454819D02*
X123200000Y-123454819D01*
X123200000Y-123454819D02*
X123676190Y-123454819D01*
X124200000Y-123454819D02*
X124200000Y-123692914D01*
X123961905Y-123597676D02*
X124200000Y-123692914D01*
X124200000Y-123692914D02*
X124438095Y-123597676D01*
X124057143Y-123883390D02*
X124200000Y-123692914D01*
X124200000Y-123692914D02*
X124342857Y-123883390D01*
X124961905Y-123454819D02*
X124961905Y-123692914D01*
X124723810Y-123597676D02*
X124961905Y-123692914D01*
X124961905Y-123692914D02*
X125200000Y-123597676D01*
X124819048Y-123883390D02*
X124961905Y-123692914D01*
X124961905Y-123692914D02*
X125104762Y-123883390D01*
X107816667Y-116807200D02*
X107959524Y-116854819D01*
X107959524Y-116854819D02*
X108197619Y-116854819D01*
X108197619Y-116854819D02*
X108292857Y-116807200D01*
X108292857Y-116807200D02*
X108340476Y-116759580D01*
X108340476Y-116759580D02*
X108388095Y-116664342D01*
X108388095Y-116664342D02*
X108388095Y-116569104D01*
X108388095Y-116569104D02*
X108340476Y-116473866D01*
X108340476Y-116473866D02*
X108292857Y-116426247D01*
X108292857Y-116426247D02*
X108197619Y-116378628D01*
X108197619Y-116378628D02*
X108007143Y-116331009D01*
X108007143Y-116331009D02*
X107911905Y-116283390D01*
X107911905Y-116283390D02*
X107864286Y-116235771D01*
X107864286Y-116235771D02*
X107816667Y-116140533D01*
X107816667Y-116140533D02*
X107816667Y-116045295D01*
X107816667Y-116045295D02*
X107864286Y-115950057D01*
X107864286Y-115950057D02*
X107911905Y-115902438D01*
X107911905Y-115902438D02*
X108007143Y-115854819D01*
X108007143Y-115854819D02*
X108245238Y-115854819D01*
X108245238Y-115854819D02*
X108388095Y-115902438D01*
X108721429Y-115854819D02*
X108959524Y-116854819D01*
X108959524Y-116854819D02*
X109150000Y-116140533D01*
X109150000Y-116140533D02*
X109340476Y-116854819D01*
X109340476Y-116854819D02*
X109578572Y-115854819D01*
X110483333Y-116854819D02*
X109911905Y-116854819D01*
X110197619Y-116854819D02*
X110197619Y-115854819D01*
X110197619Y-115854819D02*
X110102381Y-115997676D01*
X110102381Y-115997676D02*
X110007143Y-116092914D01*
X110007143Y-116092914D02*
X109911905Y-116140533D01*
X124783333Y-105559580D02*
X124735714Y-105607200D01*
X124735714Y-105607200D02*
X124592857Y-105654819D01*
X124592857Y-105654819D02*
X124497619Y-105654819D01*
X124497619Y-105654819D02*
X124354762Y-105607200D01*
X124354762Y-105607200D02*
X124259524Y-105511961D01*
X124259524Y-105511961D02*
X124211905Y-105416723D01*
X124211905Y-105416723D02*
X124164286Y-105226247D01*
X124164286Y-105226247D02*
X124164286Y-105083390D01*
X124164286Y-105083390D02*
X124211905Y-104892914D01*
X124211905Y-104892914D02*
X124259524Y-104797676D01*
X124259524Y-104797676D02*
X124354762Y-104702438D01*
X124354762Y-104702438D02*
X124497619Y-104654819D01*
X124497619Y-104654819D02*
X124592857Y-104654819D01*
X124592857Y-104654819D02*
X124735714Y-104702438D01*
X124735714Y-104702438D02*
X124783333Y-104750057D01*
X125164286Y-104750057D02*
X125211905Y-104702438D01*
X125211905Y-104702438D02*
X125307143Y-104654819D01*
X125307143Y-104654819D02*
X125545238Y-104654819D01*
X125545238Y-104654819D02*
X125640476Y-104702438D01*
X125640476Y-104702438D02*
X125688095Y-104750057D01*
X125688095Y-104750057D02*
X125735714Y-104845295D01*
X125735714Y-104845295D02*
X125735714Y-104940533D01*
X125735714Y-104940533D02*
X125688095Y-105083390D01*
X125688095Y-105083390D02*
X125116667Y-105654819D01*
X125116667Y-105654819D02*
X125735714Y-105654819D01*
X87633333Y-110324819D02*
X87300000Y-109848628D01*
X87061905Y-110324819D02*
X87061905Y-109324819D01*
X87061905Y-109324819D02*
X87442857Y-109324819D01*
X87442857Y-109324819D02*
X87538095Y-109372438D01*
X87538095Y-109372438D02*
X87585714Y-109420057D01*
X87585714Y-109420057D02*
X87633333Y-109515295D01*
X87633333Y-109515295D02*
X87633333Y-109658152D01*
X87633333Y-109658152D02*
X87585714Y-109753390D01*
X87585714Y-109753390D02*
X87538095Y-109801009D01*
X87538095Y-109801009D02*
X87442857Y-109848628D01*
X87442857Y-109848628D02*
X87061905Y-109848628D01*
X88538095Y-109324819D02*
X88061905Y-109324819D01*
X88061905Y-109324819D02*
X88014286Y-109801009D01*
X88014286Y-109801009D02*
X88061905Y-109753390D01*
X88061905Y-109753390D02*
X88157143Y-109705771D01*
X88157143Y-109705771D02*
X88395238Y-109705771D01*
X88395238Y-109705771D02*
X88490476Y-109753390D01*
X88490476Y-109753390D02*
X88538095Y-109801009D01*
X88538095Y-109801009D02*
X88585714Y-109896247D01*
X88585714Y-109896247D02*
X88585714Y-110134342D01*
X88585714Y-110134342D02*
X88538095Y-110229580D01*
X88538095Y-110229580D02*
X88490476Y-110277200D01*
X88490476Y-110277200D02*
X88395238Y-110324819D01*
X88395238Y-110324819D02*
X88157143Y-110324819D01*
X88157143Y-110324819D02*
X88061905Y-110277200D01*
X88061905Y-110277200D02*
X88014286Y-110229580D01*
X99994642Y-96134819D02*
X99661309Y-95658628D01*
X99423214Y-96134819D02*
X99423214Y-95134819D01*
X99423214Y-95134819D02*
X99804166Y-95134819D01*
X99804166Y-95134819D02*
X99899404Y-95182438D01*
X99899404Y-95182438D02*
X99947023Y-95230057D01*
X99947023Y-95230057D02*
X99994642Y-95325295D01*
X99994642Y-95325295D02*
X99994642Y-95468152D01*
X99994642Y-95468152D02*
X99947023Y-95563390D01*
X99947023Y-95563390D02*
X99899404Y-95611009D01*
X99899404Y-95611009D02*
X99804166Y-95658628D01*
X99804166Y-95658628D02*
X99423214Y-95658628D01*
X100947023Y-96134819D02*
X100375595Y-96134819D01*
X100661309Y-96134819D02*
X100661309Y-95134819D01*
X100661309Y-95134819D02*
X100566071Y-95277676D01*
X100566071Y-95277676D02*
X100470833Y-95372914D01*
X100470833Y-95372914D02*
X100375595Y-95420533D01*
X101566071Y-95134819D02*
X101661309Y-95134819D01*
X101661309Y-95134819D02*
X101756547Y-95182438D01*
X101756547Y-95182438D02*
X101804166Y-95230057D01*
X101804166Y-95230057D02*
X101851785Y-95325295D01*
X101851785Y-95325295D02*
X101899404Y-95515771D01*
X101899404Y-95515771D02*
X101899404Y-95753866D01*
X101899404Y-95753866D02*
X101851785Y-95944342D01*
X101851785Y-95944342D02*
X101804166Y-96039580D01*
X101804166Y-96039580D02*
X101756547Y-96087200D01*
X101756547Y-96087200D02*
X101661309Y-96134819D01*
X101661309Y-96134819D02*
X101566071Y-96134819D01*
X101566071Y-96134819D02*
X101470833Y-96087200D01*
X101470833Y-96087200D02*
X101423214Y-96039580D01*
X101423214Y-96039580D02*
X101375595Y-95944342D01*
X101375595Y-95944342D02*
X101327976Y-95753866D01*
X101327976Y-95753866D02*
X101327976Y-95515771D01*
X101327976Y-95515771D02*
X101375595Y-95325295D01*
X101375595Y-95325295D02*
X101423214Y-95230057D01*
X101423214Y-95230057D02*
X101470833Y-95182438D01*
X101470833Y-95182438D02*
X101566071Y-95134819D01*
D12*
%TO.C,CR1*%
X104610999Y-112265000D02*
X104610999Y-113535000D01*
X104610999Y-112900000D02*
X105372999Y-112265000D01*
X104610999Y-112900000D02*
X105372999Y-112392000D01*
X104610999Y-112900000D02*
X105372999Y-112519000D01*
X104610999Y-112900000D02*
X105372999Y-112646000D01*
X104610999Y-112900000D02*
X105372999Y-112773000D01*
X104610999Y-112900000D02*
X105372999Y-113027000D01*
X104610999Y-112900000D02*
X105372999Y-113154000D01*
X104610999Y-112900000D02*
X105372999Y-113281000D01*
X104610999Y-112900000D02*
X105372999Y-113408000D01*
X104610999Y-112900000D02*
X105372999Y-113535000D01*
X105372999Y-112265000D02*
X105372999Y-113535000D01*
X105626999Y-112900000D02*
X104356999Y-112900000D01*
X106007999Y-109663001D02*
X106007999Y-110977259D01*
X106007999Y-114822741D02*
X106007999Y-116136999D01*
X106007999Y-116136999D02*
X114392001Y-116136999D01*
X114392001Y-109663001D02*
X106007999Y-109663001D01*
X114392001Y-110977259D02*
X114392001Y-109663001D01*
X114392001Y-116136999D02*
X114392001Y-114822741D01*
D13*
%TO.C,J1*%
X78650000Y-127350000D02*
X78650000Y-130400000D01*
X78650000Y-133450000D02*
X78650000Y-130400000D01*
X81600000Y-126600000D02*
X81600000Y-127350000D01*
X81600000Y-127350000D02*
X78650000Y-127350000D01*
X81600000Y-133450000D02*
X78650000Y-133450000D01*
X81600000Y-134200000D02*
X81600000Y-133450000D01*
X84150000Y-126300000D02*
X82900000Y-126300000D01*
X84150000Y-127550000D02*
X84150000Y-126300000D01*
X83850000Y-126600000D02*
X83100000Y-126600000D01*
X83100000Y-128400000D01*
X83850000Y-128400000D01*
X83850000Y-126600000D01*
X83850000Y-129900000D02*
X83100000Y-129900000D01*
X83100000Y-130900000D01*
X83850000Y-130900000D01*
X83850000Y-129900000D01*
X83850000Y-132400000D02*
X83100000Y-132400000D01*
X83100000Y-134200000D01*
X83850000Y-134200000D01*
X83850000Y-132400000D01*
X83860000Y-126590000D02*
X77890000Y-126590000D01*
X77890000Y-134210000D01*
X83860000Y-134210000D01*
X83860000Y-126590000D01*
D14*
%TO.C,Q1*%
X91050000Y-103150000D02*
X91050000Y-104400000D01*
X91050000Y-104400000D02*
X97550000Y-104400000D01*
X92000000Y-108350000D02*
X92000000Y-108350000D01*
X92000000Y-108450000D02*
X92000000Y-108450000D01*
X92000000Y-108450000D02*
X92000000Y-108450000D01*
X97550000Y-104400000D02*
X97550000Y-103150000D01*
X92000000Y-108350000D02*
G75*
G02*
X92000000Y-108450000I0J-50000D01*
G01*
X92000000Y-108350000D02*
G75*
G02*
X92000000Y-108450000I0J-50000D01*
G01*
X92000000Y-108450000D02*
G75*
G02*
X92000000Y-108350000I0J50000D01*
G01*
D13*
%TO.C,C5*%
X114590000Y-118563748D02*
X114590000Y-119986252D01*
X116410000Y-118563748D02*
X116410000Y-119986252D01*
%TO.C,R4*%
X81577500Y-97162258D02*
X81577500Y-96687742D01*
X82622500Y-97162258D02*
X82622500Y-96687742D01*
D14*
%TO.C,L1*%
X101775000Y-108500000D02*
X115225000Y-108500000D01*
X115225000Y-95900000D02*
X101775000Y-95900000D01*
D13*
%TO.C,R1*%
X96222936Y-109240000D02*
X97677064Y-109240000D01*
X96222936Y-111060000D02*
X97677064Y-111060000D01*
%TO.C,D2*%
X99630000Y-113550000D02*
X99630000Y-121390000D01*
X99630000Y-121390000D02*
X100110000Y-121390000D01*
X100110000Y-113550000D02*
X99630000Y-113550000D01*
X102990000Y-113550000D02*
X103470000Y-113550000D01*
X103470000Y-113550000D02*
X103470000Y-121390000D01*
X103470000Y-114690000D02*
X99630000Y-114690000D01*
X103470000Y-114810000D02*
X99630000Y-114810000D01*
X103470000Y-114930000D02*
X99630000Y-114930000D01*
X103470000Y-121390000D02*
X102990000Y-121390000D01*
%TO.C,R7*%
X87372936Y-125090000D02*
X88827064Y-125090000D01*
X87372936Y-126910000D02*
X88827064Y-126910000D01*
%TO.C,D1*%
X86602500Y-128314000D02*
X86602500Y-128470000D01*
X86602500Y-130630000D02*
X86602500Y-130786000D01*
X86602500Y-128314484D02*
G75*
G02*
X89833937Y-128470000I1560000J-1235516D01*
G01*
X87121539Y-128470000D02*
G75*
G02*
X89203461Y-128470000I1040961J-1080000D01*
G01*
X89203461Y-130630000D02*
G75*
G02*
X87121539Y-130630000I-1040961J1080000D01*
G01*
X89833937Y-130630000D02*
G75*
G02*
X86602500Y-130785516I-1671437J1080000D01*
G01*
%TO.C,R9*%
X97362742Y-125027500D02*
X97837258Y-125027500D01*
X97362742Y-126072500D02*
X97837258Y-126072500D01*
%TO.C,U2*%
X83555000Y-97505000D02*
X83555000Y-102805000D01*
X83555000Y-102805000D02*
X88755000Y-102805000D01*
X88755000Y-97505000D02*
X83555000Y-97505000D01*
X88755000Y-99155000D02*
X88755000Y-97505000D01*
X88755000Y-102805000D02*
X88755000Y-101155000D01*
X88755000Y-101155000D02*
G75*
G02*
X88755000Y-99155000I0J1000000D01*
G01*
%TO.C,R8*%
X81010436Y-91540000D02*
X85364564Y-91540000D01*
X81010436Y-94960000D02*
X85364564Y-94960000D01*
%TO.C,C1*%
X116297755Y-92745000D02*
X117897755Y-92745000D01*
X117097755Y-91945000D02*
X117097755Y-93545000D01*
X124987246Y-89220000D02*
X124987246Y-105380000D01*
X125027246Y-89220000D02*
X125027246Y-105380000D01*
X125067246Y-89220000D02*
X125067246Y-105380000D01*
X125107246Y-89221000D02*
X125107246Y-105379000D01*
X125147246Y-89222000D02*
X125147246Y-105378000D01*
X125187246Y-89222000D02*
X125187246Y-105378000D01*
X125227246Y-89224000D02*
X125227246Y-105376000D01*
X125267246Y-89225000D02*
X125267246Y-105375000D01*
X125307246Y-89226000D02*
X125307246Y-105374000D01*
X125347246Y-89228000D02*
X125347246Y-105372000D01*
X125387246Y-89230000D02*
X125387246Y-105370000D01*
X125427246Y-89232000D02*
X125427246Y-105368000D01*
X125467246Y-89234000D02*
X125467246Y-105366000D01*
X125507246Y-89237000D02*
X125507246Y-105363000D01*
X125547246Y-89239000D02*
X125547246Y-105361000D01*
X125587246Y-89242000D02*
X125587246Y-105358000D01*
X125627246Y-89245000D02*
X125627246Y-105355000D01*
X125667246Y-89249000D02*
X125667246Y-105351000D01*
X125707246Y-89252000D02*
X125707246Y-105348000D01*
X125747246Y-89256000D02*
X125747246Y-105344000D01*
X125787246Y-89260000D02*
X125787246Y-105340000D01*
X125827246Y-89264000D02*
X125827246Y-105336000D01*
X125867246Y-89268000D02*
X125867246Y-105332000D01*
X125907246Y-89272000D02*
X125907246Y-105328000D01*
X125947246Y-89277000D02*
X125947246Y-105323000D01*
X125987246Y-89282000D02*
X125987246Y-105318000D01*
X126027246Y-89287000D02*
X126027246Y-105313000D01*
X126067246Y-89292000D02*
X126067246Y-105308000D01*
X126107246Y-89298000D02*
X126107246Y-105302000D01*
X126147246Y-89303000D02*
X126147246Y-105297000D01*
X126187246Y-89309000D02*
X126187246Y-105291000D01*
X126227246Y-89315000D02*
X126227246Y-105285000D01*
X126267246Y-89322000D02*
X126267246Y-105278000D01*
X126307246Y-89328000D02*
X126307246Y-105272000D01*
X126347246Y-89335000D02*
X126347246Y-105265000D01*
X126387246Y-89342000D02*
X126387246Y-105258000D01*
X126427246Y-89349000D02*
X126427246Y-105251000D01*
X126467246Y-89356000D02*
X126467246Y-105244000D01*
X126507246Y-89364000D02*
X126507246Y-105236000D01*
X126547246Y-89371000D02*
X126547246Y-105229000D01*
X126587246Y-89379000D02*
X126587246Y-105221000D01*
X126627246Y-89387000D02*
X126627246Y-105213000D01*
X126667246Y-89396000D02*
X126667246Y-105204000D01*
X126707246Y-89404000D02*
X126707246Y-105196000D01*
X126747246Y-89413000D02*
X126747246Y-105187000D01*
X126787246Y-89422000D02*
X126787246Y-105178000D01*
X126827246Y-89431000D02*
X126827246Y-105169000D01*
X126867246Y-89441000D02*
X126867246Y-105159000D01*
X126907246Y-89450000D02*
X126907246Y-105150000D01*
X126947246Y-89460000D02*
X126947246Y-105140000D01*
X126987246Y-89470000D02*
X126987246Y-105130000D01*
X127027246Y-89480000D02*
X127027246Y-105120000D01*
X127067246Y-89491000D02*
X127067246Y-105109000D01*
X127107246Y-89502000D02*
X127107246Y-105098000D01*
X127147246Y-89513000D02*
X127147246Y-105087000D01*
X127187246Y-89524000D02*
X127187246Y-105076000D01*
X127227246Y-89535000D02*
X127227246Y-105065000D01*
X127267246Y-89547000D02*
X127267246Y-105053000D01*
X127307246Y-89558000D02*
X127307246Y-95860000D01*
X127307246Y-98740000D02*
X127307246Y-105042000D01*
X127347246Y-89571000D02*
X127347246Y-95860000D01*
X127347246Y-98740000D02*
X127347246Y-105029000D01*
X127387246Y-89583000D02*
X127387246Y-95860000D01*
X127387246Y-98740000D02*
X127387246Y-105017000D01*
X127427246Y-89595000D02*
X127427246Y-95860000D01*
X127427246Y-98740000D02*
X127427246Y-105005000D01*
X127467246Y-89608000D02*
X127467246Y-95860000D01*
X127467246Y-98740000D02*
X127467246Y-104992000D01*
X127507246Y-89621000D02*
X127507246Y-95860000D01*
X127507246Y-98740000D02*
X127507246Y-104979000D01*
X127547246Y-89634000D02*
X127547246Y-95860000D01*
X127547246Y-98740000D02*
X127547246Y-104966000D01*
X127587246Y-89648000D02*
X127587246Y-95860000D01*
X127587246Y-98740000D02*
X127587246Y-104952000D01*
X127627246Y-89661000D02*
X127627246Y-95860000D01*
X127627246Y-98740000D02*
X127627246Y-104939000D01*
X127667246Y-89675000D02*
X127667246Y-95860000D01*
X127667246Y-98740000D02*
X127667246Y-104925000D01*
X127707246Y-89689000D02*
X127707246Y-95860000D01*
X127707246Y-98740000D02*
X127707246Y-104911000D01*
X127747246Y-89703000D02*
X127747246Y-95860000D01*
X127747246Y-98740000D02*
X127747246Y-104897000D01*
X127787246Y-89718000D02*
X127787246Y-95860000D01*
X127787246Y-98740000D02*
X127787246Y-104882000D01*
X127827246Y-89733000D02*
X127827246Y-95860000D01*
X127827246Y-98740000D02*
X127827246Y-104867000D01*
X127867246Y-89748000D02*
X127867246Y-95860000D01*
X127867246Y-98740000D02*
X127867246Y-104852000D01*
X127907246Y-89763000D02*
X127907246Y-95860000D01*
X127907246Y-98740000D02*
X127907246Y-104837000D01*
X127947246Y-89779000D02*
X127947246Y-95860000D01*
X127947246Y-98740000D02*
X127947246Y-104821000D01*
X127987246Y-89795000D02*
X127987246Y-95860000D01*
X127987246Y-98740000D02*
X127987246Y-104805000D01*
X128027246Y-89811000D02*
X128027246Y-95860000D01*
X128027246Y-98740000D02*
X128027246Y-104789000D01*
X128067246Y-89827000D02*
X128067246Y-95860000D01*
X128067246Y-98740000D02*
X128067246Y-104773000D01*
X128107246Y-89843000D02*
X128107246Y-95860000D01*
X128107246Y-98740000D02*
X128107246Y-104757000D01*
X128147246Y-89860000D02*
X128147246Y-95860000D01*
X128147246Y-98740000D02*
X128147246Y-104740000D01*
X128187246Y-89877000D02*
X128187246Y-95860000D01*
X128187246Y-98740000D02*
X128187246Y-104723000D01*
X128227246Y-89894000D02*
X128227246Y-95860000D01*
X128227246Y-98740000D02*
X128227246Y-104706000D01*
X128267246Y-89912000D02*
X128267246Y-95860000D01*
X128267246Y-98740000D02*
X128267246Y-104688000D01*
X128307246Y-89930000D02*
X128307246Y-95860000D01*
X128307246Y-98740000D02*
X128307246Y-104670000D01*
X128347246Y-89948000D02*
X128347246Y-95860000D01*
X128347246Y-98740000D02*
X128347246Y-104652000D01*
X128387246Y-89966000D02*
X128387246Y-95860000D01*
X128387246Y-98740000D02*
X128387246Y-104634000D01*
X128427246Y-89985000D02*
X128427246Y-95860000D01*
X128427246Y-98740000D02*
X128427246Y-104615000D01*
X128467246Y-90004000D02*
X128467246Y-95860000D01*
X128467246Y-98740000D02*
X128467246Y-104596000D01*
X128507246Y-90023000D02*
X128507246Y-95860000D01*
X128507246Y-98740000D02*
X128507246Y-104577000D01*
X128547246Y-90042000D02*
X128547246Y-95860000D01*
X128547246Y-98740000D02*
X128547246Y-104558000D01*
X128587246Y-90062000D02*
X128587246Y-95860000D01*
X128587246Y-98740000D02*
X128587246Y-104538000D01*
X128627246Y-90082000D02*
X128627246Y-95860000D01*
X128627246Y-98740000D02*
X128627246Y-104518000D01*
X128667246Y-90102000D02*
X128667246Y-95860000D01*
X128667246Y-98740000D02*
X128667246Y-104498000D01*
X128707246Y-90122000D02*
X128707246Y-95860000D01*
X128707246Y-98740000D02*
X128707246Y-104478000D01*
X128747246Y-90143000D02*
X128747246Y-95860000D01*
X128747246Y-98740000D02*
X128747246Y-104457000D01*
X128787246Y-90164000D02*
X128787246Y-95860000D01*
X128787246Y-98740000D02*
X128787246Y-104436000D01*
X128827246Y-90185000D02*
X128827246Y-95860000D01*
X128827246Y-98740000D02*
X128827246Y-104415000D01*
X128867246Y-90207000D02*
X128867246Y-95860000D01*
X128867246Y-98740000D02*
X128867246Y-104393000D01*
X128907246Y-90229000D02*
X128907246Y-95860000D01*
X128907246Y-98740000D02*
X128907246Y-104371000D01*
X128947246Y-90251000D02*
X128947246Y-95860000D01*
X128947246Y-98740000D02*
X128947246Y-104349000D01*
X128987246Y-90274000D02*
X128987246Y-95860000D01*
X128987246Y-98740000D02*
X128987246Y-104326000D01*
X129027246Y-90296000D02*
X129027246Y-95860000D01*
X129027246Y-98740000D02*
X129027246Y-104304000D01*
X129067246Y-90319000D02*
X129067246Y-95860000D01*
X129067246Y-98740000D02*
X129067246Y-104281000D01*
X129107246Y-90343000D02*
X129107246Y-95860000D01*
X129107246Y-98740000D02*
X129107246Y-104257000D01*
X129147246Y-90367000D02*
X129147246Y-95860000D01*
X129147246Y-98740000D02*
X129147246Y-104233000D01*
X129187246Y-90391000D02*
X129187246Y-95860000D01*
X129187246Y-98740000D02*
X129187246Y-104209000D01*
X129227246Y-90415000D02*
X129227246Y-95860000D01*
X129227246Y-98740000D02*
X129227246Y-104185000D01*
X129267246Y-90440000D02*
X129267246Y-95860000D01*
X129267246Y-98740000D02*
X129267246Y-104160000D01*
X129307246Y-90465000D02*
X129307246Y-95860000D01*
X129307246Y-98740000D02*
X129307246Y-104135000D01*
X129347246Y-90490000D02*
X129347246Y-95860000D01*
X129347246Y-98740000D02*
X129347246Y-104110000D01*
X129387246Y-90515000D02*
X129387246Y-95860000D01*
X129387246Y-98740000D02*
X129387246Y-104085000D01*
X129427246Y-90541000D02*
X129427246Y-95860000D01*
X129427246Y-98740000D02*
X129427246Y-104059000D01*
X129467246Y-90568000D02*
X129467246Y-95860000D01*
X129467246Y-98740000D02*
X129467246Y-104032000D01*
X129507246Y-90594000D02*
X129507246Y-95860000D01*
X129507246Y-98740000D02*
X129507246Y-104006000D01*
X129547246Y-90621000D02*
X129547246Y-95860000D01*
X129547246Y-98740000D02*
X129547246Y-103979000D01*
X129587246Y-90649000D02*
X129587246Y-95860000D01*
X129587246Y-98740000D02*
X129587246Y-103951000D01*
X129627246Y-90676000D02*
X129627246Y-95860000D01*
X129627246Y-98740000D02*
X129627246Y-103924000D01*
X129667246Y-90704000D02*
X129667246Y-95860000D01*
X129667246Y-98740000D02*
X129667246Y-103896000D01*
X129707246Y-90733000D02*
X129707246Y-95860000D01*
X129707246Y-98740000D02*
X129707246Y-103867000D01*
X129747246Y-90761000D02*
X129747246Y-95860000D01*
X129747246Y-98740000D02*
X129747246Y-103839000D01*
X129787246Y-90791000D02*
X129787246Y-95860000D01*
X129787246Y-98740000D02*
X129787246Y-103809000D01*
X129827246Y-90820000D02*
X129827246Y-95860000D01*
X129827246Y-98740000D02*
X129827246Y-103780000D01*
X129867246Y-90850000D02*
X129867246Y-95860000D01*
X129867246Y-98740000D02*
X129867246Y-103750000D01*
X129907246Y-90880000D02*
X129907246Y-95860000D01*
X129907246Y-98740000D02*
X129907246Y-103720000D01*
X129947246Y-90911000D02*
X129947246Y-95860000D01*
X129947246Y-98740000D02*
X129947246Y-103689000D01*
X129987246Y-90942000D02*
X129987246Y-95860000D01*
X129987246Y-98740000D02*
X129987246Y-103658000D01*
X130027246Y-90973000D02*
X130027246Y-95860000D01*
X130027246Y-98740000D02*
X130027246Y-103627000D01*
X130067246Y-91005000D02*
X130067246Y-95860000D01*
X130067246Y-98740000D02*
X130067246Y-103595000D01*
X130107246Y-91038000D02*
X130107246Y-95860000D01*
X130107246Y-98740000D02*
X130107246Y-103562000D01*
X130147246Y-91070000D02*
X130147246Y-95860000D01*
X130147246Y-98740000D02*
X130147246Y-103530000D01*
X130187246Y-91103000D02*
X130187246Y-103497000D01*
X130227246Y-91137000D02*
X130227246Y-103463000D01*
X130267246Y-91171000D02*
X130267246Y-103429000D01*
X130307246Y-91206000D02*
X130307246Y-103394000D01*
X130347246Y-91240000D02*
X130347246Y-103360000D01*
X130387246Y-91276000D02*
X130387246Y-103324000D01*
X130427246Y-91312000D02*
X130427246Y-103288000D01*
X130467246Y-91348000D02*
X130467246Y-103252000D01*
X130507246Y-91385000D02*
X130507246Y-103215000D01*
X130547246Y-91422000D02*
X130547246Y-103178000D01*
X130587246Y-91460000D02*
X130587246Y-103140000D01*
X130627246Y-91498000D02*
X130627246Y-103102000D01*
X130667246Y-91537000D02*
X130667246Y-103063000D01*
X130707246Y-91577000D02*
X130707246Y-103023000D01*
X130747246Y-91617000D02*
X130747246Y-102983000D01*
X130787246Y-91657000D02*
X130787246Y-102943000D01*
X130827246Y-91698000D02*
X130827246Y-102902000D01*
X130867246Y-91740000D02*
X130867246Y-102860000D01*
X130907246Y-91782000D02*
X130907246Y-102818000D01*
X130947246Y-91825000D02*
X130947246Y-102775000D01*
X130987246Y-91869000D02*
X130987246Y-102731000D01*
X131027246Y-91913000D02*
X131027246Y-102687000D01*
X131067246Y-91958000D02*
X131067246Y-102642000D01*
X131107246Y-92003000D02*
X131107246Y-102597000D01*
X131147246Y-92050000D02*
X131147246Y-102550000D01*
X131187246Y-92096000D02*
X131187246Y-102504000D01*
X131227246Y-92144000D02*
X131227246Y-102456000D01*
X131267246Y-92193000D02*
X131267246Y-102407000D01*
X131307246Y-92242000D02*
X131307246Y-102358000D01*
X131347246Y-92292000D02*
X131347246Y-102308000D01*
X131387246Y-92343000D02*
X131387246Y-102257000D01*
X131427246Y-92394000D02*
X131427246Y-102206000D01*
X131467246Y-92447000D02*
X131467246Y-102153000D01*
X131507246Y-92500000D02*
X131507246Y-102100000D01*
X131547246Y-92555000D02*
X131547246Y-102045000D01*
X131587246Y-92610000D02*
X131587246Y-101990000D01*
X131627246Y-92666000D02*
X131627246Y-101934000D01*
X131667246Y-92724000D02*
X131667246Y-101876000D01*
X131707246Y-92782000D02*
X131707246Y-101818000D01*
X131747246Y-92841000D02*
X131747246Y-101759000D01*
X131787246Y-92902000D02*
X131787246Y-101698000D01*
X131827246Y-92964000D02*
X131827246Y-101636000D01*
X131867246Y-93027000D02*
X131867246Y-101573000D01*
X131907246Y-93092000D02*
X131907246Y-101508000D01*
X131947246Y-93158000D02*
X131947246Y-101442000D01*
X131987246Y-93225000D02*
X131987246Y-101375000D01*
X132027246Y-93294000D02*
X132027246Y-101306000D01*
X132067246Y-93364000D02*
X132067246Y-101236000D01*
X132107246Y-93436000D02*
X132107246Y-101164000D01*
X132147246Y-93510000D02*
X132147246Y-101090000D01*
X132187246Y-93586000D02*
X132187246Y-101014000D01*
X132227246Y-93663000D02*
X132227246Y-100937000D01*
X132267246Y-93743000D02*
X132267246Y-100857000D01*
X132307246Y-93825000D02*
X132307246Y-100775000D01*
X132347246Y-93910000D02*
X132347246Y-100690000D01*
X132387246Y-93997000D02*
X132387246Y-100603000D01*
X132427246Y-94087000D02*
X132427246Y-100513000D01*
X132467246Y-94180000D02*
X132467246Y-100420000D01*
X132507246Y-94277000D02*
X132507246Y-100323000D01*
X132547246Y-94377000D02*
X132547246Y-100223000D01*
X132587246Y-94481000D02*
X132587246Y-100119000D01*
X132627246Y-94590000D02*
X132627246Y-100010000D01*
X132667246Y-94703000D02*
X132667246Y-99897000D01*
X132707246Y-94823000D02*
X132707246Y-99777000D01*
X132747246Y-94949000D02*
X132747246Y-99651000D01*
X132787246Y-95083000D02*
X132787246Y-99517000D01*
X132827246Y-95226000D02*
X132827246Y-99374000D01*
X132867246Y-95380000D02*
X132867246Y-99220000D01*
X132907246Y-95549000D02*
X132907246Y-99051000D01*
X132947246Y-95736000D02*
X132947246Y-98864000D01*
X132987246Y-95949000D02*
X132987246Y-98651000D01*
X133027246Y-96203000D02*
X133027246Y-98397000D01*
X133067246Y-96535000D02*
X133067246Y-98065000D01*
X133107246Y-97300000D02*
G75*
G02*
X116867246Y-97300000I-8120000J0D01*
G01*
X116867246Y-97300000D02*
G75*
G02*
X133107246Y-97300000I8120000J0D01*
G01*
%TO.C,R3*%
X73590000Y-106022936D02*
X73590000Y-107477064D01*
X75410000Y-106022936D02*
X75410000Y-107477064D01*
%TO.C,R6*%
X81227064Y-121790000D02*
X79772936Y-121790000D01*
X81227064Y-123610000D02*
X79772936Y-123610000D01*
%TO.C,D3*%
X79030000Y-105780000D02*
X79030000Y-106260000D01*
X79030000Y-109620000D02*
X79030000Y-109140000D01*
X85490000Y-109620000D02*
X85490000Y-105780000D01*
X85610000Y-109620000D02*
X85610000Y-105780000D01*
X85730000Y-109620000D02*
X85730000Y-105780000D01*
X86870000Y-105780000D02*
X79030000Y-105780000D01*
X86870000Y-106260000D02*
X86870000Y-105780000D01*
X86870000Y-109140000D02*
X86870000Y-109620000D01*
X86870000Y-109620000D02*
X79030000Y-109620000D01*
D15*
%TO.C,VR1*%
X105188250Y-82970000D02*
X105188250Y-93330000D01*
X106793250Y-82970000D02*
X105188250Y-82970000D01*
X106793250Y-93330000D02*
X105188250Y-93330000D01*
X115943250Y-82970000D02*
X115943250Y-93330000D01*
D14*
X99693250Y-84650000D02*
G75*
G02*
X99493250Y-84650000I-100000J0D01*
G01*
X99493250Y-84650000D02*
G75*
G02*
X99693250Y-84650000I100000J0D01*
G01*
D13*
%TO.C,J2*%
X79150000Y-79350000D02*
X79150000Y-82400000D01*
X79150000Y-85450000D02*
X79150000Y-82400000D01*
X82100000Y-78600000D02*
X82100000Y-79350000D01*
X82100000Y-79350000D02*
X79150000Y-79350000D01*
X82100000Y-85450000D02*
X79150000Y-85450000D01*
X82100000Y-86200000D02*
X82100000Y-85450000D01*
X84650000Y-78300000D02*
X83400000Y-78300000D01*
X84650000Y-79550000D02*
X84650000Y-78300000D01*
X84350000Y-78600000D02*
X83600000Y-78600000D01*
X83600000Y-80400000D01*
X84350000Y-80400000D01*
X84350000Y-78600000D01*
X84350000Y-81900000D02*
X83600000Y-81900000D01*
X83600000Y-82900000D01*
X84350000Y-82900000D01*
X84350000Y-81900000D01*
X84350000Y-84400000D02*
X83600000Y-84400000D01*
X83600000Y-86200000D01*
X84350000Y-86200000D01*
X84350000Y-84400000D01*
X84360000Y-78590000D02*
X78390000Y-78590000D01*
X78390000Y-86210000D01*
X84360000Y-86210000D01*
X84360000Y-78590000D01*
%TO.C,J3*%
X75350000Y-96750000D02*
X75350000Y-99800000D01*
X75350000Y-102850000D02*
X75350000Y-99800000D01*
X78300000Y-96000000D02*
X78300000Y-96750000D01*
X78300000Y-96750000D02*
X75350000Y-96750000D01*
X78300000Y-102850000D02*
X75350000Y-102850000D01*
X78300000Y-103600000D02*
X78300000Y-102850000D01*
X80850000Y-95700000D02*
X79600000Y-95700000D01*
X80850000Y-96950000D02*
X80850000Y-95700000D01*
X80550000Y-96000000D02*
X79800000Y-96000000D01*
X79800000Y-97800000D01*
X80550000Y-97800000D01*
X80550000Y-96000000D01*
X80550000Y-99300000D02*
X79800000Y-99300000D01*
X79800000Y-100300000D01*
X80550000Y-100300000D01*
X80550000Y-99300000D01*
X80550000Y-101800000D02*
X79800000Y-101800000D01*
X79800000Y-103600000D01*
X80550000Y-103600000D01*
X80550000Y-101800000D01*
X80560000Y-95990000D02*
X74590000Y-95990000D01*
X74590000Y-103610000D01*
X80560000Y-103610000D01*
X80560000Y-95990000D01*
%TO.C,C4*%
X87390000Y-73904437D02*
X87390000Y-76790000D01*
X87390000Y-73904437D02*
X88454437Y-72840000D01*
X87390000Y-82295563D02*
X87390000Y-79410000D01*
X87390000Y-82295563D02*
X88454437Y-83360000D01*
X88454437Y-72840000D02*
X97910000Y-72840000D01*
X88454437Y-83360000D02*
X97910000Y-83360000D01*
X97910000Y-72840000D02*
X97910000Y-76790000D01*
X97910000Y-83360000D02*
X97910000Y-79410000D01*
%TO.C,U3*%
X83770000Y-114810000D02*
X83770000Y-120110000D01*
X83770000Y-120110000D02*
X88970000Y-120110000D01*
X88970000Y-114810000D02*
X83770000Y-114810000D01*
X88970000Y-116460000D02*
X88970000Y-114810000D01*
X88970000Y-120110000D02*
X88970000Y-118460000D01*
X88970000Y-118460000D02*
G75*
G02*
X88970000Y-116460000I0J1000000D01*
G01*
D14*
%TO.C,D4*%
X78580000Y-90150000D02*
X83875000Y-90150000D01*
X83620000Y-87550000D02*
X78580000Y-87550000D01*
%TO.C,Q2*%
X91250000Y-118900000D02*
X91250000Y-120150000D01*
X91250000Y-120150000D02*
X97750000Y-120150000D01*
X92200000Y-124100000D02*
X92200000Y-124100000D01*
X92200000Y-124200000D02*
X92200000Y-124200000D01*
X92200000Y-124200000D02*
X92200000Y-124200000D01*
X97750000Y-120150000D02*
X97750000Y-118900000D01*
X92200000Y-124100000D02*
G75*
G02*
X92200000Y-124200000I0J-50000D01*
G01*
X92200000Y-124100000D02*
G75*
G02*
X92200000Y-124200000I0J-50000D01*
G01*
X92200000Y-124200000D02*
G75*
G02*
X92200000Y-124100000I0J50000D01*
G01*
D13*
%TO.C,R2*%
X92522936Y-125140000D02*
X93977064Y-125140000D01*
X92522936Y-126960000D02*
X93977064Y-126960000D01*
%TO.C,C6*%
X87440000Y-85304437D02*
X87440000Y-88190000D01*
X87440000Y-85304437D02*
X88504437Y-84240000D01*
X87440000Y-93695563D02*
X87440000Y-90810000D01*
X87440000Y-93695563D02*
X88504437Y-94760000D01*
X88504437Y-84240000D02*
X97960000Y-84240000D01*
X88504437Y-94760000D02*
X97960000Y-94760000D01*
X97960000Y-84240000D02*
X97960000Y-88190000D01*
X97960000Y-94760000D02*
X97960000Y-90810000D01*
%TO.C,C3*%
X83461252Y-75890000D02*
X82038748Y-75890000D01*
X83461252Y-77710000D02*
X82038748Y-77710000D01*
%TO.C,RV1*%
X100440000Y-75190000D02*
X103728000Y-75190000D01*
X100440000Y-82010000D02*
X100440000Y-75190000D01*
X103728000Y-82010000D02*
X100440000Y-82010000D01*
X104492000Y-75190000D02*
X107660000Y-75190000D01*
X107660000Y-75190000D02*
X107660000Y-82010000D01*
X107660000Y-82010000D02*
X104492000Y-82010000D01*
%TO.C,J4*%
X76200000Y-112750000D02*
X76200000Y-115800000D01*
X76200000Y-118850000D02*
X76200000Y-115800000D01*
X79150000Y-112000000D02*
X79150000Y-112750000D01*
X79150000Y-112750000D02*
X76200000Y-112750000D01*
X79150000Y-118850000D02*
X76200000Y-118850000D01*
X79150000Y-119600000D02*
X79150000Y-118850000D01*
X81700000Y-111700000D02*
X80450000Y-111700000D01*
X81700000Y-112950000D02*
X81700000Y-111700000D01*
X81400000Y-112000000D02*
X80650000Y-112000000D01*
X80650000Y-113800000D01*
X81400000Y-113800000D01*
X81400000Y-112000000D01*
X81400000Y-115300000D02*
X80650000Y-115300000D01*
X80650000Y-116300000D01*
X81400000Y-116300000D01*
X81400000Y-115300000D01*
X81400000Y-117800000D02*
X80650000Y-117800000D01*
X80650000Y-119600000D01*
X81400000Y-119600000D01*
X81400000Y-117800000D01*
X81410000Y-111990000D02*
X75440000Y-111990000D01*
X75440000Y-119610000D01*
X81410000Y-119610000D01*
X81410000Y-111990000D01*
%TO.C,SW1*%
X105650000Y-119900000D02*
X105650000Y-121400000D01*
X106900000Y-123900000D02*
X111400000Y-123900000D01*
X111400000Y-117400000D02*
X106900000Y-117400000D01*
X112650000Y-121400000D02*
X112650000Y-119900000D01*
%TO.C,C2*%
X116260509Y-109895000D02*
X117860509Y-109895000D01*
X117060509Y-109095000D02*
X117060509Y-110695000D01*
X124950000Y-106370000D02*
X124950000Y-122530000D01*
X124990000Y-106370000D02*
X124990000Y-122530000D01*
X125030000Y-106370000D02*
X125030000Y-122530000D01*
X125070000Y-106371000D02*
X125070000Y-122529000D01*
X125110000Y-106372000D02*
X125110000Y-122528000D01*
X125150000Y-106372000D02*
X125150000Y-122528000D01*
X125190000Y-106374000D02*
X125190000Y-122526000D01*
X125230000Y-106375000D02*
X125230000Y-122525000D01*
X125270000Y-106376000D02*
X125270000Y-122524000D01*
X125310000Y-106378000D02*
X125310000Y-122522000D01*
X125350000Y-106380000D02*
X125350000Y-122520000D01*
X125390000Y-106382000D02*
X125390000Y-122518000D01*
X125430000Y-106384000D02*
X125430000Y-122516000D01*
X125470000Y-106387000D02*
X125470000Y-122513000D01*
X125510000Y-106389000D02*
X125510000Y-122511000D01*
X125550000Y-106392000D02*
X125550000Y-122508000D01*
X125590000Y-106395000D02*
X125590000Y-122505000D01*
X125630000Y-106399000D02*
X125630000Y-122501000D01*
X125670000Y-106402000D02*
X125670000Y-122498000D01*
X125710000Y-106406000D02*
X125710000Y-122494000D01*
X125750000Y-106410000D02*
X125750000Y-122490000D01*
X125790000Y-106414000D02*
X125790000Y-122486000D01*
X125830000Y-106418000D02*
X125830000Y-122482000D01*
X125870000Y-106422000D02*
X125870000Y-122478000D01*
X125910000Y-106427000D02*
X125910000Y-122473000D01*
X125950000Y-106432000D02*
X125950000Y-122468000D01*
X125990000Y-106437000D02*
X125990000Y-122463000D01*
X126030000Y-106442000D02*
X126030000Y-122458000D01*
X126070000Y-106448000D02*
X126070000Y-122452000D01*
X126110000Y-106453000D02*
X126110000Y-122447000D01*
X126150000Y-106459000D02*
X126150000Y-122441000D01*
X126190000Y-106465000D02*
X126190000Y-122435000D01*
X126230000Y-106472000D02*
X126230000Y-122428000D01*
X126270000Y-106478000D02*
X126270000Y-122422000D01*
X126310000Y-106485000D02*
X126310000Y-122415000D01*
X126350000Y-106492000D02*
X126350000Y-122408000D01*
X126390000Y-106499000D02*
X126390000Y-122401000D01*
X126430000Y-106506000D02*
X126430000Y-122394000D01*
X126470000Y-106514000D02*
X126470000Y-122386000D01*
X126510000Y-106521000D02*
X126510000Y-122379000D01*
X126550000Y-106529000D02*
X126550000Y-122371000D01*
X126590000Y-106537000D02*
X126590000Y-122363000D01*
X126630000Y-106546000D02*
X126630000Y-122354000D01*
X126670000Y-106554000D02*
X126670000Y-122346000D01*
X126710000Y-106563000D02*
X126710000Y-122337000D01*
X126750000Y-106572000D02*
X126750000Y-122328000D01*
X126790000Y-106581000D02*
X126790000Y-122319000D01*
X126830000Y-106591000D02*
X126830000Y-122309000D01*
X126870000Y-106600000D02*
X126870000Y-122300000D01*
X126910000Y-106610000D02*
X126910000Y-122290000D01*
X126950000Y-106620000D02*
X126950000Y-122280000D01*
X126990000Y-106630000D02*
X126990000Y-122270000D01*
X127030000Y-106641000D02*
X127030000Y-122259000D01*
X127070000Y-106652000D02*
X127070000Y-122248000D01*
X127110000Y-106663000D02*
X127110000Y-122237000D01*
X127150000Y-106674000D02*
X127150000Y-122226000D01*
X127190000Y-106685000D02*
X127190000Y-122215000D01*
X127230000Y-106697000D02*
X127230000Y-122203000D01*
X127270000Y-106708000D02*
X127270000Y-113010000D01*
X127270000Y-115890000D02*
X127270000Y-122192000D01*
X127310000Y-106721000D02*
X127310000Y-113010000D01*
X127310000Y-115890000D02*
X127310000Y-122179000D01*
X127350000Y-106733000D02*
X127350000Y-113010000D01*
X127350000Y-115890000D02*
X127350000Y-122167000D01*
X127390000Y-106745000D02*
X127390000Y-113010000D01*
X127390000Y-115890000D02*
X127390000Y-122155000D01*
X127430000Y-106758000D02*
X127430000Y-113010000D01*
X127430000Y-115890000D02*
X127430000Y-122142000D01*
X127470000Y-106771000D02*
X127470000Y-113010000D01*
X127470000Y-115890000D02*
X127470000Y-122129000D01*
X127510000Y-106784000D02*
X127510000Y-113010000D01*
X127510000Y-115890000D02*
X127510000Y-122116000D01*
X127550000Y-106798000D02*
X127550000Y-113010000D01*
X127550000Y-115890000D02*
X127550000Y-122102000D01*
X127590000Y-106811000D02*
X127590000Y-113010000D01*
X127590000Y-115890000D02*
X127590000Y-122089000D01*
X127630000Y-106825000D02*
X127630000Y-113010000D01*
X127630000Y-115890000D02*
X127630000Y-122075000D01*
X127670000Y-106839000D02*
X127670000Y-113010000D01*
X127670000Y-115890000D02*
X127670000Y-122061000D01*
X127710000Y-106853000D02*
X127710000Y-113010000D01*
X127710000Y-115890000D02*
X127710000Y-122047000D01*
X127750000Y-106868000D02*
X127750000Y-113010000D01*
X127750000Y-115890000D02*
X127750000Y-122032000D01*
X127790000Y-106883000D02*
X127790000Y-113010000D01*
X127790000Y-115890000D02*
X127790000Y-122017000D01*
X127830000Y-106898000D02*
X127830000Y-113010000D01*
X127830000Y-115890000D02*
X127830000Y-122002000D01*
X127870000Y-106913000D02*
X127870000Y-113010000D01*
X127870000Y-115890000D02*
X127870000Y-121987000D01*
X127910000Y-106929000D02*
X127910000Y-113010000D01*
X127910000Y-115890000D02*
X127910000Y-121971000D01*
X127950000Y-106945000D02*
X127950000Y-113010000D01*
X127950000Y-115890000D02*
X127950000Y-121955000D01*
X127990000Y-106961000D02*
X127990000Y-113010000D01*
X127990000Y-115890000D02*
X127990000Y-121939000D01*
X128030000Y-106977000D02*
X128030000Y-113010000D01*
X128030000Y-115890000D02*
X128030000Y-121923000D01*
X128070000Y-106993000D02*
X128070000Y-113010000D01*
X128070000Y-115890000D02*
X128070000Y-121907000D01*
X128110000Y-107010000D02*
X128110000Y-113010000D01*
X128110000Y-115890000D02*
X128110000Y-121890000D01*
X128150000Y-107027000D02*
X128150000Y-113010000D01*
X128150000Y-115890000D02*
X128150000Y-121873000D01*
X128190000Y-107044000D02*
X128190000Y-113010000D01*
X128190000Y-115890000D02*
X128190000Y-121856000D01*
X128230000Y-107062000D02*
X128230000Y-113010000D01*
X128230000Y-115890000D02*
X128230000Y-121838000D01*
X128270000Y-107080000D02*
X128270000Y-113010000D01*
X128270000Y-115890000D02*
X128270000Y-121820000D01*
X128310000Y-107098000D02*
X128310000Y-113010000D01*
X128310000Y-115890000D02*
X128310000Y-121802000D01*
X128350000Y-107116000D02*
X128350000Y-113010000D01*
X128350000Y-115890000D02*
X128350000Y-121784000D01*
X128390000Y-107135000D02*
X128390000Y-113010000D01*
X128390000Y-115890000D02*
X128390000Y-121765000D01*
X128430000Y-107154000D02*
X128430000Y-113010000D01*
X128430000Y-115890000D02*
X128430000Y-121746000D01*
X128470000Y-107173000D02*
X128470000Y-113010000D01*
X128470000Y-115890000D02*
X128470000Y-121727000D01*
X128510000Y-107192000D02*
X128510000Y-113010000D01*
X128510000Y-115890000D02*
X128510000Y-121708000D01*
X128550000Y-107212000D02*
X128550000Y-113010000D01*
X128550000Y-115890000D02*
X128550000Y-121688000D01*
X128590000Y-107232000D02*
X128590000Y-113010000D01*
X128590000Y-115890000D02*
X128590000Y-121668000D01*
X128630000Y-107252000D02*
X128630000Y-113010000D01*
X128630000Y-115890000D02*
X128630000Y-121648000D01*
X128670000Y-107272000D02*
X128670000Y-113010000D01*
X128670000Y-115890000D02*
X128670000Y-121628000D01*
X128710000Y-107293000D02*
X128710000Y-113010000D01*
X128710000Y-115890000D02*
X128710000Y-121607000D01*
X128750000Y-107314000D02*
X128750000Y-113010000D01*
X128750000Y-115890000D02*
X128750000Y-121586000D01*
X128790000Y-107335000D02*
X128790000Y-113010000D01*
X128790000Y-115890000D02*
X128790000Y-121565000D01*
X128830000Y-107357000D02*
X128830000Y-113010000D01*
X128830000Y-115890000D02*
X128830000Y-121543000D01*
X128870000Y-107379000D02*
X128870000Y-113010000D01*
X128870000Y-115890000D02*
X128870000Y-121521000D01*
X128910000Y-107401000D02*
X128910000Y-113010000D01*
X128910000Y-115890000D02*
X128910000Y-121499000D01*
X128950000Y-107424000D02*
X128950000Y-113010000D01*
X128950000Y-115890000D02*
X128950000Y-121476000D01*
X128990000Y-107446000D02*
X128990000Y-113010000D01*
X128990000Y-115890000D02*
X128990000Y-121454000D01*
X129030000Y-107469000D02*
X129030000Y-113010000D01*
X129030000Y-115890000D02*
X129030000Y-121431000D01*
X129070000Y-107493000D02*
X129070000Y-113010000D01*
X129070000Y-115890000D02*
X129070000Y-121407000D01*
X129110000Y-107517000D02*
X129110000Y-113010000D01*
X129110000Y-115890000D02*
X129110000Y-121383000D01*
X129150000Y-107541000D02*
X129150000Y-113010000D01*
X129150000Y-115890000D02*
X129150000Y-121359000D01*
X129190000Y-107565000D02*
X129190000Y-113010000D01*
X129190000Y-115890000D02*
X129190000Y-121335000D01*
X129230000Y-107590000D02*
X129230000Y-113010000D01*
X129230000Y-115890000D02*
X129230000Y-121310000D01*
X129270000Y-107615000D02*
X129270000Y-113010000D01*
X129270000Y-115890000D02*
X129270000Y-121285000D01*
X129310000Y-107640000D02*
X129310000Y-113010000D01*
X129310000Y-115890000D02*
X129310000Y-121260000D01*
X129350000Y-107665000D02*
X129350000Y-113010000D01*
X129350000Y-115890000D02*
X129350000Y-121235000D01*
X129390000Y-107691000D02*
X129390000Y-113010000D01*
X129390000Y-115890000D02*
X129390000Y-121209000D01*
X129430000Y-107718000D02*
X129430000Y-113010000D01*
X129430000Y-115890000D02*
X129430000Y-121182000D01*
X129470000Y-107744000D02*
X129470000Y-113010000D01*
X129470000Y-115890000D02*
X129470000Y-121156000D01*
X129510000Y-107771000D02*
X129510000Y-113010000D01*
X129510000Y-115890000D02*
X129510000Y-121129000D01*
X129550000Y-107799000D02*
X129550000Y-113010000D01*
X129550000Y-115890000D02*
X129550000Y-121101000D01*
X129590000Y-107826000D02*
X129590000Y-113010000D01*
X129590000Y-115890000D02*
X129590000Y-121074000D01*
X129630000Y-107854000D02*
X129630000Y-113010000D01*
X129630000Y-115890000D02*
X129630000Y-121046000D01*
X129670000Y-107883000D02*
X129670000Y-113010000D01*
X129670000Y-115890000D02*
X129670000Y-121017000D01*
X129710000Y-107911000D02*
X129710000Y-113010000D01*
X129710000Y-115890000D02*
X129710000Y-120989000D01*
X129750000Y-107941000D02*
X129750000Y-113010000D01*
X129750000Y-115890000D02*
X129750000Y-120959000D01*
X129790000Y-107970000D02*
X129790000Y-113010000D01*
X129790000Y-115890000D02*
X129790000Y-120930000D01*
X129830000Y-108000000D02*
X129830000Y-113010000D01*
X129830000Y-115890000D02*
X129830000Y-120900000D01*
X129870000Y-108030000D02*
X129870000Y-113010000D01*
X129870000Y-115890000D02*
X129870000Y-120870000D01*
X129910000Y-108061000D02*
X129910000Y-113010000D01*
X129910000Y-115890000D02*
X129910000Y-120839000D01*
X129950000Y-108092000D02*
X129950000Y-113010000D01*
X129950000Y-115890000D02*
X129950000Y-120808000D01*
X129990000Y-108123000D02*
X129990000Y-113010000D01*
X129990000Y-115890000D02*
X129990000Y-120777000D01*
X130030000Y-108155000D02*
X130030000Y-113010000D01*
X130030000Y-115890000D02*
X130030000Y-120745000D01*
X130070000Y-108188000D02*
X130070000Y-113010000D01*
X130070000Y-115890000D02*
X130070000Y-120712000D01*
X130110000Y-108220000D02*
X130110000Y-113010000D01*
X130110000Y-115890000D02*
X130110000Y-120680000D01*
X130150000Y-108253000D02*
X130150000Y-120647000D01*
X130190000Y-108287000D02*
X130190000Y-120613000D01*
X130230000Y-108321000D02*
X130230000Y-120579000D01*
X130270000Y-108356000D02*
X130270000Y-120544000D01*
X130310000Y-108390000D02*
X130310000Y-120510000D01*
X130350000Y-108426000D02*
X130350000Y-120474000D01*
X130390000Y-108462000D02*
X130390000Y-120438000D01*
X130430000Y-108498000D02*
X130430000Y-120402000D01*
X130470000Y-108535000D02*
X130470000Y-120365000D01*
X130510000Y-108572000D02*
X130510000Y-120328000D01*
X130550000Y-108610000D02*
X130550000Y-120290000D01*
X130590000Y-108648000D02*
X130590000Y-120252000D01*
X130630000Y-108687000D02*
X130630000Y-120213000D01*
X130670000Y-108727000D02*
X130670000Y-120173000D01*
X130710000Y-108767000D02*
X130710000Y-120133000D01*
X130750000Y-108807000D02*
X130750000Y-120093000D01*
X130790000Y-108848000D02*
X130790000Y-120052000D01*
X130830000Y-108890000D02*
X130830000Y-120010000D01*
X130870000Y-108932000D02*
X130870000Y-119968000D01*
X130910000Y-108975000D02*
X130910000Y-119925000D01*
X130950000Y-109019000D02*
X130950000Y-119881000D01*
X130990000Y-109063000D02*
X130990000Y-119837000D01*
X131030000Y-109108000D02*
X131030000Y-119792000D01*
X131070000Y-109153000D02*
X131070000Y-119747000D01*
X131110000Y-109200000D02*
X131110000Y-119700000D01*
X131150000Y-109246000D02*
X131150000Y-119654000D01*
X131190000Y-109294000D02*
X131190000Y-119606000D01*
X131230000Y-109343000D02*
X131230000Y-119557000D01*
X131270000Y-109392000D02*
X131270000Y-119508000D01*
X131310000Y-109442000D02*
X131310000Y-119458000D01*
X131350000Y-109493000D02*
X131350000Y-119407000D01*
X131390000Y-109544000D02*
X131390000Y-119356000D01*
X131430000Y-109597000D02*
X131430000Y-119303000D01*
X131470000Y-109650000D02*
X131470000Y-119250000D01*
X131510000Y-109705000D02*
X131510000Y-119195000D01*
X131550000Y-109760000D02*
X131550000Y-119140000D01*
X131590000Y-109816000D02*
X131590000Y-119084000D01*
X131630000Y-109874000D02*
X131630000Y-119026000D01*
X131670000Y-109932000D02*
X131670000Y-118968000D01*
X131710000Y-109991000D02*
X131710000Y-118909000D01*
X131750000Y-110052000D02*
X131750000Y-118848000D01*
X131790000Y-110114000D02*
X131790000Y-118786000D01*
X131830000Y-110177000D02*
X131830000Y-118723000D01*
X131870000Y-110242000D02*
X131870000Y-118658000D01*
X131910000Y-110308000D02*
X131910000Y-118592000D01*
X131950000Y-110375000D02*
X131950000Y-118525000D01*
X131990000Y-110444000D02*
X131990000Y-118456000D01*
X132030000Y-110514000D02*
X132030000Y-118386000D01*
X132070000Y-110586000D02*
X132070000Y-118314000D01*
X132110000Y-110660000D02*
X132110000Y-118240000D01*
X132150000Y-110736000D02*
X132150000Y-118164000D01*
X132190000Y-110813000D02*
X132190000Y-118087000D01*
X132230000Y-110893000D02*
X132230000Y-118007000D01*
X132270000Y-110975000D02*
X132270000Y-117925000D01*
X132310000Y-111060000D02*
X132310000Y-117840000D01*
X132350000Y-111147000D02*
X132350000Y-117753000D01*
X132390000Y-111237000D02*
X132390000Y-117663000D01*
X132430000Y-111330000D02*
X132430000Y-117570000D01*
X132470000Y-111427000D02*
X132470000Y-117473000D01*
X132510000Y-111527000D02*
X132510000Y-117373000D01*
X132550000Y-111631000D02*
X132550000Y-117269000D01*
X132590000Y-111740000D02*
X132590000Y-117160000D01*
X132630000Y-111853000D02*
X132630000Y-117047000D01*
X132670000Y-111973000D02*
X132670000Y-116927000D01*
X132710000Y-112099000D02*
X132710000Y-116801000D01*
X132750000Y-112233000D02*
X132750000Y-116667000D01*
X132790000Y-112376000D02*
X132790000Y-116524000D01*
X132830000Y-112530000D02*
X132830000Y-116370000D01*
X132870000Y-112699000D02*
X132870000Y-116201000D01*
X132910000Y-112886000D02*
X132910000Y-116014000D01*
X132950000Y-113099000D02*
X132950000Y-115801000D01*
X132990000Y-113353000D02*
X132990000Y-115547000D01*
X133030000Y-113685000D02*
X133030000Y-115215000D01*
X133070000Y-114450000D02*
G75*
G02*
X116830000Y-114450000I-8120000J0D01*
G01*
X116830000Y-114450000D02*
G75*
G02*
X133070000Y-114450000I8120000J0D01*
G01*
%TO.C,R5*%
X87562742Y-110777500D02*
X88037258Y-110777500D01*
X87562742Y-111822500D02*
X88037258Y-111822500D01*
%TO.C,R10*%
X101364564Y-92940000D02*
X99910436Y-92940000D01*
X101364564Y-94760000D02*
X99910436Y-94760000D01*
%TD*%
%LPC*%
D16*
%TO.C,CR1*%
X107072800Y-112900000D03*
X113327200Y-112900000D03*
%TD*%
D17*
%TO.C,J1*%
X81400000Y-129150000D03*
D18*
X81400000Y-131650000D03*
%TD*%
D19*
%TO.C,REF\u002A\u002A*%
X123200000Y-84300000D03*
%TD*%
D20*
%TO.C,Q1*%
X92000000Y-106250000D03*
D21*
X94300000Y-99750000D03*
D20*
X96600000Y-106250000D03*
%TD*%
D22*
%TO.C,C5*%
X115500000Y-117800000D03*
X115500000Y-120750000D03*
%TD*%
D23*
%TO.C,R4*%
X82100000Y-97750000D03*
X82100000Y-96100000D03*
%TD*%
D24*
%TO.C,L1*%
X102850000Y-102200000D03*
X114150000Y-102200000D03*
%TD*%
D25*
%TO.C,R1*%
X95487500Y-110150000D03*
X98412500Y-110150000D03*
%TD*%
D26*
%TO.C,D2*%
X101550000Y-112390000D03*
D27*
X101550000Y-122550000D03*
%TD*%
D25*
%TO.C,R7*%
X86637500Y-126000000D03*
X89562500Y-126000000D03*
%TD*%
D28*
%TO.C,D1*%
X86892500Y-129550000D03*
D29*
X89432500Y-129550000D03*
%TD*%
D30*
%TO.C,R9*%
X96775000Y-125550000D03*
X98425000Y-125550000D03*
%TD*%
D31*
%TO.C,U2*%
X87425000Y-96345000D03*
D32*
X84885000Y-96345000D03*
X84885000Y-103965000D03*
X87425000Y-103965000D03*
%TD*%
D33*
%TO.C,R8*%
X80225000Y-93250000D03*
X86150000Y-93250000D03*
%TD*%
D19*
%TO.C,REF\u002A\u002A*%
X81650000Y-71250000D03*
%TD*%
D34*
%TO.C,C1*%
X121237246Y-97300000D03*
D27*
X128737246Y-97300000D03*
%TD*%
D35*
%TO.C,R3*%
X74500000Y-105287500D03*
X74500000Y-108212500D03*
%TD*%
D36*
%TO.C,R6*%
X81962500Y-122700000D03*
X79037500Y-122700000D03*
%TD*%
D37*
%TO.C,D3*%
X88030000Y-107700000D03*
D27*
X77870000Y-107700000D03*
%TD*%
D19*
%TO.C,REF\u002A\u002A*%
X81650000Y-141250000D03*
%TD*%
D38*
%TO.C,VR1*%
X101763250Y-84750000D03*
X101763250Y-86450000D03*
X101763250Y-88150000D03*
X101763250Y-89850000D03*
X101763250Y-91550000D03*
D39*
X111393250Y-88150000D03*
%TD*%
D17*
%TO.C,J2*%
X81900000Y-81150000D03*
D18*
X81900000Y-83650000D03*
%TD*%
D17*
%TO.C,J3*%
X78100000Y-98550000D03*
D18*
X78100000Y-101050000D03*
%TD*%
D40*
%TO.C,C4*%
X88250000Y-78100000D03*
X97050000Y-78100000D03*
%TD*%
D31*
%TO.C,U3*%
X87640000Y-113650000D03*
D32*
X85100000Y-113650000D03*
X85100000Y-121270000D03*
X87640000Y-121270000D03*
%TD*%
D41*
%TO.C,D4*%
X83150000Y-88850000D03*
X79050000Y-88850000D03*
%TD*%
D20*
%TO.C,Q2*%
X92200000Y-122000000D03*
D21*
X94500000Y-115500000D03*
D20*
X96800000Y-122000000D03*
%TD*%
D25*
%TO.C,R2*%
X91787500Y-126050000D03*
X94712500Y-126050000D03*
%TD*%
D40*
%TO.C,C6*%
X88300000Y-89500000D03*
X97100000Y-89500000D03*
%TD*%
D42*
%TO.C,C3*%
X84225000Y-76800000D03*
X81275000Y-76800000D03*
%TD*%
D43*
%TO.C,RV1*%
X104110000Y-81140000D03*
X106650000Y-78600000D03*
X104110000Y-76060000D03*
%TD*%
D17*
%TO.C,J4*%
X78950000Y-114550000D03*
D18*
X78950000Y-117050000D03*
%TD*%
D19*
%TO.C,REF\u002A\u002A*%
X123200000Y-128150000D03*
%TD*%
D44*
%TO.C,SW1*%
X105900000Y-118400000D03*
X112400000Y-118400000D03*
X105900000Y-122900000D03*
X112400000Y-122900000D03*
%TD*%
D34*
%TO.C,C2*%
X121200000Y-114450000D03*
D27*
X128700000Y-114450000D03*
%TD*%
D30*
%TO.C,R5*%
X86975000Y-111300000D03*
X88625000Y-111300000D03*
%TD*%
D36*
%TO.C,R10*%
X102100000Y-93850000D03*
X99175000Y-93850000D03*
%TD*%
%LPD*%
M02*
