%TF.GenerationSoftware,KiCad,Pcbnew,9.0.7*%
%TF.CreationDate,2026-02-20T22:22:42+09:00*%
%TF.ProjectId,power supply,706f7765-7220-4737-9570-706c792e6b69,rev?*%
%TF.SameCoordinates,Original*%
%TF.FileFunction,Soldermask,Top*%
%TF.FilePolarity,Negative*%
%FSLAX46Y46*%
G04 Gerber Fmt 4.6, Leading zero omitted, Abs format (unit mm)*
G04 Created by KiCad (PCBNEW 9.0.7) date 2026-02-20 22:22:42*
%MOMM*%
%LPD*%
G01*
G04 APERTURE LIST*
G04 Aperture macros list*
%AMRoundRect*
0 Rectangle with rounded corners*
0 $1 Rounding radius*
0 $2 $3 $4 $5 $6 $7 $8 $9 X,Y pos of 4 corners*
0 Add a 4 corners polygon primitive as box body*
4,1,4,$2,$3,$4,$5,$6,$7,$8,$9,$2,$3,0*
0 Add four circle primitives for the rounded corners*
1,1,$1+$1,$2,$3*
1,1,$1+$1,$4,$5*
1,1,$1+$1,$6,$7*
1,1,$1+$1,$8,$9*
0 Add four rect primitives between the rounded corners*
20,1,$1+$1,$2,$3,$4,$5,0*
20,1,$1+$1,$4,$5,$6,$7,0*
20,1,$1+$1,$6,$7,$8,$9,0*
20,1,$1+$1,$8,$9,$2,$3,0*%
G04 Aperture macros list end*
%ADD10RoundRect,0.250000X-0.325000X-0.650000X0.325000X-0.650000X0.325000X0.650000X-0.325000X0.650000X0*%
%ADD11RoundRect,1.500000X1.500000X-1.500000X1.500000X1.500000X-1.500000X1.500000X-1.500000X-1.500000X0*%
%ADD12C,6.000000*%
%ADD13RoundRect,0.102000X-2.149750X-0.585750X2.149750X-0.585750X2.149750X0.585750X-2.149750X0.585750X0*%
%ADD14RoundRect,0.102000X-2.087250X-2.390250X2.087250X-2.390250X2.087250X2.390250X-2.087250X2.390250X0*%
%ADD15RoundRect,0.102000X-2.101250X-2.365250X2.101250X-2.365250X2.101250X2.365250X-2.101250X2.365250X0*%
%ADD16RoundRect,0.102000X-2.640250X-2.037250X2.640250X-2.037250X2.640250X2.037250X-2.640250X2.037250X0*%
%ADD17RoundRect,0.102000X-2.474750X-0.560750X2.474750X-0.560750X2.474750X0.560750X-2.474750X0.560750X0*%
%ADD18RoundRect,0.102000X-0.574750X-2.024750X0.574750X-2.024750X0.574750X2.024750X-0.574750X2.024750X0*%
%ADD19RoundRect,0.102000X-0.571500X-2.024750X0.571500X-2.024750X0.571500X2.024750X-0.571500X2.024750X0*%
%ADD20RoundRect,0.102000X-0.553750X-2.024750X0.553750X-2.024750X0.553750X2.024750X-0.553750X2.024750X0*%
%ADD21RoundRect,0.102000X-2.149750X-0.571500X2.149750X-0.571500X2.149750X0.571500X-2.149750X0.571500X0*%
%ADD22RoundRect,0.102000X-2.149750X-0.567750X2.149750X-0.567750X2.149750X0.567750X-2.149750X0.567750X0*%
%ADD23RoundRect,0.102000X-2.474750X-0.571500X2.474750X-0.571500X2.474750X0.571500X-2.474750X0.571500X0*%
%ADD24RoundRect,0.250000X0.750000X-0.600000X0.750000X0.600000X-0.750000X0.600000X-0.750000X-0.600000X0*%
%ADD25O,2.000000X1.700000*%
%ADD26RoundRect,0.250000X0.625000X-0.312500X0.625000X0.312500X-0.625000X0.312500X-0.625000X-0.312500X0*%
%ADD27RoundRect,0.250000X0.450000X-0.262500X0.450000X0.262500X-0.450000X0.262500X-0.450000X-0.262500X0*%
%ADD28RoundRect,0.250000X-0.600000X-0.750000X0.600000X-0.750000X0.600000X0.750000X-0.600000X0.750000X0*%
%ADD29O,1.700000X2.000000*%
%ADD30RoundRect,0.200000X-0.200000X-0.275000X0.200000X-0.275000X0.200000X0.275000X-0.200000X0.275000X0*%
%ADD31RoundRect,0.250000X-0.625000X0.312500X-0.625000X-0.312500X0.625000X-0.312500X0.625000X0.312500X0*%
%ADD32R,1.600000X3.000000*%
%ADD33R,6.000000X6.000000*%
%ADD34RoundRect,0.225000X-0.225000X-0.250000X0.225000X-0.250000X0.225000X0.250000X-0.225000X0.250000X0*%
%ADD35RoundRect,0.750000X-0.750000X0.750000X-0.750000X-0.750000X0.750000X-0.750000X0.750000X0.750000X0*%
%ADD36C,3.000000*%
%ADD37RoundRect,0.250000X-0.550000X-0.550000X0.550000X-0.550000X0.550000X0.550000X-0.550000X0.550000X0*%
%ADD38C,1.600000*%
%ADD39RoundRect,0.102000X-1.140000X-1.060000X1.140000X-1.060000X1.140000X1.060000X-1.140000X1.060000X0*%
%ADD40RoundRect,0.250000X-0.450000X0.262500X-0.450000X-0.262500X0.450000X-0.262500X0.450000X0.262500X0*%
%ADD41RoundRect,0.250000X-0.750000X0.600000X-0.750000X-0.600000X0.750000X-0.600000X0.750000X0.600000X0*%
%ADD42RoundRect,0.760000X1.140000X-1.140000X1.140000X1.140000X-1.140000X1.140000X-1.140000X-1.140000X0*%
%ADD43C,3.800000*%
%ADD44RoundRect,0.102000X-2.499750X-0.485750X2.499750X-0.485750X2.499750X0.485750X-2.499750X0.485750X0*%
%ADD45RoundRect,0.102000X-2.087250X-2.265250X2.087250X-2.265250X2.087250X2.265250X-2.087250X2.265250X0*%
%ADD46RoundRect,0.102000X-2.095500X-2.265250X2.095500X-2.265250X2.095500X2.265250X-2.095500X2.265250X0*%
%ADD47RoundRect,0.102000X-2.590250X-2.037250X2.590250X-2.037250X2.590250X2.037250X-2.590250X2.037250X0*%
%ADD48RoundRect,0.102000X-2.399750X-0.585750X2.399750X-0.585750X2.399750X0.585750X-2.399750X0.585750X0*%
%ADD49RoundRect,0.102000X-0.571500X-2.324750X0.571500X-2.324750X0.571500X2.324750X-0.571500X2.324750X0*%
%ADD50RoundRect,0.102000X-0.571500X-2.299750X0.571500X-2.299750X0.571500X2.299750X-0.571500X2.299750X0*%
%ADD51RoundRect,0.102000X-0.553750X-2.274750X0.553750X-2.274750X0.553750X2.274750X-0.553750X2.274750X0*%
%ADD52RoundRect,0.102000X-0.571750X-2.274750X0.571750X-2.274750X0.571750X2.274750X-0.571750X2.274750X0*%
%ADD53RoundRect,0.102000X-2.524750X-0.542750X2.524750X-0.542750X2.524750X0.542750X-2.524750X0.542750X0*%
%ADD54RoundRect,0.102000X-2.374750X-0.567750X2.374750X-0.567750X2.374750X0.567750X-2.374750X0.567750X0*%
%ADD55RoundRect,0.102000X-0.592750X-2.299750X0.592750X-2.299750X0.592750X2.299750X-0.592750X2.299750X0*%
%ADD56C,1.650000*%
%ADD57RoundRect,0.102000X1.060000X-1.140000X1.060000X1.140000X-1.060000X1.140000X-1.060000X-1.140000X0*%
G04 APERTURE END LIST*
D10*
%TO.C,C4*%
X92825000Y-94000000D03*
X95775000Y-94000000D03*
%TD*%
D11*
%TO.C,J1*%
X118150000Y-61450000D03*
D12*
X118150000Y-54250000D03*
%TD*%
D13*
%TO.C,MD2*%
X98824750Y-101739250D03*
D14*
X101537750Y-95715250D03*
D15*
X106123750Y-95740250D03*
D16*
X111234750Y-98237750D03*
D17*
X111450250Y-101714250D03*
D18*
X109550250Y-107750250D03*
D19*
X104975000Y-107750250D03*
D20*
X102671250Y-107750250D03*
D21*
X98824750Y-106297000D03*
D22*
X98824750Y-104007250D03*
D23*
X111450250Y-104011000D03*
D19*
X107261000Y-107750250D03*
%TD*%
D24*
%TO.C,J5*%
X126655000Y-82000000D03*
D25*
X126655000Y-79500000D03*
%TD*%
D26*
%TO.C,R4*%
X94480000Y-106675000D03*
X94480000Y-103750000D03*
%TD*%
D27*
%TO.C,R5*%
X94450000Y-101950000D03*
X94450000Y-100125000D03*
%TD*%
%TO.C,R6*%
X94500000Y-98350000D03*
X94500000Y-96525000D03*
%TD*%
D28*
%TO.C,J7*%
X98050000Y-88875000D03*
D29*
X100550000Y-88875000D03*
%TD*%
D30*
%TO.C,r8*%
X110300000Y-67500000D03*
X111950000Y-67500000D03*
%TD*%
D31*
%TO.C,R1*%
X92800000Y-71087500D03*
X92800000Y-74012500D03*
%TD*%
%TO.C,R3*%
X91250000Y-80437500D03*
X91250000Y-83362500D03*
%TD*%
D24*
%TO.C,J3*%
X126655000Y-72500000D03*
D25*
X126655000Y-70000000D03*
%TD*%
D30*
%TO.C,r7*%
X91650000Y-89980000D03*
X93300000Y-89980000D03*
%TD*%
D32*
%TO.C,Q1*%
X106200000Y-63900000D03*
D33*
X108500000Y-57400000D03*
D32*
X110800000Y-63900000D03*
%TD*%
D34*
%TO.C,C1*%
X91725000Y-88050000D03*
X93275000Y-88050000D03*
%TD*%
D35*
%TO.C,F1*%
X118950000Y-77000000D03*
X118950000Y-84600000D03*
D36*
X118950000Y-104100000D03*
X118950000Y-111700000D03*
%TD*%
D37*
%TO.C,C10*%
X97150000Y-54700000D03*
D38*
X100650000Y-54700000D03*
%TD*%
D39*
%TO.C,D2*%
X111425000Y-112850000D03*
X107095000Y-112850000D03*
%TD*%
D40*
%TO.C,R2*%
X91800000Y-76437500D03*
X91800000Y-78262500D03*
%TD*%
D41*
%TO.C,J6*%
X118800000Y-69250000D03*
D25*
X118800000Y-71750000D03*
%TD*%
D34*
%TO.C,C3*%
X90625000Y-86000000D03*
X92175000Y-86000000D03*
%TD*%
D10*
%TO.C,C2*%
X93875000Y-68650000D03*
X96825000Y-68650000D03*
%TD*%
D42*
%TO.C,J8*%
X126200000Y-59150000D03*
D43*
X126200000Y-54150000D03*
%TD*%
D44*
%TO.C,MD1*%
X97924750Y-75264250D03*
D45*
X100987750Y-69465250D03*
D46*
X105568000Y-69465250D03*
D47*
X110634750Y-71862750D03*
D48*
X110825250Y-75364250D03*
D49*
X108997000Y-81675250D03*
D50*
X104425000Y-81650250D03*
D51*
X102121250Y-81625250D03*
D52*
X99853250Y-81625250D03*
D53*
X97899750Y-77607250D03*
D54*
X110800250Y-77632250D03*
D55*
X106732250Y-81650250D03*
%TD*%
D56*
%TO.C,S1*%
X101000000Y-63600000D03*
X98460000Y-63600000D03*
X95920000Y-63600000D03*
%TD*%
D28*
%TO.C,J2*%
X107500000Y-87875000D03*
D29*
X110000000Y-87875000D03*
%TD*%
D37*
%TO.C,C11*%
X104800000Y-47450000D03*
D38*
X108300000Y-47450000D03*
%TD*%
D24*
%TO.C,J4*%
X126755000Y-91900000D03*
D25*
X126755000Y-89400000D03*
%TD*%
D57*
%TO.C,D1*%
X95050000Y-79985000D03*
X95050000Y-84315000D03*
%TD*%
D38*
%TO.C,R9*%
X103480000Y-60600000D03*
X93320000Y-60600000D03*
%TD*%
M02*
