%TF.GenerationSoftware,KiCad,Pcbnew,9.0.7*%
%TF.CreationDate,2026-02-20T22:22:43+09:00*%
%TF.ProjectId,power supply,706f7765-7220-4737-9570-706c792e6b69,rev?*%
%TF.SameCoordinates,Original*%
%TF.FileFunction,Profile,NP*%
%FSLAX46Y46*%
G04 Gerber Fmt 4.6, Leading zero omitted, Abs format (unit mm)*
G04 Created by KiCad (PCBNEW 9.0.7) date 2026-02-20 22:22:43*
%MOMM*%
%LPD*%
G01*
G04 APERTURE LIST*
%TA.AperFunction,Profile*%
%ADD10C,0.200000*%
%TD*%
G04 APERTURE END LIST*
D10*
X135543662Y-98493730D02*
G75*
G02*
X135471409Y-99280499I-950962J-309370D01*
G01*
X135519474Y-61882773D02*
G75*
G02*
X135588879Y-62667989I-880774J-473527D01*
G01*
X135519474Y-61882773D02*
X129874499Y-51381411D01*
X129873251Y-109583568D02*
G75*
G02*
X129414999Y-110013441I-878651J477468D01*
G01*
X98795828Y-38109730D02*
G75*
G02*
X100116862Y-37620661I906972J-421170D01*
G01*
X134100004Y-62650001D02*
G75*
G02*
X130700004Y-62650001I-1700000J0D01*
G01*
X130700004Y-62650001D02*
G75*
G02*
X134100004Y-62650001I1700000J0D01*
G01*
X129873251Y-109583568D02*
X135471379Y-99280483D01*
X129407746Y-50944632D02*
X100116858Y-37620670D01*
X100100000Y-45650000D02*
G75*
G02*
X96700000Y-45650000I-1700000J0D01*
G01*
X96700000Y-45650000D02*
G75*
G02*
X100100000Y-45650000I1700000J0D01*
G01*
X129407746Y-50944632D02*
G75*
G02*
X129874509Y-51381406I-414046J-910268D01*
G01*
X100100000Y-115650002D02*
G75*
G02*
X96700000Y-115650002I-1700000J0D01*
G01*
X96700000Y-115650002D02*
G75*
G02*
X100100000Y-115650002I1700000J0D01*
G01*
X100088959Y-123602519D02*
X129415012Y-110013468D01*
X100088959Y-123602519D02*
G75*
G02*
X98761182Y-123115661I-420459J907319D01*
G01*
X98761210Y-123115648D02*
G75*
G02*
X98795827Y-38109730I91638790J42465648D01*
G01*
X135543662Y-98493730D02*
G75*
G02*
X135588839Y-62667976I54856338J17843730D01*
G01*
X134100004Y-98650001D02*
G75*
G02*
X130700004Y-98650001I-1700000J0D01*
G01*
X130700004Y-98650001D02*
G75*
G02*
X134100004Y-98650001I1700000J0D01*
G01*
M02*
