%TF.GenerationSoftware,KiCad,Pcbnew,9.0.7*%
%TF.CreationDate,2026-02-20T22:22:42+09:00*%
%TF.ProjectId,power supply,706f7765-7220-4737-9570-706c792e6b69,rev?*%
%TF.SameCoordinates,Original*%
%TF.FileFunction,Copper,L2,Bot*%
%TF.FilePolarity,Positive*%
%FSLAX46Y46*%
G04 Gerber Fmt 4.6, Leading zero omitted, Abs format (unit mm)*
G04 Created by KiCad (PCBNEW 9.0.7) date 2026-02-20 22:22:42*
%MOMM*%
%LPD*%
G01*
G04 APERTURE LIST*
G04 Aperture macros list*
%AMRoundRect*
0 Rectangle with rounded corners*
0 $1 Rounding radius*
0 $2 $3 $4 $5 $6 $7 $8 $9 X,Y pos of 4 corners*
0 Add a 4 corners polygon primitive as box body*
4,1,4,$2,$3,$4,$5,$6,$7,$8,$9,$2,$3,0*
0 Add four circle primitives for the rounded corners*
1,1,$1+$1,$2,$3*
1,1,$1+$1,$4,$5*
1,1,$1+$1,$6,$7*
1,1,$1+$1,$8,$9*
0 Add four rect primitives between the rounded corners*
20,1,$1+$1,$2,$3,$4,$5,0*
20,1,$1+$1,$4,$5,$6,$7,0*
20,1,$1+$1,$6,$7,$8,$9,0*
20,1,$1+$1,$8,$9,$2,$3,0*%
G04 Aperture macros list end*
%TA.AperFunction,ComponentPad*%
%ADD10RoundRect,1.500000X1.500000X-1.500000X1.500000X1.500000X-1.500000X1.500000X-1.500000X-1.500000X0*%
%TD*%
%TA.AperFunction,ComponentPad*%
%ADD11C,6.000000*%
%TD*%
%TA.AperFunction,ComponentPad*%
%ADD12RoundRect,0.250000X0.750000X-0.600000X0.750000X0.600000X-0.750000X0.600000X-0.750000X-0.600000X0*%
%TD*%
%TA.AperFunction,ComponentPad*%
%ADD13O,2.000000X1.700000*%
%TD*%
%TA.AperFunction,ComponentPad*%
%ADD14RoundRect,0.250000X-0.600000X-0.750000X0.600000X-0.750000X0.600000X0.750000X-0.600000X0.750000X0*%
%TD*%
%TA.AperFunction,ComponentPad*%
%ADD15O,1.700000X2.000000*%
%TD*%
%TA.AperFunction,ComponentPad*%
%ADD16RoundRect,0.750000X-0.750000X0.750000X-0.750000X-0.750000X0.750000X-0.750000X0.750000X0.750000X0*%
%TD*%
%TA.AperFunction,ComponentPad*%
%ADD17C,3.000000*%
%TD*%
%TA.AperFunction,ComponentPad*%
%ADD18RoundRect,0.250000X-0.550000X-0.550000X0.550000X-0.550000X0.550000X0.550000X-0.550000X0.550000X0*%
%TD*%
%TA.AperFunction,ComponentPad*%
%ADD19C,1.600000*%
%TD*%
%TA.AperFunction,ComponentPad*%
%ADD20RoundRect,0.250000X-0.750000X0.600000X-0.750000X-0.600000X0.750000X-0.600000X0.750000X0.600000X0*%
%TD*%
%TA.AperFunction,ComponentPad*%
%ADD21RoundRect,0.760000X1.140000X-1.140000X1.140000X1.140000X-1.140000X1.140000X-1.140000X-1.140000X0*%
%TD*%
%TA.AperFunction,ComponentPad*%
%ADD22C,3.800000*%
%TD*%
%TA.AperFunction,ComponentPad*%
%ADD23C,1.650000*%
%TD*%
%TA.AperFunction,ViaPad*%
%ADD24C,0.600000*%
%TD*%
%TA.AperFunction,Conductor*%
%ADD25C,2.000000*%
%TD*%
%TA.AperFunction,Conductor*%
%ADD26C,0.800000*%
%TD*%
%TA.AperFunction,Conductor*%
%ADD27C,1.000000*%
%TD*%
G04 APERTURE END LIST*
D10*
%TO.P,J1,1,Pin_1*%
%TO.N,GND*%
X118150000Y-61450000D03*
D11*
%TO.P,J1,2,Pin_2*%
%TO.N,Vin*%
X118150000Y-54250000D03*
%TD*%
D12*
%TO.P,J5,1,Pin_1*%
%TO.N,GND*%
X126655000Y-82000000D03*
D13*
%TO.P,J5,2,Pin_2*%
%TO.N,+3.3V*%
X126655000Y-79500000D03*
%TD*%
D14*
%TO.P,J7,1,Pin_1*%
%TO.N,GND*%
X98050000Y-88875000D03*
D15*
%TO.P,J7,2,Pin_2*%
%TO.N,11.1v*%
X100550000Y-88875000D03*
%TD*%
D12*
%TO.P,J3,1,Pin_1*%
%TO.N,GND*%
X126655000Y-72500000D03*
D13*
%TO.P,J3,2,Pin_2*%
%TO.N,+3.3V*%
X126655000Y-70000000D03*
%TD*%
D16*
%TO.P,F1,1*%
%TO.N,Vin*%
X118950000Y-77000000D03*
X118950000Y-84600000D03*
D17*
%TO.P,F1,2*%
%TO.N,Net-(Q1-S)*%
X118950000Y-104100000D03*
X118950000Y-111700000D03*
%TD*%
D18*
%TO.P,C10,1*%
%TO.N,11.1v*%
X97150000Y-54700000D03*
D19*
%TO.P,C10,2*%
%TO.N,GND*%
X100650000Y-54700000D03*
%TD*%
D20*
%TO.P,J6,1,Pin_1*%
%TO.N,GND*%
X118800000Y-69250000D03*
D13*
%TO.P,J6,2,Pin_2*%
%TO.N,11.1v*%
X118800000Y-71750000D03*
%TD*%
D21*
%TO.P,J8,1,Pin_1*%
%TO.N,GND*%
X126200000Y-59150000D03*
D22*
%TO.P,J8,2,Pin_2*%
%TO.N,11.1v*%
X126200000Y-54150000D03*
%TD*%
D23*
%TO.P,S1,1,1*%
%TO.N,Net-(Q1-G)*%
X101000000Y-63600000D03*
%TO.P,S1,2,2*%
%TO.N,GND*%
X98460000Y-63600000D03*
%TO.P,S1,3,3*%
%TO.N,unconnected-(S1-Pad3)*%
X95920000Y-63600000D03*
%TD*%
D14*
%TO.P,J2,1,Pin_1*%
%TO.N,GND*%
X107500000Y-87875000D03*
D15*
%TO.P,J2,2,Pin_2*%
%TO.N,+5V*%
X110000000Y-87875000D03*
%TD*%
D18*
%TO.P,C11,1*%
%TO.N,11.1v*%
X104800000Y-47450000D03*
D19*
%TO.P,C11,2*%
%TO.N,GND*%
X108300000Y-47450000D03*
%TD*%
D12*
%TO.P,J4,1,Pin_1*%
%TO.N,GND*%
X126755000Y-91900000D03*
D13*
%TO.P,J4,2,Pin_2*%
%TO.N,+3.3V*%
X126755000Y-89400000D03*
%TD*%
D19*
%TO.P,R9,1*%
%TO.N,Net-(Q1-S)*%
X103480000Y-60600000D03*
%TO.P,R9,2*%
%TO.N,Net-(Q1-G)*%
X93320000Y-60600000D03*
%TD*%
D24*
%TO.N,*%
X99750000Y-64450000D03*
%TO.N,+5V*%
X97900000Y-92950000D03*
X106550000Y-74850000D03*
X92250000Y-91650000D03*
X97450000Y-83900000D03*
%TO.N,GND*%
X109750000Y-93600000D03*
X112900000Y-109150000D03*
X97232361Y-71100000D03*
X97400000Y-62550000D03*
X112850000Y-68700000D03*
X91800000Y-66200000D03*
X91500000Y-69050000D03*
%TO.N,11.1v*%
X94400000Y-74600000D03*
X101700000Y-58500000D03*
X99450000Y-65950000D03*
X108500000Y-65450000D03*
%TO.N,+3.3V*%
X92450000Y-96950000D03*
X106900000Y-101300000D03*
X109050000Y-113100000D03*
X114200000Y-91600000D03*
%TO.N,Net-(MD1-TRIM)*%
X94850000Y-70950000D03*
X103100000Y-76100000D03*
%TD*%
D25*
%TO.N,+5V*%
X110150000Y-85400000D02*
X110000000Y-87875000D01*
D26*
X97900000Y-92950000D02*
X92250000Y-91650000D01*
D25*
X106550000Y-74850000D02*
X102317635Y-80617635D01*
X101450000Y-81800000D02*
X97450000Y-83900000D01*
X102317635Y-80617635D02*
X101450000Y-81800000D01*
X102317635Y-80617635D02*
X110150000Y-85400000D01*
%TO.N,GND*%
X108300000Y-47450000D02*
X100650000Y-54700000D01*
X130350000Y-81500000D02*
X126655000Y-82000000D01*
X130250000Y-90300000D02*
X126755000Y-91900000D01*
X131000000Y-77400000D02*
X130350000Y-81500000D01*
X130400000Y-84750000D02*
X130750000Y-87850000D01*
X126655000Y-72500000D02*
X118800000Y-69250000D01*
D26*
X118800000Y-69250000D02*
X118150000Y-61450000D01*
D27*
X112900000Y-109150000D02*
X109750000Y-93600000D01*
D25*
X108300000Y-47450000D02*
X113850000Y-59650000D01*
X126655000Y-82000000D02*
X130400000Y-84750000D01*
D27*
X98460000Y-63600000D02*
X100650000Y-54700000D01*
D25*
X126655000Y-72500000D02*
X131000000Y-77400000D01*
X113850000Y-59650000D02*
X118150000Y-61450000D01*
X130750000Y-87850000D02*
X130250000Y-90300000D01*
D27*
X98460000Y-63600000D02*
X96450000Y-68550000D01*
D26*
X112850000Y-68700000D02*
X118800000Y-69250000D01*
D27*
X96450000Y-68550000D02*
X97232361Y-71100000D01*
D25*
X126200000Y-59150000D02*
X118150000Y-61450000D01*
%TO.N,11.1v*%
X106150000Y-57900000D02*
X106350000Y-66000000D01*
X101700000Y-58500000D02*
X106150000Y-57900000D01*
D27*
X99550000Y-86450000D02*
X95500000Y-85750000D01*
D25*
X106350000Y-66000000D02*
X108500000Y-65450000D01*
D27*
X100550000Y-88875000D02*
X99550000Y-86450000D01*
X95500000Y-85750000D02*
X94400000Y-74600000D01*
D25*
X106350000Y-66000000D02*
X99450000Y-65950000D01*
D26*
%TO.N,+3.3V*%
X106900000Y-101300000D02*
X109050000Y-113100000D01*
X92450000Y-96950000D02*
X106900000Y-101300000D01*
D25*
X114200000Y-91600000D02*
X126755000Y-89400000D01*
D26*
%TO.N,Net-(MD1-TRIM)*%
X103100000Y-76100000D02*
X100000000Y-76100000D01*
X100000000Y-76100000D02*
X94850000Y-70950000D01*
%TD*%
%TA.AperFunction,Conductor*%
%TO.N,GND*%
G36*
X99789972Y-38040452D02*
G01*
X99817029Y-38046040D01*
X99902945Y-38074062D01*
X99915836Y-38079078D01*
X99935343Y-38087951D01*
X99969596Y-38103532D01*
X99969598Y-38103532D01*
X129130391Y-51368316D01*
X129130412Y-51368328D01*
X129140539Y-51372934D01*
X129176822Y-51389437D01*
X129194308Y-51397391D01*
X129194389Y-51397428D01*
X129206299Y-51403646D01*
X129281908Y-51448489D01*
X129303367Y-51464592D01*
X129362608Y-51520027D01*
X129380107Y-51540380D01*
X129429804Y-51612760D01*
X129436800Y-51624237D01*
X135044013Y-62055350D01*
X135047439Y-62061723D01*
X135047443Y-62061738D01*
X135074628Y-62112303D01*
X135074634Y-62112332D01*
X135074642Y-62112328D01*
X135075680Y-62114260D01*
X135081040Y-62125571D01*
X135112419Y-62201473D01*
X135119606Y-62225492D01*
X135133882Y-62299949D01*
X135136089Y-62324925D01*
X135135095Y-62400714D01*
X135132232Y-62425628D01*
X135114740Y-62505460D01*
X135111436Y-62517572D01*
X134884194Y-63210262D01*
X134461428Y-64617992D01*
X134074354Y-66035940D01*
X133723203Y-67463269D01*
X133408237Y-68898909D01*
X133129616Y-70342125D01*
X132887540Y-71791888D01*
X132793568Y-72457816D01*
X132682157Y-73247323D01*
X132657985Y-73456716D01*
X132513599Y-74707465D01*
X132381974Y-76171409D01*
X132287366Y-77638206D01*
X132229836Y-79106921D01*
X132209418Y-80576618D01*
X132223408Y-81807007D01*
X132226129Y-82046368D01*
X132279956Y-83515225D01*
X132360268Y-84811254D01*
X132370866Y-84982283D01*
X132498795Y-86446521D01*
X132663666Y-87907060D01*
X132787558Y-88801303D01*
X132865381Y-89363022D01*
X132886828Y-89493489D01*
X133103800Y-90813396D01*
X133378778Y-92257301D01*
X133690134Y-93693780D01*
X134037672Y-95121943D01*
X134306003Y-96114756D01*
X134421172Y-96540875D01*
X134840387Y-97949668D01*
X134991283Y-98413585D01*
X135044944Y-98578560D01*
X135044944Y-98578561D01*
X135047329Y-98585894D01*
X135047330Y-98585907D01*
X135058568Y-98620450D01*
X135064449Y-98638531D01*
X135065764Y-98642571D01*
X135069045Y-98654720D01*
X135086448Y-98735187D01*
X135089244Y-98760165D01*
X135090000Y-98836150D01*
X135087701Y-98861179D01*
X135073120Y-98935750D01*
X135065820Y-98959806D01*
X135034179Y-99035448D01*
X135028740Y-99046797D01*
X129436641Y-109338787D01*
X129429725Y-109350041D01*
X129380670Y-109421088D01*
X129363467Y-109441070D01*
X129305342Y-109495596D01*
X129284302Y-109511490D01*
X129210016Y-109556061D01*
X129198349Y-109562241D01*
X129138064Y-109590173D01*
X129138011Y-109590201D01*
X99943633Y-123118236D01*
X99943632Y-123118235D01*
X99943623Y-123118240D01*
X99938306Y-123120703D01*
X99938305Y-123120704D01*
X99915179Y-123131420D01*
X99884849Y-123145476D01*
X99871924Y-123150606D01*
X99785660Y-123179360D01*
X99758502Y-123185136D01*
X99674989Y-123193292D01*
X99647225Y-123192880D01*
X99563989Y-123182248D01*
X99537012Y-123175667D01*
X99458228Y-123146779D01*
X99433395Y-123134363D01*
X99363011Y-123088666D01*
X99341568Y-123071038D01*
X99283122Y-123010830D01*
X99266134Y-122988866D01*
X99219353Y-122911902D01*
X99212315Y-122898555D01*
X98417127Y-121138236D01*
X98416169Y-121136059D01*
X98205114Y-120643727D01*
X97652704Y-119355110D01*
X97651823Y-119353000D01*
X96936856Y-117592067D01*
X96929876Y-117522549D01*
X96961588Y-117460290D01*
X97021926Y-117425061D01*
X97091732Y-117428044D01*
X97127234Y-117447045D01*
X97165519Y-117476422D01*
X97174844Y-117483577D01*
X97174851Y-117483581D01*
X97424647Y-117627802D01*
X97424663Y-117627810D01*
X97691139Y-117738187D01*
X97691145Y-117738188D01*
X97691155Y-117738193D01*
X97969783Y-117812851D01*
X98255772Y-117850502D01*
X98255779Y-117850502D01*
X98544221Y-117850502D01*
X98544228Y-117850502D01*
X98830217Y-117812851D01*
X99108845Y-117738193D01*
X99108857Y-117738187D01*
X99108860Y-117738187D01*
X99375336Y-117627810D01*
X99375339Y-117627808D01*
X99375345Y-117627806D01*
X99625156Y-117483577D01*
X99854004Y-117307976D01*
X100057974Y-117104006D01*
X100233575Y-116875158D01*
X100377804Y-116625347D01*
X100488191Y-116358847D01*
X100562849Y-116080219D01*
X100600500Y-115794230D01*
X100600500Y-115505774D01*
X100562849Y-115219785D01*
X100488191Y-114941157D01*
X100488186Y-114941147D01*
X100488185Y-114941141D01*
X100377808Y-114674665D01*
X100377800Y-114674649D01*
X100233579Y-114424853D01*
X100233575Y-114424846D01*
X100057974Y-114195998D01*
X100057969Y-114195992D01*
X99854009Y-113992032D01*
X99854002Y-113992026D01*
X99625164Y-113816433D01*
X99625162Y-113816431D01*
X99625156Y-113816427D01*
X99625151Y-113816424D01*
X99625148Y-113816422D01*
X99375352Y-113672201D01*
X99375336Y-113672193D01*
X99108860Y-113561816D01*
X99108848Y-113561812D01*
X99108845Y-113561811D01*
X98830217Y-113487153D01*
X98830211Y-113487152D01*
X98830206Y-113487151D01*
X98544238Y-113449503D01*
X98544233Y-113449502D01*
X98544228Y-113449502D01*
X98255772Y-113449502D01*
X98255766Y-113449502D01*
X98255761Y-113449503D01*
X97969793Y-113487151D01*
X97969786Y-113487152D01*
X97969783Y-113487153D01*
X97774947Y-113539359D01*
X97691155Y-113561811D01*
X97691139Y-113561816D01*
X97424663Y-113672193D01*
X97424647Y-113672201D01*
X97174851Y-113816422D01*
X97174835Y-113816433D01*
X96945997Y-113992026D01*
X96945990Y-113992032D01*
X96742030Y-114195992D01*
X96742024Y-114195999D01*
X96566431Y-114424837D01*
X96566420Y-114424853D01*
X96422199Y-114674649D01*
X96422191Y-114674665D01*
X96311814Y-114941141D01*
X96311810Y-114941154D01*
X96254276Y-115155872D01*
X96217911Y-115215532D01*
X96155063Y-115246061D01*
X96085688Y-115237766D01*
X96031810Y-115193281D01*
X96017897Y-115165960D01*
X95567909Y-113921923D01*
X95567151Y-113919763D01*
X94943321Y-112085150D01*
X94942576Y-112082886D01*
X94862357Y-111831127D01*
X94354306Y-110236668D01*
X94353614Y-110234421D01*
X94341207Y-110192718D01*
X93801086Y-108377170D01*
X93800426Y-108374869D01*
X93283867Y-106507358D01*
X93283251Y-106505045D01*
X93179716Y-106100500D01*
X92802819Y-104627836D01*
X92802258Y-104625551D01*
X92770604Y-104491116D01*
X92358152Y-102739420D01*
X92357635Y-102737120D01*
X92263999Y-102301957D01*
X91950031Y-100842816D01*
X91949550Y-100840472D01*
X91949017Y-100837740D01*
X91578576Y-98938592D01*
X91578167Y-98936381D01*
X91243961Y-97027617D01*
X91243578Y-97025294D01*
X91234234Y-96965109D01*
X91232184Y-96951906D01*
X91545144Y-96951906D01*
X91545145Y-96951914D01*
X91562905Y-97128406D01*
X91614756Y-97298041D01*
X91698704Y-97454302D01*
X91811524Y-97591183D01*
X91948881Y-97703423D01*
X92105496Y-97786710D01*
X103044795Y-101079855D01*
X106040197Y-101981585D01*
X106098717Y-102019758D01*
X106126445Y-102078094D01*
X108179982Y-113348670D01*
X108245214Y-113513626D01*
X108341372Y-113662683D01*
X108341373Y-113662685D01*
X108464756Y-113790112D01*
X108464765Y-113790120D01*
X108610637Y-113891027D01*
X108610643Y-113891031D01*
X108773407Y-113961547D01*
X108946802Y-113998952D01*
X109124162Y-114001812D01*
X109298671Y-113970016D01*
X109463625Y-113904785D01*
X109612684Y-113808628D01*
X109740118Y-113685237D01*
X109755719Y-113662685D01*
X109800192Y-113598394D01*
X109841032Y-113539356D01*
X109911547Y-113376592D01*
X109948953Y-113203198D01*
X109951813Y-113025837D01*
X109686350Y-111568880D01*
X109686349Y-111568872D01*
X116949500Y-111568872D01*
X116949500Y-111831127D01*
X116976123Y-112033339D01*
X116983730Y-112091116D01*
X117051602Y-112344418D01*
X117051605Y-112344428D01*
X117151953Y-112586690D01*
X117151958Y-112586700D01*
X117283075Y-112813803D01*
X117442718Y-113021851D01*
X117442726Y-113021860D01*
X117628140Y-113207274D01*
X117628148Y-113207281D01*
X117836196Y-113366924D01*
X118063299Y-113498041D01*
X118063309Y-113498046D01*
X118163048Y-113539359D01*
X118305581Y-113598398D01*
X118558884Y-113666270D01*
X118818880Y-113700500D01*
X118818887Y-113700500D01*
X119081113Y-113700500D01*
X119081120Y-113700500D01*
X119341116Y-113666270D01*
X119594419Y-113598398D01*
X119836697Y-113498043D01*
X120063803Y-113366924D01*
X120271851Y-113207282D01*
X120271855Y-113207277D01*
X120271860Y-113207274D01*
X120457274Y-113021860D01*
X120457277Y-113021855D01*
X120457282Y-113021851D01*
X120616924Y-112813803D01*
X120748043Y-112586697D01*
X120848398Y-112344419D01*
X120916270Y-112091116D01*
X120950500Y-111831120D01*
X120950500Y-111568880D01*
X120916270Y-111308884D01*
X120848398Y-111055581D01*
X120848394Y-111055571D01*
X120748046Y-110813309D01*
X120748041Y-110813299D01*
X120616924Y-110586196D01*
X120457281Y-110378148D01*
X120457274Y-110378140D01*
X120271860Y-110192726D01*
X120271851Y-110192718D01*
X120063803Y-110033075D01*
X119836700Y-109901958D01*
X119836690Y-109901953D01*
X119594428Y-109801605D01*
X119594421Y-109801603D01*
X119594419Y-109801602D01*
X119341116Y-109733730D01*
X119283339Y-109726123D01*
X119081127Y-109699500D01*
X119081120Y-109699500D01*
X118818880Y-109699500D01*
X118818872Y-109699500D01*
X118587772Y-109729926D01*
X118558884Y-109733730D01*
X118443511Y-109764644D01*
X118305581Y-109801602D01*
X118305571Y-109801605D01*
X118063309Y-109901953D01*
X118063299Y-109901958D01*
X117836196Y-110033075D01*
X117628148Y-110192718D01*
X117442718Y-110378148D01*
X117283075Y-110586196D01*
X117151958Y-110813299D01*
X117151953Y-110813309D01*
X117051605Y-111055571D01*
X117051602Y-111055581D01*
X116983730Y-111308885D01*
X116949500Y-111568872D01*
X109686349Y-111568872D01*
X108304915Y-103987048D01*
X108301603Y-103968872D01*
X116949500Y-103968872D01*
X116949500Y-104231127D01*
X116976123Y-104433339D01*
X116983730Y-104491116D01*
X117051602Y-104744418D01*
X117051605Y-104744428D01*
X117151953Y-104986690D01*
X117151958Y-104986700D01*
X117283075Y-105213803D01*
X117442718Y-105421851D01*
X117442726Y-105421860D01*
X117628140Y-105607274D01*
X117628148Y-105607281D01*
X117836196Y-105766924D01*
X118063299Y-105898041D01*
X118063309Y-105898046D01*
X118305571Y-105998394D01*
X118305581Y-105998398D01*
X118558884Y-106066270D01*
X118818880Y-106100500D01*
X118818887Y-106100500D01*
X119081113Y-106100500D01*
X119081120Y-106100500D01*
X119341116Y-106066270D01*
X119594419Y-105998398D01*
X119836697Y-105898043D01*
X120063803Y-105766924D01*
X120271851Y-105607282D01*
X120271855Y-105607277D01*
X120271860Y-105607274D01*
X120457274Y-105421860D01*
X120457277Y-105421855D01*
X120457282Y-105421851D01*
X120616924Y-105213803D01*
X120748043Y-104986697D01*
X120848398Y-104744419D01*
X120916270Y-104491116D01*
X120950500Y-104231120D01*
X120950500Y-103968880D01*
X120916270Y-103708884D01*
X120848398Y-103455581D01*
X120848394Y-103455571D01*
X120748046Y-103213309D01*
X120748041Y-103213299D01*
X120616924Y-102986196D01*
X120457281Y-102778148D01*
X120457274Y-102778140D01*
X120271860Y-102592726D01*
X120271851Y-102592718D01*
X120063803Y-102433075D01*
X119836700Y-102301958D01*
X119836690Y-102301953D01*
X119594428Y-102201605D01*
X119594421Y-102201603D01*
X119594419Y-102201602D01*
X119341116Y-102133730D01*
X119283339Y-102126123D01*
X119081127Y-102099500D01*
X119081120Y-102099500D01*
X118818880Y-102099500D01*
X118818872Y-102099500D01*
X118587772Y-102129926D01*
X118558884Y-102133730D01*
X118305581Y-102201602D01*
X118305571Y-102201605D01*
X118063309Y-102301953D01*
X118063299Y-102301958D01*
X117836196Y-102433075D01*
X117628148Y-102592718D01*
X117442718Y-102778148D01*
X117283075Y-102986196D01*
X117151958Y-103213299D01*
X117151953Y-103213309D01*
X117051605Y-103455571D01*
X117051602Y-103455581D01*
X116983730Y-103708885D01*
X116949500Y-103968872D01*
X108301603Y-103968872D01*
X107793257Y-101178879D01*
X107793257Y-101178878D01*
X107792368Y-101174003D01*
X107787095Y-101121594D01*
X107776509Y-101086961D01*
X107770017Y-101051329D01*
X107750644Y-101002339D01*
X107735245Y-100951959D01*
X107718103Y-100920052D01*
X107704786Y-100886375D01*
X107678911Y-100846266D01*
X107673882Y-100837740D01*
X107651297Y-100795700D01*
X107651296Y-100795698D01*
X107628261Y-100767751D01*
X107608628Y-100737316D01*
X107571987Y-100699475D01*
X107568841Y-100695657D01*
X107568831Y-100695646D01*
X107538476Y-100658817D01*
X107516017Y-100640464D01*
X107516017Y-100640463D01*
X107510424Y-100635892D01*
X107485238Y-100609882D01*
X107441921Y-100579917D01*
X107438076Y-100576776D01*
X107401115Y-100546574D01*
X107375524Y-100532965D01*
X107363203Y-100525463D01*
X107339360Y-100508970D01*
X107339359Y-100508969D01*
X107339357Y-100508968D01*
X107323880Y-100502262D01*
X107295559Y-100489992D01*
X107295559Y-100489991D01*
X107290999Y-100488015D01*
X107244504Y-100463290D01*
X107209830Y-100452851D01*
X107203195Y-100449977D01*
X107176596Y-100438453D01*
X107176592Y-100438452D01*
X107129938Y-100428387D01*
X107120345Y-100425912D01*
X101122889Y-98620450D01*
X100741970Y-98505779D01*
X130199504Y-98505779D01*
X130199504Y-98794222D01*
X130199505Y-98794239D01*
X130237153Y-99080207D01*
X130237154Y-99080212D01*
X130237155Y-99080218D01*
X130237156Y-99080220D01*
X130311813Y-99358845D01*
X130311818Y-99358861D01*
X130422195Y-99625337D01*
X130422203Y-99625353D01*
X130566424Y-99875149D01*
X130566435Y-99875165D01*
X130742028Y-100104003D01*
X130742034Y-100104010D01*
X130945994Y-100307970D01*
X130946000Y-100307975D01*
X131174848Y-100483576D01*
X131174855Y-100483580D01*
X131424651Y-100627801D01*
X131424667Y-100627809D01*
X131691143Y-100738186D01*
X131691149Y-100738187D01*
X131691159Y-100738192D01*
X131969787Y-100812850D01*
X132255776Y-100850501D01*
X132255783Y-100850501D01*
X132544225Y-100850501D01*
X132544232Y-100850501D01*
X132830221Y-100812850D01*
X133108849Y-100738192D01*
X133108861Y-100738186D01*
X133108864Y-100738186D01*
X133375340Y-100627809D01*
X133375343Y-100627807D01*
X133375349Y-100627805D01*
X133625160Y-100483576D01*
X133854008Y-100307975D01*
X134057978Y-100104005D01*
X134233579Y-99875157D01*
X134377808Y-99625346D01*
X134488195Y-99358846D01*
X134562853Y-99080218D01*
X134600504Y-98794229D01*
X134600504Y-98505773D01*
X134562853Y-98219784D01*
X134488195Y-97941156D01*
X134488190Y-97941146D01*
X134488189Y-97941140D01*
X134377812Y-97674664D01*
X134377804Y-97674648D01*
X134233583Y-97424852D01*
X134233579Y-97424845D01*
X134136279Y-97298041D01*
X134057979Y-97195998D01*
X134057973Y-97195991D01*
X133854013Y-96992031D01*
X133854006Y-96992025D01*
X133625168Y-96816432D01*
X133625166Y-96816430D01*
X133625160Y-96816426D01*
X133625155Y-96816423D01*
X133625152Y-96816421D01*
X133375356Y-96672200D01*
X133375340Y-96672192D01*
X133108864Y-96561815D01*
X133108852Y-96561811D01*
X133108849Y-96561810D01*
X132830221Y-96487152D01*
X132830215Y-96487151D01*
X132830210Y-96487150D01*
X132544242Y-96449502D01*
X132544237Y-96449501D01*
X132544232Y-96449501D01*
X132255776Y-96449501D01*
X132255770Y-96449501D01*
X132255765Y-96449502D01*
X131969797Y-96487150D01*
X131969790Y-96487151D01*
X131969787Y-96487152D01*
X131769290Y-96540875D01*
X131691159Y-96561810D01*
X131691143Y-96561815D01*
X131424667Y-96672192D01*
X131424651Y-96672200D01*
X131174855Y-96816421D01*
X131174839Y-96816432D01*
X130946001Y-96992025D01*
X130945994Y-96992031D01*
X130742034Y-97195991D01*
X130742028Y-97195998D01*
X130566435Y-97424836D01*
X130566424Y-97424852D01*
X130422203Y-97674648D01*
X130422195Y-97674664D01*
X130311818Y-97941140D01*
X130311813Y-97941156D01*
X130237156Y-98219781D01*
X130237153Y-98219794D01*
X130199505Y-98505762D01*
X130199504Y-98505779D01*
X100741970Y-98505779D01*
X92624652Y-96062158D01*
X92624649Y-96062157D01*
X92448093Y-96045144D01*
X92448085Y-96045145D01*
X92271592Y-96062905D01*
X92158504Y-96097472D01*
X92101959Y-96114756D01*
X91945700Y-96198703D01*
X91945698Y-96198704D01*
X91808817Y-96311523D01*
X91696578Y-96448879D01*
X91613289Y-96605498D01*
X91562158Y-96775347D01*
X91562157Y-96775350D01*
X91545144Y-96951906D01*
X91232184Y-96951906D01*
X90946295Y-95110526D01*
X90945955Y-95108183D01*
X90775786Y-93852741D01*
X90685692Y-93188069D01*
X90685400Y-93185743D01*
X90685239Y-93184358D01*
X90514521Y-91711815D01*
X91347257Y-91711815D01*
X91347258Y-91711827D01*
X91376663Y-91886749D01*
X91439629Y-92052574D01*
X91533741Y-92202937D01*
X91533746Y-92202943D01*
X91584957Y-92257301D01*
X91655376Y-92332048D01*
X91799863Y-92434948D01*
X91961649Y-92507683D01*
X97784514Y-93847457D01*
X97961819Y-93852743D01*
X98136748Y-93823337D01*
X98302578Y-93760369D01*
X98452938Y-93666259D01*
X98492664Y-93628832D01*
X98582039Y-93544633D01*
X98582041Y-93544630D01*
X98582048Y-93544624D01*
X98684948Y-93400137D01*
X98757683Y-93238351D01*
X98797457Y-93065486D01*
X98802743Y-92888182D01*
X98773337Y-92713253D01*
X98750343Y-92652697D01*
X98710370Y-92547425D01*
X98685496Y-92507683D01*
X98616259Y-92397063D01*
X98616257Y-92397061D01*
X98616253Y-92397056D01*
X98494627Y-92267955D01*
X98494626Y-92267954D01*
X98494624Y-92267952D01*
X98350137Y-92165052D01*
X98350133Y-92165050D01*
X98350131Y-92165049D01*
X98228798Y-92110500D01*
X98188352Y-92092317D01*
X98188350Y-92092316D01*
X98188349Y-92092316D01*
X96668714Y-91742666D01*
X95642378Y-91506518D01*
X112697765Y-91506518D01*
X112701637Y-91742666D01*
X112742402Y-91975308D01*
X112819055Y-92198696D01*
X112819062Y-92198711D01*
X112925814Y-92400000D01*
X112929717Y-92407358D01*
X113005150Y-92507683D01*
X113071655Y-92596134D01*
X113071662Y-92596141D01*
X113241364Y-92760371D01*
X113241381Y-92760385D01*
X113245812Y-92763495D01*
X113434703Y-92896058D01*
X113646874Y-92999820D01*
X113646876Y-92999820D01*
X113646879Y-92999822D01*
X113770281Y-93037693D01*
X113872663Y-93069114D01*
X113872667Y-93069114D01*
X113872669Y-93069115D01*
X113921099Y-93075974D01*
X114106513Y-93102234D01*
X114106517Y-93102233D01*
X114106518Y-93102234D01*
X114124965Y-93101931D01*
X114342665Y-93098363D01*
X125109602Y-91211683D01*
X125179029Y-91219501D01*
X125233211Y-91263615D01*
X125254942Y-91330020D01*
X125255000Y-91333822D01*
X125255000Y-91650000D01*
X126321988Y-91650000D01*
X126289075Y-91707007D01*
X126255000Y-91834174D01*
X126255000Y-91965826D01*
X126289075Y-92092993D01*
X126321988Y-92150000D01*
X125255001Y-92150000D01*
X125255001Y-92549986D01*
X125265494Y-92652697D01*
X125320641Y-92819119D01*
X125320643Y-92819124D01*
X125412684Y-92968345D01*
X125536654Y-93092315D01*
X125685875Y-93184356D01*
X125685880Y-93184358D01*
X125852302Y-93239505D01*
X125852309Y-93239506D01*
X125955019Y-93249999D01*
X126504999Y-93249999D01*
X126505000Y-93249998D01*
X126505000Y-92333012D01*
X126562007Y-92365925D01*
X126689174Y-92400000D01*
X126820826Y-92400000D01*
X126947993Y-92365925D01*
X127005000Y-92333012D01*
X127005000Y-93249999D01*
X127554972Y-93249999D01*
X127554986Y-93249998D01*
X127657697Y-93239505D01*
X127824119Y-93184358D01*
X127824124Y-93184356D01*
X127973345Y-93092315D01*
X128097315Y-92968345D01*
X128189356Y-92819124D01*
X128189358Y-92819119D01*
X128244505Y-92652697D01*
X128244506Y-92652690D01*
X128254999Y-92549986D01*
X128255000Y-92549973D01*
X128255000Y-92150000D01*
X127188012Y-92150000D01*
X127220925Y-92092993D01*
X127255000Y-91965826D01*
X127255000Y-91834174D01*
X127220925Y-91707007D01*
X127188012Y-91650000D01*
X128254999Y-91650000D01*
X128254999Y-91250028D01*
X128254998Y-91250013D01*
X128244505Y-91147302D01*
X128189358Y-90980880D01*
X128189356Y-90980875D01*
X128097315Y-90831654D01*
X127973345Y-90707684D01*
X127856764Y-90635776D01*
X127810039Y-90583828D01*
X127798818Y-90514865D01*
X127826661Y-90450783D01*
X127832744Y-90444015D01*
X127915383Y-90358623D01*
X128051058Y-90165297D01*
X128154821Y-89953126D01*
X128224115Y-89727337D01*
X128254755Y-89510988D01*
X128255500Y-89506287D01*
X128255500Y-89505730D01*
X128257234Y-89493487D01*
X128255500Y-89387676D01*
X128255500Y-89293713D01*
X128253782Y-89282868D01*
X128253364Y-89257335D01*
X128212599Y-89024695D01*
X128184950Y-88944119D01*
X128135945Y-88801303D01*
X128135943Y-88801297D01*
X128052884Y-88644685D01*
X128025289Y-88592652D01*
X128025288Y-88592650D01*
X128025283Y-88592641D01*
X127887026Y-88408760D01*
X127883347Y-88403867D01*
X127713623Y-88239618D01*
X127713624Y-88239618D01*
X127520297Y-88103942D01*
X127520292Y-88103939D01*
X127308127Y-88000179D01*
X127308124Y-88000177D01*
X127082345Y-87930887D01*
X127082335Y-87930885D01*
X126848489Y-87897766D01*
X126848481Y-87897765D01*
X126612332Y-87901637D01*
X113824697Y-90142401D01*
X113824693Y-90142402D01*
X113601307Y-90219053D01*
X113601288Y-90219062D01*
X113392644Y-90329715D01*
X113203865Y-90471655D01*
X113203858Y-90471662D01*
X113039628Y-90641364D01*
X113039614Y-90641381D01*
X112903945Y-90834697D01*
X112800177Y-91046879D01*
X112730886Y-91272661D01*
X112730884Y-91272669D01*
X112697766Y-91506510D01*
X112697765Y-91506518D01*
X95642378Y-91506518D01*
X92365486Y-90752543D01*
X92306384Y-90750781D01*
X92188184Y-90747257D01*
X92188183Y-90747257D01*
X92188182Y-90747257D01*
X92188180Y-90747257D01*
X92188172Y-90747258D01*
X92013250Y-90776663D01*
X91847425Y-90839629D01*
X91697062Y-90933741D01*
X91697056Y-90933746D01*
X91567955Y-91055372D01*
X91567951Y-91055377D01*
X91465054Y-91199859D01*
X91465051Y-91199864D01*
X91392318Y-91361646D01*
X91392316Y-91361650D01*
X91352543Y-91534515D01*
X91347257Y-91711815D01*
X90514521Y-91711815D01*
X90462243Y-91260892D01*
X90462005Y-91258657D01*
X90276039Y-89329791D01*
X90275835Y-89327423D01*
X90127149Y-87395490D01*
X90126991Y-87393140D01*
X90124333Y-87346977D01*
X90015623Y-85458658D01*
X90015510Y-85456292D01*
X90015256Y-85449657D01*
X89941503Y-83519993D01*
X89941436Y-83517603D01*
X89936008Y-83230374D01*
X89904821Y-81580245D01*
X89904800Y-81577901D01*
X89904893Y-81350013D01*
X89905589Y-79640193D01*
X89905612Y-79637906D01*
X89943805Y-77700560D01*
X89943875Y-77698181D01*
X89963406Y-77197860D01*
X90019460Y-75761907D01*
X90019575Y-75759557D01*
X90022690Y-75706216D01*
X90087268Y-74600162D01*
X93394659Y-74600162D01*
X94496090Y-85764678D01*
X94500740Y-85811807D01*
X94502301Y-85873720D01*
X94510390Y-85909634D01*
X94511141Y-85917242D01*
X94511142Y-85917247D01*
X94514008Y-85946292D01*
X94530682Y-86001228D01*
X94531999Y-86005568D01*
X94545608Y-86065984D01*
X94560551Y-86099637D01*
X94562771Y-86106950D01*
X94562774Y-86106958D01*
X94570987Y-86134016D01*
X94571250Y-86134880D01*
X94598315Y-86185496D01*
X94602295Y-86193642D01*
X94625589Y-86246099D01*
X94625591Y-86246104D01*
X94642406Y-86269947D01*
X94650417Y-86282937D01*
X94655075Y-86291649D01*
X94664178Y-86308672D01*
X94681200Y-86329407D01*
X94703484Y-86356550D01*
X94739178Y-86407161D01*
X94765862Y-86432533D01*
X94770713Y-86438442D01*
X94789227Y-86460994D01*
X94789230Y-86460996D01*
X94789232Y-86460999D01*
X94837118Y-86500285D01*
X94882004Y-86542964D01*
X94913124Y-86562642D01*
X94919040Y-86567496D01*
X94919040Y-86567497D01*
X94941593Y-86585998D01*
X94941597Y-86586001D01*
X94996233Y-86615193D01*
X95048578Y-86648292D01*
X95082939Y-86661520D01*
X95115423Y-86678877D01*
X95170362Y-86695532D01*
X95178927Y-86698475D01*
X95232489Y-86719097D01*
X95232495Y-86719098D01*
X95232499Y-86719100D01*
X95261253Y-86724069D01*
X95261254Y-86724070D01*
X95268793Y-86725373D01*
X95304027Y-86736055D01*
X95365659Y-86742115D01*
X97602987Y-87128813D01*
X97665692Y-87159626D01*
X97701786Y-87219452D01*
X97699805Y-87289293D01*
X97660380Y-87346977D01*
X97596027Y-87374189D01*
X97581867Y-87375000D01*
X97400029Y-87375000D01*
X97400012Y-87375001D01*
X97297302Y-87385494D01*
X97130880Y-87440641D01*
X97130875Y-87440643D01*
X96981654Y-87532684D01*
X96857684Y-87656654D01*
X96765643Y-87805875D01*
X96765641Y-87805880D01*
X96710494Y-87972302D01*
X96710493Y-87972309D01*
X96700000Y-88075013D01*
X96700000Y-88625000D01*
X97616988Y-88625000D01*
X97584075Y-88682007D01*
X97550000Y-88809174D01*
X97550000Y-88940826D01*
X97584075Y-89067993D01*
X97616988Y-89125000D01*
X96700001Y-89125000D01*
X96700001Y-89674986D01*
X96710494Y-89777697D01*
X96765641Y-89944119D01*
X96765643Y-89944124D01*
X96857684Y-90093345D01*
X96981654Y-90217315D01*
X97130875Y-90309356D01*
X97130880Y-90309358D01*
X97297302Y-90364505D01*
X97297309Y-90364506D01*
X97400019Y-90374999D01*
X97799999Y-90374999D01*
X97800000Y-90374998D01*
X97800000Y-89308012D01*
X97857007Y-89340925D01*
X97984174Y-89375000D01*
X98115826Y-89375000D01*
X98242993Y-89340925D01*
X98300000Y-89308012D01*
X98300000Y-90374999D01*
X98699972Y-90374999D01*
X98699986Y-90374998D01*
X98802697Y-90364505D01*
X98969119Y-90309358D01*
X98969124Y-90309356D01*
X99118345Y-90217315D01*
X99242317Y-90093343D01*
X99337815Y-89938516D01*
X99389763Y-89891791D01*
X99458725Y-89880568D01*
X99522808Y-89908412D01*
X99531035Y-89915931D01*
X99670213Y-90055109D01*
X99842179Y-90180048D01*
X99842181Y-90180049D01*
X99842184Y-90180051D01*
X100031588Y-90276557D01*
X100233757Y-90342246D01*
X100443713Y-90375500D01*
X100443714Y-90375500D01*
X100656286Y-90375500D01*
X100656287Y-90375500D01*
X100866243Y-90342246D01*
X101068412Y-90276557D01*
X101257816Y-90180051D01*
X101309637Y-90142401D01*
X101429786Y-90055109D01*
X101429788Y-90055106D01*
X101429792Y-90055104D01*
X101580104Y-89904792D01*
X101580106Y-89904788D01*
X101580109Y-89904786D01*
X101705048Y-89732820D01*
X101705047Y-89732820D01*
X101705051Y-89732816D01*
X101801557Y-89543412D01*
X101867246Y-89341243D01*
X101900500Y-89131287D01*
X101900500Y-88618713D01*
X101867246Y-88408757D01*
X101801557Y-88206588D01*
X101705051Y-88017184D01*
X101705049Y-88017181D01*
X101705048Y-88017179D01*
X101580109Y-87845213D01*
X101429786Y-87694890D01*
X101257820Y-87569951D01*
X101091363Y-87485137D01*
X101040567Y-87437162D01*
X101033022Y-87421924D01*
X101027723Y-87409075D01*
X100507361Y-86147196D01*
X100504393Y-86134016D01*
X100469824Y-86056168D01*
X100437376Y-85977481D01*
X100435736Y-85975018D01*
X100425609Y-85956597D01*
X100424410Y-85953896D01*
X100424409Y-85953895D01*
X100424409Y-85953894D01*
X100375315Y-85884284D01*
X100328141Y-85813442D01*
X100318608Y-85803879D01*
X100312533Y-85795266D01*
X100312533Y-85795264D01*
X100312529Y-85795259D01*
X100310822Y-85792839D01*
X100310820Y-85792836D01*
X100310818Y-85792835D01*
X100250319Y-85735311D01*
X100250318Y-85735310D01*
X100249106Y-85734158D01*
X100189004Y-85673866D01*
X100177786Y-85666345D01*
X100167996Y-85657036D01*
X100097433Y-85612417D01*
X100094659Y-85610610D01*
X100025309Y-85564115D01*
X100025307Y-85564114D01*
X100022563Y-85562972D01*
X100003935Y-85553296D01*
X100002508Y-85552394D01*
X100001423Y-85551708D01*
X100001420Y-85551707D01*
X100001417Y-85551705D01*
X99923491Y-85521704D01*
X99923491Y-85521705D01*
X99921957Y-85521114D01*
X99843349Y-85488409D01*
X99830102Y-85485752D01*
X99820265Y-85481965D01*
X99820264Y-85481964D01*
X99817501Y-85480901D01*
X99817496Y-85480899D01*
X99735259Y-85466686D01*
X99731995Y-85466077D01*
X99650120Y-85449657D01*
X99650109Y-85449655D01*
X99647132Y-85449651D01*
X99626218Y-85447839D01*
X98559373Y-85263446D01*
X98496666Y-85232632D01*
X98460572Y-85172806D01*
X98462553Y-85102965D01*
X98501978Y-85045281D01*
X98522848Y-85031472D01*
X102136188Y-83134469D01*
X102230339Y-83087058D01*
X102240723Y-83079588D01*
X102252042Y-83073646D01*
X102335719Y-83011275D01*
X102337374Y-83010065D01*
X102350648Y-83000515D01*
X102422072Y-82949140D01*
X102431155Y-82940142D01*
X102441410Y-82932499D01*
X102515000Y-82857088D01*
X102589869Y-82782927D01*
X102592284Y-82779634D01*
X102592844Y-82778878D01*
X102597766Y-82772274D01*
X102606365Y-82763465D01*
X102644833Y-82709135D01*
X102645724Y-82707940D01*
X102672489Y-82687819D01*
X102698743Y-82667058D01*
X102700312Y-82666903D01*
X102701573Y-82665956D01*
X102734968Y-82663499D01*
X102768278Y-82660228D01*
X102770068Y-82660918D01*
X102771254Y-82660831D01*
X102774699Y-82662703D01*
X102809761Y-82676219D01*
X103482617Y-83087058D01*
X108506586Y-86154645D01*
X108533975Y-86171368D01*
X108580933Y-86223104D01*
X108593128Y-86284701D01*
X108590178Y-86333374D01*
X108566474Y-86399099D01*
X108510998Y-86441576D01*
X108441365Y-86447317D01*
X108426183Y-86442289D01*
X108425977Y-86442914D01*
X108252697Y-86385494D01*
X108252690Y-86385493D01*
X108149986Y-86375000D01*
X107750000Y-86375000D01*
X107750000Y-87441988D01*
X107692993Y-87409075D01*
X107565826Y-87375000D01*
X107434174Y-87375000D01*
X107307007Y-87409075D01*
X107250000Y-87441988D01*
X107250000Y-86375000D01*
X106850028Y-86375000D01*
X106850012Y-86375001D01*
X106747302Y-86385494D01*
X106580880Y-86440641D01*
X106580875Y-86440643D01*
X106431654Y-86532684D01*
X106307684Y-86656654D01*
X106215643Y-86805875D01*
X106215641Y-86805880D01*
X106160494Y-86972302D01*
X106160493Y-86972309D01*
X106150000Y-87075013D01*
X106150000Y-87625000D01*
X107066988Y-87625000D01*
X107034075Y-87682007D01*
X107000000Y-87809174D01*
X107000000Y-87940826D01*
X107034075Y-88067993D01*
X107066988Y-88125000D01*
X106150001Y-88125000D01*
X106150001Y-88674986D01*
X106160494Y-88777697D01*
X106215641Y-88944119D01*
X106215643Y-88944124D01*
X106307684Y-89093345D01*
X106431654Y-89217315D01*
X106580875Y-89309356D01*
X106580880Y-89309358D01*
X106747302Y-89364505D01*
X106747309Y-89364506D01*
X106850019Y-89374999D01*
X107249999Y-89374999D01*
X107250000Y-89374998D01*
X107250000Y-88308012D01*
X107307007Y-88340925D01*
X107434174Y-88375000D01*
X107565826Y-88375000D01*
X107692993Y-88340925D01*
X107750000Y-88308012D01*
X107750000Y-89374999D01*
X108149972Y-89374999D01*
X108149986Y-89374998D01*
X108252697Y-89364505D01*
X108419119Y-89309358D01*
X108419124Y-89309356D01*
X108568345Y-89217315D01*
X108692317Y-89093343D01*
X108761729Y-88980808D01*
X108813677Y-88934083D01*
X108882639Y-88922860D01*
X108946721Y-88950703D01*
X108953363Y-88956664D01*
X108955038Y-88958280D01*
X108955043Y-88958286D01*
X108955048Y-88958290D01*
X108955050Y-88958292D01*
X109137370Y-89108416D01*
X109137377Y-89108421D01*
X109227805Y-89161619D01*
X109340940Y-89228176D01*
X109560738Y-89314616D01*
X109673784Y-89339612D01*
X109673783Y-89339612D01*
X109676140Y-89340133D01*
X109679627Y-89340904D01*
X109683757Y-89342246D01*
X109690590Y-89343328D01*
X109791351Y-89365608D01*
X109855993Y-89369525D01*
X109893713Y-89375500D01*
X109954569Y-89375500D01*
X110027103Y-89379896D01*
X110072495Y-89375500D01*
X110106287Y-89375500D01*
X110159467Y-89367077D01*
X110262187Y-89357129D01*
X110262190Y-89357128D01*
X110262192Y-89357128D01*
X110490811Y-89297867D01*
X110490810Y-89297867D01*
X110490815Y-89297866D01*
X110707357Y-89203568D01*
X110906482Y-89076555D01*
X111083286Y-88919957D01*
X111233417Y-88737629D01*
X111353176Y-88534060D01*
X111439616Y-88314262D01*
X111490608Y-88083649D01*
X111647007Y-85503049D01*
X111655138Y-85397579D01*
X111654147Y-85385247D01*
X111654676Y-85376525D01*
X111654677Y-85376522D01*
X111654677Y-85376519D01*
X111654896Y-85372908D01*
X111654895Y-85372902D01*
X111654896Y-85372897D01*
X111644694Y-85267565D01*
X111636228Y-85162153D01*
X111633322Y-85150134D01*
X111632129Y-85137814D01*
X111605576Y-85035379D01*
X111580723Y-84932584D01*
X111575970Y-84921161D01*
X111572866Y-84909186D01*
X111531021Y-84813098D01*
X111530237Y-84811254D01*
X111489989Y-84714524D01*
X111483505Y-84703981D01*
X111478568Y-84692644D01*
X111421705Y-84603496D01*
X111366259Y-84513343D01*
X111358205Y-84503943D01*
X111351555Y-84493518D01*
X111281455Y-84414373D01*
X111212582Y-84333995D01*
X111212577Y-84333989D01*
X111209805Y-84331630D01*
X111203154Y-84325968D01*
X111194957Y-84316714D01*
X111113357Y-84249524D01*
X111112633Y-84248908D01*
X111112573Y-84248858D01*
X111032738Y-84180894D01*
X111032734Y-84180891D01*
X111029633Y-84178998D01*
X111029633Y-84178997D01*
X111022175Y-84174443D01*
X111012629Y-84166583D01*
X110921465Y-84112951D01*
X110920536Y-84112384D01*
X110554980Y-83889179D01*
X110385632Y-83785777D01*
X116949500Y-83785777D01*
X116949500Y-85414208D01*
X116949501Y-85414223D01*
X116959904Y-85546413D01*
X116959905Y-85546420D01*
X117014902Y-85764678D01*
X117014903Y-85764681D01*
X117107991Y-85969622D01*
X117107997Y-85969632D01*
X117236174Y-86154645D01*
X117236178Y-86154650D01*
X117236181Y-86154654D01*
X117395346Y-86313819D01*
X117395350Y-86313822D01*
X117395354Y-86313825D01*
X117518440Y-86399099D01*
X117580374Y-86442007D01*
X117785317Y-86535096D01*
X117785321Y-86535097D01*
X118003579Y-86590094D01*
X118003581Y-86590094D01*
X118003588Y-86590096D01*
X118135783Y-86600500D01*
X119764216Y-86600499D01*
X119896412Y-86590096D01*
X120114683Y-86535096D01*
X120319626Y-86442007D01*
X120504654Y-86313819D01*
X120663819Y-86154654D01*
X120792007Y-85969626D01*
X120885096Y-85764683D01*
X120940096Y-85546412D01*
X120950500Y-85414217D01*
X120950499Y-83785784D01*
X120940096Y-83653588D01*
X120906433Y-83519996D01*
X120885097Y-83435321D01*
X120885096Y-83435318D01*
X120841576Y-83339506D01*
X120792007Y-83230374D01*
X120725564Y-83134469D01*
X120663825Y-83045354D01*
X120663822Y-83045350D01*
X120663819Y-83045346D01*
X120504654Y-82886181D01*
X120504650Y-82886178D01*
X120504645Y-82886174D01*
X120319632Y-82757997D01*
X120319630Y-82757995D01*
X120319626Y-82757993D01*
X120307966Y-82752697D01*
X120114681Y-82664903D01*
X120114678Y-82664902D01*
X119896420Y-82609905D01*
X119896413Y-82609904D01*
X119852347Y-82606436D01*
X119764217Y-82599500D01*
X119764215Y-82599500D01*
X118135791Y-82599500D01*
X118135776Y-82599501D01*
X118003586Y-82609904D01*
X118003579Y-82609905D01*
X117785321Y-82664902D01*
X117785318Y-82664903D01*
X117580377Y-82757991D01*
X117580367Y-82757997D01*
X117395354Y-82886174D01*
X117395342Y-82886184D01*
X117236184Y-83045342D01*
X117236174Y-83045354D01*
X117107997Y-83230367D01*
X117107991Y-83230377D01*
X117014903Y-83435318D01*
X117014902Y-83435321D01*
X116959905Y-83653579D01*
X116959904Y-83653586D01*
X116949500Y-83785777D01*
X110385632Y-83785777D01*
X107959606Y-82304469D01*
X104609054Y-80258655D01*
X104562096Y-80206919D01*
X104550562Y-80138008D01*
X104573701Y-80079467D01*
X105076917Y-79393713D01*
X125154500Y-79393713D01*
X125154500Y-79606287D01*
X125159500Y-79637853D01*
X125187753Y-79816239D01*
X125253444Y-80018414D01*
X125349951Y-80207820D01*
X125474890Y-80379786D01*
X125614068Y-80518964D01*
X125647553Y-80580287D01*
X125642569Y-80649979D01*
X125600697Y-80705912D01*
X125591484Y-80712183D01*
X125436659Y-80807680D01*
X125436655Y-80807683D01*
X125312684Y-80931654D01*
X125220643Y-81080875D01*
X125220641Y-81080880D01*
X125165494Y-81247302D01*
X125165493Y-81247309D01*
X125155000Y-81350013D01*
X125155000Y-81750000D01*
X126221988Y-81750000D01*
X126189075Y-81807007D01*
X126155000Y-81934174D01*
X126155000Y-82065826D01*
X126189075Y-82192993D01*
X126221988Y-82250000D01*
X125155001Y-82250000D01*
X125155001Y-82649986D01*
X125165494Y-82752697D01*
X125220641Y-82919119D01*
X125220643Y-82919124D01*
X125312684Y-83068345D01*
X125436654Y-83192315D01*
X125585875Y-83284356D01*
X125585880Y-83284358D01*
X125752302Y-83339505D01*
X125752309Y-83339506D01*
X125855019Y-83349999D01*
X126404999Y-83349999D01*
X126405000Y-83349998D01*
X126405000Y-82433012D01*
X126462007Y-82465925D01*
X126589174Y-82500000D01*
X126720826Y-82500000D01*
X126847993Y-82465925D01*
X126905000Y-82433012D01*
X126905000Y-83349999D01*
X127454972Y-83349999D01*
X127454986Y-83349998D01*
X127557697Y-83339505D01*
X127724119Y-83284358D01*
X127724124Y-83284356D01*
X127873345Y-83192315D01*
X127997315Y-83068345D01*
X128089356Y-82919124D01*
X128089358Y-82919119D01*
X128144505Y-82752697D01*
X128144506Y-82752690D01*
X128154999Y-82649986D01*
X128155000Y-82649973D01*
X128155000Y-82250000D01*
X127088012Y-82250000D01*
X127120925Y-82192993D01*
X127155000Y-82065826D01*
X127155000Y-81934174D01*
X127120925Y-81807007D01*
X127088012Y-81750000D01*
X128154999Y-81750000D01*
X128154999Y-81350028D01*
X128154998Y-81350013D01*
X128144505Y-81247302D01*
X128089358Y-81080880D01*
X128089356Y-81080875D01*
X127997315Y-80931654D01*
X127873345Y-80807684D01*
X127718515Y-80712184D01*
X127671791Y-80660236D01*
X127660568Y-80591273D01*
X127688412Y-80527191D01*
X127695909Y-80518986D01*
X127835104Y-80379792D01*
X127960051Y-80207816D01*
X128056557Y-80018412D01*
X128122246Y-79816243D01*
X128155500Y-79606287D01*
X128155500Y-79393713D01*
X128122246Y-79183757D01*
X128056557Y-78981588D01*
X127960051Y-78792184D01*
X127960049Y-78792181D01*
X127960048Y-78792179D01*
X127835109Y-78620213D01*
X127684786Y-78469890D01*
X127512820Y-78344951D01*
X127323414Y-78248444D01*
X127323413Y-78248443D01*
X127323412Y-78248443D01*
X127121243Y-78182754D01*
X127121241Y-78182753D01*
X127121240Y-78182753D01*
X126959957Y-78157208D01*
X126911287Y-78149500D01*
X126398713Y-78149500D01*
X126350042Y-78157208D01*
X126188760Y-78182753D01*
X125986585Y-78248444D01*
X125797179Y-78344951D01*
X125625213Y-78469890D01*
X125474890Y-78620213D01*
X125349951Y-78792179D01*
X125253444Y-78981585D01*
X125187753Y-79183760D01*
X125166891Y-79315481D01*
X125154500Y-79393713D01*
X105076917Y-79393713D01*
X106908295Y-76898013D01*
X107430943Y-76185777D01*
X116949500Y-76185777D01*
X116949500Y-77814208D01*
X116949501Y-77814223D01*
X116959904Y-77946413D01*
X116959905Y-77946420D01*
X117014902Y-78164678D01*
X117014903Y-78164681D01*
X117107991Y-78369622D01*
X117107997Y-78369632D01*
X117236174Y-78554645D01*
X117236178Y-78554650D01*
X117236181Y-78554654D01*
X117395346Y-78713819D01*
X117395350Y-78713822D01*
X117395354Y-78713825D01*
X117508452Y-78792179D01*
X117580374Y-78842007D01*
X117785317Y-78935096D01*
X117785321Y-78935097D01*
X118003579Y-78990094D01*
X118003581Y-78990094D01*
X118003588Y-78990096D01*
X118135783Y-79000500D01*
X119764216Y-79000499D01*
X119896412Y-78990096D01*
X120114683Y-78935096D01*
X120319626Y-78842007D01*
X120504654Y-78713819D01*
X120663819Y-78554654D01*
X120792007Y-78369626D01*
X120885096Y-78164683D01*
X120940096Y-77946412D01*
X120950500Y-77814217D01*
X120950499Y-76185784D01*
X120940096Y-76053588D01*
X120885096Y-75835317D01*
X120792007Y-75630374D01*
X120719672Y-75525965D01*
X120663825Y-75445354D01*
X120663822Y-75445350D01*
X120663819Y-75445346D01*
X120504654Y-75286181D01*
X120504650Y-75286178D01*
X120504645Y-75286174D01*
X120319632Y-75157997D01*
X120319630Y-75157995D01*
X120319626Y-75157993D01*
X120114683Y-75064904D01*
X120114681Y-75064903D01*
X120114678Y-75064902D01*
X119896420Y-75009905D01*
X119896413Y-75009904D01*
X119852347Y-75006436D01*
X119764217Y-74999500D01*
X119764215Y-74999500D01*
X118135791Y-74999500D01*
X118135776Y-74999501D01*
X118003586Y-75009904D01*
X118003579Y-75009905D01*
X117785321Y-75064902D01*
X117785318Y-75064903D01*
X117580377Y-75157991D01*
X117580367Y-75157997D01*
X117395354Y-75286174D01*
X117395342Y-75286184D01*
X117236184Y-75445342D01*
X117236174Y-75445354D01*
X117107997Y-75630367D01*
X117107991Y-75630377D01*
X117014903Y-75835318D01*
X117014902Y-75835321D01*
X116959905Y-76053579D01*
X116959904Y-76053586D01*
X116949500Y-76185777D01*
X107430943Y-76185777D01*
X107486558Y-76109988D01*
X107829596Y-75642514D01*
X107829595Y-75642514D01*
X107829599Y-75642510D01*
X107937821Y-75432580D01*
X108011870Y-75208304D01*
X108049923Y-74975207D01*
X108051043Y-74739025D01*
X108015202Y-74505576D01*
X107943284Y-74280608D01*
X107943283Y-74280606D01*
X107943281Y-74280601D01*
X107837057Y-74069660D01*
X107816871Y-74041598D01*
X107699140Y-73877928D01*
X107532927Y-73710131D01*
X107532921Y-73710126D01*
X107532916Y-73710122D01*
X107342514Y-73570403D01*
X107132578Y-73462178D01*
X107132571Y-73462175D01*
X106908302Y-73388129D01*
X106675205Y-73350076D01*
X106439026Y-73348957D01*
X106439025Y-73348957D01*
X106409943Y-73353421D01*
X106205583Y-73384796D01*
X106205580Y-73384797D01*
X105980605Y-73456717D01*
X105980601Y-73456718D01*
X105769660Y-73562942D01*
X105577928Y-73700859D01*
X105410133Y-73867071D01*
X105410122Y-73867083D01*
X104091659Y-75663813D01*
X104036128Y-75706216D01*
X103966487Y-75711865D01*
X103904847Y-75678967D01*
X103888586Y-75659344D01*
X103799464Y-75525965D01*
X103799461Y-75525961D01*
X103674038Y-75400538D01*
X103674034Y-75400535D01*
X103526553Y-75301990D01*
X103526540Y-75301983D01*
X103362667Y-75234106D01*
X103362658Y-75234103D01*
X103188694Y-75199500D01*
X103188691Y-75199500D01*
X100424362Y-75199500D01*
X100357323Y-75179815D01*
X100336681Y-75163181D01*
X96900023Y-71726522D01*
X96817214Y-71643713D01*
X117299500Y-71643713D01*
X117299500Y-71856287D01*
X117332754Y-72066243D01*
X117343690Y-72099901D01*
X117398444Y-72268414D01*
X117494951Y-72457820D01*
X117619890Y-72629786D01*
X117770213Y-72780109D01*
X117942179Y-72905048D01*
X117942181Y-72905049D01*
X117942184Y-72905051D01*
X118131588Y-73001557D01*
X118333757Y-73067246D01*
X118543713Y-73100500D01*
X118543714Y-73100500D01*
X119056286Y-73100500D01*
X119056287Y-73100500D01*
X119266243Y-73067246D01*
X119468412Y-73001557D01*
X119657816Y-72905051D01*
X119679789Y-72889086D01*
X119829786Y-72780109D01*
X119829788Y-72780106D01*
X119829792Y-72780104D01*
X119980104Y-72629792D01*
X119983036Y-72625757D01*
X119983038Y-72625755D01*
X119983039Y-72625753D01*
X120030111Y-72560961D01*
X120105051Y-72457816D01*
X120201557Y-72268412D01*
X120267246Y-72066243D01*
X120300500Y-71856287D01*
X120300500Y-71643713D01*
X120267246Y-71433757D01*
X120201557Y-71231588D01*
X120105051Y-71042184D01*
X120105049Y-71042181D01*
X120105048Y-71042179D01*
X119980109Y-70870213D01*
X119840931Y-70731035D01*
X119807446Y-70669712D01*
X119812430Y-70600020D01*
X119854302Y-70544087D01*
X119863516Y-70537815D01*
X120018343Y-70442317D01*
X120142315Y-70318345D01*
X120234356Y-70169124D01*
X120234358Y-70169119D01*
X120289505Y-70002697D01*
X120289506Y-70002690D01*
X120299999Y-69899986D01*
X120300000Y-69899973D01*
X120300000Y-69893713D01*
X125154500Y-69893713D01*
X125154500Y-70106286D01*
X125177347Y-70250540D01*
X125187754Y-70316243D01*
X125228717Y-70442315D01*
X125253444Y-70518414D01*
X125349951Y-70707820D01*
X125474890Y-70879786D01*
X125614068Y-71018964D01*
X125647553Y-71080287D01*
X125642569Y-71149979D01*
X125600697Y-71205912D01*
X125591484Y-71212183D01*
X125436659Y-71307680D01*
X125436655Y-71307683D01*
X125312684Y-71431654D01*
X125220643Y-71580875D01*
X125220641Y-71580880D01*
X125165494Y-71747302D01*
X125165493Y-71747309D01*
X125155000Y-71850013D01*
X125155000Y-72250000D01*
X126221988Y-72250000D01*
X126189075Y-72307007D01*
X126155000Y-72434174D01*
X126155000Y-72565826D01*
X126189075Y-72692993D01*
X126221988Y-72750000D01*
X125155001Y-72750000D01*
X125155001Y-73149986D01*
X125165494Y-73252697D01*
X125220641Y-73419119D01*
X125220643Y-73419124D01*
X125312684Y-73568345D01*
X125436654Y-73692315D01*
X125585875Y-73784356D01*
X125585880Y-73784358D01*
X125752302Y-73839505D01*
X125752309Y-73839506D01*
X125855019Y-73849999D01*
X126404999Y-73849999D01*
X126405000Y-73849998D01*
X126405000Y-72933012D01*
X126462007Y-72965925D01*
X126589174Y-73000000D01*
X126720826Y-73000000D01*
X126847993Y-72965925D01*
X126905000Y-72933012D01*
X126905000Y-73849999D01*
X127454972Y-73849999D01*
X127454986Y-73849998D01*
X127557697Y-73839505D01*
X127724119Y-73784358D01*
X127724124Y-73784356D01*
X127873345Y-73692315D01*
X127997315Y-73568345D01*
X128089356Y-73419124D01*
X128089358Y-73419119D01*
X128144505Y-73252697D01*
X128144506Y-73252690D01*
X128154999Y-73149986D01*
X128155000Y-73149973D01*
X128155000Y-72750000D01*
X127088012Y-72750000D01*
X127120925Y-72692993D01*
X127155000Y-72565826D01*
X127155000Y-72434174D01*
X127120925Y-72307007D01*
X127088012Y-72250000D01*
X128154999Y-72250000D01*
X128154999Y-71850028D01*
X128154998Y-71850013D01*
X128144505Y-71747302D01*
X128089358Y-71580880D01*
X128089356Y-71580875D01*
X127997315Y-71431654D01*
X127873345Y-71307684D01*
X127718515Y-71212184D01*
X127671791Y-71160236D01*
X127660568Y-71091273D01*
X127688412Y-71027191D01*
X127695909Y-71018986D01*
X127835104Y-70879792D01*
X127960051Y-70707816D01*
X128056557Y-70518412D01*
X128122246Y-70316243D01*
X128155500Y-70106287D01*
X128155500Y-69893713D01*
X128122246Y-69683757D01*
X128056557Y-69481588D01*
X127960051Y-69292184D01*
X127960049Y-69292181D01*
X127960048Y-69292179D01*
X127835109Y-69120213D01*
X127684786Y-68969890D01*
X127512820Y-68844951D01*
X127323414Y-68748444D01*
X127323413Y-68748443D01*
X127323412Y-68748443D01*
X127121243Y-68682754D01*
X127121241Y-68682753D01*
X127121240Y-68682753D01*
X126959957Y-68657208D01*
X126911287Y-68649500D01*
X126398713Y-68649500D01*
X126350042Y-68657208D01*
X126188760Y-68682753D01*
X125986585Y-68748444D01*
X125797179Y-68844951D01*
X125625213Y-68969890D01*
X125474890Y-69120213D01*
X125349951Y-69292179D01*
X125253444Y-69481585D01*
X125187753Y-69683760D01*
X125154500Y-69893713D01*
X120300000Y-69893713D01*
X120300000Y-69500000D01*
X119233012Y-69500000D01*
X119265925Y-69442993D01*
X119300000Y-69315826D01*
X119300000Y-69184174D01*
X119265925Y-69057007D01*
X119233012Y-69000000D01*
X120299999Y-69000000D01*
X120299999Y-68600028D01*
X120299998Y-68600013D01*
X120289505Y-68497302D01*
X120234358Y-68330880D01*
X120234356Y-68330875D01*
X120142315Y-68181654D01*
X120018345Y-68057684D01*
X119869124Y-67965643D01*
X119869119Y-67965641D01*
X119702697Y-67910494D01*
X119702690Y-67910493D01*
X119599986Y-67900000D01*
X119050000Y-67900000D01*
X119050000Y-68816988D01*
X118992993Y-68784075D01*
X118865826Y-68750000D01*
X118734174Y-68750000D01*
X118607007Y-68784075D01*
X118550000Y-68816988D01*
X118550000Y-67900000D01*
X118000028Y-67900000D01*
X118000012Y-67900001D01*
X117897302Y-67910494D01*
X117730880Y-67965641D01*
X117730875Y-67965643D01*
X117581654Y-68057684D01*
X117457684Y-68181654D01*
X117365643Y-68330875D01*
X117365641Y-68330880D01*
X117310494Y-68497302D01*
X117310493Y-68497309D01*
X117300000Y-68600013D01*
X117300000Y-69000000D01*
X118366988Y-69000000D01*
X118334075Y-69057007D01*
X118300000Y-69184174D01*
X118300000Y-69315826D01*
X118334075Y-69442993D01*
X118366988Y-69500000D01*
X117300001Y-69500000D01*
X117300001Y-69899986D01*
X117310494Y-70002697D01*
X117365641Y-70169119D01*
X117365643Y-70169124D01*
X117457684Y-70318345D01*
X117581654Y-70442315D01*
X117736484Y-70537815D01*
X117783208Y-70589763D01*
X117794431Y-70658726D01*
X117766587Y-70722808D01*
X117759069Y-70731035D01*
X117619889Y-70870215D01*
X117494951Y-71042179D01*
X117398444Y-71231585D01*
X117332753Y-71433760D01*
X117309452Y-71580880D01*
X117299500Y-71643713D01*
X96817214Y-71643713D01*
X95424041Y-70250540D01*
X95424034Y-70250534D01*
X95276548Y-70151988D01*
X95112666Y-70084105D01*
X95112658Y-70084103D01*
X94938696Y-70049500D01*
X94938692Y-70049500D01*
X94761308Y-70049500D01*
X94761303Y-70049500D01*
X94587341Y-70084103D01*
X94587333Y-70084105D01*
X94423451Y-70151988D01*
X94275965Y-70250534D01*
X94275958Y-70250540D01*
X94150540Y-70375958D01*
X94150534Y-70375965D01*
X94051988Y-70523451D01*
X93984105Y-70687333D01*
X93984103Y-70687341D01*
X93949500Y-70861303D01*
X93949500Y-71038696D01*
X93984103Y-71212658D01*
X93984105Y-71212666D01*
X94051988Y-71376548D01*
X94150534Y-71524034D01*
X94150540Y-71524041D01*
X99425960Y-76799461D01*
X99425964Y-76799464D01*
X99573446Y-76898009D01*
X99573452Y-76898012D01*
X99573453Y-76898013D01*
X99737334Y-76965895D01*
X99911303Y-77000499D01*
X99911307Y-77000500D01*
X99911308Y-77000500D01*
X99911309Y-77000500D01*
X102865986Y-77000500D01*
X102933025Y-77020185D01*
X102978780Y-77072989D01*
X102988724Y-77142147D01*
X102965957Y-77197858D01*
X102575186Y-77730380D01*
X101174658Y-79638941D01*
X101174657Y-79638944D01*
X101142599Y-79682629D01*
X101137051Y-79689644D01*
X101098527Y-79734899D01*
X101072942Y-79776800D01*
X101067083Y-79785538D01*
X100462402Y-80609564D01*
X100420070Y-80645993D01*
X96647963Y-82626350D01*
X96647955Y-82626355D01*
X96458594Y-82767497D01*
X96458579Y-82767510D01*
X96419838Y-82807209D01*
X96358928Y-82841440D01*
X96289181Y-82837306D01*
X96232741Y-82796120D01*
X96207693Y-82732780D01*
X95385992Y-74403708D01*
X95328751Y-74215123D01*
X95250971Y-74069661D01*
X95235821Y-74041327D01*
X95235819Y-74041324D01*
X95110775Y-73889008D01*
X95110770Y-73889004D01*
X95110768Y-73889001D01*
X94958624Y-73764180D01*
X94958401Y-73763997D01*
X94784579Y-73671124D01*
X94784578Y-73671123D01*
X94784577Y-73671123D01*
X94595973Y-73613945D01*
X94595970Y-73613944D01*
X94595971Y-73613944D01*
X94421226Y-73596762D01*
X94399838Y-73594659D01*
X94399837Y-73594659D01*
X94203709Y-73614007D01*
X94083143Y-73650602D01*
X94015123Y-73671249D01*
X94015121Y-73671249D01*
X94015121Y-73671250D01*
X93841327Y-73764178D01*
X93841324Y-73764180D01*
X93689008Y-73889224D01*
X93689002Y-73889231D01*
X93563997Y-74041598D01*
X93471124Y-74215420D01*
X93413944Y-74404030D01*
X93394659Y-74600162D01*
X90087268Y-74600162D01*
X90132516Y-73825185D01*
X90132671Y-73822908D01*
X90282946Y-71890888D01*
X90283140Y-71888677D01*
X90470675Y-69959979D01*
X90470926Y-69957645D01*
X90477659Y-69899986D01*
X90695645Y-68033027D01*
X90695930Y-68030776D01*
X90957777Y-66110718D01*
X90958117Y-66108398D01*
X90966107Y-66057216D01*
X91256952Y-64193929D01*
X91257342Y-64191581D01*
X91273642Y-64098929D01*
X91379772Y-63495675D01*
X94594500Y-63495675D01*
X94594500Y-63704324D01*
X94627137Y-63910389D01*
X94691612Y-64108820D01*
X94770204Y-64263065D01*
X94786330Y-64294714D01*
X94908965Y-64463505D01*
X95056495Y-64611035D01*
X95225286Y-64733670D01*
X95304258Y-64773908D01*
X95411179Y-64828387D01*
X95411181Y-64828387D01*
X95411184Y-64828389D01*
X95479238Y-64850501D01*
X95609610Y-64892862D01*
X95815676Y-64925500D01*
X95815681Y-64925500D01*
X96024324Y-64925500D01*
X96230389Y-64892862D01*
X96231897Y-64892372D01*
X96428816Y-64828389D01*
X96614714Y-64733670D01*
X96783505Y-64611035D01*
X96931035Y-64463505D01*
X97053670Y-64294714D01*
X97079796Y-64243437D01*
X97127769Y-64192642D01*
X97195590Y-64175846D01*
X97261725Y-64198383D01*
X97300766Y-64243437D01*
X97326759Y-64294451D01*
X97362627Y-64343818D01*
X97362627Y-64343819D01*
X97940294Y-63766151D01*
X97952141Y-63810362D01*
X98023891Y-63934638D01*
X98125362Y-64036109D01*
X98249638Y-64107859D01*
X98293847Y-64119704D01*
X97716179Y-64697371D01*
X97716180Y-64697372D01*
X97765543Y-64733236D01*
X97765556Y-64733244D01*
X97951374Y-64827924D01*
X98149722Y-64892372D01*
X98151225Y-64892733D01*
X98151737Y-64893027D01*
X98154362Y-64893880D01*
X98154183Y-64894430D01*
X98211822Y-64927515D01*
X98243995Y-64989536D01*
X98237530Y-65059106D01*
X98222084Y-65086921D01*
X98172386Y-65154292D01*
X98063641Y-65363947D01*
X98063640Y-65363951D01*
X97989033Y-65588031D01*
X97989031Y-65588038D01*
X97950395Y-65821033D01*
X97948684Y-66057216D01*
X97983937Y-66290745D01*
X97983938Y-66290749D01*
X97983939Y-66290754D01*
X98025655Y-66422382D01*
X98055293Y-66515896D01*
X98055296Y-66515904D01*
X98160990Y-66727112D01*
X98160992Y-66727115D01*
X98298429Y-66919190D01*
X98298430Y-66919191D01*
X98464222Y-67087404D01*
X98654288Y-67227611D01*
X98654291Y-67227612D01*
X98654291Y-67227613D01*
X98863947Y-67336358D01*
X99088036Y-67410968D01*
X99321038Y-67449605D01*
X106237423Y-67499723D01*
X106239563Y-67499758D01*
X106246207Y-67499925D01*
X106268982Y-67502958D01*
X106318312Y-67501739D01*
X106321385Y-67501817D01*
X106321781Y-67501944D01*
X106326154Y-67502029D01*
X106351847Y-67503669D01*
X106372305Y-67504975D01*
X106372307Y-67504974D01*
X106372311Y-67504975D01*
X106408480Y-67501587D01*
X106413890Y-67501201D01*
X106417407Y-67501026D01*
X106457216Y-67501316D01*
X106479497Y-67497951D01*
X106485714Y-67497644D01*
X106486186Y-67497757D01*
X106488786Y-67497530D01*
X106505094Y-67497128D01*
X106550587Y-67488765D01*
X106561417Y-67487267D01*
X106607466Y-67482956D01*
X106607472Y-67482954D01*
X106607475Y-67482954D01*
X106642633Y-67473959D01*
X106647938Y-67472725D01*
X106651374Y-67472004D01*
X106690753Y-67466061D01*
X106712235Y-67459251D01*
X106718330Y-67457975D01*
X106718814Y-67458013D01*
X106721351Y-67457381D01*
X106737382Y-67454435D01*
X106737382Y-67454434D01*
X106737387Y-67454434D01*
X106781003Y-67439061D01*
X106791468Y-67435884D01*
X108986282Y-66874421D01*
X109203123Y-66780813D01*
X109402651Y-66654436D01*
X109473571Y-66592022D01*
X109579947Y-66498408D01*
X109579948Y-66498406D01*
X109579953Y-66498402D01*
X109730664Y-66316552D01*
X109851071Y-66113365D01*
X109938210Y-65893843D01*
X109989936Y-65663394D01*
X109994744Y-65588036D01*
X110004975Y-65427695D01*
X110004974Y-65427692D01*
X110004975Y-65427689D01*
X109982955Y-65192534D01*
X109924421Y-64963718D01*
X109830813Y-64746877D01*
X109744772Y-64611032D01*
X109704436Y-64547347D01*
X109548408Y-64370052D01*
X109548406Y-64370051D01*
X109548404Y-64370049D01*
X109548402Y-64370047D01*
X109366552Y-64219336D01*
X109241110Y-64145000D01*
X109163371Y-64098932D01*
X109163367Y-64098930D01*
X109163365Y-64098929D01*
X108943843Y-64011790D01*
X108943839Y-64011789D01*
X108943841Y-64011789D01*
X108744487Y-63967043D01*
X108713394Y-63960064D01*
X108713393Y-63960063D01*
X108713394Y-63960063D01*
X108477695Y-63945024D01*
X108242539Y-63967043D01*
X108242536Y-63967043D01*
X107954382Y-64040756D01*
X107884555Y-64038299D01*
X107827141Y-63998482D01*
X107800369Y-63933945D01*
X107799689Y-63923698D01*
X107650927Y-57898766D01*
X107652823Y-57816533D01*
X107648016Y-57780882D01*
X107647128Y-57744906D01*
X107632254Y-57663980D01*
X107621264Y-57582467D01*
X107610939Y-57548006D01*
X107604434Y-57512613D01*
X107577083Y-57435008D01*
X107553477Y-57356220D01*
X107537889Y-57323800D01*
X107525927Y-57289859D01*
X107507665Y-57256106D01*
X107488186Y-57220102D01*
X107488186Y-57220101D01*
X107486770Y-57217484D01*
X107451132Y-57143362D01*
X107430661Y-57113776D01*
X107413540Y-57082129D01*
X107365358Y-57019142D01*
X107361876Y-57014358D01*
X107356275Y-57006263D01*
X107316749Y-56949136D01*
X107291900Y-56923114D01*
X107270040Y-56894537D01*
X107210448Y-56837817D01*
X107153636Y-56778323D01*
X107139697Y-56767696D01*
X107130417Y-56760621D01*
X107120110Y-56751832D01*
X107098963Y-56731705D01*
X107098961Y-56731703D01*
X107033671Y-56686686D01*
X107031218Y-56684994D01*
X106965811Y-56635130D01*
X106934147Y-56618065D01*
X106928563Y-56614215D01*
X106928556Y-56614211D01*
X106913212Y-56603632D01*
X106904516Y-56597636D01*
X106904515Y-56597635D01*
X106904513Y-56597634D01*
X106832970Y-56563379D01*
X106832970Y-56563378D01*
X106830287Y-56562093D01*
X106757897Y-56523081D01*
X106723947Y-56511178D01*
X106691492Y-56495638D01*
X106691484Y-56495635D01*
X106691485Y-56495635D01*
X106615461Y-56472991D01*
X106615461Y-56472992D01*
X106612623Y-56472146D01*
X106535015Y-56444937D01*
X106499623Y-56438491D01*
X106493125Y-56436556D01*
X106493122Y-56436555D01*
X106486931Y-56434711D01*
X106465134Y-56428219D01*
X106386515Y-56417749D01*
X106386515Y-56417748D01*
X106383561Y-56417354D01*
X106302653Y-56402621D01*
X106266683Y-56401791D01*
X106259955Y-56400895D01*
X106259954Y-56400894D01*
X106231030Y-56397043D01*
X106231022Y-56397042D01*
X106231018Y-56397042D01*
X106231012Y-56397042D01*
X106231010Y-56397042D01*
X106151738Y-56398998D01*
X106145824Y-56399003D01*
X106066534Y-56397176D01*
X106066533Y-56397176D01*
X106066532Y-56397176D01*
X106037595Y-56401076D01*
X106030867Y-56401983D01*
X105994906Y-56402872D01*
X105914010Y-56417739D01*
X105911070Y-56418136D01*
X101382466Y-57028736D01*
X101156228Y-57096518D01*
X101156220Y-57096522D01*
X100943365Y-57198865D01*
X100943358Y-57198870D01*
X100749138Y-57333249D01*
X100578325Y-57496361D01*
X100435130Y-57684186D01*
X100435130Y-57684187D01*
X100435129Y-57684189D01*
X100406793Y-57736768D01*
X100323080Y-57892103D01*
X100244936Y-58114984D01*
X100202620Y-58347351D01*
X100202620Y-58347355D01*
X100197176Y-58583468D01*
X100228735Y-58817527D01*
X100228737Y-58817536D01*
X100296518Y-59043771D01*
X100296522Y-59043779D01*
X100398865Y-59256634D01*
X100398868Y-59256638D01*
X100533251Y-59450864D01*
X100696361Y-59621674D01*
X100696360Y-59621674D01*
X100696364Y-59621677D01*
X100884189Y-59764871D01*
X101092103Y-59876919D01*
X101314984Y-59955063D01*
X101547346Y-59997379D01*
X101783467Y-60002824D01*
X102135136Y-59955407D01*
X102204203Y-59965957D01*
X102256604Y-60012173D01*
X102275699Y-60079383D01*
X102269635Y-60116613D01*
X102211523Y-60295461D01*
X102211523Y-60295464D01*
X102194793Y-60401094D01*
X102179500Y-60497648D01*
X102179500Y-60702352D01*
X102180368Y-60707832D01*
X102211522Y-60904534D01*
X102274781Y-61099223D01*
X102367715Y-61281613D01*
X102488028Y-61447213D01*
X102632786Y-61591971D01*
X102781478Y-61700000D01*
X102798390Y-61712287D01*
X102914607Y-61771503D01*
X102980776Y-61805218D01*
X102980778Y-61805218D01*
X102980781Y-61805220D01*
X103085137Y-61839127D01*
X103175465Y-61868477D01*
X103276557Y-61884488D01*
X103377648Y-61900500D01*
X103377649Y-61900500D01*
X103582351Y-61900500D01*
X103582352Y-61900500D01*
X103784534Y-61868477D01*
X103979219Y-61805220D01*
X104161610Y-61712287D01*
X104254590Y-61644732D01*
X104327213Y-61591971D01*
X104327215Y-61591968D01*
X104327219Y-61591966D01*
X104471966Y-61447219D01*
X104512686Y-61391171D01*
X104568015Y-61348505D01*
X104637629Y-61342525D01*
X104699424Y-61375130D01*
X104733782Y-61435969D01*
X104736967Y-61460995D01*
X104808555Y-64360327D01*
X104790531Y-64427832D01*
X104738873Y-64474877D01*
X104683694Y-64487385D01*
X102245948Y-64469720D01*
X102179053Y-64449550D01*
X102133682Y-64396416D01*
X102124240Y-64327187D01*
X102136359Y-64289435D01*
X102228389Y-64108816D01*
X102292862Y-63910389D01*
X102298442Y-63875157D01*
X102325500Y-63704324D01*
X102325500Y-63495675D01*
X102292862Y-63289610D01*
X102228387Y-63091179D01*
X102159796Y-62956561D01*
X102133670Y-62905286D01*
X102011035Y-62736495D01*
X101863505Y-62588965D01*
X101694714Y-62466330D01*
X101657336Y-62447285D01*
X101508820Y-62371612D01*
X101310389Y-62307137D01*
X101104324Y-62274500D01*
X101104319Y-62274500D01*
X100895681Y-62274500D01*
X100895676Y-62274500D01*
X100689610Y-62307137D01*
X100491179Y-62371612D01*
X100305285Y-62466330D01*
X100136493Y-62588966D01*
X99988966Y-62736493D01*
X99866328Y-62905288D01*
X99840202Y-62956563D01*
X99792227Y-63007358D01*
X99724406Y-63024153D01*
X99658272Y-63001615D01*
X99619233Y-62956561D01*
X99593247Y-62905561D01*
X99593236Y-62905543D01*
X99557372Y-62856180D01*
X99557371Y-62856179D01*
X98979704Y-63433847D01*
X98967859Y-63389638D01*
X98896109Y-63265362D01*
X98794638Y-63163891D01*
X98670362Y-63092141D01*
X98626151Y-63080294D01*
X99203819Y-62502627D01*
X99154451Y-62466759D01*
X98968627Y-62372075D01*
X98770272Y-62307626D01*
X98564279Y-62275000D01*
X98355721Y-62275000D01*
X98149727Y-62307626D01*
X97951372Y-62372075D01*
X97765552Y-62466757D01*
X97716180Y-62502627D01*
X98293848Y-63080294D01*
X98249638Y-63092141D01*
X98125362Y-63163891D01*
X98023891Y-63265362D01*
X97952141Y-63389638D01*
X97940294Y-63433847D01*
X97362627Y-62856180D01*
X97326755Y-62905555D01*
X97300765Y-62956563D01*
X97252790Y-63007358D01*
X97184969Y-63024153D01*
X97118834Y-63001615D01*
X97079796Y-62956561D01*
X97053671Y-62905287D01*
X96972989Y-62794239D01*
X96931035Y-62736495D01*
X96783505Y-62588965D01*
X96614714Y-62466330D01*
X96577336Y-62447285D01*
X96428820Y-62371612D01*
X96230389Y-62307137D01*
X96024324Y-62274500D01*
X96024319Y-62274500D01*
X95815681Y-62274500D01*
X95815676Y-62274500D01*
X95609610Y-62307137D01*
X95411179Y-62371612D01*
X95225285Y-62466330D01*
X95056493Y-62588966D01*
X94908966Y-62736493D01*
X94786330Y-62905285D01*
X94691612Y-63091179D01*
X94627137Y-63289610D01*
X94594500Y-63495675D01*
X91379772Y-63495675D01*
X91593077Y-62283225D01*
X91593509Y-62280903D01*
X91842101Y-61011943D01*
X91874306Y-60949941D01*
X91934921Y-60915191D01*
X92004701Y-60918728D01*
X92061491Y-60959430D01*
X92081718Y-60997465D01*
X92114781Y-61099223D01*
X92207715Y-61281613D01*
X92328028Y-61447213D01*
X92472786Y-61591971D01*
X92621478Y-61700000D01*
X92638390Y-61712287D01*
X92754607Y-61771503D01*
X92820776Y-61805218D01*
X92820778Y-61805218D01*
X92820781Y-61805220D01*
X92925137Y-61839127D01*
X93015465Y-61868477D01*
X93116557Y-61884488D01*
X93217648Y-61900500D01*
X93217649Y-61900500D01*
X93422351Y-61900500D01*
X93422352Y-61900500D01*
X93624534Y-61868477D01*
X93819219Y-61805220D01*
X94001610Y-61712287D01*
X94094590Y-61644732D01*
X94167213Y-61591971D01*
X94167215Y-61591968D01*
X94167219Y-61591966D01*
X94311966Y-61447219D01*
X94311968Y-61447215D01*
X94311971Y-61447213D01*
X94388030Y-61342525D01*
X94432287Y-61281610D01*
X94525220Y-61099219D01*
X94588477Y-60904534D01*
X94620500Y-60702352D01*
X94620500Y-60497648D01*
X94597860Y-60354706D01*
X94588477Y-60295465D01*
X94525218Y-60100776D01*
X94472534Y-59997379D01*
X94432287Y-59918390D01*
X94424556Y-59907749D01*
X94311971Y-59752786D01*
X94167213Y-59608028D01*
X94001613Y-59487715D01*
X94001612Y-59487714D01*
X94001610Y-59487713D01*
X93929284Y-59450861D01*
X93819223Y-59394781D01*
X93624534Y-59331522D01*
X93449995Y-59303878D01*
X93422352Y-59299500D01*
X93217648Y-59299500D01*
X93193329Y-59303351D01*
X93015465Y-59331522D01*
X92820776Y-59394781D01*
X92638386Y-59487715D01*
X92472788Y-59608027D01*
X92336717Y-59744098D01*
X92275394Y-59777582D01*
X92205702Y-59772598D01*
X92149769Y-59730726D01*
X92125352Y-59665262D01*
X92127831Y-59630236D01*
X92375670Y-58482974D01*
X92376171Y-58480758D01*
X92821833Y-56594905D01*
X92822375Y-56592706D01*
X93304351Y-54715824D01*
X93304959Y-54713553D01*
X93475212Y-54099983D01*
X95849500Y-54099983D01*
X95849500Y-55300001D01*
X95849501Y-55300018D01*
X95860000Y-55402796D01*
X95860001Y-55402799D01*
X95869249Y-55430706D01*
X95915186Y-55569334D01*
X96007288Y-55718656D01*
X96131344Y-55842712D01*
X96280666Y-55934814D01*
X96447203Y-55989999D01*
X96549991Y-56000500D01*
X97750008Y-56000499D01*
X97852797Y-55989999D01*
X98019334Y-55934814D01*
X98168656Y-55842712D01*
X98292712Y-55718656D01*
X98384814Y-55569334D01*
X98439999Y-55402797D01*
X98450500Y-55300009D01*
X98450499Y-54597682D01*
X99350000Y-54597682D01*
X99350000Y-54802317D01*
X99382009Y-55004417D01*
X99445244Y-55199031D01*
X99538141Y-55381350D01*
X99538147Y-55381359D01*
X99570523Y-55425921D01*
X99570524Y-55425922D01*
X100250000Y-54746446D01*
X100250000Y-54752661D01*
X100277259Y-54854394D01*
X100329920Y-54945606D01*
X100404394Y-55020080D01*
X100495606Y-55072741D01*
X100597339Y-55100000D01*
X100603553Y-55100000D01*
X99924076Y-55779474D01*
X99968650Y-55811859D01*
X100150968Y-55904755D01*
X100345582Y-55967990D01*
X100547683Y-56000000D01*
X100752317Y-56000000D01*
X100954417Y-55967990D01*
X101149031Y-55904755D01*
X101331349Y-55811859D01*
X101375921Y-55779474D01*
X100696447Y-55100000D01*
X100702661Y-55100000D01*
X100804394Y-55072741D01*
X100895606Y-55020080D01*
X100970080Y-54945606D01*
X101022741Y-54854394D01*
X101050000Y-54752661D01*
X101050000Y-54746447D01*
X101729474Y-55425921D01*
X101761859Y-55381349D01*
X101854755Y-55199031D01*
X101917990Y-55004417D01*
X101950000Y-54802317D01*
X101950000Y-54597682D01*
X101917990Y-54395582D01*
X101854755Y-54200968D01*
X101819248Y-54131282D01*
X101792117Y-54078034D01*
X114649500Y-54078034D01*
X114649500Y-54421965D01*
X114683210Y-54764249D01*
X114750308Y-55101572D01*
X114850150Y-55430706D01*
X114907572Y-55569334D01*
X114969423Y-55718657D01*
X114981770Y-55748464D01*
X114981772Y-55748469D01*
X115143893Y-56051775D01*
X115143904Y-56051793D01*
X115334975Y-56337751D01*
X115334985Y-56337765D01*
X115553176Y-56603632D01*
X115796367Y-56846823D01*
X115796372Y-56846827D01*
X115796373Y-56846828D01*
X116062240Y-57065019D01*
X116348213Y-57256100D01*
X116348222Y-57256105D01*
X116348224Y-57256106D01*
X116651530Y-57418227D01*
X116651532Y-57418227D01*
X116651538Y-57418231D01*
X116969295Y-57549850D01*
X117298422Y-57649690D01*
X117298426Y-57649690D01*
X117298427Y-57649691D01*
X117573380Y-57704383D01*
X117635291Y-57736768D01*
X117669865Y-57797484D01*
X117666126Y-57867253D01*
X117625259Y-57923925D01*
X117560241Y-57949506D01*
X117549189Y-57950000D01*
X116578563Y-57950000D01*
X116364637Y-57965300D01*
X116085104Y-58026109D01*
X115817041Y-58126091D01*
X115565961Y-58263191D01*
X115565960Y-58263192D01*
X115336934Y-58434639D01*
X115336922Y-58434649D01*
X115134649Y-58636922D01*
X115134639Y-58636934D01*
X114963192Y-58865960D01*
X114963191Y-58865961D01*
X114826091Y-59117041D01*
X114726109Y-59385104D01*
X114665300Y-59664637D01*
X114650000Y-59878563D01*
X114650000Y-61200000D01*
X115913498Y-61200000D01*
X115900000Y-61302527D01*
X115900000Y-61597473D01*
X115913498Y-61700000D01*
X114650000Y-61700000D01*
X114650000Y-63021436D01*
X114665300Y-63235362D01*
X114726109Y-63514895D01*
X114826091Y-63782958D01*
X114963191Y-64034038D01*
X114963192Y-64034039D01*
X115134639Y-64263065D01*
X115134649Y-64263077D01*
X115336922Y-64465350D01*
X115336934Y-64465360D01*
X115565960Y-64636807D01*
X115565961Y-64636808D01*
X115817042Y-64773908D01*
X115817041Y-64773908D01*
X116085104Y-64873890D01*
X116364637Y-64934699D01*
X116578563Y-64949999D01*
X116578566Y-64950000D01*
X117900000Y-64950000D01*
X117900000Y-63686502D01*
X118002527Y-63700000D01*
X118297473Y-63700000D01*
X118400000Y-63686502D01*
X118400000Y-64950000D01*
X119721434Y-64950000D01*
X119721436Y-64949999D01*
X119935362Y-64934699D01*
X120214895Y-64873890D01*
X120482958Y-64773908D01*
X120734038Y-64636808D01*
X120734039Y-64636807D01*
X120963065Y-64465360D01*
X120963077Y-64465350D01*
X121165350Y-64263077D01*
X121165360Y-64263065D01*
X121336807Y-64034039D01*
X121336808Y-64034038D01*
X121473908Y-63782958D01*
X121573890Y-63514895D01*
X121634699Y-63235362D01*
X121649999Y-63021436D01*
X121650000Y-63021434D01*
X121650000Y-62505779D01*
X130199504Y-62505779D01*
X130199504Y-62794222D01*
X130199505Y-62794239D01*
X130237153Y-63080207D01*
X130237154Y-63080212D01*
X130237155Y-63080218D01*
X130293262Y-63289611D01*
X130311813Y-63358845D01*
X130311818Y-63358861D01*
X130422195Y-63625337D01*
X130422203Y-63625353D01*
X130566424Y-63875149D01*
X130566435Y-63875165D01*
X130742028Y-64104003D01*
X130742034Y-64104010D01*
X130945994Y-64307970D01*
X130946001Y-64307976D01*
X131026894Y-64370047D01*
X131174848Y-64483576D01*
X131174855Y-64483580D01*
X131424651Y-64627801D01*
X131424667Y-64627809D01*
X131691143Y-64738186D01*
X131691149Y-64738187D01*
X131691159Y-64738192D01*
X131969787Y-64812850D01*
X132255776Y-64850501D01*
X132255783Y-64850501D01*
X132544225Y-64850501D01*
X132544232Y-64850501D01*
X132830221Y-64812850D01*
X133108849Y-64738192D01*
X133108861Y-64738186D01*
X133108864Y-64738186D01*
X133375340Y-64627809D01*
X133375343Y-64627807D01*
X133375349Y-64627805D01*
X133625160Y-64483576D01*
X133854008Y-64307975D01*
X134057978Y-64104005D01*
X134233579Y-63875157D01*
X134377808Y-63625346D01*
X134394452Y-63585165D01*
X134488189Y-63358861D01*
X134488189Y-63358858D01*
X134488195Y-63358846D01*
X134562853Y-63080218D01*
X134600504Y-62794229D01*
X134600504Y-62505773D01*
X134562853Y-62219784D01*
X134488195Y-61941156D01*
X134488190Y-61941146D01*
X134488189Y-61941140D01*
X134377812Y-61674664D01*
X134377804Y-61674648D01*
X134233583Y-61424852D01*
X134233579Y-61424845D01*
X134107970Y-61261148D01*
X134057979Y-61195998D01*
X134057973Y-61195991D01*
X133854013Y-60992031D01*
X133854006Y-60992025D01*
X133625168Y-60816432D01*
X133625166Y-60816430D01*
X133625160Y-60816426D01*
X133625155Y-60816423D01*
X133625152Y-60816421D01*
X133375356Y-60672200D01*
X133375340Y-60672192D01*
X133108864Y-60561815D01*
X133108852Y-60561811D01*
X133108849Y-60561810D01*
X132830221Y-60487152D01*
X132830215Y-60487151D01*
X132830210Y-60487150D01*
X132544242Y-60449502D01*
X132544237Y-60449501D01*
X132544232Y-60449501D01*
X132255776Y-60449501D01*
X132255770Y-60449501D01*
X132255765Y-60449502D01*
X131969797Y-60487150D01*
X131969790Y-60487151D01*
X131969787Y-60487152D01*
X131921838Y-60500000D01*
X131691159Y-60561810D01*
X131691143Y-60561815D01*
X131424667Y-60672192D01*
X131424651Y-60672200D01*
X131174855Y-60816421D01*
X131174839Y-60816432D01*
X130946001Y-60992025D01*
X130945994Y-60992031D01*
X130742034Y-61195991D01*
X130742028Y-61195998D01*
X130566435Y-61424836D01*
X130566424Y-61424852D01*
X130422203Y-61674648D01*
X130422195Y-61674664D01*
X130311818Y-61941140D01*
X130311813Y-61941156D01*
X130237156Y-62219781D01*
X130237153Y-62219794D01*
X130199505Y-62505762D01*
X130199504Y-62505779D01*
X121650000Y-62505779D01*
X121650000Y-61700000D01*
X120386502Y-61700000D01*
X120400000Y-61597473D01*
X120400000Y-61302527D01*
X120386502Y-61200000D01*
X121650000Y-61200000D01*
X121650000Y-59878566D01*
X121649999Y-59878563D01*
X121634699Y-59664637D01*
X121573890Y-59385104D01*
X121473908Y-59117041D01*
X121336808Y-58865961D01*
X121336807Y-58865960D01*
X121165360Y-58636934D01*
X121165350Y-58636922D01*
X120963077Y-58434649D01*
X120963065Y-58434639D01*
X120734039Y-58263192D01*
X120734038Y-58263191D01*
X120482957Y-58126091D01*
X120482958Y-58126091D01*
X120214895Y-58026109D01*
X119935362Y-57965300D01*
X119721436Y-57950000D01*
X118750811Y-57950000D01*
X118683772Y-57930315D01*
X118638017Y-57877511D01*
X118628073Y-57808353D01*
X118657098Y-57744797D01*
X118715876Y-57707023D01*
X118726620Y-57704383D01*
X118915093Y-57666893D01*
X119001578Y-57649690D01*
X119330705Y-57549850D01*
X119648462Y-57418231D01*
X119951787Y-57256100D01*
X120237760Y-57065019D01*
X120503627Y-56846828D01*
X120746828Y-56603627D01*
X120965019Y-56337760D01*
X121156100Y-56051787D01*
X121318231Y-55748462D01*
X121449850Y-55430705D01*
X121549690Y-55101578D01*
X121616789Y-54764250D01*
X121650500Y-54421969D01*
X121650500Y-54078031D01*
X121644310Y-54015186D01*
X123799500Y-54015186D01*
X123799500Y-54284813D01*
X123829686Y-54552719D01*
X123829688Y-54552731D01*
X123889684Y-54815594D01*
X123889687Y-54815602D01*
X123978734Y-55070082D01*
X124095714Y-55312994D01*
X124095716Y-55312997D01*
X124239162Y-55541289D01*
X124407266Y-55752085D01*
X124597915Y-55942734D01*
X124808711Y-56110838D01*
X125037003Y-56254284D01*
X125279921Y-56371267D01*
X125442681Y-56428219D01*
X125534397Y-56460312D01*
X125534405Y-56460315D01*
X125534408Y-56460315D01*
X125534409Y-56460316D01*
X125730660Y-56505109D01*
X125791638Y-56539218D01*
X125824496Y-56600879D01*
X125818801Y-56670516D01*
X125776361Y-56726020D01*
X125710651Y-56749768D01*
X125703067Y-56750000D01*
X124995280Y-56750000D01*
X124862093Y-56760482D01*
X124862087Y-56760483D01*
X124642170Y-56815898D01*
X124642167Y-56815899D01*
X124435669Y-56909695D01*
X124435663Y-56909698D01*
X124249241Y-57038851D01*
X124249229Y-57038861D01*
X124088861Y-57199229D01*
X124088851Y-57199241D01*
X123959698Y-57385663D01*
X123959695Y-57385669D01*
X123865899Y-57592167D01*
X123865898Y-57592170D01*
X123810483Y-57812087D01*
X123810482Y-57812093D01*
X123800000Y-57945280D01*
X123800000Y-58900000D01*
X124872769Y-58900000D01*
X124850000Y-59043753D01*
X124850000Y-59256247D01*
X124872769Y-59400000D01*
X123800000Y-59400000D01*
X123800000Y-60354719D01*
X123810482Y-60487906D01*
X123810483Y-60487912D01*
X123865898Y-60707829D01*
X123865899Y-60707832D01*
X123959695Y-60914330D01*
X123959698Y-60914336D01*
X124088851Y-61100758D01*
X124088861Y-61100770D01*
X124249229Y-61261138D01*
X124249241Y-61261148D01*
X124435663Y-61390301D01*
X124435669Y-61390304D01*
X124642167Y-61484100D01*
X124642170Y-61484101D01*
X124862087Y-61539516D01*
X124862093Y-61539517D01*
X124995280Y-61549999D01*
X124995294Y-61550000D01*
X125950000Y-61550000D01*
X125950000Y-60477231D01*
X126093753Y-60500000D01*
X126306247Y-60500000D01*
X126450000Y-60477231D01*
X126450000Y-61550000D01*
X127404706Y-61550000D01*
X127404719Y-61549999D01*
X127537906Y-61539517D01*
X127537912Y-61539516D01*
X127757829Y-61484101D01*
X127757832Y-61484100D01*
X127964330Y-61390304D01*
X127964336Y-61390301D01*
X128150758Y-61261148D01*
X128150770Y-61261138D01*
X128311138Y-61100770D01*
X128311148Y-61100758D01*
X128440301Y-60914336D01*
X128440304Y-60914330D01*
X128534100Y-60707832D01*
X128534101Y-60707829D01*
X128589516Y-60487912D01*
X128589517Y-60487906D01*
X128599999Y-60354719D01*
X128600000Y-60354706D01*
X128600000Y-59400000D01*
X127527231Y-59400000D01*
X127550000Y-59256247D01*
X127550000Y-59043753D01*
X127527231Y-58900000D01*
X128600000Y-58900000D01*
X128600000Y-57945293D01*
X128599999Y-57945280D01*
X128589517Y-57812093D01*
X128589516Y-57812087D01*
X128534101Y-57592170D01*
X128534100Y-57592167D01*
X128440304Y-57385669D01*
X128440301Y-57385663D01*
X128311148Y-57199241D01*
X128311138Y-57199229D01*
X128150770Y-57038861D01*
X128150758Y-57038851D01*
X127964336Y-56909698D01*
X127964330Y-56909695D01*
X127757832Y-56815899D01*
X127757829Y-56815898D01*
X127537912Y-56760483D01*
X127537906Y-56760482D01*
X127404719Y-56750000D01*
X126696933Y-56750000D01*
X126629894Y-56730315D01*
X126584139Y-56677511D01*
X126574195Y-56608353D01*
X126603220Y-56544797D01*
X126661998Y-56507023D01*
X126669336Y-56505109D01*
X126865591Y-56460316D01*
X127120079Y-56371267D01*
X127362997Y-56254284D01*
X127591289Y-56110838D01*
X127802085Y-55942734D01*
X127992734Y-55752085D01*
X128160838Y-55541289D01*
X128304284Y-55312997D01*
X128421267Y-55070079D01*
X128510316Y-54815591D01*
X128570312Y-54552732D01*
X128600500Y-54284809D01*
X128600500Y-54015191D01*
X128570312Y-53747268D01*
X128510316Y-53484409D01*
X128491980Y-53432009D01*
X128480228Y-53398422D01*
X128421267Y-53229921D01*
X128304284Y-52987003D01*
X128160838Y-52758711D01*
X127992734Y-52547915D01*
X127802085Y-52357266D01*
X127591289Y-52189162D01*
X127362997Y-52045716D01*
X127362994Y-52045714D01*
X127120082Y-51928734D01*
X126865602Y-51839687D01*
X126865594Y-51839684D01*
X126668446Y-51794687D01*
X126602732Y-51779688D01*
X126602728Y-51779687D01*
X126602719Y-51779686D01*
X126334813Y-51749500D01*
X126334809Y-51749500D01*
X126065191Y-51749500D01*
X126065186Y-51749500D01*
X125797280Y-51779686D01*
X125797268Y-51779688D01*
X125534405Y-51839684D01*
X125534397Y-51839687D01*
X125279917Y-51928734D01*
X125037005Y-52045714D01*
X124808712Y-52189161D01*
X124597915Y-52357265D01*
X124407265Y-52547915D01*
X124239161Y-52758712D01*
X124095714Y-52987005D01*
X123978734Y-53229917D01*
X123889687Y-53484397D01*
X123889684Y-53484405D01*
X123829688Y-53747268D01*
X123829686Y-53747280D01*
X123799500Y-54015186D01*
X121644310Y-54015186D01*
X121616789Y-53735750D01*
X121549690Y-53398422D01*
X121449850Y-53069295D01*
X121318231Y-52751538D01*
X121156100Y-52448213D01*
X120965019Y-52162240D01*
X120746828Y-51896373D01*
X120746827Y-51896372D01*
X120746823Y-51896367D01*
X120503632Y-51653176D01*
X120237765Y-51434985D01*
X120237764Y-51434984D01*
X120237760Y-51434981D01*
X119951787Y-51243900D01*
X119951782Y-51243897D01*
X119951775Y-51243893D01*
X119648469Y-51081772D01*
X119648464Y-51081770D01*
X119330706Y-50950150D01*
X119001572Y-50850308D01*
X118664248Y-50783210D01*
X118664249Y-50783210D01*
X118397256Y-50756915D01*
X118321969Y-50749500D01*
X117978031Y-50749500D01*
X117902744Y-50756915D01*
X117635750Y-50783210D01*
X117298427Y-50850308D01*
X116969293Y-50950150D01*
X116651535Y-51081770D01*
X116651530Y-51081772D01*
X116348224Y-51243893D01*
X116348206Y-51243904D01*
X116062248Y-51434975D01*
X116062234Y-51434985D01*
X115796367Y-51653176D01*
X115553176Y-51896367D01*
X115334985Y-52162234D01*
X115334975Y-52162248D01*
X115143904Y-52448206D01*
X115143893Y-52448224D01*
X114981772Y-52751530D01*
X114981770Y-52751535D01*
X114850150Y-53069293D01*
X114750308Y-53398427D01*
X114683210Y-53735750D01*
X114649500Y-54078034D01*
X101792117Y-54078034D01*
X101761859Y-54018650D01*
X101729474Y-53974077D01*
X101729474Y-53974076D01*
X101050000Y-54653551D01*
X101050000Y-54647339D01*
X101022741Y-54545606D01*
X100970080Y-54454394D01*
X100895606Y-54379920D01*
X100804394Y-54327259D01*
X100702661Y-54300000D01*
X100696446Y-54300000D01*
X101375922Y-53620524D01*
X101375921Y-53620523D01*
X101331359Y-53588147D01*
X101331350Y-53588141D01*
X101149031Y-53495244D01*
X100954417Y-53432009D01*
X100752317Y-53400000D01*
X100547683Y-53400000D01*
X100345582Y-53432009D01*
X100150968Y-53495244D01*
X99968644Y-53588143D01*
X99924077Y-53620523D01*
X99924077Y-53620524D01*
X100603554Y-54300000D01*
X100597339Y-54300000D01*
X100495606Y-54327259D01*
X100404394Y-54379920D01*
X100329920Y-54454394D01*
X100277259Y-54545606D01*
X100250000Y-54647339D01*
X100250000Y-54653553D01*
X99570524Y-53974077D01*
X99570523Y-53974077D01*
X99538143Y-54018644D01*
X99445244Y-54200968D01*
X99382009Y-54395582D01*
X99350000Y-54597682D01*
X98450499Y-54597682D01*
X98450499Y-54099992D01*
X98441836Y-54015191D01*
X98439999Y-53997203D01*
X98439998Y-53997200D01*
X98432335Y-53974076D01*
X98384814Y-53830666D01*
X98292712Y-53681344D01*
X98168656Y-53557288D01*
X98019334Y-53465186D01*
X97852797Y-53410001D01*
X97852795Y-53410000D01*
X97750010Y-53399500D01*
X96549998Y-53399500D01*
X96549981Y-53399501D01*
X96447203Y-53410000D01*
X96447200Y-53410001D01*
X96280668Y-53465185D01*
X96280663Y-53465187D01*
X96131342Y-53557289D01*
X96007289Y-53681342D01*
X95915187Y-53830663D01*
X95915186Y-53830666D01*
X95860001Y-53997203D01*
X95860001Y-53997204D01*
X95860000Y-53997204D01*
X95849500Y-54099983D01*
X93475212Y-54099983D01*
X93823064Y-52846368D01*
X93823679Y-52844231D01*
X94377748Y-50987337D01*
X94378419Y-50985163D01*
X94968235Y-49139292D01*
X94968973Y-49137060D01*
X95100768Y-48750500D01*
X95594282Y-47303001D01*
X95595013Y-47300921D01*
X96018045Y-46134376D01*
X96059404Y-46078066D01*
X96124643Y-46053054D01*
X96193049Y-46067283D01*
X96242902Y-46116236D01*
X96254391Y-46144558D01*
X96255849Y-46150000D01*
X96306261Y-46338141D01*
X96311810Y-46358847D01*
X96311814Y-46358860D01*
X96422191Y-46625336D01*
X96422199Y-46625352D01*
X96551900Y-46849998D01*
X96566424Y-46875155D01*
X96566431Y-46875164D01*
X96742024Y-47104002D01*
X96742030Y-47104009D01*
X96945990Y-47307969D01*
X96945997Y-47307975D01*
X97062459Y-47397339D01*
X97174844Y-47483575D01*
X97174851Y-47483579D01*
X97424647Y-47627800D01*
X97424663Y-47627808D01*
X97691139Y-47738185D01*
X97691145Y-47738186D01*
X97691155Y-47738191D01*
X97969783Y-47812849D01*
X98255772Y-47850500D01*
X98255779Y-47850500D01*
X98544221Y-47850500D01*
X98544228Y-47850500D01*
X98830217Y-47812849D01*
X99108845Y-47738191D01*
X99108857Y-47738185D01*
X99108860Y-47738185D01*
X99375336Y-47627808D01*
X99375339Y-47627806D01*
X99375345Y-47627804D01*
X99625156Y-47483575D01*
X99854004Y-47307974D01*
X100057974Y-47104004D01*
X100233575Y-46875156D01*
X100248109Y-46849983D01*
X103499500Y-46849983D01*
X103499500Y-48050001D01*
X103499501Y-48050018D01*
X103510000Y-48152796D01*
X103510001Y-48152799D01*
X103565185Y-48319331D01*
X103565186Y-48319334D01*
X103657288Y-48468656D01*
X103781344Y-48592712D01*
X103930666Y-48684814D01*
X104097203Y-48739999D01*
X104199991Y-48750500D01*
X105400008Y-48750499D01*
X105502797Y-48739999D01*
X105669334Y-48684814D01*
X105818656Y-48592712D01*
X105942712Y-48468656D01*
X106034814Y-48319334D01*
X106089999Y-48152797D01*
X106100500Y-48050009D01*
X106100499Y-47347682D01*
X107000000Y-47347682D01*
X107000000Y-47552317D01*
X107032009Y-47754417D01*
X107095244Y-47949031D01*
X107188141Y-48131350D01*
X107188147Y-48131359D01*
X107220523Y-48175921D01*
X107220524Y-48175922D01*
X107900000Y-47496446D01*
X107900000Y-47502661D01*
X107927259Y-47604394D01*
X107979920Y-47695606D01*
X108054394Y-47770080D01*
X108145606Y-47822741D01*
X108247339Y-47850000D01*
X108253553Y-47850000D01*
X107574076Y-48529474D01*
X107618650Y-48561859D01*
X107800968Y-48654755D01*
X107995582Y-48717990D01*
X108197683Y-48750000D01*
X108402317Y-48750000D01*
X108604417Y-48717990D01*
X108799031Y-48654755D01*
X108981349Y-48561859D01*
X109025921Y-48529474D01*
X108346447Y-47850000D01*
X108352661Y-47850000D01*
X108454394Y-47822741D01*
X108545606Y-47770080D01*
X108620080Y-47695606D01*
X108672741Y-47604394D01*
X108700000Y-47502661D01*
X108700000Y-47496448D01*
X109379474Y-48175922D01*
X109379474Y-48175921D01*
X109411859Y-48131349D01*
X109504755Y-47949031D01*
X109567990Y-47754417D01*
X109600000Y-47552317D01*
X109600000Y-47347682D01*
X109567990Y-47145582D01*
X109504755Y-46950968D01*
X109411859Y-46768650D01*
X109379474Y-46724077D01*
X109379474Y-46724076D01*
X108700000Y-47403551D01*
X108700000Y-47397339D01*
X108672741Y-47295606D01*
X108620080Y-47204394D01*
X108545606Y-47129920D01*
X108454394Y-47077259D01*
X108352661Y-47050000D01*
X108346446Y-47050000D01*
X109025922Y-46370524D01*
X109025921Y-46370523D01*
X108981359Y-46338147D01*
X108981350Y-46338141D01*
X108799031Y-46245244D01*
X108604417Y-46182009D01*
X108402317Y-46150000D01*
X108197683Y-46150000D01*
X107995582Y-46182009D01*
X107800968Y-46245244D01*
X107618644Y-46338143D01*
X107574077Y-46370523D01*
X107574077Y-46370524D01*
X108253554Y-47050000D01*
X108247339Y-47050000D01*
X108145606Y-47077259D01*
X108054394Y-47129920D01*
X107979920Y-47204394D01*
X107927259Y-47295606D01*
X107900000Y-47397339D01*
X107900000Y-47403553D01*
X107220524Y-46724077D01*
X107220523Y-46724077D01*
X107188143Y-46768644D01*
X107095244Y-46950968D01*
X107032009Y-47145582D01*
X107000000Y-47347682D01*
X106100499Y-47347682D01*
X106100499Y-46849992D01*
X106089999Y-46747203D01*
X106034814Y-46580666D01*
X105942712Y-46431344D01*
X105818656Y-46307288D01*
X105669334Y-46215186D01*
X105502797Y-46160001D01*
X105502795Y-46160000D01*
X105400010Y-46149500D01*
X104199998Y-46149500D01*
X104199981Y-46149501D01*
X104097203Y-46160000D01*
X104097200Y-46160001D01*
X103930668Y-46215185D01*
X103930663Y-46215187D01*
X103781342Y-46307289D01*
X103657289Y-46431342D01*
X103565187Y-46580663D01*
X103565186Y-46580666D01*
X103510001Y-46747203D01*
X103510001Y-46747204D01*
X103510000Y-46747204D01*
X103499500Y-46849983D01*
X100248109Y-46849983D01*
X100377804Y-46625345D01*
X100396311Y-46580666D01*
X100488185Y-46358860D01*
X100488185Y-46358857D01*
X100488191Y-46358845D01*
X100562849Y-46080217D01*
X100600500Y-45794228D01*
X100600500Y-45505772D01*
X100562849Y-45219783D01*
X100488191Y-44941155D01*
X100488186Y-44941145D01*
X100488185Y-44941139D01*
X100377808Y-44674663D01*
X100377800Y-44674647D01*
X100233579Y-44424851D01*
X100233575Y-44424844D01*
X100183015Y-44358953D01*
X100057975Y-44195997D01*
X100057969Y-44195990D01*
X99854009Y-43992030D01*
X99854002Y-43992024D01*
X99625164Y-43816431D01*
X99625162Y-43816429D01*
X99625156Y-43816425D01*
X99625151Y-43816422D01*
X99625148Y-43816420D01*
X99375352Y-43672199D01*
X99375336Y-43672191D01*
X99108860Y-43561814D01*
X99108848Y-43561810D01*
X99108845Y-43561809D01*
X98830217Y-43487151D01*
X98830211Y-43487150D01*
X98830206Y-43487149D01*
X98544238Y-43449501D01*
X98544233Y-43449500D01*
X98544228Y-43449500D01*
X98255772Y-43449500D01*
X98255766Y-43449500D01*
X98255761Y-43449501D01*
X97969793Y-43487149D01*
X97969786Y-43487150D01*
X97969783Y-43487151D01*
X97691155Y-43561809D01*
X97691139Y-43561814D01*
X97424663Y-43672191D01*
X97424647Y-43672199D01*
X97174851Y-43816420D01*
X97174836Y-43816430D01*
X97127336Y-43852878D01*
X97126009Y-43853390D01*
X97125146Y-43854520D01*
X97093522Y-43865949D01*
X97062166Y-43878071D01*
X97060773Y-43877785D01*
X97059436Y-43878269D01*
X97026651Y-43870786D01*
X96993722Y-43864032D01*
X96992704Y-43863038D01*
X96991318Y-43862722D01*
X96967779Y-43838698D01*
X96943733Y-43815217D01*
X96943414Y-43813831D01*
X96942419Y-43812816D01*
X96935602Y-43779869D01*
X96928071Y-43747126D01*
X96928458Y-43745338D01*
X96928263Y-43744395D01*
X96936117Y-43709986D01*
X96952108Y-43668411D01*
X96952928Y-43666339D01*
X97683374Y-41871479D01*
X97684223Y-41869446D01*
X98449234Y-40088895D01*
X98450123Y-40086881D01*
X99246663Y-38327390D01*
X99253677Y-38314106D01*
X99300379Y-38237309D01*
X99317271Y-38215455D01*
X99375382Y-38155486D01*
X99396691Y-38137918D01*
X99466633Y-38092308D01*
X99491312Y-38079890D01*
X99530462Y-38065395D01*
X99569614Y-38050900D01*
X99596423Y-38044256D01*
X99679213Y-38033323D01*
X99706820Y-38032781D01*
X99789972Y-38040452D01*
G37*
%TD.AperFunction*%
%TD*%
M02*
