M48
; DRILL file {KiCad 9.0.7} date 2026-02-20T22:22:43+0900
; FORMAT={-:-/ absolute / inch / decimal}
; #@! TF.CreationDate,2026-02-20T22:22:43+09:00
; #@! TF.GenerationSoftware,Kicad,Pcbnew,9.0.7
; #@! TF.FileFunction,Plated,1,2,PTH
FMAT,2
INCH
; #@! TA.AperFunction,Plated,PTH,ViaDrill
T1C0.0118
; #@! TA.AperFunction,Plated,PTH,ComponentDrill
T2C0.0315
; #@! TA.AperFunction,Plated,PTH,ComponentDrill
T3C0.0394
; #@! TA.AperFunction,Plated,PTH,ComponentDrill
T4C0.0429
; #@! TA.AperFunction,Plated,PTH,ComponentDrill
T5C0.0787
; #@! TA.AperFunction,Plated,PTH,ComponentDrill
T6C0.1063
; #@! TA.AperFunction,Plated,PTH,ComponentDrill
T7C0.1772
%
G90
G05
T1
X3.6024Y-2.7185
X3.6142Y-2.6063
X3.6319Y-3.6083
X3.6398Y-3.8169
X3.7165Y-2.937
X3.7343Y-2.7933
X3.828Y-2.7992
X3.8346Y-2.4626
X3.8366Y-3.3031
X3.8543Y-3.6594
X3.9154Y-2.5965
X3.9272Y-2.5374
X4.0039Y-2.3031
X4.0591Y-2.9961
X4.1949Y-2.9469
X4.2087Y-3.9882
X4.2717Y-2.5768
X4.2933Y-4.4528
X4.3209Y-3.685
X4.4429Y-2.7047
X4.4449Y-4.2972
X4.4961Y-3.6063
T2
X3.674Y-2.3858
X3.8248Y-2.1535
X3.9626Y-2.1535
X4.074Y-2.3858
X4.126Y-1.8681
X4.2638Y-1.8681
T3
X3.8602Y-3.499
X3.9587Y-3.499
X4.2323Y-3.4596
X4.3307Y-3.4596
X4.6772Y-2.7264
X4.6772Y-2.8248
X4.9864Y-2.7559
X4.9864Y-2.8543
X4.9864Y-3.1299
X4.9864Y-3.2283
X4.9904Y-3.5197
X4.9904Y-3.6181
T4
X3.7764Y-2.5039
X3.8764Y-2.5039
X3.9764Y-2.5039
T5
X4.6831Y-3.0315
X4.6831Y-3.3307
X4.6831Y-4.0984
X4.6831Y-4.3976
T6
X4.9685Y-2.1319
X4.9685Y-2.3287
T7
X4.6516Y-2.1358
X4.6516Y-2.4193
M30
