M48
; DRILL file {KiCad 9.0.7} date 2026-02-20T22:16:39+0900
; FORMAT={-:-/ absolute / inch / decimal}
; #@! TF.CreationDate,2026-02-20T22:16:39+09:00
; #@! TF.GenerationSoftware,Kicad,Pcbnew,9.0.7
; #@! TF.FileFunction,Plated,1,2,PTH
FMAT,2
INCH
; #@! TA.AperFunction,Plated,PTH,ViaDrill
T1C0.0118
; #@! TA.AperFunction,Plated,PTH,ComponentDrill
T2C0.0315
; #@! TA.AperFunction,Plated,PTH,ComponentDrill
T3C0.0354
; #@! TA.AperFunction,Plated,PTH,ComponentDrill
T4C0.0394
; #@! TA.AperFunction,Plated,PTH,ComponentDrill
T5C0.0433
; #@! TA.AperFunction,Plated,PTH,ComponentDrill
T6C0.0472
%
G90
G05
T1
X2.9331Y-4.3681
X2.9783Y-3.4882
X3.0197Y-4.9094
X3.0748Y-3.7343
X3.122Y-2.9941
X3.1496Y-4.3661
X3.2067Y-4.7402
X3.2205Y-4.937
X3.2362Y-4.2303
X3.2697Y-3.6024
X3.2795Y-4.4252
X3.2913Y-3.7067
X3.3701Y-3.9528
X3.374Y-4.8445
X3.4173Y-2.8819
X3.4193Y-4.6417
X3.4409Y-4.9705
X3.4646Y-3.372
X3.5Y-3.6713
X3.6137Y-4.9626
X3.622Y-2.9882
X3.6299Y-4.8031
X3.6654Y-4.0748
X3.6673Y-3.0925
X3.6831Y-3.4705
X3.7028Y-3.3425
X3.7126Y-3.9272
X3.7146Y-4.7717
X3.7205Y-4.9547
X3.7618Y-4.7205
X3.8228Y-3.5236
X3.8799Y-4.3307
X3.9016Y-3.3386
X3.9045Y-3.6949
X3.9429Y-4.9646
X3.9449Y-3.8386
X3.9567Y-5.2539
X4.0064Y-3.5374
X4.0177Y-3.4705
X4.1102Y-3.7441
X4.2402Y-3.9075
X4.315Y-5.1713
X4.3248Y-4.7323
X4.3661Y-4.2067
X4.3856Y-3.4705
X4.3917Y-3.0906
X4.5079Y-4.8287
X4.5472Y-4.7539
X4.6043Y-3.1791
X4.6102Y-3.752
X4.6929Y-3.4213
X4.7047Y-3.4823
X4.8051Y-4.8445
X4.8071Y-4.7146
X4.8307Y-3.6535
X4.8622Y-4.6161
X4.8858Y-4.3228
X4.8878Y-3.9724
X5.0295Y-3.4783
X5.128Y-4.748
X5.1516Y-4.3425
X5.2224Y-3.6988
T2
X3.3419Y-3.7931
X3.3419Y-4.0931
X3.3504Y-4.4744
X3.3504Y-4.7744
X3.4419Y-3.7931
X3.4419Y-4.0931
X3.4504Y-4.4744
X3.4504Y-4.7744
X4.0988Y-2.9945
X4.0988Y-3.1945
X4.1988Y-3.0945
T3
X3.421Y-5.1004
X3.521Y-5.1004
T4
X3.0748Y-3.8799
X3.0748Y-3.9783
X3.1083Y-4.5098
X3.1083Y-4.6083
X3.2047Y-5.0846
X3.2047Y-5.1831
X3.2244Y-3.1949
X3.2244Y-3.2933
T5
X4.1693Y-4.6614
X4.1693Y-4.8386
X4.4252Y-4.6614
X4.4252Y-4.8386
T6
X3.0657Y-4.2402
X3.4657Y-4.2402
X3.998Y-4.4248
X3.998Y-4.8248
X4.7717Y-4.5059
X4.7731Y-3.8307
X5.0669Y-4.5059
X5.0684Y-3.8307
M30
