%TF.GenerationSoftware,KiCad,Pcbnew,9.0.7*%
%TF.CreationDate,2026-02-20T22:18:46+09:00*%
%TF.ProjectId,side_line,73696465-5f6c-4696-9e65-2e6b69636164,rev?*%
%TF.SameCoordinates,Original*%
%TF.FileFunction,Copper,L1,Top*%
%TF.FilePolarity,Positive*%
%FSLAX46Y46*%
G04 Gerber Fmt 4.6, Leading zero omitted, Abs format (unit mm)*
G04 Created by KiCad (PCBNEW 9.0.7) date 2026-02-20 22:18:46*
%MOMM*%
%LPD*%
G01*
G04 APERTURE LIST*
G04 Aperture macros list*
%AMRoundRect*
0 Rectangle with rounded corners*
0 $1 Rounding radius*
0 $2 $3 $4 $5 $6 $7 $8 $9 X,Y pos of 4 corners*
0 Add a 4 corners polygon primitive as box body*
4,1,4,$2,$3,$4,$5,$6,$7,$8,$9,$2,$3,0*
0 Add four circle primitives for the rounded corners*
1,1,$1+$1,$2,$3*
1,1,$1+$1,$4,$5*
1,1,$1+$1,$6,$7*
1,1,$1+$1,$8,$9*
0 Add four rect primitives between the rounded corners*
20,1,$1+$1,$2,$3,$4,$5,0*
20,1,$1+$1,$4,$5,$6,$7,0*
20,1,$1+$1,$6,$7,$8,$9,0*
20,1,$1+$1,$8,$9,$2,$3,0*%
G04 Aperture macros list end*
%TA.AperFunction,SMDPad,CuDef*%
%ADD10RoundRect,0.200000X-0.200000X-0.275000X0.200000X-0.275000X0.200000X0.275000X-0.200000X0.275000X0*%
%TD*%
%TA.AperFunction,SMDPad,CuDef*%
%ADD11RoundRect,0.250000X-0.312500X-0.625000X0.312500X-0.625000X0.312500X0.625000X-0.312500X0.625000X0*%
%TD*%
%TA.AperFunction,SMDPad,CuDef*%
%ADD12RoundRect,0.200000X0.200000X0.275000X-0.200000X0.275000X-0.200000X-0.275000X0.200000X-0.275000X0*%
%TD*%
%TA.AperFunction,ComponentPad*%
%ADD13R,1.700000X1.700000*%
%TD*%
%TA.AperFunction,ComponentPad*%
%ADD14C,1.700000*%
%TD*%
%TA.AperFunction,ComponentPad*%
%ADD15R,1.800000X1.800000*%
%TD*%
%TA.AperFunction,ComponentPad*%
%ADD16C,1.800000*%
%TD*%
%TA.AperFunction,ViaPad*%
%ADD17C,0.600000*%
%TD*%
%TA.AperFunction,Conductor*%
%ADD18C,0.200000*%
%TD*%
%TA.AperFunction,Conductor*%
%ADD19C,1.000000*%
%TD*%
G04 APERTURE END LIST*
D10*
%TO.P,R13,1*%
%TO.N,3.3v*%
X103250000Y-73100000D03*
%TO.P,R13,2*%
%TO.N,Net-(R13-Pad2)*%
X104900000Y-73100000D03*
%TD*%
%TO.P,R1,1*%
%TO.N,3.3v*%
X101425000Y-112850000D03*
%TO.P,R1,2*%
%TO.N,Net-(R1-Pad2)*%
X103075000Y-112850000D03*
%TD*%
D11*
%TO.P,R7,1*%
%TO.N,3.3v*%
X99737500Y-107850000D03*
%TO.P,R7,2*%
%TO.N,Net-(D2-A)*%
X102662500Y-107850000D03*
%TD*%
D12*
%TO.P,R3,1*%
%TO.N,Net-(R1-Pad2)*%
X103050000Y-114450000D03*
%TO.P,R3,2*%
%TO.N,LINE_2*%
X101400000Y-114450000D03*
%TD*%
D11*
%TO.P,R9,1*%
%TO.N,3.3v*%
X101787500Y-82000000D03*
%TO.P,R9,2*%
%TO.N,Net-(D4-A)*%
X104712500Y-82000000D03*
%TD*%
D10*
%TO.P,R11,1*%
%TO.N,3.3v*%
X100400000Y-86900000D03*
%TO.P,R11,2*%
%TO.N,Net-(R11-Pad2)*%
X102050000Y-86900000D03*
%TD*%
D11*
%TO.P,R10,1*%
%TO.N,3.3v*%
X105487500Y-69100000D03*
%TO.P,R10,2*%
%TO.N,Net-(D5-A)*%
X108412500Y-69100000D03*
%TD*%
D12*
%TO.P,R5,1*%
%TO.N,Net-(R4-Pad2)*%
X101375000Y-101100000D03*
%TO.P,R5,2*%
%TO.N,LINE_3*%
X99725000Y-101100000D03*
%TD*%
D13*
%TO.P,J1,1,Pin_1*%
%TO.N,GND*%
X112800000Y-89860000D03*
D14*
%TO.P,J1,2,Pin_2*%
%TO.N,3.3v*%
X112800000Y-92400000D03*
%TO.P,J1,3,Pin_3*%
%TO.N,LINE_1*%
X112800000Y-94940000D03*
%TO.P,J1,4,Pin_4*%
%TO.N,LINE_2*%
X112800000Y-97480000D03*
%TO.P,J1,5,Pin_5*%
%TO.N,LINE_3*%
X112800000Y-100020000D03*
%TO.P,J1,6,Pin_6*%
%TO.N,LINE_4*%
X112800000Y-102560000D03*
%TO.P,J1,7,Pin_7*%
%TO.N,LINE_5*%
X112800000Y-105100000D03*
%TD*%
D12*
%TO.P,R12,1*%
%TO.N,Net-(R11-Pad2)*%
X102050000Y-88460000D03*
%TO.P,R12,2*%
%TO.N,LINE_4*%
X100400000Y-88460000D03*
%TD*%
D11*
%TO.P,R6,1*%
%TO.N,3.3v*%
X102537500Y-119700000D03*
%TO.P,R6,2*%
%TO.N,Net-(D1-A)*%
X105462500Y-119700000D03*
%TD*%
D10*
%TO.P,R4,1*%
%TO.N,3.3v*%
X99725000Y-99520000D03*
%TO.P,R4,2*%
%TO.N,Net-(R4-Pad2)*%
X101375000Y-99520000D03*
%TD*%
D12*
%TO.P,R14,1*%
%TO.N,Net-(R13-Pad2)*%
X104900000Y-74750000D03*
%TO.P,R14,2*%
%TO.N,LINE_5*%
X103250000Y-74750000D03*
%TD*%
%TO.P,R2,1*%
%TO.N,Net-(R2-Pad1)*%
X105475000Y-125600000D03*
%TO.P,R2,2*%
%TO.N,LINE_1*%
X103825000Y-125600000D03*
%TD*%
D10*
%TO.P,R26,1*%
%TO.N,3.3v*%
X103850000Y-123950000D03*
%TO.P,R26,2*%
%TO.N,Net-(R2-Pad1)*%
X105500000Y-123950000D03*
%TD*%
D11*
%TO.P,R8,1*%
%TO.N,3.3v*%
X99387500Y-94600000D03*
%TO.P,R8,2*%
%TO.N,Net-(D3-A)*%
X102312500Y-94600000D03*
%TD*%
D15*
%TO.P,Q4,1,C*%
%TO.N,LINE_4*%
X95330000Y-87900000D03*
D16*
%TO.P,Q4,2,E*%
%TO.N,GND*%
X97870000Y-87900000D03*
%TD*%
D15*
%TO.P,Q2,1,C*%
%TO.N,LINE_2*%
X96480000Y-114500000D03*
D16*
%TO.P,Q2,2,E*%
%TO.N,GND*%
X99020000Y-114500000D03*
%TD*%
D15*
%TO.P,D5,1,K*%
%TO.N,GND*%
X100680000Y-68450000D03*
D16*
%TO.P,D5,2,A*%
%TO.N,Net-(D5-A)*%
X103220000Y-68450000D03*
%TD*%
D15*
%TO.P,D1,1,K*%
%TO.N,GND*%
X97260000Y-120500000D03*
D16*
%TO.P,D1,2,A*%
%TO.N,Net-(D1-A)*%
X99800000Y-120500000D03*
%TD*%
D15*
%TO.P,Q3,1,C*%
%TO.N,LINE_3*%
X94780000Y-100800000D03*
D16*
%TO.P,Q3,2,E*%
%TO.N,GND*%
X97320000Y-100800000D03*
%TD*%
D15*
%TO.P,D4,1,K*%
%TO.N,GND*%
X96480000Y-82000000D03*
D16*
%TO.P,D4,2,A*%
%TO.N,Net-(D4-A)*%
X99020000Y-82000000D03*
%TD*%
D15*
%TO.P,D2,1,K*%
%TO.N,GND*%
X94860000Y-108150000D03*
D16*
%TO.P,D2,2,A*%
%TO.N,Net-(D2-A)*%
X97400000Y-108150000D03*
%TD*%
D15*
%TO.P,D3,1,K*%
%TO.N,GND*%
X94280000Y-94550000D03*
D16*
%TO.P,D3,2,A*%
%TO.N,Net-(D3-A)*%
X96820000Y-94550000D03*
%TD*%
D15*
%TO.P,Q5,1,C*%
%TO.N,LINE_5*%
X98160000Y-74150000D03*
D16*
%TO.P,Q5,2,E*%
%TO.N,GND*%
X100700000Y-74150000D03*
%TD*%
D15*
%TO.P,Q1,1,C*%
%TO.N,LINE_1*%
X98930000Y-126050000D03*
D16*
%TO.P,Q1,2,E*%
%TO.N,GND*%
X101470000Y-126050000D03*
%TD*%
D17*
%TO.N,Net-(D1-A)*%
X103684300Y-120085000D03*
%TO.N,GND*%
X106050000Y-129150000D03*
X110250000Y-99400000D03*
X100550000Y-117600000D03*
X109500000Y-93900000D03*
X104450000Y-99100000D03*
X108350000Y-79200000D03*
X109500000Y-71550000D03*
X106350000Y-64600000D03*
X103450000Y-94750000D03*
X104600000Y-76350000D03*
X98300000Y-69400000D03*
X110750000Y-121800000D03*
X96650000Y-78100000D03*
X107500000Y-100800000D03*
X97050000Y-123400000D03*
X99150000Y-129600000D03*
X107200000Y-99100000D03*
X106700000Y-104900000D03*
X96350000Y-84950000D03*
X96200000Y-117400000D03*
X106750000Y-116400000D03*
X110900000Y-101450000D03*
X108300000Y-126500000D03*
%TO.N,Net-(D2-A)*%
X100840000Y-106912200D03*
%TO.N,Net-(D3-A)*%
X102615700Y-92589400D03*
%TO.N,Net-(D4-A)*%
X103679700Y-84174300D03*
%TO.N,LINE_2*%
X98939400Y-98161700D03*
%TO.N,LINE_4*%
X100405300Y-90707400D03*
%TO.N,3.3v*%
X106450000Y-71900000D03*
X101750000Y-85500000D03*
X103650000Y-88200000D03*
X107750000Y-88750000D03*
X102050000Y-79550000D03*
%TO.N,LINE_3*%
X99636900Y-102084400D03*
%TO.N,LINE_5*%
X103250000Y-76059800D03*
X105448300Y-101647500D03*
%TD*%
D18*
%TO.N,Net-(D1-A)*%
X105462500Y-119700000D02*
X104069300Y-119700000D01*
X104069300Y-119700000D02*
X103684300Y-120085000D01*
%TO.N,GND*%
X93577100Y-105665400D02*
X94860000Y-106948300D01*
X100565000Y-78755600D02*
X97818300Y-81502300D01*
X100623400Y-72900600D02*
X100565000Y-72959000D01*
X97260000Y-120500000D02*
X97260000Y-119298300D01*
X97818300Y-84540000D02*
X97870000Y-84591700D01*
X97818300Y-84540000D02*
X96480000Y-83201700D01*
X100680000Y-68450000D02*
X100680000Y-69651700D01*
X97320000Y-104488300D02*
X94860000Y-106948300D01*
X100700000Y-72920600D02*
X100680000Y-72900600D01*
X100680000Y-72900600D02*
X100623400Y-72900600D01*
X97320000Y-100800000D02*
X97320000Y-104488300D01*
X97818300Y-81502300D02*
X97818300Y-84540000D01*
X94280000Y-95751700D02*
X93577100Y-96454600D01*
X99020000Y-117538300D02*
X99020000Y-114500000D01*
X100565000Y-72959000D02*
X100565000Y-78755600D01*
X100700000Y-74150000D02*
X100700000Y-72920600D01*
X93577100Y-96454600D02*
X93577100Y-105665400D01*
X94280000Y-94550000D02*
X94280000Y-95751700D01*
X97260000Y-119298300D02*
X99020000Y-117538300D01*
X97870000Y-84591700D02*
X97870000Y-87900000D01*
X94860000Y-108150000D02*
X94860000Y-106948300D01*
X96480000Y-82000000D02*
X96480000Y-83201700D01*
X100680000Y-72900600D02*
X100680000Y-69651700D01*
%TO.N,Net-(D2-A)*%
X101724700Y-106912200D02*
X100840000Y-106912200D01*
X102662500Y-107850000D02*
X101724700Y-106912200D01*
%TO.N,Net-(D3-A)*%
X102312500Y-92892600D02*
X102312500Y-94600000D01*
X102615700Y-92589400D02*
X102312500Y-92892600D01*
%TO.N,Net-(D4-A)*%
X104712500Y-82000000D02*
X103679700Y-83032800D01*
X103679700Y-83032800D02*
X103679700Y-84174300D01*
%TO.N,Net-(D5-A)*%
X103220000Y-68450000D02*
X103802100Y-67867900D01*
X107180400Y-67867900D02*
X108412500Y-69100000D01*
X103802100Y-67867900D02*
X107180400Y-67867900D01*
%TO.N,LINE_2*%
X96480000Y-114500000D02*
X97681700Y-114500000D01*
X100219500Y-113269500D02*
X101400000Y-114450000D01*
X98825300Y-98275800D02*
X98939400Y-98161700D01*
X97681700Y-114500000D02*
X97681700Y-114124500D01*
X98939400Y-98161700D02*
X98825300Y-98275800D01*
X97681700Y-114124500D02*
X98536700Y-113269500D01*
X98536700Y-113269500D02*
X98825300Y-113269500D01*
X98825300Y-113269500D02*
X98825300Y-98275800D01*
X98825300Y-113269500D02*
X100219500Y-113269500D01*
X98825300Y-98275800D02*
X98939400Y-98161700D01*
%TO.N,LINE_1*%
X100131700Y-125674500D02*
X100971000Y-124835200D01*
X100131700Y-126050000D02*
X100131700Y-125674500D01*
X103825000Y-125600000D02*
X104675000Y-124750000D01*
X103060200Y-124835200D02*
X103825000Y-125600000D01*
X108631000Y-118712100D02*
X108631000Y-99109000D01*
X98930000Y-126050000D02*
X100131700Y-126050000D01*
X104675000Y-124750000D02*
X104675000Y-122668100D01*
X100971000Y-124835200D02*
X103060200Y-124835200D01*
X108631000Y-99109000D02*
X112800000Y-94940000D01*
X104675000Y-122668100D02*
X108631000Y-118712100D01*
%TO.N,LINE_4*%
X99758300Y-89101700D02*
X97357800Y-89101700D01*
X100405300Y-90707400D02*
X99758300Y-90060400D01*
X100164700Y-90466800D02*
X100405300Y-90707400D01*
X95330000Y-87900000D02*
X96531700Y-87900000D01*
X100405300Y-90707400D02*
X100164700Y-90466800D01*
X97357800Y-89101700D02*
X96531700Y-88275600D01*
X96531700Y-88275600D02*
X96531700Y-87900000D01*
X100400000Y-88460000D02*
X99758300Y-89101700D01*
X99758300Y-90060400D02*
X99758300Y-89101700D01*
D19*
%TO.N,3.3v*%
X105350000Y-114550000D02*
X104350000Y-111350000D01*
D18*
X99725000Y-94937500D02*
X99387500Y-94600000D01*
D19*
X101800000Y-110450000D02*
X99737500Y-107850000D01*
X103650000Y-88200000D02*
X102300000Y-90950000D01*
X103350000Y-100600000D02*
X102650000Y-97650000D01*
D18*
X100225800Y-107850000D02*
X99737500Y-107850000D01*
D19*
X102650000Y-97650000D02*
X100100000Y-96600000D01*
X102537500Y-119700000D02*
X103100000Y-116950000D01*
D18*
X102170000Y-81617500D02*
X101787500Y-82000000D01*
D19*
X100838903Y-85350000D02*
X101750000Y-85500000D01*
X102200000Y-103250000D02*
X103350000Y-100600000D01*
X101787500Y-82000000D02*
X100838903Y-85350000D01*
X100750000Y-92200000D02*
X99387500Y-94600000D01*
D18*
X102225000Y-119387500D02*
X102537500Y-119700000D01*
D19*
X99737500Y-107850000D02*
X99800000Y-105400000D01*
X106450000Y-71900000D02*
X105487500Y-69100000D01*
X102350000Y-121200000D02*
X102537500Y-119700000D01*
X100300000Y-98550000D02*
X99725000Y-99520000D01*
X100100000Y-96600000D02*
X99387500Y-94600000D01*
X99800000Y-105400000D02*
X102200000Y-103250000D01*
X102300000Y-90950000D02*
X100750000Y-92200000D01*
X101800000Y-110450000D02*
X101425000Y-112850000D01*
X103850000Y-123950000D02*
X102350000Y-121200000D01*
X107750000Y-88750000D02*
X110600000Y-92050000D01*
X101787500Y-82000000D02*
X102050000Y-79550000D01*
X103100000Y-116950000D02*
X105350000Y-114550000D01*
X105487500Y-69100000D02*
X103250000Y-73100000D01*
X110600000Y-92050000D02*
X112800000Y-92400000D01*
X100838903Y-85350000D02*
X100400000Y-86900000D01*
X100100000Y-96600000D02*
X100300000Y-98550000D01*
X104350000Y-111350000D02*
X101800000Y-110450000D01*
D18*
%TO.N,LINE_3*%
X99636900Y-102084400D02*
X99725000Y-101996300D01*
X99725000Y-102084400D02*
X99636900Y-102084400D01*
X99725000Y-101996300D02*
X99725000Y-101100000D01*
X99636900Y-102084400D02*
X99725000Y-102084400D01*
%TO.N,LINE_5*%
X105448300Y-101647500D02*
X105448300Y-87753900D01*
X103025400Y-85331000D02*
X103025400Y-76284400D01*
X105448300Y-87753900D02*
X103025400Y-85331000D01*
X103250000Y-76059800D02*
X103250000Y-74750000D01*
X103025400Y-76284400D02*
X103250000Y-76059800D01*
%TO.N,Net-(R1-Pad2)*%
X103075000Y-112850000D02*
X103050000Y-112875000D01*
X103050000Y-112875000D02*
X103050000Y-114450000D01*
%TO.N,Net-(R2-Pad1)*%
X105500000Y-123950000D02*
X105475000Y-123975000D01*
X105475000Y-123975000D02*
X105475000Y-125600000D01*
%TO.N,Net-(R4-Pad2)*%
X101375000Y-101100000D02*
X101375000Y-99520000D01*
%TO.N,Net-(R11-Pad2)*%
X102050000Y-88460000D02*
X102050000Y-86900000D01*
%TO.N,Net-(R13-Pad2)*%
X104900000Y-73100000D02*
X104900000Y-74750000D01*
%TD*%
%TA.AperFunction,Conductor*%
%TO.N,GND*%
G36*
X109436703Y-109418873D02*
G01*
X109474477Y-109477651D01*
X109478329Y-109495593D01*
X109495464Y-109619527D01*
X109527602Y-109851985D01*
X109631576Y-110509454D01*
X109787532Y-111495623D01*
X110079401Y-113133906D01*
X110079408Y-113133943D01*
X110403091Y-114766171D01*
X110758497Y-116391870D01*
X111145470Y-118010334D01*
X111348306Y-118791154D01*
X111530527Y-119492620D01*
X111563873Y-119620984D01*
X112013532Y-121223151D01*
X112494275Y-122816232D01*
X113005961Y-124399749D01*
X113548323Y-125972884D01*
X113548332Y-125972909D01*
X113548337Y-125972923D01*
X113769296Y-126575500D01*
X114121243Y-127535292D01*
X114398391Y-128247892D01*
X114415874Y-128292841D01*
X114420101Y-128303710D01*
X114424693Y-128318033D01*
X114448968Y-128413274D01*
X114452807Y-128443047D01*
X114453431Y-128533741D01*
X114450001Y-128563571D01*
X114428807Y-128651756D01*
X114418309Y-128679882D01*
X114376544Y-128760387D01*
X114359593Y-128785168D01*
X114299702Y-128853276D01*
X114277293Y-128873256D01*
X114202788Y-128924974D01*
X114176234Y-128938982D01*
X114091485Y-128971277D01*
X114062343Y-128978493D01*
X113984161Y-128988029D01*
X113964908Y-128990377D01*
X113949898Y-128991289D01*
X109543392Y-128991289D01*
X109416097Y-129025397D01*
X109301971Y-129091289D01*
X109301968Y-129091291D01*
X101853414Y-136539843D01*
X101849784Y-136543472D01*
X101849781Y-136543475D01*
X101834250Y-136559006D01*
X101808564Y-136584693D01*
X101797204Y-136594742D01*
X101719076Y-136655756D01*
X101693111Y-136671341D01*
X101609525Y-136708487D01*
X101580557Y-136717314D01*
X101490461Y-136733091D01*
X101460218Y-136734633D01*
X101368987Y-136728102D01*
X101339272Y-136722268D01*
X101252340Y-136693817D01*
X101224924Y-136680954D01*
X101147481Y-136632280D01*
X101124002Y-136613155D01*
X101060665Y-136547160D01*
X101042527Y-136522923D01*
X100993513Y-136437322D01*
X100986343Y-136422628D01*
X100248844Y-134617936D01*
X100247955Y-134615701D01*
X100210583Y-134518931D01*
X99542990Y-132790287D01*
X99542159Y-132788068D01*
X99527808Y-132748650D01*
X99318673Y-132174209D01*
X99908044Y-132174209D01*
X99908044Y-132462652D01*
X99908045Y-132462669D01*
X99945693Y-132748637D01*
X99945694Y-132748642D01*
X99945695Y-132748648D01*
X100020353Y-133027275D01*
X100020358Y-133027291D01*
X100130735Y-133293767D01*
X100130743Y-133293783D01*
X100274964Y-133543579D01*
X100274975Y-133543595D01*
X100450568Y-133772433D01*
X100450574Y-133772440D01*
X100654534Y-133976400D01*
X100654541Y-133976406D01*
X100817497Y-134101446D01*
X100883388Y-134152006D01*
X100883395Y-134152010D01*
X101133191Y-134296231D01*
X101133207Y-134296239D01*
X101399683Y-134406616D01*
X101399689Y-134406617D01*
X101399699Y-134406622D01*
X101678327Y-134481280D01*
X101964316Y-134518931D01*
X101964323Y-134518931D01*
X102252765Y-134518931D01*
X102252772Y-134518931D01*
X102538761Y-134481280D01*
X102817389Y-134406622D01*
X102817401Y-134406616D01*
X102817404Y-134406616D01*
X103083880Y-134296239D01*
X103083883Y-134296237D01*
X103083889Y-134296235D01*
X103333700Y-134152006D01*
X103562548Y-133976405D01*
X103766518Y-133772435D01*
X103942119Y-133543587D01*
X104086348Y-133293776D01*
X104196735Y-133027276D01*
X104271393Y-132748648D01*
X104309044Y-132462659D01*
X104309044Y-132174203D01*
X104271393Y-131888214D01*
X104196735Y-131609586D01*
X104196730Y-131609576D01*
X104196729Y-131609570D01*
X104086352Y-131343094D01*
X104086344Y-131343078D01*
X103942123Y-131093282D01*
X103942119Y-131093275D01*
X103830926Y-130948365D01*
X103766519Y-130864428D01*
X103766513Y-130864421D01*
X103562553Y-130660461D01*
X103562546Y-130660455D01*
X103333708Y-130484862D01*
X103333706Y-130484860D01*
X103333700Y-130484856D01*
X103333695Y-130484853D01*
X103333692Y-130484851D01*
X103083896Y-130340630D01*
X103083880Y-130340622D01*
X102817404Y-130230245D01*
X102817392Y-130230241D01*
X102817389Y-130230240D01*
X102538761Y-130155582D01*
X102538755Y-130155581D01*
X102538750Y-130155580D01*
X102252782Y-130117932D01*
X102252777Y-130117931D01*
X102252772Y-130117931D01*
X101964316Y-130117931D01*
X101964310Y-130117931D01*
X101964305Y-130117932D01*
X101678337Y-130155580D01*
X101678330Y-130155581D01*
X101678327Y-130155582D01*
X101399699Y-130230240D01*
X101399683Y-130230245D01*
X101133207Y-130340622D01*
X101133191Y-130340630D01*
X100883395Y-130484851D01*
X100883379Y-130484862D01*
X100654541Y-130660455D01*
X100654534Y-130660461D01*
X100450574Y-130864421D01*
X100450568Y-130864428D01*
X100274975Y-131093266D01*
X100274964Y-131093282D01*
X100130743Y-131343078D01*
X100130735Y-131343094D01*
X100020358Y-131609570D01*
X100020353Y-131609586D01*
X99945696Y-131888211D01*
X99945693Y-131888224D01*
X99908045Y-132174192D01*
X99908044Y-132174209D01*
X99318673Y-132174209D01*
X98872801Y-130949512D01*
X98872002Y-130947249D01*
X98843656Y-130864428D01*
X98601054Y-130155583D01*
X98238399Y-129095965D01*
X98237642Y-129093681D01*
X97986534Y-128310734D01*
X97757566Y-127596819D01*
X97755838Y-127526973D01*
X97792145Y-127467278D01*
X97854963Y-127436689D01*
X97914945Y-127442388D01*
X97914965Y-127442307D01*
X97915555Y-127442446D01*
X97918980Y-127442771D01*
X97922517Y-127444091D01*
X97922516Y-127444091D01*
X97929444Y-127444835D01*
X97982127Y-127450500D01*
X99877872Y-127450499D01*
X99937483Y-127444091D01*
X100072331Y-127393796D01*
X100187546Y-127307546D01*
X100273796Y-127192331D01*
X100324091Y-127057483D01*
X100330500Y-126997873D01*
X100330499Y-126887306D01*
X100350183Y-126820269D01*
X100366818Y-126799627D01*
X101027861Y-126138584D01*
X101050667Y-126223694D01*
X101109910Y-126326306D01*
X101193694Y-126410090D01*
X101296306Y-126469333D01*
X101381414Y-126492137D01*
X100672485Y-127201065D01*
X100672485Y-127201066D01*
X100736243Y-127247388D01*
X100932589Y-127347432D01*
X101142164Y-127415526D01*
X101359819Y-127450000D01*
X101580181Y-127450000D01*
X101797835Y-127415526D01*
X102007410Y-127347432D01*
X102203760Y-127247386D01*
X102267513Y-127201066D01*
X102267514Y-127201066D01*
X101558585Y-126492138D01*
X101643694Y-126469333D01*
X101746306Y-126410090D01*
X101830090Y-126326306D01*
X101889333Y-126223694D01*
X101912137Y-126138585D01*
X102621066Y-126847514D01*
X102621066Y-126847513D01*
X102667386Y-126783760D01*
X102767432Y-126587410D01*
X102835525Y-126377840D01*
X102839523Y-126352598D01*
X102869452Y-126289463D01*
X102928764Y-126252531D01*
X102998626Y-126253529D01*
X103056859Y-126292138D01*
X103068110Y-126307839D01*
X103069528Y-126310185D01*
X103069530Y-126310188D01*
X103189811Y-126430469D01*
X103189813Y-126430470D01*
X103189815Y-126430472D01*
X103335394Y-126518478D01*
X103497804Y-126569086D01*
X103568384Y-126575500D01*
X103568387Y-126575500D01*
X104081613Y-126575500D01*
X104081616Y-126575500D01*
X104152196Y-126569086D01*
X104314606Y-126518478D01*
X104460185Y-126430472D01*
X104487104Y-126403553D01*
X104562319Y-126328339D01*
X104623642Y-126294854D01*
X104693334Y-126299838D01*
X104737681Y-126328339D01*
X104839811Y-126430469D01*
X104839813Y-126430470D01*
X104839815Y-126430472D01*
X104985394Y-126518478D01*
X105147804Y-126569086D01*
X105218384Y-126575500D01*
X105218387Y-126575500D01*
X105731613Y-126575500D01*
X105731616Y-126575500D01*
X105802196Y-126569086D01*
X105964606Y-126518478D01*
X106110185Y-126430472D01*
X106230472Y-126310185D01*
X106318478Y-126164606D01*
X106369086Y-126002196D01*
X106375500Y-125931616D01*
X106375500Y-125268384D01*
X106369086Y-125197804D01*
X106318478Y-125035394D01*
X106230472Y-124889815D01*
X106230470Y-124889813D01*
X106230469Y-124889811D01*
X106215838Y-124875180D01*
X106182353Y-124813857D01*
X106187337Y-124744165D01*
X106215838Y-124699818D01*
X106255472Y-124660185D01*
X106343478Y-124514606D01*
X106394086Y-124352196D01*
X106400500Y-124281616D01*
X106400500Y-123618384D01*
X106394086Y-123547804D01*
X106343478Y-123385394D01*
X106255472Y-123239815D01*
X106255470Y-123239813D01*
X106255469Y-123239811D01*
X106135188Y-123119530D01*
X105989606Y-123031522D01*
X105827196Y-122980914D01*
X105827194Y-122980913D01*
X105827192Y-122980913D01*
X105777778Y-122976423D01*
X105756616Y-122974500D01*
X105756613Y-122974500D01*
X105517197Y-122974500D01*
X105450158Y-122954815D01*
X105404403Y-122902011D01*
X105394459Y-122832853D01*
X105423484Y-122769297D01*
X105429516Y-122762819D01*
X106298739Y-121893596D01*
X108999713Y-119192621D01*
X108999716Y-119192620D01*
X109111520Y-119080816D01*
X109161639Y-118994004D01*
X109190577Y-118943885D01*
X109231501Y-118791157D01*
X109231501Y-118633043D01*
X109231501Y-118625448D01*
X109231500Y-118625430D01*
X109231500Y-109512586D01*
X109251185Y-109445547D01*
X109303989Y-109399792D01*
X109373147Y-109389848D01*
X109436703Y-109418873D01*
G37*
%TD.AperFunction*%
%TA.AperFunction,Conductor*%
G36*
X97510000Y-121900000D02*
G01*
X98207828Y-121900000D01*
X98207844Y-121899999D01*
X98267372Y-121893598D01*
X98267379Y-121893596D01*
X98402086Y-121843354D01*
X98402093Y-121843350D01*
X98517187Y-121757190D01*
X98517190Y-121757187D01*
X98603350Y-121642093D01*
X98603354Y-121642086D01*
X98633213Y-121562031D01*
X98675084Y-121506097D01*
X98740548Y-121481680D01*
X98808821Y-121496531D01*
X98837076Y-121517683D01*
X98887636Y-121568243D01*
X98887641Y-121568247D01*
X99021870Y-121665769D01*
X99065978Y-121697815D01*
X99153337Y-121742327D01*
X99262393Y-121797895D01*
X99262396Y-121797896D01*
X99367221Y-121831955D01*
X99472049Y-121866015D01*
X99689778Y-121900500D01*
X99689779Y-121900500D01*
X99910221Y-121900500D01*
X99910222Y-121900500D01*
X100127951Y-121866015D01*
X100337606Y-121797895D01*
X100534022Y-121697815D01*
X100712365Y-121568242D01*
X100868242Y-121412365D01*
X100997815Y-121234022D01*
X101097895Y-121037606D01*
X101104366Y-121017690D01*
X101120426Y-120968263D01*
X101132576Y-120950492D01*
X101140468Y-120930464D01*
X101151905Y-120922224D01*
X101159863Y-120910587D01*
X101179693Y-120902206D01*
X101197159Y-120889624D01*
X101211235Y-120888876D01*
X101224221Y-120883388D01*
X101245434Y-120887059D01*
X101266930Y-120885917D01*
X101279175Y-120892897D01*
X101293068Y-120895302D01*
X101308929Y-120909859D01*
X101327630Y-120920520D01*
X101334157Y-120933013D01*
X101344544Y-120942546D01*
X101350016Y-120963365D01*
X101359986Y-120982446D01*
X101361240Y-121006066D01*
X101362306Y-121010120D01*
X101361858Y-121017690D01*
X101355269Y-121090934D01*
X101354811Y-121095201D01*
X101345002Y-121173686D01*
X101345537Y-121181095D01*
X101346260Y-121191115D01*
X101344695Y-121208519D01*
X101353333Y-121289217D01*
X101353489Y-121291375D01*
X101353491Y-121291392D01*
X101359180Y-121370254D01*
X101361151Y-121377420D01*
X101361150Y-121377420D01*
X101363814Y-121387109D01*
X101365674Y-121404480D01*
X101389899Y-121481972D01*
X101390475Y-121484065D01*
X101411433Y-121560283D01*
X101414762Y-121566923D01*
X101415424Y-121568243D01*
X101419264Y-121575903D01*
X101424479Y-121592583D01*
X101463349Y-121663845D01*
X101464302Y-121665746D01*
X101464314Y-121665769D01*
X101499751Y-121736459D01*
X101499753Y-121736461D01*
X101499755Y-121736465D01*
X101504315Y-121742327D01*
X101515295Y-121759079D01*
X102490963Y-123547804D01*
X102765610Y-124051322D01*
X102780431Y-124119602D01*
X102755985Y-124185055D01*
X102700032Y-124226901D01*
X102656751Y-124234700D01*
X100891940Y-124234700D01*
X100851019Y-124245664D01*
X100851019Y-124245665D01*
X100813751Y-124255651D01*
X100739214Y-124275623D01*
X100739209Y-124275626D01*
X100602290Y-124354675D01*
X100602282Y-124354681D01*
X100490478Y-124466486D01*
X100250348Y-124706615D01*
X100189025Y-124740100D01*
X100119333Y-124735116D01*
X100088354Y-124718199D01*
X100072332Y-124706204D01*
X100072328Y-124706202D01*
X99937482Y-124655908D01*
X99937483Y-124655908D01*
X99877883Y-124649501D01*
X99877881Y-124649500D01*
X99877873Y-124649500D01*
X99877864Y-124649500D01*
X97982129Y-124649500D01*
X97982123Y-124649501D01*
X97922516Y-124655908D01*
X97787671Y-124706202D01*
X97787664Y-124706206D01*
X97672455Y-124792452D01*
X97672452Y-124792455D01*
X97586206Y-124907664D01*
X97586202Y-124907671D01*
X97535908Y-125042517D01*
X97529501Y-125102116D01*
X97529500Y-125102135D01*
X97529500Y-126014984D01*
X97509815Y-126082023D01*
X97457011Y-126127778D01*
X97387853Y-126137722D01*
X97324297Y-126108697D01*
X97286712Y-126050556D01*
X97234531Y-125876306D01*
X97078045Y-125353740D01*
X97077382Y-125351446D01*
X97007964Y-125102135D01*
X96552505Y-123466393D01*
X96551893Y-123464104D01*
X96531613Y-123385394D01*
X96188822Y-122054936D01*
X96191157Y-121985108D01*
X96230875Y-121927625D01*
X96295366Y-121900741D01*
X96308900Y-121900000D01*
X97010000Y-121900000D01*
X97010000Y-120875277D01*
X97086306Y-120919333D01*
X97200756Y-120950000D01*
X97319244Y-120950000D01*
X97433694Y-120919333D01*
X97510000Y-120875277D01*
X97510000Y-121900000D01*
G37*
%TD.AperFunction*%
%TA.AperFunction,Conductor*%
G36*
X95110000Y-109550000D02*
G01*
X95807828Y-109550000D01*
X95807844Y-109549999D01*
X95867372Y-109543598D01*
X95867379Y-109543596D01*
X96002086Y-109493354D01*
X96002093Y-109493350D01*
X96117187Y-109407190D01*
X96117190Y-109407187D01*
X96203350Y-109292093D01*
X96203354Y-109292086D01*
X96233213Y-109212031D01*
X96275084Y-109156097D01*
X96340548Y-109131680D01*
X96408821Y-109146531D01*
X96437076Y-109167683D01*
X96487636Y-109218243D01*
X96487641Y-109218247D01*
X96600239Y-109300053D01*
X96665978Y-109347815D01*
X96748472Y-109389848D01*
X96862393Y-109447895D01*
X96862396Y-109447896D01*
X96953975Y-109477651D01*
X97072049Y-109516015D01*
X97289778Y-109550500D01*
X97289779Y-109550500D01*
X97510221Y-109550500D01*
X97510222Y-109550500D01*
X97727951Y-109516015D01*
X97937606Y-109447895D01*
X98044504Y-109393426D01*
X98113173Y-109380530D01*
X98177914Y-109406806D01*
X98218171Y-109463912D01*
X98224800Y-109503911D01*
X98224800Y-112684586D01*
X98205115Y-112751625D01*
X98173036Y-112782212D01*
X98174433Y-112784032D01*
X98167981Y-112788982D01*
X97800348Y-113156615D01*
X97739025Y-113190100D01*
X97669333Y-113185116D01*
X97638354Y-113168199D01*
X97622332Y-113156204D01*
X97622328Y-113156202D01*
X97487482Y-113105908D01*
X97487483Y-113105908D01*
X97427883Y-113099501D01*
X97427881Y-113099500D01*
X97427873Y-113099500D01*
X97427864Y-113099500D01*
X95532129Y-113099500D01*
X95532123Y-113099501D01*
X95472516Y-113105908D01*
X95337671Y-113156202D01*
X95337664Y-113156206D01*
X95222455Y-113242452D01*
X95222452Y-113242455D01*
X95136206Y-113357664D01*
X95136202Y-113357671D01*
X95085908Y-113492517D01*
X95079501Y-113552116D01*
X95079500Y-113552135D01*
X95079500Y-115447870D01*
X95079501Y-115447876D01*
X95085908Y-115507483D01*
X95136202Y-115642328D01*
X95136206Y-115642335D01*
X95222452Y-115757544D01*
X95222455Y-115757547D01*
X95337664Y-115843793D01*
X95337671Y-115843797D01*
X95472517Y-115894091D01*
X95472516Y-115894091D01*
X95479444Y-115894835D01*
X95532127Y-115900500D01*
X97427872Y-115900499D01*
X97487483Y-115894091D01*
X97622331Y-115843796D01*
X97737546Y-115757546D01*
X97823796Y-115642331D01*
X97874091Y-115507483D01*
X97880500Y-115447873D01*
X97880499Y-115337306D01*
X97900183Y-115270269D01*
X97916818Y-115249627D01*
X98577861Y-114588584D01*
X98600667Y-114673694D01*
X98659910Y-114776306D01*
X98743694Y-114860090D01*
X98846306Y-114919333D01*
X98931414Y-114942137D01*
X98222485Y-115651065D01*
X98222485Y-115651066D01*
X98286243Y-115697388D01*
X98482589Y-115797432D01*
X98692164Y-115865526D01*
X98909819Y-115900000D01*
X99130181Y-115900000D01*
X99347835Y-115865526D01*
X99557410Y-115797432D01*
X99753760Y-115697386D01*
X99817513Y-115651066D01*
X99817514Y-115651066D01*
X99108585Y-114942138D01*
X99193694Y-114919333D01*
X99296306Y-114860090D01*
X99380090Y-114776306D01*
X99439333Y-114673694D01*
X99462137Y-114588585D01*
X100171066Y-115297514D01*
X100171066Y-115297513D01*
X100217386Y-115233760D01*
X100317431Y-115037411D01*
X100322749Y-115021044D01*
X100362183Y-114963367D01*
X100426540Y-114936165D01*
X100495387Y-114948076D01*
X100546866Y-114995317D01*
X100553755Y-115008460D01*
X100556518Y-115014599D01*
X100556521Y-115014605D01*
X100556522Y-115014606D01*
X100630558Y-115137076D01*
X100644530Y-115160188D01*
X100764811Y-115280469D01*
X100764813Y-115280470D01*
X100764815Y-115280472D01*
X100910394Y-115368478D01*
X101072804Y-115419086D01*
X101143384Y-115425500D01*
X101143387Y-115425500D01*
X101656613Y-115425500D01*
X101656616Y-115425500D01*
X101727196Y-115419086D01*
X101889606Y-115368478D01*
X102035185Y-115280472D01*
X102081897Y-115233760D01*
X102137319Y-115178339D01*
X102198642Y-115144854D01*
X102268334Y-115149838D01*
X102312681Y-115178339D01*
X102414811Y-115280469D01*
X102414813Y-115280470D01*
X102414815Y-115280472D01*
X102560394Y-115368478D01*
X102722804Y-115419086D01*
X102793384Y-115425500D01*
X102871579Y-115425500D01*
X102938618Y-115445185D01*
X102984373Y-115497989D01*
X102994317Y-115567147D01*
X102965292Y-115630703D01*
X102962042Y-115634309D01*
X102384573Y-116250275D01*
X102384572Y-116250274D01*
X102382943Y-116252010D01*
X102326324Y-116308022D01*
X102315693Y-116323744D01*
X102308955Y-116330933D01*
X102308953Y-116330937D01*
X102302701Y-116337606D01*
X102261822Y-116403274D01*
X102259282Y-116407188D01*
X102215948Y-116471290D01*
X102215947Y-116471293D01*
X102208585Y-116488797D01*
X102198550Y-116504918D01*
X102170450Y-116579464D01*
X102169536Y-116581640D01*
X102169534Y-116581641D01*
X102139542Y-116652958D01*
X102139541Y-116652962D01*
X102137709Y-116661918D01*
X102135735Y-116671569D01*
X102129040Y-116689334D01*
X102116032Y-116767884D01*
X102115562Y-116770183D01*
X102115555Y-116770224D01*
X101775143Y-118434460D01*
X101742423Y-118496195D01*
X101741340Y-118497292D01*
X101632287Y-118606345D01*
X101540187Y-118755663D01*
X101540186Y-118755666D01*
X101485001Y-118922203D01*
X101485001Y-118922204D01*
X101485000Y-118922204D01*
X101474500Y-119024983D01*
X101474500Y-120129985D01*
X101473542Y-120145365D01*
X101444605Y-120376860D01*
X101416758Y-120440941D01*
X101358686Y-120479793D01*
X101288828Y-120481081D01*
X101229364Y-120444397D01*
X101199171Y-120381388D01*
X101199090Y-120380878D01*
X101190447Y-120326306D01*
X101166015Y-120172049D01*
X101131955Y-120067221D01*
X101097896Y-119962396D01*
X101097895Y-119962393D01*
X101063237Y-119894375D01*
X100997815Y-119765978D01*
X100968440Y-119725547D01*
X100868247Y-119587641D01*
X100868243Y-119587636D01*
X100712363Y-119431756D01*
X100712358Y-119431752D01*
X100534025Y-119302187D01*
X100534024Y-119302186D01*
X100534022Y-119302185D01*
X100471096Y-119270122D01*
X100337606Y-119202104D01*
X100337603Y-119202103D01*
X100127952Y-119133985D01*
X100019086Y-119116742D01*
X99910222Y-119099500D01*
X99689778Y-119099500D01*
X99617201Y-119110995D01*
X99472047Y-119133985D01*
X99262396Y-119202103D01*
X99262393Y-119202104D01*
X99065974Y-119302187D01*
X98887641Y-119431752D01*
X98887636Y-119431756D01*
X98837075Y-119482317D01*
X98775752Y-119515801D01*
X98706060Y-119510816D01*
X98650127Y-119468945D01*
X98633213Y-119437968D01*
X98603354Y-119357913D01*
X98603350Y-119357906D01*
X98517190Y-119242812D01*
X98517187Y-119242809D01*
X98402093Y-119156649D01*
X98402086Y-119156645D01*
X98267379Y-119106403D01*
X98267372Y-119106401D01*
X98207844Y-119100000D01*
X97510000Y-119100000D01*
X97510000Y-120124722D01*
X97433694Y-120080667D01*
X97319244Y-120050000D01*
X97200756Y-120050000D01*
X97086306Y-120080667D01*
X97010000Y-120124722D01*
X97010000Y-119100000D01*
X96312155Y-119100000D01*
X96252627Y-119106401D01*
X96252620Y-119106403D01*
X96117913Y-119156645D01*
X96117906Y-119156649D01*
X96002812Y-119242809D01*
X96002809Y-119242812D01*
X95916649Y-119357906D01*
X95916645Y-119357913D01*
X95866403Y-119492620D01*
X95866401Y-119492627D01*
X95860000Y-119552155D01*
X95860000Y-119649519D01*
X95854077Y-119669687D01*
X95852969Y-119690680D01*
X95844431Y-119702539D01*
X95840315Y-119716558D01*
X95824429Y-119730322D01*
X95812147Y-119747384D01*
X95798553Y-119752744D01*
X95787511Y-119762313D01*
X95766705Y-119765304D01*
X95747149Y-119773017D01*
X95732815Y-119770177D01*
X95718353Y-119772257D01*
X95699232Y-119763525D01*
X95678611Y-119759440D01*
X95668087Y-119749301D01*
X95654797Y-119743232D01*
X95643431Y-119725547D01*
X95628294Y-119710963D01*
X95619137Y-119687744D01*
X95617023Y-119684454D01*
X95615346Y-119678130D01*
X95613182Y-119669003D01*
X95611763Y-119663019D01*
X95611264Y-119660821D01*
X95196913Y-117748446D01*
X95196426Y-117746090D01*
X95043641Y-116968335D01*
X94819237Y-115826001D01*
X94818817Y-115823742D01*
X94478953Y-113896761D01*
X94478562Y-113894412D01*
X94477151Y-113885394D01*
X94176142Y-111961229D01*
X94175796Y-111958869D01*
X94165146Y-111880914D01*
X93910917Y-110020087D01*
X93910633Y-110017846D01*
X93872117Y-109688399D01*
X93883884Y-109619527D01*
X93931017Y-109567950D01*
X93995278Y-109550000D01*
X94610000Y-109550000D01*
X94610000Y-108525277D01*
X94686306Y-108569333D01*
X94800756Y-108600000D01*
X94919244Y-108600000D01*
X95033694Y-108569333D01*
X95110000Y-108525277D01*
X95110000Y-109550000D01*
G37*
%TD.AperFunction*%
%TA.AperFunction,Conductor*%
G36*
X101490451Y-57903778D02*
G01*
X101580569Y-57919559D01*
X101609523Y-57928381D01*
X101632208Y-57938462D01*
X101693121Y-57965531D01*
X101719084Y-57981115D01*
X101797216Y-58042129D01*
X101808580Y-58052181D01*
X101856852Y-58100455D01*
X101856866Y-58100467D01*
X109208785Y-65452385D01*
X109301971Y-65545571D01*
X109416099Y-65611463D01*
X109543392Y-65645571D01*
X109543393Y-65645571D01*
X113891408Y-65645571D01*
X113949767Y-65645571D01*
X113964777Y-65646483D01*
X113994330Y-65650086D01*
X114062346Y-65658381D01*
X114091482Y-65665595D01*
X114176238Y-65697892D01*
X114202790Y-65711899D01*
X114277305Y-65763622D01*
X114299715Y-65783602D01*
X114359607Y-65851709D01*
X114376558Y-65876489D01*
X114418328Y-65956999D01*
X114428826Y-65985126D01*
X114450022Y-66073313D01*
X114453453Y-66103139D01*
X114452833Y-66193836D01*
X114448995Y-66223612D01*
X114424802Y-66318539D01*
X114420210Y-66332862D01*
X114121241Y-67101566D01*
X113548321Y-68663974D01*
X113005957Y-70237109D01*
X112494272Y-71820626D01*
X112013529Y-73413707D01*
X111563870Y-75015875D01*
X111145467Y-76626524D01*
X110758494Y-78244988D01*
X110403087Y-79870688D01*
X110079404Y-81502916D01*
X110079399Y-81502942D01*
X110079397Y-81502954D01*
X109787527Y-83141236D01*
X109752141Y-83364998D01*
X109527597Y-84784873D01*
X109299697Y-86433294D01*
X109207100Y-87214856D01*
X109206048Y-87223730D01*
X109198331Y-87252538D01*
X109198331Y-87288883D01*
X109197470Y-87296152D01*
X109194055Y-87324982D01*
X109198331Y-87354497D01*
X109198331Y-87384322D01*
X109207736Y-87419423D01*
X109208786Y-87426670D01*
X109212949Y-87455403D01*
X109212950Y-87455408D01*
X109221192Y-87474596D01*
X109223800Y-87480667D01*
X109224720Y-87482809D01*
X109232439Y-87511616D01*
X109250613Y-87543094D01*
X109253502Y-87549820D01*
X109253502Y-87549821D01*
X109264957Y-87576493D01*
X109264960Y-87576496D01*
X109277886Y-87592898D01*
X109283423Y-87599923D01*
X109298331Y-87625744D01*
X109324026Y-87651439D01*
X109328558Y-87657189D01*
X109346530Y-87679991D01*
X109346531Y-87679992D01*
X109346533Y-87679994D01*
X109370428Y-87697841D01*
X109391517Y-87718930D01*
X109422996Y-87737104D01*
X109452117Y-87758855D01*
X109471522Y-87766598D01*
X109487545Y-87774371D01*
X109505645Y-87784822D01*
X109540757Y-87794230D01*
X109574514Y-87807702D01*
X109604129Y-87811210D01*
X109632939Y-87818930D01*
X109632942Y-87818930D01*
X109669289Y-87818930D01*
X109705383Y-87823206D01*
X109734898Y-87818930D01*
X114484044Y-87818930D01*
X114551083Y-87838615D01*
X114596838Y-87891419D01*
X114608044Y-87942930D01*
X114608044Y-106693930D01*
X114588359Y-106760969D01*
X114535555Y-106806724D01*
X114484044Y-106817930D01*
X109734898Y-106817930D01*
X109705383Y-106813654D01*
X109669287Y-106817930D01*
X109632935Y-106817930D01*
X109612763Y-106823335D01*
X109595266Y-106826698D01*
X109574512Y-106829157D01*
X109574510Y-106829157D01*
X109547551Y-106839915D01*
X109547552Y-106839916D01*
X109540742Y-106842633D01*
X109505645Y-106852038D01*
X109479823Y-106866944D01*
X109471527Y-106870256D01*
X109471521Y-106870260D01*
X109452118Y-106878004D01*
X109429701Y-106894747D01*
X109364210Y-106919092D01*
X109295953Y-106904165D01*
X109246602Y-106854705D01*
X109231500Y-106795398D01*
X109231500Y-99409096D01*
X109251185Y-99342057D01*
X109267814Y-99321420D01*
X111237819Y-97351414D01*
X111299142Y-97317930D01*
X111368834Y-97322914D01*
X111424767Y-97364786D01*
X111449184Y-97430250D01*
X111449500Y-97439096D01*
X111449500Y-97586286D01*
X111482753Y-97796239D01*
X111548444Y-97998414D01*
X111644951Y-98187820D01*
X111769890Y-98359786D01*
X111920213Y-98510109D01*
X112092182Y-98635050D01*
X112100946Y-98639516D01*
X112151742Y-98687491D01*
X112168536Y-98755312D01*
X112145998Y-98821447D01*
X112100946Y-98860484D01*
X112092182Y-98864949D01*
X111920213Y-98989890D01*
X111769890Y-99140213D01*
X111644951Y-99312179D01*
X111548444Y-99501585D01*
X111482753Y-99703760D01*
X111449500Y-99913713D01*
X111449500Y-100126286D01*
X111480863Y-100324308D01*
X111482754Y-100336243D01*
X111547510Y-100535542D01*
X111548444Y-100538414D01*
X111644951Y-100727820D01*
X111769890Y-100899786D01*
X111920213Y-101050109D01*
X112092182Y-101175050D01*
X112100946Y-101179516D01*
X112151742Y-101227491D01*
X112168536Y-101295312D01*
X112145998Y-101361447D01*
X112100946Y-101400484D01*
X112092182Y-101404949D01*
X111920213Y-101529890D01*
X111769890Y-101680213D01*
X111644951Y-101852179D01*
X111548444Y-102041585D01*
X111482753Y-102243760D01*
X111449500Y-102453713D01*
X111449500Y-102666286D01*
X111479252Y-102854137D01*
X111482754Y-102876243D01*
X111489138Y-102895892D01*
X111548444Y-103078414D01*
X111644951Y-103267820D01*
X111769890Y-103439786D01*
X111920213Y-103590109D01*
X112092182Y-103715050D01*
X112100946Y-103719516D01*
X112151742Y-103767491D01*
X112168536Y-103835312D01*
X112145998Y-103901447D01*
X112100946Y-103940484D01*
X112092182Y-103944949D01*
X111920213Y-104069890D01*
X111769890Y-104220213D01*
X111644951Y-104392179D01*
X111548444Y-104581585D01*
X111482753Y-104783760D01*
X111449500Y-104993713D01*
X111449500Y-105206286D01*
X111482753Y-105416239D01*
X111548444Y-105618414D01*
X111644951Y-105807820D01*
X111769890Y-105979786D01*
X111920213Y-106130109D01*
X112092179Y-106255048D01*
X112092181Y-106255049D01*
X112092184Y-106255051D01*
X112281588Y-106351557D01*
X112483757Y-106417246D01*
X112693713Y-106450500D01*
X112693714Y-106450500D01*
X112906286Y-106450500D01*
X112906287Y-106450500D01*
X113116243Y-106417246D01*
X113318412Y-106351557D01*
X113507816Y-106255051D01*
X113529789Y-106239086D01*
X113679786Y-106130109D01*
X113679788Y-106130106D01*
X113679792Y-106130104D01*
X113830104Y-105979792D01*
X113830106Y-105979788D01*
X113830109Y-105979786D01*
X113955048Y-105807820D01*
X113955047Y-105807820D01*
X113955051Y-105807816D01*
X114051557Y-105618412D01*
X114117246Y-105416243D01*
X114150500Y-105206287D01*
X114150500Y-104993713D01*
X114117246Y-104783757D01*
X114051557Y-104581588D01*
X113955051Y-104392184D01*
X113955049Y-104392181D01*
X113955048Y-104392179D01*
X113830109Y-104220213D01*
X113679786Y-104069890D01*
X113507820Y-103944951D01*
X113507115Y-103944591D01*
X113499054Y-103940485D01*
X113448259Y-103892512D01*
X113431463Y-103824692D01*
X113453999Y-103758556D01*
X113499054Y-103719515D01*
X113507816Y-103715051D01*
X113529789Y-103699086D01*
X113679786Y-103590109D01*
X113679788Y-103590106D01*
X113679792Y-103590104D01*
X113830104Y-103439792D01*
X113830106Y-103439788D01*
X113830109Y-103439786D01*
X113955048Y-103267820D01*
X113955047Y-103267820D01*
X113955051Y-103267816D01*
X114051557Y-103078412D01*
X114117246Y-102876243D01*
X114150500Y-102666287D01*
X114150500Y-102453713D01*
X114117246Y-102243757D01*
X114051557Y-102041588D01*
X113955051Y-101852184D01*
X113955049Y-101852181D01*
X113955048Y-101852179D01*
X113830109Y-101680213D01*
X113679786Y-101529890D01*
X113507820Y-101404951D01*
X113507115Y-101404591D01*
X113499054Y-101400485D01*
X113448259Y-101352512D01*
X113431463Y-101284692D01*
X113453999Y-101218556D01*
X113499054Y-101179515D01*
X113507816Y-101175051D01*
X113643728Y-101076306D01*
X113679786Y-101050109D01*
X113679788Y-101050106D01*
X113679792Y-101050104D01*
X113830104Y-100899792D01*
X113830106Y-100899788D01*
X113830109Y-100899786D01*
X113955048Y-100727820D01*
X113955047Y-100727820D01*
X113955051Y-100727816D01*
X114051557Y-100538412D01*
X114117246Y-100336243D01*
X114150500Y-100126287D01*
X114150500Y-99913713D01*
X114117246Y-99703757D01*
X114051557Y-99501588D01*
X113955051Y-99312184D01*
X113955049Y-99312181D01*
X113955048Y-99312179D01*
X113830109Y-99140213D01*
X113679786Y-98989890D01*
X113507820Y-98864951D01*
X113507115Y-98864591D01*
X113499054Y-98860485D01*
X113448259Y-98812512D01*
X113431463Y-98744692D01*
X113453999Y-98678556D01*
X113499054Y-98639515D01*
X113507816Y-98635051D01*
X113620785Y-98552975D01*
X113679786Y-98510109D01*
X113679788Y-98510106D01*
X113679792Y-98510104D01*
X113830104Y-98359792D01*
X113830106Y-98359788D01*
X113830109Y-98359786D01*
X113955048Y-98187820D01*
X113955047Y-98187820D01*
X113955051Y-98187816D01*
X114051557Y-97998412D01*
X114117246Y-97796243D01*
X114150500Y-97586287D01*
X114150500Y-97373713D01*
X114117246Y-97163757D01*
X114051557Y-96961588D01*
X113955051Y-96772184D01*
X113955049Y-96772181D01*
X113955048Y-96772179D01*
X113830109Y-96600213D01*
X113679786Y-96449890D01*
X113507820Y-96324951D01*
X113507115Y-96324591D01*
X113499054Y-96320485D01*
X113448259Y-96272512D01*
X113431463Y-96204692D01*
X113453999Y-96138556D01*
X113499054Y-96099515D01*
X113507816Y-96095051D01*
X113553797Y-96061644D01*
X113679786Y-95970109D01*
X113679788Y-95970106D01*
X113679792Y-95970104D01*
X113830104Y-95819792D01*
X113830106Y-95819788D01*
X113830109Y-95819786D01*
X113955048Y-95647820D01*
X113955047Y-95647820D01*
X113955051Y-95647816D01*
X114051557Y-95458412D01*
X114117246Y-95256243D01*
X114150500Y-95046287D01*
X114150500Y-94833713D01*
X114117246Y-94623757D01*
X114051557Y-94421588D01*
X113955051Y-94232184D01*
X113955049Y-94232181D01*
X113955048Y-94232179D01*
X113830109Y-94060213D01*
X113679786Y-93909890D01*
X113507820Y-93784951D01*
X113507115Y-93784591D01*
X113499054Y-93780485D01*
X113448259Y-93732512D01*
X113431463Y-93664692D01*
X113453999Y-93598556D01*
X113499054Y-93559515D01*
X113507816Y-93555051D01*
X113574859Y-93506342D01*
X113679786Y-93430109D01*
X113679788Y-93430106D01*
X113679792Y-93430104D01*
X113830104Y-93279792D01*
X113830106Y-93279788D01*
X113830109Y-93279786D01*
X113955048Y-93107820D01*
X113955047Y-93107820D01*
X113955051Y-93107816D01*
X114051557Y-92918412D01*
X114117246Y-92716243D01*
X114150500Y-92506287D01*
X114150500Y-92293713D01*
X114117246Y-92083757D01*
X114051557Y-91881588D01*
X113955051Y-91692184D01*
X113955049Y-91692181D01*
X113955048Y-91692179D01*
X113830109Y-91520213D01*
X113716181Y-91406285D01*
X113682696Y-91344962D01*
X113687680Y-91275270D01*
X113729552Y-91219337D01*
X113760529Y-91202422D01*
X113892086Y-91153354D01*
X113892093Y-91153350D01*
X114007187Y-91067190D01*
X114007190Y-91067187D01*
X114093350Y-90952093D01*
X114093354Y-90952086D01*
X114143596Y-90817379D01*
X114143598Y-90817372D01*
X114149999Y-90757844D01*
X114150000Y-90757827D01*
X114150000Y-90110000D01*
X113233012Y-90110000D01*
X113265925Y-90052993D01*
X113300000Y-89925826D01*
X113300000Y-89794174D01*
X113265925Y-89667007D01*
X113233012Y-89610000D01*
X114150000Y-89610000D01*
X114150000Y-88962172D01*
X114149999Y-88962155D01*
X114143598Y-88902627D01*
X114143596Y-88902620D01*
X114093354Y-88767913D01*
X114093350Y-88767906D01*
X114007190Y-88652812D01*
X114007187Y-88652809D01*
X113892093Y-88566649D01*
X113892086Y-88566645D01*
X113757379Y-88516403D01*
X113757372Y-88516401D01*
X113697844Y-88510000D01*
X113050000Y-88510000D01*
X113050000Y-89426988D01*
X112992993Y-89394075D01*
X112865826Y-89360000D01*
X112734174Y-89360000D01*
X112607007Y-89394075D01*
X112550000Y-89426988D01*
X112550000Y-88510000D01*
X111902155Y-88510000D01*
X111842627Y-88516401D01*
X111842620Y-88516403D01*
X111707913Y-88566645D01*
X111707906Y-88566649D01*
X111592812Y-88652809D01*
X111592809Y-88652812D01*
X111506649Y-88767906D01*
X111506645Y-88767913D01*
X111456403Y-88902620D01*
X111456401Y-88902627D01*
X111450000Y-88962155D01*
X111450000Y-89610000D01*
X112366988Y-89610000D01*
X112334075Y-89667007D01*
X112300000Y-89794174D01*
X112300000Y-89925826D01*
X112334075Y-90052993D01*
X112366988Y-90110000D01*
X111450000Y-90110000D01*
X111450000Y-90757844D01*
X111456401Y-90817372D01*
X111456403Y-90817379D01*
X111506645Y-90952086D01*
X111506647Y-90952089D01*
X111518038Y-90967305D01*
X111526091Y-90988896D01*
X111538259Y-91008467D01*
X111538071Y-91021012D01*
X111542456Y-91032768D01*
X111537558Y-91055285D01*
X111537213Y-91078329D01*
X111530271Y-91088782D01*
X111527605Y-91101042D01*
X111511311Y-91117336D01*
X111498563Y-91136535D01*
X111487072Y-91141575D01*
X111478201Y-91150448D01*
X111455683Y-91155346D01*
X111434580Y-91164605D01*
X111414507Y-91164304D01*
X111409928Y-91165301D01*
X111399290Y-91164077D01*
X111162991Y-91126484D01*
X111099877Y-91096511D01*
X111088627Y-91085073D01*
X109944507Y-89760303D01*
X108442793Y-88021475D01*
X108287353Y-87900317D01*
X108111264Y-87811811D01*
X107921290Y-87759358D01*
X107921289Y-87759357D01*
X107921286Y-87759357D01*
X107921281Y-87759356D01*
X107724738Y-87744975D01*
X107724728Y-87744976D01*
X107529150Y-87769216D01*
X107529146Y-87769217D01*
X107342052Y-87831149D01*
X107342051Y-87831149D01*
X107170629Y-87928391D01*
X107021475Y-88057207D01*
X106900318Y-88212645D01*
X106900317Y-88212647D01*
X106811811Y-88388736D01*
X106778329Y-88510000D01*
X106759357Y-88578713D01*
X106759356Y-88578718D01*
X106744975Y-88775261D01*
X106744976Y-88775271D01*
X106769216Y-88970849D01*
X106769217Y-88970853D01*
X106810505Y-89095582D01*
X106831149Y-89157948D01*
X106928390Y-89329369D01*
X109074441Y-91814270D01*
X109811639Y-92667867D01*
X109811639Y-92667868D01*
X109815082Y-92671855D01*
X109848039Y-92717282D01*
X109879325Y-92746243D01*
X109883851Y-92751483D01*
X109883860Y-92751492D01*
X109907207Y-92778525D01*
X109951479Y-92813033D01*
X109992669Y-92851161D01*
X110029013Y-92873467D01*
X110062647Y-92899683D01*
X110062651Y-92899685D01*
X110108102Y-92922530D01*
X110108103Y-92922530D01*
X110112800Y-92924891D01*
X110160637Y-92954251D01*
X110200628Y-92969036D01*
X110238736Y-92988190D01*
X110238740Y-92988191D01*
X110287295Y-93001597D01*
X110292848Y-93003130D01*
X110345489Y-93022592D01*
X110387601Y-93029291D01*
X110428711Y-93040642D01*
X110479467Y-93044355D01*
X110489880Y-93045563D01*
X111694530Y-93237211D01*
X111757644Y-93267184D01*
X111769330Y-93279130D01*
X111769892Y-93279788D01*
X111920213Y-93430109D01*
X112092182Y-93555050D01*
X112100946Y-93559516D01*
X112151742Y-93607491D01*
X112168536Y-93675312D01*
X112145998Y-93741447D01*
X112100946Y-93780484D01*
X112092182Y-93784949D01*
X111920213Y-93909890D01*
X111769890Y-94060213D01*
X111644951Y-94232179D01*
X111548444Y-94421585D01*
X111482753Y-94623760D01*
X111466925Y-94723694D01*
X111449500Y-94833713D01*
X111449500Y-95046287D01*
X111464710Y-95142321D01*
X111482754Y-95256244D01*
X111482754Y-95256247D01*
X111496491Y-95298523D01*
X111498486Y-95368364D01*
X111466241Y-95424522D01*
X108262286Y-98628478D01*
X108150481Y-98740282D01*
X108150475Y-98740290D01*
X108110337Y-98809813D01*
X108110337Y-98809815D01*
X108071423Y-98877214D01*
X108071423Y-98877215D01*
X108030499Y-99029943D01*
X108030499Y-99029945D01*
X108030499Y-99198046D01*
X108030500Y-99198059D01*
X108030500Y-118412002D01*
X108010815Y-118479041D01*
X107994181Y-118499683D01*
X106737180Y-119756684D01*
X106675857Y-119790169D01*
X106606165Y-119785185D01*
X106550232Y-119743313D01*
X106525815Y-119677849D01*
X106525499Y-119669003D01*
X106525499Y-119024998D01*
X106525498Y-119024981D01*
X106514999Y-118922203D01*
X106514998Y-118922200D01*
X106513795Y-118918570D01*
X106459814Y-118755666D01*
X106367712Y-118606344D01*
X106243656Y-118482288D01*
X106094334Y-118390186D01*
X105927797Y-118335001D01*
X105927795Y-118335000D01*
X105825010Y-118324500D01*
X105099998Y-118324500D01*
X105099980Y-118324501D01*
X104997203Y-118335000D01*
X104997200Y-118335001D01*
X104830668Y-118390185D01*
X104830663Y-118390187D01*
X104681342Y-118482289D01*
X104557289Y-118606342D01*
X104465187Y-118755663D01*
X104465185Y-118755668D01*
X104410001Y-118922204D01*
X104410000Y-118922205D01*
X104403268Y-118988103D01*
X104376871Y-119052795D01*
X104319690Y-119092946D01*
X104279910Y-119099500D01*
X103990242Y-119099500D01*
X103857425Y-119135088D01*
X103787575Y-119133425D01*
X103729713Y-119094262D01*
X103702209Y-119030034D01*
X103703847Y-118990464D01*
X103717810Y-118922204D01*
X104016454Y-117462161D01*
X104047476Y-117402202D01*
X106038085Y-115278886D01*
X106066802Y-115254916D01*
X106105333Y-115207155D01*
X106147298Y-115162394D01*
X106163070Y-115137055D01*
X106171813Y-115124753D01*
X106190551Y-115101529D01*
X106219023Y-115047172D01*
X106251450Y-114995082D01*
X106264641Y-114960084D01*
X106281998Y-114926949D01*
X106299319Y-114868080D01*
X106320960Y-114810666D01*
X106327070Y-114773764D01*
X106337629Y-114737881D01*
X106342718Y-114681362D01*
X106343884Y-114672224D01*
X106353157Y-114616232D01*
X106351951Y-114578847D01*
X106355306Y-114541595D01*
X106348781Y-114480580D01*
X106346803Y-114419253D01*
X106344860Y-114410904D01*
X106340044Y-114390205D01*
X106337521Y-114375293D01*
X106334350Y-114345631D01*
X106317414Y-114291437D01*
X106316045Y-114287057D01*
X106302142Y-114227298D01*
X106286722Y-114193223D01*
X105313863Y-111080078D01*
X105312067Y-111073740D01*
X105295101Y-111007225D01*
X105287388Y-110991100D01*
X105280896Y-110974580D01*
X105275567Y-110957526D01*
X105275566Y-110957525D01*
X105275565Y-110957520D01*
X105242687Y-110897228D01*
X105239700Y-110891387D01*
X105234290Y-110880076D01*
X105210069Y-110829432D01*
X105194027Y-110807996D01*
X105181211Y-110784494D01*
X105135098Y-110729253D01*
X105091985Y-110671643D01*
X105078689Y-110659696D01*
X105066382Y-110646933D01*
X105054916Y-110633198D01*
X104998899Y-110588005D01*
X104945387Y-110539924D01*
X104922368Y-110526262D01*
X104915447Y-110520678D01*
X104915445Y-110520675D01*
X104901536Y-110509454D01*
X104901529Y-110509449D01*
X104840696Y-110477584D01*
X104840696Y-110477583D01*
X104837773Y-110476052D01*
X104775909Y-110439334D01*
X104750664Y-110430423D01*
X104742784Y-110426296D01*
X104726948Y-110418001D01*
X104661089Y-110398622D01*
X104654822Y-110396596D01*
X102438411Y-109614334D01*
X102424165Y-109604169D01*
X102408181Y-109598713D01*
X102382535Y-109574466D01*
X102265207Y-109426562D01*
X102238965Y-109361808D01*
X102251898Y-109293145D01*
X102299900Y-109242375D01*
X102362349Y-109225499D01*
X103025008Y-109225499D01*
X103025016Y-109225498D01*
X103025019Y-109225498D01*
X103096050Y-109218242D01*
X103127797Y-109214999D01*
X103294334Y-109159814D01*
X103443656Y-109067712D01*
X103567712Y-108943656D01*
X103659814Y-108794334D01*
X103714999Y-108627797D01*
X103725500Y-108525009D01*
X103725499Y-107174992D01*
X103714999Y-107072203D01*
X103659814Y-106905666D01*
X103567712Y-106756344D01*
X103443656Y-106632288D01*
X103294334Y-106540186D01*
X103127797Y-106485001D01*
X103127795Y-106485000D01*
X103025010Y-106474500D01*
X102299998Y-106474500D01*
X102299980Y-106474501D01*
X102210031Y-106483690D01*
X102141338Y-106470920D01*
X102128903Y-106463676D01*
X102118540Y-106456804D01*
X102093416Y-106431680D01*
X101998036Y-106376613D01*
X101994718Y-106374697D01*
X101994710Y-106374692D01*
X101956483Y-106352622D01*
X101900581Y-106337643D01*
X101803757Y-106311699D01*
X101645643Y-106311699D01*
X101638047Y-106311699D01*
X101638031Y-106311700D01*
X101419766Y-106311700D01*
X101352727Y-106292015D01*
X101350875Y-106290802D01*
X101219185Y-106202809D01*
X101219172Y-106202802D01*
X101073501Y-106142464D01*
X101073489Y-106142461D01*
X100918845Y-106111700D01*
X100918842Y-106111700D01*
X100909874Y-106111700D01*
X100899667Y-106108703D01*
X100889104Y-106109948D01*
X100866723Y-106099029D01*
X100842835Y-106092015D01*
X100835870Y-106083977D01*
X100826309Y-106079313D01*
X100813383Y-106058025D01*
X100797080Y-106039211D01*
X100794607Y-106027104D01*
X100790045Y-106019591D01*
X100785914Y-105984539D01*
X100787799Y-105910617D01*
X100809186Y-105844101D01*
X100829017Y-105821421D01*
X102801193Y-104054679D01*
X102816771Y-104042803D01*
X102824686Y-104037705D01*
X102881805Y-103982465D01*
X102940979Y-103929456D01*
X102952529Y-103914069D01*
X102966355Y-103900699D01*
X103010273Y-103837292D01*
X103013010Y-103833500D01*
X103015638Y-103830000D01*
X103059296Y-103771843D01*
X103067621Y-103754501D01*
X103078575Y-103738688D01*
X103110201Y-103665809D01*
X103144592Y-103594176D01*
X103146931Y-103585058D01*
X103153283Y-103566533D01*
X104239278Y-101064022D01*
X104253392Y-101041128D01*
X104278436Y-100973788D01*
X104307032Y-100907896D01*
X104310841Y-100890288D01*
X104315816Y-100873285D01*
X104322094Y-100856407D01*
X104333519Y-100785477D01*
X104348710Y-100715273D01*
X104349160Y-100688384D01*
X104353437Y-100661835D01*
X104350926Y-100593345D01*
X104350861Y-100586741D01*
X104352009Y-100518220D01*
X104348790Y-100500495D01*
X104346879Y-100482887D01*
X104346220Y-100464886D01*
X104329634Y-100394990D01*
X104316801Y-100324308D01*
X104306926Y-100299292D01*
X103627944Y-97437874D01*
X103627034Y-97433716D01*
X103611439Y-97356157D01*
X103611438Y-97356154D01*
X103611438Y-97356152D01*
X103604738Y-97340074D01*
X103600718Y-97323129D01*
X103566894Y-97249248D01*
X103551926Y-97213325D01*
X103535641Y-97174238D01*
X103535638Y-97174232D01*
X103531537Y-97168123D01*
X103525930Y-97159769D01*
X103518681Y-97143934D01*
X103471088Y-97078063D01*
X103425802Y-97010593D01*
X103425800Y-97010591D01*
X103420582Y-97005394D01*
X103407573Y-96990153D01*
X103403265Y-96984190D01*
X103403262Y-96984187D01*
X103345293Y-96930315D01*
X103345293Y-96930314D01*
X103343707Y-96928840D01*
X103286154Y-96871528D01*
X103271659Y-96861887D01*
X103264297Y-96855045D01*
X103264291Y-96855040D01*
X103258896Y-96850027D01*
X103258891Y-96850023D01*
X103213596Y-96822102D01*
X103189705Y-96807375D01*
X103122058Y-96762379D01*
X103105954Y-96755748D01*
X103091127Y-96746608D01*
X103091126Y-96746607D01*
X103091125Y-96746607D01*
X103091123Y-96746606D01*
X103016954Y-96719020D01*
X103012968Y-96717459D01*
X101704111Y-96178518D01*
X101532295Y-96107770D01*
X100944012Y-95865536D01*
X100889517Y-95821809D01*
X100874417Y-95792492D01*
X100502721Y-94749133D01*
X100498767Y-94679378D01*
X100511693Y-94646310D01*
X101032051Y-93729716D01*
X101082265Y-93681138D01*
X101150774Y-93667417D01*
X101215826Y-93692913D01*
X101256767Y-93749532D01*
X101261138Y-93816890D01*
X101260001Y-93822201D01*
X101249500Y-93924983D01*
X101249500Y-95275001D01*
X101249501Y-95275018D01*
X101260000Y-95377796D01*
X101260001Y-95377799D01*
X101288023Y-95462363D01*
X101315186Y-95544334D01*
X101407288Y-95693656D01*
X101531344Y-95817712D01*
X101601158Y-95860773D01*
X101608879Y-95865536D01*
X101680666Y-95909814D01*
X101847203Y-95964999D01*
X101949991Y-95975500D01*
X102675008Y-95975499D01*
X102675016Y-95975498D01*
X102675019Y-95975498D01*
X102731302Y-95969748D01*
X102777797Y-95964999D01*
X102944334Y-95909814D01*
X103093656Y-95817712D01*
X103217712Y-95693656D01*
X103309814Y-95544334D01*
X103364999Y-95377797D01*
X103375500Y-95275009D01*
X103375499Y-93924992D01*
X103364999Y-93822203D01*
X103309814Y-93655666D01*
X103217712Y-93506344D01*
X103110880Y-93399512D01*
X103077395Y-93338189D01*
X103082379Y-93268497D01*
X103121859Y-93215758D01*
X103121281Y-93215053D01*
X103124150Y-93212697D01*
X103124251Y-93212564D01*
X103124706Y-93212241D01*
X103125985Y-93211191D01*
X103125989Y-93211189D01*
X103237489Y-93099689D01*
X103325094Y-92968579D01*
X103385437Y-92822897D01*
X103416200Y-92668242D01*
X103416200Y-92510558D01*
X103416200Y-92510555D01*
X103416199Y-92510553D01*
X103415350Y-92506286D01*
X103385437Y-92355903D01*
X103385435Y-92355898D01*
X103325097Y-92210227D01*
X103325090Y-92210214D01*
X103237489Y-92079111D01*
X103237486Y-92079107D01*
X103125992Y-91967613D01*
X103125988Y-91967610D01*
X102996071Y-91880802D01*
X102981558Y-91863437D01*
X102963800Y-91849410D01*
X102959583Y-91837142D01*
X102951266Y-91827190D01*
X102948445Y-91804736D01*
X102941090Y-91783334D01*
X102944175Y-91770734D01*
X102942559Y-91757865D01*
X102952325Y-91737451D01*
X102957708Y-91715469D01*
X102969317Y-91701933D01*
X102972713Y-91694837D01*
X102979585Y-91687773D01*
X102983210Y-91684330D01*
X103004772Y-91666943D01*
X103017197Y-91652064D01*
X103022394Y-91647130D01*
X103023149Y-91646742D01*
X103025839Y-91643981D01*
X103034998Y-91635921D01*
X103081752Y-91574762D01*
X103131098Y-91515673D01*
X103141496Y-91496610D01*
X103147281Y-91489044D01*
X103147283Y-91489042D01*
X103147290Y-91489032D01*
X103154691Y-91479353D01*
X103158670Y-91471248D01*
X103188620Y-91410237D01*
X103225486Y-91342665D01*
X103231968Y-91321935D01*
X103320509Y-91141575D01*
X103496348Y-90783383D01*
X104591541Y-88552436D01*
X104603968Y-88505719D01*
X104640225Y-88445996D01*
X104703017Y-88415353D01*
X104772407Y-88423523D01*
X104826365Y-88467911D01*
X104847759Y-88534424D01*
X104847800Y-88537599D01*
X104847800Y-101067734D01*
X104828115Y-101134773D01*
X104826902Y-101136625D01*
X104738909Y-101268314D01*
X104738902Y-101268327D01*
X104678564Y-101413998D01*
X104678561Y-101414010D01*
X104647800Y-101568653D01*
X104647800Y-101726346D01*
X104678561Y-101880989D01*
X104678564Y-101881001D01*
X104738902Y-102026672D01*
X104738909Y-102026685D01*
X104826510Y-102157788D01*
X104826513Y-102157792D01*
X104938007Y-102269286D01*
X104938011Y-102269289D01*
X105069114Y-102356890D01*
X105069127Y-102356897D01*
X105214798Y-102417235D01*
X105214803Y-102417237D01*
X105369453Y-102447999D01*
X105369456Y-102448000D01*
X105369458Y-102448000D01*
X105527144Y-102448000D01*
X105527145Y-102447999D01*
X105681797Y-102417237D01*
X105827479Y-102356894D01*
X105958589Y-102269289D01*
X106070089Y-102157789D01*
X106157694Y-102026679D01*
X106218037Y-101880997D01*
X106248800Y-101726342D01*
X106248800Y-101568658D01*
X106248800Y-101568655D01*
X106248799Y-101568653D01*
X106241090Y-101529896D01*
X106218037Y-101414003D01*
X106166674Y-101290000D01*
X106157697Y-101268327D01*
X106157690Y-101268314D01*
X106069698Y-101136625D01*
X106048820Y-101069947D01*
X106048800Y-101067734D01*
X106048800Y-87842959D01*
X106048801Y-87842946D01*
X106048801Y-87674845D01*
X106048801Y-87674843D01*
X106007877Y-87522115D01*
X105978939Y-87471995D01*
X105928820Y-87385184D01*
X105817016Y-87273380D01*
X105817015Y-87273379D01*
X105812685Y-87269049D01*
X105812674Y-87269039D01*
X103722311Y-85178676D01*
X103688826Y-85117353D01*
X103693810Y-85047661D01*
X103735682Y-84991728D01*
X103785801Y-84969378D01*
X103816637Y-84963243D01*
X103913197Y-84944037D01*
X104058879Y-84883694D01*
X104189989Y-84796089D01*
X104301489Y-84684589D01*
X104389094Y-84553479D01*
X104449437Y-84407797D01*
X104480200Y-84253142D01*
X104480200Y-84095458D01*
X104480200Y-84095455D01*
X104480199Y-84095453D01*
X104449438Y-83940810D01*
X104449437Y-83940803D01*
X104449435Y-83940798D01*
X104389097Y-83795127D01*
X104389090Y-83795114D01*
X104301098Y-83663425D01*
X104295447Y-83645378D01*
X104285223Y-83629469D01*
X104280771Y-83598507D01*
X104280220Y-83596747D01*
X104280200Y-83594534D01*
X104280200Y-83499499D01*
X104299885Y-83432460D01*
X104352689Y-83386705D01*
X104404195Y-83375499D01*
X105075008Y-83375499D01*
X105075016Y-83375498D01*
X105075019Y-83375498D01*
X105144797Y-83368370D01*
X105177797Y-83364999D01*
X105344334Y-83309814D01*
X105493656Y-83217712D01*
X105617712Y-83093656D01*
X105709814Y-82944334D01*
X105764999Y-82777797D01*
X105775500Y-82675009D01*
X105775499Y-81324992D01*
X105764999Y-81222203D01*
X105709814Y-81055666D01*
X105617712Y-80906344D01*
X105493656Y-80782288D01*
X105363658Y-80702105D01*
X105344336Y-80690187D01*
X105344331Y-80690185D01*
X105342862Y-80689698D01*
X105177797Y-80635001D01*
X105177795Y-80635000D01*
X105075010Y-80624500D01*
X104349998Y-80624500D01*
X104349980Y-80624501D01*
X104247203Y-80635000D01*
X104247200Y-80635001D01*
X104080668Y-80690185D01*
X104080663Y-80690187D01*
X103931342Y-80782289D01*
X103837581Y-80876051D01*
X103776258Y-80909536D01*
X103706566Y-80904552D01*
X103650633Y-80862680D01*
X103626216Y-80797216D01*
X103625900Y-80788370D01*
X103625900Y-76837664D01*
X103645585Y-76770625D01*
X103681008Y-76734562D01*
X103760289Y-76681589D01*
X103871789Y-76570089D01*
X103959394Y-76438979D01*
X104019737Y-76293297D01*
X104050500Y-76138642D01*
X104050500Y-75980958D01*
X104050500Y-75980955D01*
X104050499Y-75980953D01*
X104019738Y-75826310D01*
X104019737Y-75826303D01*
X104019735Y-75826298D01*
X103959396Y-75680625D01*
X103959392Y-75680618D01*
X103946093Y-75660714D01*
X103936609Y-75630425D01*
X103925511Y-75600672D01*
X103926241Y-75597314D01*
X103925215Y-75594037D01*
X103933613Y-75563424D01*
X103940362Y-75532399D01*
X103943144Y-75528681D01*
X103943700Y-75526657D01*
X103961509Y-75504146D01*
X103987320Y-75478336D01*
X104048639Y-75444853D01*
X104118330Y-75449836D01*
X104162680Y-75478338D01*
X104264811Y-75580469D01*
X104264813Y-75580470D01*
X104264815Y-75580472D01*
X104410394Y-75668478D01*
X104572804Y-75719086D01*
X104643384Y-75725500D01*
X104643387Y-75725500D01*
X105156613Y-75725500D01*
X105156616Y-75725500D01*
X105227196Y-75719086D01*
X105389606Y-75668478D01*
X105535185Y-75580472D01*
X105655472Y-75460185D01*
X105743478Y-75314606D01*
X105794086Y-75152196D01*
X105800500Y-75081616D01*
X105800500Y-74418384D01*
X105794086Y-74347804D01*
X105743478Y-74185394D01*
X105655472Y-74039815D01*
X105628337Y-74012680D01*
X105594853Y-73951360D01*
X105599837Y-73881668D01*
X105628337Y-73837319D01*
X105655472Y-73810185D01*
X105743478Y-73664606D01*
X105794086Y-73502196D01*
X105800500Y-73431616D01*
X105800500Y-72894797D01*
X105820185Y-72827758D01*
X105872989Y-72782003D01*
X105942147Y-72772059D01*
X105978916Y-72783375D01*
X106099483Y-72842257D01*
X106099485Y-72842257D01*
X106099490Y-72842260D01*
X106226531Y-72875777D01*
X106290051Y-72892536D01*
X106302981Y-72893333D01*
X106486759Y-72904669D01*
X106682053Y-72878193D01*
X106868431Y-72814126D01*
X107038728Y-72714929D01*
X107186400Y-72584416D01*
X107305774Y-72427600D01*
X107392260Y-72250510D01*
X107442536Y-72059948D01*
X107454668Y-71863241D01*
X107428193Y-71667947D01*
X106557234Y-69134247D01*
X106550499Y-69093937D01*
X106550499Y-68592400D01*
X106553049Y-68583714D01*
X106551761Y-68574753D01*
X106562739Y-68550712D01*
X106570184Y-68525361D01*
X106577024Y-68519433D01*
X106580786Y-68511197D01*
X106603020Y-68496907D01*
X106622988Y-68479606D01*
X106633502Y-68477318D01*
X106639564Y-68473423D01*
X106674499Y-68468400D01*
X106880303Y-68468400D01*
X106947342Y-68488085D01*
X106967984Y-68504719D01*
X107313181Y-68849916D01*
X107346666Y-68911239D01*
X107349500Y-68937597D01*
X107349500Y-69775001D01*
X107349501Y-69775019D01*
X107360000Y-69877796D01*
X107360001Y-69877799D01*
X107415185Y-70044331D01*
X107415186Y-70044334D01*
X107507288Y-70193656D01*
X107631344Y-70317712D01*
X107780666Y-70409814D01*
X107947203Y-70464999D01*
X108049991Y-70475500D01*
X108775008Y-70475499D01*
X108775016Y-70475498D01*
X108775019Y-70475498D01*
X108831302Y-70469748D01*
X108877797Y-70464999D01*
X109044334Y-70409814D01*
X109193656Y-70317712D01*
X109317712Y-70193656D01*
X109409814Y-70044334D01*
X109464999Y-69877797D01*
X109475500Y-69775009D01*
X109475499Y-68424992D01*
X109464999Y-68322203D01*
X109409814Y-68155666D01*
X109317712Y-68006344D01*
X109193656Y-67882288D01*
X109044334Y-67790186D01*
X108877797Y-67735001D01*
X108877795Y-67735000D01*
X108775010Y-67724500D01*
X108049998Y-67724500D01*
X108049980Y-67724501D01*
X107960031Y-67733690D01*
X107891338Y-67720920D01*
X107859749Y-67698013D01*
X107667990Y-67506255D01*
X107667988Y-67506252D01*
X107549117Y-67387381D01*
X107549116Y-67387380D01*
X107462304Y-67337260D01*
X107462304Y-67337259D01*
X107462300Y-67337258D01*
X107412185Y-67308323D01*
X107259457Y-67267399D01*
X107101343Y-67267399D01*
X107093747Y-67267399D01*
X107093731Y-67267400D01*
X104013653Y-67267400D01*
X103957358Y-67253884D01*
X103757616Y-67152109D01*
X103757603Y-67152103D01*
X103547952Y-67083985D01*
X103439086Y-67066742D01*
X103330222Y-67049500D01*
X103109778Y-67049500D01*
X103037201Y-67060995D01*
X102892047Y-67083985D01*
X102682396Y-67152103D01*
X102682393Y-67152104D01*
X102485974Y-67252187D01*
X102307641Y-67381752D01*
X102307636Y-67381756D01*
X102257075Y-67432317D01*
X102195752Y-67465801D01*
X102126060Y-67460816D01*
X102070127Y-67418945D01*
X102053213Y-67387968D01*
X102023354Y-67307913D01*
X102023350Y-67307906D01*
X101937190Y-67192812D01*
X101937187Y-67192809D01*
X101822093Y-67106649D01*
X101822086Y-67106645D01*
X101687379Y-67056403D01*
X101687372Y-67056401D01*
X101627844Y-67050000D01*
X100930000Y-67050000D01*
X100930000Y-68074722D01*
X100853694Y-68030667D01*
X100739244Y-68000000D01*
X100620756Y-68000000D01*
X100506306Y-68030667D01*
X100430000Y-68074722D01*
X100430000Y-67050000D01*
X99732155Y-67050000D01*
X99672627Y-67056401D01*
X99672620Y-67056403D01*
X99537913Y-67106645D01*
X99537906Y-67106649D01*
X99422812Y-67192809D01*
X99422809Y-67192812D01*
X99336649Y-67307906D01*
X99336645Y-67307913D01*
X99286403Y-67442620D01*
X99286401Y-67442627D01*
X99280000Y-67502155D01*
X99280000Y-68200000D01*
X100304722Y-68200000D01*
X100260667Y-68276306D01*
X100230000Y-68390756D01*
X100230000Y-68509244D01*
X100260667Y-68623694D01*
X100304722Y-68700000D01*
X99280000Y-68700000D01*
X99280000Y-69397844D01*
X99286401Y-69457372D01*
X99286403Y-69457379D01*
X99336645Y-69592086D01*
X99336649Y-69592093D01*
X99422809Y-69707187D01*
X99422812Y-69707190D01*
X99537906Y-69793350D01*
X99537913Y-69793354D01*
X99672620Y-69843596D01*
X99672627Y-69843598D01*
X99732155Y-69849999D01*
X99732172Y-69850000D01*
X100430000Y-69850000D01*
X100430000Y-68825277D01*
X100506306Y-68869333D01*
X100620756Y-68900000D01*
X100739244Y-68900000D01*
X100853694Y-68869333D01*
X100930000Y-68825277D01*
X100930000Y-69850000D01*
X101627828Y-69850000D01*
X101627844Y-69849999D01*
X101687372Y-69843598D01*
X101687379Y-69843596D01*
X101822086Y-69793354D01*
X101822093Y-69793350D01*
X101937187Y-69707190D01*
X101937190Y-69707187D01*
X102023350Y-69592093D01*
X102023354Y-69592086D01*
X102053213Y-69512031D01*
X102095084Y-69456097D01*
X102160548Y-69431680D01*
X102228821Y-69446531D01*
X102257076Y-69467683D01*
X102307636Y-69518243D01*
X102307641Y-69518247D01*
X102463192Y-69631260D01*
X102485978Y-69647815D01*
X102602501Y-69707187D01*
X102682393Y-69747895D01*
X102682396Y-69747896D01*
X102765865Y-69775016D01*
X102892049Y-69816015D01*
X103109778Y-69850500D01*
X103109779Y-69850500D01*
X103330221Y-69850500D01*
X103330222Y-69850500D01*
X103547951Y-69816015D01*
X103726708Y-69757933D01*
X103796548Y-69755939D01*
X103856381Y-69792019D01*
X103887209Y-69854720D01*
X103879244Y-69924135D01*
X103873245Y-69936400D01*
X102517303Y-72360431D01*
X102496776Y-72387566D01*
X102494531Y-72389811D01*
X102494527Y-72389816D01*
X102406523Y-72535392D01*
X102394128Y-72575164D01*
X102383964Y-72598802D01*
X102328721Y-72697562D01*
X102328715Y-72697576D01*
X102267911Y-72885031D01*
X102244843Y-73080760D01*
X102260402Y-73277224D01*
X102260403Y-73277227D01*
X102313993Y-73466882D01*
X102313994Y-73466883D01*
X102313994Y-73466884D01*
X102388640Y-73613205D01*
X102396568Y-73632663D01*
X102406521Y-73664602D01*
X102406523Y-73664608D01*
X102446457Y-73730667D01*
X102486222Y-73796446D01*
X102494530Y-73810188D01*
X102521661Y-73837319D01*
X102555146Y-73898642D01*
X102550162Y-73968334D01*
X102521661Y-74012681D01*
X102494531Y-74039810D01*
X102494530Y-74039811D01*
X102406522Y-74185393D01*
X102355913Y-74347807D01*
X102350782Y-74404275D01*
X102349500Y-74418384D01*
X102349500Y-75081616D01*
X102350977Y-75097870D01*
X102355913Y-75152192D01*
X102355913Y-75152194D01*
X102355914Y-75152196D01*
X102406522Y-75314606D01*
X102485259Y-75444853D01*
X102494530Y-75460188D01*
X102494531Y-75460189D01*
X102538484Y-75504141D01*
X102571970Y-75565464D01*
X102566986Y-75635155D01*
X102553908Y-75660712D01*
X102540607Y-75680618D01*
X102540602Y-75680627D01*
X102480264Y-75826298D01*
X102480261Y-75826310D01*
X102449500Y-75980953D01*
X102449500Y-76097206D01*
X102445275Y-76129299D01*
X102424899Y-76205343D01*
X102424899Y-76373446D01*
X102424900Y-76373459D01*
X102424900Y-78450259D01*
X102405215Y-78517298D01*
X102352411Y-78563053D01*
X102283253Y-78572997D01*
X102263895Y-78568609D01*
X102254565Y-78565691D01*
X102058601Y-78544695D01*
X101862319Y-78562333D01*
X101862307Y-78562335D01*
X101673244Y-78617924D01*
X101498637Y-78709340D01*
X101498635Y-78709341D01*
X101345229Y-78833055D01*
X101345228Y-78833056D01*
X101218899Y-78984330D01*
X101218896Y-78984334D01*
X101124514Y-79157334D01*
X101124512Y-79157339D01*
X101065692Y-79345433D01*
X101065691Y-79345435D01*
X100904800Y-80847089D01*
X100883703Y-80898731D01*
X100886079Y-80900197D01*
X100790189Y-81055659D01*
X100790185Y-81055668D01*
X100762349Y-81139670D01*
X100735001Y-81222203D01*
X100735001Y-81222204D01*
X100735000Y-81222204D01*
X100724500Y-81324983D01*
X100724500Y-82064579D01*
X100719808Y-82098363D01*
X99914019Y-84944038D01*
X99903100Y-84982598D01*
X99903099Y-84982601D01*
X99889060Y-85032175D01*
X99885825Y-85042012D01*
X99867701Y-85090235D01*
X99862002Y-85124844D01*
X99858959Y-85138480D01*
X99410502Y-86722221D01*
X99410501Y-86722230D01*
X99394832Y-86918676D01*
X99401767Y-86977803D01*
X99411723Y-87062690D01*
X99417792Y-87114427D01*
X99478493Y-87301917D01*
X99478496Y-87301923D01*
X99534010Y-87401295D01*
X99535233Y-87403538D01*
X99540688Y-87413793D01*
X99556522Y-87464606D01*
X99644528Y-87610185D01*
X99645858Y-87611515D01*
X99651312Y-87621768D01*
X99657704Y-87652785D01*
X99665789Y-87683405D01*
X99664746Y-87686953D01*
X99665416Y-87690200D01*
X99658609Y-87707855D01*
X99647953Y-87744150D01*
X99644528Y-87749814D01*
X99644528Y-87749815D01*
X99620345Y-87789818D01*
X99556522Y-87895393D01*
X99546240Y-87928390D01*
X99512384Y-88037037D01*
X99473648Y-88095184D01*
X99409623Y-88123158D01*
X99340638Y-88112077D01*
X99288595Y-88065458D01*
X99270000Y-88000146D01*
X99270000Y-87789818D01*
X99235526Y-87572164D01*
X99167432Y-87362589D01*
X99067388Y-87166243D01*
X99021065Y-87102485D01*
X98312137Y-87811413D01*
X98289333Y-87726306D01*
X98230090Y-87623694D01*
X98146306Y-87539910D01*
X98043694Y-87480667D01*
X97958583Y-87457861D01*
X98667513Y-86748932D01*
X98603756Y-86702611D01*
X98407410Y-86602567D01*
X98197835Y-86534473D01*
X97980181Y-86500000D01*
X97759819Y-86500000D01*
X97542164Y-86534473D01*
X97332589Y-86602567D01*
X97136233Y-86702616D01*
X97072485Y-86748931D01*
X97072485Y-86748932D01*
X97781414Y-87457861D01*
X97696306Y-87480667D01*
X97593694Y-87539910D01*
X97509910Y-87623694D01*
X97450667Y-87726306D01*
X97427861Y-87811414D01*
X96766818Y-87150371D01*
X96733333Y-87089048D01*
X96730499Y-87062690D01*
X96730499Y-86952129D01*
X96730498Y-86952123D01*
X96730497Y-86952116D01*
X96724091Y-86892517D01*
X96673796Y-86757669D01*
X96673795Y-86757668D01*
X96673793Y-86757664D01*
X96587547Y-86642455D01*
X96587544Y-86642452D01*
X96472335Y-86556206D01*
X96472328Y-86556202D01*
X96337482Y-86505908D01*
X96337483Y-86505908D01*
X96277883Y-86499501D01*
X96277881Y-86499500D01*
X96277873Y-86499500D01*
X96277864Y-86499500D01*
X94382129Y-86499500D01*
X94382123Y-86499501D01*
X94322516Y-86505908D01*
X94187671Y-86556202D01*
X94187664Y-86556206D01*
X94072455Y-86642452D01*
X94072452Y-86642455D01*
X93986206Y-86757664D01*
X93986202Y-86757671D01*
X93935908Y-86892517D01*
X93929501Y-86952116D01*
X93929501Y-86952123D01*
X93929500Y-86952135D01*
X93929500Y-88847870D01*
X93929501Y-88847876D01*
X93935908Y-88907483D01*
X93986202Y-89042328D01*
X93986206Y-89042335D01*
X94072452Y-89157544D01*
X94072455Y-89157547D01*
X94187664Y-89243793D01*
X94187671Y-89243797D01*
X94322517Y-89294091D01*
X94322516Y-89294091D01*
X94329444Y-89294835D01*
X94382127Y-89300500D01*
X96277872Y-89300499D01*
X96337483Y-89294091D01*
X96472331Y-89243796D01*
X96488300Y-89231840D01*
X96553759Y-89207423D01*
X96622032Y-89222272D01*
X96650291Y-89243426D01*
X96872939Y-89466074D01*
X96872949Y-89466085D01*
X96877279Y-89470415D01*
X96877280Y-89470416D01*
X96989084Y-89582220D01*
X97035662Y-89609111D01*
X97075895Y-89632339D01*
X97075897Y-89632341D01*
X97113951Y-89654311D01*
X97126015Y-89661277D01*
X97278743Y-89702201D01*
X97278746Y-89702201D01*
X97444453Y-89702201D01*
X97444469Y-89702200D01*
X99033800Y-89702200D01*
X99042485Y-89704750D01*
X99051447Y-89703462D01*
X99075487Y-89714440D01*
X99100839Y-89721885D01*
X99106766Y-89728725D01*
X99115003Y-89732487D01*
X99129292Y-89754721D01*
X99146594Y-89774689D01*
X99148881Y-89785203D01*
X99152777Y-89791265D01*
X99157800Y-89826200D01*
X99157800Y-89973730D01*
X99157799Y-89973748D01*
X99157799Y-90139454D01*
X99157798Y-90139454D01*
X99190125Y-90260099D01*
X99198723Y-90292185D01*
X99219532Y-90328227D01*
X99227658Y-90342300D01*
X99227659Y-90342304D01*
X99227660Y-90342304D01*
X99277779Y-90429114D01*
X99277781Y-90429117D01*
X99396649Y-90547985D01*
X99396655Y-90547990D01*
X99570725Y-90722060D01*
X99604210Y-90783383D01*
X99604661Y-90785549D01*
X99635561Y-90940891D01*
X99635564Y-90940901D01*
X99695902Y-91086572D01*
X99695909Y-91086585D01*
X99783510Y-91217688D01*
X99783513Y-91217692D01*
X99895007Y-91329186D01*
X99959104Y-91372015D01*
X99969102Y-91383979D01*
X99982375Y-91392159D01*
X99991049Y-91410240D01*
X100003908Y-91425628D01*
X100005850Y-91441096D01*
X100012595Y-91455155D01*
X100010116Y-91475056D01*
X100012615Y-91494953D01*
X100005767Y-91509966D01*
X100003959Y-91524489D01*
X99986410Y-91552411D01*
X99985442Y-91554535D01*
X99984716Y-91555404D01*
X99928581Y-91620360D01*
X99924388Y-91627742D01*
X99918917Y-91634304D01*
X99918905Y-91634322D01*
X99918902Y-91634326D01*
X99918902Y-91634327D01*
X99894876Y-91678363D01*
X99876308Y-91712398D01*
X99875290Y-91714228D01*
X99049045Y-93169632D01*
X98998829Y-93218213D01*
X98953815Y-93231771D01*
X98922201Y-93235001D01*
X98755668Y-93290185D01*
X98755663Y-93290187D01*
X98606342Y-93382289D01*
X98482289Y-93506342D01*
X98390187Y-93655663D01*
X98390185Y-93655668D01*
X98335001Y-93822204D01*
X98335000Y-93822205D01*
X98325329Y-93916872D01*
X98298933Y-93981564D01*
X98241752Y-94021715D01*
X98171941Y-94024578D01*
X98111664Y-93989243D01*
X98091486Y-93960564D01*
X98073355Y-93924981D01*
X98017815Y-93815978D01*
X97992027Y-93780484D01*
X97888247Y-93637641D01*
X97888243Y-93637636D01*
X97732363Y-93481756D01*
X97732358Y-93481752D01*
X97554025Y-93352187D01*
X97554024Y-93352186D01*
X97554022Y-93352185D01*
X97491096Y-93320122D01*
X97357606Y-93252104D01*
X97357603Y-93252103D01*
X97147952Y-93183985D01*
X97039086Y-93166742D01*
X96930222Y-93149500D01*
X96709778Y-93149500D01*
X96637201Y-93160995D01*
X96492047Y-93183985D01*
X96282396Y-93252103D01*
X96282393Y-93252104D01*
X96085974Y-93352187D01*
X95907641Y-93481752D01*
X95907636Y-93481756D01*
X95857075Y-93532317D01*
X95795752Y-93565801D01*
X95726060Y-93560816D01*
X95670127Y-93518945D01*
X95653213Y-93487968D01*
X95623354Y-93407913D01*
X95623350Y-93407906D01*
X95537190Y-93292812D01*
X95537187Y-93292809D01*
X95422093Y-93206649D01*
X95422086Y-93206645D01*
X95287379Y-93156403D01*
X95287372Y-93156401D01*
X95227844Y-93150000D01*
X94530000Y-93150000D01*
X94530000Y-94174722D01*
X94453694Y-94130667D01*
X94339244Y-94100000D01*
X94220756Y-94100000D01*
X94106306Y-94130667D01*
X94030000Y-94174722D01*
X94030000Y-93150000D01*
X93328851Y-93150000D01*
X93328851Y-93148418D01*
X93266913Y-93133676D01*
X93218479Y-93083318D01*
X93204540Y-93021214D01*
X93227731Y-92423722D01*
X93227848Y-92421332D01*
X93235283Y-92293713D01*
X93341650Y-90467910D01*
X93341802Y-90465664D01*
X93493480Y-88514701D01*
X93493677Y-88512451D01*
X93683161Y-86564868D01*
X93683414Y-86562513D01*
X93910634Y-84619000D01*
X93910915Y-84616785D01*
X94175800Y-82677956D01*
X94176145Y-82675610D01*
X94197735Y-82537603D01*
X94430112Y-81052155D01*
X95080000Y-81052155D01*
X95080000Y-81750000D01*
X96104722Y-81750000D01*
X96060667Y-81826306D01*
X96030000Y-81940756D01*
X96030000Y-82059244D01*
X96060667Y-82173694D01*
X96104722Y-82250000D01*
X95080000Y-82250000D01*
X95080000Y-82947844D01*
X95086401Y-83007372D01*
X95086403Y-83007379D01*
X95136645Y-83142086D01*
X95136649Y-83142093D01*
X95222809Y-83257187D01*
X95222812Y-83257190D01*
X95337906Y-83343350D01*
X95337913Y-83343354D01*
X95472620Y-83393596D01*
X95472627Y-83393598D01*
X95532155Y-83399999D01*
X95532172Y-83400000D01*
X96230000Y-83400000D01*
X96230000Y-82375277D01*
X96306306Y-82419333D01*
X96420756Y-82450000D01*
X96539244Y-82450000D01*
X96653694Y-82419333D01*
X96730000Y-82375277D01*
X96730000Y-83400000D01*
X97427828Y-83400000D01*
X97427844Y-83399999D01*
X97487372Y-83393598D01*
X97487379Y-83393596D01*
X97622086Y-83343354D01*
X97622093Y-83343350D01*
X97737187Y-83257190D01*
X97737190Y-83257187D01*
X97823350Y-83142093D01*
X97823354Y-83142086D01*
X97853213Y-83062031D01*
X97895084Y-83006097D01*
X97960548Y-82981680D01*
X98028821Y-82996531D01*
X98057076Y-83017683D01*
X98107636Y-83068243D01*
X98107641Y-83068247D01*
X98263192Y-83181260D01*
X98285978Y-83197815D01*
X98402501Y-83257187D01*
X98482393Y-83297895D01*
X98482396Y-83297896D01*
X98519071Y-83309812D01*
X98692049Y-83366015D01*
X98909778Y-83400500D01*
X98909779Y-83400500D01*
X99130221Y-83400500D01*
X99130222Y-83400500D01*
X99347951Y-83366015D01*
X99557606Y-83297895D01*
X99754022Y-83197815D01*
X99932365Y-83068242D01*
X100088242Y-82912365D01*
X100217815Y-82734022D01*
X100317895Y-82537606D01*
X100386015Y-82327951D01*
X100420500Y-82110222D01*
X100420500Y-81889778D01*
X100386015Y-81672049D01*
X100347287Y-81552854D01*
X100317896Y-81462396D01*
X100317895Y-81462393D01*
X100283237Y-81394375D01*
X100217815Y-81265978D01*
X100186009Y-81222200D01*
X100088247Y-81087641D01*
X100088243Y-81087636D01*
X99932363Y-80931756D01*
X99932358Y-80931752D01*
X99754025Y-80802187D01*
X99754024Y-80802186D01*
X99754022Y-80802185D01*
X99691096Y-80770122D01*
X99557606Y-80702104D01*
X99557603Y-80702103D01*
X99347952Y-80633985D01*
X99239086Y-80616742D01*
X99130222Y-80599500D01*
X98909778Y-80599500D01*
X98837201Y-80610995D01*
X98692047Y-80633985D01*
X98482396Y-80702103D01*
X98482393Y-80702104D01*
X98285974Y-80802187D01*
X98107641Y-80931752D01*
X98107636Y-80931756D01*
X98057075Y-80982317D01*
X97995752Y-81015801D01*
X97926060Y-81010816D01*
X97870127Y-80968945D01*
X97853213Y-80937968D01*
X97823354Y-80857913D01*
X97823350Y-80857906D01*
X97737190Y-80742812D01*
X97737187Y-80742809D01*
X97622093Y-80656649D01*
X97622086Y-80656645D01*
X97487379Y-80606403D01*
X97487372Y-80606401D01*
X97427844Y-80600000D01*
X96730000Y-80600000D01*
X96730000Y-81624722D01*
X96653694Y-81580667D01*
X96539244Y-81550000D01*
X96420756Y-81550000D01*
X96306306Y-81580667D01*
X96230000Y-81624722D01*
X96230000Y-80600000D01*
X95532155Y-80600000D01*
X95472627Y-80606401D01*
X95472620Y-80606403D01*
X95337913Y-80656645D01*
X95337906Y-80656649D01*
X95222812Y-80742809D01*
X95222809Y-80742812D01*
X95136649Y-80857906D01*
X95136645Y-80857913D01*
X95086403Y-80992620D01*
X95086401Y-80992627D01*
X95080000Y-81052155D01*
X94430112Y-81052155D01*
X94478568Y-80742406D01*
X94478957Y-80740074D01*
X94493671Y-80656649D01*
X94818820Y-78813098D01*
X94819234Y-78810876D01*
X95196428Y-76890756D01*
X95196913Y-76888413D01*
X95294293Y-76438972D01*
X95611269Y-74976015D01*
X95611754Y-74973880D01*
X96031771Y-73202135D01*
X96759500Y-73202135D01*
X96759500Y-75097870D01*
X96759501Y-75097876D01*
X96765908Y-75157483D01*
X96816202Y-75292328D01*
X96816206Y-75292335D01*
X96902452Y-75407544D01*
X96902455Y-75407547D01*
X97017664Y-75493793D01*
X97017671Y-75493797D01*
X97152517Y-75544091D01*
X97152516Y-75544091D01*
X97159444Y-75544835D01*
X97212127Y-75550500D01*
X99107872Y-75550499D01*
X99167483Y-75544091D01*
X99302331Y-75493796D01*
X99417546Y-75407546D01*
X99503796Y-75292331D01*
X99554091Y-75157483D01*
X99560500Y-75097873D01*
X99560499Y-74987304D01*
X99580183Y-74920268D01*
X99596818Y-74899626D01*
X100257861Y-74238584D01*
X100280667Y-74323694D01*
X100339910Y-74426306D01*
X100423694Y-74510090D01*
X100526306Y-74569333D01*
X100611414Y-74592137D01*
X99902485Y-75301065D01*
X99902485Y-75301066D01*
X99966243Y-75347388D01*
X100162589Y-75447432D01*
X100372164Y-75515526D01*
X100589819Y-75550000D01*
X100810181Y-75550000D01*
X101027835Y-75515526D01*
X101237410Y-75447432D01*
X101433760Y-75347386D01*
X101497513Y-75301066D01*
X101497514Y-75301066D01*
X100788585Y-74592138D01*
X100873694Y-74569333D01*
X100976306Y-74510090D01*
X101060090Y-74426306D01*
X101119333Y-74323694D01*
X101142137Y-74238585D01*
X101851066Y-74947514D01*
X101851066Y-74947513D01*
X101897386Y-74883760D01*
X101997432Y-74687410D01*
X102065526Y-74477835D01*
X102100000Y-74260181D01*
X102100000Y-74039818D01*
X102065526Y-73822164D01*
X101997432Y-73612589D01*
X101897388Y-73416243D01*
X101851066Y-73352485D01*
X101851065Y-73352485D01*
X101142137Y-74061413D01*
X101119333Y-73976306D01*
X101060090Y-73873694D01*
X100976306Y-73789910D01*
X100873694Y-73730667D01*
X100788583Y-73707861D01*
X101497513Y-72998932D01*
X101433756Y-72952611D01*
X101237410Y-72852567D01*
X101027835Y-72784473D01*
X100810181Y-72750000D01*
X100589819Y-72750000D01*
X100372164Y-72784473D01*
X100162589Y-72852567D01*
X99966233Y-72952616D01*
X99902485Y-72998931D01*
X99902485Y-72998932D01*
X100611414Y-73707861D01*
X100526306Y-73730667D01*
X100423694Y-73789910D01*
X100339910Y-73873694D01*
X100280667Y-73976306D01*
X100257861Y-74061414D01*
X99596818Y-73400371D01*
X99563333Y-73339048D01*
X99560499Y-73312690D01*
X99560499Y-73202129D01*
X99560498Y-73202123D01*
X99560497Y-73202116D01*
X99554091Y-73142517D01*
X99526984Y-73069839D01*
X99503797Y-73007671D01*
X99503793Y-73007664D01*
X99417547Y-72892455D01*
X99417544Y-72892452D01*
X99302335Y-72806206D01*
X99302328Y-72806202D01*
X99167482Y-72755908D01*
X99167483Y-72755908D01*
X99107883Y-72749501D01*
X99107881Y-72749500D01*
X99107873Y-72749500D01*
X99107864Y-72749500D01*
X97212129Y-72749500D01*
X97212123Y-72749501D01*
X97152516Y-72755908D01*
X97017671Y-72806202D01*
X97017664Y-72806206D01*
X96902455Y-72892452D01*
X96902452Y-72892455D01*
X96816206Y-73007664D01*
X96816202Y-73007671D01*
X96765908Y-73142517D01*
X96762932Y-73170202D01*
X96759501Y-73202123D01*
X96759500Y-73202135D01*
X96031771Y-73202135D01*
X96063141Y-73069808D01*
X96063712Y-73067505D01*
X96125483Y-72827758D01*
X96551909Y-71172693D01*
X96552498Y-71170491D01*
X97077394Y-69285369D01*
X97078050Y-69283102D01*
X97107721Y-69184022D01*
X97639369Y-67408652D01*
X97640072Y-67406387D01*
X97645980Y-67387968D01*
X98237646Y-65543165D01*
X98238399Y-65540894D01*
X98322376Y-65295527D01*
X98872014Y-63689574D01*
X98872803Y-63687343D01*
X98925138Y-63543593D01*
X99423686Y-62174207D01*
X99908044Y-62174207D01*
X99908044Y-62462650D01*
X99908045Y-62462667D01*
X99945693Y-62748635D01*
X99945694Y-62748640D01*
X99945695Y-62748646D01*
X99945696Y-62748648D01*
X100020353Y-63027273D01*
X100020358Y-63027289D01*
X100130735Y-63293765D01*
X100130743Y-63293781D01*
X100274964Y-63543577D01*
X100274975Y-63543593D01*
X100450568Y-63772431D01*
X100450574Y-63772438D01*
X100654534Y-63976398D01*
X100654540Y-63976403D01*
X100883388Y-64152004D01*
X100883395Y-64152008D01*
X101133191Y-64296229D01*
X101133207Y-64296237D01*
X101399683Y-64406614D01*
X101399689Y-64406615D01*
X101399699Y-64406620D01*
X101678327Y-64481278D01*
X101964316Y-64518929D01*
X101964323Y-64518929D01*
X102252765Y-64518929D01*
X102252772Y-64518929D01*
X102538761Y-64481278D01*
X102817389Y-64406620D01*
X102817401Y-64406614D01*
X102817404Y-64406614D01*
X103083880Y-64296237D01*
X103083883Y-64296235D01*
X103083889Y-64296233D01*
X103333700Y-64152004D01*
X103562548Y-63976403D01*
X103766518Y-63772433D01*
X103942119Y-63543585D01*
X104086348Y-63293774D01*
X104196735Y-63027274D01*
X104271393Y-62748646D01*
X104309044Y-62462657D01*
X104309044Y-62174201D01*
X104271393Y-61888212D01*
X104196735Y-61609584D01*
X104196730Y-61609574D01*
X104196729Y-61609568D01*
X104086352Y-61343092D01*
X104086344Y-61343076D01*
X103942123Y-61093280D01*
X103942119Y-61093273D01*
X103766518Y-60864425D01*
X103766513Y-60864419D01*
X103562553Y-60660459D01*
X103562546Y-60660453D01*
X103333708Y-60484860D01*
X103333706Y-60484858D01*
X103333700Y-60484854D01*
X103333695Y-60484851D01*
X103333692Y-60484849D01*
X103083896Y-60340628D01*
X103083880Y-60340620D01*
X102817404Y-60230243D01*
X102817392Y-60230239D01*
X102817389Y-60230238D01*
X102538761Y-60155580D01*
X102538755Y-60155579D01*
X102538750Y-60155578D01*
X102252782Y-60117930D01*
X102252777Y-60117929D01*
X102252772Y-60117929D01*
X101964316Y-60117929D01*
X101964310Y-60117929D01*
X101964305Y-60117930D01*
X101678337Y-60155578D01*
X101678330Y-60155579D01*
X101678327Y-60155580D01*
X101399699Y-60230238D01*
X101399683Y-60230243D01*
X101133207Y-60340620D01*
X101133191Y-60340628D01*
X100883395Y-60484849D01*
X100883379Y-60484860D01*
X100654541Y-60660453D01*
X100654534Y-60660459D01*
X100450574Y-60864419D01*
X100450568Y-60864426D01*
X100274975Y-61093264D01*
X100274964Y-61093280D01*
X100130743Y-61343076D01*
X100130735Y-61343092D01*
X100020358Y-61609568D01*
X100020353Y-61609584D01*
X99956862Y-61846538D01*
X99945696Y-61888209D01*
X99945693Y-61888222D01*
X99908045Y-62174190D01*
X99908044Y-62174207D01*
X99423686Y-62174207D01*
X99542198Y-61848684D01*
X99542977Y-61846605D01*
X100247980Y-60021093D01*
X100248815Y-60018993D01*
X100986376Y-58214151D01*
X100993547Y-58199455D01*
X101042513Y-58113946D01*
X101060650Y-58089712D01*
X101123993Y-58023713D01*
X101147465Y-58004595D01*
X101224923Y-57955913D01*
X101252325Y-57943056D01*
X101339272Y-57914601D01*
X101368967Y-57908770D01*
X101460229Y-57902237D01*
X101490451Y-57903778D01*
G37*
%TD.AperFunction*%
%TA.AperFunction,Conductor*%
G36*
X96900667Y-100973694D02*
G01*
X96959910Y-101076306D01*
X97043694Y-101160090D01*
X97146306Y-101219333D01*
X97231413Y-101242137D01*
X96522485Y-101951065D01*
X96522485Y-101951066D01*
X96586243Y-101997388D01*
X96782589Y-102097432D01*
X96992164Y-102165526D01*
X97209819Y-102200000D01*
X97430181Y-102200000D01*
X97647835Y-102165526D01*
X97857410Y-102097432D01*
X98044505Y-102002102D01*
X98113174Y-101989206D01*
X98177914Y-102015482D01*
X98218172Y-102072588D01*
X98224800Y-102112587D01*
X98224800Y-106796088D01*
X98205115Y-106863127D01*
X98152311Y-106908882D01*
X98083153Y-106918826D01*
X98044505Y-106906573D01*
X97937606Y-106852104D01*
X97937603Y-106852103D01*
X97727952Y-106783985D01*
X97582634Y-106760969D01*
X97510222Y-106749500D01*
X97289778Y-106749500D01*
X97217366Y-106760969D01*
X97072047Y-106783985D01*
X96862396Y-106852103D01*
X96862393Y-106852104D01*
X96665974Y-106952187D01*
X96487641Y-107081752D01*
X96487636Y-107081756D01*
X96437075Y-107132317D01*
X96375752Y-107165801D01*
X96306060Y-107160816D01*
X96250127Y-107118945D01*
X96233213Y-107087968D01*
X96203354Y-107007913D01*
X96203350Y-107007906D01*
X96117190Y-106892812D01*
X96117187Y-106892809D01*
X96002093Y-106806649D01*
X96002086Y-106806645D01*
X95867379Y-106756403D01*
X95867372Y-106756401D01*
X95807844Y-106750000D01*
X95110000Y-106750000D01*
X95110000Y-107774722D01*
X95033694Y-107730667D01*
X94919244Y-107700000D01*
X94800756Y-107700000D01*
X94686306Y-107730667D01*
X94610000Y-107774722D01*
X94610000Y-106750000D01*
X93912155Y-106750000D01*
X93852627Y-106756401D01*
X93852617Y-106756403D01*
X93716710Y-106807093D01*
X93647019Y-106812077D01*
X93585696Y-106778591D01*
X93552212Y-106717268D01*
X93549963Y-106702932D01*
X93493684Y-106124484D01*
X93493475Y-106122090D01*
X93454317Y-105618414D01*
X93341803Y-104171202D01*
X93341649Y-104168942D01*
X93227847Y-102215519D01*
X93227731Y-102213125D01*
X93226992Y-102194091D01*
X93220688Y-102031680D01*
X93237758Y-101963929D01*
X93288747Y-101916161D01*
X93357468Y-101903542D01*
X93422102Y-101930080D01*
X93443861Y-101952560D01*
X93522455Y-102057547D01*
X93637664Y-102143793D01*
X93637671Y-102143797D01*
X93772517Y-102194091D01*
X93772516Y-102194091D01*
X93779444Y-102194835D01*
X93832127Y-102200500D01*
X95727872Y-102200499D01*
X95787483Y-102194091D01*
X95922331Y-102143796D01*
X96037546Y-102057546D01*
X96123796Y-101942331D01*
X96174091Y-101807483D01*
X96180500Y-101747873D01*
X96180499Y-101637304D01*
X96200183Y-101570268D01*
X96216818Y-101549626D01*
X96877861Y-100888584D01*
X96900667Y-100973694D01*
G37*
%TD.AperFunction*%
%TA.AperFunction,Conductor*%
G36*
X94530000Y-95950000D02*
G01*
X95227828Y-95950000D01*
X95227844Y-95949999D01*
X95287372Y-95943598D01*
X95287379Y-95943596D01*
X95422086Y-95893354D01*
X95422093Y-95893350D01*
X95537187Y-95807190D01*
X95537190Y-95807187D01*
X95623350Y-95692093D01*
X95623354Y-95692086D01*
X95653213Y-95612031D01*
X95695084Y-95556097D01*
X95760548Y-95531680D01*
X95828821Y-95546531D01*
X95857076Y-95567683D01*
X95907636Y-95618243D01*
X95907641Y-95618247D01*
X96011434Y-95693656D01*
X96085978Y-95747815D01*
X96173655Y-95792489D01*
X96282393Y-95847895D01*
X96282396Y-95847896D01*
X96336688Y-95865536D01*
X96492049Y-95916015D01*
X96709778Y-95950500D01*
X96709779Y-95950500D01*
X96930221Y-95950500D01*
X96930222Y-95950500D01*
X97147951Y-95916015D01*
X97357606Y-95847895D01*
X97554022Y-95747815D01*
X97732365Y-95618242D01*
X97888242Y-95462365D01*
X98017815Y-95284022D01*
X98090017Y-95142318D01*
X98137989Y-95091525D01*
X98205810Y-95074730D01*
X98271945Y-95097267D01*
X98315397Y-95151982D01*
X98324500Y-95198614D01*
X98324500Y-95275000D01*
X98324501Y-95275018D01*
X98335000Y-95377796D01*
X98335001Y-95377799D01*
X98363023Y-95462363D01*
X98390186Y-95544334D01*
X98482288Y-95693656D01*
X98606344Y-95817712D01*
X98755666Y-95909814D01*
X98755667Y-95909814D01*
X98761813Y-95913605D01*
X98760600Y-95915571D01*
X98804695Y-95954378D01*
X98816675Y-95978999D01*
X99112012Y-96808015D01*
X99118556Y-96836977D01*
X99158415Y-97225605D01*
X99145673Y-97294303D01*
X99097813Y-97345206D01*
X99030030Y-97362154D01*
X99022915Y-97361660D01*
X99018242Y-97361200D01*
X98860558Y-97361200D01*
X98860555Y-97361200D01*
X98705910Y-97391961D01*
X98705898Y-97391964D01*
X98560227Y-97452302D01*
X98560214Y-97452309D01*
X98429111Y-97539910D01*
X98429107Y-97539913D01*
X98317613Y-97651407D01*
X98317610Y-97651411D01*
X98230009Y-97782514D01*
X98230002Y-97782527D01*
X98169664Y-97928198D01*
X98169661Y-97928210D01*
X98138900Y-98082853D01*
X98138900Y-98240546D01*
X98169661Y-98395189D01*
X98169664Y-98395201D01*
X98215361Y-98505523D01*
X98224800Y-98552975D01*
X98224800Y-99487412D01*
X98205115Y-99554451D01*
X98152311Y-99600206D01*
X98083153Y-99610150D01*
X98044505Y-99597897D01*
X97857410Y-99502567D01*
X97647835Y-99434473D01*
X97430181Y-99400000D01*
X97209819Y-99400000D01*
X96992164Y-99434473D01*
X96782589Y-99502567D01*
X96586233Y-99602616D01*
X96522485Y-99648931D01*
X96522485Y-99648932D01*
X97231414Y-100357861D01*
X97146306Y-100380667D01*
X97043694Y-100439910D01*
X96959910Y-100523694D01*
X96900667Y-100626306D01*
X96877861Y-100711414D01*
X96216818Y-100050371D01*
X96183333Y-99989048D01*
X96180499Y-99962690D01*
X96180499Y-99852129D01*
X96180498Y-99852123D01*
X96174091Y-99792516D01*
X96123797Y-99657671D01*
X96123793Y-99657664D01*
X96037547Y-99542455D01*
X96037544Y-99542452D01*
X95922335Y-99456206D01*
X95922328Y-99456202D01*
X95787482Y-99405908D01*
X95787483Y-99405908D01*
X95727883Y-99399501D01*
X95727881Y-99399500D01*
X95727873Y-99399500D01*
X95727864Y-99399500D01*
X93832129Y-99399500D01*
X93832123Y-99399501D01*
X93772516Y-99405908D01*
X93637671Y-99456202D01*
X93637664Y-99456206D01*
X93522455Y-99542452D01*
X93522452Y-99542455D01*
X93436206Y-99657664D01*
X93436202Y-99657671D01*
X93383198Y-99799785D01*
X93380919Y-99798935D01*
X93352269Y-99849229D01*
X93290353Y-99881604D01*
X93220762Y-99875365D01*
X93165592Y-99832494D01*
X93142358Y-99766600D01*
X93142205Y-99762418D01*
X93113818Y-98299159D01*
X93113795Y-98296754D01*
X93113795Y-96340105D01*
X93113818Y-96337701D01*
X93114152Y-96320486D01*
X93119173Y-96061639D01*
X93140153Y-95994998D01*
X93193834Y-95950276D01*
X93263173Y-95941675D01*
X93271659Y-95943370D01*
X93272624Y-95943598D01*
X93332155Y-95949999D01*
X93332172Y-95950000D01*
X94030000Y-95950000D01*
X94030000Y-94925277D01*
X94106306Y-94969333D01*
X94220756Y-95000000D01*
X94339244Y-95000000D01*
X94453694Y-94969333D01*
X94530000Y-94925277D01*
X94530000Y-95950000D01*
G37*
%TD.AperFunction*%
%TD*%
M02*
