M48
; DRILL file {KiCad 9.0.7} date 2026-02-20T22:18:47+0900
; FORMAT={-:-/ absolute / inch / decimal}
; #@! TF.CreationDate,2026-02-20T22:18:47+09:00
; #@! TF.GenerationSoftware,Kicad,Pcbnew,9.0.7
; #@! TF.FileFunction,Plated,1,2,PTH
FMAT,2
INCH
; #@! TA.AperFunction,Plated,PTH,ViaDrill
T1C0.0118
; #@! TA.AperFunction,Plated,PTH,ComponentDrill
T2C0.0354
; #@! TA.AperFunction,Plated,PTH,ComponentDrill
T3C0.0394
%
G90
G05
T1
X3.7874Y-4.622
X3.7933Y-3.3445
X3.8051Y-3.0748
X3.8209Y-4.8583
X3.8701Y-2.7323
X3.8953Y-3.8646
X3.9035Y-5.1024
X3.9227Y-4.0191
X3.953Y-3.5712
X3.9587Y-4.6299
X3.9701Y-4.2091
X4.0059Y-3.3661
X4.0177Y-3.1319
X4.04Y-3.6453
X4.065Y-2.9945
X4.0728Y-3.7303
X4.0807Y-3.4724
X4.0819Y-3.3139
X4.0821Y-4.7278
X4.1122Y-3.9016
X4.1181Y-3.0059
X4.1515Y-4.0019
X4.1752Y-5.0846
X4.187Y-2.5433
X4.1909Y-2.8307
X4.2008Y-4.1299
X4.2028Y-4.5827
X4.2205Y-3.9016
X4.2323Y-3.9685
X4.2421Y-3.4941
X4.2638Y-4.9803
X4.2657Y-3.1181
X4.311Y-2.8169
X4.311Y-3.6969
X4.3406Y-3.9134
X4.3602Y-4.7953
X4.3661Y-3.9941
T2
X3.7118Y-3.7224
X3.7315Y-3.9685
X3.7346Y-4.2579
X3.7531Y-3.4606
X3.7984Y-3.2283
X3.7984Y-4.5079
X3.8118Y-3.7224
X3.8291Y-4.7441
X3.8315Y-3.9685
X3.8346Y-4.2579
X3.8531Y-3.4606
X3.8646Y-2.9193
X3.8949Y-4.9626
X3.8984Y-3.2283
X3.8984Y-4.5079
X3.9291Y-4.7441
X3.9638Y-2.6949
X3.9646Y-2.9193
X3.9949Y-4.9626
X4.0638Y-2.6949
T3
X4.4409Y-3.5378
X4.4409Y-3.6378
X4.4409Y-3.7378
X4.4409Y-3.8378
X4.4409Y-3.9378
X4.4409Y-4.0378
X4.4409Y-4.1378
M30
