%TF.GenerationSoftware,KiCad,Pcbnew,9.0.7*%
%TF.CreationDate,2026-02-20T22:18:47+09:00*%
%TF.ProjectId,side_line,73696465-5f6c-4696-9e65-2e6b69636164,rev?*%
%TF.SameCoordinates,Original*%
%TF.FileFunction,Copper,L2,Bot*%
%TF.FilePolarity,Positive*%
%FSLAX46Y46*%
G04 Gerber Fmt 4.6, Leading zero omitted, Abs format (unit mm)*
G04 Created by KiCad (PCBNEW 9.0.7) date 2026-02-20 22:18:47*
%MOMM*%
%LPD*%
G01*
G04 APERTURE LIST*
%TA.AperFunction,ComponentPad*%
%ADD10R,1.700000X1.700000*%
%TD*%
%TA.AperFunction,ComponentPad*%
%ADD11C,1.700000*%
%TD*%
%TA.AperFunction,ComponentPad*%
%ADD12R,1.800000X1.800000*%
%TD*%
%TA.AperFunction,ComponentPad*%
%ADD13C,1.800000*%
%TD*%
%TA.AperFunction,ViaPad*%
%ADD14C,0.600000*%
%TD*%
%TA.AperFunction,Conductor*%
%ADD15C,0.200000*%
%TD*%
%TA.AperFunction,Conductor*%
%ADD16C,1.000000*%
%TD*%
G04 APERTURE END LIST*
D10*
%TO.P,J1,1,Pin_1*%
%TO.N,GND*%
X112800000Y-89860000D03*
D11*
%TO.P,J1,2,Pin_2*%
%TO.N,3.3v*%
X112800000Y-92400000D03*
%TO.P,J1,3,Pin_3*%
%TO.N,LINE_1*%
X112800000Y-94940000D03*
%TO.P,J1,4,Pin_4*%
%TO.N,LINE_2*%
X112800000Y-97480000D03*
%TO.P,J1,5,Pin_5*%
%TO.N,LINE_3*%
X112800000Y-100020000D03*
%TO.P,J1,6,Pin_6*%
%TO.N,LINE_4*%
X112800000Y-102560000D03*
%TO.P,J1,7,Pin_7*%
%TO.N,LINE_5*%
X112800000Y-105100000D03*
%TD*%
D12*
%TO.P,Q4,1,C*%
%TO.N,LINE_4*%
X95330000Y-87900000D03*
D13*
%TO.P,Q4,2,E*%
%TO.N,GND*%
X97870000Y-87900000D03*
%TD*%
D12*
%TO.P,Q2,1,C*%
%TO.N,LINE_2*%
X96480000Y-114500000D03*
D13*
%TO.P,Q2,2,E*%
%TO.N,GND*%
X99020000Y-114500000D03*
%TD*%
D12*
%TO.P,D5,1,K*%
%TO.N,GND*%
X100680000Y-68450000D03*
D13*
%TO.P,D5,2,A*%
%TO.N,Net-(D5-A)*%
X103220000Y-68450000D03*
%TD*%
D12*
%TO.P,D1,1,K*%
%TO.N,GND*%
X97260000Y-120500000D03*
D13*
%TO.P,D1,2,A*%
%TO.N,Net-(D1-A)*%
X99800000Y-120500000D03*
%TD*%
D12*
%TO.P,Q3,1,C*%
%TO.N,LINE_3*%
X94780000Y-100800000D03*
D13*
%TO.P,Q3,2,E*%
%TO.N,GND*%
X97320000Y-100800000D03*
%TD*%
D12*
%TO.P,D4,1,K*%
%TO.N,GND*%
X96480000Y-82000000D03*
D13*
%TO.P,D4,2,A*%
%TO.N,Net-(D4-A)*%
X99020000Y-82000000D03*
%TD*%
D12*
%TO.P,D2,1,K*%
%TO.N,GND*%
X94860000Y-108150000D03*
D13*
%TO.P,D2,2,A*%
%TO.N,Net-(D2-A)*%
X97400000Y-108150000D03*
%TD*%
D12*
%TO.P,D3,1,K*%
%TO.N,GND*%
X94280000Y-94550000D03*
D13*
%TO.P,D3,2,A*%
%TO.N,Net-(D3-A)*%
X96820000Y-94550000D03*
%TD*%
D12*
%TO.P,Q5,1,C*%
%TO.N,LINE_5*%
X98160000Y-74150000D03*
D13*
%TO.P,Q5,2,E*%
%TO.N,GND*%
X100700000Y-74150000D03*
%TD*%
D12*
%TO.P,Q1,1,C*%
%TO.N,LINE_1*%
X98930000Y-126050000D03*
D13*
%TO.P,Q1,2,E*%
%TO.N,GND*%
X101470000Y-126050000D03*
%TD*%
D14*
%TO.N,Net-(D1-A)*%
X103684300Y-120085000D03*
%TO.N,GND*%
X106050000Y-129150000D03*
X110250000Y-99400000D03*
X100550000Y-117600000D03*
X109500000Y-93900000D03*
X104450000Y-99100000D03*
X108350000Y-79200000D03*
X109500000Y-71550000D03*
X106350000Y-64600000D03*
X103450000Y-94750000D03*
X104600000Y-76350000D03*
X98300000Y-69400000D03*
X110750000Y-121800000D03*
X96650000Y-78100000D03*
X107500000Y-100800000D03*
X97050000Y-123400000D03*
X99150000Y-129600000D03*
X107200000Y-99100000D03*
X106700000Y-104900000D03*
X96350000Y-84950000D03*
X96200000Y-117400000D03*
X106750000Y-116400000D03*
X110900000Y-101450000D03*
X108300000Y-126500000D03*
%TO.N,Net-(D2-A)*%
X100840000Y-106912200D03*
%TO.N,Net-(D3-A)*%
X102615700Y-92589400D03*
%TO.N,Net-(D4-A)*%
X103679700Y-84174300D03*
%TO.N,LINE_2*%
X98939400Y-98161700D03*
%TO.N,LINE_4*%
X100405300Y-90707400D03*
%TO.N,3.3v*%
X106450000Y-71900000D03*
X101750000Y-85500000D03*
X103650000Y-88200000D03*
X107750000Y-88750000D03*
X102050000Y-79550000D03*
%TO.N,LINE_3*%
X99636900Y-102084400D03*
%TO.N,LINE_5*%
X103250000Y-76059800D03*
X105448300Y-101647500D03*
%TD*%
D15*
%TO.N,Net-(D1-A)*%
X103684300Y-120085000D02*
X100215000Y-120085000D01*
X100215000Y-120085000D02*
X99800000Y-120500000D01*
%TO.N,GND*%
X98799200Y-88829100D02*
X97870000Y-87900000D01*
X112800000Y-89860000D02*
X99830000Y-89860000D01*
X94280000Y-93348300D02*
X98799200Y-88829100D01*
X101470000Y-126050000D02*
X97260000Y-121840000D01*
X97260000Y-121840000D02*
X97260000Y-120500000D01*
X94860000Y-109351700D02*
X99020000Y-113511700D01*
X99830000Y-89860000D02*
X98799200Y-88829100D01*
X99020000Y-113511700D02*
X99020000Y-114500000D01*
X94280000Y-94550000D02*
X94280000Y-93348300D01*
X94860000Y-108150000D02*
X94860000Y-109351700D01*
%TO.N,Net-(D2-A)*%
X100840000Y-106912200D02*
X98637800Y-106912200D01*
X98637800Y-106912200D02*
X97400000Y-108150000D01*
%TO.N,Net-(D3-A)*%
X98780600Y-92589400D02*
X102615700Y-92589400D01*
X96820000Y-94550000D02*
X98780600Y-92589400D01*
%TO.N,Net-(D4-A)*%
X101194300Y-84174300D02*
X99020000Y-82000000D01*
X103679700Y-84174300D02*
X101194300Y-84174300D01*
%TO.N,LINE_2*%
X112118300Y-98161700D02*
X98939400Y-98161700D01*
X98939400Y-98161700D02*
X98825300Y-98275800D01*
X98825300Y-98275800D02*
X98939400Y-98161700D01*
X112800000Y-97480000D02*
X112118300Y-98161700D01*
%TO.N,LINE_4*%
X112800000Y-102560000D02*
X113976200Y-101383800D01*
X113976200Y-91876600D02*
X113286300Y-91186700D01*
X113976200Y-101383800D02*
X113976200Y-91876600D01*
X100405300Y-90707400D02*
X100164700Y-90466800D01*
X113286300Y-91186700D02*
X100884600Y-91186700D01*
X100884600Y-91186700D02*
X100405300Y-90707400D01*
X100164700Y-90466800D02*
X100405300Y-90707400D01*
D16*
%TO.N,3.3v*%
X103650000Y-88200000D02*
X107750000Y-88750000D01*
X107050000Y-76950000D02*
X106450000Y-71900000D01*
X101750000Y-85500000D02*
X103650000Y-88200000D01*
X102050000Y-79550000D02*
X107050000Y-76950000D01*
D15*
%TO.N,LINE_3*%
X112800000Y-100020000D02*
X99636900Y-100020000D01*
X96845000Y-99561200D02*
X99178100Y-99561200D01*
X94780000Y-100800000D02*
X95981700Y-100800000D01*
X95981700Y-100800000D02*
X95981700Y-100424500D01*
X99636900Y-102084400D02*
X99725000Y-102084400D01*
X99178100Y-99561200D02*
X99636900Y-100020000D01*
X99636900Y-100020000D02*
X99636900Y-102084400D01*
X95981700Y-100424500D02*
X96845000Y-99561200D01*
X99725000Y-102084400D02*
X99636900Y-102084400D01*
%TO.N,LINE_5*%
X100896000Y-76059800D02*
X103250000Y-76059800D01*
X112800000Y-105100000D02*
X109347500Y-101647500D01*
X99361700Y-74525500D02*
X100896000Y-76059800D01*
X99361700Y-74150000D02*
X99361700Y-74525500D01*
X98160000Y-74150000D02*
X99361700Y-74150000D01*
X109347500Y-101647500D02*
X105448300Y-101647500D01*
%TD*%
%TA.AperFunction,Conductor*%
%TO.N,GND*%
G36*
X98945042Y-100181385D02*
G01*
X98965684Y-100198019D01*
X99000081Y-100232416D01*
X99033566Y-100293739D01*
X99036400Y-100320097D01*
X99036400Y-101504634D01*
X99016715Y-101571673D01*
X99015502Y-101573525D01*
X98927509Y-101705214D01*
X98927502Y-101705227D01*
X98867164Y-101850898D01*
X98867161Y-101850910D01*
X98836400Y-102005553D01*
X98836400Y-102163246D01*
X98867161Y-102317889D01*
X98867164Y-102317901D01*
X98927502Y-102463572D01*
X98927509Y-102463585D01*
X99015110Y-102594688D01*
X99015113Y-102594692D01*
X99126607Y-102706186D01*
X99126611Y-102706189D01*
X99257714Y-102793790D01*
X99257727Y-102793797D01*
X99403398Y-102854135D01*
X99403403Y-102854137D01*
X99514517Y-102876239D01*
X99558053Y-102884899D01*
X99558056Y-102884900D01*
X99558058Y-102884900D01*
X99715744Y-102884900D01*
X99715745Y-102884899D01*
X99870397Y-102854137D01*
X100016079Y-102793794D01*
X100147189Y-102706189D01*
X100258689Y-102594689D01*
X100346294Y-102463579D01*
X100406637Y-102317897D01*
X100437400Y-102163242D01*
X100437400Y-102005558D01*
X100437400Y-102005555D01*
X100437399Y-102005553D01*
X100426561Y-101951066D01*
X100406637Y-101850903D01*
X100379079Y-101784372D01*
X100346297Y-101705227D01*
X100346290Y-101705214D01*
X100258298Y-101573525D01*
X100237420Y-101506847D01*
X100237400Y-101504634D01*
X100237400Y-100744500D01*
X100257085Y-100677461D01*
X100309889Y-100631706D01*
X100361400Y-100620500D01*
X105249157Y-100620500D01*
X105316196Y-100640185D01*
X105361951Y-100692989D01*
X105371895Y-100762147D01*
X105342870Y-100825703D01*
X105284092Y-100863477D01*
X105273349Y-100866117D01*
X105214808Y-100877761D01*
X105214798Y-100877764D01*
X105069127Y-100938102D01*
X105069114Y-100938109D01*
X104938011Y-101025710D01*
X104938007Y-101025713D01*
X104826513Y-101137207D01*
X104826510Y-101137211D01*
X104738909Y-101268314D01*
X104738902Y-101268327D01*
X104678564Y-101413998D01*
X104678561Y-101414010D01*
X104647800Y-101568653D01*
X104647800Y-101726346D01*
X104678561Y-101880989D01*
X104678564Y-101881001D01*
X104738902Y-102026672D01*
X104738909Y-102026685D01*
X104826510Y-102157788D01*
X104826513Y-102157792D01*
X104938007Y-102269286D01*
X104938011Y-102269289D01*
X105069114Y-102356890D01*
X105069127Y-102356897D01*
X105214798Y-102417235D01*
X105214803Y-102417237D01*
X105369453Y-102447999D01*
X105369456Y-102448000D01*
X105369458Y-102448000D01*
X105527144Y-102448000D01*
X105527145Y-102447999D01*
X105681797Y-102417237D01*
X105827479Y-102356894D01*
X105885854Y-102317889D01*
X105959175Y-102268898D01*
X106025853Y-102248020D01*
X106028066Y-102248000D01*
X109047403Y-102248000D01*
X109114442Y-102267685D01*
X109135084Y-102284319D01*
X111466241Y-104615476D01*
X111499726Y-104676799D01*
X111496492Y-104741473D01*
X111482753Y-104783757D01*
X111449500Y-104993713D01*
X111449500Y-105206286D01*
X111482753Y-105416239D01*
X111548444Y-105618414D01*
X111644951Y-105807820D01*
X111769890Y-105979786D01*
X111920213Y-106130109D01*
X112092179Y-106255048D01*
X112092181Y-106255049D01*
X112092184Y-106255051D01*
X112281588Y-106351557D01*
X112483757Y-106417246D01*
X112693713Y-106450500D01*
X112693714Y-106450500D01*
X112906286Y-106450500D01*
X112906287Y-106450500D01*
X113116243Y-106417246D01*
X113318412Y-106351557D01*
X113507816Y-106255051D01*
X113529789Y-106239086D01*
X113679786Y-106130109D01*
X113679788Y-106130106D01*
X113679792Y-106130104D01*
X113830104Y-105979792D01*
X113830106Y-105979788D01*
X113830109Y-105979786D01*
X113955048Y-105807820D01*
X113955047Y-105807820D01*
X113955051Y-105807816D01*
X114051557Y-105618412D01*
X114117246Y-105416243D01*
X114150500Y-105206287D01*
X114150500Y-104993713D01*
X114117246Y-104783757D01*
X114051557Y-104581588D01*
X113955051Y-104392184D01*
X113955049Y-104392181D01*
X113955048Y-104392179D01*
X113830109Y-104220213D01*
X113679786Y-104069890D01*
X113507820Y-103944951D01*
X113507115Y-103944591D01*
X113499054Y-103940485D01*
X113448259Y-103892512D01*
X113431463Y-103824692D01*
X113453999Y-103758556D01*
X113499054Y-103719515D01*
X113507816Y-103715051D01*
X113529789Y-103699086D01*
X113679786Y-103590109D01*
X113679788Y-103590106D01*
X113679792Y-103590104D01*
X113830104Y-103439792D01*
X113830106Y-103439788D01*
X113830109Y-103439786D01*
X113955048Y-103267820D01*
X113955047Y-103267820D01*
X113955051Y-103267816D01*
X114051557Y-103078412D01*
X114117246Y-102876243D01*
X114150500Y-102666287D01*
X114150500Y-102453713D01*
X114117246Y-102243757D01*
X114103506Y-102201473D01*
X114101512Y-102131635D01*
X114133755Y-102075478D01*
X114344913Y-101864321D01*
X114344916Y-101864320D01*
X114396365Y-101812871D01*
X114450632Y-101783240D01*
X114457686Y-101779388D01*
X114457687Y-101779388D01*
X114457689Y-101779387D01*
X114498549Y-101782310D01*
X114527378Y-101784372D01*
X114527379Y-101784372D01*
X114527380Y-101784373D01*
X114548171Y-101799938D01*
X114583311Y-101826244D01*
X114583313Y-101826246D01*
X114592657Y-101851301D01*
X114607728Y-101891708D01*
X114608044Y-101900554D01*
X114608044Y-106693930D01*
X114588359Y-106760969D01*
X114535555Y-106806724D01*
X114484044Y-106817930D01*
X109743835Y-106817930D01*
X109726057Y-106816649D01*
X109715343Y-106815096D01*
X109705383Y-106813654D01*
X109705382Y-106813654D01*
X109676555Y-106817069D01*
X109676554Y-106817069D01*
X109669285Y-106817930D01*
X109632939Y-106817930D01*
X109604143Y-106825645D01*
X109595274Y-106826696D01*
X109595266Y-106826698D01*
X109574512Y-106829157D01*
X109574510Y-106829157D01*
X109547551Y-106839915D01*
X109547552Y-106839916D01*
X109540742Y-106842633D01*
X109505645Y-106852038D01*
X109479823Y-106866944D01*
X109471527Y-106870256D01*
X109471521Y-106870260D01*
X109452118Y-106878004D01*
X109428859Y-106895376D01*
X109416660Y-106903413D01*
X109391518Y-106917929D01*
X109376744Y-106932702D01*
X109363274Y-106944360D01*
X109346537Y-106956861D01*
X109346532Y-106956866D01*
X109328563Y-106979663D01*
X109324031Y-106985415D01*
X109298331Y-107011116D01*
X109283419Y-107036941D01*
X109277889Y-107043959D01*
X109264957Y-107060367D01*
X109253500Y-107087041D01*
X109246956Y-107100098D01*
X109232439Y-107125243D01*
X109232437Y-107125249D01*
X109227032Y-107145420D01*
X109221195Y-107162255D01*
X109212953Y-107181446D01*
X109212948Y-107181461D01*
X109208786Y-107210185D01*
X109208787Y-107210186D01*
X109207738Y-107217429D01*
X109198331Y-107252538D01*
X109198331Y-107282360D01*
X109197050Y-107291203D01*
X109194055Y-107311873D01*
X109194055Y-107311881D01*
X109197470Y-107340703D01*
X109198331Y-107355291D01*
X109198331Y-107384324D01*
X109203749Y-107404545D01*
X109207112Y-107422046D01*
X109242286Y-107718930D01*
X109299704Y-108203572D01*
X109485852Y-109550000D01*
X109527602Y-109851985D01*
X109632839Y-110517440D01*
X109787532Y-111495623D01*
X110079401Y-113133906D01*
X110079408Y-113133943D01*
X110403091Y-114766171D01*
X110758497Y-116391870D01*
X111145470Y-118010334D01*
X111381405Y-118918570D01*
X111551852Y-119574711D01*
X111563873Y-119620984D01*
X112013532Y-121223151D01*
X112494275Y-122816232D01*
X113005961Y-124399749D01*
X113548323Y-125972884D01*
X113548332Y-125972909D01*
X113548337Y-125972923D01*
X113706245Y-126403553D01*
X114121243Y-127535292D01*
X114398391Y-128247892D01*
X114415874Y-128292841D01*
X114420101Y-128303710D01*
X114424693Y-128318033D01*
X114448968Y-128413274D01*
X114452807Y-128443047D01*
X114453431Y-128533741D01*
X114450001Y-128563571D01*
X114428807Y-128651756D01*
X114418309Y-128679882D01*
X114376544Y-128760387D01*
X114359593Y-128785168D01*
X114299702Y-128853276D01*
X114277293Y-128873256D01*
X114202788Y-128924974D01*
X114176234Y-128938982D01*
X114091485Y-128971277D01*
X114062343Y-128978493D01*
X113984161Y-128988029D01*
X113964908Y-128990377D01*
X113949898Y-128991289D01*
X109543392Y-128991289D01*
X109416097Y-129025397D01*
X109301971Y-129091289D01*
X109301968Y-129091291D01*
X101853414Y-136539843D01*
X101849784Y-136543472D01*
X101849781Y-136543475D01*
X101834250Y-136559006D01*
X101808564Y-136584693D01*
X101797204Y-136594742D01*
X101719076Y-136655756D01*
X101693111Y-136671341D01*
X101609525Y-136708487D01*
X101580557Y-136717314D01*
X101490461Y-136733091D01*
X101460218Y-136734633D01*
X101368987Y-136728102D01*
X101339272Y-136722268D01*
X101252340Y-136693817D01*
X101224924Y-136680954D01*
X101147481Y-136632280D01*
X101124002Y-136613155D01*
X101060665Y-136547160D01*
X101042527Y-136522923D01*
X100993513Y-136437322D01*
X100986343Y-136422628D01*
X100248844Y-134617936D01*
X100247955Y-134615701D01*
X100210583Y-134518931D01*
X99542990Y-132790287D01*
X99542159Y-132788068D01*
X99527808Y-132748650D01*
X99318673Y-132174209D01*
X99908044Y-132174209D01*
X99908044Y-132462652D01*
X99908045Y-132462669D01*
X99945693Y-132748637D01*
X99945694Y-132748642D01*
X99945695Y-132748648D01*
X100020353Y-133027275D01*
X100020358Y-133027291D01*
X100130735Y-133293767D01*
X100130743Y-133293783D01*
X100274964Y-133543579D01*
X100274975Y-133543595D01*
X100450568Y-133772433D01*
X100450574Y-133772440D01*
X100654534Y-133976400D01*
X100654541Y-133976406D01*
X100817497Y-134101446D01*
X100883388Y-134152006D01*
X100883395Y-134152010D01*
X101133191Y-134296231D01*
X101133207Y-134296239D01*
X101399683Y-134406616D01*
X101399689Y-134406617D01*
X101399699Y-134406622D01*
X101678327Y-134481280D01*
X101964316Y-134518931D01*
X101964323Y-134518931D01*
X102252765Y-134518931D01*
X102252772Y-134518931D01*
X102538761Y-134481280D01*
X102817389Y-134406622D01*
X102817401Y-134406616D01*
X102817404Y-134406616D01*
X103083880Y-134296239D01*
X103083883Y-134296237D01*
X103083889Y-134296235D01*
X103333700Y-134152006D01*
X103562548Y-133976405D01*
X103766518Y-133772435D01*
X103942119Y-133543587D01*
X104086348Y-133293776D01*
X104196735Y-133027276D01*
X104271393Y-132748648D01*
X104309044Y-132462659D01*
X104309044Y-132174203D01*
X104271393Y-131888214D01*
X104196735Y-131609586D01*
X104196730Y-131609576D01*
X104196729Y-131609570D01*
X104086352Y-131343094D01*
X104086344Y-131343078D01*
X103942123Y-131093282D01*
X103942119Y-131093275D01*
X103830926Y-130948365D01*
X103766519Y-130864428D01*
X103766513Y-130864421D01*
X103562553Y-130660461D01*
X103562546Y-130660455D01*
X103333708Y-130484862D01*
X103333706Y-130484860D01*
X103333700Y-130484856D01*
X103333695Y-130484853D01*
X103333692Y-130484851D01*
X103083896Y-130340630D01*
X103083880Y-130340622D01*
X102817404Y-130230245D01*
X102817392Y-130230241D01*
X102817389Y-130230240D01*
X102538761Y-130155582D01*
X102538755Y-130155581D01*
X102538750Y-130155580D01*
X102252782Y-130117932D01*
X102252777Y-130117931D01*
X102252772Y-130117931D01*
X101964316Y-130117931D01*
X101964310Y-130117931D01*
X101964305Y-130117932D01*
X101678337Y-130155580D01*
X101678330Y-130155581D01*
X101678327Y-130155582D01*
X101399699Y-130230240D01*
X101399683Y-130230245D01*
X101133207Y-130340622D01*
X101133191Y-130340630D01*
X100883395Y-130484851D01*
X100883379Y-130484862D01*
X100654541Y-130660455D01*
X100654534Y-130660461D01*
X100450574Y-130864421D01*
X100450568Y-130864428D01*
X100274975Y-131093266D01*
X100274964Y-131093282D01*
X100130743Y-131343078D01*
X100130735Y-131343094D01*
X100020358Y-131609570D01*
X100020353Y-131609586D01*
X99945696Y-131888211D01*
X99945693Y-131888224D01*
X99908045Y-132174192D01*
X99908044Y-132174209D01*
X99318673Y-132174209D01*
X98872801Y-130949512D01*
X98872002Y-130947249D01*
X98843656Y-130864428D01*
X98601054Y-130155583D01*
X98238399Y-129095965D01*
X98237642Y-129093681D01*
X97986534Y-128310734D01*
X97757566Y-127596819D01*
X97755838Y-127526973D01*
X97792145Y-127467278D01*
X97854963Y-127436689D01*
X97914945Y-127442388D01*
X97914965Y-127442307D01*
X97915555Y-127442446D01*
X97918980Y-127442771D01*
X97922517Y-127444091D01*
X97922516Y-127444091D01*
X97929444Y-127444835D01*
X97982127Y-127450500D01*
X99877872Y-127450499D01*
X99937483Y-127444091D01*
X100072331Y-127393796D01*
X100187546Y-127307546D01*
X100273796Y-127192331D01*
X100324091Y-127057483D01*
X100330500Y-126997873D01*
X100330499Y-126887304D01*
X100350183Y-126820268D01*
X100366818Y-126799626D01*
X101027861Y-126138584D01*
X101050667Y-126223694D01*
X101109910Y-126326306D01*
X101193694Y-126410090D01*
X101296306Y-126469333D01*
X101381414Y-126492137D01*
X100672485Y-127201065D01*
X100672485Y-127201066D01*
X100736243Y-127247388D01*
X100932589Y-127347432D01*
X101142164Y-127415526D01*
X101359819Y-127450000D01*
X101580181Y-127450000D01*
X101797835Y-127415526D01*
X102007410Y-127347432D01*
X102203760Y-127247386D01*
X102267513Y-127201066D01*
X102267514Y-127201066D01*
X101558585Y-126492138D01*
X101643694Y-126469333D01*
X101746306Y-126410090D01*
X101830090Y-126326306D01*
X101889333Y-126223694D01*
X101912137Y-126138585D01*
X102621066Y-126847514D01*
X102621066Y-126847513D01*
X102667386Y-126783760D01*
X102767432Y-126587410D01*
X102835526Y-126377835D01*
X102870000Y-126160181D01*
X102870000Y-125939818D01*
X102835526Y-125722164D01*
X102767432Y-125512589D01*
X102667388Y-125316243D01*
X102621066Y-125252485D01*
X102621065Y-125252485D01*
X101912137Y-125961413D01*
X101889333Y-125876306D01*
X101830090Y-125773694D01*
X101746306Y-125689910D01*
X101643694Y-125630667D01*
X101558583Y-125607861D01*
X102267513Y-124898932D01*
X102203756Y-124852611D01*
X102007410Y-124752567D01*
X101797835Y-124684473D01*
X101580181Y-124650000D01*
X101359819Y-124650000D01*
X101142164Y-124684473D01*
X100932589Y-124752567D01*
X100736233Y-124852616D01*
X100672485Y-124898931D01*
X100672485Y-124898932D01*
X101381414Y-125607861D01*
X101296306Y-125630667D01*
X101193694Y-125689910D01*
X101109910Y-125773694D01*
X101050667Y-125876306D01*
X101027861Y-125961414D01*
X100366818Y-125300371D01*
X100333333Y-125239048D01*
X100330499Y-125212690D01*
X100330499Y-125102129D01*
X100330498Y-125102123D01*
X100330497Y-125102116D01*
X100324091Y-125042517D01*
X100273796Y-124907669D01*
X100273795Y-124907668D01*
X100273793Y-124907664D01*
X100187547Y-124792455D01*
X100187544Y-124792452D01*
X100072335Y-124706206D01*
X100072328Y-124706202D01*
X99937482Y-124655908D01*
X99937483Y-124655908D01*
X99877883Y-124649501D01*
X99877881Y-124649500D01*
X99877873Y-124649500D01*
X99877864Y-124649500D01*
X97982129Y-124649500D01*
X97982123Y-124649501D01*
X97922516Y-124655908D01*
X97787671Y-124706202D01*
X97787664Y-124706206D01*
X97672455Y-124792452D01*
X97672452Y-124792455D01*
X97586206Y-124907664D01*
X97586202Y-124907671D01*
X97535908Y-125042517D01*
X97529501Y-125102116D01*
X97529501Y-125102123D01*
X97529500Y-125102135D01*
X97529500Y-126014984D01*
X97509815Y-126082023D01*
X97457011Y-126127778D01*
X97387853Y-126137722D01*
X97324297Y-126108697D01*
X97286712Y-126050556D01*
X97234531Y-125876306D01*
X97078045Y-125353740D01*
X97077382Y-125351446D01*
X97007962Y-125102128D01*
X96552505Y-123466393D01*
X96551893Y-123464104D01*
X96384975Y-122816256D01*
X96188822Y-122054936D01*
X96191157Y-121985108D01*
X96230875Y-121927625D01*
X96295366Y-121900741D01*
X96308900Y-121900000D01*
X97010000Y-121900000D01*
X97010000Y-120875277D01*
X97086306Y-120919333D01*
X97200756Y-120950000D01*
X97319244Y-120950000D01*
X97433694Y-120919333D01*
X97510000Y-120875277D01*
X97510000Y-121900000D01*
X98207828Y-121900000D01*
X98207844Y-121899999D01*
X98267372Y-121893598D01*
X98267379Y-121893596D01*
X98402086Y-121843354D01*
X98402093Y-121843350D01*
X98517187Y-121757190D01*
X98517190Y-121757187D01*
X98603350Y-121642093D01*
X98603354Y-121642086D01*
X98633213Y-121562031D01*
X98675084Y-121506097D01*
X98740548Y-121481680D01*
X98808821Y-121496531D01*
X98837076Y-121517683D01*
X98887636Y-121568243D01*
X98887641Y-121568247D01*
X99043192Y-121681260D01*
X99065978Y-121697815D01*
X99182501Y-121757187D01*
X99262393Y-121797895D01*
X99262396Y-121797896D01*
X99367221Y-121831955D01*
X99472049Y-121866015D01*
X99689778Y-121900500D01*
X99689779Y-121900500D01*
X99910221Y-121900500D01*
X99910222Y-121900500D01*
X100127951Y-121866015D01*
X100337606Y-121797895D01*
X100534022Y-121697815D01*
X100712365Y-121568242D01*
X100868242Y-121412365D01*
X100997815Y-121234022D01*
X101097895Y-121037606D01*
X101166015Y-120827951D01*
X101170384Y-120800365D01*
X101172010Y-120790102D01*
X101201939Y-120726967D01*
X101261251Y-120690036D01*
X101294483Y-120685500D01*
X103104534Y-120685500D01*
X103171573Y-120705185D01*
X103173425Y-120706398D01*
X103305114Y-120794390D01*
X103305127Y-120794397D01*
X103434886Y-120848144D01*
X103450803Y-120854737D01*
X103605453Y-120885499D01*
X103605456Y-120885500D01*
X103605458Y-120885500D01*
X103763144Y-120885500D01*
X103763145Y-120885499D01*
X103917797Y-120854737D01*
X104063479Y-120794394D01*
X104194589Y-120706789D01*
X104306089Y-120595289D01*
X104393694Y-120464179D01*
X104454037Y-120318497D01*
X104484800Y-120163842D01*
X104484800Y-120006158D01*
X104484800Y-120006155D01*
X104484799Y-120006153D01*
X104454038Y-119851510D01*
X104454037Y-119851503D01*
X104454035Y-119851498D01*
X104393697Y-119705827D01*
X104393690Y-119705814D01*
X104306089Y-119574711D01*
X104306086Y-119574707D01*
X104194592Y-119463213D01*
X104194588Y-119463210D01*
X104063485Y-119375609D01*
X104063472Y-119375602D01*
X103917801Y-119315264D01*
X103917789Y-119315261D01*
X103763145Y-119284500D01*
X103763142Y-119284500D01*
X103605458Y-119284500D01*
X103605455Y-119284500D01*
X103450810Y-119315261D01*
X103450798Y-119315264D01*
X103305127Y-119375602D01*
X103305114Y-119375609D01*
X103173425Y-119463602D01*
X103106747Y-119484480D01*
X103104534Y-119484500D01*
X100816469Y-119484500D01*
X100749430Y-119464815D01*
X100728788Y-119448181D01*
X100712363Y-119431756D01*
X100712358Y-119431752D01*
X100534025Y-119302187D01*
X100534024Y-119302186D01*
X100534022Y-119302185D01*
X100471096Y-119270122D01*
X100337606Y-119202104D01*
X100337603Y-119202103D01*
X100127952Y-119133985D01*
X100019086Y-119116742D01*
X99910222Y-119099500D01*
X99689778Y-119099500D01*
X99617201Y-119110995D01*
X99472047Y-119133985D01*
X99262396Y-119202103D01*
X99262393Y-119202104D01*
X99065974Y-119302187D01*
X98887641Y-119431752D01*
X98887636Y-119431756D01*
X98837075Y-119482317D01*
X98775752Y-119515801D01*
X98706060Y-119510816D01*
X98650127Y-119468945D01*
X98633213Y-119437968D01*
X98603354Y-119357913D01*
X98603350Y-119357906D01*
X98517190Y-119242812D01*
X98517187Y-119242809D01*
X98402093Y-119156649D01*
X98402086Y-119156645D01*
X98267379Y-119106403D01*
X98267372Y-119106401D01*
X98207844Y-119100000D01*
X97510000Y-119100000D01*
X97510000Y-120124722D01*
X97433694Y-120080667D01*
X97319244Y-120050000D01*
X97200756Y-120050000D01*
X97086306Y-120080667D01*
X97010000Y-120124722D01*
X97010000Y-119100000D01*
X96312155Y-119100000D01*
X96252627Y-119106401D01*
X96252620Y-119106403D01*
X96117913Y-119156645D01*
X96117906Y-119156649D01*
X96002812Y-119242809D01*
X96002809Y-119242812D01*
X95916649Y-119357906D01*
X95916645Y-119357913D01*
X95866403Y-119492620D01*
X95866401Y-119492627D01*
X95860000Y-119552155D01*
X95860000Y-119649519D01*
X95854077Y-119669687D01*
X95852969Y-119690680D01*
X95844431Y-119702539D01*
X95840315Y-119716558D01*
X95824429Y-119730322D01*
X95812147Y-119747384D01*
X95798553Y-119752744D01*
X95787511Y-119762313D01*
X95766705Y-119765304D01*
X95747149Y-119773017D01*
X95732815Y-119770177D01*
X95718353Y-119772257D01*
X95699232Y-119763525D01*
X95678611Y-119759440D01*
X95668087Y-119749301D01*
X95654797Y-119743232D01*
X95643431Y-119725547D01*
X95628294Y-119710963D01*
X95619137Y-119687744D01*
X95617023Y-119684454D01*
X95615346Y-119678130D01*
X95613344Y-119669687D01*
X95611763Y-119663019D01*
X95611264Y-119660821D01*
X95196913Y-117748446D01*
X95196426Y-117746090D01*
X95043641Y-116968335D01*
X94819237Y-115826001D01*
X94818817Y-115823742D01*
X94478953Y-113896761D01*
X94478562Y-113894412D01*
X94427495Y-113567971D01*
X94425018Y-113552135D01*
X95079500Y-113552135D01*
X95079500Y-115447870D01*
X95079501Y-115447876D01*
X95085908Y-115507483D01*
X95136202Y-115642328D01*
X95136206Y-115642335D01*
X95222452Y-115757544D01*
X95222455Y-115757547D01*
X95337664Y-115843793D01*
X95337671Y-115843797D01*
X95472517Y-115894091D01*
X95472516Y-115894091D01*
X95479444Y-115894835D01*
X95532127Y-115900500D01*
X97427872Y-115900499D01*
X97487483Y-115894091D01*
X97622331Y-115843796D01*
X97737546Y-115757546D01*
X97823796Y-115642331D01*
X97874091Y-115507483D01*
X97880500Y-115447873D01*
X97880499Y-115337304D01*
X97900183Y-115270268D01*
X97916818Y-115249626D01*
X98577861Y-114588584D01*
X98600667Y-114673694D01*
X98659910Y-114776306D01*
X98743694Y-114860090D01*
X98846306Y-114919333D01*
X98931414Y-114942137D01*
X98222485Y-115651065D01*
X98222485Y-115651066D01*
X98286243Y-115697388D01*
X98482589Y-115797432D01*
X98692164Y-115865526D01*
X98909819Y-115900000D01*
X99130181Y-115900000D01*
X99347835Y-115865526D01*
X99557410Y-115797432D01*
X99753760Y-115697386D01*
X99817513Y-115651066D01*
X99817514Y-115651066D01*
X99108585Y-114942138D01*
X99193694Y-114919333D01*
X99296306Y-114860090D01*
X99380090Y-114776306D01*
X99439333Y-114673694D01*
X99462137Y-114588585D01*
X100171066Y-115297514D01*
X100171066Y-115297513D01*
X100217386Y-115233760D01*
X100317432Y-115037410D01*
X100385526Y-114827835D01*
X100420000Y-114610181D01*
X100420000Y-114389818D01*
X100385526Y-114172164D01*
X100317432Y-113962589D01*
X100217388Y-113766243D01*
X100171066Y-113702485D01*
X100171065Y-113702485D01*
X99462137Y-114411413D01*
X99439333Y-114326306D01*
X99380090Y-114223694D01*
X99296306Y-114139910D01*
X99193694Y-114080667D01*
X99108583Y-114057861D01*
X99817513Y-113348932D01*
X99753756Y-113302611D01*
X99557410Y-113202567D01*
X99347835Y-113134473D01*
X99130181Y-113100000D01*
X98909819Y-113100000D01*
X98692164Y-113134473D01*
X98482589Y-113202567D01*
X98286233Y-113302616D01*
X98222485Y-113348931D01*
X98222485Y-113348932D01*
X98931414Y-114057861D01*
X98846306Y-114080667D01*
X98743694Y-114139910D01*
X98659910Y-114223694D01*
X98600667Y-114326306D01*
X98577861Y-114411414D01*
X97916818Y-113750371D01*
X97883333Y-113689048D01*
X97880499Y-113662690D01*
X97880499Y-113552129D01*
X97880498Y-113552123D01*
X97880497Y-113552116D01*
X97874091Y-113492517D01*
X97823796Y-113357669D01*
X97823795Y-113357668D01*
X97823793Y-113357664D01*
X97737547Y-113242455D01*
X97737544Y-113242452D01*
X97622335Y-113156206D01*
X97622328Y-113156202D01*
X97487482Y-113105908D01*
X97487483Y-113105908D01*
X97427883Y-113099501D01*
X97427881Y-113099500D01*
X97427873Y-113099500D01*
X97427864Y-113099500D01*
X95532129Y-113099500D01*
X95532123Y-113099501D01*
X95472516Y-113105908D01*
X95337671Y-113156202D01*
X95337664Y-113156206D01*
X95222455Y-113242452D01*
X95222452Y-113242455D01*
X95136206Y-113357664D01*
X95136202Y-113357671D01*
X95085908Y-113492517D01*
X95079501Y-113552116D01*
X95079501Y-113552123D01*
X95079500Y-113552135D01*
X94425018Y-113552135D01*
X94376572Y-113242452D01*
X94176142Y-111961229D01*
X94175796Y-111958869D01*
X94112507Y-111495623D01*
X93910917Y-110020087D01*
X93910633Y-110017846D01*
X93872117Y-109688399D01*
X93883884Y-109619527D01*
X93931017Y-109567950D01*
X93995278Y-109550000D01*
X94610000Y-109550000D01*
X94610000Y-108525277D01*
X94686306Y-108569333D01*
X94800756Y-108600000D01*
X94919244Y-108600000D01*
X95033694Y-108569333D01*
X95110000Y-108525277D01*
X95110000Y-109550000D01*
X95807828Y-109550000D01*
X95807844Y-109549999D01*
X95867372Y-109543598D01*
X95867379Y-109543596D01*
X96002086Y-109493354D01*
X96002093Y-109493350D01*
X96117187Y-109407190D01*
X96117190Y-109407187D01*
X96203350Y-109292093D01*
X96203354Y-109292086D01*
X96233213Y-109212031D01*
X96275084Y-109156097D01*
X96340548Y-109131680D01*
X96408821Y-109146531D01*
X96437076Y-109167683D01*
X96487636Y-109218243D01*
X96487641Y-109218247D01*
X96643192Y-109331260D01*
X96665978Y-109347815D01*
X96782501Y-109407187D01*
X96862393Y-109447895D01*
X96862396Y-109447896D01*
X96967221Y-109481955D01*
X97072049Y-109516015D01*
X97289778Y-109550500D01*
X97289779Y-109550500D01*
X97510221Y-109550500D01*
X97510222Y-109550500D01*
X97727951Y-109516015D01*
X97937606Y-109447895D01*
X98134022Y-109347815D01*
X98312365Y-109218242D01*
X98468242Y-109062365D01*
X98597815Y-108884022D01*
X98697895Y-108687606D01*
X98766015Y-108477951D01*
X98800500Y-108260222D01*
X98800500Y-108039778D01*
X98766015Y-107822049D01*
X98743187Y-107751794D01*
X98742753Y-107736581D01*
X98737435Y-107722321D01*
X98741776Y-107702366D01*
X98741193Y-107681955D01*
X98749281Y-107667867D01*
X98752288Y-107654048D01*
X98773434Y-107625800D01*
X98850219Y-107549017D01*
X98911543Y-107515533D01*
X98937899Y-107512700D01*
X100260234Y-107512700D01*
X100327273Y-107532385D01*
X100329125Y-107533598D01*
X100460814Y-107621590D01*
X100460827Y-107621597D01*
X100606498Y-107681935D01*
X100606503Y-107681937D01*
X100761153Y-107712699D01*
X100761156Y-107712700D01*
X100761158Y-107712700D01*
X100918844Y-107712700D01*
X100918845Y-107712699D01*
X101073497Y-107681937D01*
X101219179Y-107621594D01*
X101350289Y-107533989D01*
X101461789Y-107422489D01*
X101549394Y-107291379D01*
X101609737Y-107145697D01*
X101640500Y-106991042D01*
X101640500Y-106833358D01*
X101640500Y-106833355D01*
X101640499Y-106833353D01*
X101635863Y-106810046D01*
X101609737Y-106678703D01*
X101609735Y-106678698D01*
X101549397Y-106533027D01*
X101549390Y-106533014D01*
X101461789Y-106401911D01*
X101461786Y-106401907D01*
X101350292Y-106290413D01*
X101350288Y-106290410D01*
X101219185Y-106202809D01*
X101219172Y-106202802D01*
X101073501Y-106142464D01*
X101073489Y-106142461D01*
X100918845Y-106111700D01*
X100918842Y-106111700D01*
X100761158Y-106111700D01*
X100761155Y-106111700D01*
X100606510Y-106142461D01*
X100606498Y-106142464D01*
X100460827Y-106202802D01*
X100460814Y-106202809D01*
X100329125Y-106290802D01*
X100262447Y-106311680D01*
X100260234Y-106311700D01*
X98724470Y-106311700D01*
X98724454Y-106311699D01*
X98716858Y-106311699D01*
X98558743Y-106311699D01*
X98482379Y-106332161D01*
X98406014Y-106352623D01*
X98406009Y-106352626D01*
X98269090Y-106431675D01*
X98269082Y-106431681D01*
X97924202Y-106776561D01*
X97862879Y-106810046D01*
X97798203Y-106806811D01*
X97773584Y-106798812D01*
X97727952Y-106783985D01*
X97582634Y-106760969D01*
X97510222Y-106749500D01*
X97289778Y-106749500D01*
X97217366Y-106760969D01*
X97072047Y-106783985D01*
X96862396Y-106852103D01*
X96862393Y-106852104D01*
X96665974Y-106952187D01*
X96487641Y-107081752D01*
X96487636Y-107081756D01*
X96437075Y-107132317D01*
X96375752Y-107165801D01*
X96306060Y-107160816D01*
X96250127Y-107118945D01*
X96233213Y-107087968D01*
X96203354Y-107007913D01*
X96203350Y-107007906D01*
X96117190Y-106892812D01*
X96117187Y-106892809D01*
X96002093Y-106806649D01*
X96002086Y-106806645D01*
X95867379Y-106756403D01*
X95867372Y-106756401D01*
X95807844Y-106750000D01*
X95110000Y-106750000D01*
X95110000Y-107774722D01*
X95033694Y-107730667D01*
X94919244Y-107700000D01*
X94800756Y-107700000D01*
X94686306Y-107730667D01*
X94610000Y-107774722D01*
X94610000Y-106750000D01*
X93912155Y-106750000D01*
X93852627Y-106756401D01*
X93852617Y-106756403D01*
X93716710Y-106807093D01*
X93647019Y-106812077D01*
X93585696Y-106778591D01*
X93552212Y-106717268D01*
X93549963Y-106702932D01*
X93493684Y-106124484D01*
X93493475Y-106122090D01*
X93454317Y-105618414D01*
X93341803Y-104171202D01*
X93341649Y-104168942D01*
X93227847Y-102215519D01*
X93227731Y-102213125D01*
X93226992Y-102194091D01*
X93220688Y-102031680D01*
X93237758Y-101963929D01*
X93288747Y-101916161D01*
X93357468Y-101903542D01*
X93422102Y-101930080D01*
X93443861Y-101952560D01*
X93522455Y-102057547D01*
X93637664Y-102143793D01*
X93637671Y-102143797D01*
X93772517Y-102194091D01*
X93772516Y-102194091D01*
X93779444Y-102194835D01*
X93832127Y-102200500D01*
X95727872Y-102200499D01*
X95787483Y-102194091D01*
X95922331Y-102143796D01*
X96037546Y-102057546D01*
X96123796Y-101942331D01*
X96152892Y-101864321D01*
X96154327Y-101860474D01*
X96159883Y-101845575D01*
X96174091Y-101807483D01*
X96180500Y-101747873D01*
X96180499Y-101637306D01*
X96200183Y-101570269D01*
X96216818Y-101549627D01*
X96877861Y-100888584D01*
X96900667Y-100973694D01*
X96959910Y-101076306D01*
X97043694Y-101160090D01*
X97146306Y-101219333D01*
X97231414Y-101242137D01*
X96522485Y-101951065D01*
X96522485Y-101951066D01*
X96586243Y-101997388D01*
X96782589Y-102097432D01*
X96992164Y-102165526D01*
X97209819Y-102200000D01*
X97430181Y-102200000D01*
X97647835Y-102165526D01*
X97857410Y-102097432D01*
X98053760Y-101997386D01*
X98117513Y-101951066D01*
X98117514Y-101951066D01*
X97408585Y-101242138D01*
X97493694Y-101219333D01*
X97596306Y-101160090D01*
X97680090Y-101076306D01*
X97739333Y-100973694D01*
X97762137Y-100888585D01*
X98471066Y-101597514D01*
X98471066Y-101597513D01*
X98517386Y-101533760D01*
X98617432Y-101337410D01*
X98685526Y-101127835D01*
X98720000Y-100910181D01*
X98720000Y-100689818D01*
X98685526Y-100472164D01*
X98637391Y-100324018D01*
X98636587Y-100295898D01*
X98632584Y-100268053D01*
X98635603Y-100261441D01*
X98635396Y-100254177D01*
X98649922Y-100230087D01*
X98661609Y-100204497D01*
X98667722Y-100200567D01*
X98671476Y-100194344D01*
X98696722Y-100181931D01*
X98720387Y-100166723D01*
X98730657Y-100165246D01*
X98734177Y-100163516D01*
X98755322Y-100161700D01*
X98878003Y-100161700D01*
X98945042Y-100181385D01*
G37*
%TD.AperFunction*%
%TA.AperFunction,Conductor*%
G36*
X111581320Y-100640185D02*
G01*
X111624765Y-100688205D01*
X111644947Y-100727814D01*
X111644948Y-100727815D01*
X111769890Y-100899786D01*
X111920213Y-101050109D01*
X112092182Y-101175050D01*
X112100946Y-101179516D01*
X112151742Y-101227491D01*
X112168536Y-101295312D01*
X112145998Y-101361447D01*
X112100946Y-101400484D01*
X112092182Y-101404949D01*
X111920213Y-101529890D01*
X111769890Y-101680213D01*
X111644951Y-101852179D01*
X111548444Y-102041585D01*
X111482753Y-102243760D01*
X111449500Y-102453713D01*
X111449500Y-102600903D01*
X111429815Y-102667942D01*
X111377011Y-102713697D01*
X111307853Y-102723641D01*
X111244297Y-102694616D01*
X111237819Y-102688584D01*
X109835090Y-101285855D01*
X109835088Y-101285852D01*
X109716217Y-101166981D01*
X109716216Y-101166980D01*
X109629404Y-101116860D01*
X109629404Y-101116859D01*
X109629400Y-101116858D01*
X109579285Y-101087923D01*
X109426557Y-101046999D01*
X109268443Y-101046999D01*
X109260847Y-101046999D01*
X109260831Y-101047000D01*
X106028066Y-101047000D01*
X105961027Y-101027315D01*
X105959175Y-101026102D01*
X105827485Y-100938109D01*
X105827472Y-100938102D01*
X105681801Y-100877764D01*
X105681791Y-100877761D01*
X105623251Y-100866117D01*
X105561341Y-100833732D01*
X105526766Y-100773016D01*
X105530506Y-100703247D01*
X105571373Y-100646575D01*
X105636391Y-100620994D01*
X105647443Y-100620500D01*
X111514281Y-100620500D01*
X111581320Y-100640185D01*
G37*
%TD.AperFunction*%
%TA.AperFunction,Conductor*%
G36*
X111475479Y-91806885D02*
G01*
X111521234Y-91859689D01*
X111531178Y-91928847D01*
X111526371Y-91949518D01*
X111482753Y-92083759D01*
X111462725Y-92210214D01*
X111449500Y-92293713D01*
X111449500Y-92506287D01*
X111459534Y-92569644D01*
X111475151Y-92668244D01*
X111482754Y-92716243D01*
X111517409Y-92822901D01*
X111548444Y-92918414D01*
X111644951Y-93107820D01*
X111769890Y-93279786D01*
X111920213Y-93430109D01*
X112092182Y-93555050D01*
X112100946Y-93559516D01*
X112151742Y-93607491D01*
X112168536Y-93675312D01*
X112145998Y-93741447D01*
X112100946Y-93780484D01*
X112092182Y-93784949D01*
X111920213Y-93909890D01*
X111769890Y-94060213D01*
X111644951Y-94232179D01*
X111548444Y-94421585D01*
X111482753Y-94623760D01*
X111476978Y-94660222D01*
X111449500Y-94833713D01*
X111449500Y-95046287D01*
X111482754Y-95256243D01*
X111509944Y-95339926D01*
X111548444Y-95458414D01*
X111644951Y-95647820D01*
X111769890Y-95819786D01*
X111920213Y-95970109D01*
X112092182Y-96095050D01*
X112100946Y-96099516D01*
X112151742Y-96147491D01*
X112168536Y-96215312D01*
X112145998Y-96281447D01*
X112100946Y-96320484D01*
X112092182Y-96324949D01*
X111920213Y-96449890D01*
X111769890Y-96600213D01*
X111644951Y-96772179D01*
X111548444Y-96961585D01*
X111482753Y-97163760D01*
X111449500Y-97373713D01*
X111449500Y-97437200D01*
X111429815Y-97504239D01*
X111377011Y-97549994D01*
X111325500Y-97561200D01*
X99519166Y-97561200D01*
X99452127Y-97541515D01*
X99450275Y-97540302D01*
X99318585Y-97452309D01*
X99318572Y-97452302D01*
X99172901Y-97391964D01*
X99172889Y-97391961D01*
X99018245Y-97361200D01*
X99018242Y-97361200D01*
X98860558Y-97361200D01*
X98860555Y-97361200D01*
X98705910Y-97391961D01*
X98705898Y-97391964D01*
X98560227Y-97452302D01*
X98560214Y-97452309D01*
X98429111Y-97539910D01*
X98429107Y-97539913D01*
X98317613Y-97651407D01*
X98317610Y-97651411D01*
X98230009Y-97782514D01*
X98230002Y-97782527D01*
X98169664Y-97928198D01*
X98169661Y-97928210D01*
X98138900Y-98082853D01*
X98138900Y-98240546D01*
X98169661Y-98395189D01*
X98169664Y-98395201D01*
X98230002Y-98540872D01*
X98230009Y-98540885D01*
X98317610Y-98671988D01*
X98317613Y-98671992D01*
X98394640Y-98749019D01*
X98428125Y-98810342D01*
X98423141Y-98880034D01*
X98381269Y-98935967D01*
X98315805Y-98960384D01*
X98306959Y-98960700D01*
X96931670Y-98960700D01*
X96931654Y-98960699D01*
X96924058Y-98960699D01*
X96765943Y-98960699D01*
X96689579Y-98981161D01*
X96613214Y-99001623D01*
X96613209Y-99001626D01*
X96476290Y-99080675D01*
X96476282Y-99080681D01*
X96100348Y-99456615D01*
X96039025Y-99490100D01*
X95969333Y-99485116D01*
X95938354Y-99468199D01*
X95922332Y-99456204D01*
X95922328Y-99456202D01*
X95787482Y-99405908D01*
X95787483Y-99405908D01*
X95727883Y-99399501D01*
X95727881Y-99399500D01*
X95727873Y-99399500D01*
X95727864Y-99399500D01*
X93832129Y-99399500D01*
X93832123Y-99399501D01*
X93772516Y-99405908D01*
X93637671Y-99456202D01*
X93637664Y-99456206D01*
X93522455Y-99542452D01*
X93522452Y-99542455D01*
X93436206Y-99657664D01*
X93436202Y-99657671D01*
X93383198Y-99799785D01*
X93380919Y-99798935D01*
X93352269Y-99849229D01*
X93290353Y-99881604D01*
X93220762Y-99875365D01*
X93165592Y-99832494D01*
X93142358Y-99766600D01*
X93142205Y-99762418D01*
X93113818Y-98299159D01*
X93113795Y-98296754D01*
X93113795Y-96340105D01*
X93113818Y-96337701D01*
X93115371Y-96257632D01*
X93119173Y-96061639D01*
X93140153Y-95994998D01*
X93193834Y-95950276D01*
X93263173Y-95941675D01*
X93271659Y-95943370D01*
X93272624Y-95943598D01*
X93332155Y-95949999D01*
X93332172Y-95950000D01*
X94030000Y-95950000D01*
X94030000Y-94925277D01*
X94106306Y-94969333D01*
X94220756Y-95000000D01*
X94339244Y-95000000D01*
X94453694Y-94969333D01*
X94530000Y-94925277D01*
X94530000Y-95950000D01*
X95227828Y-95950000D01*
X95227844Y-95949999D01*
X95287372Y-95943598D01*
X95287379Y-95943596D01*
X95422086Y-95893354D01*
X95422093Y-95893350D01*
X95537187Y-95807190D01*
X95537190Y-95807187D01*
X95623350Y-95692093D01*
X95623354Y-95692086D01*
X95653213Y-95612031D01*
X95695084Y-95556097D01*
X95760548Y-95531680D01*
X95828821Y-95546531D01*
X95857076Y-95567683D01*
X95907636Y-95618243D01*
X95907641Y-95618247D01*
X96063192Y-95731260D01*
X96085978Y-95747815D01*
X96202501Y-95807187D01*
X96282393Y-95847895D01*
X96282396Y-95847896D01*
X96387221Y-95881955D01*
X96492049Y-95916015D01*
X96709778Y-95950500D01*
X96709779Y-95950500D01*
X96930221Y-95950500D01*
X96930222Y-95950500D01*
X97147951Y-95916015D01*
X97357606Y-95847895D01*
X97554022Y-95747815D01*
X97732365Y-95618242D01*
X97888242Y-95462365D01*
X98017815Y-95284022D01*
X98117895Y-95087606D01*
X98186015Y-94877951D01*
X98220500Y-94660222D01*
X98220500Y-94439778D01*
X98186015Y-94222049D01*
X98163188Y-94151794D01*
X98161193Y-94081953D01*
X98193436Y-94025797D01*
X98993016Y-93226219D01*
X99054339Y-93192734D01*
X99080697Y-93189900D01*
X102035934Y-93189900D01*
X102102973Y-93209585D01*
X102104825Y-93210798D01*
X102236514Y-93298790D01*
X102236527Y-93298797D01*
X102365419Y-93352185D01*
X102382203Y-93359137D01*
X102536853Y-93389899D01*
X102536856Y-93389900D01*
X102536858Y-93389900D01*
X102694544Y-93389900D01*
X102694545Y-93389899D01*
X102849197Y-93359137D01*
X102994879Y-93298794D01*
X103125989Y-93211189D01*
X103237489Y-93099689D01*
X103325094Y-92968579D01*
X103385437Y-92822897D01*
X103416200Y-92668242D01*
X103416200Y-92510558D01*
X103416200Y-92510555D01*
X103416199Y-92510553D01*
X103415350Y-92506286D01*
X103385437Y-92355903D01*
X103385435Y-92355898D01*
X103325097Y-92210227D01*
X103325090Y-92210214D01*
X103237489Y-92079111D01*
X103237486Y-92079107D01*
X103157260Y-91998881D01*
X103123775Y-91937558D01*
X103128759Y-91867866D01*
X103170631Y-91811933D01*
X103236095Y-91787516D01*
X103244941Y-91787200D01*
X111408440Y-91787200D01*
X111475479Y-91806885D01*
G37*
%TD.AperFunction*%
%TA.AperFunction,Conductor*%
G36*
X111919010Y-98781885D02*
G01*
X111964765Y-98834689D01*
X111974709Y-98903847D01*
X111945684Y-98967403D01*
X111924856Y-98986518D01*
X111920214Y-98989890D01*
X111920209Y-98989894D01*
X111769890Y-99140213D01*
X111644948Y-99312184D01*
X111644947Y-99312185D01*
X111624765Y-99351795D01*
X111576791Y-99402591D01*
X111514281Y-99419500D01*
X99936997Y-99419500D01*
X99869958Y-99399815D01*
X99849316Y-99383181D01*
X99665690Y-99199555D01*
X99665688Y-99199552D01*
X99546817Y-99080681D01*
X99546816Y-99080680D01*
X99460004Y-99030560D01*
X99460004Y-99030559D01*
X99460000Y-99030558D01*
X99428794Y-99012540D01*
X99380580Y-98961973D01*
X99367359Y-98893366D01*
X99393328Y-98828501D01*
X99421908Y-98802052D01*
X99450277Y-98783097D01*
X99516954Y-98762220D01*
X99519166Y-98762200D01*
X111851971Y-98762200D01*
X111919010Y-98781885D01*
G37*
%TD.AperFunction*%
%TA.AperFunction,Conductor*%
G36*
X101490451Y-57903778D02*
G01*
X101580569Y-57919559D01*
X101609523Y-57928381D01*
X101632208Y-57938462D01*
X101693121Y-57965531D01*
X101719084Y-57981115D01*
X101797216Y-58042129D01*
X101808580Y-58052181D01*
X101856852Y-58100455D01*
X101856866Y-58100467D01*
X109208785Y-65452385D01*
X109301971Y-65545571D01*
X109416099Y-65611463D01*
X109543392Y-65645571D01*
X109543393Y-65645571D01*
X113891408Y-65645571D01*
X113949767Y-65645571D01*
X113964777Y-65646483D01*
X113994330Y-65650086D01*
X114062346Y-65658381D01*
X114091482Y-65665595D01*
X114176238Y-65697892D01*
X114202790Y-65711899D01*
X114277305Y-65763622D01*
X114299715Y-65783602D01*
X114359607Y-65851709D01*
X114376558Y-65876489D01*
X114418328Y-65956999D01*
X114428826Y-65985126D01*
X114450022Y-66073313D01*
X114453453Y-66103139D01*
X114452833Y-66193836D01*
X114448995Y-66223612D01*
X114424802Y-66318539D01*
X114420210Y-66332862D01*
X114121241Y-67101566D01*
X113548321Y-68663974D01*
X113005957Y-70237109D01*
X112494272Y-71820626D01*
X112013529Y-73413707D01*
X111563870Y-75015875D01*
X111145467Y-76626524D01*
X110758494Y-78244988D01*
X110403087Y-79870688D01*
X110079404Y-81502916D01*
X110079399Y-81502942D01*
X110079397Y-81502954D01*
X109787527Y-83141236D01*
X109736341Y-83464906D01*
X109527597Y-84784873D01*
X109299697Y-86433294D01*
X109207100Y-87214856D01*
X109206048Y-87223730D01*
X109198331Y-87252538D01*
X109198331Y-87288883D01*
X109197470Y-87296152D01*
X109194055Y-87324982D01*
X109198331Y-87354497D01*
X109198331Y-87384322D01*
X109207736Y-87419423D01*
X109208786Y-87426670D01*
X109212949Y-87455403D01*
X109212950Y-87455408D01*
X109221192Y-87474596D01*
X109223800Y-87480667D01*
X109224720Y-87482809D01*
X109232439Y-87511616D01*
X109250613Y-87543094D01*
X109253502Y-87549820D01*
X109253502Y-87549821D01*
X109264957Y-87576493D01*
X109264960Y-87576496D01*
X109277886Y-87592898D01*
X109283423Y-87599923D01*
X109298331Y-87625744D01*
X109324026Y-87651439D01*
X109328558Y-87657189D01*
X109346530Y-87679991D01*
X109346531Y-87679992D01*
X109346533Y-87679994D01*
X109370428Y-87697841D01*
X109391517Y-87718930D01*
X109422996Y-87737104D01*
X109452117Y-87758855D01*
X109471522Y-87766598D01*
X109487545Y-87774371D01*
X109505645Y-87784822D01*
X109540757Y-87794230D01*
X109574514Y-87807702D01*
X109604129Y-87811210D01*
X109632939Y-87818930D01*
X109632942Y-87818930D01*
X109669289Y-87818930D01*
X109705383Y-87823206D01*
X109734898Y-87818930D01*
X114484044Y-87818930D01*
X114551083Y-87838615D01*
X114596838Y-87891419D01*
X114608044Y-87942930D01*
X114608044Y-91359845D01*
X114588359Y-91426884D01*
X114535555Y-91472639D01*
X114466397Y-91482583D01*
X114402841Y-91453558D01*
X114396363Y-91447526D01*
X114340597Y-91391760D01*
X114340574Y-91391739D01*
X114086947Y-91138112D01*
X114053462Y-91076789D01*
X114058446Y-91007097D01*
X114075365Y-90976116D01*
X114093351Y-90952091D01*
X114143597Y-90817376D01*
X114143598Y-90817372D01*
X114149999Y-90757844D01*
X114150000Y-90757827D01*
X114150000Y-90110000D01*
X113233012Y-90110000D01*
X113265925Y-90052993D01*
X113300000Y-89925826D01*
X113300000Y-89794174D01*
X113265925Y-89667007D01*
X113233012Y-89610000D01*
X114150000Y-89610000D01*
X114150000Y-88962172D01*
X114149999Y-88962155D01*
X114143598Y-88902627D01*
X114143596Y-88902620D01*
X114093354Y-88767913D01*
X114093350Y-88767906D01*
X114007190Y-88652812D01*
X114007187Y-88652809D01*
X113892093Y-88566649D01*
X113892086Y-88566645D01*
X113757379Y-88516403D01*
X113757372Y-88516401D01*
X113697844Y-88510000D01*
X113050000Y-88510000D01*
X113050000Y-89426988D01*
X112992993Y-89394075D01*
X112865826Y-89360000D01*
X112734174Y-89360000D01*
X112607007Y-89394075D01*
X112550000Y-89426988D01*
X112550000Y-88510000D01*
X111902155Y-88510000D01*
X111842627Y-88516401D01*
X111842620Y-88516403D01*
X111707913Y-88566645D01*
X111707906Y-88566649D01*
X111592812Y-88652809D01*
X111592809Y-88652812D01*
X111506649Y-88767906D01*
X111506645Y-88767913D01*
X111456403Y-88902620D01*
X111456401Y-88902627D01*
X111450000Y-88962155D01*
X111450000Y-89610000D01*
X112366988Y-89610000D01*
X112334075Y-89667007D01*
X112300000Y-89794174D01*
X112300000Y-89925826D01*
X112334075Y-90052993D01*
X112366988Y-90110000D01*
X111450000Y-90110000D01*
X111450000Y-90462200D01*
X111430315Y-90529239D01*
X111377511Y-90574994D01*
X111326000Y-90586200D01*
X101299138Y-90586200D01*
X101232099Y-90566515D01*
X101186344Y-90513711D01*
X101177520Y-90486388D01*
X101175037Y-90473905D01*
X101175036Y-90473901D01*
X101172586Y-90467987D01*
X101159951Y-90437482D01*
X101114697Y-90328227D01*
X101114690Y-90328214D01*
X101027089Y-90197111D01*
X101027086Y-90197107D01*
X100915592Y-90085613D01*
X100915588Y-90085610D01*
X100784485Y-89998009D01*
X100784472Y-89998002D01*
X100638801Y-89937664D01*
X100638789Y-89937661D01*
X100484145Y-89906900D01*
X100484142Y-89906900D01*
X100411606Y-89906900D01*
X100379513Y-89902675D01*
X100323282Y-89887607D01*
X100243757Y-89866299D01*
X100085643Y-89866299D01*
X99971097Y-89896992D01*
X99932914Y-89907223D01*
X99795984Y-89986281D01*
X99795981Y-89986283D01*
X99684183Y-90098081D01*
X99684181Y-90098084D01*
X99605123Y-90235014D01*
X99605123Y-90235015D01*
X99564199Y-90387743D01*
X99564199Y-90545857D01*
X99600575Y-90681611D01*
X99604800Y-90713705D01*
X99604800Y-90786246D01*
X99635561Y-90940889D01*
X99635564Y-90940901D01*
X99695902Y-91086572D01*
X99695909Y-91086585D01*
X99783510Y-91217688D01*
X99783513Y-91217692D01*
X99895007Y-91329186D01*
X99895011Y-91329189D01*
X100026114Y-91416790D01*
X100026127Y-91416797D01*
X100160944Y-91472639D01*
X100171803Y-91477137D01*
X100326458Y-91507900D01*
X100327147Y-91508037D01*
X100389058Y-91540422D01*
X100390637Y-91541973D01*
X100515884Y-91667220D01*
X100515886Y-91667221D01*
X100515890Y-91667224D01*
X100652809Y-91746273D01*
X100652816Y-91746277D01*
X100652823Y-91746279D01*
X100660323Y-91749386D01*
X100659352Y-91751729D01*
X100708178Y-91781490D01*
X100738708Y-91844336D01*
X100730414Y-91913712D01*
X100685929Y-91967590D01*
X100619377Y-91988865D01*
X100616425Y-91988900D01*
X98859657Y-91988900D01*
X98701543Y-91988900D01*
X98548815Y-92029823D01*
X98548814Y-92029823D01*
X98548812Y-92029824D01*
X98548809Y-92029825D01*
X98498696Y-92058759D01*
X98498695Y-92058760D01*
X98463453Y-92079107D01*
X98411885Y-92108879D01*
X98411882Y-92108881D01*
X98300078Y-92220686D01*
X97344202Y-93176561D01*
X97282879Y-93210046D01*
X97218203Y-93206811D01*
X97193584Y-93198812D01*
X97147952Y-93183985D01*
X97039086Y-93166742D01*
X96930222Y-93149500D01*
X96709778Y-93149500D01*
X96637201Y-93160995D01*
X96492047Y-93183985D01*
X96282396Y-93252103D01*
X96282393Y-93252104D01*
X96085974Y-93352187D01*
X95907641Y-93481752D01*
X95907636Y-93481756D01*
X95857075Y-93532317D01*
X95795752Y-93565801D01*
X95726060Y-93560816D01*
X95670127Y-93518945D01*
X95653213Y-93487968D01*
X95623354Y-93407913D01*
X95623350Y-93407906D01*
X95537190Y-93292812D01*
X95537187Y-93292809D01*
X95422093Y-93206649D01*
X95422086Y-93206645D01*
X95287379Y-93156403D01*
X95287372Y-93156401D01*
X95227844Y-93150000D01*
X94530000Y-93150000D01*
X94530000Y-94174722D01*
X94453694Y-94130667D01*
X94339244Y-94100000D01*
X94220756Y-94100000D01*
X94106306Y-94130667D01*
X94030000Y-94174722D01*
X94030000Y-93150000D01*
X93328851Y-93150000D01*
X93328851Y-93148418D01*
X93266913Y-93133676D01*
X93218479Y-93083318D01*
X93204540Y-93021214D01*
X93227731Y-92423722D01*
X93227848Y-92421332D01*
X93239537Y-92220684D01*
X93341650Y-90467910D01*
X93341802Y-90465664D01*
X93493480Y-88514701D01*
X93493677Y-88512451D01*
X93645483Y-86952135D01*
X93929500Y-86952135D01*
X93929500Y-88847870D01*
X93929501Y-88847876D01*
X93935908Y-88907483D01*
X93986202Y-89042328D01*
X93986206Y-89042335D01*
X94072452Y-89157544D01*
X94072455Y-89157547D01*
X94187664Y-89243793D01*
X94187671Y-89243797D01*
X94322517Y-89294091D01*
X94322516Y-89294091D01*
X94329444Y-89294835D01*
X94382127Y-89300500D01*
X96277872Y-89300499D01*
X96337483Y-89294091D01*
X96472331Y-89243796D01*
X96587546Y-89157546D01*
X96673796Y-89042331D01*
X96696786Y-88980691D01*
X96704327Y-88960474D01*
X96713392Y-88936168D01*
X96724091Y-88907483D01*
X96730500Y-88847873D01*
X96730499Y-88737304D01*
X96750183Y-88670268D01*
X96766818Y-88649626D01*
X97427861Y-87988584D01*
X97450667Y-88073694D01*
X97509910Y-88176306D01*
X97593694Y-88260090D01*
X97696306Y-88319333D01*
X97781414Y-88342137D01*
X97072485Y-89051065D01*
X97072485Y-89051066D01*
X97136243Y-89097388D01*
X97332589Y-89197432D01*
X97542164Y-89265526D01*
X97759819Y-89300000D01*
X97980181Y-89300000D01*
X98197835Y-89265526D01*
X98407410Y-89197432D01*
X98603760Y-89097386D01*
X98667513Y-89051066D01*
X98667514Y-89051066D01*
X97958585Y-88342138D01*
X98043694Y-88319333D01*
X98146306Y-88260090D01*
X98230090Y-88176306D01*
X98289333Y-88073694D01*
X98312137Y-87988585D01*
X99021066Y-88697514D01*
X99021066Y-88697513D01*
X99067386Y-88633760D01*
X99167432Y-88437410D01*
X99235526Y-88227835D01*
X99270000Y-88010181D01*
X99270000Y-87789818D01*
X99235526Y-87572164D01*
X99167432Y-87362589D01*
X99067388Y-87166243D01*
X99021066Y-87102485D01*
X99021065Y-87102485D01*
X98312137Y-87811413D01*
X98289333Y-87726306D01*
X98230090Y-87623694D01*
X98146306Y-87539910D01*
X98043694Y-87480667D01*
X97958583Y-87457861D01*
X98667513Y-86748932D01*
X98603756Y-86702611D01*
X98407410Y-86602567D01*
X98197835Y-86534473D01*
X97980181Y-86500000D01*
X97759819Y-86500000D01*
X97542164Y-86534473D01*
X97332589Y-86602567D01*
X97136233Y-86702616D01*
X97072485Y-86748931D01*
X97072485Y-86748932D01*
X97781414Y-87457861D01*
X97696306Y-87480667D01*
X97593694Y-87539910D01*
X97509910Y-87623694D01*
X97450667Y-87726306D01*
X97427861Y-87811414D01*
X96766818Y-87150371D01*
X96733333Y-87089048D01*
X96730499Y-87062690D01*
X96730499Y-86952129D01*
X96730498Y-86952123D01*
X96730497Y-86952116D01*
X96724091Y-86892517D01*
X96673796Y-86757669D01*
X96673795Y-86757668D01*
X96673793Y-86757664D01*
X96587547Y-86642455D01*
X96587544Y-86642452D01*
X96472335Y-86556206D01*
X96472328Y-86556202D01*
X96337482Y-86505908D01*
X96337483Y-86505908D01*
X96277883Y-86499501D01*
X96277881Y-86499500D01*
X96277873Y-86499500D01*
X96277864Y-86499500D01*
X94382129Y-86499500D01*
X94382123Y-86499501D01*
X94322516Y-86505908D01*
X94187671Y-86556202D01*
X94187664Y-86556206D01*
X94072455Y-86642452D01*
X94072452Y-86642455D01*
X93986206Y-86757664D01*
X93986202Y-86757671D01*
X93935908Y-86892517D01*
X93931148Y-86936797D01*
X93929501Y-86952123D01*
X93929500Y-86952135D01*
X93645483Y-86952135D01*
X93683160Y-86564879D01*
X93683414Y-86562513D01*
X93910634Y-84619000D01*
X93910915Y-84616785D01*
X94175800Y-82677956D01*
X94176145Y-82675610D01*
X94203983Y-82497664D01*
X94430112Y-81052155D01*
X95080000Y-81052155D01*
X95080000Y-81750000D01*
X96104722Y-81750000D01*
X96060667Y-81826306D01*
X96030000Y-81940756D01*
X96030000Y-82059244D01*
X96060667Y-82173694D01*
X96104722Y-82250000D01*
X95080000Y-82250000D01*
X95080000Y-82947844D01*
X95086401Y-83007372D01*
X95086403Y-83007379D01*
X95136645Y-83142086D01*
X95136649Y-83142093D01*
X95222809Y-83257187D01*
X95222812Y-83257190D01*
X95337906Y-83343350D01*
X95337913Y-83343354D01*
X95472620Y-83393596D01*
X95472627Y-83393598D01*
X95532155Y-83399999D01*
X95532172Y-83400000D01*
X96230000Y-83400000D01*
X96230000Y-82375277D01*
X96306306Y-82419333D01*
X96420756Y-82450000D01*
X96539244Y-82450000D01*
X96653694Y-82419333D01*
X96730000Y-82375277D01*
X96730000Y-83400000D01*
X97427828Y-83400000D01*
X97427844Y-83399999D01*
X97487372Y-83393598D01*
X97487379Y-83393596D01*
X97622086Y-83343354D01*
X97622093Y-83343350D01*
X97737187Y-83257190D01*
X97737190Y-83257187D01*
X97823350Y-83142093D01*
X97823354Y-83142086D01*
X97853213Y-83062031D01*
X97895084Y-83006097D01*
X97960548Y-82981680D01*
X98028821Y-82996531D01*
X98057076Y-83017683D01*
X98107636Y-83068243D01*
X98107641Y-83068247D01*
X98263192Y-83181260D01*
X98285978Y-83197815D01*
X98402501Y-83257187D01*
X98482393Y-83297895D01*
X98482396Y-83297896D01*
X98549525Y-83319707D01*
X98692049Y-83366015D01*
X98909778Y-83400500D01*
X98909779Y-83400500D01*
X99130221Y-83400500D01*
X99130222Y-83400500D01*
X99347951Y-83366015D01*
X99418205Y-83343187D01*
X99488044Y-83341192D01*
X99544202Y-83373437D01*
X100825584Y-84654820D01*
X100915408Y-84706679D01*
X100963623Y-84757245D01*
X100976847Y-84825852D01*
X100958144Y-84880446D01*
X100852183Y-85047633D01*
X100852179Y-85047641D01*
X100781180Y-85231488D01*
X100781178Y-85231495D01*
X100747411Y-85425649D01*
X100747411Y-85425659D01*
X100752171Y-85622680D01*
X100752172Y-85622685D01*
X100795278Y-85814986D01*
X100795280Y-85814992D01*
X100875072Y-85995188D01*
X100875076Y-85995196D01*
X102780714Y-88703209D01*
X102786346Y-88711212D01*
X102794964Y-88728795D01*
X102842964Y-88791668D01*
X102888494Y-88856369D01*
X102895585Y-88863125D01*
X102908604Y-88877648D01*
X102914555Y-88885443D01*
X102914556Y-88885444D01*
X102972110Y-88936168D01*
X102972109Y-88936168D01*
X102973929Y-88937771D01*
X103031178Y-88992319D01*
X103047713Y-89002798D01*
X103055056Y-89009269D01*
X103055061Y-89009273D01*
X103062413Y-89015753D01*
X103128741Y-89054264D01*
X103130823Y-89055473D01*
X103197641Y-89097821D01*
X103215913Y-89104877D01*
X103232846Y-89114709D01*
X103283241Y-89131953D01*
X103305401Y-89139537D01*
X103309887Y-89141169D01*
X103381490Y-89168821D01*
X103400787Y-89172177D01*
X103419312Y-89178516D01*
X103497700Y-89189031D01*
X103575656Y-89202589D01*
X103585461Y-89202351D01*
X103604931Y-89203415D01*
X107714645Y-89754719D01*
X107911334Y-89742311D01*
X108101824Y-89691770D01*
X108278795Y-89605036D01*
X108435443Y-89485445D01*
X108565751Y-89337589D01*
X108664709Y-89167154D01*
X108728516Y-88980688D01*
X108754719Y-88785356D01*
X108742311Y-88588666D01*
X108691770Y-88398176D01*
X108605036Y-88221205D01*
X108485445Y-88064557D01*
X108337589Y-87934249D01*
X108278602Y-87900000D01*
X108167159Y-87835293D01*
X108167150Y-87835289D01*
X107980690Y-87771484D01*
X104270237Y-87273740D01*
X104206409Y-87245317D01*
X104185315Y-87222202D01*
X104180146Y-87214856D01*
X102600544Y-84970159D01*
X102578062Y-84904008D01*
X102594914Y-84836201D01*
X102645750Y-84788268D01*
X102701953Y-84774800D01*
X103099934Y-84774800D01*
X103166973Y-84794485D01*
X103168825Y-84795698D01*
X103300514Y-84883690D01*
X103300527Y-84883697D01*
X103446198Y-84944035D01*
X103446203Y-84944037D01*
X103600853Y-84974799D01*
X103600856Y-84974800D01*
X103600858Y-84974800D01*
X103758544Y-84974800D01*
X103758545Y-84974799D01*
X103913197Y-84944037D01*
X104058879Y-84883694D01*
X104189989Y-84796089D01*
X104301489Y-84684589D01*
X104389094Y-84553479D01*
X104449437Y-84407797D01*
X104480200Y-84253142D01*
X104480200Y-84095458D01*
X104480200Y-84095455D01*
X104480199Y-84095453D01*
X104449438Y-83940810D01*
X104449437Y-83940803D01*
X104449435Y-83940798D01*
X104389097Y-83795127D01*
X104389090Y-83795114D01*
X104301489Y-83664011D01*
X104301486Y-83664007D01*
X104189992Y-83552513D01*
X104189988Y-83552510D01*
X104058885Y-83464909D01*
X104058872Y-83464902D01*
X103913201Y-83404564D01*
X103913189Y-83404561D01*
X103758545Y-83373800D01*
X103758542Y-83373800D01*
X103600858Y-83373800D01*
X103600855Y-83373800D01*
X103446210Y-83404561D01*
X103446198Y-83404564D01*
X103300527Y-83464902D01*
X103300514Y-83464909D01*
X103168825Y-83552902D01*
X103102147Y-83573780D01*
X103099934Y-83573800D01*
X101494398Y-83573800D01*
X101427359Y-83554115D01*
X101406717Y-83537481D01*
X100393438Y-82524203D01*
X100359953Y-82462880D01*
X100363187Y-82398205D01*
X100386015Y-82327951D01*
X100420500Y-82110222D01*
X100420500Y-81889778D01*
X100386015Y-81672049D01*
X100347287Y-81552854D01*
X100317896Y-81462396D01*
X100317895Y-81462393D01*
X100283237Y-81394375D01*
X100217815Y-81265978D01*
X100201260Y-81243192D01*
X100088247Y-81087641D01*
X100088243Y-81087636D01*
X99932363Y-80931756D01*
X99932358Y-80931752D01*
X99754025Y-80802187D01*
X99754024Y-80802186D01*
X99754022Y-80802185D01*
X99691096Y-80770122D01*
X99557606Y-80702104D01*
X99557603Y-80702103D01*
X99347952Y-80633985D01*
X99239086Y-80616742D01*
X99130222Y-80599500D01*
X98909778Y-80599500D01*
X98837201Y-80610995D01*
X98692047Y-80633985D01*
X98482396Y-80702103D01*
X98482393Y-80702104D01*
X98285974Y-80802187D01*
X98107641Y-80931752D01*
X98107636Y-80931756D01*
X98057075Y-80982317D01*
X97995752Y-81015801D01*
X97926060Y-81010816D01*
X97870127Y-80968945D01*
X97853213Y-80937968D01*
X97823354Y-80857913D01*
X97823350Y-80857906D01*
X97737190Y-80742812D01*
X97737187Y-80742809D01*
X97622093Y-80656649D01*
X97622086Y-80656645D01*
X97487379Y-80606403D01*
X97487372Y-80606401D01*
X97427844Y-80600000D01*
X96730000Y-80600000D01*
X96730000Y-81624722D01*
X96653694Y-81580667D01*
X96539244Y-81550000D01*
X96420756Y-81550000D01*
X96306306Y-81580667D01*
X96230000Y-81624722D01*
X96230000Y-80600000D01*
X95532155Y-80600000D01*
X95472627Y-80606401D01*
X95472620Y-80606403D01*
X95337913Y-80656645D01*
X95337906Y-80656649D01*
X95222812Y-80742809D01*
X95222809Y-80742812D01*
X95136649Y-80857906D01*
X95136645Y-80857913D01*
X95086403Y-80992620D01*
X95086401Y-80992627D01*
X95080000Y-81052155D01*
X94430112Y-81052155D01*
X94478568Y-80742406D01*
X94478957Y-80740074D01*
X94493671Y-80656649D01*
X94690865Y-79538584D01*
X101044724Y-79538584D01*
X101061812Y-79734923D01*
X101116875Y-79924150D01*
X101116877Y-79924156D01*
X101207802Y-80099011D01*
X101331091Y-80252766D01*
X101482007Y-80379515D01*
X101654752Y-80474386D01*
X101842684Y-80533733D01*
X102038586Y-80555276D01*
X102234924Y-80538187D01*
X102424156Y-80483123D01*
X107438221Y-77875808D01*
X107453302Y-77870901D01*
X107525556Y-77830394D01*
X107599011Y-77792198D01*
X107603372Y-77788700D01*
X107620318Y-77777269D01*
X107625211Y-77774527D01*
X107688178Y-77720698D01*
X107752766Y-77668909D01*
X107762960Y-77656771D01*
X107775016Y-77646465D01*
X107826269Y-77581390D01*
X107879514Y-77517993D01*
X107887145Y-77504098D01*
X107896958Y-77491639D01*
X107934528Y-77417820D01*
X107974386Y-77345248D01*
X107979159Y-77330131D01*
X107986353Y-77315998D01*
X108008796Y-77236282D01*
X108033733Y-77157316D01*
X108035466Y-77141552D01*
X108039763Y-77126292D01*
X108046071Y-77045671D01*
X108046435Y-77041805D01*
X108055276Y-76961414D01*
X108053901Y-76945618D01*
X108055138Y-76929812D01*
X108045368Y-76847585D01*
X108038187Y-76765076D01*
X108036617Y-76759683D01*
X108032547Y-76739680D01*
X107431886Y-71684106D01*
X107370900Y-71496698D01*
X107274526Y-71324789D01*
X107146464Y-71174984D01*
X106991639Y-71053042D01*
X106991635Y-71053040D01*
X106991633Y-71053038D01*
X106815995Y-70963646D01*
X106717861Y-70936017D01*
X106626292Y-70910237D01*
X106626289Y-70910236D01*
X106626287Y-70910236D01*
X106469992Y-70898006D01*
X106429812Y-70894862D01*
X106429811Y-70894862D01*
X106429810Y-70894862D01*
X106300413Y-70910236D01*
X106234106Y-70918114D01*
X106234103Y-70918115D01*
X106046700Y-70979098D01*
X106046700Y-70979099D01*
X105874788Y-71075474D01*
X105724985Y-71203534D01*
X105635926Y-71316609D01*
X105629485Y-71324788D01*
X105603043Y-71358360D01*
X105603038Y-71358366D01*
X105513646Y-71534004D01*
X105460236Y-71723712D01*
X105444861Y-71920190D01*
X105964790Y-76296260D01*
X105953152Y-76365154D01*
X105906115Y-76416819D01*
X105898864Y-76420905D01*
X103498859Y-77668909D01*
X101500989Y-78707802D01*
X101500987Y-78707803D01*
X101500986Y-78707804D01*
X101347232Y-78831092D01*
X101220487Y-78982004D01*
X101125612Y-79154755D01*
X101125611Y-79154758D01*
X101066267Y-79342681D01*
X101044724Y-79538584D01*
X94690865Y-79538584D01*
X94818820Y-78813098D01*
X94819234Y-78810876D01*
X95196428Y-76890756D01*
X95196913Y-76888413D01*
X95203004Y-76860300D01*
X95611269Y-74976015D01*
X95611754Y-74973880D01*
X96031771Y-73202135D01*
X96759500Y-73202135D01*
X96759500Y-75097870D01*
X96759501Y-75097876D01*
X96765908Y-75157483D01*
X96816202Y-75292328D01*
X96816206Y-75292335D01*
X96902452Y-75407544D01*
X96902455Y-75407547D01*
X97017664Y-75493793D01*
X97017671Y-75493797D01*
X97152517Y-75544091D01*
X97152516Y-75544091D01*
X97159444Y-75544835D01*
X97212127Y-75550500D01*
X99107872Y-75550499D01*
X99167483Y-75544091D01*
X99302329Y-75493797D01*
X99302329Y-75493796D01*
X99302331Y-75493796D01*
X99318355Y-75481799D01*
X99383819Y-75457381D01*
X99452092Y-75472231D01*
X99480349Y-75493384D01*
X100411139Y-76424174D01*
X100411149Y-76424185D01*
X100527285Y-76540321D01*
X100558049Y-76558082D01*
X100588814Y-76575844D01*
X100664215Y-76619377D01*
X100816943Y-76660301D01*
X100816946Y-76660301D01*
X100982653Y-76660301D01*
X100982669Y-76660300D01*
X102670234Y-76660300D01*
X102737273Y-76679985D01*
X102739125Y-76681198D01*
X102870814Y-76769190D01*
X102870827Y-76769197D01*
X103016498Y-76829535D01*
X103016503Y-76829537D01*
X103171153Y-76860299D01*
X103171156Y-76860300D01*
X103171158Y-76860300D01*
X103328844Y-76860300D01*
X103328845Y-76860299D01*
X103483497Y-76829537D01*
X103629179Y-76769194D01*
X103760289Y-76681589D01*
X103871789Y-76570089D01*
X103959394Y-76438979D01*
X104019737Y-76293297D01*
X104050500Y-76138642D01*
X104050500Y-75980958D01*
X104050500Y-75980955D01*
X104050499Y-75980953D01*
X104019738Y-75826310D01*
X104019737Y-75826303D01*
X103974997Y-75718290D01*
X103959397Y-75680627D01*
X103959390Y-75680614D01*
X103871789Y-75549511D01*
X103871786Y-75549507D01*
X103760292Y-75438013D01*
X103760288Y-75438010D01*
X103629185Y-75350409D01*
X103629172Y-75350402D01*
X103483501Y-75290064D01*
X103483489Y-75290061D01*
X103328845Y-75259300D01*
X103328842Y-75259300D01*
X103171158Y-75259300D01*
X103171155Y-75259300D01*
X103016510Y-75290061D01*
X103016498Y-75290064D01*
X102870827Y-75350402D01*
X102870814Y-75350409D01*
X102739125Y-75438402D01*
X102672447Y-75459280D01*
X102670234Y-75459300D01*
X101619203Y-75459300D01*
X101552164Y-75439615D01*
X101506409Y-75386811D01*
X101495585Y-75325571D01*
X101497513Y-75301065D01*
X100788584Y-74592138D01*
X100873694Y-74569333D01*
X100976306Y-74510090D01*
X101060090Y-74426306D01*
X101119333Y-74323694D01*
X101142137Y-74238585D01*
X101851066Y-74947514D01*
X101851066Y-74947513D01*
X101897386Y-74883760D01*
X101997432Y-74687410D01*
X102065526Y-74477835D01*
X102100000Y-74260181D01*
X102100000Y-74039818D01*
X102065526Y-73822164D01*
X101997432Y-73612589D01*
X101897388Y-73416243D01*
X101851066Y-73352485D01*
X101851065Y-73352485D01*
X101142137Y-74061413D01*
X101119333Y-73976306D01*
X101060090Y-73873694D01*
X100976306Y-73789910D01*
X100873694Y-73730667D01*
X100788583Y-73707861D01*
X101497513Y-72998932D01*
X101433756Y-72952611D01*
X101237410Y-72852567D01*
X101027835Y-72784473D01*
X100810181Y-72750000D01*
X100589819Y-72750000D01*
X100372164Y-72784473D01*
X100162589Y-72852567D01*
X99966233Y-72952616D01*
X99902485Y-72998931D01*
X99902485Y-72998932D01*
X100611414Y-73707861D01*
X100526306Y-73730667D01*
X100423694Y-73789910D01*
X100339910Y-73873694D01*
X100280667Y-73976306D01*
X100257861Y-74061415D01*
X99596818Y-73400371D01*
X99563333Y-73339048D01*
X99560499Y-73312690D01*
X99560499Y-73202129D01*
X99560498Y-73202123D01*
X99560497Y-73202116D01*
X99554091Y-73142517D01*
X99526984Y-73069839D01*
X99503797Y-73007671D01*
X99503793Y-73007664D01*
X99417547Y-72892455D01*
X99417544Y-72892452D01*
X99302335Y-72806206D01*
X99302328Y-72806202D01*
X99167482Y-72755908D01*
X99167483Y-72755908D01*
X99107883Y-72749501D01*
X99107881Y-72749500D01*
X99107873Y-72749500D01*
X99107864Y-72749500D01*
X97212129Y-72749500D01*
X97212123Y-72749501D01*
X97152516Y-72755908D01*
X97017671Y-72806202D01*
X97017664Y-72806206D01*
X96902455Y-72892452D01*
X96902452Y-72892455D01*
X96816206Y-73007664D01*
X96816202Y-73007671D01*
X96765908Y-73142517D01*
X96762932Y-73170202D01*
X96759501Y-73202123D01*
X96759500Y-73202135D01*
X96031771Y-73202135D01*
X96063141Y-73069808D01*
X96063712Y-73067505D01*
X96136635Y-72784473D01*
X96551909Y-71172693D01*
X96552498Y-71170491D01*
X97077394Y-69285369D01*
X97078050Y-69283102D01*
X97107720Y-69184025D01*
X97611369Y-67502155D01*
X99280000Y-67502155D01*
X99280000Y-68200000D01*
X100304722Y-68200000D01*
X100260667Y-68276306D01*
X100230000Y-68390756D01*
X100230000Y-68509244D01*
X100260667Y-68623694D01*
X100304722Y-68700000D01*
X99280000Y-68700000D01*
X99280000Y-69397844D01*
X99286401Y-69457372D01*
X99286403Y-69457379D01*
X99336645Y-69592086D01*
X99336649Y-69592093D01*
X99422809Y-69707187D01*
X99422812Y-69707190D01*
X99537906Y-69793350D01*
X99537913Y-69793354D01*
X99672620Y-69843596D01*
X99672627Y-69843598D01*
X99732155Y-69849999D01*
X99732172Y-69850000D01*
X100430000Y-69850000D01*
X100430000Y-68825277D01*
X100506306Y-68869333D01*
X100620756Y-68900000D01*
X100739244Y-68900000D01*
X100853694Y-68869333D01*
X100930000Y-68825277D01*
X100930000Y-69850000D01*
X101627828Y-69850000D01*
X101627844Y-69849999D01*
X101687372Y-69843598D01*
X101687379Y-69843596D01*
X101822086Y-69793354D01*
X101822093Y-69793350D01*
X101937187Y-69707190D01*
X101937190Y-69707187D01*
X102023350Y-69592093D01*
X102023354Y-69592086D01*
X102053213Y-69512031D01*
X102095084Y-69456097D01*
X102160548Y-69431680D01*
X102228821Y-69446531D01*
X102257076Y-69467683D01*
X102307636Y-69518243D01*
X102307641Y-69518247D01*
X102463192Y-69631260D01*
X102485978Y-69647815D01*
X102602501Y-69707187D01*
X102682393Y-69747895D01*
X102682396Y-69747896D01*
X102771359Y-69776801D01*
X102892049Y-69816015D01*
X103109778Y-69850500D01*
X103109779Y-69850500D01*
X103330221Y-69850500D01*
X103330222Y-69850500D01*
X103547951Y-69816015D01*
X103757606Y-69747895D01*
X103954022Y-69647815D01*
X104132365Y-69518242D01*
X104288242Y-69362365D01*
X104417815Y-69184022D01*
X104517895Y-68987606D01*
X104586015Y-68777951D01*
X104620500Y-68560222D01*
X104620500Y-68339778D01*
X104586015Y-68122049D01*
X104551955Y-68017221D01*
X104517896Y-67912396D01*
X104517895Y-67912393D01*
X104483237Y-67844375D01*
X104417815Y-67715978D01*
X104401260Y-67693192D01*
X104288247Y-67537641D01*
X104288243Y-67537636D01*
X104132363Y-67381756D01*
X104132358Y-67381752D01*
X103954025Y-67252187D01*
X103954024Y-67252186D01*
X103954022Y-67252185D01*
X103891096Y-67220122D01*
X103757606Y-67152104D01*
X103757603Y-67152103D01*
X103547952Y-67083985D01*
X103439086Y-67066742D01*
X103330222Y-67049500D01*
X103109778Y-67049500D01*
X103037201Y-67060995D01*
X102892047Y-67083985D01*
X102682396Y-67152103D01*
X102682393Y-67152104D01*
X102485974Y-67252187D01*
X102307641Y-67381752D01*
X102307636Y-67381756D01*
X102257075Y-67432317D01*
X102195752Y-67465801D01*
X102126060Y-67460816D01*
X102070127Y-67418945D01*
X102053213Y-67387968D01*
X102023354Y-67307913D01*
X102023350Y-67307906D01*
X101937190Y-67192812D01*
X101937187Y-67192809D01*
X101822093Y-67106649D01*
X101822086Y-67106645D01*
X101687379Y-67056403D01*
X101687372Y-67056401D01*
X101627844Y-67050000D01*
X100930000Y-67050000D01*
X100930000Y-68074722D01*
X100853694Y-68030667D01*
X100739244Y-68000000D01*
X100620756Y-68000000D01*
X100506306Y-68030667D01*
X100430000Y-68074722D01*
X100430000Y-67050000D01*
X99732155Y-67050000D01*
X99672627Y-67056401D01*
X99672620Y-67056403D01*
X99537913Y-67106645D01*
X99537906Y-67106649D01*
X99422812Y-67192809D01*
X99422809Y-67192812D01*
X99336649Y-67307906D01*
X99336645Y-67307913D01*
X99286403Y-67442620D01*
X99286401Y-67442627D01*
X99280000Y-67502155D01*
X97611369Y-67502155D01*
X97639369Y-67408652D01*
X97640072Y-67406387D01*
X97645980Y-67387968D01*
X98237646Y-65543165D01*
X98238399Y-65540894D01*
X98322376Y-65295527D01*
X98872014Y-63689574D01*
X98872803Y-63687343D01*
X98925138Y-63543593D01*
X99423686Y-62174207D01*
X99908044Y-62174207D01*
X99908044Y-62462650D01*
X99908045Y-62462667D01*
X99945693Y-62748635D01*
X99945694Y-62748640D01*
X99945695Y-62748646D01*
X99945696Y-62748648D01*
X100020353Y-63027273D01*
X100020358Y-63027289D01*
X100130735Y-63293765D01*
X100130743Y-63293781D01*
X100274964Y-63543577D01*
X100274975Y-63543593D01*
X100450568Y-63772431D01*
X100450574Y-63772438D01*
X100654534Y-63976398D01*
X100654540Y-63976403D01*
X100883388Y-64152004D01*
X100883395Y-64152008D01*
X101133191Y-64296229D01*
X101133207Y-64296237D01*
X101399683Y-64406614D01*
X101399689Y-64406615D01*
X101399699Y-64406620D01*
X101678327Y-64481278D01*
X101964316Y-64518929D01*
X101964323Y-64518929D01*
X102252765Y-64518929D01*
X102252772Y-64518929D01*
X102538761Y-64481278D01*
X102817389Y-64406620D01*
X102817401Y-64406614D01*
X102817404Y-64406614D01*
X103083880Y-64296237D01*
X103083883Y-64296235D01*
X103083889Y-64296233D01*
X103333700Y-64152004D01*
X103562548Y-63976403D01*
X103766518Y-63772433D01*
X103942119Y-63543585D01*
X104086348Y-63293774D01*
X104196735Y-63027274D01*
X104271393Y-62748646D01*
X104309044Y-62462657D01*
X104309044Y-62174201D01*
X104271393Y-61888212D01*
X104196735Y-61609584D01*
X104196730Y-61609574D01*
X104196729Y-61609568D01*
X104086352Y-61343092D01*
X104086344Y-61343076D01*
X103942123Y-61093280D01*
X103942119Y-61093273D01*
X103766518Y-60864425D01*
X103766513Y-60864419D01*
X103562553Y-60660459D01*
X103562546Y-60660453D01*
X103333708Y-60484860D01*
X103333706Y-60484858D01*
X103333700Y-60484854D01*
X103333695Y-60484851D01*
X103333692Y-60484849D01*
X103083896Y-60340628D01*
X103083880Y-60340620D01*
X102817404Y-60230243D01*
X102817392Y-60230239D01*
X102817389Y-60230238D01*
X102538761Y-60155580D01*
X102538755Y-60155579D01*
X102538750Y-60155578D01*
X102252782Y-60117930D01*
X102252777Y-60117929D01*
X102252772Y-60117929D01*
X101964316Y-60117929D01*
X101964310Y-60117929D01*
X101964305Y-60117930D01*
X101678337Y-60155578D01*
X101678330Y-60155579D01*
X101678327Y-60155580D01*
X101399699Y-60230238D01*
X101399683Y-60230243D01*
X101133207Y-60340620D01*
X101133191Y-60340628D01*
X100883395Y-60484849D01*
X100883379Y-60484860D01*
X100654541Y-60660453D01*
X100654534Y-60660459D01*
X100450574Y-60864419D01*
X100450568Y-60864426D01*
X100274975Y-61093264D01*
X100274964Y-61093280D01*
X100130743Y-61343076D01*
X100130735Y-61343092D01*
X100020358Y-61609568D01*
X100020353Y-61609584D01*
X99956862Y-61846538D01*
X99945696Y-61888209D01*
X99945693Y-61888222D01*
X99908045Y-62174190D01*
X99908044Y-62174207D01*
X99423686Y-62174207D01*
X99542198Y-61848684D01*
X99542977Y-61846605D01*
X100247980Y-60021093D01*
X100248815Y-60018993D01*
X100986376Y-58214151D01*
X100993547Y-58199455D01*
X101042513Y-58113946D01*
X101060650Y-58089712D01*
X101123993Y-58023713D01*
X101147465Y-58004595D01*
X101224923Y-57955913D01*
X101252325Y-57943056D01*
X101339272Y-57914601D01*
X101368967Y-57908770D01*
X101460229Y-57902237D01*
X101490451Y-57903778D01*
G37*
%TD.AperFunction*%
%TD*%
M02*
