%TF.GenerationSoftware,KiCad,Pcbnew,9.0.7*%
%TF.CreationDate,2026-02-20T22:18:46+09:00*%
%TF.ProjectId,side_line,73696465-5f6c-4696-9e65-2e6b69636164,rev?*%
%TF.SameCoordinates,Original*%
%TF.FileFunction,Soldermask,Top*%
%TF.FilePolarity,Negative*%
%FSLAX46Y46*%
G04 Gerber Fmt 4.6, Leading zero omitted, Abs format (unit mm)*
G04 Created by KiCad (PCBNEW 9.0.7) date 2026-02-20 22:18:47*
%MOMM*%
%LPD*%
G01*
G04 APERTURE LIST*
G04 Aperture macros list*
%AMRoundRect*
0 Rectangle with rounded corners*
0 $1 Rounding radius*
0 $2 $3 $4 $5 $6 $7 $8 $9 X,Y pos of 4 corners*
0 Add a 4 corners polygon primitive as box body*
4,1,4,$2,$3,$4,$5,$6,$7,$8,$9,$2,$3,0*
0 Add four circle primitives for the rounded corners*
1,1,$1+$1,$2,$3*
1,1,$1+$1,$4,$5*
1,1,$1+$1,$6,$7*
1,1,$1+$1,$8,$9*
0 Add four rect primitives between the rounded corners*
20,1,$1+$1,$2,$3,$4,$5,0*
20,1,$1+$1,$4,$5,$6,$7,0*
20,1,$1+$1,$6,$7,$8,$9,0*
20,1,$1+$1,$8,$9,$2,$3,0*%
G04 Aperture macros list end*
%ADD10RoundRect,0.200000X-0.200000X-0.275000X0.200000X-0.275000X0.200000X0.275000X-0.200000X0.275000X0*%
%ADD11RoundRect,0.250000X-0.312500X-0.625000X0.312500X-0.625000X0.312500X0.625000X-0.312500X0.625000X0*%
%ADD12RoundRect,0.200000X0.200000X0.275000X-0.200000X0.275000X-0.200000X-0.275000X0.200000X-0.275000X0*%
%ADD13R,1.700000X1.700000*%
%ADD14C,1.700000*%
%ADD15R,1.800000X1.800000*%
%ADD16C,1.800000*%
G04 APERTURE END LIST*
D10*
%TO.C,R13*%
X103250000Y-73100000D03*
X104900000Y-73100000D03*
%TD*%
%TO.C,R1*%
X101425000Y-112850000D03*
X103075000Y-112850000D03*
%TD*%
D11*
%TO.C,R7*%
X99737500Y-107850000D03*
X102662500Y-107850000D03*
%TD*%
D12*
%TO.C,R3*%
X103050000Y-114450000D03*
X101400000Y-114450000D03*
%TD*%
D11*
%TO.C,R9*%
X101787500Y-82000000D03*
X104712500Y-82000000D03*
%TD*%
D10*
%TO.C,R11*%
X100400000Y-86900000D03*
X102050000Y-86900000D03*
%TD*%
D11*
%TO.C,R10*%
X105487500Y-69100000D03*
X108412500Y-69100000D03*
%TD*%
D12*
%TO.C,R5*%
X101375000Y-101100000D03*
X99725000Y-101100000D03*
%TD*%
D13*
%TO.C,J1*%
X112800000Y-89860000D03*
D14*
X112800000Y-92400000D03*
X112800000Y-94940000D03*
X112800000Y-97480000D03*
X112800000Y-100020000D03*
X112800000Y-102560000D03*
X112800000Y-105100000D03*
%TD*%
D12*
%TO.C,R12*%
X102050000Y-88460000D03*
X100400000Y-88460000D03*
%TD*%
D11*
%TO.C,R6*%
X102537500Y-119700000D03*
X105462500Y-119700000D03*
%TD*%
D10*
%TO.C,R4*%
X99725000Y-99520000D03*
X101375000Y-99520000D03*
%TD*%
D12*
%TO.C,R14*%
X104900000Y-74750000D03*
X103250000Y-74750000D03*
%TD*%
%TO.C,R2*%
X105475000Y-125600000D03*
X103825000Y-125600000D03*
%TD*%
D10*
%TO.C,R26*%
X103850000Y-123950000D03*
X105500000Y-123950000D03*
%TD*%
D11*
%TO.C,R8*%
X99387500Y-94600000D03*
X102312500Y-94600000D03*
%TD*%
D15*
%TO.C,Q4*%
X95330000Y-87900000D03*
D16*
X97870000Y-87900000D03*
%TD*%
D15*
%TO.C,Q2*%
X96480000Y-114500000D03*
D16*
X99020000Y-114500000D03*
%TD*%
D15*
%TO.C,D5*%
X100680000Y-68450000D03*
D16*
X103220000Y-68450000D03*
%TD*%
D15*
%TO.C,D1*%
X97260000Y-120500000D03*
D16*
X99800000Y-120500000D03*
%TD*%
D15*
%TO.C,Q3*%
X94780000Y-100800000D03*
D16*
X97320000Y-100800000D03*
%TD*%
D15*
%TO.C,D4*%
X96480000Y-82000000D03*
D16*
X99020000Y-82000000D03*
%TD*%
D15*
%TO.C,D2*%
X94860000Y-108150000D03*
D16*
X97400000Y-108150000D03*
%TD*%
D15*
%TO.C,D3*%
X94280000Y-94550000D03*
D16*
X96820000Y-94550000D03*
%TD*%
D15*
%TO.C,Q5*%
X98160000Y-74150000D03*
D16*
X100700000Y-74150000D03*
%TD*%
D15*
%TO.C,Q1*%
X98930000Y-126050000D03*
D16*
X101470000Y-126050000D03*
%TD*%
M02*
