%TF.GenerationSoftware,KiCad,Pcbnew,9.0.7*%
%TF.CreationDate,2026-02-20T22:18:47+09:00*%
%TF.ProjectId,side_line,73696465-5f6c-4696-9e65-2e6b69636164,rev?*%
%TF.SameCoordinates,Original*%
%TF.FileFunction,Legend,Bot*%
%TF.FilePolarity,Positive*%
%FSLAX46Y46*%
G04 Gerber Fmt 4.6, Leading zero omitted, Abs format (unit mm)*
G04 Created by KiCad (PCBNEW 9.0.7) date 2026-02-20 22:18:47*
%MOMM*%
%LPD*%
G01*
G04 APERTURE LIST*
%ADD10C,0.150000*%
%ADD11C,0.120000*%
%ADD12C,3.200000*%
%ADD13R,1.700000X1.700000*%
%ADD14C,1.700000*%
%ADD15R,1.800000X1.800000*%
%ADD16C,1.800000*%
G04 APERTURE END LIST*
D10*
X96695238Y-91910057D02*
X96790476Y-91862438D01*
X96790476Y-91862438D02*
X96885714Y-91767200D01*
X96885714Y-91767200D02*
X97028571Y-91624342D01*
X97028571Y-91624342D02*
X97123809Y-91576723D01*
X97123809Y-91576723D02*
X97219047Y-91576723D01*
X97171428Y-91814819D02*
X97266666Y-91767200D01*
X97266666Y-91767200D02*
X97361904Y-91671961D01*
X97361904Y-91671961D02*
X97409523Y-91481485D01*
X97409523Y-91481485D02*
X97409523Y-91148152D01*
X97409523Y-91148152D02*
X97361904Y-90957676D01*
X97361904Y-90957676D02*
X97266666Y-90862438D01*
X97266666Y-90862438D02*
X97171428Y-90814819D01*
X97171428Y-90814819D02*
X96980952Y-90814819D01*
X96980952Y-90814819D02*
X96885714Y-90862438D01*
X96885714Y-90862438D02*
X96790476Y-90957676D01*
X96790476Y-90957676D02*
X96742857Y-91148152D01*
X96742857Y-91148152D02*
X96742857Y-91481485D01*
X96742857Y-91481485D02*
X96790476Y-91671961D01*
X96790476Y-91671961D02*
X96885714Y-91767200D01*
X96885714Y-91767200D02*
X96980952Y-91814819D01*
X96980952Y-91814819D02*
X97171428Y-91814819D01*
X95885714Y-91148152D02*
X95885714Y-91814819D01*
X96123809Y-90767200D02*
X96361904Y-91481485D01*
X96361904Y-91481485D02*
X95742857Y-91481485D01*
X97845238Y-118510057D02*
X97940476Y-118462438D01*
X97940476Y-118462438D02*
X98035714Y-118367200D01*
X98035714Y-118367200D02*
X98178571Y-118224342D01*
X98178571Y-118224342D02*
X98273809Y-118176723D01*
X98273809Y-118176723D02*
X98369047Y-118176723D01*
X98321428Y-118414819D02*
X98416666Y-118367200D01*
X98416666Y-118367200D02*
X98511904Y-118271961D01*
X98511904Y-118271961D02*
X98559523Y-118081485D01*
X98559523Y-118081485D02*
X98559523Y-117748152D01*
X98559523Y-117748152D02*
X98511904Y-117557676D01*
X98511904Y-117557676D02*
X98416666Y-117462438D01*
X98416666Y-117462438D02*
X98321428Y-117414819D01*
X98321428Y-117414819D02*
X98130952Y-117414819D01*
X98130952Y-117414819D02*
X98035714Y-117462438D01*
X98035714Y-117462438D02*
X97940476Y-117557676D01*
X97940476Y-117557676D02*
X97892857Y-117748152D01*
X97892857Y-117748152D02*
X97892857Y-118081485D01*
X97892857Y-118081485D02*
X97940476Y-118271961D01*
X97940476Y-118271961D02*
X98035714Y-118367200D01*
X98035714Y-118367200D02*
X98130952Y-118414819D01*
X98130952Y-118414819D02*
X98321428Y-118414819D01*
X97511904Y-117510057D02*
X97464285Y-117462438D01*
X97464285Y-117462438D02*
X97369047Y-117414819D01*
X97369047Y-117414819D02*
X97130952Y-117414819D01*
X97130952Y-117414819D02*
X97035714Y-117462438D01*
X97035714Y-117462438D02*
X96988095Y-117510057D01*
X96988095Y-117510057D02*
X96940476Y-117605295D01*
X96940476Y-117605295D02*
X96940476Y-117700533D01*
X96940476Y-117700533D02*
X96988095Y-117843390D01*
X96988095Y-117843390D02*
X97559523Y-118414819D01*
X97559523Y-118414819D02*
X96940476Y-118414819D01*
X102688094Y-71864819D02*
X102688094Y-70864819D01*
X102688094Y-70864819D02*
X102449999Y-70864819D01*
X102449999Y-70864819D02*
X102307142Y-70912438D01*
X102307142Y-70912438D02*
X102211904Y-71007676D01*
X102211904Y-71007676D02*
X102164285Y-71102914D01*
X102164285Y-71102914D02*
X102116666Y-71293390D01*
X102116666Y-71293390D02*
X102116666Y-71436247D01*
X102116666Y-71436247D02*
X102164285Y-71626723D01*
X102164285Y-71626723D02*
X102211904Y-71721961D01*
X102211904Y-71721961D02*
X102307142Y-71817200D01*
X102307142Y-71817200D02*
X102449999Y-71864819D01*
X102449999Y-71864819D02*
X102688094Y-71864819D01*
X101211904Y-70864819D02*
X101688094Y-70864819D01*
X101688094Y-70864819D02*
X101735713Y-71341009D01*
X101735713Y-71341009D02*
X101688094Y-71293390D01*
X101688094Y-71293390D02*
X101592856Y-71245771D01*
X101592856Y-71245771D02*
X101354761Y-71245771D01*
X101354761Y-71245771D02*
X101259523Y-71293390D01*
X101259523Y-71293390D02*
X101211904Y-71341009D01*
X101211904Y-71341009D02*
X101164285Y-71436247D01*
X101164285Y-71436247D02*
X101164285Y-71674342D01*
X101164285Y-71674342D02*
X101211904Y-71769580D01*
X101211904Y-71769580D02*
X101259523Y-71817200D01*
X101259523Y-71817200D02*
X101354761Y-71864819D01*
X101354761Y-71864819D02*
X101592856Y-71864819D01*
X101592856Y-71864819D02*
X101688094Y-71817200D01*
X101688094Y-71817200D02*
X101735713Y-71769580D01*
X99268094Y-123914819D02*
X99268094Y-122914819D01*
X99268094Y-122914819D02*
X99029999Y-122914819D01*
X99029999Y-122914819D02*
X98887142Y-122962438D01*
X98887142Y-122962438D02*
X98791904Y-123057676D01*
X98791904Y-123057676D02*
X98744285Y-123152914D01*
X98744285Y-123152914D02*
X98696666Y-123343390D01*
X98696666Y-123343390D02*
X98696666Y-123486247D01*
X98696666Y-123486247D02*
X98744285Y-123676723D01*
X98744285Y-123676723D02*
X98791904Y-123771961D01*
X98791904Y-123771961D02*
X98887142Y-123867200D01*
X98887142Y-123867200D02*
X99029999Y-123914819D01*
X99029999Y-123914819D02*
X99268094Y-123914819D01*
X97744285Y-123914819D02*
X98315713Y-123914819D01*
X98029999Y-123914819D02*
X98029999Y-122914819D01*
X98029999Y-122914819D02*
X98125237Y-123057676D01*
X98125237Y-123057676D02*
X98220475Y-123152914D01*
X98220475Y-123152914D02*
X98315713Y-123200533D01*
X96145238Y-104810057D02*
X96240476Y-104762438D01*
X96240476Y-104762438D02*
X96335714Y-104667200D01*
X96335714Y-104667200D02*
X96478571Y-104524342D01*
X96478571Y-104524342D02*
X96573809Y-104476723D01*
X96573809Y-104476723D02*
X96669047Y-104476723D01*
X96621428Y-104714819D02*
X96716666Y-104667200D01*
X96716666Y-104667200D02*
X96811904Y-104571961D01*
X96811904Y-104571961D02*
X96859523Y-104381485D01*
X96859523Y-104381485D02*
X96859523Y-104048152D01*
X96859523Y-104048152D02*
X96811904Y-103857676D01*
X96811904Y-103857676D02*
X96716666Y-103762438D01*
X96716666Y-103762438D02*
X96621428Y-103714819D01*
X96621428Y-103714819D02*
X96430952Y-103714819D01*
X96430952Y-103714819D02*
X96335714Y-103762438D01*
X96335714Y-103762438D02*
X96240476Y-103857676D01*
X96240476Y-103857676D02*
X96192857Y-104048152D01*
X96192857Y-104048152D02*
X96192857Y-104381485D01*
X96192857Y-104381485D02*
X96240476Y-104571961D01*
X96240476Y-104571961D02*
X96335714Y-104667200D01*
X96335714Y-104667200D02*
X96430952Y-104714819D01*
X96430952Y-104714819D02*
X96621428Y-104714819D01*
X95859523Y-103714819D02*
X95240476Y-103714819D01*
X95240476Y-103714819D02*
X95573809Y-104095771D01*
X95573809Y-104095771D02*
X95430952Y-104095771D01*
X95430952Y-104095771D02*
X95335714Y-104143390D01*
X95335714Y-104143390D02*
X95288095Y-104191009D01*
X95288095Y-104191009D02*
X95240476Y-104286247D01*
X95240476Y-104286247D02*
X95240476Y-104524342D01*
X95240476Y-104524342D02*
X95288095Y-104619580D01*
X95288095Y-104619580D02*
X95335714Y-104667200D01*
X95335714Y-104667200D02*
X95430952Y-104714819D01*
X95430952Y-104714819D02*
X95716666Y-104714819D01*
X95716666Y-104714819D02*
X95811904Y-104667200D01*
X95811904Y-104667200D02*
X95859523Y-104619580D01*
X98488094Y-85414819D02*
X98488094Y-84414819D01*
X98488094Y-84414819D02*
X98249999Y-84414819D01*
X98249999Y-84414819D02*
X98107142Y-84462438D01*
X98107142Y-84462438D02*
X98011904Y-84557676D01*
X98011904Y-84557676D02*
X97964285Y-84652914D01*
X97964285Y-84652914D02*
X97916666Y-84843390D01*
X97916666Y-84843390D02*
X97916666Y-84986247D01*
X97916666Y-84986247D02*
X97964285Y-85176723D01*
X97964285Y-85176723D02*
X98011904Y-85271961D01*
X98011904Y-85271961D02*
X98107142Y-85367200D01*
X98107142Y-85367200D02*
X98249999Y-85414819D01*
X98249999Y-85414819D02*
X98488094Y-85414819D01*
X97059523Y-84748152D02*
X97059523Y-85414819D01*
X97297618Y-84367200D02*
X97535713Y-85081485D01*
X97535713Y-85081485D02*
X96916666Y-85081485D01*
X96868094Y-111564819D02*
X96868094Y-110564819D01*
X96868094Y-110564819D02*
X96629999Y-110564819D01*
X96629999Y-110564819D02*
X96487142Y-110612438D01*
X96487142Y-110612438D02*
X96391904Y-110707676D01*
X96391904Y-110707676D02*
X96344285Y-110802914D01*
X96344285Y-110802914D02*
X96296666Y-110993390D01*
X96296666Y-110993390D02*
X96296666Y-111136247D01*
X96296666Y-111136247D02*
X96344285Y-111326723D01*
X96344285Y-111326723D02*
X96391904Y-111421961D01*
X96391904Y-111421961D02*
X96487142Y-111517200D01*
X96487142Y-111517200D02*
X96629999Y-111564819D01*
X96629999Y-111564819D02*
X96868094Y-111564819D01*
X95915713Y-110660057D02*
X95868094Y-110612438D01*
X95868094Y-110612438D02*
X95772856Y-110564819D01*
X95772856Y-110564819D02*
X95534761Y-110564819D01*
X95534761Y-110564819D02*
X95439523Y-110612438D01*
X95439523Y-110612438D02*
X95391904Y-110660057D01*
X95391904Y-110660057D02*
X95344285Y-110755295D01*
X95344285Y-110755295D02*
X95344285Y-110850533D01*
X95344285Y-110850533D02*
X95391904Y-110993390D01*
X95391904Y-110993390D02*
X95963332Y-111564819D01*
X95963332Y-111564819D02*
X95344285Y-111564819D01*
X96288094Y-97964819D02*
X96288094Y-96964819D01*
X96288094Y-96964819D02*
X96049999Y-96964819D01*
X96049999Y-96964819D02*
X95907142Y-97012438D01*
X95907142Y-97012438D02*
X95811904Y-97107676D01*
X95811904Y-97107676D02*
X95764285Y-97202914D01*
X95764285Y-97202914D02*
X95716666Y-97393390D01*
X95716666Y-97393390D02*
X95716666Y-97536247D01*
X95716666Y-97536247D02*
X95764285Y-97726723D01*
X95764285Y-97726723D02*
X95811904Y-97821961D01*
X95811904Y-97821961D02*
X95907142Y-97917200D01*
X95907142Y-97917200D02*
X96049999Y-97964819D01*
X96049999Y-97964819D02*
X96288094Y-97964819D01*
X95383332Y-96964819D02*
X94764285Y-96964819D01*
X94764285Y-96964819D02*
X95097618Y-97345771D01*
X95097618Y-97345771D02*
X94954761Y-97345771D01*
X94954761Y-97345771D02*
X94859523Y-97393390D01*
X94859523Y-97393390D02*
X94811904Y-97441009D01*
X94811904Y-97441009D02*
X94764285Y-97536247D01*
X94764285Y-97536247D02*
X94764285Y-97774342D01*
X94764285Y-97774342D02*
X94811904Y-97869580D01*
X94811904Y-97869580D02*
X94859523Y-97917200D01*
X94859523Y-97917200D02*
X94954761Y-97964819D01*
X94954761Y-97964819D02*
X95240475Y-97964819D01*
X95240475Y-97964819D02*
X95335713Y-97917200D01*
X95335713Y-97917200D02*
X95383332Y-97869580D01*
X99525238Y-78160057D02*
X99620476Y-78112438D01*
X99620476Y-78112438D02*
X99715714Y-78017200D01*
X99715714Y-78017200D02*
X99858571Y-77874342D01*
X99858571Y-77874342D02*
X99953809Y-77826723D01*
X99953809Y-77826723D02*
X100049047Y-77826723D01*
X100001428Y-78064819D02*
X100096666Y-78017200D01*
X100096666Y-78017200D02*
X100191904Y-77921961D01*
X100191904Y-77921961D02*
X100239523Y-77731485D01*
X100239523Y-77731485D02*
X100239523Y-77398152D01*
X100239523Y-77398152D02*
X100191904Y-77207676D01*
X100191904Y-77207676D02*
X100096666Y-77112438D01*
X100096666Y-77112438D02*
X100001428Y-77064819D01*
X100001428Y-77064819D02*
X99810952Y-77064819D01*
X99810952Y-77064819D02*
X99715714Y-77112438D01*
X99715714Y-77112438D02*
X99620476Y-77207676D01*
X99620476Y-77207676D02*
X99572857Y-77398152D01*
X99572857Y-77398152D02*
X99572857Y-77731485D01*
X99572857Y-77731485D02*
X99620476Y-77921961D01*
X99620476Y-77921961D02*
X99715714Y-78017200D01*
X99715714Y-78017200D02*
X99810952Y-78064819D01*
X99810952Y-78064819D02*
X100001428Y-78064819D01*
X98668095Y-77064819D02*
X99144285Y-77064819D01*
X99144285Y-77064819D02*
X99191904Y-77541009D01*
X99191904Y-77541009D02*
X99144285Y-77493390D01*
X99144285Y-77493390D02*
X99049047Y-77445771D01*
X99049047Y-77445771D02*
X98810952Y-77445771D01*
X98810952Y-77445771D02*
X98715714Y-77493390D01*
X98715714Y-77493390D02*
X98668095Y-77541009D01*
X98668095Y-77541009D02*
X98620476Y-77636247D01*
X98620476Y-77636247D02*
X98620476Y-77874342D01*
X98620476Y-77874342D02*
X98668095Y-77969580D01*
X98668095Y-77969580D02*
X98715714Y-78017200D01*
X98715714Y-78017200D02*
X98810952Y-78064819D01*
X98810952Y-78064819D02*
X99049047Y-78064819D01*
X99049047Y-78064819D02*
X99144285Y-78017200D01*
X99144285Y-78017200D02*
X99191904Y-77969580D01*
X100295238Y-130060057D02*
X100390476Y-130012438D01*
X100390476Y-130012438D02*
X100485714Y-129917200D01*
X100485714Y-129917200D02*
X100628571Y-129774342D01*
X100628571Y-129774342D02*
X100723809Y-129726723D01*
X100723809Y-129726723D02*
X100819047Y-129726723D01*
X100771428Y-129964819D02*
X100866666Y-129917200D01*
X100866666Y-129917200D02*
X100961904Y-129821961D01*
X100961904Y-129821961D02*
X101009523Y-129631485D01*
X101009523Y-129631485D02*
X101009523Y-129298152D01*
X101009523Y-129298152D02*
X100961904Y-129107676D01*
X100961904Y-129107676D02*
X100866666Y-129012438D01*
X100866666Y-129012438D02*
X100771428Y-128964819D01*
X100771428Y-128964819D02*
X100580952Y-128964819D01*
X100580952Y-128964819D02*
X100485714Y-129012438D01*
X100485714Y-129012438D02*
X100390476Y-129107676D01*
X100390476Y-129107676D02*
X100342857Y-129298152D01*
X100342857Y-129298152D02*
X100342857Y-129631485D01*
X100342857Y-129631485D02*
X100390476Y-129821961D01*
X100390476Y-129821961D02*
X100485714Y-129917200D01*
X100485714Y-129917200D02*
X100580952Y-129964819D01*
X100580952Y-129964819D02*
X100771428Y-129964819D01*
X99390476Y-129964819D02*
X99961904Y-129964819D01*
X99676190Y-129964819D02*
X99676190Y-128964819D01*
X99676190Y-128964819D02*
X99771428Y-129107676D01*
X99771428Y-129107676D02*
X99866666Y-129202914D01*
X99866666Y-129202914D02*
X99961904Y-129250533D01*
D11*
%TO.C,Q4*%
X94540000Y-86820000D02*
X94540000Y-86501000D01*
X94540000Y-89299000D02*
X94540000Y-88980000D01*
X94540000Y-86501251D02*
G75*
G02*
X98843591Y-86820000I2060000J-1398749D01*
G01*
X94916670Y-86820000D02*
G75*
G02*
X98283330Y-86820000I1683330J-1080000D01*
G01*
X98283330Y-88980000D02*
G75*
G02*
X94916670Y-88980000I-1683330J1080000D01*
G01*
X98843591Y-88980000D02*
G75*
G02*
X94540000Y-89298749I-2243591J1080000D01*
G01*
%TO.C,Q2*%
X95690000Y-113420000D02*
X95690000Y-113101000D01*
X95690000Y-115899000D02*
X95690000Y-115580000D01*
X95690000Y-113101251D02*
G75*
G02*
X99993591Y-113420000I2060000J-1398749D01*
G01*
X96066670Y-113420000D02*
G75*
G02*
X99433330Y-113420000I1683330J-1080000D01*
G01*
X99433330Y-115580000D02*
G75*
G02*
X96066670Y-115580000I-1683330J1080000D01*
G01*
X99993591Y-115580000D02*
G75*
G02*
X95690000Y-115898749I-2243591J1080000D01*
G01*
%TO.C,D5*%
X100390000Y-67370000D02*
X100390000Y-67214000D01*
X100390000Y-69686000D02*
X100390000Y-69530000D01*
X100390000Y-67214484D02*
G75*
G02*
X103621437Y-67370000I1560000J-1235516D01*
G01*
X100909039Y-67370000D02*
G75*
G02*
X102990961Y-67370000I1040961J-1080000D01*
G01*
X102990961Y-69530000D02*
G75*
G02*
X100909039Y-69530000I-1040961J1080000D01*
G01*
X103621437Y-69530000D02*
G75*
G02*
X100390000Y-69685516I-1671437J1080000D01*
G01*
%TO.C,D1*%
X96970000Y-119420000D02*
X96970000Y-119264000D01*
X96970000Y-121736000D02*
X96970000Y-121580000D01*
X96970000Y-119264484D02*
G75*
G02*
X100201437Y-119420000I1560000J-1235516D01*
G01*
X97489039Y-119420000D02*
G75*
G02*
X99570961Y-119420000I1040961J-1080000D01*
G01*
X99570961Y-121580000D02*
G75*
G02*
X97489039Y-121580000I-1040961J1080000D01*
G01*
X100201437Y-121580000D02*
G75*
G02*
X96970000Y-121735516I-1671437J1080000D01*
G01*
%TO.C,Q3*%
X93990000Y-99720000D02*
X93990000Y-99401000D01*
X93990000Y-102199000D02*
X93990000Y-101880000D01*
X93990000Y-99401251D02*
G75*
G02*
X98293591Y-99720000I2060000J-1398749D01*
G01*
X94366670Y-99720000D02*
G75*
G02*
X97733330Y-99720000I1683330J-1080000D01*
G01*
X97733330Y-101880000D02*
G75*
G02*
X94366670Y-101880000I-1683330J1080000D01*
G01*
X98293591Y-101880000D02*
G75*
G02*
X93990000Y-102198749I-2243591J1080000D01*
G01*
%TO.C,D4*%
X96190000Y-80920000D02*
X96190000Y-80764000D01*
X96190000Y-83236000D02*
X96190000Y-83080000D01*
X96190000Y-80764484D02*
G75*
G02*
X99421437Y-80920000I1560000J-1235516D01*
G01*
X96709039Y-80920000D02*
G75*
G02*
X98790961Y-80920000I1040961J-1080000D01*
G01*
X98790961Y-83080000D02*
G75*
G02*
X96709039Y-83080000I-1040961J1080000D01*
G01*
X99421437Y-83080000D02*
G75*
G02*
X96190000Y-83235516I-1671437J1080000D01*
G01*
%TO.C,D2*%
X94570000Y-107070000D02*
X94570000Y-106914000D01*
X94570000Y-109386000D02*
X94570000Y-109230000D01*
X94570000Y-106914484D02*
G75*
G02*
X97801437Y-107070000I1560000J-1235516D01*
G01*
X95089039Y-107070000D02*
G75*
G02*
X97170961Y-107070000I1040961J-1080000D01*
G01*
X97170961Y-109230000D02*
G75*
G02*
X95089039Y-109230000I-1040961J1080000D01*
G01*
X97801437Y-109230000D02*
G75*
G02*
X94570000Y-109385516I-1671437J1080000D01*
G01*
%TO.C,D3*%
X93990000Y-93470000D02*
X93990000Y-93314000D01*
X93990000Y-95786000D02*
X93990000Y-95630000D01*
X93990000Y-93314484D02*
G75*
G02*
X97221437Y-93470000I1560000J-1235516D01*
G01*
X94509039Y-93470000D02*
G75*
G02*
X96590961Y-93470000I1040961J-1080000D01*
G01*
X96590961Y-95630000D02*
G75*
G02*
X94509039Y-95630000I-1040961J1080000D01*
G01*
X97221437Y-95630000D02*
G75*
G02*
X93990000Y-95785516I-1671437J1080000D01*
G01*
%TO.C,Q5*%
X97370000Y-73070000D02*
X97370000Y-72751000D01*
X97370000Y-75549000D02*
X97370000Y-75230000D01*
X97370000Y-72751251D02*
G75*
G02*
X101673591Y-73070000I2060000J-1398749D01*
G01*
X97746670Y-73070000D02*
G75*
G02*
X101113330Y-73070000I1683330J-1080000D01*
G01*
X101113330Y-75230000D02*
G75*
G02*
X97746670Y-75230000I-1683330J1080000D01*
G01*
X101673591Y-75230000D02*
G75*
G02*
X97370000Y-75548749I-2243591J1080000D01*
G01*
%TO.C,Q1*%
X98140000Y-124970000D02*
X98140000Y-124651000D01*
X98140000Y-127449000D02*
X98140000Y-127130000D01*
X98140000Y-124651251D02*
G75*
G02*
X102443591Y-124970000I2060000J-1398749D01*
G01*
X98516670Y-124970000D02*
G75*
G02*
X101883330Y-124970000I1683330J-1080000D01*
G01*
X101883330Y-127130000D02*
G75*
G02*
X98516670Y-127130000I-1683330J1080000D01*
G01*
X102443591Y-127130000D02*
G75*
G02*
X98140000Y-127448749I-2243591J1080000D01*
G01*
%TD*%
%LPC*%
D12*
%TO.C,REF\u002A\u002A*%
X102100000Y-62300000D03*
%TD*%
D13*
%TO.C,J1*%
X112800000Y-89860000D03*
D14*
X112800000Y-92400000D03*
X112800000Y-94940000D03*
X112800000Y-97480000D03*
X112800000Y-100020000D03*
X112800000Y-102560000D03*
X112800000Y-105100000D03*
%TD*%
D12*
%TO.C,REF\u002A\u002A*%
X102100000Y-132300000D03*
%TD*%
D15*
%TO.C,Q4*%
X95330000Y-87900000D03*
D16*
X97870000Y-87900000D03*
%TD*%
D15*
%TO.C,Q2*%
X96480000Y-114500000D03*
D16*
X99020000Y-114500000D03*
%TD*%
D15*
%TO.C,D5*%
X100680000Y-68450000D03*
D16*
X103220000Y-68450000D03*
%TD*%
D15*
%TO.C,D1*%
X97260000Y-120500000D03*
D16*
X99800000Y-120500000D03*
%TD*%
D15*
%TO.C,Q3*%
X94780000Y-100800000D03*
D16*
X97320000Y-100800000D03*
%TD*%
D15*
%TO.C,D4*%
X96480000Y-82000000D03*
D16*
X99020000Y-82000000D03*
%TD*%
D15*
%TO.C,D2*%
X94860000Y-108150000D03*
D16*
X97400000Y-108150000D03*
%TD*%
D15*
%TO.C,D3*%
X94280000Y-94550000D03*
D16*
X96820000Y-94550000D03*
%TD*%
D15*
%TO.C,Q5*%
X98160000Y-74150000D03*
D16*
X100700000Y-74150000D03*
%TD*%
D15*
%TO.C,Q1*%
X98930000Y-126050000D03*
D16*
X101470000Y-126050000D03*
%TD*%
%LPD*%
M02*
